%TF.GenerationSoftware,KiCad,Pcbnew,8.0.1*%
%TF.CreationDate,2024-05-25T07:42:12-07:00*%
%TF.ProjectId,knockControlBoard,6b6e6f63-6b43-46f6-9e74-726f6c426f61,rev?*%
%TF.SameCoordinates,Original*%
%TF.FileFunction,Copper,L2,Bot*%
%TF.FilePolarity,Positive*%
%FSLAX46Y46*%
G04 Gerber Fmt 4.6, Leading zero omitted, Abs format (unit mm)*
G04 Created by KiCad (PCBNEW 8.0.1) date 2024-05-25 07:42:12*
%MOMM*%
%LPD*%
G01*
G04 APERTURE LIST*
G04 Aperture macros list*
%AMRoundRect*
0 Rectangle with rounded corners*
0 $1 Rounding radius*
0 $2 $3 $4 $5 $6 $7 $8 $9 X,Y pos of 4 corners*
0 Add a 4 corners polygon primitive as box body*
4,1,4,$2,$3,$4,$5,$6,$7,$8,$9,$2,$3,0*
0 Add four circle primitives for the rounded corners*
1,1,$1+$1,$2,$3*
1,1,$1+$1,$4,$5*
1,1,$1+$1,$6,$7*
1,1,$1+$1,$8,$9*
0 Add four rect primitives between the rounded corners*
20,1,$1+$1,$2,$3,$4,$5,0*
20,1,$1+$1,$4,$5,$6,$7,0*
20,1,$1+$1,$6,$7,$8,$9,0*
20,1,$1+$1,$8,$9,$2,$3,0*%
G04 Aperture macros list end*
%TA.AperFunction,SMDPad,CuDef*%
%ADD10RoundRect,0.250000X-0.475000X0.337500X-0.475000X-0.337500X0.475000X-0.337500X0.475000X0.337500X0*%
%TD*%
%TA.AperFunction,SMDPad,CuDef*%
%ADD11RoundRect,0.250000X0.337500X0.475000X-0.337500X0.475000X-0.337500X-0.475000X0.337500X-0.475000X0*%
%TD*%
%TA.AperFunction,ComponentPad*%
%ADD12C,4.000000*%
%TD*%
%TA.AperFunction,ComponentPad*%
%ADD13R,1.700000X1.700000*%
%TD*%
%TA.AperFunction,ComponentPad*%
%ADD14O,1.700000X1.700000*%
%TD*%
%TA.AperFunction,SMDPad,CuDef*%
%ADD15RoundRect,0.150000X0.150000X-0.587500X0.150000X0.587500X-0.150000X0.587500X-0.150000X-0.587500X0*%
%TD*%
%TA.AperFunction,SMDPad,CuDef*%
%ADD16RoundRect,0.237500X0.250000X0.237500X-0.250000X0.237500X-0.250000X-0.237500X0.250000X-0.237500X0*%
%TD*%
%TA.AperFunction,ComponentPad*%
%ADD17R,1.600000X1.600000*%
%TD*%
%TA.AperFunction,ComponentPad*%
%ADD18O,1.600000X1.600000*%
%TD*%
%TA.AperFunction,SMDPad,CuDef*%
%ADD19RoundRect,0.250000X-0.337500X-0.475000X0.337500X-0.475000X0.337500X0.475000X-0.337500X0.475000X0*%
%TD*%
%TA.AperFunction,ComponentPad*%
%ADD20R,3.960000X1.980000*%
%TD*%
%TA.AperFunction,ComponentPad*%
%ADD21O,3.960000X1.980000*%
%TD*%
%TA.AperFunction,ComponentPad*%
%ADD22C,1.397000*%
%TD*%
%TA.AperFunction,ComponentPad*%
%ADD23R,1.980000X3.960000*%
%TD*%
%TA.AperFunction,ComponentPad*%
%ADD24O,1.980000X3.960000*%
%TD*%
%TA.AperFunction,ComponentPad*%
%ADD25R,1.800000X1.800000*%
%TD*%
%TA.AperFunction,ComponentPad*%
%ADD26C,1.800000*%
%TD*%
%TA.AperFunction,SMDPad,CuDef*%
%ADD27RoundRect,0.250000X0.475000X-0.337500X0.475000X0.337500X-0.475000X0.337500X-0.475000X-0.337500X0*%
%TD*%
%TA.AperFunction,ViaPad*%
%ADD28C,0.600000*%
%TD*%
%TA.AperFunction,Conductor*%
%ADD29C,0.750000*%
%TD*%
%TA.AperFunction,Conductor*%
%ADD30C,0.500000*%
%TD*%
G04 APERTURE END LIST*
D10*
%TO.P,C6,1*%
%TO.N,GND*%
X113740000Y-102032500D03*
%TO.P,C6,2*%
%TO.N,+5V*%
X113740000Y-104107500D03*
%TD*%
D11*
%TO.P,C3,1*%
%TO.N,GND*%
X106307500Y-90090000D03*
%TO.P,C3,2*%
%TO.N,+5V*%
X104232500Y-90090000D03*
%TD*%
D12*
%TO.P,TP8,1,1*%
%TO.N,Net-(D1-A2)*%
X112070000Y-111120000D03*
%TD*%
%TO.P,TP7,1,1*%
%TO.N,Net-(C1-Pad1)*%
X106920000Y-111170000D03*
%TD*%
D13*
%TO.P,RV3,1,1*%
%TO.N,unconnected-(RV3-Pad1)*%
X102340000Y-109670000D03*
D14*
%TO.P,RV3,2,2*%
%TO.N,Net-(C1-Pad1)*%
X102340000Y-107130000D03*
%TO.P,RV3,3,3*%
%TO.N,Net-(R2-Pad1)*%
X102340000Y-104590000D03*
%TD*%
D15*
%TO.P,Q1,1,G*%
%TO.N,retarder_out*%
X126440000Y-83235000D03*
%TO.P,Q1,2,S*%
%TO.N,GND*%
X124540000Y-83235000D03*
%TO.P,Q1,3,D*%
%TO.N,Net-(D3-K)*%
X125490000Y-81360000D03*
%TD*%
D12*
%TO.P,TP6,1,1*%
%TO.N,retarder_out*%
X115390000Y-85130000D03*
%TD*%
%TO.P,TP5,1,1*%
%TO.N,Net-(U4-D)*%
X118230000Y-89730000D03*
%TD*%
D16*
%TO.P,R11,1*%
%TO.N,Net-(D3-A)*%
X116630000Y-78580000D03*
%TO.P,R11,2*%
%TO.N,+5V*%
X114805000Y-78580000D03*
%TD*%
D17*
%TO.P,D4,1,K*%
%TO.N,Net-(D4-K)*%
X100890000Y-89510000D03*
D18*
%TO.P,D4,2,A*%
%TO.N,Net-(D4-A)*%
X100890000Y-97130000D03*
%TD*%
D19*
%TO.P,C7,1*%
%TO.N,GND*%
X109812500Y-90230000D03*
%TO.P,C7,2*%
%TO.N,+5V*%
X111887500Y-90230000D03*
%TD*%
D20*
%TO.P,J1,1,Pin_1*%
%TO.N,GND*%
X92740000Y-98190000D03*
D21*
%TO.P,J1,2,Pin_2*%
%TO.N,Net-(J1-Pin_2)*%
X92740000Y-103190000D03*
%TD*%
D22*
%TO.P,SW2,1,1*%
%TO.N,+5V*%
X87850000Y-92480000D03*
X87850000Y-84860000D03*
%TO.P,SW2,2,2*%
%TO.N,Net-(U2-IN)*%
X92930000Y-92480000D03*
X92930000Y-84860000D03*
%TD*%
D13*
%TO.P,RV2,1,1*%
%TO.N,+5V*%
X124220000Y-97190000D03*
D14*
%TO.P,RV2,2,2*%
%TO.N,Net-(U6-IN-)*%
X124220000Y-94650000D03*
%TO.P,RV2,3,3*%
%TO.N,GND*%
X124220000Y-92110000D03*
%TD*%
D23*
%TO.P,J7,1,Pin_1*%
%TO.N,log_out*%
X107140000Y-72010000D03*
D24*
%TO.P,J7,2,Pin_2*%
%TO.N,log_sync*%
X102140000Y-72010000D03*
%TO.P,J7,3,Pin_3*%
%TO.N,retarder_out*%
X97140000Y-72010000D03*
%TO.P,J7,4,Pin_4*%
%TO.N,GND*%
X92140000Y-72010000D03*
%TD*%
D23*
%TO.P,J5,1,Pin_1*%
%TO.N,+5V*%
X113560000Y-72000000D03*
D24*
%TO.P,J5,2,Pin_2*%
%TO.N,GND*%
X118560000Y-72000000D03*
%TD*%
D12*
%TO.P,TP3,1,1*%
%TO.N,log_out*%
X110890000Y-81340000D03*
%TD*%
D22*
%TO.P,SW1,1,1*%
%TO.N,+5V*%
X95590000Y-113960000D03*
X87970000Y-113960000D03*
%TO.P,SW1,2,2*%
%TO.N,Net-(C1-Pad1)*%
X95590000Y-108880000D03*
X87970000Y-108880000D03*
%TD*%
D12*
%TO.P,TP1,1,1*%
%TO.N,GND*%
X86640000Y-80070000D03*
%TD*%
%TO.P,TP4,1,1*%
%TO.N,Net-(D4-K)*%
X110630000Y-97900000D03*
%TD*%
D25*
%TO.P,D3,1,K*%
%TO.N,Net-(D3-K)*%
X122450000Y-82090000D03*
D26*
%TO.P,D3,2,A*%
%TO.N,Net-(D3-A)*%
X119910000Y-82090000D03*
%TD*%
D13*
%TO.P,RV1,1,1*%
%TO.N,+5V*%
X124010000Y-112645000D03*
D14*
%TO.P,RV1,2,2*%
%TO.N,Net-(U1-IN-)*%
X124010000Y-110105000D03*
%TO.P,RV1,3,3*%
%TO.N,GND*%
X124010000Y-107565000D03*
%TD*%
D12*
%TO.P,TP2,1,1*%
%TO.N,Net-(U1-IN-)*%
X118340000Y-108310000D03*
%TD*%
D10*
%TO.P,C11,1*%
%TO.N,GND*%
X124530000Y-86462500D03*
%TO.P,C11,2*%
%TO.N,+5V*%
X124530000Y-88537500D03*
%TD*%
D27*
%TO.P,C2,1*%
%TO.N,GND*%
X103630000Y-95987500D03*
%TO.P,C2,2*%
%TO.N,+5V*%
X103630000Y-93912500D03*
%TD*%
D19*
%TO.P,C9,1*%
%TO.N,+5V*%
X114802500Y-76190000D03*
%TO.P,C9,2*%
%TO.N,GND*%
X116877500Y-76190000D03*
%TD*%
%TO.P,C5,1*%
%TO.N,GND*%
X111115000Y-106510000D03*
%TO.P,C5,2*%
%TO.N,+5V*%
X113190000Y-106510000D03*
%TD*%
D28*
%TO.N,+5V*%
X113500000Y-105130000D03*
%TO.N,GND*%
X97080000Y-90260000D03*
X96510000Y-89570000D03*
X108500000Y-87910000D03*
X107740000Y-87540000D03*
X107430000Y-81900000D03*
X106960000Y-80940000D03*
X126700000Y-114790000D03*
X99530000Y-112270000D03*
X98680000Y-111620000D03*
%TO.N,+5V*%
X124530000Y-88537500D03*
X103630000Y-93912500D03*
X104232500Y-90090000D03*
X111887500Y-90230000D03*
X113190000Y-106510000D03*
%TO.N,retarder_out*%
X126020000Y-84430012D03*
%TD*%
D29*
%TO.N,+5V*%
X113190000Y-104657500D02*
X113740000Y-104107500D01*
X113190000Y-106510000D02*
X113190000Y-104657500D01*
D30*
X113500000Y-104347500D02*
X113740000Y-104107500D01*
X113500000Y-105130000D02*
X113500000Y-104347500D01*
D29*
X121360000Y-100050000D02*
X124220000Y-97190000D01*
X124010000Y-112645000D02*
X121360000Y-109995000D01*
X121360000Y-109995000D02*
X121360000Y-100050000D01*
X115310000Y-108630000D02*
X115310000Y-113760000D01*
X115310000Y-113760000D02*
X115910000Y-114360000D01*
X113190000Y-106510000D02*
X115310000Y-108630000D01*
X115910000Y-114360000D02*
X122295000Y-114360000D01*
X95990000Y-114360000D02*
X115910000Y-114360000D01*
X122295000Y-114360000D02*
X124010000Y-112645000D01*
X95590000Y-113960000D02*
X95990000Y-114360000D01*
X87970000Y-113960000D02*
X95590000Y-113960000D01*
X89282500Y-93912500D02*
X103630000Y-93912500D01*
X87850000Y-92480000D02*
X89282500Y-93912500D01*
X87850000Y-84860000D02*
X87850000Y-92480000D01*
X111887500Y-92897500D02*
X112200000Y-93210000D01*
X111887500Y-90230000D02*
X111887500Y-92897500D01*
X112200000Y-93210000D02*
X106140000Y-93210000D01*
X121680000Y-93210000D02*
X112200000Y-93210000D01*
X103630000Y-91905000D02*
X104232500Y-91302500D01*
X103630000Y-93912500D02*
X103630000Y-91905000D01*
X106140000Y-93210000D02*
X104232500Y-91302500D01*
X104232500Y-91302500D02*
X104232500Y-90090000D01*
X121680000Y-93210000D02*
X121680000Y-94660000D01*
X121680000Y-90245000D02*
X121680000Y-93210000D01*
X121690000Y-94660000D02*
X124220000Y-97190000D01*
X121680000Y-94660000D02*
X121690000Y-94660000D01*
X123387500Y-88537500D02*
X121680000Y-90245000D01*
X114805000Y-79955000D02*
X123387500Y-88537500D01*
X114805000Y-78580000D02*
X114805000Y-79955000D01*
X123387500Y-88537500D02*
X124530000Y-88537500D01*
%TO.N,retarder_out*%
X97140000Y-81620000D02*
X97140000Y-72010000D01*
X101150000Y-85630000D02*
X97140000Y-81620000D01*
X113330000Y-85630000D02*
X101150000Y-85630000D01*
X113830000Y-85130000D02*
X113330000Y-85630000D01*
X115390000Y-85130000D02*
X113830000Y-85130000D01*
%TO.N,+5V*%
X114805000Y-76192500D02*
X114802500Y-76190000D01*
X114805000Y-78580000D02*
X114805000Y-76192500D01*
%TO.N,Net-(D3-A)*%
X119910000Y-81860000D02*
X116630000Y-78580000D01*
X119910000Y-82090000D02*
X119910000Y-81860000D01*
%TO.N,+5V*%
X114060000Y-76190000D02*
X113560000Y-75690000D01*
X113560000Y-75690000D02*
X113560000Y-72000000D01*
X114802500Y-76190000D02*
X114060000Y-76190000D01*
%TO.N,Net-(D3-K)*%
X123180000Y-81360000D02*
X122450000Y-82090000D01*
X125490000Y-81360000D02*
X123180000Y-81360000D01*
%TO.N,retarder_out*%
X126440000Y-84010012D02*
X126020000Y-84430012D01*
X126440000Y-83235000D02*
X126440000Y-84010012D01*
%TD*%
%TA.AperFunction,Conductor*%
%TO.N,GND*%
G36*
X128442539Y-65490185D02*
G01*
X128488294Y-65542989D01*
X128499500Y-65594500D01*
X128499500Y-115765500D01*
X128479815Y-115832539D01*
X128427011Y-115878294D01*
X128375500Y-115889500D01*
X84404500Y-115889500D01*
X84337461Y-115869815D01*
X84291706Y-115817011D01*
X84280500Y-115765500D01*
X84280500Y-111170007D01*
X104664671Y-111170007D01*
X104683964Y-111464363D01*
X104683965Y-111464373D01*
X104683966Y-111464380D01*
X104683968Y-111464390D01*
X104741518Y-111753716D01*
X104741521Y-111753730D01*
X104836349Y-112033080D01*
X104966825Y-112297660D01*
X104966829Y-112297667D01*
X105130725Y-112542955D01*
X105325241Y-112764758D01*
X105547044Y-112959274D01*
X105717502Y-113073170D01*
X105792335Y-113123172D01*
X106056923Y-113253652D01*
X106336278Y-113348481D01*
X106625620Y-113406034D01*
X106653888Y-113407886D01*
X106919993Y-113425329D01*
X106920000Y-113425329D01*
X106920007Y-113425329D01*
X107155675Y-113409881D01*
X107214380Y-113406034D01*
X107503722Y-113348481D01*
X107783077Y-113253652D01*
X108047665Y-113123172D01*
X108292957Y-112959273D01*
X108514758Y-112764758D01*
X108709273Y-112542957D01*
X108873172Y-112297665D01*
X109003652Y-112033077D01*
X109098481Y-111753722D01*
X109156034Y-111464380D01*
X109169856Y-111253499D01*
X109175329Y-111170007D01*
X109175329Y-111169992D01*
X109172053Y-111120007D01*
X109814671Y-111120007D01*
X109833964Y-111414363D01*
X109833965Y-111414373D01*
X109833966Y-111414380D01*
X109890234Y-111697264D01*
X109891518Y-111703716D01*
X109891521Y-111703730D01*
X109986349Y-111983080D01*
X110116825Y-112247660D01*
X110116829Y-112247667D01*
X110280725Y-112492955D01*
X110475241Y-112714758D01*
X110697044Y-112909274D01*
X110869836Y-113024730D01*
X110942335Y-113073172D01*
X111206923Y-113203652D01*
X111486278Y-113298481D01*
X111775620Y-113356034D01*
X111803888Y-113357886D01*
X112069993Y-113375329D01*
X112070000Y-113375329D01*
X112070007Y-113375329D01*
X112305675Y-113359881D01*
X112364380Y-113356034D01*
X112653722Y-113298481D01*
X112933077Y-113203652D01*
X113197665Y-113073172D01*
X113442957Y-112909273D01*
X113664758Y-112714758D01*
X113859273Y-112492957D01*
X114023172Y-112247665D01*
X114153652Y-111983077D01*
X114248481Y-111703722D01*
X114306034Y-111414380D01*
X114321728Y-111174944D01*
X114325329Y-111120007D01*
X114325329Y-111119992D01*
X114306035Y-110825636D01*
X114306034Y-110825620D01*
X114248481Y-110536278D01*
X114153652Y-110256923D01*
X114023172Y-109992336D01*
X113859273Y-109747043D01*
X113794235Y-109672882D01*
X113664758Y-109525241D01*
X113442955Y-109330725D01*
X113197667Y-109166829D01*
X113197660Y-109166825D01*
X112933080Y-109036349D01*
X112653730Y-108941521D01*
X112653724Y-108941519D01*
X112653722Y-108941519D01*
X112364380Y-108883966D01*
X112364373Y-108883965D01*
X112364363Y-108883964D01*
X112070007Y-108864671D01*
X112069993Y-108864671D01*
X111775636Y-108883964D01*
X111775624Y-108883965D01*
X111775620Y-108883966D01*
X111775612Y-108883967D01*
X111775609Y-108883968D01*
X111486283Y-108941518D01*
X111486269Y-108941521D01*
X111206919Y-109036349D01*
X110942334Y-109166828D01*
X110697041Y-109330728D01*
X110475241Y-109525241D01*
X110280728Y-109747041D01*
X110116828Y-109992334D01*
X109986349Y-110256919D01*
X109891521Y-110536269D01*
X109891518Y-110536283D01*
X109833968Y-110825609D01*
X109833964Y-110825636D01*
X109814671Y-111119992D01*
X109814671Y-111120007D01*
X109172053Y-111120007D01*
X109156035Y-110875636D01*
X109156034Y-110875620D01*
X109098481Y-110586278D01*
X109003652Y-110306923D01*
X108873172Y-110042336D01*
X108709273Y-109797043D01*
X108600390Y-109672886D01*
X108514758Y-109575241D01*
X108292955Y-109380725D01*
X108047667Y-109216829D01*
X108047660Y-109216825D01*
X107783080Y-109086349D01*
X107503730Y-108991521D01*
X107503724Y-108991519D01*
X107503722Y-108991519D01*
X107214380Y-108933966D01*
X107214373Y-108933965D01*
X107214363Y-108933964D01*
X106920007Y-108914671D01*
X106919993Y-108914671D01*
X106625636Y-108933964D01*
X106625624Y-108933965D01*
X106625620Y-108933966D01*
X106625612Y-108933967D01*
X106625609Y-108933968D01*
X106336283Y-108991518D01*
X106336269Y-108991521D01*
X106056919Y-109086349D01*
X105792334Y-109216828D01*
X105547041Y-109380728D01*
X105325241Y-109575241D01*
X105130728Y-109797041D01*
X104966828Y-110042334D01*
X104836349Y-110306919D01*
X104741521Y-110586269D01*
X104741518Y-110586283D01*
X104683968Y-110875609D01*
X104683964Y-110875636D01*
X104664671Y-111169992D01*
X104664671Y-111170007D01*
X84280500Y-111170007D01*
X84280500Y-110544678D01*
X101239500Y-110544678D01*
X101254032Y-110617735D01*
X101254033Y-110617739D01*
X101254034Y-110617740D01*
X101309399Y-110700601D01*
X101392260Y-110755966D01*
X101392264Y-110755967D01*
X101465321Y-110770499D01*
X101465324Y-110770500D01*
X101465326Y-110770500D01*
X103214676Y-110770500D01*
X103214677Y-110770499D01*
X103287740Y-110755966D01*
X103370601Y-110700601D01*
X103425966Y-110617740D01*
X103440500Y-110544674D01*
X103440500Y-108795326D01*
X103440500Y-108795323D01*
X103440499Y-108795321D01*
X103425967Y-108722264D01*
X103425966Y-108722260D01*
X103407059Y-108693963D01*
X103370601Y-108639399D01*
X103287740Y-108584034D01*
X103287739Y-108584033D01*
X103287735Y-108584032D01*
X103214677Y-108569500D01*
X103214674Y-108569500D01*
X101465326Y-108569500D01*
X101465323Y-108569500D01*
X101392264Y-108584032D01*
X101392260Y-108584033D01*
X101309399Y-108639399D01*
X101254033Y-108722260D01*
X101254032Y-108722264D01*
X101239500Y-108795321D01*
X101239500Y-110544678D01*
X84280500Y-110544678D01*
X84280500Y-108880000D01*
X87016408Y-108880000D01*
X87034730Y-109066033D01*
X87034730Y-109066035D01*
X87034731Y-109066037D01*
X87082351Y-109223017D01*
X87088998Y-109244930D01*
X87177113Y-109409781D01*
X87177117Y-109409788D01*
X87295708Y-109554291D01*
X87440211Y-109672882D01*
X87440218Y-109672886D01*
X87605069Y-109761001D01*
X87605072Y-109761001D01*
X87605076Y-109761004D01*
X87783963Y-109815269D01*
X87970000Y-109833592D01*
X88156037Y-109815269D01*
X88334924Y-109761004D01*
X88499787Y-109672883D01*
X88644291Y-109554291D01*
X88762883Y-109409787D01*
X88851004Y-109244924D01*
X88905269Y-109066037D01*
X88923592Y-108880000D01*
X94636408Y-108880000D01*
X94654730Y-109066033D01*
X94654730Y-109066035D01*
X94654731Y-109066037D01*
X94702351Y-109223017D01*
X94708998Y-109244930D01*
X94797113Y-109409781D01*
X94797117Y-109409788D01*
X94915708Y-109554291D01*
X95060211Y-109672882D01*
X95060218Y-109672886D01*
X95225069Y-109761001D01*
X95225072Y-109761001D01*
X95225076Y-109761004D01*
X95403963Y-109815269D01*
X95590000Y-109833592D01*
X95776037Y-109815269D01*
X95954924Y-109761004D01*
X96119787Y-109672883D01*
X96264291Y-109554291D01*
X96382883Y-109409787D01*
X96471004Y-109244924D01*
X96525269Y-109066037D01*
X96543592Y-108880000D01*
X96525269Y-108693963D01*
X96471004Y-108515076D01*
X96471001Y-108515072D01*
X96471001Y-108515069D01*
X96382886Y-108350218D01*
X96382882Y-108350211D01*
X96264291Y-108205708D01*
X96119788Y-108087117D01*
X96119781Y-108087113D01*
X95954930Y-107998998D01*
X95954924Y-107998996D01*
X95776037Y-107944731D01*
X95776035Y-107944730D01*
X95776033Y-107944730D01*
X95590000Y-107926408D01*
X95403966Y-107944730D01*
X95225069Y-107998998D01*
X95060218Y-108087113D01*
X95060211Y-108087117D01*
X94915708Y-108205708D01*
X94797117Y-108350211D01*
X94797113Y-108350218D01*
X94708998Y-108515069D01*
X94654730Y-108693966D01*
X94636408Y-108880000D01*
X88923592Y-108880000D01*
X88905269Y-108693963D01*
X88851004Y-108515076D01*
X88851001Y-108515072D01*
X88851001Y-108515069D01*
X88762886Y-108350218D01*
X88762882Y-108350211D01*
X88644291Y-108205708D01*
X88499788Y-108087117D01*
X88499781Y-108087113D01*
X88334930Y-107998998D01*
X88334924Y-107998996D01*
X88156037Y-107944731D01*
X88156035Y-107944730D01*
X88156033Y-107944730D01*
X87970000Y-107926408D01*
X87783966Y-107944730D01*
X87605069Y-107998998D01*
X87440218Y-108087113D01*
X87440211Y-108087117D01*
X87295708Y-108205708D01*
X87177117Y-108350211D01*
X87177113Y-108350218D01*
X87088998Y-108515069D01*
X87034730Y-108693966D01*
X87016408Y-108880000D01*
X84280500Y-108880000D01*
X84280500Y-107130000D01*
X101234785Y-107130000D01*
X101253602Y-107333082D01*
X101309417Y-107529247D01*
X101309422Y-107529260D01*
X101400327Y-107711821D01*
X101523237Y-107874581D01*
X101673958Y-108011980D01*
X101673960Y-108011982D01*
X101759588Y-108065000D01*
X101847363Y-108119348D01*
X102037544Y-108193024D01*
X102238024Y-108230500D01*
X102238026Y-108230500D01*
X102441974Y-108230500D01*
X102441976Y-108230500D01*
X102642456Y-108193024D01*
X102832637Y-108119348D01*
X103006041Y-108011981D01*
X103156764Y-107874579D01*
X103279673Y-107711821D01*
X103370582Y-107529250D01*
X103426397Y-107333083D01*
X103445215Y-107130000D01*
X103442349Y-107099075D01*
X103426397Y-106926917D01*
X103378904Y-106760000D01*
X110027501Y-106760000D01*
X110027501Y-107034986D01*
X110037994Y-107137697D01*
X110093141Y-107304119D01*
X110093143Y-107304124D01*
X110185184Y-107453345D01*
X110309154Y-107577315D01*
X110458375Y-107669356D01*
X110458380Y-107669358D01*
X110624802Y-107724505D01*
X110624809Y-107724506D01*
X110727519Y-107734999D01*
X110864999Y-107734999D01*
X110865000Y-107734998D01*
X110865000Y-106760000D01*
X110027501Y-106760000D01*
X103378904Y-106760000D01*
X103370582Y-106730750D01*
X103362859Y-106715241D01*
X103326272Y-106641764D01*
X103279673Y-106548179D01*
X103161279Y-106391400D01*
X103156762Y-106385418D01*
X103019184Y-106260000D01*
X110027500Y-106260000D01*
X110865000Y-106260000D01*
X110865000Y-105285000D01*
X110727527Y-105285000D01*
X110727512Y-105285001D01*
X110624802Y-105295494D01*
X110458380Y-105350641D01*
X110458375Y-105350643D01*
X110309154Y-105442684D01*
X110185184Y-105566654D01*
X110093143Y-105715875D01*
X110093141Y-105715880D01*
X110037994Y-105882302D01*
X110037993Y-105882309D01*
X110027500Y-105985013D01*
X110027500Y-106260000D01*
X103019184Y-106260000D01*
X103006041Y-106248019D01*
X103006039Y-106248017D01*
X102832642Y-106140655D01*
X102832635Y-106140651D01*
X102737546Y-106103814D01*
X102642456Y-106066976D01*
X102441976Y-106029500D01*
X102238024Y-106029500D01*
X102037544Y-106066976D01*
X102037541Y-106066976D01*
X102037541Y-106066977D01*
X101847364Y-106140651D01*
X101847357Y-106140655D01*
X101673960Y-106248017D01*
X101673958Y-106248019D01*
X101523237Y-106385418D01*
X101400327Y-106548178D01*
X101309422Y-106730739D01*
X101309417Y-106730752D01*
X101253602Y-106926917D01*
X101234785Y-107129999D01*
X101234785Y-107130000D01*
X84280500Y-107130000D01*
X84280500Y-104590000D01*
X101234785Y-104590000D01*
X101253602Y-104793082D01*
X101309417Y-104989247D01*
X101309422Y-104989260D01*
X101400327Y-105171821D01*
X101523237Y-105334581D01*
X101673958Y-105471980D01*
X101673960Y-105471982D01*
X101766158Y-105529068D01*
X101847363Y-105579348D01*
X102037544Y-105653024D01*
X102238024Y-105690500D01*
X102238026Y-105690500D01*
X102441974Y-105690500D01*
X102441976Y-105690500D01*
X102642456Y-105653024D01*
X102832637Y-105579348D01*
X103006041Y-105471981D01*
X103156764Y-105334579D01*
X103279673Y-105171821D01*
X103370582Y-104989250D01*
X103426397Y-104793083D01*
X103445215Y-104590000D01*
X103426397Y-104386917D01*
X103370582Y-104190750D01*
X103343422Y-104136206D01*
X103326272Y-104101764D01*
X103279673Y-104008179D01*
X103156764Y-103845421D01*
X103156762Y-103845418D01*
X103006041Y-103708019D01*
X103006039Y-103708017D01*
X102832642Y-103600655D01*
X102832635Y-103600651D01*
X102737546Y-103563814D01*
X102642456Y-103526976D01*
X102441976Y-103489500D01*
X102238024Y-103489500D01*
X102037544Y-103526976D01*
X102037541Y-103526976D01*
X102037541Y-103526977D01*
X101847364Y-103600651D01*
X101847357Y-103600655D01*
X101673960Y-103708017D01*
X101673958Y-103708019D01*
X101523237Y-103845418D01*
X101400327Y-104008178D01*
X101309422Y-104190739D01*
X101309417Y-104190752D01*
X101253602Y-104386917D01*
X101234785Y-104589999D01*
X101234785Y-104590000D01*
X84280500Y-104590000D01*
X84280500Y-103287634D01*
X90509500Y-103287634D01*
X90540045Y-103480485D01*
X90600381Y-103666184D01*
X90600382Y-103666187D01*
X90689031Y-103840167D01*
X90803793Y-103998125D01*
X90803797Y-103998130D01*
X90941869Y-104136202D01*
X90941874Y-104136206D01*
X91077477Y-104234726D01*
X91099836Y-104250971D01*
X91213565Y-104308919D01*
X91273812Y-104339617D01*
X91273815Y-104339618D01*
X91366664Y-104369786D01*
X91459516Y-104399955D01*
X91548835Y-104414101D01*
X91652366Y-104430500D01*
X91652371Y-104430500D01*
X93827634Y-104430500D01*
X93921125Y-104415691D01*
X94020484Y-104399955D01*
X94206187Y-104339617D01*
X94380164Y-104250971D01*
X94538132Y-104136201D01*
X94676201Y-103998132D01*
X94790971Y-103840164D01*
X94879617Y-103666187D01*
X94939955Y-103480484D01*
X94955691Y-103381125D01*
X94970500Y-103287634D01*
X94970500Y-103092365D01*
X94949901Y-102962315D01*
X94939955Y-102899516D01*
X94879617Y-102713813D01*
X94879617Y-102713812D01*
X94848919Y-102653565D01*
X94790971Y-102539836D01*
X94776307Y-102519653D01*
X94676206Y-102381874D01*
X94676202Y-102381869D01*
X94538130Y-102243797D01*
X94538125Y-102243793D01*
X94380167Y-102129031D01*
X94380166Y-102129030D01*
X94380164Y-102129029D01*
X94324426Y-102100629D01*
X94206187Y-102040382D01*
X94206184Y-102040381D01*
X94020485Y-101980045D01*
X93827634Y-101949500D01*
X93827629Y-101949500D01*
X91652371Y-101949500D01*
X91652366Y-101949500D01*
X91459514Y-101980045D01*
X91273815Y-102040381D01*
X91273812Y-102040382D01*
X91099832Y-102129031D01*
X90941874Y-102243793D01*
X90941869Y-102243797D01*
X90803797Y-102381869D01*
X90803793Y-102381874D01*
X90689031Y-102539832D01*
X90600382Y-102713812D01*
X90600381Y-102713815D01*
X90540045Y-102899514D01*
X90509500Y-103092365D01*
X90509500Y-103287634D01*
X84280500Y-103287634D01*
X84280500Y-101782500D01*
X112515000Y-101782500D01*
X113490000Y-101782500D01*
X113490000Y-100945000D01*
X113990000Y-100945000D01*
X113990000Y-101782500D01*
X114964999Y-101782500D01*
X114964999Y-101645028D01*
X114964998Y-101645013D01*
X114954505Y-101542302D01*
X114899358Y-101375880D01*
X114899356Y-101375875D01*
X114807315Y-101226654D01*
X114683345Y-101102684D01*
X114534124Y-101010643D01*
X114534119Y-101010641D01*
X114367697Y-100955494D01*
X114367690Y-100955493D01*
X114264986Y-100945000D01*
X113990000Y-100945000D01*
X113490000Y-100945000D01*
X113215029Y-100945000D01*
X113215012Y-100945001D01*
X113112302Y-100955494D01*
X112945880Y-101010641D01*
X112945875Y-101010643D01*
X112796654Y-101102684D01*
X112672684Y-101226654D01*
X112580643Y-101375875D01*
X112580641Y-101375880D01*
X112525494Y-101542302D01*
X112525493Y-101542309D01*
X112515000Y-101645013D01*
X112515000Y-101782500D01*
X84280500Y-101782500D01*
X84280500Y-99227844D01*
X90260000Y-99227844D01*
X90266401Y-99287372D01*
X90266403Y-99287379D01*
X90316645Y-99422086D01*
X90316649Y-99422093D01*
X90402809Y-99537187D01*
X90402812Y-99537190D01*
X90517906Y-99623350D01*
X90517913Y-99623354D01*
X90652620Y-99673596D01*
X90652627Y-99673598D01*
X90712155Y-99679999D01*
X90712172Y-99680000D01*
X92490000Y-99680000D01*
X92490000Y-98800824D01*
X92547485Y-98824636D01*
X92674996Y-98850000D01*
X92805004Y-98850000D01*
X92932515Y-98824636D01*
X92990000Y-98800824D01*
X92990000Y-99680000D01*
X94767828Y-99680000D01*
X94767844Y-99679999D01*
X94827372Y-99673598D01*
X94827379Y-99673596D01*
X94962086Y-99623354D01*
X94962093Y-99623350D01*
X95077187Y-99537190D01*
X95077190Y-99537187D01*
X95163350Y-99422093D01*
X95163354Y-99422086D01*
X95213596Y-99287379D01*
X95213598Y-99287372D01*
X95219999Y-99227844D01*
X95220000Y-99227827D01*
X95220000Y-98440000D01*
X93350825Y-98440000D01*
X93374636Y-98382515D01*
X93400000Y-98255004D01*
X93400000Y-98124996D01*
X93374636Y-97997485D01*
X93350825Y-97940000D01*
X95220000Y-97940000D01*
X95220000Y-97152172D01*
X95219999Y-97152155D01*
X95217617Y-97130000D01*
X99834417Y-97130000D01*
X99854699Y-97335932D01*
X99854700Y-97335934D01*
X99914768Y-97533954D01*
X100012315Y-97716450D01*
X100012317Y-97716452D01*
X100143589Y-97876410D01*
X100221075Y-97940000D01*
X100303550Y-98007685D01*
X100486046Y-98105232D01*
X100684066Y-98165300D01*
X100684065Y-98165300D01*
X100702529Y-98167118D01*
X100890000Y-98185583D01*
X101095934Y-98165300D01*
X101293954Y-98105232D01*
X101476450Y-98007685D01*
X101607657Y-97900007D01*
X108374671Y-97900007D01*
X108393964Y-98194363D01*
X108393965Y-98194373D01*
X108393966Y-98194380D01*
X108420309Y-98326819D01*
X108451518Y-98483716D01*
X108451521Y-98483730D01*
X108546349Y-98763080D01*
X108676825Y-99027660D01*
X108676829Y-99027667D01*
X108840725Y-99272955D01*
X109035241Y-99494758D01*
X109257041Y-99689272D01*
X109257042Y-99689273D01*
X109473952Y-99834207D01*
X109502335Y-99853172D01*
X109766923Y-99983652D01*
X110046278Y-100078481D01*
X110335620Y-100136034D01*
X110363888Y-100137886D01*
X110629993Y-100155329D01*
X110630000Y-100155329D01*
X110630007Y-100155329D01*
X110865675Y-100139881D01*
X110924380Y-100136034D01*
X111213722Y-100078481D01*
X111493077Y-99983652D01*
X111757665Y-99853172D01*
X111879894Y-99771500D01*
X112002958Y-99689273D01*
X112002959Y-99689272D01*
X112224758Y-99494758D01*
X112419273Y-99272957D01*
X112583172Y-99027665D01*
X112713652Y-98763077D01*
X112808481Y-98483722D01*
X112866034Y-98194380D01*
X112874535Y-98064678D01*
X112885329Y-97900007D01*
X112885329Y-97899992D01*
X112866035Y-97605636D01*
X112866034Y-97605620D01*
X112808481Y-97316278D01*
X112713652Y-97036923D01*
X112583172Y-96772336D01*
X112572690Y-96756649D01*
X112497500Y-96644119D01*
X112419273Y-96527043D01*
X112293467Y-96383589D01*
X112224758Y-96305241D01*
X112002955Y-96110725D01*
X111757667Y-95946829D01*
X111757660Y-95946825D01*
X111493080Y-95816349D01*
X111213730Y-95721521D01*
X111213724Y-95721519D01*
X111213722Y-95721519D01*
X110924380Y-95663966D01*
X110924373Y-95663965D01*
X110924363Y-95663964D01*
X110630007Y-95644671D01*
X110629993Y-95644671D01*
X110335636Y-95663964D01*
X110335624Y-95663965D01*
X110335620Y-95663966D01*
X110335612Y-95663967D01*
X110335609Y-95663968D01*
X110046283Y-95721518D01*
X110046269Y-95721521D01*
X109766919Y-95816349D01*
X109502334Y-95946828D01*
X109257041Y-96110728D01*
X109035241Y-96305241D01*
X108840728Y-96527041D01*
X108676828Y-96772334D01*
X108546349Y-97036919D01*
X108451521Y-97316269D01*
X108451518Y-97316283D01*
X108393968Y-97605609D01*
X108393964Y-97605636D01*
X108374671Y-97899992D01*
X108374671Y-97900007D01*
X101607657Y-97900007D01*
X101636410Y-97876410D01*
X101767685Y-97716450D01*
X101865232Y-97533954D01*
X101925300Y-97335934D01*
X101945583Y-97130000D01*
X101925300Y-96924066D01*
X101865232Y-96726046D01*
X101767685Y-96543550D01*
X101713635Y-96477690D01*
X101636410Y-96383589D01*
X101476452Y-96252317D01*
X101476453Y-96252317D01*
X101476450Y-96252315D01*
X101448733Y-96237500D01*
X102405001Y-96237500D01*
X102405001Y-96374986D01*
X102415494Y-96477697D01*
X102470641Y-96644119D01*
X102470643Y-96644124D01*
X102562684Y-96793345D01*
X102686654Y-96917315D01*
X102835875Y-97009356D01*
X102835880Y-97009358D01*
X103002302Y-97064505D01*
X103002309Y-97064506D01*
X103105019Y-97074999D01*
X103379999Y-97074999D01*
X103380000Y-97074998D01*
X103380000Y-96237500D01*
X103880000Y-96237500D01*
X103880000Y-97074999D01*
X104154972Y-97074999D01*
X104154986Y-97074998D01*
X104257697Y-97064505D01*
X104424119Y-97009358D01*
X104424124Y-97009356D01*
X104573345Y-96917315D01*
X104697315Y-96793345D01*
X104789356Y-96644124D01*
X104789358Y-96644119D01*
X104844505Y-96477697D01*
X104844506Y-96477690D01*
X104854999Y-96374986D01*
X104855000Y-96374973D01*
X104855000Y-96237500D01*
X103880000Y-96237500D01*
X103380000Y-96237500D01*
X102405001Y-96237500D01*
X101448733Y-96237500D01*
X101293954Y-96154768D01*
X101095934Y-96094700D01*
X101095932Y-96094699D01*
X101095934Y-96094699D01*
X100890000Y-96074417D01*
X100684067Y-96094699D01*
X100486043Y-96154769D01*
X100375898Y-96213643D01*
X100303550Y-96252315D01*
X100303548Y-96252316D01*
X100303547Y-96252317D01*
X100143589Y-96383589D01*
X100012317Y-96543547D01*
X99914769Y-96726043D01*
X99854699Y-96924067D01*
X99834417Y-97130000D01*
X95217617Y-97130000D01*
X95213598Y-97092627D01*
X95213596Y-97092620D01*
X95163354Y-96957913D01*
X95163350Y-96957906D01*
X95077190Y-96842812D01*
X95077187Y-96842809D01*
X94962093Y-96756649D01*
X94962086Y-96756645D01*
X94827379Y-96706403D01*
X94827372Y-96706401D01*
X94767844Y-96700000D01*
X92990000Y-96700000D01*
X92990000Y-97579175D01*
X92932515Y-97555364D01*
X92805004Y-97530000D01*
X92674996Y-97530000D01*
X92547485Y-97555364D01*
X92490000Y-97579175D01*
X92490000Y-96700000D01*
X90712155Y-96700000D01*
X90652627Y-96706401D01*
X90652620Y-96706403D01*
X90517913Y-96756645D01*
X90517906Y-96756649D01*
X90402812Y-96842809D01*
X90402809Y-96842812D01*
X90316649Y-96957906D01*
X90316645Y-96957913D01*
X90266403Y-97092620D01*
X90266401Y-97092627D01*
X90260000Y-97152155D01*
X90260000Y-97940000D01*
X92129175Y-97940000D01*
X92105364Y-97997485D01*
X92080000Y-98124996D01*
X92080000Y-98255004D01*
X92105364Y-98382515D01*
X92129175Y-98440000D01*
X90260000Y-98440000D01*
X90260000Y-99227844D01*
X84280500Y-99227844D01*
X84280500Y-92480000D01*
X86896408Y-92480000D01*
X86914730Y-92666033D01*
X86968998Y-92844930D01*
X87057113Y-93009781D01*
X87057117Y-93009788D01*
X87175708Y-93154291D01*
X87320211Y-93272882D01*
X87320218Y-93272886D01*
X87485069Y-93361001D01*
X87485072Y-93361001D01*
X87485076Y-93361004D01*
X87663963Y-93415269D01*
X87850000Y-93433592D01*
X87854443Y-93433154D01*
X87923089Y-93446168D01*
X87954285Y-93468875D01*
X88793516Y-94308106D01*
X88793545Y-94308137D01*
X88883763Y-94398355D01*
X88883767Y-94398358D01*
X88956439Y-94446915D01*
X88956441Y-94446918D01*
X88956442Y-94446918D01*
X88986208Y-94466808D01*
X88986212Y-94466810D01*
X88986215Y-94466812D01*
X89047824Y-94492331D01*
X89047825Y-94492331D01*
X89047826Y-94492332D01*
X89065232Y-94499541D01*
X89100048Y-94513963D01*
X89160471Y-94525981D01*
X89220893Y-94538000D01*
X89220894Y-94538000D01*
X102683323Y-94538000D01*
X102750362Y-94557685D01*
X102782590Y-94587690D01*
X102797454Y-94607546D01*
X102797455Y-94607547D01*
X102912664Y-94693793D01*
X102912673Y-94693798D01*
X102932468Y-94701181D01*
X102988402Y-94743051D01*
X103012820Y-94808515D01*
X102997969Y-94876788D01*
X102948565Y-94926194D01*
X102928141Y-94935069D01*
X102835878Y-94965642D01*
X102835875Y-94965643D01*
X102686654Y-95057684D01*
X102562684Y-95181654D01*
X102470643Y-95330875D01*
X102470641Y-95330880D01*
X102415494Y-95497302D01*
X102415493Y-95497309D01*
X102405000Y-95600013D01*
X102405000Y-95737500D01*
X104854999Y-95737500D01*
X104854999Y-95600028D01*
X104854998Y-95600013D01*
X104844505Y-95497302D01*
X104789358Y-95330880D01*
X104789356Y-95330875D01*
X104697315Y-95181654D01*
X104573345Y-95057684D01*
X104424124Y-94965643D01*
X104424119Y-94965641D01*
X104331859Y-94935069D01*
X104274414Y-94895296D01*
X104247591Y-94830780D01*
X104259906Y-94762004D01*
X104307449Y-94710804D01*
X104327533Y-94701180D01*
X104347326Y-94693798D01*
X104347331Y-94693796D01*
X104462546Y-94607546D01*
X104548796Y-94492331D01*
X104599091Y-94357483D01*
X104605500Y-94297873D01*
X104605499Y-93527128D01*
X104599091Y-93467517D01*
X104591128Y-93446168D01*
X104548797Y-93332671D01*
X104548793Y-93332664D01*
X104462547Y-93217455D01*
X104462544Y-93217452D01*
X104347335Y-93131206D01*
X104347332Y-93131205D01*
X104347331Y-93131204D01*
X104336161Y-93127038D01*
X104280231Y-93085166D01*
X104255816Y-93019701D01*
X104255500Y-93010858D01*
X104255500Y-92509452D01*
X104275185Y-92442413D01*
X104327989Y-92396658D01*
X104397147Y-92386714D01*
X104460703Y-92415739D01*
X104467178Y-92421768D01*
X105654141Y-93608732D01*
X105654142Y-93608733D01*
X105706056Y-93660647D01*
X105741268Y-93695859D01*
X105843707Y-93764307D01*
X105843713Y-93764310D01*
X105843714Y-93764311D01*
X105957548Y-93811463D01*
X106017971Y-93823481D01*
X106078393Y-93835500D01*
X106078394Y-93835500D01*
X112138394Y-93835500D01*
X120930500Y-93835500D01*
X120997539Y-93855185D01*
X121043294Y-93907989D01*
X121054500Y-93959500D01*
X121054500Y-94721610D01*
X121078535Y-94842444D01*
X121078538Y-94842454D01*
X121125687Y-94956283D01*
X121125692Y-94956292D01*
X121194141Y-95058732D01*
X121194144Y-95058736D01*
X121281264Y-95145856D01*
X121301253Y-95159212D01*
X121320043Y-95174633D01*
X123083181Y-96937771D01*
X123116666Y-96999094D01*
X123119500Y-97025452D01*
X123119500Y-97354547D01*
X123099815Y-97421586D01*
X123083181Y-97442228D01*
X122022782Y-98502627D01*
X120961270Y-99564139D01*
X120961267Y-99564142D01*
X120917704Y-99607704D01*
X120874142Y-99651266D01*
X120848747Y-99689273D01*
X120848746Y-99689272D01*
X120805686Y-99753716D01*
X120805685Y-99753718D01*
X120772347Y-99834207D01*
X120766823Y-99847543D01*
X120758537Y-99867545D01*
X120758535Y-99867553D01*
X120734500Y-99988389D01*
X120734500Y-107611593D01*
X120714815Y-107678632D01*
X120662011Y-107724387D01*
X120592853Y-107734331D01*
X120529297Y-107705306D01*
X120493081Y-107651452D01*
X120451597Y-107529247D01*
X120423652Y-107446923D01*
X120293172Y-107182336D01*
X120281522Y-107164901D01*
X120194716Y-107034986D01*
X120129273Y-106937043D01*
X120085755Y-106887420D01*
X119934758Y-106715241D01*
X119712955Y-106520725D01*
X119467667Y-106356829D01*
X119467660Y-106356825D01*
X119203080Y-106226349D01*
X118923730Y-106131521D01*
X118923724Y-106131519D01*
X118923722Y-106131519D01*
X118634380Y-106073966D01*
X118634373Y-106073965D01*
X118634363Y-106073964D01*
X118340007Y-106054671D01*
X118339993Y-106054671D01*
X118045636Y-106073964D01*
X118045624Y-106073965D01*
X118045620Y-106073966D01*
X118045612Y-106073967D01*
X118045609Y-106073968D01*
X117756283Y-106131518D01*
X117756269Y-106131521D01*
X117476919Y-106226349D01*
X117212334Y-106356828D01*
X116967041Y-106520728D01*
X116745241Y-106715241D01*
X116550728Y-106937041D01*
X116386828Y-107182334D01*
X116256349Y-107446919D01*
X116161521Y-107726269D01*
X116161518Y-107726283D01*
X116103968Y-108015609D01*
X116103964Y-108015636D01*
X116087461Y-108267417D01*
X116063434Y-108333026D01*
X116007751Y-108375229D01*
X115938090Y-108380628D01*
X115876569Y-108347508D01*
X115860629Y-108328203D01*
X115840356Y-108297863D01*
X115795858Y-108231267D01*
X115795856Y-108231264D01*
X115705637Y-108141045D01*
X115705606Y-108141016D01*
X114064318Y-106499728D01*
X114030833Y-106438405D01*
X114027999Y-106412047D01*
X114027999Y-105987129D01*
X114027998Y-105987123D01*
X114027771Y-105985013D01*
X114021591Y-105927517D01*
X113999543Y-105868404D01*
X113971297Y-105792671D01*
X113971293Y-105792664D01*
X113886394Y-105679254D01*
X113861976Y-105613790D01*
X113876827Y-105545517D01*
X113888615Y-105529791D01*
X113887673Y-105529068D01*
X113892618Y-105522622D01*
X113892621Y-105522621D01*
X113980861Y-105407625D01*
X114036330Y-105273709D01*
X114055250Y-105130000D01*
X114049416Y-105085684D01*
X114060182Y-105016649D01*
X114106562Y-104964393D01*
X114172355Y-104945499D01*
X114262871Y-104945499D01*
X114262872Y-104945499D01*
X114322483Y-104939091D01*
X114457331Y-104888796D01*
X114572546Y-104802546D01*
X114658796Y-104687331D01*
X114709091Y-104552483D01*
X114715500Y-104492873D01*
X114715499Y-103722128D01*
X114709091Y-103662517D01*
X114686016Y-103600651D01*
X114658797Y-103527671D01*
X114658793Y-103527664D01*
X114572547Y-103412455D01*
X114572544Y-103412452D01*
X114457335Y-103326206D01*
X114457329Y-103326203D01*
X114437529Y-103318818D01*
X114381596Y-103276946D01*
X114357179Y-103211482D01*
X114372031Y-103143209D01*
X114421437Y-103093804D01*
X114441860Y-103084930D01*
X114534117Y-103054359D01*
X114534124Y-103054356D01*
X114683345Y-102962315D01*
X114807315Y-102838345D01*
X114899356Y-102689124D01*
X114899358Y-102689119D01*
X114954505Y-102522697D01*
X114954506Y-102522690D01*
X114964999Y-102419986D01*
X114965000Y-102419973D01*
X114965000Y-102282500D01*
X112515001Y-102282500D01*
X112515001Y-102419986D01*
X112525494Y-102522697D01*
X112580641Y-102689119D01*
X112580643Y-102689124D01*
X112672684Y-102838345D01*
X112796654Y-102962315D01*
X112945875Y-103054356D01*
X112945880Y-103054358D01*
X113038140Y-103084930D01*
X113095585Y-103124702D01*
X113122408Y-103189218D01*
X113110093Y-103257994D01*
X113062550Y-103309194D01*
X113042471Y-103318817D01*
X113022674Y-103326201D01*
X113022664Y-103326206D01*
X112907455Y-103412452D01*
X112907452Y-103412455D01*
X112821206Y-103527664D01*
X112821202Y-103527671D01*
X112770908Y-103662517D01*
X112764501Y-103722116D01*
X112764501Y-103722123D01*
X112764500Y-103722135D01*
X112764500Y-104147046D01*
X112744815Y-104214085D01*
X112728183Y-104234726D01*
X112704140Y-104258768D01*
X112704138Y-104258772D01*
X112683306Y-104289950D01*
X112683305Y-104289952D01*
X112664231Y-104318496D01*
X112635687Y-104361214D01*
X112635685Y-104361218D01*
X112606989Y-104430500D01*
X112602347Y-104441707D01*
X112596823Y-104455043D01*
X112588537Y-104475045D01*
X112588535Y-104475053D01*
X112564500Y-104595889D01*
X112564500Y-105563321D01*
X112544815Y-105630360D01*
X112514813Y-105662586D01*
X112494959Y-105677449D01*
X112494951Y-105677457D01*
X112408706Y-105792664D01*
X112408701Y-105792674D01*
X112401317Y-105812471D01*
X112359445Y-105868404D01*
X112293980Y-105892820D01*
X112225707Y-105877967D01*
X112176303Y-105828561D01*
X112167430Y-105808140D01*
X112136858Y-105715880D01*
X112136856Y-105715875D01*
X112044815Y-105566654D01*
X111920845Y-105442684D01*
X111771624Y-105350643D01*
X111771619Y-105350641D01*
X111605197Y-105295494D01*
X111605190Y-105295493D01*
X111502486Y-105285000D01*
X111365000Y-105285000D01*
X111365000Y-107734999D01*
X111502472Y-107734999D01*
X111502486Y-107734998D01*
X111605197Y-107724505D01*
X111771619Y-107669358D01*
X111771624Y-107669356D01*
X111920845Y-107577315D01*
X112044815Y-107453345D01*
X112136856Y-107304124D01*
X112136859Y-107304117D01*
X112167430Y-107211860D01*
X112207202Y-107154415D01*
X112271718Y-107127591D01*
X112340494Y-107139906D01*
X112391694Y-107187448D01*
X112401318Y-107207529D01*
X112408703Y-107227329D01*
X112408706Y-107227335D01*
X112494952Y-107342544D01*
X112494955Y-107342547D01*
X112610164Y-107428793D01*
X112610171Y-107428797D01*
X112655118Y-107445561D01*
X112745017Y-107479091D01*
X112804627Y-107485500D01*
X113229547Y-107485499D01*
X113296586Y-107505183D01*
X113317228Y-107521818D01*
X114648181Y-108852771D01*
X114681666Y-108914094D01*
X114684500Y-108940452D01*
X114684500Y-113610500D01*
X114664815Y-113677539D01*
X114612011Y-113723294D01*
X114560500Y-113734500D01*
X96605263Y-113734500D01*
X96538224Y-113714815D01*
X96492469Y-113662011D01*
X96486603Y-113646497D01*
X96471003Y-113595073D01*
X96382886Y-113430218D01*
X96382882Y-113430211D01*
X96264291Y-113285708D01*
X96119788Y-113167117D01*
X96119781Y-113167113D01*
X95954930Y-113078998D01*
X95954924Y-113078996D01*
X95776037Y-113024731D01*
X95776035Y-113024730D01*
X95776033Y-113024730D01*
X95590000Y-113006408D01*
X95403966Y-113024730D01*
X95225069Y-113078998D01*
X95060218Y-113167113D01*
X95060211Y-113167117D01*
X94915707Y-113285709D01*
X94912871Y-113289166D01*
X94855125Y-113328500D01*
X94817019Y-113334500D01*
X88742981Y-113334500D01*
X88675942Y-113314815D01*
X88647129Y-113289166D01*
X88644292Y-113285709D01*
X88499788Y-113167117D01*
X88499781Y-113167113D01*
X88334930Y-113078998D01*
X88334924Y-113078996D01*
X88156037Y-113024731D01*
X88156035Y-113024730D01*
X88156033Y-113024730D01*
X87970000Y-113006408D01*
X87783966Y-113024730D01*
X87605069Y-113078998D01*
X87440218Y-113167113D01*
X87440211Y-113167117D01*
X87295708Y-113285708D01*
X87177117Y-113430211D01*
X87177113Y-113430218D01*
X87088998Y-113595069D01*
X87034730Y-113773966D01*
X87016408Y-113960000D01*
X87034730Y-114146033D01*
X87088998Y-114324930D01*
X87177113Y-114489781D01*
X87177117Y-114489788D01*
X87295708Y-114634291D01*
X87440211Y-114752882D01*
X87440218Y-114752886D01*
X87605069Y-114841001D01*
X87605072Y-114841001D01*
X87605076Y-114841004D01*
X87783963Y-114895269D01*
X87970000Y-114913592D01*
X88156037Y-114895269D01*
X88334924Y-114841004D01*
X88499787Y-114752883D01*
X88644291Y-114634291D01*
X88644292Y-114634290D01*
X88647129Y-114630834D01*
X88704875Y-114591500D01*
X88742981Y-114585500D01*
X94817019Y-114585500D01*
X94884058Y-114605185D01*
X94912871Y-114630834D01*
X94915707Y-114634290D01*
X95060211Y-114752882D01*
X95060218Y-114752886D01*
X95225069Y-114841001D01*
X95225072Y-114841001D01*
X95225076Y-114841004D01*
X95403963Y-114895269D01*
X95590000Y-114913592D01*
X95641477Y-114908521D01*
X95701080Y-114917362D01*
X95807548Y-114961463D01*
X95928388Y-114985499D01*
X95928392Y-114985500D01*
X95928393Y-114985500D01*
X122356607Y-114985500D01*
X122417029Y-114973481D01*
X122477452Y-114961463D01*
X122477455Y-114961461D01*
X122477458Y-114961461D01*
X122510787Y-114947654D01*
X122510786Y-114947654D01*
X122510792Y-114947652D01*
X122591286Y-114914312D01*
X122642509Y-114880084D01*
X122693733Y-114845858D01*
X122780858Y-114758733D01*
X122780859Y-114758731D01*
X122787925Y-114751665D01*
X122787927Y-114751661D01*
X123757771Y-113781819D01*
X123819094Y-113748334D01*
X123845452Y-113745500D01*
X124884676Y-113745500D01*
X124884677Y-113745499D01*
X124957740Y-113730966D01*
X125040601Y-113675601D01*
X125095966Y-113592740D01*
X125110500Y-113519674D01*
X125110500Y-111770326D01*
X125110500Y-111770323D01*
X125110499Y-111770321D01*
X125095967Y-111697264D01*
X125095966Y-111697260D01*
X125040601Y-111614399D01*
X124957740Y-111559034D01*
X124957739Y-111559033D01*
X124957735Y-111559032D01*
X124884677Y-111544500D01*
X124884674Y-111544500D01*
X123845452Y-111544500D01*
X123778413Y-111524815D01*
X123757771Y-111508181D01*
X123634104Y-111384514D01*
X123600619Y-111323191D01*
X123605603Y-111253499D01*
X123647475Y-111197566D01*
X123712939Y-111173149D01*
X123744559Y-111174943D01*
X123908024Y-111205500D01*
X123908026Y-111205500D01*
X124111974Y-111205500D01*
X124111976Y-111205500D01*
X124312456Y-111168024D01*
X124502637Y-111094348D01*
X124676041Y-110986981D01*
X124826764Y-110849579D01*
X124949673Y-110686821D01*
X125040582Y-110504250D01*
X125096397Y-110308083D01*
X125115215Y-110105000D01*
X125114684Y-110099274D01*
X125096397Y-109901917D01*
X125040582Y-109705750D01*
X125024216Y-109672883D01*
X124975597Y-109575242D01*
X124949673Y-109523179D01*
X124864044Y-109409788D01*
X124826762Y-109360418D01*
X124676041Y-109223019D01*
X124676039Y-109223017D01*
X124502642Y-109115655D01*
X124502635Y-109115651D01*
X124451617Y-109095887D01*
X124421714Y-109084302D01*
X124366313Y-109041730D01*
X124342723Y-108975963D01*
X124358434Y-108907883D01*
X124408458Y-108859104D01*
X124434417Y-108848901D01*
X124473481Y-108838434D01*
X124473492Y-108838429D01*
X124687578Y-108738600D01*
X124881082Y-108603105D01*
X125048105Y-108436082D01*
X125183600Y-108242578D01*
X125283429Y-108028492D01*
X125283432Y-108028486D01*
X125340636Y-107815000D01*
X124443012Y-107815000D01*
X124475925Y-107757993D01*
X124510000Y-107630826D01*
X124510000Y-107499174D01*
X124475925Y-107372007D01*
X124443012Y-107315000D01*
X125340636Y-107315000D01*
X125340635Y-107314999D01*
X125283432Y-107101513D01*
X125283429Y-107101507D01*
X125183600Y-106887422D01*
X125183599Y-106887420D01*
X125048113Y-106693926D01*
X125048108Y-106693920D01*
X124881082Y-106526894D01*
X124687578Y-106391399D01*
X124473492Y-106291570D01*
X124473486Y-106291567D01*
X124260000Y-106234364D01*
X124260000Y-107131988D01*
X124202993Y-107099075D01*
X124075826Y-107065000D01*
X123944174Y-107065000D01*
X123817007Y-107099075D01*
X123760000Y-107131988D01*
X123760000Y-106234364D01*
X123759999Y-106234364D01*
X123546513Y-106291567D01*
X123546507Y-106291570D01*
X123332422Y-106391399D01*
X123332420Y-106391400D01*
X123138926Y-106526886D01*
X123138920Y-106526891D01*
X122971891Y-106693920D01*
X122971886Y-106693926D01*
X122836400Y-106887420D01*
X122836399Y-106887422D01*
X122736570Y-107101507D01*
X122736567Y-107101513D01*
X122679364Y-107314999D01*
X122679364Y-107315000D01*
X123576988Y-107315000D01*
X123544075Y-107372007D01*
X123510000Y-107499174D01*
X123510000Y-107630826D01*
X123544075Y-107757993D01*
X123576988Y-107815000D01*
X122679364Y-107815000D01*
X122736567Y-108028486D01*
X122736570Y-108028492D01*
X122836399Y-108242578D01*
X122971894Y-108436082D01*
X123138917Y-108603105D01*
X123332421Y-108738600D01*
X123546507Y-108838429D01*
X123546516Y-108838433D01*
X123585583Y-108848901D01*
X123645244Y-108885266D01*
X123675773Y-108948113D01*
X123667479Y-109017488D01*
X123622993Y-109071366D01*
X123598284Y-109084302D01*
X123517373Y-109115647D01*
X123517357Y-109115655D01*
X123343960Y-109223017D01*
X123343958Y-109223019D01*
X123193237Y-109360418D01*
X123070327Y-109523178D01*
X122979422Y-109705739D01*
X122979417Y-109705752D01*
X122923602Y-109901917D01*
X122904785Y-110104999D01*
X122904785Y-110105000D01*
X122923602Y-110308082D01*
X122923603Y-110308084D01*
X122938463Y-110360311D01*
X122937876Y-110430178D01*
X122899610Y-110488637D01*
X122835812Y-110517127D01*
X122766740Y-110506603D01*
X122731516Y-110481926D01*
X122021819Y-109772229D01*
X121988334Y-109710906D01*
X121985500Y-109684548D01*
X121985500Y-100360452D01*
X122005185Y-100293413D01*
X122021819Y-100272771D01*
X123967771Y-98326819D01*
X124029094Y-98293334D01*
X124055452Y-98290500D01*
X125094676Y-98290500D01*
X125094677Y-98290499D01*
X125167740Y-98275966D01*
X125250601Y-98220601D01*
X125305966Y-98137740D01*
X125320500Y-98064674D01*
X125320500Y-96315326D01*
X125320500Y-96315323D01*
X125320499Y-96315321D01*
X125305967Y-96242264D01*
X125305966Y-96242260D01*
X125250601Y-96159399D01*
X125195235Y-96122405D01*
X125167739Y-96104033D01*
X125167735Y-96104032D01*
X125094677Y-96089500D01*
X125094674Y-96089500D01*
X124055452Y-96089500D01*
X123988413Y-96069815D01*
X123967771Y-96053181D01*
X123844104Y-95929514D01*
X123810619Y-95868191D01*
X123815603Y-95798499D01*
X123857475Y-95742566D01*
X123922939Y-95718149D01*
X123954559Y-95719943D01*
X124118024Y-95750500D01*
X124118026Y-95750500D01*
X124321974Y-95750500D01*
X124321976Y-95750500D01*
X124522456Y-95713024D01*
X124712637Y-95639348D01*
X124886041Y-95531981D01*
X125036764Y-95394579D01*
X125159673Y-95231821D01*
X125250582Y-95049250D01*
X125306397Y-94853083D01*
X125325215Y-94650000D01*
X125312609Y-94513962D01*
X125306397Y-94446917D01*
X125306396Y-94446914D01*
X125292581Y-94398359D01*
X125250582Y-94250750D01*
X125159673Y-94068179D01*
X125077603Y-93959500D01*
X125036762Y-93905418D01*
X124886041Y-93768019D01*
X124886039Y-93768017D01*
X124712642Y-93660655D01*
X124712635Y-93660651D01*
X124631715Y-93629303D01*
X124576313Y-93586730D01*
X124552723Y-93520963D01*
X124568434Y-93452883D01*
X124618458Y-93404104D01*
X124644417Y-93393901D01*
X124683481Y-93383434D01*
X124683492Y-93383429D01*
X124897578Y-93283600D01*
X125091082Y-93148105D01*
X125258105Y-92981082D01*
X125393600Y-92787578D01*
X125493429Y-92573492D01*
X125493432Y-92573486D01*
X125550636Y-92360000D01*
X124653012Y-92360000D01*
X124685925Y-92302993D01*
X124720000Y-92175826D01*
X124720000Y-92044174D01*
X124685925Y-91917007D01*
X124653012Y-91860000D01*
X125550636Y-91860000D01*
X125550635Y-91859999D01*
X125493432Y-91646513D01*
X125493429Y-91646507D01*
X125393600Y-91432422D01*
X125393599Y-91432420D01*
X125258113Y-91238926D01*
X125258108Y-91238920D01*
X125091082Y-91071894D01*
X124897578Y-90936399D01*
X124683492Y-90836570D01*
X124683486Y-90836567D01*
X124470000Y-90779364D01*
X124470000Y-91676988D01*
X124412993Y-91644075D01*
X124285826Y-91610000D01*
X124154174Y-91610000D01*
X124027007Y-91644075D01*
X123970000Y-91676988D01*
X123970000Y-90779364D01*
X123969999Y-90779364D01*
X123756513Y-90836567D01*
X123756507Y-90836570D01*
X123542422Y-90936399D01*
X123542420Y-90936400D01*
X123348926Y-91071886D01*
X123348920Y-91071891D01*
X123181891Y-91238920D01*
X123181886Y-91238926D01*
X123046400Y-91432420D01*
X123046399Y-91432422D01*
X122946570Y-91646507D01*
X122946567Y-91646513D01*
X122889364Y-91859999D01*
X122889364Y-91860000D01*
X123786988Y-91860000D01*
X123754075Y-91917007D01*
X123720000Y-92044174D01*
X123720000Y-92175826D01*
X123754075Y-92302993D01*
X123786988Y-92360000D01*
X122889364Y-92360000D01*
X122946567Y-92573486D01*
X122946570Y-92573492D01*
X123046399Y-92787578D01*
X123181894Y-92981082D01*
X123348917Y-93148105D01*
X123542421Y-93283600D01*
X123756507Y-93383429D01*
X123756516Y-93383433D01*
X123795583Y-93393901D01*
X123855244Y-93430266D01*
X123885773Y-93493113D01*
X123877479Y-93562488D01*
X123832993Y-93616366D01*
X123808284Y-93629302D01*
X123727373Y-93660647D01*
X123727357Y-93660655D01*
X123553960Y-93768017D01*
X123553958Y-93768019D01*
X123403237Y-93905418D01*
X123280327Y-94068178D01*
X123189422Y-94250739D01*
X123189417Y-94250752D01*
X123133604Y-94446914D01*
X123133602Y-94446917D01*
X123114785Y-94649999D01*
X123114785Y-94650000D01*
X123133602Y-94853082D01*
X123133603Y-94853084D01*
X123148463Y-94905311D01*
X123147876Y-94975178D01*
X123109610Y-95033637D01*
X123045812Y-95062127D01*
X122976740Y-95051603D01*
X122941516Y-95026926D01*
X122341819Y-94427229D01*
X122308334Y-94365906D01*
X122305500Y-94339548D01*
X122305500Y-90555452D01*
X122325185Y-90488413D01*
X122341819Y-90467771D01*
X122912100Y-89897490D01*
X123552618Y-89256971D01*
X123613939Y-89223488D01*
X123683631Y-89228472D01*
X123714608Y-89245388D01*
X123812664Y-89318793D01*
X123812671Y-89318797D01*
X123947517Y-89369091D01*
X123947516Y-89369091D01*
X123954444Y-89369835D01*
X124007127Y-89375500D01*
X125052872Y-89375499D01*
X125112483Y-89369091D01*
X125247331Y-89318796D01*
X125362546Y-89232546D01*
X125448796Y-89117331D01*
X125499091Y-88982483D01*
X125505500Y-88922873D01*
X125505499Y-88152128D01*
X125499091Y-88092517D01*
X125448796Y-87957669D01*
X125448795Y-87957668D01*
X125448793Y-87957664D01*
X125362547Y-87842455D01*
X125362544Y-87842452D01*
X125247335Y-87756206D01*
X125247329Y-87756203D01*
X125227529Y-87748818D01*
X125171596Y-87706946D01*
X125147179Y-87641482D01*
X125162031Y-87573209D01*
X125211437Y-87523804D01*
X125231860Y-87514930D01*
X125324117Y-87484359D01*
X125324124Y-87484356D01*
X125473345Y-87392315D01*
X125597315Y-87268345D01*
X125689356Y-87119124D01*
X125689358Y-87119119D01*
X125744505Y-86952697D01*
X125744506Y-86952690D01*
X125754999Y-86849986D01*
X125755000Y-86849973D01*
X125755000Y-86712500D01*
X123305001Y-86712500D01*
X123305001Y-86849986D01*
X123315494Y-86952697D01*
X123370641Y-87119119D01*
X123370643Y-87119124D01*
X123462684Y-87268345D01*
X123586654Y-87392315D01*
X123735875Y-87484356D01*
X123735880Y-87484358D01*
X123828140Y-87514930D01*
X123885585Y-87554702D01*
X123912408Y-87619218D01*
X123900093Y-87687994D01*
X123852550Y-87739194D01*
X123832471Y-87748817D01*
X123812674Y-87756201D01*
X123812668Y-87756204D01*
X123714608Y-87829612D01*
X123649143Y-87854029D01*
X123580870Y-87839177D01*
X123552616Y-87818026D01*
X121947090Y-86212500D01*
X123305000Y-86212500D01*
X124280000Y-86212500D01*
X124280000Y-85375000D01*
X124780000Y-85375000D01*
X124780000Y-86212500D01*
X125754999Y-86212500D01*
X125754999Y-86075028D01*
X125754998Y-86075013D01*
X125744505Y-85972302D01*
X125689358Y-85805880D01*
X125689356Y-85805875D01*
X125597315Y-85656654D01*
X125473345Y-85532684D01*
X125324124Y-85440643D01*
X125324119Y-85440641D01*
X125157697Y-85385494D01*
X125157690Y-85385493D01*
X125054986Y-85375000D01*
X124780000Y-85375000D01*
X124280000Y-85375000D01*
X124005029Y-85375000D01*
X124005012Y-85375001D01*
X123902302Y-85385494D01*
X123735880Y-85440641D01*
X123735875Y-85440643D01*
X123586654Y-85532684D01*
X123462684Y-85656654D01*
X123370643Y-85805875D01*
X123370641Y-85805880D01*
X123315494Y-85972302D01*
X123315493Y-85972309D01*
X123305000Y-86075013D01*
X123305000Y-86212500D01*
X121947090Y-86212500D01*
X119219590Y-83485000D01*
X123740000Y-83485000D01*
X123740000Y-83888149D01*
X123742899Y-83924989D01*
X123742900Y-83924995D01*
X123788716Y-84082693D01*
X123788717Y-84082696D01*
X123872314Y-84224052D01*
X123872321Y-84224061D01*
X123988438Y-84340178D01*
X123988447Y-84340185D01*
X124129801Y-84423781D01*
X124287514Y-84469600D01*
X124287511Y-84469600D01*
X124289998Y-84469795D01*
X124290000Y-84469795D01*
X124290000Y-83485000D01*
X123740000Y-83485000D01*
X119219590Y-83485000D01*
X115466819Y-79732229D01*
X115433334Y-79670906D01*
X115430500Y-79644548D01*
X115430500Y-79171475D01*
X115450185Y-79104436D01*
X115455234Y-79097164D01*
X115487709Y-79053782D01*
X115487708Y-79053782D01*
X115487712Y-79053778D01*
X115536751Y-78922299D01*
X115542999Y-78864190D01*
X115892000Y-78864190D01*
X115898248Y-78922299D01*
X115947289Y-79053780D01*
X115970414Y-79084671D01*
X116031384Y-79166116D01*
X116143722Y-79250212D01*
X116236094Y-79284665D01*
X116275200Y-79299251D01*
X116333309Y-79305499D01*
X116333326Y-79305500D01*
X116419548Y-79305500D01*
X116486587Y-79325185D01*
X116507229Y-79341819D01*
X118782269Y-81616860D01*
X118815754Y-81678183D01*
X118813854Y-81738475D01*
X118774244Y-81877687D01*
X118754571Y-82089999D01*
X118754571Y-82090000D01*
X118774244Y-82302310D01*
X118792957Y-82368080D01*
X118832596Y-82507392D01*
X118832596Y-82507394D01*
X118927632Y-82698253D01*
X119056127Y-82868406D01*
X119056128Y-82868407D01*
X119213698Y-83012052D01*
X119394981Y-83124298D01*
X119593802Y-83201321D01*
X119803390Y-83240500D01*
X119803392Y-83240500D01*
X120016608Y-83240500D01*
X120016610Y-83240500D01*
X120226198Y-83201321D01*
X120425019Y-83124298D01*
X120606302Y-83012052D01*
X120763872Y-82868407D01*
X120892366Y-82698255D01*
X120950321Y-82581865D01*
X120987403Y-82507394D01*
X120987403Y-82507393D01*
X120987405Y-82507389D01*
X121045756Y-82302310D01*
X121052029Y-82234611D01*
X121077815Y-82169675D01*
X121134615Y-82128987D01*
X121204396Y-82125467D01*
X121265003Y-82160232D01*
X121297193Y-82222245D01*
X121299500Y-82246053D01*
X121299500Y-83014678D01*
X121314032Y-83087735D01*
X121314033Y-83087739D01*
X121314034Y-83087740D01*
X121369399Y-83170601D01*
X121415373Y-83201319D01*
X121452260Y-83225966D01*
X121452264Y-83225967D01*
X121525321Y-83240499D01*
X121525324Y-83240500D01*
X121525326Y-83240500D01*
X123374676Y-83240500D01*
X123374677Y-83240499D01*
X123447740Y-83225966D01*
X123530601Y-83170601D01*
X123585966Y-83087740D01*
X123585967Y-83087735D01*
X123586550Y-83084807D01*
X123589580Y-83079013D01*
X123590640Y-83076456D01*
X123590868Y-83076550D01*
X123618936Y-83022897D01*
X123679652Y-82988323D01*
X123708167Y-82985000D01*
X125340000Y-82985000D01*
X125340000Y-82581865D01*
X125339999Y-82581850D01*
X125337100Y-82545012D01*
X125325939Y-82506594D01*
X125326139Y-82436724D01*
X125364082Y-82378054D01*
X125427720Y-82349211D01*
X125445007Y-82347999D01*
X125671518Y-82347999D01*
X125765304Y-82333146D01*
X125765305Y-82333145D01*
X125774943Y-82331619D01*
X125775263Y-82333643D01*
X125832500Y-82332004D01*
X125892335Y-82368080D01*
X125923168Y-82430779D01*
X125915209Y-82500193D01*
X125911472Y-82508226D01*
X125904353Y-82522197D01*
X125904352Y-82522198D01*
X125889500Y-82615975D01*
X125889500Y-82904848D01*
X125880061Y-82952301D01*
X125838538Y-83052545D01*
X125838535Y-83052555D01*
X125814500Y-83173389D01*
X125814500Y-83699559D01*
X125794815Y-83766598D01*
X125778181Y-83787240D01*
X125548858Y-84016562D01*
X125487535Y-84050047D01*
X125417843Y-84045063D01*
X125361910Y-84003191D01*
X125337493Y-83937727D01*
X125337559Y-83919151D01*
X125339999Y-83888144D01*
X125340000Y-83888134D01*
X125340000Y-83485000D01*
X124790000Y-83485000D01*
X124790000Y-84469795D01*
X124790001Y-84469795D01*
X124792486Y-84469600D01*
X124950198Y-84423781D01*
X125091552Y-84340185D01*
X125091557Y-84340181D01*
X125187682Y-84244056D01*
X125249005Y-84210571D01*
X125318697Y-84215555D01*
X125374631Y-84257426D01*
X125399048Y-84322890D01*
X125396982Y-84355926D01*
X125394500Y-84368404D01*
X125394500Y-84491623D01*
X125418535Y-84612456D01*
X125418540Y-84612473D01*
X125465685Y-84726293D01*
X125465690Y-84726302D01*
X125533216Y-84827357D01*
X125534143Y-84828745D01*
X125621267Y-84915869D01*
X125638618Y-84927463D01*
X125723709Y-84984321D01*
X125723718Y-84984326D01*
X125837538Y-85031471D01*
X125837542Y-85031472D01*
X125837549Y-85031475D01*
X125958388Y-85055511D01*
X125958392Y-85055512D01*
X125958393Y-85055512D01*
X126081608Y-85055512D01*
X126081609Y-85055511D01*
X126202451Y-85031475D01*
X126316286Y-84984324D01*
X126418733Y-84915869D01*
X126925858Y-84408745D01*
X126994312Y-84306297D01*
X127041463Y-84192463D01*
X127042807Y-84185709D01*
X127049800Y-84150550D01*
X127065501Y-84071618D01*
X127065501Y-83948405D01*
X127065501Y-83943295D01*
X127065500Y-83943269D01*
X127065500Y-83173393D01*
X127065499Y-83173389D01*
X127056724Y-83129273D01*
X127041463Y-83052548D01*
X126999938Y-82952298D01*
X126990499Y-82904845D01*
X126990499Y-82615982D01*
X126990498Y-82615975D01*
X126975646Y-82522196D01*
X126918050Y-82409158D01*
X126918046Y-82409154D01*
X126918045Y-82409152D01*
X126828347Y-82319454D01*
X126828344Y-82319452D01*
X126828342Y-82319450D01*
X126742184Y-82275550D01*
X126715301Y-82261852D01*
X126621524Y-82247000D01*
X126258482Y-82247000D01*
X126187649Y-82258218D01*
X126164696Y-82261854D01*
X126164695Y-82261854D01*
X126155057Y-82263381D01*
X126154736Y-82261359D01*
X126097478Y-82262989D01*
X126037649Y-82226902D01*
X126006827Y-82164198D01*
X126014799Y-82094785D01*
X126018514Y-82086800D01*
X126025646Y-82072804D01*
X126040500Y-81979019D01*
X126040499Y-81690153D01*
X126049938Y-81642701D01*
X126091463Y-81542452D01*
X126115500Y-81421606D01*
X126115500Y-81298394D01*
X126091463Y-81177548D01*
X126049938Y-81077298D01*
X126040499Y-81029845D01*
X126040499Y-80740982D01*
X126039344Y-80733692D01*
X126025646Y-80647196D01*
X125968050Y-80534158D01*
X125968046Y-80534154D01*
X125968045Y-80534152D01*
X125878347Y-80444454D01*
X125878344Y-80444452D01*
X125878342Y-80444450D01*
X125801517Y-80405305D01*
X125765301Y-80386852D01*
X125671524Y-80372000D01*
X125308482Y-80372000D01*
X125233083Y-80383942D01*
X125214696Y-80386854D01*
X125101658Y-80444450D01*
X125101657Y-80444451D01*
X125101652Y-80444454D01*
X125011954Y-80534152D01*
X125011951Y-80534157D01*
X125011950Y-80534158D01*
X124954354Y-80647196D01*
X124953827Y-80648819D01*
X124952651Y-80650538D01*
X124949924Y-80655891D01*
X124949232Y-80655538D01*
X124914389Y-80706494D01*
X124850030Y-80733692D01*
X124835896Y-80734500D01*
X123118389Y-80734500D01*
X123057971Y-80746518D01*
X123008880Y-80756283D01*
X122997543Y-80758538D01*
X122963546Y-80772620D01*
X122950397Y-80778067D01*
X122928169Y-80787274D01*
X122883713Y-80805688D01*
X122873557Y-80812475D01*
X122873449Y-80812547D01*
X122781267Y-80874141D01*
X122781263Y-80874144D01*
X122752227Y-80903181D01*
X122690904Y-80936666D01*
X122664546Y-80939500D01*
X121525323Y-80939500D01*
X121452264Y-80954032D01*
X121452260Y-80954033D01*
X121369399Y-81009399D01*
X121314033Y-81092260D01*
X121314032Y-81092264D01*
X121299500Y-81165321D01*
X121299500Y-81933946D01*
X121279815Y-82000985D01*
X121227011Y-82046740D01*
X121157853Y-82056684D01*
X121094297Y-82027659D01*
X121056523Y-81968881D01*
X121052029Y-81945387D01*
X121049332Y-81916285D01*
X121045756Y-81877690D01*
X120987405Y-81672611D01*
X120987403Y-81672606D01*
X120987403Y-81672605D01*
X120892367Y-81481746D01*
X120763872Y-81311593D01*
X120672636Y-81228420D01*
X120606302Y-81167948D01*
X120425019Y-81055702D01*
X120425017Y-81055701D01*
X120260924Y-80992132D01*
X120226198Y-80978679D01*
X120016610Y-80939500D01*
X120016608Y-80939500D01*
X119925453Y-80939500D01*
X119858414Y-80919815D01*
X119837772Y-80903181D01*
X117404319Y-78469728D01*
X117370834Y-78408405D01*
X117368000Y-78382047D01*
X117368000Y-78295826D01*
X117367999Y-78295809D01*
X117361751Y-78237700D01*
X117347165Y-78198594D01*
X117312712Y-78106222D01*
X117312708Y-78106217D01*
X117280232Y-78062834D01*
X117228616Y-77993884D01*
X117161112Y-77943351D01*
X117116280Y-77909789D01*
X117116278Y-77909788D01*
X117089644Y-77899854D01*
X116984799Y-77860748D01*
X116926690Y-77854500D01*
X116926674Y-77854500D01*
X116333326Y-77854500D01*
X116333309Y-77854500D01*
X116275200Y-77860748D01*
X116143719Y-77909789D01*
X116031384Y-77993884D01*
X115947289Y-78106219D01*
X115898248Y-78237700D01*
X115892000Y-78295809D01*
X115892000Y-78864190D01*
X115542999Y-78864190D01*
X115543000Y-78864173D01*
X115543000Y-78295826D01*
X115542999Y-78295809D01*
X115536751Y-78237700D01*
X115487712Y-78106222D01*
X115487709Y-78106217D01*
X115455233Y-78062834D01*
X115430816Y-77997370D01*
X115430500Y-77988524D01*
X115430500Y-77134805D01*
X115450185Y-77067766D01*
X115480188Y-77035539D01*
X115497546Y-77022546D01*
X115583796Y-76907331D01*
X115591180Y-76887532D01*
X115633050Y-76831598D01*
X115698514Y-76807179D01*
X115766787Y-76822029D01*
X115816194Y-76871433D01*
X115825069Y-76891859D01*
X115855641Y-76984119D01*
X115855643Y-76984124D01*
X115947684Y-77133345D01*
X116071654Y-77257315D01*
X116220875Y-77349356D01*
X116220880Y-77349358D01*
X116387302Y-77404505D01*
X116387309Y-77404506D01*
X116490019Y-77414999D01*
X116627499Y-77414999D01*
X116627500Y-77414998D01*
X116627500Y-76440000D01*
X117127500Y-76440000D01*
X117127500Y-77414999D01*
X117264972Y-77414999D01*
X117264986Y-77414998D01*
X117367697Y-77404505D01*
X117534119Y-77349358D01*
X117534124Y-77349356D01*
X117683345Y-77257315D01*
X117807315Y-77133345D01*
X117899356Y-76984124D01*
X117899358Y-76984119D01*
X117954505Y-76817697D01*
X117954506Y-76817690D01*
X117964999Y-76714986D01*
X117965000Y-76714973D01*
X117965000Y-76440000D01*
X117127500Y-76440000D01*
X116627500Y-76440000D01*
X116627500Y-74965000D01*
X117127500Y-74965000D01*
X117127500Y-75940000D01*
X117964999Y-75940000D01*
X117964999Y-75665028D01*
X117964998Y-75665013D01*
X117954505Y-75562302D01*
X117899358Y-75395880D01*
X117899356Y-75395875D01*
X117807315Y-75246654D01*
X117683345Y-75122684D01*
X117534124Y-75030643D01*
X117534119Y-75030641D01*
X117367697Y-74975494D01*
X117367690Y-74975493D01*
X117264986Y-74965000D01*
X117127500Y-74965000D01*
X116627500Y-74965000D01*
X116490027Y-74965000D01*
X116490012Y-74965001D01*
X116387302Y-74975494D01*
X116220880Y-75030641D01*
X116220875Y-75030643D01*
X116071654Y-75122684D01*
X115947684Y-75246654D01*
X115855643Y-75395875D01*
X115855642Y-75395878D01*
X115825069Y-75488141D01*
X115785296Y-75545585D01*
X115720780Y-75572408D01*
X115652004Y-75560093D01*
X115600804Y-75512549D01*
X115591181Y-75492468D01*
X115583798Y-75472673D01*
X115583793Y-75472664D01*
X115497547Y-75357455D01*
X115497544Y-75357452D01*
X115382335Y-75271206D01*
X115382328Y-75271202D01*
X115247486Y-75220910D01*
X115247485Y-75220909D01*
X115247483Y-75220909D01*
X115187873Y-75214500D01*
X115187863Y-75214500D01*
X114417129Y-75214500D01*
X114417123Y-75214501D01*
X114357516Y-75220908D01*
X114352826Y-75222658D01*
X114283134Y-75227638D01*
X114221813Y-75194149D01*
X114188332Y-75132823D01*
X114185500Y-75106473D01*
X114185500Y-74354500D01*
X114205185Y-74287461D01*
X114257989Y-74241706D01*
X114309500Y-74230500D01*
X114574676Y-74230500D01*
X114574677Y-74230499D01*
X114647740Y-74215966D01*
X114730601Y-74160601D01*
X114785966Y-74077740D01*
X114800500Y-74004674D01*
X114800500Y-73107265D01*
X117070000Y-73107265D01*
X117106689Y-73338909D01*
X117179164Y-73561965D01*
X117285638Y-73770930D01*
X117423494Y-73960672D01*
X117589327Y-74126505D01*
X117779069Y-74264361D01*
X117988036Y-74370835D01*
X118211089Y-74443310D01*
X118310000Y-74458976D01*
X118310000Y-72610824D01*
X118367485Y-72634636D01*
X118494996Y-72660000D01*
X118625004Y-72660000D01*
X118752515Y-72634636D01*
X118810000Y-72610824D01*
X118810000Y-74458975D01*
X118908909Y-74443310D01*
X118908912Y-74443310D01*
X119131963Y-74370835D01*
X119340930Y-74264361D01*
X119530672Y-74126505D01*
X119696505Y-73960672D01*
X119834361Y-73770930D01*
X119940835Y-73561965D01*
X120013310Y-73338909D01*
X120050000Y-73107265D01*
X120050000Y-72250000D01*
X119170825Y-72250000D01*
X119194636Y-72192515D01*
X119220000Y-72065004D01*
X119220000Y-71934996D01*
X119194636Y-71807485D01*
X119170825Y-71750000D01*
X120050000Y-71750000D01*
X120050000Y-70892734D01*
X120013310Y-70661090D01*
X119940835Y-70438034D01*
X119834361Y-70229069D01*
X119696505Y-70039327D01*
X119530672Y-69873494D01*
X119340930Y-69735638D01*
X119131963Y-69629164D01*
X118908905Y-69556688D01*
X118810000Y-69541022D01*
X118810000Y-71389175D01*
X118752515Y-71365364D01*
X118625004Y-71340000D01*
X118494996Y-71340000D01*
X118367485Y-71365364D01*
X118310000Y-71389175D01*
X118310000Y-69541022D01*
X118211094Y-69556688D01*
X118211093Y-69556688D01*
X117988036Y-69629164D01*
X117779069Y-69735638D01*
X117589327Y-69873494D01*
X117423494Y-70039327D01*
X117285638Y-70229069D01*
X117179164Y-70438034D01*
X117106689Y-70661090D01*
X117070000Y-70892734D01*
X117070000Y-71750000D01*
X117949175Y-71750000D01*
X117925364Y-71807485D01*
X117900000Y-71934996D01*
X117900000Y-72065004D01*
X117925364Y-72192515D01*
X117949175Y-72250000D01*
X117070000Y-72250000D01*
X117070000Y-73107265D01*
X114800500Y-73107265D01*
X114800500Y-69995326D01*
X114800500Y-69995323D01*
X114800499Y-69995321D01*
X114785967Y-69922264D01*
X114785966Y-69922260D01*
X114730601Y-69839399D01*
X114675235Y-69802405D01*
X114647739Y-69784033D01*
X114647735Y-69784032D01*
X114574677Y-69769500D01*
X114574674Y-69769500D01*
X112545326Y-69769500D01*
X112545323Y-69769500D01*
X112472264Y-69784032D01*
X112472260Y-69784033D01*
X112389399Y-69839399D01*
X112334033Y-69922260D01*
X112334032Y-69922264D01*
X112319500Y-69995321D01*
X112319500Y-74004678D01*
X112334032Y-74077735D01*
X112334033Y-74077739D01*
X112346958Y-74097082D01*
X112389399Y-74160601D01*
X112463262Y-74209954D01*
X112472260Y-74215966D01*
X112472264Y-74215967D01*
X112545321Y-74230499D01*
X112545324Y-74230500D01*
X112545326Y-74230500D01*
X112810500Y-74230500D01*
X112877539Y-74250185D01*
X112923294Y-74302989D01*
X112934500Y-74354500D01*
X112934500Y-75751611D01*
X112958535Y-75872444D01*
X112958540Y-75872461D01*
X113005685Y-75986280D01*
X113005690Y-75986289D01*
X113039914Y-76037507D01*
X113039915Y-76037509D01*
X113074141Y-76088733D01*
X113165586Y-76180178D01*
X113165608Y-76180198D01*
X113571016Y-76585606D01*
X113571045Y-76585637D01*
X113661264Y-76675856D01*
X113661267Y-76675858D01*
X113716662Y-76712871D01*
X113716663Y-76712873D01*
X113735509Y-76725465D01*
X113763715Y-76744312D01*
X113830396Y-76771931D01*
X113830398Y-76771933D01*
X113870640Y-76788601D01*
X113877548Y-76791463D01*
X113918211Y-76799550D01*
X113980121Y-76831935D01*
X114010201Y-76877831D01*
X114021204Y-76907331D01*
X114107454Y-77022546D01*
X114129810Y-77039281D01*
X114171681Y-77095213D01*
X114179500Y-77138548D01*
X114179500Y-77988524D01*
X114159815Y-78055563D01*
X114154767Y-78062834D01*
X114122290Y-78106217D01*
X114122287Y-78106222D01*
X114073248Y-78237700D01*
X114067000Y-78295809D01*
X114067000Y-78864190D01*
X114073248Y-78922299D01*
X114102567Y-79000904D01*
X114122288Y-79053778D01*
X114122289Y-79053779D01*
X114122290Y-79053782D01*
X114154766Y-79097164D01*
X114179184Y-79162628D01*
X114179500Y-79171475D01*
X114179500Y-80016611D01*
X114203535Y-80137444D01*
X114203540Y-80137461D01*
X114250685Y-80251280D01*
X114250690Y-80251289D01*
X114284914Y-80302507D01*
X114284915Y-80302509D01*
X114319141Y-80353733D01*
X114410586Y-80445178D01*
X114410608Y-80445198D01*
X122415228Y-88449818D01*
X122448713Y-88511141D01*
X122443729Y-88580833D01*
X122415228Y-88625180D01*
X121281269Y-89759140D01*
X121194144Y-89846264D01*
X121194138Y-89846272D01*
X121125690Y-89948708D01*
X121125688Y-89948713D01*
X121078540Y-90062538D01*
X121078535Y-90062554D01*
X121057484Y-90168391D01*
X121057484Y-90168395D01*
X121054500Y-90183394D01*
X121054500Y-92460500D01*
X121034815Y-92527539D01*
X120982011Y-92573294D01*
X120930500Y-92584500D01*
X112637000Y-92584500D01*
X112569961Y-92564815D01*
X112524206Y-92512011D01*
X112513000Y-92460500D01*
X112513000Y-91176677D01*
X112532685Y-91109638D01*
X112562690Y-91077410D01*
X112582546Y-91062546D01*
X112668796Y-90947331D01*
X112719091Y-90812483D01*
X112725500Y-90752873D01*
X112725499Y-89730007D01*
X115974671Y-89730007D01*
X115993964Y-90024363D01*
X115993965Y-90024373D01*
X115993966Y-90024380D01*
X116025595Y-90183394D01*
X116051518Y-90313716D01*
X116051521Y-90313730D01*
X116146349Y-90593080D01*
X116276825Y-90857660D01*
X116276829Y-90857667D01*
X116440725Y-91102955D01*
X116635241Y-91324758D01*
X116857044Y-91519274D01*
X116976357Y-91598996D01*
X117102335Y-91683172D01*
X117366923Y-91813652D01*
X117646278Y-91908481D01*
X117935620Y-91966034D01*
X117963888Y-91967886D01*
X118229993Y-91985329D01*
X118230000Y-91985329D01*
X118230007Y-91985329D01*
X118465675Y-91969881D01*
X118524380Y-91966034D01*
X118813722Y-91908481D01*
X119093077Y-91813652D01*
X119357665Y-91683172D01*
X119602957Y-91519273D01*
X119824758Y-91324758D01*
X120019273Y-91102957D01*
X120183172Y-90857665D01*
X120313652Y-90593077D01*
X120408481Y-90313722D01*
X120466034Y-90024380D01*
X120469881Y-89965675D01*
X120485329Y-89730007D01*
X120485329Y-89729992D01*
X120466035Y-89435636D01*
X120466034Y-89435620D01*
X120408481Y-89146278D01*
X120313652Y-88866923D01*
X120183172Y-88602336D01*
X120139849Y-88537499D01*
X120122238Y-88511141D01*
X120019273Y-88357043D01*
X119839567Y-88152128D01*
X119824758Y-88135241D01*
X119602955Y-87940725D01*
X119357667Y-87776829D01*
X119357660Y-87776825D01*
X119093080Y-87646349D01*
X118813730Y-87551521D01*
X118813724Y-87551519D01*
X118813722Y-87551519D01*
X118524380Y-87493966D01*
X118524373Y-87493965D01*
X118524363Y-87493964D01*
X118230007Y-87474671D01*
X118229993Y-87474671D01*
X117935636Y-87493964D01*
X117935624Y-87493965D01*
X117935620Y-87493966D01*
X117935612Y-87493967D01*
X117935609Y-87493968D01*
X117646283Y-87551518D01*
X117646269Y-87551521D01*
X117366919Y-87646349D01*
X117102334Y-87776828D01*
X116857041Y-87940728D01*
X116635241Y-88135241D01*
X116440728Y-88357041D01*
X116276828Y-88602334D01*
X116146349Y-88866919D01*
X116051521Y-89146269D01*
X116051518Y-89146283D01*
X115993968Y-89435609D01*
X115993964Y-89435636D01*
X115974671Y-89729992D01*
X115974671Y-89730007D01*
X112725499Y-89730007D01*
X112725499Y-89707128D01*
X112719091Y-89647517D01*
X112697043Y-89588404D01*
X112668797Y-89512671D01*
X112668793Y-89512664D01*
X112582547Y-89397455D01*
X112582544Y-89397452D01*
X112467335Y-89311206D01*
X112467328Y-89311202D01*
X112332486Y-89260910D01*
X112332485Y-89260909D01*
X112332483Y-89260909D01*
X112272873Y-89254500D01*
X112272863Y-89254500D01*
X111502129Y-89254500D01*
X111502123Y-89254501D01*
X111442516Y-89260908D01*
X111307671Y-89311202D01*
X111307664Y-89311206D01*
X111192455Y-89397452D01*
X111192452Y-89397455D01*
X111106206Y-89512664D01*
X111106201Y-89512674D01*
X111098817Y-89532471D01*
X111056945Y-89588404D01*
X110991480Y-89612820D01*
X110923207Y-89597967D01*
X110873803Y-89548561D01*
X110864930Y-89528140D01*
X110834358Y-89435880D01*
X110834356Y-89435875D01*
X110742315Y-89286654D01*
X110618345Y-89162684D01*
X110469124Y-89070643D01*
X110469119Y-89070641D01*
X110302697Y-89015494D01*
X110302690Y-89015493D01*
X110199986Y-89005000D01*
X110062500Y-89005000D01*
X110062500Y-91454999D01*
X110199972Y-91454999D01*
X110199986Y-91454998D01*
X110302697Y-91444505D01*
X110469119Y-91389358D01*
X110469124Y-91389356D01*
X110618345Y-91297315D01*
X110742315Y-91173345D01*
X110834356Y-91024124D01*
X110834359Y-91024117D01*
X110864930Y-90931860D01*
X110904702Y-90874415D01*
X110969218Y-90847591D01*
X111037994Y-90859906D01*
X111089194Y-90907448D01*
X111098818Y-90927529D01*
X111106203Y-90947329D01*
X111106206Y-90947335D01*
X111192452Y-91062544D01*
X111192453Y-91062545D01*
X111192454Y-91062546D01*
X111212310Y-91077410D01*
X111254182Y-91133343D01*
X111262000Y-91176677D01*
X111262000Y-92460500D01*
X111242315Y-92527539D01*
X111189511Y-92573294D01*
X111138000Y-92584500D01*
X106450453Y-92584500D01*
X106383414Y-92564815D01*
X106362772Y-92548181D01*
X104919842Y-91105251D01*
X104886357Y-91043928D01*
X104891341Y-90974236D01*
X104923600Y-90931142D01*
X104921275Y-90928817D01*
X104927542Y-90922548D01*
X104927546Y-90922546D01*
X105013796Y-90807331D01*
X105021180Y-90787532D01*
X105063050Y-90731598D01*
X105128514Y-90707179D01*
X105196787Y-90722029D01*
X105246194Y-90771433D01*
X105255069Y-90791859D01*
X105285641Y-90884119D01*
X105285643Y-90884124D01*
X105377684Y-91033345D01*
X105501654Y-91157315D01*
X105650875Y-91249356D01*
X105650880Y-91249358D01*
X105817302Y-91304505D01*
X105817309Y-91304506D01*
X105920019Y-91314999D01*
X106057499Y-91314999D01*
X106057500Y-91314998D01*
X106057500Y-90340000D01*
X106557500Y-90340000D01*
X106557500Y-91314999D01*
X106694972Y-91314999D01*
X106694986Y-91314998D01*
X106797697Y-91304505D01*
X106964119Y-91249358D01*
X106964124Y-91249356D01*
X107113345Y-91157315D01*
X107237315Y-91033345D01*
X107329356Y-90884124D01*
X107329358Y-90884119D01*
X107384505Y-90717697D01*
X107384506Y-90717690D01*
X107394999Y-90614986D01*
X107395000Y-90614973D01*
X107395000Y-90480000D01*
X108725001Y-90480000D01*
X108725001Y-90754986D01*
X108735494Y-90857697D01*
X108790641Y-91024119D01*
X108790643Y-91024124D01*
X108882684Y-91173345D01*
X109006654Y-91297315D01*
X109155875Y-91389356D01*
X109155880Y-91389358D01*
X109322302Y-91444505D01*
X109322309Y-91444506D01*
X109425019Y-91454999D01*
X109562499Y-91454999D01*
X109562500Y-91454998D01*
X109562500Y-90480000D01*
X108725001Y-90480000D01*
X107395000Y-90480000D01*
X107395000Y-90340000D01*
X106557500Y-90340000D01*
X106057500Y-90340000D01*
X106057500Y-89980000D01*
X108725000Y-89980000D01*
X109562500Y-89980000D01*
X109562500Y-89005000D01*
X109425027Y-89005000D01*
X109425012Y-89005001D01*
X109322302Y-89015494D01*
X109155880Y-89070641D01*
X109155875Y-89070643D01*
X109006654Y-89162684D01*
X108882684Y-89286654D01*
X108790643Y-89435875D01*
X108790641Y-89435880D01*
X108735494Y-89602302D01*
X108735493Y-89602309D01*
X108725000Y-89705013D01*
X108725000Y-89980000D01*
X106057500Y-89980000D01*
X106057500Y-88865000D01*
X106557500Y-88865000D01*
X106557500Y-89840000D01*
X107394999Y-89840000D01*
X107394999Y-89565028D01*
X107394998Y-89565013D01*
X107384505Y-89462302D01*
X107329358Y-89295880D01*
X107329356Y-89295875D01*
X107237315Y-89146654D01*
X107113345Y-89022684D01*
X106964124Y-88930643D01*
X106964119Y-88930641D01*
X106797697Y-88875494D01*
X106797690Y-88875493D01*
X106694986Y-88865000D01*
X106557500Y-88865000D01*
X106057500Y-88865000D01*
X105920027Y-88865000D01*
X105920012Y-88865001D01*
X105817302Y-88875494D01*
X105650880Y-88930641D01*
X105650875Y-88930643D01*
X105501654Y-89022684D01*
X105377684Y-89146654D01*
X105285643Y-89295875D01*
X105285642Y-89295878D01*
X105255069Y-89388141D01*
X105215296Y-89445585D01*
X105150780Y-89472408D01*
X105082004Y-89460093D01*
X105030804Y-89412549D01*
X105021181Y-89392468D01*
X105013798Y-89372673D01*
X105013793Y-89372664D01*
X104927547Y-89257455D01*
X104927544Y-89257452D01*
X104812335Y-89171206D01*
X104812328Y-89171202D01*
X104677486Y-89120910D01*
X104677485Y-89120909D01*
X104677483Y-89120909D01*
X104617873Y-89114500D01*
X104617863Y-89114500D01*
X103847129Y-89114500D01*
X103847123Y-89114501D01*
X103787516Y-89120908D01*
X103652671Y-89171202D01*
X103652664Y-89171206D01*
X103537455Y-89257452D01*
X103537452Y-89257455D01*
X103451206Y-89372664D01*
X103451202Y-89372671D01*
X103400908Y-89507517D01*
X103394501Y-89567116D01*
X103394500Y-89567135D01*
X103394500Y-90612870D01*
X103394501Y-90612876D01*
X103400908Y-90672483D01*
X103451202Y-90807328D01*
X103451206Y-90807335D01*
X103537452Y-90922544D01*
X103543725Y-90928817D01*
X103541398Y-90931143D01*
X103573658Y-90974237D01*
X103578642Y-91043929D01*
X103545157Y-91105251D01*
X103353094Y-91297315D01*
X103231269Y-91419140D01*
X103231267Y-91419142D01*
X103205904Y-91444505D01*
X103144142Y-91506266D01*
X103118441Y-91544731D01*
X103118440Y-91544730D01*
X103075689Y-91608712D01*
X103075685Y-91608719D01*
X103028540Y-91722538D01*
X103028537Y-91722547D01*
X103019961Y-91765667D01*
X103010417Y-91813652D01*
X103008538Y-91823097D01*
X103008537Y-91823102D01*
X103004500Y-91843394D01*
X103004500Y-93010858D01*
X102984815Y-93077897D01*
X102932011Y-93123652D01*
X102923847Y-93127034D01*
X102912669Y-93131204D01*
X102912664Y-93131206D01*
X102797455Y-93217452D01*
X102797454Y-93217453D01*
X102782590Y-93237310D01*
X102726657Y-93279182D01*
X102683323Y-93287000D01*
X93757556Y-93287000D01*
X93690517Y-93267315D01*
X93644762Y-93214511D01*
X93634818Y-93145353D01*
X93661703Y-93084335D01*
X93722882Y-93009788D01*
X93722886Y-93009781D01*
X93811001Y-92844930D01*
X93811001Y-92844929D01*
X93811004Y-92844924D01*
X93865269Y-92666037D01*
X93883592Y-92480000D01*
X93865269Y-92293963D01*
X93811004Y-92115076D01*
X93811001Y-92115072D01*
X93811001Y-92115069D01*
X93722886Y-91950218D01*
X93722882Y-91950211D01*
X93604291Y-91805708D01*
X93459788Y-91687117D01*
X93459781Y-91687113D01*
X93294930Y-91598998D01*
X93294924Y-91598996D01*
X93116037Y-91544731D01*
X93116035Y-91544730D01*
X93116033Y-91544730D01*
X92930000Y-91526408D01*
X92743966Y-91544730D01*
X92565069Y-91598998D01*
X92400218Y-91687113D01*
X92400211Y-91687117D01*
X92255708Y-91805708D01*
X92137117Y-91950211D01*
X92137113Y-91950218D01*
X92048998Y-92115069D01*
X91994730Y-92293966D01*
X91976408Y-92480000D01*
X91994730Y-92666033D01*
X92048998Y-92844930D01*
X92137113Y-93009781D01*
X92137117Y-93009788D01*
X92198297Y-93084335D01*
X92225610Y-93148645D01*
X92213819Y-93217512D01*
X92166667Y-93269073D01*
X92102444Y-93287000D01*
X89592952Y-93287000D01*
X89525913Y-93267315D01*
X89505271Y-93250681D01*
X88838875Y-92584285D01*
X88805390Y-92522962D01*
X88803154Y-92484442D01*
X88803592Y-92480000D01*
X88785269Y-92293963D01*
X88731004Y-92115076D01*
X88731001Y-92115072D01*
X88731001Y-92115069D01*
X88642886Y-91950218D01*
X88642882Y-91950211D01*
X88524290Y-91805707D01*
X88520834Y-91802871D01*
X88481500Y-91745125D01*
X88475500Y-91707019D01*
X88475500Y-90334678D01*
X99839500Y-90334678D01*
X99854032Y-90407735D01*
X99854033Y-90407739D01*
X99854034Y-90407740D01*
X99909399Y-90490601D01*
X99992260Y-90545966D01*
X99992264Y-90545967D01*
X100065321Y-90560499D01*
X100065324Y-90560500D01*
X100065326Y-90560500D01*
X101714676Y-90560500D01*
X101714677Y-90560499D01*
X101787740Y-90545966D01*
X101870601Y-90490601D01*
X101925966Y-90407740D01*
X101940500Y-90334674D01*
X101940500Y-88685326D01*
X101940500Y-88685323D01*
X101940499Y-88685321D01*
X101925967Y-88612264D01*
X101925966Y-88612260D01*
X101919334Y-88602334D01*
X101870601Y-88529399D01*
X101787740Y-88474034D01*
X101787739Y-88474033D01*
X101787735Y-88474032D01*
X101714677Y-88459500D01*
X101714674Y-88459500D01*
X100065326Y-88459500D01*
X100065323Y-88459500D01*
X99992264Y-88474032D01*
X99992260Y-88474033D01*
X99909399Y-88529399D01*
X99854033Y-88612260D01*
X99854032Y-88612264D01*
X99839500Y-88685321D01*
X99839500Y-90334678D01*
X88475500Y-90334678D01*
X88475500Y-85632979D01*
X88495185Y-85565940D01*
X88520837Y-85537125D01*
X88524291Y-85534291D01*
X88642883Y-85389787D01*
X88731004Y-85224924D01*
X88785269Y-85046037D01*
X88803592Y-84860000D01*
X91976408Y-84860000D01*
X91994730Y-85046033D01*
X92048998Y-85224930D01*
X92137113Y-85389781D01*
X92137117Y-85389788D01*
X92255708Y-85534291D01*
X92400211Y-85652882D01*
X92400218Y-85652886D01*
X92565069Y-85741001D01*
X92565072Y-85741001D01*
X92565076Y-85741004D01*
X92743963Y-85795269D01*
X92930000Y-85813592D01*
X93116037Y-85795269D01*
X93294924Y-85741004D01*
X93459787Y-85652883D01*
X93604291Y-85534291D01*
X93722883Y-85389787D01*
X93811004Y-85224924D01*
X93865269Y-85046037D01*
X93883592Y-84860000D01*
X93865269Y-84673963D01*
X93811004Y-84495076D01*
X93811001Y-84495072D01*
X93811001Y-84495069D01*
X93722886Y-84330218D01*
X93722882Y-84330211D01*
X93604291Y-84185708D01*
X93459788Y-84067117D01*
X93459781Y-84067113D01*
X93294930Y-83978998D01*
X93294924Y-83978996D01*
X93116037Y-83924731D01*
X93116035Y-83924730D01*
X93116033Y-83924730D01*
X92930000Y-83906408D01*
X92743966Y-83924730D01*
X92565069Y-83978998D01*
X92400218Y-84067113D01*
X92400211Y-84067117D01*
X92255708Y-84185708D01*
X92137117Y-84330211D01*
X92137113Y-84330218D01*
X92048998Y-84495069D01*
X91994730Y-84673966D01*
X91976408Y-84860000D01*
X88803592Y-84860000D01*
X88785269Y-84673963D01*
X88731004Y-84495076D01*
X88731001Y-84495072D01*
X88731001Y-84495069D01*
X88642886Y-84330218D01*
X88642882Y-84330211D01*
X88524291Y-84185708D01*
X88379788Y-84067117D01*
X88379781Y-84067113D01*
X88214930Y-83978998D01*
X88214924Y-83978996D01*
X88036037Y-83924731D01*
X88036035Y-83924730D01*
X88036033Y-83924730D01*
X87850000Y-83906408D01*
X87663966Y-83924730D01*
X87485069Y-83978998D01*
X87320218Y-84067113D01*
X87320211Y-84067117D01*
X87175708Y-84185708D01*
X87057117Y-84330211D01*
X87057113Y-84330218D01*
X86968998Y-84495069D01*
X86914730Y-84673966D01*
X86896408Y-84860000D01*
X86914730Y-85046033D01*
X86968998Y-85224930D01*
X87057113Y-85389781D01*
X87057117Y-85389788D01*
X87132990Y-85482238D01*
X87175709Y-85534291D01*
X87179160Y-85537123D01*
X87218496Y-85594863D01*
X87224500Y-85632979D01*
X87224500Y-91707019D01*
X87204815Y-91774058D01*
X87179166Y-91802871D01*
X87175709Y-91805707D01*
X87057117Y-91950211D01*
X87057113Y-91950218D01*
X86968998Y-92115069D01*
X86914730Y-92293966D01*
X86896408Y-92480000D01*
X84280500Y-92480000D01*
X84280500Y-81444520D01*
X84300185Y-81377481D01*
X84352989Y-81331726D01*
X84422147Y-81321782D01*
X84485703Y-81350807D01*
X84509197Y-81378078D01*
X84613457Y-81542367D01*
X84613460Y-81542371D01*
X84704286Y-81652160D01*
X85596320Y-80760125D01*
X85686554Y-80884320D01*
X85825680Y-81023446D01*
X85949873Y-81113678D01*
X85054971Y-82008579D01*
X85054972Y-82008581D01*
X85297772Y-82184985D01*
X85297790Y-82184996D01*
X85573447Y-82336540D01*
X85573455Y-82336544D01*
X85865926Y-82452340D01*
X86170620Y-82530573D01*
X86170629Y-82530575D01*
X86482701Y-82569999D01*
X86482715Y-82570000D01*
X86797285Y-82570000D01*
X86797298Y-82569999D01*
X87109370Y-82530575D01*
X87109379Y-82530573D01*
X87414073Y-82452340D01*
X87706544Y-82336544D01*
X87706552Y-82336540D01*
X87982209Y-82184996D01*
X87982219Y-82184990D01*
X88225026Y-82008579D01*
X88225027Y-82008579D01*
X87330126Y-81113678D01*
X87454320Y-81023446D01*
X87593446Y-80884320D01*
X87683678Y-80760126D01*
X88575712Y-81652160D01*
X88666544Y-81542364D01*
X88835096Y-81276767D01*
X88835099Y-81276761D01*
X88969034Y-80992137D01*
X88969036Y-80992132D01*
X89066244Y-80692958D01*
X89125191Y-80383949D01*
X89125192Y-80383942D01*
X89144943Y-80070005D01*
X89144943Y-80069994D01*
X89125192Y-79756057D01*
X89125191Y-79756050D01*
X89066244Y-79447041D01*
X88969036Y-79147867D01*
X88969034Y-79147862D01*
X88835099Y-78863238D01*
X88835096Y-78863232D01*
X88666542Y-78597632D01*
X88666539Y-78597628D01*
X88575712Y-78487838D01*
X87683678Y-79379872D01*
X87593446Y-79255680D01*
X87454320Y-79116554D01*
X87330126Y-79026320D01*
X88225027Y-78131419D01*
X88225026Y-78131417D01*
X87982227Y-77955014D01*
X87982209Y-77955003D01*
X87706552Y-77803459D01*
X87706544Y-77803455D01*
X87414073Y-77687659D01*
X87109379Y-77609426D01*
X87109370Y-77609424D01*
X86797298Y-77570000D01*
X86482701Y-77570000D01*
X86170629Y-77609424D01*
X86170620Y-77609426D01*
X85865926Y-77687659D01*
X85573455Y-77803455D01*
X85573447Y-77803459D01*
X85297787Y-77955004D01*
X85297782Y-77955007D01*
X85054972Y-78131418D01*
X85054971Y-78131419D01*
X85949873Y-79026321D01*
X85825680Y-79116554D01*
X85686554Y-79255680D01*
X85596321Y-79379873D01*
X84704286Y-78487838D01*
X84704285Y-78487838D01*
X84613459Y-78597629D01*
X84613457Y-78597632D01*
X84509197Y-78761921D01*
X84456655Y-78807977D01*
X84387554Y-78818316D01*
X84323834Y-78789654D01*
X84285724Y-78731093D01*
X84280500Y-78695479D01*
X84280500Y-73117265D01*
X90650000Y-73117265D01*
X90686689Y-73348909D01*
X90759164Y-73571965D01*
X90865638Y-73780930D01*
X91003494Y-73970672D01*
X91169327Y-74136505D01*
X91359069Y-74274361D01*
X91568036Y-74380835D01*
X91791089Y-74453310D01*
X91890000Y-74468976D01*
X91890000Y-72620824D01*
X91947485Y-72644636D01*
X92074996Y-72670000D01*
X92205004Y-72670000D01*
X92332515Y-72644636D01*
X92390000Y-72620824D01*
X92390000Y-74468975D01*
X92488909Y-74453310D01*
X92488912Y-74453310D01*
X92711963Y-74380835D01*
X92920930Y-74274361D01*
X93110672Y-74136505D01*
X93276505Y-73970672D01*
X93414361Y-73780930D01*
X93520835Y-73571965D01*
X93593310Y-73348909D01*
X93630000Y-73117265D01*
X93630000Y-73097634D01*
X95899500Y-73097634D01*
X95930045Y-73290485D01*
X95990381Y-73476184D01*
X95990382Y-73476187D01*
X96079031Y-73650167D01*
X96193793Y-73808125D01*
X96193797Y-73808130D01*
X96193799Y-73808132D01*
X96331868Y-73946201D01*
X96463387Y-74041754D01*
X96506051Y-74097082D01*
X96514500Y-74142071D01*
X96514500Y-81681611D01*
X96538535Y-81802444D01*
X96538540Y-81802461D01*
X96585685Y-81916280D01*
X96585686Y-81916282D01*
X96585688Y-81916286D01*
X96590653Y-81923716D01*
X96615873Y-81961461D01*
X96615875Y-81961463D01*
X96654140Y-82018731D01*
X96654141Y-82018732D01*
X96654142Y-82018733D01*
X96741267Y-82105858D01*
X96741268Y-82105858D01*
X96748335Y-82112925D01*
X96748334Y-82112925D01*
X96748337Y-82112927D01*
X100664141Y-86028732D01*
X100664142Y-86028733D01*
X100710422Y-86075013D01*
X100751268Y-86115859D01*
X100853707Y-86184307D01*
X100853713Y-86184310D01*
X100853714Y-86184311D01*
X100967548Y-86231463D01*
X101027971Y-86243481D01*
X101088393Y-86255500D01*
X113369102Y-86255500D01*
X113436141Y-86275185D01*
X113472204Y-86310609D01*
X113600728Y-86502958D01*
X113795241Y-86724758D01*
X114017044Y-86919274D01*
X114262332Y-87083170D01*
X114262339Y-87083174D01*
X114335239Y-87119124D01*
X114526923Y-87213652D01*
X114806278Y-87308481D01*
X115095620Y-87366034D01*
X115123888Y-87367886D01*
X115389993Y-87385329D01*
X115390000Y-87385329D01*
X115390007Y-87385329D01*
X115625675Y-87369881D01*
X115684380Y-87366034D01*
X115973722Y-87308481D01*
X116253077Y-87213652D01*
X116517665Y-87083172D01*
X116762957Y-86919273D01*
X116984758Y-86724758D01*
X117179273Y-86502957D01*
X117343172Y-86257665D01*
X117473652Y-85993077D01*
X117568481Y-85713722D01*
X117626034Y-85424380D01*
X117639107Y-85224930D01*
X117645329Y-85130007D01*
X117645329Y-85129992D01*
X117626035Y-84835636D01*
X117626034Y-84835620D01*
X117568481Y-84546278D01*
X117473652Y-84266923D01*
X117343172Y-84002336D01*
X117179273Y-83757043D01*
X117128861Y-83699559D01*
X116984758Y-83535241D01*
X116762955Y-83340725D01*
X116517667Y-83176829D01*
X116517660Y-83176825D01*
X116253080Y-83046349D01*
X115973730Y-82951521D01*
X115973724Y-82951519D01*
X115973722Y-82951519D01*
X115684380Y-82893966D01*
X115684373Y-82893965D01*
X115684363Y-82893964D01*
X115390007Y-82874671D01*
X115389993Y-82874671D01*
X115095636Y-82893964D01*
X115095624Y-82893965D01*
X115095620Y-82893966D01*
X115095612Y-82893967D01*
X115095609Y-82893968D01*
X114806283Y-82951518D01*
X114806269Y-82951521D01*
X114526919Y-83046349D01*
X114262334Y-83176828D01*
X114017041Y-83340728D01*
X113795241Y-83535241D01*
X113600728Y-83757041D01*
X113436828Y-84002334D01*
X113306349Y-84266919D01*
X113211521Y-84546269D01*
X113211518Y-84546283D01*
X113153968Y-84835609D01*
X113153964Y-84835637D01*
X113150998Y-84880892D01*
X113126971Y-84946501D01*
X113114951Y-84960458D01*
X113107234Y-84968176D01*
X113045913Y-85001665D01*
X113019547Y-85004500D01*
X101460453Y-85004500D01*
X101393414Y-84984815D01*
X101372772Y-84968181D01*
X97801819Y-81397228D01*
X97770574Y-81340007D01*
X108634671Y-81340007D01*
X108653964Y-81634363D01*
X108653965Y-81634373D01*
X108653966Y-81634380D01*
X108653968Y-81634390D01*
X108711518Y-81923716D01*
X108711521Y-81923730D01*
X108806349Y-82203080D01*
X108936825Y-82467660D01*
X108936829Y-82467667D01*
X109100725Y-82712955D01*
X109295241Y-82934758D01*
X109517044Y-83129274D01*
X109683504Y-83240499D01*
X109762335Y-83293172D01*
X110026923Y-83423652D01*
X110306278Y-83518481D01*
X110595620Y-83576034D01*
X110623888Y-83577886D01*
X110889993Y-83595329D01*
X110890000Y-83595329D01*
X110890007Y-83595329D01*
X111125675Y-83579881D01*
X111184380Y-83576034D01*
X111473722Y-83518481D01*
X111753077Y-83423652D01*
X112017665Y-83293172D01*
X112262957Y-83129273D01*
X112484758Y-82934758D01*
X112679273Y-82712957D01*
X112843172Y-82467665D01*
X112973652Y-82203077D01*
X113068481Y-81923722D01*
X113126034Y-81634380D01*
X113132065Y-81542364D01*
X113145329Y-81340007D01*
X113145329Y-81339992D01*
X113126035Y-81045636D01*
X113126034Y-81045620D01*
X113068481Y-80756278D01*
X112973652Y-80476923D01*
X112843172Y-80212336D01*
X112679273Y-79967043D01*
X112636655Y-79918447D01*
X112484758Y-79745241D01*
X112262955Y-79550725D01*
X112017667Y-79386829D01*
X112017660Y-79386825D01*
X111753080Y-79256349D01*
X111473730Y-79161521D01*
X111473724Y-79161519D01*
X111473722Y-79161519D01*
X111184380Y-79103966D01*
X111184373Y-79103965D01*
X111184363Y-79103964D01*
X110890007Y-79084671D01*
X110889993Y-79084671D01*
X110595636Y-79103964D01*
X110595624Y-79103965D01*
X110595620Y-79103966D01*
X110595612Y-79103967D01*
X110595609Y-79103968D01*
X110306283Y-79161518D01*
X110306269Y-79161521D01*
X110026919Y-79256349D01*
X109762334Y-79386828D01*
X109517041Y-79550728D01*
X109295241Y-79745241D01*
X109100728Y-79967041D01*
X108936828Y-80212334D01*
X108806349Y-80476919D01*
X108711521Y-80756269D01*
X108711518Y-80756283D01*
X108653968Y-81045609D01*
X108653964Y-81045636D01*
X108634671Y-81339992D01*
X108634671Y-81340007D01*
X97770574Y-81340007D01*
X97768334Y-81335905D01*
X97765500Y-81309547D01*
X97765500Y-74142071D01*
X97785185Y-74075032D01*
X97816611Y-74041756D01*
X97948132Y-73946201D01*
X98086201Y-73808132D01*
X98200971Y-73650164D01*
X98289617Y-73476187D01*
X98349955Y-73290484D01*
X98365691Y-73191125D01*
X98380500Y-73097634D01*
X100899500Y-73097634D01*
X100930045Y-73290485D01*
X100990381Y-73476184D01*
X100990382Y-73476187D01*
X101079031Y-73650167D01*
X101193793Y-73808125D01*
X101193797Y-73808130D01*
X101331869Y-73946202D01*
X101331874Y-73946206D01*
X101412352Y-74004676D01*
X101489836Y-74060971D01*
X101560708Y-74097082D01*
X101663812Y-74149617D01*
X101663815Y-74149618D01*
X101756664Y-74179786D01*
X101849516Y-74209955D01*
X101938835Y-74224101D01*
X102042366Y-74240500D01*
X102042371Y-74240500D01*
X102237634Y-74240500D01*
X102331125Y-74225691D01*
X102430484Y-74209955D01*
X102616187Y-74149617D01*
X102790164Y-74060971D01*
X102853881Y-74014678D01*
X105899500Y-74014678D01*
X105914032Y-74087735D01*
X105914033Y-74087739D01*
X105914034Y-74087740D01*
X105969399Y-74170601D01*
X106037294Y-74215966D01*
X106052260Y-74225966D01*
X106052264Y-74225967D01*
X106125321Y-74240499D01*
X106125324Y-74240500D01*
X106125326Y-74240500D01*
X108154676Y-74240500D01*
X108154677Y-74240499D01*
X108227740Y-74225966D01*
X108310601Y-74170601D01*
X108365966Y-74087740D01*
X108380500Y-74014674D01*
X108380500Y-70005326D01*
X108380500Y-70005323D01*
X108380499Y-70005321D01*
X108365967Y-69932264D01*
X108365966Y-69932260D01*
X108326700Y-69873494D01*
X108310601Y-69849399D01*
X108227740Y-69794034D01*
X108227739Y-69794033D01*
X108227735Y-69794032D01*
X108154677Y-69779500D01*
X108154674Y-69779500D01*
X106125326Y-69779500D01*
X106125323Y-69779500D01*
X106052264Y-69794032D01*
X106052260Y-69794033D01*
X105969399Y-69849399D01*
X105914033Y-69932260D01*
X105914032Y-69932264D01*
X105899500Y-70005321D01*
X105899500Y-74014678D01*
X102853881Y-74014678D01*
X102948132Y-73946201D01*
X103086201Y-73808132D01*
X103200971Y-73650164D01*
X103289617Y-73476187D01*
X103349955Y-73290484D01*
X103365691Y-73191125D01*
X103380500Y-73097634D01*
X103380500Y-70922365D01*
X103362730Y-70810174D01*
X103349955Y-70729516D01*
X103289617Y-70543813D01*
X103289617Y-70543812D01*
X103240815Y-70448034D01*
X103200971Y-70369836D01*
X103105964Y-70239069D01*
X103086206Y-70211874D01*
X103086202Y-70211869D01*
X102948130Y-70073797D01*
X102948125Y-70073793D01*
X102790167Y-69959031D01*
X102790166Y-69959030D01*
X102790164Y-69959029D01*
X102718001Y-69922260D01*
X102616187Y-69870382D01*
X102616184Y-69870381D01*
X102430485Y-69810045D01*
X102237634Y-69779500D01*
X102237629Y-69779500D01*
X102042371Y-69779500D01*
X102042366Y-69779500D01*
X101849514Y-69810045D01*
X101663815Y-69870381D01*
X101663812Y-69870382D01*
X101489832Y-69959031D01*
X101331874Y-70073793D01*
X101331869Y-70073797D01*
X101193797Y-70211869D01*
X101193793Y-70211874D01*
X101079031Y-70369832D01*
X100990382Y-70543812D01*
X100990381Y-70543815D01*
X100930045Y-70729514D01*
X100899500Y-70922365D01*
X100899500Y-73097634D01*
X98380500Y-73097634D01*
X98380500Y-70922365D01*
X98362730Y-70810174D01*
X98349955Y-70729516D01*
X98289617Y-70543813D01*
X98289617Y-70543812D01*
X98240815Y-70448034D01*
X98200971Y-70369836D01*
X98105964Y-70239069D01*
X98086206Y-70211874D01*
X98086202Y-70211869D01*
X97948130Y-70073797D01*
X97948125Y-70073793D01*
X97790167Y-69959031D01*
X97790166Y-69959030D01*
X97790164Y-69959029D01*
X97718001Y-69922260D01*
X97616187Y-69870382D01*
X97616184Y-69870381D01*
X97430485Y-69810045D01*
X97237634Y-69779500D01*
X97237629Y-69779500D01*
X97042371Y-69779500D01*
X97042366Y-69779500D01*
X96849514Y-69810045D01*
X96663815Y-69870381D01*
X96663812Y-69870382D01*
X96489832Y-69959031D01*
X96331874Y-70073793D01*
X96331869Y-70073797D01*
X96193797Y-70211869D01*
X96193793Y-70211874D01*
X96079031Y-70369832D01*
X95990382Y-70543812D01*
X95990381Y-70543815D01*
X95930045Y-70729514D01*
X95899500Y-70922365D01*
X95899500Y-73097634D01*
X93630000Y-73097634D01*
X93630000Y-72260000D01*
X92750825Y-72260000D01*
X92774636Y-72202515D01*
X92800000Y-72075004D01*
X92800000Y-71944996D01*
X92774636Y-71817485D01*
X92750825Y-71760000D01*
X93630000Y-71760000D01*
X93630000Y-70902734D01*
X93593310Y-70671090D01*
X93520835Y-70448034D01*
X93414361Y-70239069D01*
X93276505Y-70049327D01*
X93110672Y-69883494D01*
X92920930Y-69745638D01*
X92711963Y-69639164D01*
X92488905Y-69566688D01*
X92390000Y-69551022D01*
X92390000Y-71399175D01*
X92332515Y-71375364D01*
X92205004Y-71350000D01*
X92074996Y-71350000D01*
X91947485Y-71375364D01*
X91890000Y-71399175D01*
X91890000Y-69551022D01*
X91791094Y-69566688D01*
X91791093Y-69566688D01*
X91568036Y-69639164D01*
X91359069Y-69745638D01*
X91169327Y-69883494D01*
X91003494Y-70049327D01*
X90865638Y-70239069D01*
X90759164Y-70448034D01*
X90686689Y-70671090D01*
X90650000Y-70902734D01*
X90650000Y-71760000D01*
X91529175Y-71760000D01*
X91505364Y-71817485D01*
X91480000Y-71944996D01*
X91480000Y-72075004D01*
X91505364Y-72202515D01*
X91529175Y-72260000D01*
X90650000Y-72260000D01*
X90650000Y-73117265D01*
X84280500Y-73117265D01*
X84280500Y-65594500D01*
X84300185Y-65527461D01*
X84352989Y-65481706D01*
X84404500Y-65470500D01*
X128375500Y-65470500D01*
X128442539Y-65490185D01*
G37*
%TD.AperFunction*%
%TD*%
M02*
