%TF.GenerationSoftware,KiCad,Pcbnew,8.0.1*%
%TF.CreationDate,2024-05-06T17:41:32-07:00*%
%TF.ProjectId,knockControlBoard,6b6e6f63-6b43-46f6-9e74-726f6c426f61,rev?*%
%TF.SameCoordinates,Original*%
%TF.FileFunction,Legend,Bot*%
%TF.FilePolarity,Positive*%
%FSLAX46Y46*%
G04 Gerber Fmt 4.6, Leading zero omitted, Abs format (unit mm)*
G04 Created by KiCad (PCBNEW 8.0.1) date 2024-05-06 17:41:32*
%MOMM*%
%LPD*%
G01*
G04 APERTURE LIST*
%ADD10C,0.150000*%
%ADD11C,0.120000*%
G04 APERTURE END LIST*
D10*
X111589580Y-91904642D02*
X111637200Y-91857023D01*
X111637200Y-91857023D02*
X111684819Y-91714166D01*
X111684819Y-91714166D02*
X111684819Y-91618928D01*
X111684819Y-91618928D02*
X111637200Y-91476071D01*
X111637200Y-91476071D02*
X111541961Y-91380833D01*
X111541961Y-91380833D02*
X111446723Y-91333214D01*
X111446723Y-91333214D02*
X111256247Y-91285595D01*
X111256247Y-91285595D02*
X111113390Y-91285595D01*
X111113390Y-91285595D02*
X110922914Y-91333214D01*
X110922914Y-91333214D02*
X110827676Y-91380833D01*
X110827676Y-91380833D02*
X110732438Y-91476071D01*
X110732438Y-91476071D02*
X110684819Y-91618928D01*
X110684819Y-91618928D02*
X110684819Y-91714166D01*
X110684819Y-91714166D02*
X110732438Y-91857023D01*
X110732438Y-91857023D02*
X110780057Y-91904642D01*
X111684819Y-92857023D02*
X111684819Y-92285595D01*
X111684819Y-92571309D02*
X110684819Y-92571309D01*
X110684819Y-92571309D02*
X110827676Y-92476071D01*
X110827676Y-92476071D02*
X110922914Y-92380833D01*
X110922914Y-92380833D02*
X110970533Y-92285595D01*
X110780057Y-93237976D02*
X110732438Y-93285595D01*
X110732438Y-93285595D02*
X110684819Y-93380833D01*
X110684819Y-93380833D02*
X110684819Y-93618928D01*
X110684819Y-93618928D02*
X110732438Y-93714166D01*
X110732438Y-93714166D02*
X110780057Y-93761785D01*
X110780057Y-93761785D02*
X110875295Y-93809404D01*
X110875295Y-93809404D02*
X110970533Y-93809404D01*
X110970533Y-93809404D02*
X111113390Y-93761785D01*
X111113390Y-93761785D02*
X111684819Y-93190357D01*
X111684819Y-93190357D02*
X111684819Y-93809404D01*
X111959580Y-104864642D02*
X112007200Y-104817023D01*
X112007200Y-104817023D02*
X112054819Y-104674166D01*
X112054819Y-104674166D02*
X112054819Y-104578928D01*
X112054819Y-104578928D02*
X112007200Y-104436071D01*
X112007200Y-104436071D02*
X111911961Y-104340833D01*
X111911961Y-104340833D02*
X111816723Y-104293214D01*
X111816723Y-104293214D02*
X111626247Y-104245595D01*
X111626247Y-104245595D02*
X111483390Y-104245595D01*
X111483390Y-104245595D02*
X111292914Y-104293214D01*
X111292914Y-104293214D02*
X111197676Y-104340833D01*
X111197676Y-104340833D02*
X111102438Y-104436071D01*
X111102438Y-104436071D02*
X111054819Y-104578928D01*
X111054819Y-104578928D02*
X111054819Y-104674166D01*
X111054819Y-104674166D02*
X111102438Y-104817023D01*
X111102438Y-104817023D02*
X111150057Y-104864642D01*
X112054819Y-105817023D02*
X112054819Y-105245595D01*
X112054819Y-105531309D02*
X111054819Y-105531309D01*
X111054819Y-105531309D02*
X111197676Y-105436071D01*
X111197676Y-105436071D02*
X111292914Y-105340833D01*
X111292914Y-105340833D02*
X111340533Y-105245595D01*
X112054819Y-106769404D02*
X112054819Y-106197976D01*
X112054819Y-106483690D02*
X111054819Y-106483690D01*
X111054819Y-106483690D02*
X111197676Y-106388452D01*
X111197676Y-106388452D02*
X111292914Y-106293214D01*
X111292914Y-106293214D02*
X111340533Y-106197976D01*
X114644166Y-104449580D02*
X114691785Y-104497200D01*
X114691785Y-104497200D02*
X114834642Y-104544819D01*
X114834642Y-104544819D02*
X114929880Y-104544819D01*
X114929880Y-104544819D02*
X115072737Y-104497200D01*
X115072737Y-104497200D02*
X115167975Y-104401961D01*
X115167975Y-104401961D02*
X115215594Y-104306723D01*
X115215594Y-104306723D02*
X115263213Y-104116247D01*
X115263213Y-104116247D02*
X115263213Y-103973390D01*
X115263213Y-103973390D02*
X115215594Y-103782914D01*
X115215594Y-103782914D02*
X115167975Y-103687676D01*
X115167975Y-103687676D02*
X115072737Y-103592438D01*
X115072737Y-103592438D02*
X114929880Y-103544819D01*
X114929880Y-103544819D02*
X114834642Y-103544819D01*
X114834642Y-103544819D02*
X114691785Y-103592438D01*
X114691785Y-103592438D02*
X114644166Y-103640057D01*
X113739404Y-103544819D02*
X114215594Y-103544819D01*
X114215594Y-103544819D02*
X114263213Y-104021009D01*
X114263213Y-104021009D02*
X114215594Y-103973390D01*
X114215594Y-103973390D02*
X114120356Y-103925771D01*
X114120356Y-103925771D02*
X113882261Y-103925771D01*
X113882261Y-103925771D02*
X113787023Y-103973390D01*
X113787023Y-103973390D02*
X113739404Y-104021009D01*
X113739404Y-104021009D02*
X113691785Y-104116247D01*
X113691785Y-104116247D02*
X113691785Y-104354342D01*
X113691785Y-104354342D02*
X113739404Y-104449580D01*
X113739404Y-104449580D02*
X113787023Y-104497200D01*
X113787023Y-104497200D02*
X113882261Y-104544819D01*
X113882261Y-104544819D02*
X114120356Y-104544819D01*
X114120356Y-104544819D02*
X114215594Y-104497200D01*
X114215594Y-104497200D02*
X114263213Y-104449580D01*
X114844166Y-97959580D02*
X114891785Y-98007200D01*
X114891785Y-98007200D02*
X115034642Y-98054819D01*
X115034642Y-98054819D02*
X115129880Y-98054819D01*
X115129880Y-98054819D02*
X115272737Y-98007200D01*
X115272737Y-98007200D02*
X115367975Y-97911961D01*
X115367975Y-97911961D02*
X115415594Y-97816723D01*
X115415594Y-97816723D02*
X115463213Y-97626247D01*
X115463213Y-97626247D02*
X115463213Y-97483390D01*
X115463213Y-97483390D02*
X115415594Y-97292914D01*
X115415594Y-97292914D02*
X115367975Y-97197676D01*
X115367975Y-97197676D02*
X115272737Y-97102438D01*
X115272737Y-97102438D02*
X115129880Y-97054819D01*
X115129880Y-97054819D02*
X115034642Y-97054819D01*
X115034642Y-97054819D02*
X114891785Y-97102438D01*
X114891785Y-97102438D02*
X114844166Y-97150057D01*
X114510832Y-97054819D02*
X113891785Y-97054819D01*
X113891785Y-97054819D02*
X114225118Y-97435771D01*
X114225118Y-97435771D02*
X114082261Y-97435771D01*
X114082261Y-97435771D02*
X113987023Y-97483390D01*
X113987023Y-97483390D02*
X113939404Y-97531009D01*
X113939404Y-97531009D02*
X113891785Y-97626247D01*
X113891785Y-97626247D02*
X113891785Y-97864342D01*
X113891785Y-97864342D02*
X113939404Y-97959580D01*
X113939404Y-97959580D02*
X113987023Y-98007200D01*
X113987023Y-98007200D02*
X114082261Y-98054819D01*
X114082261Y-98054819D02*
X114367975Y-98054819D01*
X114367975Y-98054819D02*
X114463213Y-98007200D01*
X114463213Y-98007200D02*
X114510832Y-97959580D01*
X109599166Y-100139580D02*
X109646785Y-100187200D01*
X109646785Y-100187200D02*
X109789642Y-100234819D01*
X109789642Y-100234819D02*
X109884880Y-100234819D01*
X109884880Y-100234819D02*
X110027737Y-100187200D01*
X110027737Y-100187200D02*
X110122975Y-100091961D01*
X110122975Y-100091961D02*
X110170594Y-99996723D01*
X110170594Y-99996723D02*
X110218213Y-99806247D01*
X110218213Y-99806247D02*
X110218213Y-99663390D01*
X110218213Y-99663390D02*
X110170594Y-99472914D01*
X110170594Y-99472914D02*
X110122975Y-99377676D01*
X110122975Y-99377676D02*
X110027737Y-99282438D01*
X110027737Y-99282438D02*
X109884880Y-99234819D01*
X109884880Y-99234819D02*
X109789642Y-99234819D01*
X109789642Y-99234819D02*
X109646785Y-99282438D01*
X109646785Y-99282438D02*
X109599166Y-99330057D01*
X109218213Y-99330057D02*
X109170594Y-99282438D01*
X109170594Y-99282438D02*
X109075356Y-99234819D01*
X109075356Y-99234819D02*
X108837261Y-99234819D01*
X108837261Y-99234819D02*
X108742023Y-99282438D01*
X108742023Y-99282438D02*
X108694404Y-99330057D01*
X108694404Y-99330057D02*
X108646785Y-99425295D01*
X108646785Y-99425295D02*
X108646785Y-99520533D01*
X108646785Y-99520533D02*
X108694404Y-99663390D01*
X108694404Y-99663390D02*
X109265832Y-100234819D01*
X109265832Y-100234819D02*
X108646785Y-100234819D01*
X115229580Y-72045833D02*
X115277200Y-71998214D01*
X115277200Y-71998214D02*
X115324819Y-71855357D01*
X115324819Y-71855357D02*
X115324819Y-71760119D01*
X115324819Y-71760119D02*
X115277200Y-71617262D01*
X115277200Y-71617262D02*
X115181961Y-71522024D01*
X115181961Y-71522024D02*
X115086723Y-71474405D01*
X115086723Y-71474405D02*
X114896247Y-71426786D01*
X114896247Y-71426786D02*
X114753390Y-71426786D01*
X114753390Y-71426786D02*
X114562914Y-71474405D01*
X114562914Y-71474405D02*
X114467676Y-71522024D01*
X114467676Y-71522024D02*
X114372438Y-71617262D01*
X114372438Y-71617262D02*
X114324819Y-71760119D01*
X114324819Y-71760119D02*
X114324819Y-71855357D01*
X114324819Y-71855357D02*
X114372438Y-71998214D01*
X114372438Y-71998214D02*
X114420057Y-72045833D01*
X115324819Y-72522024D02*
X115324819Y-72712500D01*
X115324819Y-72712500D02*
X115277200Y-72807738D01*
X115277200Y-72807738D02*
X115229580Y-72855357D01*
X115229580Y-72855357D02*
X115086723Y-72950595D01*
X115086723Y-72950595D02*
X114896247Y-72998214D01*
X114896247Y-72998214D02*
X114515295Y-72998214D01*
X114515295Y-72998214D02*
X114420057Y-72950595D01*
X114420057Y-72950595D02*
X114372438Y-72902976D01*
X114372438Y-72902976D02*
X114324819Y-72807738D01*
X114324819Y-72807738D02*
X114324819Y-72617262D01*
X114324819Y-72617262D02*
X114372438Y-72522024D01*
X114372438Y-72522024D02*
X114420057Y-72474405D01*
X114420057Y-72474405D02*
X114515295Y-72426786D01*
X114515295Y-72426786D02*
X114753390Y-72426786D01*
X114753390Y-72426786D02*
X114848628Y-72474405D01*
X114848628Y-72474405D02*
X114896247Y-72522024D01*
X114896247Y-72522024D02*
X114943866Y-72617262D01*
X114943866Y-72617262D02*
X114943866Y-72807738D01*
X114943866Y-72807738D02*
X114896247Y-72902976D01*
X114896247Y-72902976D02*
X114848628Y-72950595D01*
X114848628Y-72950595D02*
X114753390Y-72998214D01*
X115269580Y-83435833D02*
X115317200Y-83388214D01*
X115317200Y-83388214D02*
X115364819Y-83245357D01*
X115364819Y-83245357D02*
X115364819Y-83150119D01*
X115364819Y-83150119D02*
X115317200Y-83007262D01*
X115317200Y-83007262D02*
X115221961Y-82912024D01*
X115221961Y-82912024D02*
X115126723Y-82864405D01*
X115126723Y-82864405D02*
X114936247Y-82816786D01*
X114936247Y-82816786D02*
X114793390Y-82816786D01*
X114793390Y-82816786D02*
X114602914Y-82864405D01*
X114602914Y-82864405D02*
X114507676Y-82912024D01*
X114507676Y-82912024D02*
X114412438Y-83007262D01*
X114412438Y-83007262D02*
X114364819Y-83150119D01*
X114364819Y-83150119D02*
X114364819Y-83245357D01*
X114364819Y-83245357D02*
X114412438Y-83388214D01*
X114412438Y-83388214D02*
X114460057Y-83435833D01*
X114364819Y-84292976D02*
X114364819Y-84102500D01*
X114364819Y-84102500D02*
X114412438Y-84007262D01*
X114412438Y-84007262D02*
X114460057Y-83959643D01*
X114460057Y-83959643D02*
X114602914Y-83864405D01*
X114602914Y-83864405D02*
X114793390Y-83816786D01*
X114793390Y-83816786D02*
X115174342Y-83816786D01*
X115174342Y-83816786D02*
X115269580Y-83864405D01*
X115269580Y-83864405D02*
X115317200Y-83912024D01*
X115317200Y-83912024D02*
X115364819Y-84007262D01*
X115364819Y-84007262D02*
X115364819Y-84197738D01*
X115364819Y-84197738D02*
X115317200Y-84292976D01*
X115317200Y-84292976D02*
X115269580Y-84340595D01*
X115269580Y-84340595D02*
X115174342Y-84388214D01*
X115174342Y-84388214D02*
X114936247Y-84388214D01*
X114936247Y-84388214D02*
X114841009Y-84340595D01*
X114841009Y-84340595D02*
X114793390Y-84292976D01*
X114793390Y-84292976D02*
X114745771Y-84197738D01*
X114745771Y-84197738D02*
X114745771Y-84007262D01*
X114745771Y-84007262D02*
X114793390Y-83912024D01*
X114793390Y-83912024D02*
X114841009Y-83864405D01*
X114841009Y-83864405D02*
X114936247Y-83816786D01*
X100924819Y-90527142D02*
X100448628Y-90193809D01*
X100924819Y-89955714D02*
X99924819Y-89955714D01*
X99924819Y-89955714D02*
X99924819Y-90336666D01*
X99924819Y-90336666D02*
X99972438Y-90431904D01*
X99972438Y-90431904D02*
X100020057Y-90479523D01*
X100020057Y-90479523D02*
X100115295Y-90527142D01*
X100115295Y-90527142D02*
X100258152Y-90527142D01*
X100258152Y-90527142D02*
X100353390Y-90479523D01*
X100353390Y-90479523D02*
X100401009Y-90431904D01*
X100401009Y-90431904D02*
X100448628Y-90336666D01*
X100448628Y-90336666D02*
X100448628Y-89955714D01*
X100924819Y-91479523D02*
X100924819Y-90908095D01*
X100924819Y-91193809D02*
X99924819Y-91193809D01*
X99924819Y-91193809D02*
X100067676Y-91098571D01*
X100067676Y-91098571D02*
X100162914Y-91003333D01*
X100162914Y-91003333D02*
X100210533Y-90908095D01*
X99924819Y-92384285D02*
X99924819Y-91908095D01*
X99924819Y-91908095D02*
X100401009Y-91860476D01*
X100401009Y-91860476D02*
X100353390Y-91908095D01*
X100353390Y-91908095D02*
X100305771Y-92003333D01*
X100305771Y-92003333D02*
X100305771Y-92241428D01*
X100305771Y-92241428D02*
X100353390Y-92336666D01*
X100353390Y-92336666D02*
X100401009Y-92384285D01*
X100401009Y-92384285D02*
X100496247Y-92431904D01*
X100496247Y-92431904D02*
X100734342Y-92431904D01*
X100734342Y-92431904D02*
X100829580Y-92384285D01*
X100829580Y-92384285D02*
X100877200Y-92336666D01*
X100877200Y-92336666D02*
X100924819Y-92241428D01*
X100924819Y-92241428D02*
X100924819Y-92003333D01*
X100924819Y-92003333D02*
X100877200Y-91908095D01*
X100877200Y-91908095D02*
X100829580Y-91860476D01*
X113394819Y-88532142D02*
X112918628Y-88198809D01*
X113394819Y-87960714D02*
X112394819Y-87960714D01*
X112394819Y-87960714D02*
X112394819Y-88341666D01*
X112394819Y-88341666D02*
X112442438Y-88436904D01*
X112442438Y-88436904D02*
X112490057Y-88484523D01*
X112490057Y-88484523D02*
X112585295Y-88532142D01*
X112585295Y-88532142D02*
X112728152Y-88532142D01*
X112728152Y-88532142D02*
X112823390Y-88484523D01*
X112823390Y-88484523D02*
X112871009Y-88436904D01*
X112871009Y-88436904D02*
X112918628Y-88341666D01*
X112918628Y-88341666D02*
X112918628Y-87960714D01*
X113394819Y-89484523D02*
X113394819Y-88913095D01*
X113394819Y-89198809D02*
X112394819Y-89198809D01*
X112394819Y-89198809D02*
X112537676Y-89103571D01*
X112537676Y-89103571D02*
X112632914Y-89008333D01*
X112632914Y-89008333D02*
X112680533Y-88913095D01*
X112728152Y-90341666D02*
X113394819Y-90341666D01*
X112347200Y-90103571D02*
X113061485Y-89865476D01*
X113061485Y-89865476D02*
X113061485Y-90484523D01*
X113527857Y-101652440D02*
X113861190Y-101176249D01*
X114099285Y-101652440D02*
X114099285Y-100652440D01*
X114099285Y-100652440D02*
X113718333Y-100652440D01*
X113718333Y-100652440D02*
X113623095Y-100700059D01*
X113623095Y-100700059D02*
X113575476Y-100747678D01*
X113575476Y-100747678D02*
X113527857Y-100842916D01*
X113527857Y-100842916D02*
X113527857Y-100985773D01*
X113527857Y-100985773D02*
X113575476Y-101081011D01*
X113575476Y-101081011D02*
X113623095Y-101128630D01*
X113623095Y-101128630D02*
X113718333Y-101176249D01*
X113718333Y-101176249D02*
X114099285Y-101176249D01*
X112575476Y-101652440D02*
X113146904Y-101652440D01*
X112861190Y-101652440D02*
X112861190Y-100652440D01*
X112861190Y-100652440D02*
X112956428Y-100795297D01*
X112956428Y-100795297D02*
X113051666Y-100890535D01*
X113051666Y-100890535D02*
X113146904Y-100938154D01*
X112194523Y-100747678D02*
X112146904Y-100700059D01*
X112146904Y-100700059D02*
X112051666Y-100652440D01*
X112051666Y-100652440D02*
X111813571Y-100652440D01*
X111813571Y-100652440D02*
X111718333Y-100700059D01*
X111718333Y-100700059D02*
X111670714Y-100747678D01*
X111670714Y-100747678D02*
X111623095Y-100842916D01*
X111623095Y-100842916D02*
X111623095Y-100938154D01*
X111623095Y-100938154D02*
X111670714Y-101081011D01*
X111670714Y-101081011D02*
X112242142Y-101652440D01*
X112242142Y-101652440D02*
X111623095Y-101652440D01*
X110001666Y-101642440D02*
X110334999Y-101166249D01*
X110573094Y-101642440D02*
X110573094Y-100642440D01*
X110573094Y-100642440D02*
X110192142Y-100642440D01*
X110192142Y-100642440D02*
X110096904Y-100690059D01*
X110096904Y-100690059D02*
X110049285Y-100737678D01*
X110049285Y-100737678D02*
X110001666Y-100832916D01*
X110001666Y-100832916D02*
X110001666Y-100975773D01*
X110001666Y-100975773D02*
X110049285Y-101071011D01*
X110049285Y-101071011D02*
X110096904Y-101118630D01*
X110096904Y-101118630D02*
X110192142Y-101166249D01*
X110192142Y-101166249D02*
X110573094Y-101166249D01*
X109096904Y-100642440D02*
X109573094Y-100642440D01*
X109573094Y-100642440D02*
X109620713Y-101118630D01*
X109620713Y-101118630D02*
X109573094Y-101071011D01*
X109573094Y-101071011D02*
X109477856Y-101023392D01*
X109477856Y-101023392D02*
X109239761Y-101023392D01*
X109239761Y-101023392D02*
X109144523Y-101071011D01*
X109144523Y-101071011D02*
X109096904Y-101118630D01*
X109096904Y-101118630D02*
X109049285Y-101213868D01*
X109049285Y-101213868D02*
X109049285Y-101451963D01*
X109049285Y-101451963D02*
X109096904Y-101547201D01*
X109096904Y-101547201D02*
X109144523Y-101594821D01*
X109144523Y-101594821D02*
X109239761Y-101642440D01*
X109239761Y-101642440D02*
X109477856Y-101642440D01*
X109477856Y-101642440D02*
X109573094Y-101594821D01*
X109573094Y-101594821D02*
X109620713Y-101547201D01*
X101634819Y-98140833D02*
X101158628Y-97807500D01*
X101634819Y-97569405D02*
X100634819Y-97569405D01*
X100634819Y-97569405D02*
X100634819Y-97950357D01*
X100634819Y-97950357D02*
X100682438Y-98045595D01*
X100682438Y-98045595D02*
X100730057Y-98093214D01*
X100730057Y-98093214D02*
X100825295Y-98140833D01*
X100825295Y-98140833D02*
X100968152Y-98140833D01*
X100968152Y-98140833D02*
X101063390Y-98093214D01*
X101063390Y-98093214D02*
X101111009Y-98045595D01*
X101111009Y-98045595D02*
X101158628Y-97950357D01*
X101158628Y-97950357D02*
X101158628Y-97569405D01*
X100968152Y-98997976D02*
X101634819Y-98997976D01*
X100587200Y-98759881D02*
X101301485Y-98521786D01*
X101301485Y-98521786D02*
X101301485Y-99140833D01*
X100074819Y-102123333D02*
X99598628Y-101790000D01*
X100074819Y-101551905D02*
X99074819Y-101551905D01*
X99074819Y-101551905D02*
X99074819Y-101932857D01*
X99074819Y-101932857D02*
X99122438Y-102028095D01*
X99122438Y-102028095D02*
X99170057Y-102075714D01*
X99170057Y-102075714D02*
X99265295Y-102123333D01*
X99265295Y-102123333D02*
X99408152Y-102123333D01*
X99408152Y-102123333D02*
X99503390Y-102075714D01*
X99503390Y-102075714D02*
X99551009Y-102028095D01*
X99551009Y-102028095D02*
X99598628Y-101932857D01*
X99598628Y-101932857D02*
X99598628Y-101551905D01*
X100074819Y-103075714D02*
X100074819Y-102504286D01*
X100074819Y-102790000D02*
X99074819Y-102790000D01*
X99074819Y-102790000D02*
X99217676Y-102694762D01*
X99217676Y-102694762D02*
X99312914Y-102599524D01*
X99312914Y-102599524D02*
X99360533Y-102504286D01*
X111154819Y-77411905D02*
X110154819Y-77411905D01*
X110154819Y-77411905D02*
X110154819Y-77650000D01*
X110154819Y-77650000D02*
X110202438Y-77792857D01*
X110202438Y-77792857D02*
X110297676Y-77888095D01*
X110297676Y-77888095D02*
X110392914Y-77935714D01*
X110392914Y-77935714D02*
X110583390Y-77983333D01*
X110583390Y-77983333D02*
X110726247Y-77983333D01*
X110726247Y-77983333D02*
X110916723Y-77935714D01*
X110916723Y-77935714D02*
X111011961Y-77888095D01*
X111011961Y-77888095D02*
X111107200Y-77792857D01*
X111107200Y-77792857D02*
X111154819Y-77650000D01*
X111154819Y-77650000D02*
X111154819Y-77411905D01*
X110154819Y-78316667D02*
X110154819Y-78983333D01*
X110154819Y-78983333D02*
X111154819Y-78554762D01*
X115785594Y-95634819D02*
X115785594Y-94634819D01*
X115785594Y-94634819D02*
X115547499Y-94634819D01*
X115547499Y-94634819D02*
X115404642Y-94682438D01*
X115404642Y-94682438D02*
X115309404Y-94777676D01*
X115309404Y-94777676D02*
X115261785Y-94872914D01*
X115261785Y-94872914D02*
X115214166Y-95063390D01*
X115214166Y-95063390D02*
X115214166Y-95206247D01*
X115214166Y-95206247D02*
X115261785Y-95396723D01*
X115261785Y-95396723D02*
X115309404Y-95491961D01*
X115309404Y-95491961D02*
X115404642Y-95587200D01*
X115404642Y-95587200D02*
X115547499Y-95634819D01*
X115547499Y-95634819D02*
X115785594Y-95634819D01*
X114357023Y-94634819D02*
X114547499Y-94634819D01*
X114547499Y-94634819D02*
X114642737Y-94682438D01*
X114642737Y-94682438D02*
X114690356Y-94730057D01*
X114690356Y-94730057D02*
X114785594Y-94872914D01*
X114785594Y-94872914D02*
X114833213Y-95063390D01*
X114833213Y-95063390D02*
X114833213Y-95444342D01*
X114833213Y-95444342D02*
X114785594Y-95539580D01*
X114785594Y-95539580D02*
X114737975Y-95587200D01*
X114737975Y-95587200D02*
X114642737Y-95634819D01*
X114642737Y-95634819D02*
X114452261Y-95634819D01*
X114452261Y-95634819D02*
X114357023Y-95587200D01*
X114357023Y-95587200D02*
X114309404Y-95539580D01*
X114309404Y-95539580D02*
X114261785Y-95444342D01*
X114261785Y-95444342D02*
X114261785Y-95206247D01*
X114261785Y-95206247D02*
X114309404Y-95111009D01*
X114309404Y-95111009D02*
X114357023Y-95063390D01*
X114357023Y-95063390D02*
X114452261Y-95015771D01*
X114452261Y-95015771D02*
X114642737Y-95015771D01*
X114642737Y-95015771D02*
X114737975Y-95063390D01*
X114737975Y-95063390D02*
X114785594Y-95111009D01*
X114785594Y-95111009D02*
X114833213Y-95206247D01*
D11*
%TO.C,C12*%
X112175000Y-92808752D02*
X112175000Y-92286248D01*
X113645000Y-92808752D02*
X113645000Y-92286248D01*
%TO.C,C11*%
X110655000Y-105246248D02*
X110655000Y-105768752D01*
X109185000Y-105246248D02*
X109185000Y-105768752D01*
%TO.C,C5*%
X114216248Y-105035000D02*
X114738752Y-105035000D01*
X114216248Y-106505000D02*
X114738752Y-106505000D01*
%TO.C,C3*%
X114416248Y-98545000D02*
X114938752Y-98545000D01*
X114416248Y-100015000D02*
X114938752Y-100015000D01*
%TO.C,C2*%
X109693752Y-98835000D02*
X109171248Y-98835000D01*
X109693752Y-97365000D02*
X109171248Y-97365000D01*
%TO.C,C9*%
X113925000Y-71951248D02*
X113925000Y-72473752D01*
X112455000Y-71951248D02*
X112455000Y-72473752D01*
%TO.C,C6*%
X113965000Y-83341248D02*
X113965000Y-83863752D01*
X112495000Y-83341248D02*
X112495000Y-83863752D01*
%TO.C,R15*%
X101377500Y-91424724D02*
X101377500Y-90915276D01*
X102422500Y-91424724D02*
X102422500Y-90915276D01*
%TO.C,R14*%
X113847500Y-89412258D02*
X113847500Y-88937742D01*
X114892500Y-89412258D02*
X114892500Y-88937742D01*
%TO.C,R12*%
X112647742Y-102105121D02*
X113122258Y-102105121D01*
X112647742Y-103150121D02*
X113122258Y-103150121D01*
%TO.C,R5*%
X109597742Y-102095121D02*
X110072258Y-102095121D01*
X109597742Y-103140121D02*
X110072258Y-103140121D01*
%TO.C,R4*%
X100272500Y-98052776D02*
X100272500Y-98562224D01*
X99227500Y-98052776D02*
X99227500Y-98562224D01*
%TO.C,R1*%
X98712500Y-102035276D02*
X98712500Y-102544724D01*
X97667500Y-102035276D02*
X97667500Y-102544724D01*
%TO.C,D7*%
X106550000Y-81660000D02*
X109850000Y-81660000D01*
X109850000Y-76150000D02*
X109850000Y-81660000D01*
X106550000Y-76150000D02*
X106550000Y-81660000D01*
%TO.C,D6*%
X115907500Y-96780000D02*
X115907500Y-95980000D01*
X115907500Y-95980000D02*
X114547500Y-95980000D01*
X115907500Y-96780000D02*
X114547500Y-96780000D01*
%TD*%
M02*
