M48
; DRILL file {KiCad 8.0.1} date 2024-05-25T07:42:10-0700
; FORMAT={-:-/ absolute / inch / decimal}
; #@! TF.CreationDate,2024-05-25T07:42:10-07:00
; #@! TF.GenerationSoftware,Kicad,Pcbnew,8.0.1
; #@! TF.FileFunction,Plated,1,2,PTH
FMAT,2
INCH
; #@! TA.AperFunction,Plated,PTH,ViaDrill
T1C0.0118
; #@! TA.AperFunction,Plated,PTH,ComponentDrill
T2C0.0315
; #@! TA.AperFunction,Plated,PTH,ComponentDrill
T3C0.0320
; #@! TA.AperFunction,Plated,PTH,ComponentDrill
T4C0.0354
; #@! TA.AperFunction,Plated,PTH,ComponentDrill
T5C0.0394
; #@! TA.AperFunction,Plated,PTH,ComponentDrill
T6C0.0520
; #@! TA.AperFunction,Plated,PTH,ComponentDrill
T7C0.0984
%
G90
G05
T1
X3.7996Y-3.5264
X3.822Y-3.5535
X3.885Y-4.3945
X3.9185Y-4.4201
X4.0799Y-3.6973
X4.1036Y-3.5469
X4.211Y-3.1866
X4.2295Y-3.2244
X4.2417Y-3.4465
X4.2717Y-3.461
X4.405Y-3.5524
X4.4563Y-4.1933
X4.4685Y-4.139
X4.9028Y-3.4857
X4.9614Y-3.324
X4.9882Y-4.5193
T2
X3.972Y-3.524
X3.972Y-3.824
T3
X3.4587Y-3.3409
X3.4587Y-3.6409
X3.4634Y-4.2866
X3.4634Y-4.4866
X3.6587Y-3.3409
X3.6587Y-3.6409
X3.7634Y-4.2866
X3.7634Y-4.4866
T4
X4.7209Y-3.2319
X4.8209Y-3.2319
T5
X4.0291Y-4.1177
X4.0291Y-4.2177
X4.0291Y-4.3177
X4.8823Y-4.2348
X4.8823Y-4.3348
X4.8823Y-4.4348
X4.8906Y-3.6264
X4.8906Y-3.7264
X4.8906Y-3.8264
T6
X3.6276Y-2.835
X3.6512Y-3.8657
X3.6512Y-4.0626
X3.8244Y-2.835
X4.0213Y-2.835
X4.2181Y-2.835
X4.4709Y-2.8346
X4.6677Y-2.8346
T7
X3.411Y-3.1524
X4.2094Y-4.3768
X4.3555Y-3.8543
X4.3657Y-3.2024
X4.4122Y-4.3748
X4.5429Y-3.3516
X4.6547Y-3.5327
X4.6591Y-4.2642
M30
