%TF.GenerationSoftware,KiCad,Pcbnew,8.0.1*%
%TF.CreationDate,2024-05-06T17:41:32-07:00*%
%TF.ProjectId,knockControlBoard,6b6e6f63-6b43-46f6-9e74-726f6c426f61,rev?*%
%TF.SameCoordinates,Original*%
%TF.FileFunction,Copper,L1,Top*%
%TF.FilePolarity,Positive*%
%FSLAX46Y46*%
G04 Gerber Fmt 4.6, Leading zero omitted, Abs format (unit mm)*
G04 Created by KiCad (PCBNEW 8.0.1) date 2024-05-06 17:41:32*
%MOMM*%
%LPD*%
G01*
G04 APERTURE LIST*
G04 Aperture macros list*
%AMRoundRect*
0 Rectangle with rounded corners*
0 $1 Rounding radius*
0 $2 $3 $4 $5 $6 $7 $8 $9 X,Y pos of 4 corners*
0 Add a 4 corners polygon primitive as box body*
4,1,4,$2,$3,$4,$5,$6,$7,$8,$9,$2,$3,0*
0 Add four circle primitives for the rounded corners*
1,1,$1+$1,$2,$3*
1,1,$1+$1,$4,$5*
1,1,$1+$1,$6,$7*
1,1,$1+$1,$8,$9*
0 Add four rect primitives between the rounded corners*
20,1,$1+$1,$2,$3,$4,$5,0*
20,1,$1+$1,$4,$5,$6,$7,0*
20,1,$1+$1,$6,$7,$8,$9,0*
20,1,$1+$1,$8,$9,$2,$3,0*%
G04 Aperture macros list end*
%TA.AperFunction,SMDPad,CuDef*%
%ADD10RoundRect,0.250000X-0.475000X0.337500X-0.475000X-0.337500X0.475000X-0.337500X0.475000X0.337500X0*%
%TD*%
%TA.AperFunction,ComponentPad*%
%ADD11R,1.980000X3.960000*%
%TD*%
%TA.AperFunction,ComponentPad*%
%ADD12O,1.980000X3.960000*%
%TD*%
%TA.AperFunction,ComponentPad*%
%ADD13C,1.397000*%
%TD*%
%TA.AperFunction,ComponentPad*%
%ADD14R,1.700000X1.700000*%
%TD*%
%TA.AperFunction,ComponentPad*%
%ADD15O,1.700000X1.700000*%
%TD*%
%TA.AperFunction,ComponentPad*%
%ADD16R,3.960000X1.980000*%
%TD*%
%TA.AperFunction,ComponentPad*%
%ADD17O,3.960000X1.980000*%
%TD*%
%TA.AperFunction,ComponentPad*%
%ADD18R,1.800000X1.800000*%
%TD*%
%TA.AperFunction,ComponentPad*%
%ADD19C,1.800000*%
%TD*%
%TA.AperFunction,SMDPad,CuDef*%
%ADD20RoundRect,0.162500X0.617500X0.162500X-0.617500X0.162500X-0.617500X-0.162500X0.617500X-0.162500X0*%
%TD*%
%TA.AperFunction,SMDPad,CuDef*%
%ADD21RoundRect,0.100000X0.100000X-0.650000X0.100000X0.650000X-0.100000X0.650000X-0.100000X-0.650000X0*%
%TD*%
%TA.AperFunction,SMDPad,CuDef*%
%ADD22R,1.450000X0.450000*%
%TD*%
%TA.AperFunction,SMDPad,CuDef*%
%ADD23RoundRect,0.100000X0.650000X0.100000X-0.650000X0.100000X-0.650000X-0.100000X0.650000X-0.100000X0*%
%TD*%
%TA.AperFunction,ComponentPad*%
%ADD24C,4.000000*%
%TD*%
%TA.AperFunction,SMDPad,CuDef*%
%ADD25RoundRect,0.200000X0.275000X-0.200000X0.275000X0.200000X-0.275000X0.200000X-0.275000X-0.200000X0*%
%TD*%
%TA.AperFunction,SMDPad,CuDef*%
%ADD26RoundRect,0.237500X-0.237500X0.250000X-0.237500X-0.250000X0.237500X-0.250000X0.237500X0.250000X0*%
%TD*%
%TA.AperFunction,SMDPad,CuDef*%
%ADD27RoundRect,0.237500X-0.250000X-0.237500X0.250000X-0.237500X0.250000X0.237500X-0.250000X0.237500X0*%
%TD*%
%TA.AperFunction,SMDPad,CuDef*%
%ADD28RoundRect,0.237500X0.237500X-0.250000X0.237500X0.250000X-0.237500X0.250000X-0.237500X-0.250000X0*%
%TD*%
%TA.AperFunction,SMDPad,CuDef*%
%ADD29RoundRect,0.062500X-0.062500X0.117500X-0.062500X-0.117500X0.062500X-0.117500X0.062500X0.117500X0*%
%TD*%
%TA.AperFunction,SMDPad,CuDef*%
%ADD30RoundRect,0.250000X-0.650000X1.000000X-0.650000X-1.000000X0.650000X-1.000000X0.650000X1.000000X0*%
%TD*%
%TA.AperFunction,ComponentPad*%
%ADD31R,1.600000X1.600000*%
%TD*%
%TA.AperFunction,ComponentPad*%
%ADD32C,1.600000*%
%TD*%
%TA.AperFunction,ViaPad*%
%ADD33C,0.600000*%
%TD*%
%TA.AperFunction,Conductor*%
%ADD34C,0.500000*%
%TD*%
%TA.AperFunction,Conductor*%
%ADD35C,0.250000*%
%TD*%
%TA.AperFunction,Conductor*%
%ADD36C,0.750000*%
%TD*%
G04 APERTURE END LIST*
D10*
%TO.P,C4,2*%
%TO.N,Net-(D6-K)*%
X111300000Y-94847500D03*
%TO.P,C4,1*%
%TO.N,GND*%
X111300000Y-92772500D03*
%TD*%
%TO.P,C1,1*%
%TO.N,Net-(C1-Pad1)*%
X100570000Y-98632500D03*
%TO.P,C1,2*%
%TO.N,Net-(D1-A2)*%
X100570000Y-100707500D03*
%TD*%
D11*
%TO.P,J7,1,Pin_1*%
%TO.N,log_out*%
X107140000Y-72010000D03*
D12*
%TO.P,J7,2,Pin_2*%
%TO.N,log_sync*%
X102140000Y-72010000D03*
%TO.P,J7,3,Pin_3*%
%TO.N,retarder_out*%
X97140000Y-72010000D03*
%TO.P,J7,4,Pin_4*%
%TO.N,GND*%
X92140000Y-72010000D03*
%TD*%
D13*
%TO.P,SW2,1,1*%
%TO.N,+5V*%
X87850000Y-92480000D03*
X87850000Y-84860000D03*
%TO.P,SW2,2,2*%
%TO.N,Net-(U2-IN)*%
X92930000Y-92480000D03*
X92930000Y-84860000D03*
%TD*%
%TO.P,SW1,1,1*%
%TO.N,+5V*%
X95590000Y-113960000D03*
X87970000Y-113960000D03*
%TO.P,SW1,2,2*%
%TO.N,Net-(C1-Pad1)*%
X95590000Y-108880000D03*
X87970000Y-108880000D03*
%TD*%
D14*
%TO.P,RV2,1,1*%
%TO.N,unconnected-(RV2-Pad1)*%
X121380000Y-112685000D03*
D15*
%TO.P,RV2,2,2*%
%TO.N,Net-(D2-K)*%
X121380000Y-110145000D03*
%TO.P,RV2,3,3*%
%TO.N,GND*%
X121380000Y-107605000D03*
%TD*%
D14*
%TO.P,RV1,1,1*%
%TO.N,+5V*%
X121480000Y-102270000D03*
D15*
%TO.P,RV1,2,2*%
%TO.N,Net-(U1-IN-)*%
X121480000Y-99730000D03*
%TO.P,RV1,3,3*%
%TO.N,GND*%
X121480000Y-97190000D03*
%TD*%
D16*
%TO.P,J5,1,Pin_1*%
%TO.N,+5V*%
X117110000Y-74545000D03*
D17*
%TO.P,J5,2,Pin_2*%
%TO.N,GND*%
X117110000Y-69545000D03*
%TD*%
D16*
%TO.P,J4,1,Pin_1*%
%TO.N,+12V*%
X117170000Y-86080000D03*
D17*
%TO.P,J4,2,Pin_2*%
%TO.N,GND*%
X117170000Y-81080000D03*
%TD*%
D16*
%TO.P,J1,1,Pin_1*%
%TO.N,Net-(D1-A1)*%
X92740000Y-98190000D03*
D17*
%TO.P,J1,2,Pin_2*%
%TO.N,Net-(J1-Pin_2)*%
X92740000Y-103190000D03*
%TD*%
D18*
%TO.P,D3,1,K*%
%TO.N,GND*%
X108070000Y-113697621D03*
D19*
%TO.P,D3,2,A*%
%TO.N,Net-(D3-A)*%
X108070000Y-111157621D03*
%TD*%
D20*
%TO.P,U7,1,IN+*%
%TO.N,Net-(D6-K)*%
X116370000Y-93510000D03*
%TO.P,U7,2,V-*%
%TO.N,GND*%
X116370000Y-92560000D03*
%TO.P,U7,3,IN-*%
%TO.N,Net-(U7-IN-)*%
X116370000Y-91610000D03*
%TO.P,U7,4,OUT*%
X113670000Y-91610000D03*
%TO.P,U7,5,V+*%
%TO.N,+12V*%
X113670000Y-93510000D03*
%TD*%
D21*
%TO.P,U6,1,OUT*%
%TO.N,retarder_out*%
X110187500Y-106117621D03*
%TO.P,U6,2,VSS*%
%TO.N,GND*%
X110837500Y-106117621D03*
%TO.P,U6,3,IN+*%
%TO.N,Net-(D2-K)*%
X111487500Y-106117621D03*
%TO.P,U6,4,IN-*%
%TO.N,Net-(U6-IN-)*%
X111487500Y-103457621D03*
%TO.P,U6,5,VDD*%
%TO.N,+5V*%
X110187500Y-103457621D03*
%TD*%
D20*
%TO.P,U4,1,IN+*%
%TO.N,Net-(U1-IN+)*%
X116267500Y-97950000D03*
%TO.P,U4,2,V-*%
%TO.N,Net-(D6-K)*%
X116267500Y-97000000D03*
%TO.P,U4,3,IN-*%
%TO.N,GND*%
X116267500Y-96050000D03*
%TO.P,U4,4,OUT*%
%TO.N,Net-(D6-A)*%
X113567500Y-96050000D03*
%TO.P,U4,5,V+*%
%TO.N,+12V*%
X113567500Y-97950000D03*
%TD*%
D22*
%TO.P,U3,8,Rg*%
%TO.N,Net-(R3-Pad2)*%
X111010000Y-98297500D03*
%TO.P,U3,7,V+*%
%TO.N,+5V*%
X111010000Y-98947500D03*
%TO.P,U3,6*%
%TO.N,Net-(U1-IN+)*%
X111010000Y-99597500D03*
%TO.P,U3,5,Ref*%
%TO.N,GND*%
X111010000Y-100247500D03*
%TO.P,U3,4,V-*%
X106610000Y-100247500D03*
%TO.P,U3,3,+*%
%TO.N,Net-(D1-A2)*%
X106610000Y-99597500D03*
%TO.P,U3,2,-*%
%TO.N,Net-(D1-A1)*%
X106610000Y-98947500D03*
%TO.P,U3,1,Rg*%
%TO.N,Net-(R3-Pad1)*%
X106610000Y-98297500D03*
%TD*%
D20*
%TO.P,U2,1,VDD*%
%TO.N,+5V*%
X109150000Y-94890000D03*
%TO.P,U2,2,S*%
%TO.N,Net-(D6-K)*%
X109150000Y-93940000D03*
%TO.P,U2,3,VSS*%
%TO.N,GND*%
X109150000Y-92990000D03*
%TO.P,U2,4,GND*%
X106450000Y-92990000D03*
%TO.P,U2,5,D*%
X106450000Y-93940000D03*
%TO.P,U2,6,IN*%
%TO.N,Net-(U2-IN)*%
X106450000Y-94890000D03*
%TD*%
D23*
%TO.P,U1,1,OUT*%
%TO.N,Net-(D2-A)*%
X116117500Y-105127621D03*
%TO.P,U1,2,VSS*%
%TO.N,GND*%
X116117500Y-104477621D03*
%TO.P,U1,3,IN+*%
%TO.N,Net-(U1-IN+)*%
X116117500Y-103827621D03*
%TO.P,U1,4,IN-*%
%TO.N,Net-(U1-IN-)*%
X113457500Y-103827621D03*
%TO.P,U1,5,VDD*%
%TO.N,+5V*%
X113457500Y-105127621D03*
%TD*%
D24*
%TO.P,TP4,1,1*%
%TO.N,retarder_out*%
X103100000Y-104610000D03*
%TD*%
%TO.P,TP3,1,1*%
%TO.N,log_out*%
X105380000Y-89530000D03*
%TD*%
%TO.P,TP2,1,1*%
%TO.N,Net-(U1-IN-)*%
X122160000Y-92240000D03*
%TD*%
%TO.P,TP1,1,1*%
%TO.N,GND*%
X102460000Y-111060000D03*
%TD*%
D25*
%TO.P,R11,1*%
%TO.N,Net-(D3-A)*%
X107975000Y-109127621D03*
%TO.P,R11,2*%
%TO.N,retarder_out*%
X107975000Y-107477621D03*
%TD*%
D26*
%TO.P,R10,1*%
%TO.N,Net-(U1-IN+)*%
X113770000Y-99697500D03*
%TO.P,R10,2*%
%TO.N,GND*%
X113770000Y-101522500D03*
%TD*%
D27*
%TO.P,R3,1*%
%TO.N,Net-(R3-Pad1)*%
X107775000Y-96667500D03*
%TO.P,R3,2*%
%TO.N,Net-(R3-Pad2)*%
X109600000Y-96667500D03*
%TD*%
D28*
%TO.P,R2,1*%
%TO.N,Net-(C1-Pad1)*%
X100710000Y-96880000D03*
%TO.P,R2,2*%
%TO.N,Net-(D1-A1)*%
X100710000Y-95055000D03*
%TD*%
D29*
%TO.P,D2,1,K*%
%TO.N,Net-(D2-K)*%
X116027500Y-107397621D03*
%TO.P,D2,2,A*%
%TO.N,Net-(D2-A)*%
X116027500Y-106557621D03*
%TD*%
D30*
%TO.P,D1,2,A2*%
%TO.N,Net-(D1-A2)*%
X103450000Y-99520000D03*
%TO.P,D1,1,A1*%
%TO.N,Net-(D1-A1)*%
X103450000Y-95520000D03*
%TD*%
D31*
%TO.P,C10,1*%
%TO.N,Net-(D2-K)*%
X114270000Y-110287621D03*
D32*
%TO.P,C10,2*%
%TO.N,GND*%
X114270000Y-112787621D03*
%TD*%
D33*
%TO.N,+12V*%
X112910000Y-93585000D03*
X112540000Y-98620000D03*
%TO.N,+5V*%
X108030000Y-95520000D03*
X109235000Y-99335000D03*
X113980000Y-106910000D03*
X108900000Y-103710000D03*
%TO.N,Net-(U1-IN-)*%
X115090000Y-102620000D03*
%TO.N,Net-(U6-IN-)*%
X111390000Y-102000000D03*
%TO.N,Net-(U7-IN-)*%
X114700000Y-90950000D03*
%TO.N,Net-(D6-K)*%
X117350000Y-96820000D03*
%TO.N,Net-(D6-A)*%
X114250000Y-95460000D03*
%TO.N,Net-(C1-Pad1)*%
X99150000Y-97370000D03*
%TO.N,Net-(U2-IN)*%
X101900000Y-92082500D03*
%TD*%
D34*
%TO.N,+12V*%
X112985000Y-93510000D02*
X112910000Y-93585000D01*
X113670000Y-93510000D02*
X112985000Y-93510000D01*
D35*
%TO.N,Net-(D2-K)*%
X111487500Y-107505121D02*
X114270000Y-110287621D01*
X111487500Y-106117621D02*
X111487500Y-107505121D01*
D34*
%TO.N,Net-(D1-A2)*%
X102262500Y-100707500D02*
X103450000Y-99520000D01*
X100570000Y-100707500D02*
X102262500Y-100707500D01*
D35*
%TO.N,Net-(D6-K)*%
X111300000Y-94847500D02*
X110392500Y-93940000D01*
X112030000Y-97000000D02*
X111300000Y-96270000D01*
X110392500Y-93940000D02*
X109150000Y-93940000D01*
X116267500Y-97000000D02*
X112030000Y-97000000D01*
X111300000Y-96270000D02*
X111300000Y-94847500D01*
D34*
%TO.N,+12V*%
X113210000Y-97950000D02*
X112540000Y-98620000D01*
X113567500Y-97950000D02*
X113210000Y-97950000D01*
%TO.N,Net-(U2-IN)*%
X92930000Y-84860000D02*
X92930000Y-92480000D01*
X93327500Y-92082500D02*
X92930000Y-92480000D01*
X101900000Y-92082500D02*
X93327500Y-92082500D01*
X105466878Y-94890000D02*
X106450000Y-94890000D01*
X102659378Y-92082500D02*
X105466878Y-94890000D01*
X101900000Y-92082500D02*
X102659378Y-92082500D01*
%TO.N,+5V*%
X108520000Y-95520000D02*
X109150000Y-94890000D01*
X108030000Y-95520000D02*
X108520000Y-95520000D01*
D35*
X109235000Y-99335000D02*
X109622500Y-98947500D01*
X109622500Y-98947500D02*
X111010000Y-98947500D01*
D34*
X113980000Y-106910000D02*
X113980000Y-105650121D01*
X113980000Y-105650121D02*
X113457500Y-105127621D01*
X109935121Y-103710000D02*
X110187500Y-103457621D01*
X108900000Y-103710000D02*
X109935121Y-103710000D01*
%TO.N,Net-(U1-IN-)*%
X113882379Y-103827621D02*
X115090000Y-102620000D01*
X113457500Y-103827621D02*
X113882379Y-103827621D01*
D36*
X118820000Y-95580000D02*
X122160000Y-92240000D01*
X120230000Y-99730000D02*
X118820000Y-98320000D01*
X121480000Y-99730000D02*
X120230000Y-99730000D01*
X118820000Y-98320000D02*
X118820000Y-95580000D01*
D35*
%TO.N,Net-(U6-IN-)*%
X111487500Y-102097500D02*
X111390000Y-102000000D01*
X111487500Y-103457621D02*
X111487500Y-102097500D01*
%TO.N,Net-(U1-IN+)*%
X113077500Y-99697500D02*
X113770000Y-99697500D01*
X112977500Y-99597500D02*
X113077500Y-99697500D01*
X111010000Y-99597500D02*
X112977500Y-99597500D01*
D34*
X113770000Y-99697500D02*
X114520000Y-99697500D01*
X114520000Y-99697500D02*
X116267500Y-97950000D01*
X116117500Y-102045000D02*
X113770000Y-99697500D01*
X116117500Y-103827621D02*
X116117500Y-102045000D01*
D35*
%TO.N,Net-(D2-A)*%
X116117500Y-106467621D02*
X116027500Y-106557621D01*
X116117500Y-105127621D02*
X116117500Y-106467621D01*
D34*
%TO.N,Net-(D2-K)*%
X117642379Y-110145000D02*
X116027500Y-108530121D01*
X121380000Y-110145000D02*
X117642379Y-110145000D01*
X116027500Y-108530121D02*
X114270000Y-110287621D01*
X116027500Y-107397621D02*
X116027500Y-108530121D01*
%TO.N,Net-(D3-A)*%
X107975000Y-111062621D02*
X108070000Y-111157621D01*
X107975000Y-109127621D02*
X107975000Y-111062621D01*
%TO.N,retarder_out*%
X105967621Y-107477621D02*
X103100000Y-104610000D01*
X107975000Y-107477621D02*
X105967621Y-107477621D01*
X110187500Y-106117621D02*
X109335000Y-106117621D01*
X109335000Y-106117621D02*
X107975000Y-107477621D01*
%TO.N,Net-(C1-Pad1)*%
X95590000Y-108880000D02*
X87970000Y-108880000D01*
X99150000Y-105320000D02*
X95590000Y-108880000D01*
X99150000Y-97370000D02*
X99150000Y-105320000D01*
D35*
%TO.N,Net-(U7-IN-)*%
X114710000Y-90960000D02*
X114700000Y-90950000D01*
X114710000Y-91610000D02*
X113670000Y-91610000D01*
X114710000Y-91610000D02*
X114710000Y-90960000D01*
X116370000Y-91610000D02*
X114710000Y-91610000D01*
%TO.N,Net-(D6-K)*%
X117530000Y-94670000D02*
X116370000Y-93510000D01*
X117530000Y-96640000D02*
X117530000Y-94670000D01*
X117350000Y-96820000D02*
X117530000Y-96640000D01*
X116447500Y-96820000D02*
X116267500Y-97000000D01*
X117350000Y-96820000D02*
X116447500Y-96820000D01*
%TO.N,Net-(D6-A)*%
X113660000Y-96050000D02*
X114250000Y-95460000D01*
X113567500Y-96050000D02*
X113660000Y-96050000D01*
%TO.N,Net-(R3-Pad2)*%
X109600000Y-96887500D02*
X111010000Y-98297500D01*
X109600000Y-96667500D02*
X109600000Y-96887500D01*
%TO.N,Net-(R3-Pad1)*%
X106610000Y-97832500D02*
X107775000Y-96667500D01*
X106610000Y-98297500D02*
X106610000Y-97832500D01*
%TO.N,Net-(D1-A1)*%
X105190000Y-96660000D02*
X104050000Y-95520000D01*
X104050000Y-95520000D02*
X103450000Y-95520000D01*
X105660000Y-98947500D02*
X105190000Y-98477500D01*
X105190000Y-98477500D02*
X105190000Y-96660000D01*
X106610000Y-98947500D02*
X105660000Y-98947500D01*
%TO.N,Net-(D1-A2)*%
X103527500Y-99597500D02*
X103450000Y-99520000D01*
X106610000Y-99597500D02*
X103527500Y-99597500D01*
D34*
%TO.N,Net-(C1-Pad1)*%
X100770000Y-98565000D02*
X100770000Y-96940000D01*
X100770000Y-96940000D02*
X100710000Y-96880000D01*
X99640000Y-96880000D02*
X99150000Y-97370000D01*
X100710000Y-96880000D02*
X99640000Y-96880000D01*
%TO.N,Net-(D1-A1)*%
X95875000Y-95055000D02*
X100710000Y-95055000D01*
X92740000Y-98190000D02*
X95875000Y-95055000D01*
X103450000Y-95520000D02*
X102985000Y-95055000D01*
X102985000Y-95055000D02*
X100710000Y-95055000D01*
%TD*%
%TA.AperFunction,Conductor*%
%TO.N,GND*%
G36*
X128442539Y-65490185D02*
G01*
X128488294Y-65542989D01*
X128499500Y-65594500D01*
X128499500Y-115765500D01*
X128479815Y-115832539D01*
X128427011Y-115878294D01*
X128375500Y-115889500D01*
X84404500Y-115889500D01*
X84337461Y-115869815D01*
X84291706Y-115817011D01*
X84280500Y-115765500D01*
X84280500Y-113960000D01*
X87016408Y-113960000D01*
X87034730Y-114146033D01*
X87088998Y-114324930D01*
X87177113Y-114489781D01*
X87177117Y-114489788D01*
X87295708Y-114634291D01*
X87440211Y-114752882D01*
X87440218Y-114752886D01*
X87605069Y-114841001D01*
X87605072Y-114841001D01*
X87605076Y-114841004D01*
X87783963Y-114895269D01*
X87970000Y-114913592D01*
X88156037Y-114895269D01*
X88334924Y-114841004D01*
X88337338Y-114839714D01*
X88499781Y-114752886D01*
X88499787Y-114752883D01*
X88644291Y-114634291D01*
X88762883Y-114489787D01*
X88851004Y-114324924D01*
X88905269Y-114146037D01*
X88923592Y-113960000D01*
X94636408Y-113960000D01*
X94654730Y-114146033D01*
X94708998Y-114324930D01*
X94797113Y-114489781D01*
X94797117Y-114489788D01*
X94915708Y-114634291D01*
X95060211Y-114752882D01*
X95060218Y-114752886D01*
X95225069Y-114841001D01*
X95225072Y-114841001D01*
X95225076Y-114841004D01*
X95403963Y-114895269D01*
X95590000Y-114913592D01*
X95776037Y-114895269D01*
X95954924Y-114841004D01*
X95957338Y-114839714D01*
X96119781Y-114752886D01*
X96119787Y-114752883D01*
X96250676Y-114645465D01*
X106670000Y-114645465D01*
X106676401Y-114704993D01*
X106676403Y-114705000D01*
X106726645Y-114839707D01*
X106726649Y-114839714D01*
X106812809Y-114954808D01*
X106812812Y-114954811D01*
X106927906Y-115040971D01*
X106927913Y-115040975D01*
X107062620Y-115091217D01*
X107062627Y-115091219D01*
X107122155Y-115097620D01*
X107122172Y-115097621D01*
X107820000Y-115097621D01*
X107820000Y-114072898D01*
X107896306Y-114116954D01*
X108010756Y-114147621D01*
X108129244Y-114147621D01*
X108243694Y-114116954D01*
X108320000Y-114072898D01*
X108320000Y-115097621D01*
X109017828Y-115097621D01*
X109017844Y-115097620D01*
X109077372Y-115091219D01*
X109077379Y-115091217D01*
X109212086Y-115040975D01*
X109212093Y-115040971D01*
X109327187Y-114954811D01*
X109327190Y-114954808D01*
X109413350Y-114839714D01*
X109413354Y-114839707D01*
X109463596Y-114705000D01*
X109463598Y-114704993D01*
X109469999Y-114645465D01*
X109470000Y-114645448D01*
X109470000Y-113947621D01*
X108445278Y-113947621D01*
X108489333Y-113871315D01*
X108520000Y-113756865D01*
X108520000Y-113638377D01*
X108489333Y-113523927D01*
X108445278Y-113447621D01*
X109470000Y-113447621D01*
X109470000Y-112749793D01*
X109469999Y-112749776D01*
X109463598Y-112690248D01*
X109463596Y-112690241D01*
X109413354Y-112555534D01*
X109413350Y-112555527D01*
X109327190Y-112440433D01*
X109327187Y-112440430D01*
X109212093Y-112354270D01*
X109212086Y-112354266D01*
X109077379Y-112304024D01*
X109077372Y-112304022D01*
X109017844Y-112297621D01*
X108847305Y-112297621D01*
X108780266Y-112277936D01*
X108734511Y-112225132D01*
X108724567Y-112155974D01*
X108753592Y-112092418D01*
X108763767Y-112081984D01*
X108923870Y-111936030D01*
X108970472Y-111874320D01*
X109052366Y-111765876D01*
X109106338Y-111657485D01*
X109147403Y-111575015D01*
X109147403Y-111575014D01*
X109147405Y-111575010D01*
X109205756Y-111369931D01*
X109225429Y-111157621D01*
X109205756Y-110945311D01*
X109147405Y-110740232D01*
X109147403Y-110740227D01*
X109147403Y-110740226D01*
X109052367Y-110549367D01*
X108923872Y-110379214D01*
X108889722Y-110348082D01*
X108766302Y-110235569D01*
X108665499Y-110173154D01*
X108585020Y-110123323D01*
X108585015Y-110123321D01*
X108554704Y-110111578D01*
X108499303Y-110069004D01*
X108475714Y-110003237D01*
X108475500Y-109995952D01*
X108475500Y-109783699D01*
X108495185Y-109716660D01*
X108525864Y-109683931D01*
X108572150Y-109649771D01*
X108652793Y-109540503D01*
X108692917Y-109425835D01*
X108697646Y-109412322D01*
X108697646Y-109412320D01*
X108700500Y-109381890D01*
X108700500Y-108873351D01*
X108697646Y-108842921D01*
X108697646Y-108842919D01*
X108652793Y-108714740D01*
X108652792Y-108714738D01*
X108637462Y-108693966D01*
X108572150Y-108605471D01*
X108462882Y-108524828D01*
X108462880Y-108524827D01*
X108334700Y-108479974D01*
X108304270Y-108477121D01*
X108304266Y-108477121D01*
X107645734Y-108477121D01*
X107645730Y-108477121D01*
X107615300Y-108479974D01*
X107615298Y-108479974D01*
X107487119Y-108524827D01*
X107487117Y-108524828D01*
X107377850Y-108605471D01*
X107297207Y-108714738D01*
X107297206Y-108714740D01*
X107252353Y-108842919D01*
X107252353Y-108842921D01*
X107249500Y-108873351D01*
X107249500Y-109381890D01*
X107252353Y-109412320D01*
X107252353Y-109412322D01*
X107297206Y-109540501D01*
X107297207Y-109540503D01*
X107377850Y-109649771D01*
X107424134Y-109683930D01*
X107466384Y-109739575D01*
X107474500Y-109783699D01*
X107474500Y-110104087D01*
X107454815Y-110171126D01*
X107415778Y-110209514D01*
X107373699Y-110235568D01*
X107216127Y-110379214D01*
X107087632Y-110549367D01*
X106992596Y-110740226D01*
X106992596Y-110740228D01*
X106934244Y-110945310D01*
X106916728Y-111134348D01*
X106914571Y-111157621D01*
X106934244Y-111369931D01*
X106983579Y-111543324D01*
X106992596Y-111575013D01*
X106992596Y-111575015D01*
X107087632Y-111765874D01*
X107216129Y-111936030D01*
X107376233Y-112081984D01*
X107412515Y-112141695D01*
X107410754Y-112211543D01*
X107371510Y-112269350D01*
X107307244Y-112296765D01*
X107292695Y-112297621D01*
X107122155Y-112297621D01*
X107062627Y-112304022D01*
X107062620Y-112304024D01*
X106927913Y-112354266D01*
X106927906Y-112354270D01*
X106812812Y-112440430D01*
X106812809Y-112440433D01*
X106726649Y-112555527D01*
X106726645Y-112555534D01*
X106676403Y-112690241D01*
X106676401Y-112690248D01*
X106670000Y-112749776D01*
X106670000Y-113447621D01*
X107694722Y-113447621D01*
X107650667Y-113523927D01*
X107620000Y-113638377D01*
X107620000Y-113756865D01*
X107650667Y-113871315D01*
X107694722Y-113947621D01*
X106670000Y-113947621D01*
X106670000Y-114645465D01*
X96250676Y-114645465D01*
X96264291Y-114634291D01*
X96382883Y-114489787D01*
X96471004Y-114324924D01*
X96525269Y-114146037D01*
X96543592Y-113960000D01*
X96525269Y-113773963D01*
X96471004Y-113595076D01*
X96471001Y-113595072D01*
X96471001Y-113595069D01*
X96382886Y-113430218D01*
X96382882Y-113430211D01*
X96264291Y-113285708D01*
X96119788Y-113167117D01*
X96119781Y-113167113D01*
X95954930Y-113078998D01*
X95954924Y-113078996D01*
X95776037Y-113024731D01*
X95776035Y-113024730D01*
X95776033Y-113024730D01*
X95590000Y-113006408D01*
X95403966Y-113024730D01*
X95225069Y-113078998D01*
X95060218Y-113167113D01*
X95060211Y-113167117D01*
X94915708Y-113285708D01*
X94797117Y-113430211D01*
X94797113Y-113430218D01*
X94708998Y-113595069D01*
X94654730Y-113773966D01*
X94636408Y-113960000D01*
X88923592Y-113960000D01*
X88905269Y-113773963D01*
X88851004Y-113595076D01*
X88851001Y-113595072D01*
X88851001Y-113595069D01*
X88762886Y-113430218D01*
X88762882Y-113430211D01*
X88644291Y-113285708D01*
X88499788Y-113167117D01*
X88499781Y-113167113D01*
X88334930Y-113078998D01*
X88334924Y-113078996D01*
X88156037Y-113024731D01*
X88156035Y-113024730D01*
X88156033Y-113024730D01*
X87970000Y-113006408D01*
X87783966Y-113024730D01*
X87605069Y-113078998D01*
X87440218Y-113167113D01*
X87440211Y-113167117D01*
X87295708Y-113285708D01*
X87177117Y-113430211D01*
X87177113Y-113430218D01*
X87088998Y-113595069D01*
X87034730Y-113773966D01*
X87016408Y-113960000D01*
X84280500Y-113960000D01*
X84280500Y-111060005D01*
X99955057Y-111060005D01*
X99974807Y-111373942D01*
X99974808Y-111373949D01*
X100033755Y-111682958D01*
X100130963Y-111982132D01*
X100130965Y-111982137D01*
X100264900Y-112266761D01*
X100264903Y-112266767D01*
X100433457Y-112532367D01*
X100433460Y-112532371D01*
X100524286Y-112642160D01*
X101416320Y-111750125D01*
X101506554Y-111874320D01*
X101645680Y-112013446D01*
X101769873Y-112103678D01*
X100874971Y-112998579D01*
X100874972Y-112998581D01*
X101117772Y-113174985D01*
X101117790Y-113174996D01*
X101393447Y-113326540D01*
X101393455Y-113326544D01*
X101685926Y-113442340D01*
X101990620Y-113520573D01*
X101990629Y-113520575D01*
X102302701Y-113559999D01*
X102302715Y-113560000D01*
X102617285Y-113560000D01*
X102617298Y-113559999D01*
X102929370Y-113520575D01*
X102929379Y-113520573D01*
X103234073Y-113442340D01*
X103526544Y-113326544D01*
X103526552Y-113326540D01*
X103802209Y-113174996D01*
X103802219Y-113174990D01*
X104045026Y-112998579D01*
X104045027Y-112998579D01*
X103150126Y-112103678D01*
X103274320Y-112013446D01*
X103413446Y-111874320D01*
X103503678Y-111750126D01*
X104395712Y-112642160D01*
X104486544Y-112532364D01*
X104655096Y-112266767D01*
X104655099Y-112266761D01*
X104789034Y-111982137D01*
X104789036Y-111982132D01*
X104886244Y-111682958D01*
X104945191Y-111373949D01*
X104945192Y-111373942D01*
X104964943Y-111060005D01*
X104964943Y-111059994D01*
X104945192Y-110746057D01*
X104945191Y-110746050D01*
X104886244Y-110437041D01*
X104789036Y-110137867D01*
X104789034Y-110137862D01*
X104655099Y-109853238D01*
X104655096Y-109853232D01*
X104486542Y-109587632D01*
X104486539Y-109587628D01*
X104395712Y-109477838D01*
X103503678Y-110369872D01*
X103413446Y-110245680D01*
X103274320Y-110106554D01*
X103150126Y-110016320D01*
X104045027Y-109121419D01*
X104045026Y-109121417D01*
X103802227Y-108945014D01*
X103802209Y-108945003D01*
X103526552Y-108793459D01*
X103526544Y-108793455D01*
X103234073Y-108677659D01*
X102929379Y-108599426D01*
X102929370Y-108599424D01*
X102617298Y-108560000D01*
X102302701Y-108560000D01*
X101990629Y-108599424D01*
X101990620Y-108599426D01*
X101685926Y-108677659D01*
X101393455Y-108793455D01*
X101393447Y-108793459D01*
X101117787Y-108945004D01*
X101117782Y-108945007D01*
X100874972Y-109121418D01*
X100874971Y-109121419D01*
X101769873Y-110016321D01*
X101645680Y-110106554D01*
X101506554Y-110245680D01*
X101416321Y-110369873D01*
X100524286Y-109477838D01*
X100524285Y-109477838D01*
X100433459Y-109587629D01*
X100433457Y-109587632D01*
X100264903Y-109853232D01*
X100264900Y-109853238D01*
X100130965Y-110137862D01*
X100130963Y-110137867D01*
X100033755Y-110437041D01*
X99974808Y-110746050D01*
X99974807Y-110746057D01*
X99955057Y-111059994D01*
X99955057Y-111060005D01*
X84280500Y-111060005D01*
X84280500Y-108880000D01*
X87016408Y-108880000D01*
X87034730Y-109066033D01*
X87034730Y-109066035D01*
X87034731Y-109066037D01*
X87075612Y-109200802D01*
X87088998Y-109244930D01*
X87177113Y-109409781D01*
X87177117Y-109409788D01*
X87295708Y-109554291D01*
X87440211Y-109672882D01*
X87440218Y-109672886D01*
X87605069Y-109761001D01*
X87605072Y-109761001D01*
X87605076Y-109761004D01*
X87783963Y-109815269D01*
X87970000Y-109833592D01*
X88156037Y-109815269D01*
X88334924Y-109761004D01*
X88363463Y-109745750D01*
X88499781Y-109672886D01*
X88499787Y-109672883D01*
X88644291Y-109554291D01*
X88749713Y-109425835D01*
X88807459Y-109386501D01*
X88845566Y-109380500D01*
X94714434Y-109380500D01*
X94781473Y-109400185D01*
X94810287Y-109425835D01*
X94915708Y-109554291D01*
X95060211Y-109672882D01*
X95060218Y-109672886D01*
X95225069Y-109761001D01*
X95225072Y-109761001D01*
X95225076Y-109761004D01*
X95403963Y-109815269D01*
X95590000Y-109833592D01*
X95776037Y-109815269D01*
X95954924Y-109761004D01*
X95983463Y-109745750D01*
X96119781Y-109672886D01*
X96119787Y-109672883D01*
X96264291Y-109554291D01*
X96382883Y-109409787D01*
X96471004Y-109244924D01*
X96525269Y-109066037D01*
X96543592Y-108880000D01*
X96527303Y-108714620D01*
X96540322Y-108645976D01*
X96563022Y-108614790D01*
X99447104Y-105730707D01*
X99447109Y-105730704D01*
X99457312Y-105720500D01*
X99457314Y-105720500D01*
X99550500Y-105627314D01*
X99616392Y-105513186D01*
X99650500Y-105385892D01*
X99650500Y-104610007D01*
X100844671Y-104610007D01*
X100863964Y-104904363D01*
X100863965Y-104904373D01*
X100863966Y-104904380D01*
X100863968Y-104904390D01*
X100921518Y-105193716D01*
X100921521Y-105193730D01*
X101016349Y-105473080D01*
X101146825Y-105737660D01*
X101146829Y-105737667D01*
X101310725Y-105982955D01*
X101505241Y-106204758D01*
X101727044Y-106399274D01*
X101972332Y-106563170D01*
X101972339Y-106563174D01*
X102020923Y-106587133D01*
X102236923Y-106693652D01*
X102516278Y-106788481D01*
X102805620Y-106846034D01*
X102833888Y-106847886D01*
X103099993Y-106865329D01*
X103100000Y-106865329D01*
X103100007Y-106865329D01*
X103335675Y-106849881D01*
X103394380Y-106846034D01*
X103683722Y-106788481D01*
X103963077Y-106693652D01*
X104179077Y-106587133D01*
X104226794Y-106563602D01*
X104295626Y-106551606D01*
X104360017Y-106578727D01*
X104369319Y-106587133D01*
X105567121Y-107784935D01*
X105660307Y-107878121D01*
X105774435Y-107944013D01*
X105901729Y-107978121D01*
X107307712Y-107978121D01*
X107374751Y-107997806D01*
X107381345Y-108002351D01*
X107487113Y-108080411D01*
X107487115Y-108080412D01*
X107487118Y-108080414D01*
X107529845Y-108095365D01*
X107615299Y-108125267D01*
X107645730Y-108128121D01*
X107645734Y-108128121D01*
X108304270Y-108128121D01*
X108334699Y-108125267D01*
X108334701Y-108125267D01*
X108398790Y-108102840D01*
X108462882Y-108080414D01*
X108572150Y-107999771D01*
X108652793Y-107890503D01*
X108689733Y-107784935D01*
X108697646Y-107762322D01*
X108697646Y-107762320D01*
X108700500Y-107731890D01*
X108700500Y-107511297D01*
X108720185Y-107444258D01*
X108736819Y-107423616D01*
X109505995Y-106654440D01*
X109567318Y-106620955D01*
X109593676Y-106618121D01*
X109613000Y-106618121D01*
X109680039Y-106637806D01*
X109725794Y-106690610D01*
X109737000Y-106742121D01*
X109737000Y-106800881D01*
X109746926Y-106869012D01*
X109746927Y-106869014D01*
X109784997Y-106946889D01*
X109798303Y-106974106D01*
X109881014Y-107056817D01*
X109881015Y-107056817D01*
X109881017Y-107056819D01*
X109986107Y-107108194D01*
X110020173Y-107113157D01*
X110054239Y-107118121D01*
X110189015Y-107118121D01*
X110256054Y-107137806D01*
X110287391Y-107166634D01*
X110309575Y-107195545D01*
X110434914Y-107291721D01*
X110580866Y-107352176D01*
X110580872Y-107352178D01*
X110637498Y-107359632D01*
X110637500Y-107359631D01*
X110637500Y-106812266D01*
X110637825Y-106803300D01*
X110638000Y-106800886D01*
X111037000Y-106800886D01*
X111037175Y-106803300D01*
X111037500Y-106812266D01*
X111037500Y-107359631D01*
X111069759Y-107387922D01*
X111107183Y-107446924D01*
X111112000Y-107481150D01*
X111112000Y-107554556D01*
X111137590Y-107650059D01*
X111184835Y-107731890D01*
X111187026Y-107735684D01*
X113183181Y-109731839D01*
X113216666Y-109793162D01*
X113219500Y-109819520D01*
X113219500Y-111112299D01*
X113234032Y-111185356D01*
X113234033Y-111185360D01*
X113234034Y-111185361D01*
X113289399Y-111268222D01*
X113372260Y-111323587D01*
X113372264Y-111323588D01*
X113445321Y-111338120D01*
X113445324Y-111338121D01*
X113743072Y-111338121D01*
X113810111Y-111357806D01*
X113855866Y-111410610D01*
X113865810Y-111479768D01*
X113836785Y-111543324D01*
X113795477Y-111574503D01*
X113617516Y-111657487D01*
X113617512Y-111657489D01*
X113544526Y-111708594D01*
X113544526Y-111708595D01*
X114223553Y-112387621D01*
X114217339Y-112387621D01*
X114115606Y-112414880D01*
X114024394Y-112467541D01*
X113949920Y-112542015D01*
X113897259Y-112633227D01*
X113870000Y-112734960D01*
X113870000Y-112741173D01*
X113190974Y-112062147D01*
X113190973Y-112062147D01*
X113139868Y-112135133D01*
X113139866Y-112135137D01*
X113043734Y-112341294D01*
X113043730Y-112341303D01*
X112984860Y-112561010D01*
X112984858Y-112561021D01*
X112965034Y-112787618D01*
X112965034Y-112787623D01*
X112984858Y-113014220D01*
X112984860Y-113014231D01*
X113043730Y-113233938D01*
X113043735Y-113233952D01*
X113139863Y-113440099D01*
X113190974Y-113513093D01*
X113870000Y-112834067D01*
X113870000Y-112840282D01*
X113897259Y-112942015D01*
X113949920Y-113033227D01*
X114024394Y-113107701D01*
X114115606Y-113160362D01*
X114217339Y-113187621D01*
X114223553Y-113187621D01*
X113544526Y-113866646D01*
X113617513Y-113917753D01*
X113617521Y-113917757D01*
X113823668Y-114013885D01*
X113823682Y-114013890D01*
X114043389Y-114072760D01*
X114043400Y-114072762D01*
X114269998Y-114092587D01*
X114270002Y-114092587D01*
X114496599Y-114072762D01*
X114496610Y-114072760D01*
X114716317Y-114013890D01*
X114716331Y-114013885D01*
X114922478Y-113917757D01*
X114995471Y-113866645D01*
X114688504Y-113559678D01*
X120279500Y-113559678D01*
X120294032Y-113632735D01*
X120294033Y-113632739D01*
X120294034Y-113632740D01*
X120349399Y-113715601D01*
X120411156Y-113756865D01*
X120432260Y-113770966D01*
X120432264Y-113770967D01*
X120505321Y-113785499D01*
X120505324Y-113785500D01*
X120505326Y-113785500D01*
X122254676Y-113785500D01*
X122254677Y-113785499D01*
X122327740Y-113770966D01*
X122410601Y-113715601D01*
X122465966Y-113632740D01*
X122480500Y-113559674D01*
X122480500Y-111810326D01*
X122480500Y-111810323D01*
X122480499Y-111810321D01*
X122465967Y-111737264D01*
X122465966Y-111737260D01*
X122429683Y-111682958D01*
X122410601Y-111654399D01*
X122327740Y-111599034D01*
X122327739Y-111599033D01*
X122327735Y-111599032D01*
X122254677Y-111584500D01*
X122254674Y-111584500D01*
X120505326Y-111584500D01*
X120505323Y-111584500D01*
X120432264Y-111599032D01*
X120432260Y-111599033D01*
X120349399Y-111654399D01*
X120294033Y-111737260D01*
X120294032Y-111737264D01*
X120279500Y-111810321D01*
X120279500Y-113559678D01*
X114688504Y-113559678D01*
X114316447Y-113187621D01*
X114322661Y-113187621D01*
X114424394Y-113160362D01*
X114515606Y-113107701D01*
X114590080Y-113033227D01*
X114642741Y-112942015D01*
X114670000Y-112840282D01*
X114670000Y-112834068D01*
X115349024Y-113513092D01*
X115400136Y-113440099D01*
X115496264Y-113233952D01*
X115496269Y-113233938D01*
X115555139Y-113014231D01*
X115555141Y-113014220D01*
X115574966Y-112787623D01*
X115574966Y-112787618D01*
X115555141Y-112561021D01*
X115555139Y-112561010D01*
X115496269Y-112341303D01*
X115496264Y-112341289D01*
X115400136Y-112135142D01*
X115400132Y-112135134D01*
X115349025Y-112062147D01*
X114670000Y-112741172D01*
X114670000Y-112734960D01*
X114642741Y-112633227D01*
X114590080Y-112542015D01*
X114515606Y-112467541D01*
X114424394Y-112414880D01*
X114322661Y-112387621D01*
X114316448Y-112387621D01*
X114995472Y-111708595D01*
X114922480Y-111657485D01*
X114744523Y-111574503D01*
X114692084Y-111528331D01*
X114672932Y-111461137D01*
X114693148Y-111394256D01*
X114746313Y-111348922D01*
X114796928Y-111338121D01*
X115094676Y-111338121D01*
X115094677Y-111338120D01*
X115167740Y-111323587D01*
X115250601Y-111268222D01*
X115305966Y-111185361D01*
X115320500Y-111112295D01*
X115320500Y-109996297D01*
X115340185Y-109929258D01*
X115356819Y-109908616D01*
X115939819Y-109325616D01*
X116001142Y-109292131D01*
X116070834Y-109297115D01*
X116115181Y-109325616D01*
X117241879Y-110452314D01*
X117335065Y-110545500D01*
X117449193Y-110611392D01*
X117576487Y-110645500D01*
X120323056Y-110645500D01*
X120390095Y-110665185D01*
X120434055Y-110714226D01*
X120440326Y-110726821D01*
X120563237Y-110889581D01*
X120713958Y-111026980D01*
X120713960Y-111026982D01*
X120813141Y-111088392D01*
X120887363Y-111134348D01*
X121077544Y-111208024D01*
X121278024Y-111245500D01*
X121278026Y-111245500D01*
X121481974Y-111245500D01*
X121481976Y-111245500D01*
X121682456Y-111208024D01*
X121872637Y-111134348D01*
X122046041Y-111026981D01*
X122196764Y-110889579D01*
X122319673Y-110726821D01*
X122410582Y-110544250D01*
X122466397Y-110348083D01*
X122485215Y-110145000D01*
X122466397Y-109941917D01*
X122410582Y-109745750D01*
X122407507Y-109739575D01*
X122331849Y-109587632D01*
X122319673Y-109563179D01*
X122203837Y-109409787D01*
X122196762Y-109400418D01*
X122046041Y-109263019D01*
X122046039Y-109263017D01*
X121872642Y-109155655D01*
X121872635Y-109155651D01*
X121791715Y-109124303D01*
X121736313Y-109081730D01*
X121712723Y-109015963D01*
X121728434Y-108947883D01*
X121778458Y-108899104D01*
X121804417Y-108888901D01*
X121843481Y-108878434D01*
X121843492Y-108878429D01*
X122057578Y-108778600D01*
X122251082Y-108643105D01*
X122418105Y-108476082D01*
X122553600Y-108282578D01*
X122653429Y-108068492D01*
X122653432Y-108068486D01*
X122710636Y-107855000D01*
X121813012Y-107855000D01*
X121845925Y-107797993D01*
X121880000Y-107670826D01*
X121880000Y-107539174D01*
X121845925Y-107412007D01*
X121813012Y-107355000D01*
X122710636Y-107355000D01*
X122710635Y-107354999D01*
X122653432Y-107141513D01*
X122653429Y-107141507D01*
X122553600Y-106927422D01*
X122553599Y-106927420D01*
X122418113Y-106733926D01*
X122418108Y-106733920D01*
X122251082Y-106566894D01*
X122057578Y-106431399D01*
X121843492Y-106331570D01*
X121843486Y-106331567D01*
X121630000Y-106274364D01*
X121630000Y-107171988D01*
X121572993Y-107139075D01*
X121445826Y-107105000D01*
X121314174Y-107105000D01*
X121187007Y-107139075D01*
X121130000Y-107171988D01*
X121130000Y-106274364D01*
X121129999Y-106274364D01*
X120916513Y-106331567D01*
X120916507Y-106331570D01*
X120702422Y-106431399D01*
X120702420Y-106431400D01*
X120508926Y-106566886D01*
X120508920Y-106566891D01*
X120341891Y-106733920D01*
X120341886Y-106733926D01*
X120206400Y-106927420D01*
X120206399Y-106927422D01*
X120106570Y-107141507D01*
X120106567Y-107141513D01*
X120049364Y-107354999D01*
X120049364Y-107355000D01*
X120946988Y-107355000D01*
X120914075Y-107412007D01*
X120880000Y-107539174D01*
X120880000Y-107670826D01*
X120914075Y-107797993D01*
X120946988Y-107855000D01*
X120049364Y-107855000D01*
X120106567Y-108068486D01*
X120106570Y-108068492D01*
X120206399Y-108282578D01*
X120341894Y-108476082D01*
X120508917Y-108643105D01*
X120702421Y-108778600D01*
X120916507Y-108878429D01*
X120916516Y-108878433D01*
X120955583Y-108888901D01*
X121015244Y-108925266D01*
X121045773Y-108988113D01*
X121037479Y-109057488D01*
X120992993Y-109111366D01*
X120968284Y-109124302D01*
X120887373Y-109155647D01*
X120887357Y-109155655D01*
X120713960Y-109263017D01*
X120713958Y-109263019D01*
X120563237Y-109400418D01*
X120440326Y-109563178D01*
X120434055Y-109575774D01*
X120386551Y-109627010D01*
X120323056Y-109644500D01*
X117901055Y-109644500D01*
X117834016Y-109624815D01*
X117813374Y-109608181D01*
X116564319Y-108359126D01*
X116530834Y-108297803D01*
X116528000Y-108271445D01*
X116528000Y-107331731D01*
X116528000Y-107331729D01*
X116493892Y-107204435D01*
X116428000Y-107090307D01*
X116359989Y-107022296D01*
X116326505Y-106960974D01*
X116331489Y-106891282D01*
X116346101Y-106863485D01*
X116350342Y-106857427D01*
X116350350Y-106857420D01*
X116396999Y-106757381D01*
X116397724Y-106751866D01*
X116416449Y-106706692D01*
X116413909Y-106705226D01*
X116433215Y-106671785D01*
X116455969Y-106632375D01*
X116467410Y-106612559D01*
X116492715Y-106518121D01*
X116493000Y-106517057D01*
X116493000Y-106418185D01*
X116493000Y-105702121D01*
X116512685Y-105635082D01*
X116565489Y-105589327D01*
X116617000Y-105578121D01*
X116800761Y-105578121D01*
X116823471Y-105574812D01*
X116868893Y-105568194D01*
X116973983Y-105516819D01*
X117056698Y-105434104D01*
X117108073Y-105329014D01*
X117118000Y-105260881D01*
X117118000Y-105126105D01*
X117137685Y-105059066D01*
X117166515Y-105027728D01*
X117195423Y-105005546D01*
X117291600Y-104880207D01*
X117352055Y-104734252D01*
X117359512Y-104677621D01*
X116812142Y-104677621D01*
X116803174Y-104677296D01*
X116800761Y-104677121D01*
X116800760Y-104677121D01*
X115434240Y-104677121D01*
X115434239Y-104677121D01*
X115431826Y-104677296D01*
X115422858Y-104677621D01*
X114875490Y-104677621D01*
X114875488Y-104677622D01*
X114882942Y-104734248D01*
X114882944Y-104734254D01*
X114943399Y-104880206D01*
X115039576Y-105005546D01*
X115068485Y-105027728D01*
X115109689Y-105084155D01*
X115117000Y-105126105D01*
X115117000Y-105260881D01*
X115126926Y-105329012D01*
X115178303Y-105434106D01*
X115261014Y-105516817D01*
X115261015Y-105516817D01*
X115261017Y-105516819D01*
X115366107Y-105568194D01*
X115400173Y-105573157D01*
X115434239Y-105578121D01*
X115434240Y-105578121D01*
X115618000Y-105578121D01*
X115685039Y-105597806D01*
X115730794Y-105650610D01*
X115742000Y-105702121D01*
X115742000Y-106169110D01*
X115722315Y-106236149D01*
X115705681Y-106256791D01*
X115704650Y-106257821D01*
X115658000Y-106357862D01*
X115652001Y-106403432D01*
X115652000Y-106403448D01*
X115652000Y-106711801D01*
X115658000Y-106757377D01*
X115658002Y-106757384D01*
X115704650Y-106857420D01*
X115708903Y-106863494D01*
X115731230Y-106929701D01*
X115714218Y-106997468D01*
X115695009Y-107022296D01*
X115627003Y-107090303D01*
X115627000Y-107090307D01*
X115561108Y-107204433D01*
X115527000Y-107331729D01*
X115527000Y-108271445D01*
X115507315Y-108338484D01*
X115490681Y-108359126D01*
X114649005Y-109200802D01*
X114587682Y-109234287D01*
X114561324Y-109237121D01*
X113801899Y-109237121D01*
X113734860Y-109217436D01*
X113714218Y-109200802D01*
X111899319Y-107385903D01*
X111865834Y-107324580D01*
X111863000Y-107298222D01*
X111863000Y-107030811D01*
X111875599Y-106976351D01*
X111876696Y-106974105D01*
X111876698Y-106974104D01*
X111928073Y-106869014D01*
X111938000Y-106800881D01*
X111938000Y-105434361D01*
X111936341Y-105422978D01*
X111928073Y-105366229D01*
X111928073Y-105366228D01*
X111876698Y-105261138D01*
X111876696Y-105261136D01*
X111876696Y-105261135D01*
X111876442Y-105260881D01*
X112457000Y-105260881D01*
X112466926Y-105329012D01*
X112518303Y-105434106D01*
X112601014Y-105516817D01*
X112601015Y-105516817D01*
X112601017Y-105516819D01*
X112706107Y-105568194D01*
X112740173Y-105573157D01*
X112774239Y-105578121D01*
X112774240Y-105578121D01*
X113148824Y-105578121D01*
X113215863Y-105597806D01*
X113236505Y-105614440D01*
X113443181Y-105821116D01*
X113476666Y-105882439D01*
X113479500Y-105908797D01*
X113479500Y-106655124D01*
X113470062Y-106702572D01*
X113466241Y-106711799D01*
X113443669Y-106766293D01*
X113429380Y-106874830D01*
X113424750Y-106910000D01*
X113439534Y-107022297D01*
X113443670Y-107053708D01*
X113443671Y-107053712D01*
X113499137Y-107187622D01*
X113499138Y-107187624D01*
X113499139Y-107187625D01*
X113587379Y-107302621D01*
X113702375Y-107390861D01*
X113836291Y-107446330D01*
X113963280Y-107463048D01*
X113979999Y-107465250D01*
X113980000Y-107465250D01*
X113980001Y-107465250D01*
X113994977Y-107463278D01*
X114123709Y-107446330D01*
X114257625Y-107390861D01*
X114372621Y-107302621D01*
X114460861Y-107187625D01*
X114516330Y-107053709D01*
X114535250Y-106910000D01*
X114516330Y-106766291D01*
X114489937Y-106702572D01*
X114480500Y-106655124D01*
X114480500Y-105584231D01*
X114480500Y-105584229D01*
X114446392Y-105456935D01*
X114446389Y-105456930D01*
X114443280Y-105449421D01*
X114444478Y-105448924D01*
X114429968Y-105389129D01*
X114442428Y-105340560D01*
X114448073Y-105329014D01*
X114458000Y-105260881D01*
X114458000Y-104994361D01*
X114448073Y-104926228D01*
X114396698Y-104821138D01*
X114396696Y-104821136D01*
X114396696Y-104821135D01*
X114313985Y-104738424D01*
X114208891Y-104687047D01*
X114140761Y-104677121D01*
X114140760Y-104677121D01*
X113711437Y-104677121D01*
X113658749Y-104663002D01*
X113658196Y-104664340D01*
X113650688Y-104661230D01*
X113650686Y-104661229D01*
X113523392Y-104627121D01*
X113391608Y-104627121D01*
X113264314Y-104661229D01*
X113256804Y-104664340D01*
X113256250Y-104663002D01*
X113203563Y-104677121D01*
X112774239Y-104677121D01*
X112706108Y-104687047D01*
X112601014Y-104738424D01*
X112518303Y-104821135D01*
X112466926Y-104926229D01*
X112457000Y-104994360D01*
X112457000Y-105260881D01*
X111876442Y-105260881D01*
X111793985Y-105178424D01*
X111688891Y-105127047D01*
X111620761Y-105117121D01*
X111620760Y-105117121D01*
X111485985Y-105117121D01*
X111418946Y-105097436D01*
X111387609Y-105068608D01*
X111365424Y-105039696D01*
X111240086Y-104943520D01*
X111094131Y-104883065D01*
X111037500Y-104875608D01*
X111037500Y-105422978D01*
X111037175Y-105431945D01*
X111037000Y-105434358D01*
X111037000Y-106800886D01*
X110638000Y-106800886D01*
X110638000Y-106371557D01*
X110652118Y-106318867D01*
X110650782Y-106318314D01*
X110653888Y-106310813D01*
X110653892Y-106310807D01*
X110688000Y-106183513D01*
X110688000Y-106051729D01*
X110653892Y-105924435D01*
X110653888Y-105924428D01*
X110650781Y-105916925D01*
X110652116Y-105916372D01*
X110638000Y-105863683D01*
X110638000Y-105434358D01*
X110637825Y-105431945D01*
X110637500Y-105422978D01*
X110637500Y-104875608D01*
X110580868Y-104883065D01*
X110434913Y-104943520D01*
X110309575Y-105039696D01*
X110287391Y-105068608D01*
X110230963Y-105109810D01*
X110189015Y-105117121D01*
X110054239Y-105117121D01*
X109986108Y-105127047D01*
X109881014Y-105178424D01*
X109798303Y-105261135D01*
X109746926Y-105366229D01*
X109737000Y-105434360D01*
X109737000Y-105493121D01*
X109717315Y-105560160D01*
X109664511Y-105605915D01*
X109613000Y-105617121D01*
X109269107Y-105617121D01*
X109141812Y-105651229D01*
X109027686Y-105717121D01*
X109027683Y-105717123D01*
X107954005Y-106790802D01*
X107892682Y-106824287D01*
X107866324Y-106827121D01*
X107645730Y-106827121D01*
X107615300Y-106829974D01*
X107615298Y-106829974D01*
X107487119Y-106874827D01*
X107487113Y-106874830D01*
X107381345Y-106952891D01*
X107315716Y-106976862D01*
X107307712Y-106977121D01*
X106226297Y-106977121D01*
X106159258Y-106957436D01*
X106138616Y-106940802D01*
X105077133Y-105879319D01*
X105043648Y-105817996D01*
X105048632Y-105748304D01*
X105053602Y-105736794D01*
X105131850Y-105578121D01*
X105183652Y-105473077D01*
X105278481Y-105193722D01*
X105336034Y-104904380D01*
X105350930Y-104677121D01*
X105355329Y-104610007D01*
X105355329Y-104609992D01*
X105336035Y-104315636D01*
X105336034Y-104315620D01*
X105278481Y-104026278D01*
X105183652Y-103746923D01*
X105165444Y-103710000D01*
X108344750Y-103710000D01*
X108363670Y-103853708D01*
X108363671Y-103853712D01*
X108419137Y-103987622D01*
X108419138Y-103987624D01*
X108419139Y-103987625D01*
X108507379Y-104102621D01*
X108622375Y-104190861D01*
X108756291Y-104246330D01*
X108883280Y-104263048D01*
X108899999Y-104265250D01*
X108900000Y-104265250D01*
X108900001Y-104265250D01*
X108935927Y-104260520D01*
X109043709Y-104246330D01*
X109107427Y-104219937D01*
X109154876Y-104210500D01*
X109670249Y-104210500D01*
X109737288Y-104230185D01*
X109781650Y-104280041D01*
X109798302Y-104314105D01*
X109881014Y-104396817D01*
X109881015Y-104396817D01*
X109881017Y-104396819D01*
X109986107Y-104448194D01*
X110020173Y-104453157D01*
X110054239Y-104458121D01*
X110054240Y-104458121D01*
X110320761Y-104458121D01*
X110343471Y-104454812D01*
X110388893Y-104448194D01*
X110493983Y-104396819D01*
X110576698Y-104314104D01*
X110628073Y-104209014D01*
X110638000Y-104140881D01*
X110638000Y-103711557D01*
X110652118Y-103658867D01*
X110650782Y-103658314D01*
X110653888Y-103650813D01*
X110653892Y-103650807D01*
X110688000Y-103523513D01*
X110688000Y-103391728D01*
X110653892Y-103264435D01*
X110653888Y-103264428D01*
X110650781Y-103256925D01*
X110652116Y-103256372D01*
X110638000Y-103203683D01*
X110638000Y-102774360D01*
X110628073Y-102706229D01*
X110624409Y-102698734D01*
X110576698Y-102601138D01*
X110576696Y-102601136D01*
X110576696Y-102601135D01*
X110493985Y-102518424D01*
X110388891Y-102467047D01*
X110320761Y-102457121D01*
X110320760Y-102457121D01*
X110054240Y-102457121D01*
X110054239Y-102457121D01*
X109986108Y-102467047D01*
X109881014Y-102518424D01*
X109798303Y-102601135D01*
X109746926Y-102706229D01*
X109737000Y-102774360D01*
X109737000Y-103085500D01*
X109717315Y-103152539D01*
X109664511Y-103198294D01*
X109613000Y-103209500D01*
X109154876Y-103209500D01*
X109107427Y-103200062D01*
X109043709Y-103173670D01*
X109043708Y-103173669D01*
X109043706Y-103173669D01*
X108900001Y-103154750D01*
X108899999Y-103154750D01*
X108756291Y-103173670D01*
X108756287Y-103173671D01*
X108622377Y-103229137D01*
X108507379Y-103317379D01*
X108419137Y-103432377D01*
X108363671Y-103566287D01*
X108363670Y-103566291D01*
X108344750Y-103709999D01*
X108344750Y-103710000D01*
X105165444Y-103710000D01*
X105053172Y-103482336D01*
X105051935Y-103480485D01*
X104968735Y-103355967D01*
X104889273Y-103237043D01*
X104808267Y-103144674D01*
X104694758Y-103015241D01*
X104472955Y-102820725D01*
X104227667Y-102656829D01*
X104227660Y-102656825D01*
X103963080Y-102526349D01*
X103683730Y-102431521D01*
X103683724Y-102431519D01*
X103683722Y-102431519D01*
X103394380Y-102373966D01*
X103394373Y-102373965D01*
X103394363Y-102373964D01*
X103100007Y-102354671D01*
X103099993Y-102354671D01*
X102805636Y-102373964D01*
X102805624Y-102373965D01*
X102805620Y-102373966D01*
X102805612Y-102373967D01*
X102805609Y-102373968D01*
X102516283Y-102431518D01*
X102516269Y-102431521D01*
X102236919Y-102526349D01*
X101972334Y-102656828D01*
X101727041Y-102820728D01*
X101505241Y-103015241D01*
X101310728Y-103237041D01*
X101146828Y-103482334D01*
X101016349Y-103746919D01*
X100921521Y-104026269D01*
X100921518Y-104026283D01*
X100863968Y-104315609D01*
X100863964Y-104315636D01*
X100844671Y-104609992D01*
X100844671Y-104610007D01*
X99650500Y-104610007D01*
X99650500Y-102000000D01*
X110834750Y-102000000D01*
X110845723Y-102083350D01*
X110853670Y-102143708D01*
X110853671Y-102143712D01*
X110909137Y-102277622D01*
X110909138Y-102277624D01*
X110909139Y-102277625D01*
X110997379Y-102392621D01*
X111034231Y-102420899D01*
X111063487Y-102443348D01*
X111104689Y-102499776D01*
X111112000Y-102541723D01*
X111112000Y-102544430D01*
X111099401Y-102598890D01*
X111046926Y-102706229D01*
X111037000Y-102774360D01*
X111037000Y-104140881D01*
X111046926Y-104209012D01*
X111098303Y-104314106D01*
X111181014Y-104396817D01*
X111181015Y-104396817D01*
X111181017Y-104396819D01*
X111286107Y-104448194D01*
X111320173Y-104453157D01*
X111354239Y-104458121D01*
X111354240Y-104458121D01*
X111620761Y-104458121D01*
X111643471Y-104454812D01*
X111688893Y-104448194D01*
X111793983Y-104396819D01*
X111876698Y-104314104D01*
X111928073Y-104209014D01*
X111938000Y-104140881D01*
X111938000Y-102774361D01*
X111928073Y-102706228D01*
X111876698Y-102601138D01*
X111876697Y-102601137D01*
X111875599Y-102598890D01*
X111863000Y-102544430D01*
X111863000Y-102321268D01*
X111872439Y-102273816D01*
X111891673Y-102227379D01*
X111926330Y-102143709D01*
X111945250Y-102000000D01*
X111926330Y-101856291D01*
X111891623Y-101772500D01*
X112795001Y-101772500D01*
X112795001Y-101821654D01*
X112805319Y-101922652D01*
X112859546Y-102086300D01*
X112859551Y-102086311D01*
X112950052Y-102233034D01*
X112950055Y-102233038D01*
X113071961Y-102354944D01*
X113071965Y-102354947D01*
X113218688Y-102445448D01*
X113218699Y-102445453D01*
X113382347Y-102499680D01*
X113483352Y-102509999D01*
X113520000Y-102509999D01*
X113520000Y-101772500D01*
X112795001Y-101772500D01*
X111891623Y-101772500D01*
X111870861Y-101722375D01*
X111782621Y-101607379D01*
X111667625Y-101519139D01*
X111667624Y-101519138D01*
X111667622Y-101519137D01*
X111533712Y-101463671D01*
X111533710Y-101463670D01*
X111533709Y-101463670D01*
X111461854Y-101454210D01*
X111390001Y-101444750D01*
X111389999Y-101444750D01*
X111246291Y-101463670D01*
X111246287Y-101463671D01*
X111112377Y-101519137D01*
X110997379Y-101607379D01*
X110909137Y-101722377D01*
X110853671Y-101856287D01*
X110853670Y-101856291D01*
X110837501Y-101979108D01*
X110834750Y-102000000D01*
X99650500Y-102000000D01*
X99650500Y-101585174D01*
X99670185Y-101518135D01*
X99722989Y-101472380D01*
X99792147Y-101462436D01*
X99848814Y-101485910D01*
X99852669Y-101488796D01*
X99852670Y-101488796D01*
X99852671Y-101488797D01*
X99987517Y-101539091D01*
X99987516Y-101539091D01*
X99994444Y-101539835D01*
X100047127Y-101545500D01*
X101092872Y-101545499D01*
X101152483Y-101539091D01*
X101287331Y-101488796D01*
X101402546Y-101402546D01*
X101462648Y-101322260D01*
X101488794Y-101287334D01*
X101493044Y-101279551D01*
X101494518Y-101280356D01*
X101530166Y-101232734D01*
X101595630Y-101208316D01*
X101604479Y-101208000D01*
X102328390Y-101208000D01*
X102328392Y-101208000D01*
X102455686Y-101173892D01*
X102569814Y-101108000D01*
X102624569Y-101053244D01*
X102685889Y-101019760D01*
X102725501Y-101017637D01*
X102752127Y-101020500D01*
X104147872Y-101020499D01*
X104207483Y-101014091D01*
X104342331Y-100963796D01*
X104457546Y-100877546D01*
X104543796Y-100762331D01*
X104594091Y-100627483D01*
X104600500Y-100567873D01*
X104600500Y-100472500D01*
X105385000Y-100472500D01*
X105385000Y-100520344D01*
X105391401Y-100579872D01*
X105391403Y-100579879D01*
X105441645Y-100714586D01*
X105441649Y-100714593D01*
X105527809Y-100829687D01*
X105527812Y-100829690D01*
X105642906Y-100915850D01*
X105642913Y-100915854D01*
X105777620Y-100966096D01*
X105777627Y-100966098D01*
X105837155Y-100972499D01*
X105837172Y-100972500D01*
X106385000Y-100972500D01*
X106385000Y-100472500D01*
X106835000Y-100472500D01*
X106835000Y-100972500D01*
X107382828Y-100972500D01*
X107382844Y-100972499D01*
X107442372Y-100966098D01*
X107442379Y-100966096D01*
X107577086Y-100915854D01*
X107577093Y-100915850D01*
X107692187Y-100829690D01*
X107692190Y-100829687D01*
X107778350Y-100714593D01*
X107778354Y-100714586D01*
X107828596Y-100579879D01*
X107828598Y-100579872D01*
X107834999Y-100520344D01*
X107835000Y-100520327D01*
X107835000Y-100472500D01*
X109785000Y-100472500D01*
X109785000Y-100520344D01*
X109791401Y-100579872D01*
X109791403Y-100579879D01*
X109841645Y-100714586D01*
X109841649Y-100714593D01*
X109927809Y-100829687D01*
X109927812Y-100829690D01*
X110042906Y-100915850D01*
X110042913Y-100915854D01*
X110177620Y-100966096D01*
X110177627Y-100966098D01*
X110237155Y-100972499D01*
X110237172Y-100972500D01*
X110785000Y-100972500D01*
X110785000Y-100472500D01*
X111235000Y-100472500D01*
X111235000Y-100972500D01*
X111782828Y-100972500D01*
X111782844Y-100972499D01*
X111842372Y-100966098D01*
X111842379Y-100966096D01*
X111977086Y-100915854D01*
X111977093Y-100915850D01*
X112092187Y-100829690D01*
X112092190Y-100829687D01*
X112178350Y-100714593D01*
X112178354Y-100714586D01*
X112228596Y-100579879D01*
X112228598Y-100579872D01*
X112234999Y-100520344D01*
X112235000Y-100520327D01*
X112235000Y-100472500D01*
X111235000Y-100472500D01*
X110785000Y-100472500D01*
X109785000Y-100472500D01*
X107835000Y-100472500D01*
X106835000Y-100472500D01*
X106385000Y-100472500D01*
X105385000Y-100472500D01*
X104600500Y-100472500D01*
X104600500Y-100097000D01*
X104620185Y-100029961D01*
X104672989Y-99984206D01*
X104724500Y-99973000D01*
X105284138Y-99973000D01*
X105351177Y-99992685D01*
X105371819Y-100009319D01*
X105385000Y-100022500D01*
X105695817Y-100022500D01*
X105762856Y-100042185D01*
X105764706Y-100043397D01*
X105787259Y-100058466D01*
X105860323Y-100073000D01*
X105860326Y-100073000D01*
X107359676Y-100073000D01*
X107432740Y-100058466D01*
X107455294Y-100043397D01*
X107521972Y-100022520D01*
X107524183Y-100022500D01*
X107835000Y-100022500D01*
X107835000Y-99974672D01*
X107834999Y-99974655D01*
X107828598Y-99915127D01*
X107828596Y-99915120D01*
X107778354Y-99780413D01*
X107778350Y-99780406D01*
X107692191Y-99665314D01*
X107692185Y-99665307D01*
X107635188Y-99622639D01*
X107593318Y-99566705D01*
X107585500Y-99523373D01*
X107585500Y-99347826D01*
X107575328Y-99296688D01*
X107575328Y-99248311D01*
X107585500Y-99197174D01*
X107585500Y-98697826D01*
X107575328Y-98646688D01*
X107575328Y-98598311D01*
X107585500Y-98547174D01*
X107585500Y-98047826D01*
X107585500Y-98047823D01*
X107585499Y-98047821D01*
X107570967Y-97974764D01*
X107570966Y-97974760D01*
X107562903Y-97962693D01*
X107515601Y-97891899D01*
X107438495Y-97840379D01*
X107432739Y-97836533D01*
X107432737Y-97836532D01*
X107413596Y-97832725D01*
X107351685Y-97800338D01*
X107317113Y-97739621D01*
X107320854Y-97669852D01*
X107350104Y-97623432D01*
X107544221Y-97429316D01*
X107605543Y-97395834D01*
X107631900Y-97393000D01*
X108071674Y-97393000D01*
X108071690Y-97392999D01*
X108129799Y-97386751D01*
X108138960Y-97383334D01*
X108261278Y-97337712D01*
X108373616Y-97253616D01*
X108457712Y-97141278D01*
X108506751Y-97009799D01*
X108508846Y-96990314D01*
X108512999Y-96951690D01*
X108513000Y-96951673D01*
X108513000Y-96383326D01*
X108512999Y-96383309D01*
X108506751Y-96325200D01*
X108476840Y-96245007D01*
X108457712Y-96193722D01*
X108457710Y-96193719D01*
X108455515Y-96187834D01*
X108450531Y-96118143D01*
X108484015Y-96056819D01*
X108545338Y-96023334D01*
X108571697Y-96020500D01*
X108585890Y-96020500D01*
X108585892Y-96020500D01*
X108713186Y-95986392D01*
X108822421Y-95923324D01*
X108866063Y-95912736D01*
X108883435Y-95866161D01*
X108895008Y-95852804D01*
X109245995Y-95501817D01*
X109307318Y-95468333D01*
X109333676Y-95465499D01*
X109800007Y-95465499D01*
X109800007Y-95465498D01*
X109896715Y-95450182D01*
X110013281Y-95390789D01*
X110105789Y-95298281D01*
X110108935Y-95292105D01*
X110156906Y-95241310D01*
X110224726Y-95224513D01*
X110290862Y-95247048D01*
X110334315Y-95301761D01*
X110335602Y-95305066D01*
X110381202Y-95427328D01*
X110381206Y-95427335D01*
X110467452Y-95542544D01*
X110467455Y-95542547D01*
X110582664Y-95628793D01*
X110582671Y-95628797D01*
X110617301Y-95641713D01*
X110717517Y-95679091D01*
X110777127Y-95685500D01*
X110800497Y-95685499D01*
X110867536Y-95705181D01*
X110913292Y-95757983D01*
X110924500Y-95809499D01*
X110924500Y-96319435D01*
X110950090Y-96414938D01*
X110950091Y-96414939D01*
X110950091Y-96414940D01*
X110958461Y-96429438D01*
X110998745Y-96499211D01*
X110999526Y-96500563D01*
X111729525Y-97230562D01*
X111799438Y-97300475D01*
X111885062Y-97349910D01*
X111909022Y-97356330D01*
X111980564Y-97375500D01*
X111980565Y-97375500D01*
X112494055Y-97375500D01*
X112561094Y-97395185D01*
X112606849Y-97447989D01*
X112616793Y-97517147D01*
X112604541Y-97555789D01*
X112552319Y-97658283D01*
X112552316Y-97658289D01*
X112537000Y-97754996D01*
X112537000Y-97863823D01*
X112517315Y-97930862D01*
X112500685Y-97951499D01*
X112432685Y-98019500D01*
X112366317Y-98085868D01*
X112326089Y-98112747D01*
X112262378Y-98139137D01*
X112262375Y-98139138D01*
X112262375Y-98139139D01*
X112184984Y-98198522D01*
X112119818Y-98223716D01*
X112051373Y-98209678D01*
X112001383Y-98160864D01*
X111985500Y-98100146D01*
X111985500Y-98047823D01*
X111985499Y-98047821D01*
X111970967Y-97974764D01*
X111970966Y-97974760D01*
X111962903Y-97962693D01*
X111915601Y-97891899D01*
X111838495Y-97840379D01*
X111832739Y-97836533D01*
X111832735Y-97836532D01*
X111759677Y-97822000D01*
X111759674Y-97822000D01*
X111116899Y-97822000D01*
X111049860Y-97802315D01*
X111029218Y-97785681D01*
X110365661Y-97122124D01*
X110332176Y-97060801D01*
X110332560Y-97017686D01*
X110330922Y-97017510D01*
X110337999Y-96951690D01*
X110338000Y-96951673D01*
X110338000Y-96383326D01*
X110337999Y-96383309D01*
X110331751Y-96325200D01*
X110301840Y-96245007D01*
X110282712Y-96193722D01*
X110282708Y-96193717D01*
X110266118Y-96171555D01*
X110198616Y-96081384D01*
X110121071Y-96023334D01*
X110086280Y-95997289D01*
X110086278Y-95997288D01*
X110057057Y-95986389D01*
X109954799Y-95948248D01*
X109896690Y-95942000D01*
X109896674Y-95942000D01*
X109303326Y-95942000D01*
X109303309Y-95942000D01*
X109245200Y-95948248D01*
X109142935Y-95986392D01*
X109113722Y-95997288D01*
X109113721Y-95997288D01*
X109113720Y-95997289D01*
X109057012Y-96039740D01*
X109003784Y-96059591D01*
X108983688Y-96105021D01*
X108917290Y-96193717D01*
X108868248Y-96325200D01*
X108862000Y-96383309D01*
X108862000Y-96951690D01*
X108868248Y-97009799D01*
X108917289Y-97141280D01*
X108942774Y-97175323D01*
X109001384Y-97253616D01*
X109113722Y-97337712D01*
X109200287Y-97369999D01*
X109245200Y-97386751D01*
X109303309Y-97392999D01*
X109303326Y-97393000D01*
X109523101Y-97393000D01*
X109590140Y-97412685D01*
X109610782Y-97429319D01*
X110021842Y-97840379D01*
X110055327Y-97901702D01*
X110050965Y-97962693D01*
X110051416Y-97962783D01*
X110050702Y-97966371D01*
X110050343Y-97971394D01*
X110049049Y-97974680D01*
X110034500Y-98047823D01*
X110034500Y-98448000D01*
X110014815Y-98515039D01*
X109962011Y-98560794D01*
X109910500Y-98572000D01*
X109573064Y-98572000D01*
X109477563Y-98597589D01*
X109477560Y-98597590D01*
X109391940Y-98647022D01*
X109391935Y-98647026D01*
X109292644Y-98746316D01*
X109231321Y-98779800D01*
X109221150Y-98781573D01*
X109129193Y-98793680D01*
X109091291Y-98798670D01*
X109091290Y-98798670D01*
X109091287Y-98798671D01*
X108957377Y-98854137D01*
X108842379Y-98942379D01*
X108754137Y-99057377D01*
X108698671Y-99191287D01*
X108698670Y-99191291D01*
X108680310Y-99330750D01*
X108679750Y-99335000D01*
X108696745Y-99464091D01*
X108698670Y-99478708D01*
X108698671Y-99478712D01*
X108754137Y-99612622D01*
X108754138Y-99612624D01*
X108754139Y-99612625D01*
X108842379Y-99727621D01*
X108957375Y-99815861D01*
X108957376Y-99815861D01*
X108957377Y-99815862D01*
X109002013Y-99834350D01*
X109091291Y-99871330D01*
X109218280Y-99888048D01*
X109234999Y-99890250D01*
X109235000Y-99890250D01*
X109235001Y-99890250D01*
X109249977Y-99888278D01*
X109378709Y-99871330D01*
X109512625Y-99815861D01*
X109612481Y-99739238D01*
X109677648Y-99714044D01*
X109746093Y-99728082D01*
X109796083Y-99776895D01*
X109811747Y-99844986D01*
X109804149Y-99880945D01*
X109791403Y-99915120D01*
X109791401Y-99915127D01*
X109785000Y-99974655D01*
X109785000Y-100022500D01*
X110095817Y-100022500D01*
X110162856Y-100042185D01*
X110164706Y-100043397D01*
X110187259Y-100058466D01*
X110260323Y-100073000D01*
X110260326Y-100073000D01*
X111759676Y-100073000D01*
X111832740Y-100058466D01*
X111855294Y-100043397D01*
X111921972Y-100022520D01*
X111924183Y-100022500D01*
X112235000Y-100022500D01*
X112248181Y-100009319D01*
X112309504Y-99975834D01*
X112335862Y-99973000D01*
X112772298Y-99973000D01*
X112839337Y-99992685D01*
X112846503Y-99997723D01*
X112846935Y-99997972D01*
X112846938Y-99997975D01*
X112923512Y-100042185D01*
X112932562Y-100047410D01*
X112980310Y-100060205D01*
X113000095Y-100065506D01*
X113059756Y-100101869D01*
X113084185Y-100141946D01*
X113099788Y-100183778D01*
X113183884Y-100296116D01*
X113204861Y-100311819D01*
X113285455Y-100372153D01*
X113327326Y-100428087D01*
X113332310Y-100497778D01*
X113298824Y-100559101D01*
X113250150Y-100589124D01*
X113218703Y-100599545D01*
X113218688Y-100599551D01*
X113071965Y-100690052D01*
X113071961Y-100690055D01*
X112950055Y-100811961D01*
X112950052Y-100811965D01*
X112859551Y-100958688D01*
X112859546Y-100958699D01*
X112805319Y-101122347D01*
X112795000Y-101223345D01*
X112795000Y-101272500D01*
X113896000Y-101272500D01*
X113963039Y-101292185D01*
X114008794Y-101344989D01*
X114020000Y-101396500D01*
X114020000Y-102509999D01*
X114056640Y-102509999D01*
X114056654Y-102509998D01*
X114157650Y-102499681D01*
X114176765Y-102493347D01*
X114246594Y-102490945D01*
X114306636Y-102526676D01*
X114337829Y-102589196D01*
X114330269Y-102658656D01*
X114303451Y-102698734D01*
X113711384Y-103290802D01*
X113650061Y-103324287D01*
X113623703Y-103327121D01*
X113391608Y-103327121D01*
X113264314Y-103361229D01*
X113256804Y-103364340D01*
X113256250Y-103363002D01*
X113203563Y-103377121D01*
X112774239Y-103377121D01*
X112706108Y-103387047D01*
X112601014Y-103438424D01*
X112518303Y-103521135D01*
X112466926Y-103626229D01*
X112457000Y-103694360D01*
X112457000Y-103960881D01*
X112466926Y-104029012D01*
X112518303Y-104134106D01*
X112601014Y-104216817D01*
X112601015Y-104216817D01*
X112601017Y-104216819D01*
X112706107Y-104268194D01*
X112740173Y-104273157D01*
X112774239Y-104278121D01*
X112774240Y-104278121D01*
X113203563Y-104278121D01*
X113256250Y-104292239D01*
X113256804Y-104290902D01*
X113264307Y-104294009D01*
X113264314Y-104294013D01*
X113391608Y-104328121D01*
X113391610Y-104328121D01*
X113948269Y-104328121D01*
X113948271Y-104328121D01*
X114075565Y-104294013D01*
X114075573Y-104294008D01*
X114083075Y-104290902D01*
X114083628Y-104292239D01*
X114136316Y-104278121D01*
X114140761Y-104278121D01*
X114163471Y-104274812D01*
X114208893Y-104268194D01*
X114313983Y-104216819D01*
X114396698Y-104134104D01*
X114448073Y-104029014D01*
X114452250Y-104000341D01*
X114481393Y-103936844D01*
X114487259Y-103930554D01*
X114922963Y-103494849D01*
X114984286Y-103461365D01*
X115053978Y-103466349D01*
X115109911Y-103508221D01*
X115134328Y-103573685D01*
X115129118Y-103619135D01*
X115126926Y-103626227D01*
X115117000Y-103694360D01*
X115117000Y-103829135D01*
X115097315Y-103896174D01*
X115068487Y-103927510D01*
X115039578Y-103949692D01*
X114943399Y-104075034D01*
X114882944Y-104220989D01*
X114875487Y-104277621D01*
X115422858Y-104277621D01*
X115431826Y-104277946D01*
X115434239Y-104278121D01*
X115434240Y-104278121D01*
X115863563Y-104278121D01*
X115916250Y-104292239D01*
X115916804Y-104290902D01*
X115924307Y-104294009D01*
X115924314Y-104294013D01*
X116051608Y-104328121D01*
X116051610Y-104328121D01*
X116183390Y-104328121D01*
X116183392Y-104328121D01*
X116310686Y-104294013D01*
X116310694Y-104294008D01*
X116318196Y-104290902D01*
X116318749Y-104292239D01*
X116371437Y-104278121D01*
X116800761Y-104278121D01*
X116803174Y-104277946D01*
X116812142Y-104277621D01*
X117359510Y-104277621D01*
X117359511Y-104277619D01*
X117352057Y-104220993D01*
X117352055Y-104220987D01*
X117291600Y-104075035D01*
X117195421Y-103949692D01*
X117166513Y-103927510D01*
X117125311Y-103871082D01*
X117118000Y-103829135D01*
X117118000Y-103694360D01*
X117108073Y-103626229D01*
X117108073Y-103626228D01*
X117056698Y-103521138D01*
X117056696Y-103521136D01*
X117056696Y-103521135D01*
X116973985Y-103438424D01*
X116961611Y-103432375D01*
X116868893Y-103387048D01*
X116868891Y-103387047D01*
X116800761Y-103377121D01*
X116800760Y-103377121D01*
X116742000Y-103377121D01*
X116674961Y-103357436D01*
X116629206Y-103304632D01*
X116618000Y-103253121D01*
X116618000Y-103144678D01*
X120379500Y-103144678D01*
X120394032Y-103217735D01*
X120394033Y-103217739D01*
X120394034Y-103217740D01*
X120449399Y-103300601D01*
X120489090Y-103327121D01*
X120532260Y-103355966D01*
X120532264Y-103355967D01*
X120605321Y-103370499D01*
X120605324Y-103370500D01*
X120605326Y-103370500D01*
X122354676Y-103370500D01*
X122354677Y-103370499D01*
X122427740Y-103355966D01*
X122510601Y-103300601D01*
X122565966Y-103217740D01*
X122580500Y-103144674D01*
X122580500Y-101395326D01*
X122580500Y-101395323D01*
X122580499Y-101395321D01*
X122565967Y-101322264D01*
X122565966Y-101322260D01*
X122545871Y-101292185D01*
X122510601Y-101239399D01*
X122427740Y-101184034D01*
X122427739Y-101184033D01*
X122427735Y-101184032D01*
X122354677Y-101169500D01*
X122354674Y-101169500D01*
X120605326Y-101169500D01*
X120605323Y-101169500D01*
X120532264Y-101184032D01*
X120532260Y-101184033D01*
X120449399Y-101239399D01*
X120394033Y-101322260D01*
X120394032Y-101322264D01*
X120379500Y-101395321D01*
X120379500Y-103144678D01*
X116618000Y-103144678D01*
X116618000Y-101979109D01*
X116618000Y-101979108D01*
X116610887Y-101952563D01*
X116583892Y-101851814D01*
X116517999Y-101737685D01*
X114940494Y-100160180D01*
X114907009Y-100098857D01*
X114911993Y-100029165D01*
X114940494Y-99984818D01*
X116363494Y-98561818D01*
X116424817Y-98528333D01*
X116451175Y-98525499D01*
X116917507Y-98525499D01*
X116917507Y-98525498D01*
X117014215Y-98510182D01*
X117130781Y-98450789D01*
X117199964Y-98381606D01*
X118194500Y-98381606D01*
X118207706Y-98448000D01*
X118218537Y-98502453D01*
X118228083Y-98525499D01*
X118228084Y-98525501D01*
X118265684Y-98616278D01*
X118265691Y-98616292D01*
X118274518Y-98629501D01*
X118274520Y-98629503D01*
X118334141Y-98718732D01*
X118334144Y-98718736D01*
X118425586Y-98810178D01*
X118425608Y-98810198D01*
X119741016Y-100125606D01*
X119741045Y-100125637D01*
X119831264Y-100215856D01*
X119831267Y-100215858D01*
X119882490Y-100250084D01*
X119933714Y-100284312D01*
X120000128Y-100311821D01*
X120047548Y-100331463D01*
X120107971Y-100343481D01*
X120168393Y-100355500D01*
X120168394Y-100355500D01*
X120511567Y-100355500D01*
X120578606Y-100375185D01*
X120610521Y-100404773D01*
X120663237Y-100474581D01*
X120813958Y-100611980D01*
X120813960Y-100611982D01*
X120913141Y-100673392D01*
X120987363Y-100719348D01*
X121177544Y-100793024D01*
X121378024Y-100830500D01*
X121378026Y-100830500D01*
X121581974Y-100830500D01*
X121581976Y-100830500D01*
X121782456Y-100793024D01*
X121972637Y-100719348D01*
X122146041Y-100611981D01*
X122296764Y-100474579D01*
X122419673Y-100311821D01*
X122510582Y-100129250D01*
X122566397Y-99933083D01*
X122585215Y-99730000D01*
X122584994Y-99727620D01*
X122566397Y-99526917D01*
X122550345Y-99470500D01*
X122510582Y-99330750D01*
X122508987Y-99327547D01*
X122451064Y-99211222D01*
X122419673Y-99148179D01*
X122318035Y-99013588D01*
X122296762Y-98985418D01*
X122146041Y-98848019D01*
X122146039Y-98848017D01*
X121972642Y-98740655D01*
X121972635Y-98740651D01*
X121891715Y-98709303D01*
X121836313Y-98666730D01*
X121812723Y-98600963D01*
X121828434Y-98532883D01*
X121878458Y-98484104D01*
X121904417Y-98473901D01*
X121943481Y-98463434D01*
X121943492Y-98463429D01*
X122157578Y-98363600D01*
X122351082Y-98228105D01*
X122518105Y-98061082D01*
X122653600Y-97867578D01*
X122753429Y-97653492D01*
X122753432Y-97653486D01*
X122810636Y-97440000D01*
X121913012Y-97440000D01*
X121945925Y-97382993D01*
X121980000Y-97255826D01*
X121980000Y-97124174D01*
X121945925Y-96997007D01*
X121913012Y-96940000D01*
X122810636Y-96940000D01*
X122810635Y-96939999D01*
X122753432Y-96726513D01*
X122753429Y-96726507D01*
X122653600Y-96512422D01*
X122653599Y-96512420D01*
X122518113Y-96318926D01*
X122518108Y-96318920D01*
X122351082Y-96151894D01*
X122157578Y-96016399D01*
X121943492Y-95916570D01*
X121943486Y-95916567D01*
X121730000Y-95859364D01*
X121730000Y-96756988D01*
X121672993Y-96724075D01*
X121545826Y-96690000D01*
X121414174Y-96690000D01*
X121287007Y-96724075D01*
X121230000Y-96756988D01*
X121230000Y-95859364D01*
X121229999Y-95859364D01*
X121016513Y-95916567D01*
X121016507Y-95916570D01*
X120802422Y-96016399D01*
X120802420Y-96016400D01*
X120608926Y-96151886D01*
X120608920Y-96151891D01*
X120441891Y-96318920D01*
X120441886Y-96318926D01*
X120306400Y-96512420D01*
X120306399Y-96512422D01*
X120206570Y-96726507D01*
X120206567Y-96726513D01*
X120149364Y-96939999D01*
X120149364Y-96940000D01*
X121046988Y-96940000D01*
X121014075Y-96997007D01*
X120980000Y-97124174D01*
X120980000Y-97255826D01*
X121014075Y-97382993D01*
X121046988Y-97440000D01*
X120149364Y-97440000D01*
X120206567Y-97653486D01*
X120206570Y-97653492D01*
X120306399Y-97867578D01*
X120441894Y-98061082D01*
X120608917Y-98228105D01*
X120802421Y-98363600D01*
X121016507Y-98463429D01*
X121016516Y-98463433D01*
X121055583Y-98473901D01*
X121115244Y-98510266D01*
X121145773Y-98573113D01*
X121137479Y-98642488D01*
X121092993Y-98696366D01*
X121068284Y-98709302D01*
X120987373Y-98740647D01*
X120987357Y-98740655D01*
X120813960Y-98848017D01*
X120813958Y-98848019D01*
X120663236Y-98985419D01*
X120663236Y-98985420D01*
X120622947Y-99038770D01*
X120566837Y-99080405D01*
X120497125Y-99085096D01*
X120436313Y-99051723D01*
X119481819Y-98097229D01*
X119448334Y-98035906D01*
X119445500Y-98009548D01*
X119445500Y-95890451D01*
X119465185Y-95823412D01*
X119481814Y-95802775D01*
X121009074Y-94275514D01*
X121070395Y-94242031D01*
X121140087Y-94247015D01*
X121151593Y-94251983D01*
X121296923Y-94323652D01*
X121576278Y-94418481D01*
X121865620Y-94476034D01*
X121893143Y-94477838D01*
X122159993Y-94495329D01*
X122160000Y-94495329D01*
X122160007Y-94495329D01*
X122395675Y-94479881D01*
X122454380Y-94476034D01*
X122743722Y-94418481D01*
X123023077Y-94323652D01*
X123287665Y-94193172D01*
X123532957Y-94029273D01*
X123754758Y-93834758D01*
X123949273Y-93612957D01*
X124113172Y-93367665D01*
X124243652Y-93103077D01*
X124338481Y-92823722D01*
X124396034Y-92534380D01*
X124399881Y-92475675D01*
X124415329Y-92240007D01*
X124415329Y-92239992D01*
X124396035Y-91945636D01*
X124396034Y-91945620D01*
X124338481Y-91656278D01*
X124243652Y-91376923D01*
X124113172Y-91112336D01*
X124111083Y-91109210D01*
X124057524Y-91029053D01*
X123949273Y-90867043D01*
X123895991Y-90806287D01*
X123754758Y-90645241D01*
X123532955Y-90450725D01*
X123287667Y-90286829D01*
X123287660Y-90286825D01*
X123023080Y-90156349D01*
X122743730Y-90061521D01*
X122743724Y-90061519D01*
X122743722Y-90061519D01*
X122454380Y-90003966D01*
X122454373Y-90003965D01*
X122454363Y-90003964D01*
X122160007Y-89984671D01*
X122159993Y-89984671D01*
X121865636Y-90003964D01*
X121865624Y-90003965D01*
X121865620Y-90003966D01*
X121865612Y-90003967D01*
X121865609Y-90003968D01*
X121576283Y-90061518D01*
X121576269Y-90061521D01*
X121296919Y-90156349D01*
X121032334Y-90286828D01*
X120787041Y-90450728D01*
X120565241Y-90645241D01*
X120370728Y-90867041D01*
X120206828Y-91112334D01*
X120076349Y-91376919D01*
X119981521Y-91656269D01*
X119981518Y-91656283D01*
X119923968Y-91945609D01*
X119923964Y-91945636D01*
X119904671Y-92239992D01*
X119904671Y-92240007D01*
X119923964Y-92534363D01*
X119923965Y-92534373D01*
X119923966Y-92534380D01*
X119923968Y-92534390D01*
X119981518Y-92823716D01*
X119981521Y-92823730D01*
X120076349Y-93103080D01*
X120148013Y-93248401D01*
X120160009Y-93317234D01*
X120132888Y-93381624D01*
X120124482Y-93390926D01*
X119268394Y-94247015D01*
X118421270Y-95094139D01*
X118421267Y-95094142D01*
X118395530Y-95119879D01*
X118334140Y-95181268D01*
X118308581Y-95219522D01*
X118308579Y-95219525D01*
X118265690Y-95283710D01*
X118265685Y-95283719D01*
X118233131Y-95362315D01*
X118233130Y-95362317D01*
X118218539Y-95397539D01*
X118218538Y-95397544D01*
X118218537Y-95397547D01*
X118218537Y-95397548D01*
X118194500Y-95518394D01*
X118194500Y-98381606D01*
X117199964Y-98381606D01*
X117223289Y-98358281D01*
X117282682Y-98241715D01*
X117298000Y-98145003D01*
X117297999Y-97754998D01*
X117297999Y-97754996D01*
X117297999Y-97754992D01*
X117284514Y-97669852D01*
X117282682Y-97658285D01*
X117230256Y-97555393D01*
X117217361Y-97486727D01*
X117243637Y-97421987D01*
X117300743Y-97381729D01*
X117341872Y-97377657D01*
X117341872Y-97375250D01*
X117350001Y-97375250D01*
X117364977Y-97373278D01*
X117493709Y-97356330D01*
X117627625Y-97300861D01*
X117742621Y-97212621D01*
X117830861Y-97097625D01*
X117886330Y-96963709D01*
X117905250Y-96820000D01*
X117897025Y-96757527D01*
X117900218Y-96709144D01*
X117900449Y-96708285D01*
X117905500Y-96689436D01*
X117905500Y-96590564D01*
X117905500Y-94620565D01*
X117899530Y-94598285D01*
X117879911Y-94525063D01*
X117862744Y-94495329D01*
X117830477Y-94439440D01*
X117830473Y-94439435D01*
X117613830Y-94222792D01*
X117383932Y-93992895D01*
X117350448Y-93931573D01*
X117355432Y-93861882D01*
X117361122Y-93848934D01*
X117385182Y-93801715D01*
X117400500Y-93705003D01*
X117400499Y-93314998D01*
X117400499Y-93314997D01*
X117400117Y-93310147D01*
X117402076Y-93309992D01*
X117409939Y-93248951D01*
X117435797Y-93211118D01*
X117512837Y-93134078D01*
X117596072Y-92996392D01*
X117643932Y-92842802D01*
X117643935Y-92842792D01*
X117646914Y-92810000D01*
X115093085Y-92810000D01*
X115096064Y-92842792D01*
X115096067Y-92842802D01*
X115143927Y-92996392D01*
X115227163Y-93134080D01*
X115304200Y-93211117D01*
X115337685Y-93272440D01*
X115338766Y-93310046D01*
X115339882Y-93310134D01*
X115339500Y-93314990D01*
X115339500Y-93705007D01*
X115354817Y-93801713D01*
X115354817Y-93801714D01*
X115371168Y-93833804D01*
X115414211Y-93918281D01*
X115414213Y-93918283D01*
X115414215Y-93918286D01*
X115506713Y-94010784D01*
X115506716Y-94010786D01*
X115506719Y-94010789D01*
X115623285Y-94070182D01*
X115623286Y-94070182D01*
X115623288Y-94070183D01*
X115623287Y-94070183D01*
X115661318Y-94076206D01*
X115719997Y-94085500D01*
X116363100Y-94085499D01*
X116430139Y-94105183D01*
X116450781Y-94121818D01*
X117118181Y-94789218D01*
X117151666Y-94850541D01*
X117154500Y-94876899D01*
X117154500Y-95109650D01*
X117134815Y-95176689D01*
X117082011Y-95222444D01*
X117012853Y-95232388D01*
X117006317Y-95231269D01*
X117005298Y-95231066D01*
X116938543Y-95225000D01*
X116517500Y-95225000D01*
X116517500Y-96176000D01*
X116497815Y-96243039D01*
X116445011Y-96288794D01*
X116393500Y-96300000D01*
X114990585Y-96300000D01*
X114993564Y-96332792D01*
X114993567Y-96332802D01*
X115034328Y-96463610D01*
X115035480Y-96533470D01*
X114998679Y-96592862D01*
X114935610Y-96622930D01*
X114915943Y-96624500D01*
X114640945Y-96624500D01*
X114573906Y-96604815D01*
X114528151Y-96552011D01*
X114518207Y-96482853D01*
X114530458Y-96444210D01*
X114582682Y-96341715D01*
X114584568Y-96329811D01*
X114592237Y-96281386D01*
X114598000Y-96245003D01*
X114597999Y-95948010D01*
X114617683Y-95880972D01*
X114637710Y-95859205D01*
X114636874Y-95858369D01*
X114642619Y-95852623D01*
X114642621Y-95852621D01*
X114682999Y-95800000D01*
X114990585Y-95800000D01*
X116017500Y-95800000D01*
X116017500Y-95225000D01*
X115596457Y-95225000D01*
X115529707Y-95231065D01*
X115376103Y-95278929D01*
X115238419Y-95362163D01*
X115124663Y-95475919D01*
X115041428Y-95613606D01*
X115027420Y-95658559D01*
X115019268Y-95670795D01*
X115019957Y-95674612D01*
X115015053Y-95698248D01*
X114993565Y-95767205D01*
X114993564Y-95767207D01*
X114990585Y-95799999D01*
X114990585Y-95800000D01*
X114682999Y-95800000D01*
X114730861Y-95737625D01*
X114782106Y-95613905D01*
X114785813Y-95609304D01*
X114786096Y-95605482D01*
X114786329Y-95603711D01*
X114786330Y-95603709D01*
X114805250Y-95460000D01*
X114786330Y-95316291D01*
X114730861Y-95182375D01*
X114642621Y-95067379D01*
X114527625Y-94979139D01*
X114527624Y-94979138D01*
X114527622Y-94979137D01*
X114393712Y-94923671D01*
X114393710Y-94923670D01*
X114393709Y-94923670D01*
X114299455Y-94911261D01*
X114250001Y-94904750D01*
X114249999Y-94904750D01*
X114106291Y-94923670D01*
X114106287Y-94923671D01*
X113972377Y-94979137D01*
X113857379Y-95067379D01*
X113769137Y-95182377D01*
X113713671Y-95316287D01*
X113713670Y-95316291D01*
X113707035Y-95366687D01*
X113678768Y-95430583D01*
X113620443Y-95469053D01*
X113584096Y-95474500D01*
X112917492Y-95474500D01*
X112917492Y-95474501D01*
X112820786Y-95489817D01*
X112820785Y-95489817D01*
X112764701Y-95518394D01*
X112704219Y-95549211D01*
X112704218Y-95549212D01*
X112704213Y-95549215D01*
X112611715Y-95641713D01*
X112611710Y-95641720D01*
X112552316Y-95758288D01*
X112537000Y-95854996D01*
X112537000Y-96245007D01*
X112552317Y-96341713D01*
X112552318Y-96341716D01*
X112567587Y-96371682D01*
X112604539Y-96444205D01*
X112617436Y-96512874D01*
X112591160Y-96577614D01*
X112534054Y-96617872D01*
X112494055Y-96624500D01*
X112236899Y-96624500D01*
X112169860Y-96604815D01*
X112149218Y-96588181D01*
X111711819Y-96150782D01*
X111678334Y-96089459D01*
X111675500Y-96063101D01*
X111675500Y-95809499D01*
X111695185Y-95742460D01*
X111747989Y-95696705D01*
X111799500Y-95685499D01*
X111822871Y-95685499D01*
X111822872Y-95685499D01*
X111882483Y-95679091D01*
X112017331Y-95628796D01*
X112132546Y-95542546D01*
X112218796Y-95427331D01*
X112269091Y-95292483D01*
X112275500Y-95232873D01*
X112275499Y-94462128D01*
X112269091Y-94402517D01*
X112264128Y-94389211D01*
X112218797Y-94267671D01*
X112218793Y-94267664D01*
X112132547Y-94152455D01*
X112132544Y-94152452D01*
X112017335Y-94066206D01*
X112017329Y-94066203D01*
X111997529Y-94058818D01*
X111941596Y-94016946D01*
X111917179Y-93951482D01*
X111932031Y-93883209D01*
X111981437Y-93833804D01*
X112001860Y-93824930D01*
X112094117Y-93794359D01*
X112094124Y-93794356D01*
X112214507Y-93720103D01*
X112281899Y-93701663D01*
X112348563Y-93722585D01*
X112393333Y-93776227D01*
X112394165Y-93778190D01*
X112429137Y-93862622D01*
X112429138Y-93862624D01*
X112429139Y-93862625D01*
X112517379Y-93977621D01*
X112632375Y-94065861D01*
X112632376Y-94065861D01*
X112632377Y-94065862D01*
X112657350Y-94076206D01*
X112766291Y-94121330D01*
X112893280Y-94138048D01*
X112909999Y-94140250D01*
X112910000Y-94140250D01*
X112910001Y-94140250D01*
X112926719Y-94138048D01*
X113053709Y-94121330D01*
X113117424Y-94094938D01*
X113164877Y-94085499D01*
X114320007Y-94085499D01*
X114320007Y-94085498D01*
X114416715Y-94070182D01*
X114533281Y-94010789D01*
X114625789Y-93918281D01*
X114685182Y-93801715D01*
X114700500Y-93705003D01*
X114700499Y-93314998D01*
X114700499Y-93314997D01*
X114700499Y-93314992D01*
X114686846Y-93228794D01*
X114685182Y-93218285D01*
X114625789Y-93101719D01*
X114625785Y-93101715D01*
X114625784Y-93101713D01*
X114533286Y-93009215D01*
X114533282Y-93009212D01*
X114533281Y-93009211D01*
X114416715Y-92949818D01*
X114416714Y-92949817D01*
X114416711Y-92949816D01*
X114416712Y-92949816D01*
X114320003Y-92934500D01*
X113019992Y-92934500D01*
X113019992Y-92934501D01*
X112923286Y-92949817D01*
X112923282Y-92949818D01*
X112806720Y-93009209D01*
X112785383Y-93030546D01*
X112745155Y-93057424D01*
X112690723Y-93079970D01*
X112621253Y-93087439D01*
X112558775Y-93056163D01*
X112555590Y-93053090D01*
X112525000Y-93022500D01*
X110473000Y-93022500D01*
X110473000Y-93116000D01*
X110453315Y-93183039D01*
X110400511Y-93228794D01*
X110349000Y-93240000D01*
X109024000Y-93240000D01*
X108956961Y-93220315D01*
X108911206Y-93167511D01*
X108900000Y-93116000D01*
X108900000Y-92740000D01*
X109400000Y-92740000D01*
X110032000Y-92740000D01*
X110032000Y-92646500D01*
X110051685Y-92579461D01*
X110104489Y-92533706D01*
X110156000Y-92522500D01*
X111050000Y-92522500D01*
X111050000Y-91685000D01*
X111550000Y-91685000D01*
X111550000Y-92522500D01*
X112524999Y-92522500D01*
X112524999Y-92385028D01*
X112524998Y-92385013D01*
X112514505Y-92282302D01*
X112459358Y-92115880D01*
X112459356Y-92115875D01*
X112367315Y-91966654D01*
X112243345Y-91842684D01*
X112182261Y-91805007D01*
X112639500Y-91805007D01*
X112654817Y-91901713D01*
X112654817Y-91901714D01*
X112654818Y-91901715D01*
X112714211Y-92018281D01*
X112714213Y-92018283D01*
X112714215Y-92018286D01*
X112806713Y-92110784D01*
X112806716Y-92110786D01*
X112806719Y-92110789D01*
X112923285Y-92170182D01*
X112923286Y-92170182D01*
X112923288Y-92170183D01*
X112923287Y-92170183D01*
X112966618Y-92177045D01*
X113019997Y-92185500D01*
X114320002Y-92185499D01*
X114320007Y-92185499D01*
X114320007Y-92185498D01*
X114416715Y-92170182D01*
X114533281Y-92110789D01*
X114533286Y-92110784D01*
X114622252Y-92021819D01*
X114683575Y-91988334D01*
X114709933Y-91985500D01*
X115018443Y-91985500D01*
X115085482Y-92005185D01*
X115131237Y-92057989D01*
X115141181Y-92127147D01*
X115136828Y-92146390D01*
X115096067Y-92277197D01*
X115096064Y-92277207D01*
X115093085Y-92309999D01*
X115093085Y-92310000D01*
X117646915Y-92310000D01*
X117646914Y-92309999D01*
X117643935Y-92277207D01*
X117643932Y-92277197D01*
X117596072Y-92123607D01*
X117512836Y-91985919D01*
X117435798Y-91908881D01*
X117402313Y-91847558D01*
X117401248Y-91809943D01*
X117400118Y-91809854D01*
X117400499Y-91805007D01*
X117400500Y-91805003D01*
X117400499Y-91414998D01*
X117400499Y-91414996D01*
X117400499Y-91414992D01*
X117387370Y-91332101D01*
X117385182Y-91318285D01*
X117325789Y-91201719D01*
X117325785Y-91201715D01*
X117325784Y-91201713D01*
X117233286Y-91109215D01*
X117233282Y-91109212D01*
X117233281Y-91109211D01*
X117116715Y-91049818D01*
X117116714Y-91049817D01*
X117116711Y-91049816D01*
X117116712Y-91049816D01*
X117020003Y-91034500D01*
X115719992Y-91034500D01*
X115719992Y-91034501D01*
X115623286Y-91049817D01*
X115623285Y-91049817D01*
X115552652Y-91085807D01*
X115506719Y-91109211D01*
X115506718Y-91109212D01*
X115506716Y-91109212D01*
X115451285Y-91164644D01*
X115389961Y-91198128D01*
X115320270Y-91193143D01*
X115264336Y-91151272D01*
X115239920Y-91085807D01*
X115240664Y-91060783D01*
X115255250Y-90950000D01*
X115236330Y-90806291D01*
X115180861Y-90672375D01*
X115092621Y-90557379D01*
X114977625Y-90469139D01*
X114977624Y-90469138D01*
X114977622Y-90469137D01*
X114843712Y-90413671D01*
X114843710Y-90413670D01*
X114843709Y-90413670D01*
X114771854Y-90404210D01*
X114700001Y-90394750D01*
X114699999Y-90394750D01*
X114556291Y-90413670D01*
X114556287Y-90413671D01*
X114422377Y-90469137D01*
X114307379Y-90557379D01*
X114219137Y-90672377D01*
X114163671Y-90806287D01*
X114163670Y-90806292D01*
X114147819Y-90926686D01*
X114119552Y-90990583D01*
X114061227Y-91029053D01*
X114024880Y-91034500D01*
X113019992Y-91034500D01*
X113019992Y-91034501D01*
X112923286Y-91049817D01*
X112923285Y-91049817D01*
X112852652Y-91085807D01*
X112806719Y-91109211D01*
X112806718Y-91109212D01*
X112806713Y-91109215D01*
X112714215Y-91201713D01*
X112714210Y-91201720D01*
X112654816Y-91318288D01*
X112639500Y-91414996D01*
X112639500Y-91805007D01*
X112182261Y-91805007D01*
X112094124Y-91750643D01*
X112094119Y-91750641D01*
X111927697Y-91695494D01*
X111927690Y-91695493D01*
X111824986Y-91685000D01*
X111550000Y-91685000D01*
X111050000Y-91685000D01*
X110775029Y-91685000D01*
X110775012Y-91685001D01*
X110672302Y-91695494D01*
X110505880Y-91750641D01*
X110505875Y-91750643D01*
X110356654Y-91842684D01*
X110232684Y-91966654D01*
X110140643Y-92115875D01*
X110140639Y-92115885D01*
X110138711Y-92121704D01*
X110098936Y-92179147D01*
X110034419Y-92205967D01*
X109984117Y-92201081D01*
X109887792Y-92171065D01*
X109821043Y-92165000D01*
X109400000Y-92165000D01*
X109400000Y-92740000D01*
X108900000Y-92740000D01*
X108900000Y-92165000D01*
X108478957Y-92165000D01*
X108412207Y-92171065D01*
X108258603Y-92218929D01*
X108120919Y-92302163D01*
X108007163Y-92415919D01*
X107923927Y-92553607D01*
X107918385Y-92571394D01*
X107879648Y-92629542D01*
X107815623Y-92657516D01*
X107746637Y-92646434D01*
X107694594Y-92599816D01*
X107681615Y-92571394D01*
X107676072Y-92553607D01*
X107592836Y-92415919D01*
X107479080Y-92302163D01*
X107341396Y-92218929D01*
X107187792Y-92171065D01*
X107121043Y-92165000D01*
X106700000Y-92165000D01*
X106700000Y-93690000D01*
X107726915Y-93690000D01*
X107726914Y-93689999D01*
X107723935Y-93657207D01*
X107723932Y-93657197D01*
X107675537Y-93501889D01*
X107674385Y-93432029D01*
X107675538Y-93428105D01*
X107681616Y-93408602D01*
X107720355Y-93350456D01*
X107784381Y-93322484D01*
X107853366Y-93333567D01*
X107905408Y-93380187D01*
X107918385Y-93408606D01*
X107923927Y-93426392D01*
X108007163Y-93564080D01*
X108084200Y-93641117D01*
X108117685Y-93702440D01*
X108118766Y-93740046D01*
X108119882Y-93740134D01*
X108119500Y-93744990D01*
X108119500Y-94135007D01*
X108134817Y-94231713D01*
X108134817Y-94231714D01*
X108145146Y-94251985D01*
X108194211Y-94348281D01*
X108194212Y-94348282D01*
X108198642Y-94356976D01*
X108195589Y-94358531D01*
X108213211Y-94407930D01*
X108198130Y-94472762D01*
X108198642Y-94473023D01*
X108197588Y-94475090D01*
X108197381Y-94475983D01*
X108196188Y-94477838D01*
X108134816Y-94598288D01*
X108119500Y-94694996D01*
X108119500Y-94844222D01*
X108099815Y-94911261D01*
X108047011Y-94957016D01*
X108011686Y-94967161D01*
X107886291Y-94983670D01*
X107886287Y-94983671D01*
X107752376Y-95039138D01*
X107752374Y-95039139D01*
X107679985Y-95094685D01*
X107614815Y-95119879D01*
X107546371Y-95105840D01*
X107496381Y-95057026D01*
X107480499Y-94996311D01*
X107480499Y-94694998D01*
X107480499Y-94694996D01*
X107480117Y-94690147D01*
X107482076Y-94689992D01*
X107489939Y-94628951D01*
X107515797Y-94591118D01*
X107592837Y-94514078D01*
X107676072Y-94376392D01*
X107723932Y-94222802D01*
X107723935Y-94222792D01*
X107726914Y-94190000D01*
X106324000Y-94190000D01*
X106256961Y-94170315D01*
X106211206Y-94117511D01*
X106200000Y-94066000D01*
X106200000Y-93240000D01*
X105173085Y-93240000D01*
X105176064Y-93272792D01*
X105176065Y-93272794D01*
X105224463Y-93428110D01*
X105225613Y-93497970D01*
X105224463Y-93501890D01*
X105181456Y-93639906D01*
X105142718Y-93698054D01*
X105078693Y-93726028D01*
X105009708Y-93714947D01*
X104975389Y-93690697D01*
X104024692Y-92740000D01*
X105173085Y-92740000D01*
X106200000Y-92740000D01*
X106200000Y-92165000D01*
X105778957Y-92165000D01*
X105712207Y-92171065D01*
X105558603Y-92218929D01*
X105420919Y-92302163D01*
X105307163Y-92415919D01*
X105223927Y-92553607D01*
X105176067Y-92707197D01*
X105176064Y-92707207D01*
X105173085Y-92739999D01*
X105173085Y-92740000D01*
X104024692Y-92740000D01*
X102966694Y-91682002D01*
X102966692Y-91682000D01*
X102909628Y-91649054D01*
X102852565Y-91616108D01*
X102788701Y-91598996D01*
X102725270Y-91582000D01*
X102725269Y-91582000D01*
X102154876Y-91582000D01*
X102107427Y-91572562D01*
X102043709Y-91546170D01*
X102043708Y-91546169D01*
X102043706Y-91546169D01*
X101900001Y-91527250D01*
X101899999Y-91527250D01*
X101756293Y-91546169D01*
X101756291Y-91546170D01*
X101692572Y-91572562D01*
X101645124Y-91582000D01*
X93554500Y-91582000D01*
X93487461Y-91562315D01*
X93441706Y-91509511D01*
X93430500Y-91458000D01*
X93430500Y-89530007D01*
X103124671Y-89530007D01*
X103143964Y-89824363D01*
X103143965Y-89824373D01*
X103143966Y-89824380D01*
X103179687Y-90003966D01*
X103201518Y-90113716D01*
X103201521Y-90113730D01*
X103296349Y-90393080D01*
X103426825Y-90657660D01*
X103426829Y-90657667D01*
X103590725Y-90902955D01*
X103785241Y-91124758D01*
X104005920Y-91318288D01*
X104007043Y-91319273D01*
X104252335Y-91483172D01*
X104516923Y-91613652D01*
X104796278Y-91708481D01*
X105085620Y-91766034D01*
X105113888Y-91767886D01*
X105379993Y-91785329D01*
X105380000Y-91785329D01*
X105380007Y-91785329D01*
X105615675Y-91769881D01*
X105674380Y-91766034D01*
X105963722Y-91708481D01*
X106243077Y-91613652D01*
X106507665Y-91483172D01*
X106752957Y-91319273D01*
X106974758Y-91124758D01*
X107169273Y-90902957D01*
X107333172Y-90657665D01*
X107463652Y-90393077D01*
X107558481Y-90113722D01*
X107616034Y-89824380D01*
X107635329Y-89530000D01*
X107635329Y-89529992D01*
X107616035Y-89235636D01*
X107616034Y-89235620D01*
X107558481Y-88946278D01*
X107463652Y-88666923D01*
X107333172Y-88402336D01*
X107169273Y-88157043D01*
X107126655Y-88108447D01*
X106974758Y-87935241D01*
X106752955Y-87740725D01*
X106507667Y-87576829D01*
X106507660Y-87576825D01*
X106243080Y-87446349D01*
X105963730Y-87351521D01*
X105963724Y-87351519D01*
X105963722Y-87351519D01*
X105674380Y-87293966D01*
X105674373Y-87293965D01*
X105674363Y-87293964D01*
X105380007Y-87274671D01*
X105379993Y-87274671D01*
X105085636Y-87293964D01*
X105085624Y-87293965D01*
X105085620Y-87293966D01*
X105085612Y-87293967D01*
X105085609Y-87293968D01*
X104796283Y-87351518D01*
X104796269Y-87351521D01*
X104516919Y-87446349D01*
X104252334Y-87576828D01*
X104007041Y-87740728D01*
X103785241Y-87935241D01*
X103590728Y-88157041D01*
X103426828Y-88402334D01*
X103296349Y-88666919D01*
X103201521Y-88946269D01*
X103201518Y-88946283D01*
X103143968Y-89235609D01*
X103143964Y-89235636D01*
X103124671Y-89529992D01*
X103124671Y-89530007D01*
X93430500Y-89530007D01*
X93430500Y-87094678D01*
X114939500Y-87094678D01*
X114954032Y-87167735D01*
X114954033Y-87167739D01*
X114954034Y-87167740D01*
X115009399Y-87250601D01*
X115092260Y-87305966D01*
X115092264Y-87305967D01*
X115165321Y-87320499D01*
X115165324Y-87320500D01*
X115165326Y-87320500D01*
X119174676Y-87320500D01*
X119174677Y-87320499D01*
X119247740Y-87305966D01*
X119330601Y-87250601D01*
X119385966Y-87167740D01*
X119400500Y-87094674D01*
X119400500Y-85065326D01*
X119400500Y-85065323D01*
X119400499Y-85065321D01*
X119385967Y-84992264D01*
X119385966Y-84992260D01*
X119330601Y-84909399D01*
X119247740Y-84854034D01*
X119247739Y-84854033D01*
X119247735Y-84854032D01*
X119174677Y-84839500D01*
X119174674Y-84839500D01*
X115165326Y-84839500D01*
X115165323Y-84839500D01*
X115092264Y-84854032D01*
X115092260Y-84854033D01*
X115009399Y-84909399D01*
X114954033Y-84992260D01*
X114954032Y-84992264D01*
X114939500Y-85065321D01*
X114939500Y-87094678D01*
X93430500Y-87094678D01*
X93430500Y-85735566D01*
X93450185Y-85668527D01*
X93475835Y-85639713D01*
X93604291Y-85534291D01*
X93722882Y-85389788D01*
X93722886Y-85389781D01*
X93811001Y-85224930D01*
X93811001Y-85224929D01*
X93811004Y-85224924D01*
X93865269Y-85046037D01*
X93883592Y-84860000D01*
X93865269Y-84673963D01*
X93811004Y-84495076D01*
X93811001Y-84495072D01*
X93811001Y-84495069D01*
X93722886Y-84330218D01*
X93722882Y-84330211D01*
X93604291Y-84185708D01*
X93459788Y-84067117D01*
X93459781Y-84067113D01*
X93294930Y-83978998D01*
X93294924Y-83978996D01*
X93116037Y-83924731D01*
X93116035Y-83924730D01*
X93116033Y-83924730D01*
X92930000Y-83906408D01*
X92743966Y-83924730D01*
X92565069Y-83978998D01*
X92400218Y-84067113D01*
X92400211Y-84067117D01*
X92255708Y-84185708D01*
X92137117Y-84330211D01*
X92137113Y-84330218D01*
X92048998Y-84495069D01*
X91994730Y-84673966D01*
X91976408Y-84860000D01*
X91994730Y-85046033D01*
X91994730Y-85046035D01*
X91994731Y-85046037D01*
X92000582Y-85065326D01*
X92048998Y-85224930D01*
X92137113Y-85389781D01*
X92137117Y-85389788D01*
X92255708Y-85534291D01*
X92384165Y-85639713D01*
X92423499Y-85697459D01*
X92429500Y-85735566D01*
X92429500Y-91604434D01*
X92409815Y-91671473D01*
X92384165Y-91700287D01*
X92255708Y-91805708D01*
X92137117Y-91950211D01*
X92137113Y-91950218D01*
X92048998Y-92115069D01*
X91994730Y-92293966D01*
X91976408Y-92480000D01*
X91994730Y-92666033D01*
X91994730Y-92666035D01*
X91994731Y-92666037D01*
X92042567Y-92823730D01*
X92048998Y-92844930D01*
X92137113Y-93009781D01*
X92137117Y-93009788D01*
X92255708Y-93154291D01*
X92400211Y-93272882D01*
X92400218Y-93272886D01*
X92565069Y-93361001D01*
X92565072Y-93361001D01*
X92565076Y-93361004D01*
X92743963Y-93415269D01*
X92930000Y-93433592D01*
X93116037Y-93415269D01*
X93294924Y-93361004D01*
X93356493Y-93328095D01*
X93380997Y-93314997D01*
X93459787Y-93272883D01*
X93604291Y-93154291D01*
X93722883Y-93009787D01*
X93811004Y-92844924D01*
X93836781Y-92759945D01*
X93863763Y-92671004D01*
X93902060Y-92612566D01*
X93965873Y-92584109D01*
X93982423Y-92583000D01*
X101645124Y-92583000D01*
X101692572Y-92592437D01*
X101756291Y-92618830D01*
X101852097Y-92631443D01*
X101899999Y-92637750D01*
X101900000Y-92637750D01*
X101900001Y-92637750D01*
X101935927Y-92633020D01*
X102043709Y-92618830D01*
X102107427Y-92592437D01*
X102154876Y-92583000D01*
X102400702Y-92583000D01*
X102467741Y-92602685D01*
X102488383Y-92619319D01*
X103676883Y-93807819D01*
X103710368Y-93869142D01*
X103705384Y-93938834D01*
X103663512Y-93994767D01*
X103598048Y-94019184D01*
X103589202Y-94019500D01*
X102752129Y-94019500D01*
X102752123Y-94019501D01*
X102692516Y-94025908D01*
X102557671Y-94076202D01*
X102557664Y-94076206D01*
X102442455Y-94162452D01*
X102442452Y-94162455D01*
X102356206Y-94277664D01*
X102356202Y-94277671D01*
X102305908Y-94412516D01*
X102302550Y-94443756D01*
X102275812Y-94508307D01*
X102218419Y-94548155D01*
X102179261Y-94554500D01*
X101431635Y-94554500D01*
X101364596Y-94534815D01*
X101332369Y-94504811D01*
X101307901Y-94472127D01*
X101296116Y-94456384D01*
X101206384Y-94389211D01*
X101183780Y-94372289D01*
X101183778Y-94372288D01*
X101142725Y-94356976D01*
X101052299Y-94323248D01*
X100994190Y-94317000D01*
X100994174Y-94317000D01*
X100425826Y-94317000D01*
X100425809Y-94317000D01*
X100367700Y-94323248D01*
X100236219Y-94372289D01*
X100179166Y-94415000D01*
X100123884Y-94456384D01*
X100123883Y-94456385D01*
X100123882Y-94456386D01*
X100087631Y-94504811D01*
X100031698Y-94546682D01*
X99988365Y-94554500D01*
X95809108Y-94554500D01*
X95681812Y-94588608D01*
X95567686Y-94654500D01*
X95567683Y-94654502D01*
X93309005Y-96913181D01*
X93247682Y-96946666D01*
X93221324Y-96949500D01*
X90735323Y-96949500D01*
X90662264Y-96964032D01*
X90662260Y-96964033D01*
X90579399Y-97019399D01*
X90524033Y-97102260D01*
X90524032Y-97102264D01*
X90509500Y-97175321D01*
X90509500Y-99204678D01*
X90524032Y-99277735D01*
X90524033Y-99277739D01*
X90524034Y-99277740D01*
X90579399Y-99360601D01*
X90634444Y-99397380D01*
X90662260Y-99415966D01*
X90662264Y-99415967D01*
X90735321Y-99430499D01*
X90735324Y-99430500D01*
X90735326Y-99430500D01*
X94744676Y-99430500D01*
X94744677Y-99430499D01*
X94817740Y-99415966D01*
X94900601Y-99360601D01*
X94955966Y-99277740D01*
X94970500Y-99204674D01*
X94970500Y-97175326D01*
X94970500Y-97175323D01*
X94970499Y-97175321D01*
X94955967Y-97102264D01*
X94955966Y-97102260D01*
X94952867Y-97097622D01*
X94900601Y-97019399D01*
X94900600Y-97019398D01*
X94857072Y-96990314D01*
X94812267Y-96936702D01*
X94803560Y-96867377D01*
X94833715Y-96804349D01*
X94838263Y-96799550D01*
X96045995Y-95591819D01*
X96107318Y-95558334D01*
X96133676Y-95555500D01*
X99988365Y-95555500D01*
X100055404Y-95575185D01*
X100087631Y-95605189D01*
X100114973Y-95641713D01*
X100123884Y-95653616D01*
X100220428Y-95725888D01*
X100236105Y-95737625D01*
X100236222Y-95737712D01*
X100328594Y-95772165D01*
X100367700Y-95786751D01*
X100425809Y-95792999D01*
X100425826Y-95793000D01*
X100994174Y-95793000D01*
X100994190Y-95792999D01*
X101052299Y-95786751D01*
X101183778Y-95737712D01*
X101296116Y-95653616D01*
X101325843Y-95613906D01*
X101332369Y-95605189D01*
X101388302Y-95563318D01*
X101431635Y-95555500D01*
X102175501Y-95555500D01*
X102242540Y-95575185D01*
X102288295Y-95627989D01*
X102299501Y-95679500D01*
X102299501Y-96567876D01*
X102305908Y-96627483D01*
X102356202Y-96762328D01*
X102356206Y-96762335D01*
X102442452Y-96877544D01*
X102442455Y-96877547D01*
X102557664Y-96963793D01*
X102557671Y-96963797D01*
X102692517Y-97014091D01*
X102692516Y-97014091D01*
X102699444Y-97014835D01*
X102752127Y-97020500D01*
X104147872Y-97020499D01*
X104207483Y-97014091D01*
X104342331Y-96963796D01*
X104457546Y-96877546D01*
X104503966Y-96815537D01*
X104549112Y-96755231D01*
X104551357Y-96756912D01*
X104590594Y-96717648D01*
X104658861Y-96702772D01*
X104724335Y-96727165D01*
X104737741Y-96738778D01*
X104778181Y-96779218D01*
X104811666Y-96840541D01*
X104814500Y-96866899D01*
X104814500Y-98316168D01*
X104794815Y-98383207D01*
X104742011Y-98428962D01*
X104672853Y-98438906D01*
X104609297Y-98409881D01*
X104574318Y-98359501D01*
X104543797Y-98277671D01*
X104543793Y-98277664D01*
X104457547Y-98162455D01*
X104457544Y-98162452D01*
X104342335Y-98076206D01*
X104342328Y-98076202D01*
X104207482Y-98025908D01*
X104207483Y-98025908D01*
X104147883Y-98019501D01*
X104147881Y-98019500D01*
X104147873Y-98019500D01*
X104147864Y-98019500D01*
X102752129Y-98019500D01*
X102752123Y-98019501D01*
X102692516Y-98025908D01*
X102557671Y-98076202D01*
X102557664Y-98076206D01*
X102442455Y-98162452D01*
X102442452Y-98162455D01*
X102356206Y-98277664D01*
X102356202Y-98277671D01*
X102305908Y-98412517D01*
X102299501Y-98472116D01*
X102299500Y-98472135D01*
X102299500Y-99911323D01*
X102279815Y-99978362D01*
X102263181Y-99999004D01*
X102091505Y-100170681D01*
X102030182Y-100204166D01*
X102003824Y-100207000D01*
X101604479Y-100207000D01*
X101537440Y-100187315D01*
X101491685Y-100134511D01*
X101489020Y-100128080D01*
X101488794Y-100127665D01*
X101402547Y-100012455D01*
X101402544Y-100012452D01*
X101287335Y-99926206D01*
X101287328Y-99926202D01*
X101152482Y-99875908D01*
X101152483Y-99875908D01*
X101092883Y-99869501D01*
X101092881Y-99869500D01*
X101092873Y-99869500D01*
X101092864Y-99869500D01*
X100047129Y-99869500D01*
X100047123Y-99869501D01*
X99987516Y-99875908D01*
X99852671Y-99926202D01*
X99852664Y-99926206D01*
X99848810Y-99929092D01*
X99783346Y-99953509D01*
X99715073Y-99938657D01*
X99665668Y-99889252D01*
X99650500Y-99829825D01*
X99650500Y-99510174D01*
X99670185Y-99443135D01*
X99722989Y-99397380D01*
X99792147Y-99387436D01*
X99848814Y-99410910D01*
X99852669Y-99413796D01*
X99852670Y-99413796D01*
X99852671Y-99413797D01*
X99987517Y-99464091D01*
X99987516Y-99464091D01*
X99994444Y-99464835D01*
X100047127Y-99470500D01*
X101092872Y-99470499D01*
X101152483Y-99464091D01*
X101287331Y-99413796D01*
X101402546Y-99327546D01*
X101488796Y-99212331D01*
X101539091Y-99077483D01*
X101545500Y-99017873D01*
X101545499Y-98247128D01*
X101540274Y-98198522D01*
X101539091Y-98187516D01*
X101488797Y-98052671D01*
X101488793Y-98052664D01*
X101402547Y-97937455D01*
X101320188Y-97875800D01*
X101278318Y-97819866D01*
X101270500Y-97776534D01*
X101270500Y-97554105D01*
X101290185Y-97487066D01*
X101295234Y-97479794D01*
X101318129Y-97449211D01*
X101380212Y-97366278D01*
X101429251Y-97234799D01*
X101430166Y-97226287D01*
X101435499Y-97176690D01*
X101435500Y-97176673D01*
X101435500Y-96583326D01*
X101435499Y-96583309D01*
X101429251Y-96525200D01*
X101399041Y-96444205D01*
X101380212Y-96393722D01*
X101369565Y-96379500D01*
X101341280Y-96341716D01*
X101296116Y-96281384D01*
X101228612Y-96230851D01*
X101183780Y-96197289D01*
X101183778Y-96197288D01*
X101126703Y-96176000D01*
X101052299Y-96148248D01*
X100994190Y-96142000D01*
X100994174Y-96142000D01*
X100425826Y-96142000D01*
X100425809Y-96142000D01*
X100367700Y-96148248D01*
X100236219Y-96197289D01*
X100156184Y-96257204D01*
X100123884Y-96281384D01*
X100123883Y-96281385D01*
X100123882Y-96281386D01*
X100087631Y-96329811D01*
X100031698Y-96371682D01*
X99988365Y-96379500D01*
X99574108Y-96379500D01*
X99446812Y-96413608D01*
X99332686Y-96479500D01*
X99332683Y-96479502D01*
X98976317Y-96835867D01*
X98936089Y-96862747D01*
X98872378Y-96889137D01*
X98872375Y-96889138D01*
X98872375Y-96889139D01*
X98757379Y-96977379D01*
X98669137Y-97092377D01*
X98613671Y-97226287D01*
X98613670Y-97226291D01*
X98594750Y-97370000D01*
X98613670Y-97513709D01*
X98633309Y-97561123D01*
X98640061Y-97577422D01*
X98649500Y-97624875D01*
X98649500Y-105061323D01*
X98629815Y-105128362D01*
X98613181Y-105149004D01*
X95855210Y-107906974D01*
X95793887Y-107940459D01*
X95755375Y-107942696D01*
X95590000Y-107926408D01*
X95589999Y-107926408D01*
X95403966Y-107944730D01*
X95225069Y-107998998D01*
X95060218Y-108087113D01*
X95060211Y-108087117D01*
X94915708Y-108205708D01*
X94810287Y-108334165D01*
X94752541Y-108373499D01*
X94714434Y-108379500D01*
X88845566Y-108379500D01*
X88778527Y-108359815D01*
X88749713Y-108334165D01*
X88644291Y-108205708D01*
X88499788Y-108087117D01*
X88499781Y-108087113D01*
X88334930Y-107998998D01*
X88334924Y-107998996D01*
X88156037Y-107944731D01*
X88156035Y-107944730D01*
X88156033Y-107944730D01*
X87970000Y-107926408D01*
X87783966Y-107944730D01*
X87605069Y-107998998D01*
X87440218Y-108087113D01*
X87440211Y-108087117D01*
X87295708Y-108205708D01*
X87177117Y-108350211D01*
X87177113Y-108350218D01*
X87088998Y-108515069D01*
X87034730Y-108693966D01*
X87016408Y-108880000D01*
X84280500Y-108880000D01*
X84280500Y-103287634D01*
X90509500Y-103287634D01*
X90540045Y-103480485D01*
X90600381Y-103666184D01*
X90600382Y-103666187D01*
X90623500Y-103711557D01*
X90683409Y-103829135D01*
X90689031Y-103840167D01*
X90803793Y-103998125D01*
X90803797Y-103998130D01*
X90941869Y-104136202D01*
X90941874Y-104136206D01*
X91058566Y-104220987D01*
X91099836Y-104250971D01*
X91213565Y-104308919D01*
X91273812Y-104339617D01*
X91273815Y-104339618D01*
X91366664Y-104369786D01*
X91459516Y-104399955D01*
X91548835Y-104414101D01*
X91652366Y-104430500D01*
X91652371Y-104430500D01*
X93827634Y-104430500D01*
X93921125Y-104415691D01*
X94020484Y-104399955D01*
X94206187Y-104339617D01*
X94380164Y-104250971D01*
X94538132Y-104136201D01*
X94676201Y-103998132D01*
X94790971Y-103840164D01*
X94879617Y-103666187D01*
X94939955Y-103480484D01*
X94959444Y-103357436D01*
X94970500Y-103287634D01*
X94970500Y-103092365D01*
X94952730Y-102980174D01*
X94939955Y-102899516D01*
X94909786Y-102806664D01*
X94879618Y-102713815D01*
X94879617Y-102713812D01*
X94822206Y-102601138D01*
X94790971Y-102539836D01*
X94738087Y-102467047D01*
X94676206Y-102381874D01*
X94676202Y-102381869D01*
X94538130Y-102243797D01*
X94538125Y-102243793D01*
X94380167Y-102129031D01*
X94380166Y-102129030D01*
X94380164Y-102129029D01*
X94324426Y-102100629D01*
X94206187Y-102040382D01*
X94206184Y-102040381D01*
X94020485Y-101980045D01*
X93827634Y-101949500D01*
X93827629Y-101949500D01*
X91652371Y-101949500D01*
X91652366Y-101949500D01*
X91459514Y-101980045D01*
X91273815Y-102040381D01*
X91273812Y-102040382D01*
X91099832Y-102129031D01*
X90941874Y-102243793D01*
X90941869Y-102243797D01*
X90803797Y-102381869D01*
X90803793Y-102381874D01*
X90689031Y-102539832D01*
X90600382Y-102713812D01*
X90600381Y-102713815D01*
X90540045Y-102899514D01*
X90509500Y-103092365D01*
X90509500Y-103287634D01*
X84280500Y-103287634D01*
X84280500Y-92480000D01*
X86896408Y-92480000D01*
X86914730Y-92666033D01*
X86914730Y-92666035D01*
X86914731Y-92666037D01*
X86962567Y-92823730D01*
X86968998Y-92844930D01*
X87057113Y-93009781D01*
X87057117Y-93009788D01*
X87175708Y-93154291D01*
X87320211Y-93272882D01*
X87320218Y-93272886D01*
X87485069Y-93361001D01*
X87485072Y-93361001D01*
X87485076Y-93361004D01*
X87663963Y-93415269D01*
X87850000Y-93433592D01*
X88036037Y-93415269D01*
X88214924Y-93361004D01*
X88276493Y-93328095D01*
X88300997Y-93314997D01*
X88379787Y-93272883D01*
X88524291Y-93154291D01*
X88642883Y-93009787D01*
X88731004Y-92844924D01*
X88785269Y-92666037D01*
X88803592Y-92480000D01*
X88785269Y-92293963D01*
X88731004Y-92115076D01*
X88731001Y-92115072D01*
X88731001Y-92115069D01*
X88642886Y-91950218D01*
X88642882Y-91950211D01*
X88524291Y-91805708D01*
X88379788Y-91687117D01*
X88379781Y-91687113D01*
X88214930Y-91598998D01*
X88214924Y-91598996D01*
X88036037Y-91544731D01*
X88036035Y-91544730D01*
X88036033Y-91544730D01*
X87850000Y-91526408D01*
X87663966Y-91544730D01*
X87485069Y-91598998D01*
X87320218Y-91687113D01*
X87320211Y-91687117D01*
X87175708Y-91805708D01*
X87057117Y-91950211D01*
X87057113Y-91950218D01*
X86968998Y-92115069D01*
X86914730Y-92293966D01*
X86896408Y-92480000D01*
X84280500Y-92480000D01*
X84280500Y-84860000D01*
X86896408Y-84860000D01*
X86914730Y-85046033D01*
X86914730Y-85046035D01*
X86914731Y-85046037D01*
X86920582Y-85065326D01*
X86968998Y-85224930D01*
X87057113Y-85389781D01*
X87057117Y-85389788D01*
X87175708Y-85534291D01*
X87320211Y-85652882D01*
X87320218Y-85652886D01*
X87485069Y-85741001D01*
X87485072Y-85741001D01*
X87485076Y-85741004D01*
X87663963Y-85795269D01*
X87850000Y-85813592D01*
X88036037Y-85795269D01*
X88214924Y-85741004D01*
X88379787Y-85652883D01*
X88524291Y-85534291D01*
X88642883Y-85389787D01*
X88731004Y-85224924D01*
X88785269Y-85046037D01*
X88803592Y-84860000D01*
X88785269Y-84673963D01*
X88731004Y-84495076D01*
X88731001Y-84495072D01*
X88731001Y-84495069D01*
X88642886Y-84330218D01*
X88642882Y-84330211D01*
X88524291Y-84185708D01*
X88379788Y-84067117D01*
X88379781Y-84067113D01*
X88214930Y-83978998D01*
X88214924Y-83978996D01*
X88036037Y-83924731D01*
X88036035Y-83924730D01*
X88036033Y-83924730D01*
X87850000Y-83906408D01*
X87663966Y-83924730D01*
X87485069Y-83978998D01*
X87320218Y-84067113D01*
X87320211Y-84067117D01*
X87175708Y-84185708D01*
X87057117Y-84330211D01*
X87057113Y-84330218D01*
X86968998Y-84495069D01*
X86914730Y-84673966D01*
X86896408Y-84860000D01*
X84280500Y-84860000D01*
X84280500Y-81330000D01*
X114711023Y-81330000D01*
X114726688Y-81428905D01*
X114726688Y-81428906D01*
X114799164Y-81651963D01*
X114905638Y-81860930D01*
X115043494Y-82050672D01*
X115209327Y-82216505D01*
X115399069Y-82354361D01*
X115608034Y-82460835D01*
X115831090Y-82533310D01*
X116062735Y-82570000D01*
X116920000Y-82570000D01*
X116920000Y-81690824D01*
X116977485Y-81714636D01*
X117104996Y-81740000D01*
X117235004Y-81740000D01*
X117362515Y-81714636D01*
X117420000Y-81690824D01*
X117420000Y-82570000D01*
X118277265Y-82570000D01*
X118508909Y-82533310D01*
X118731965Y-82460835D01*
X118940930Y-82354361D01*
X119130672Y-82216505D01*
X119296505Y-82050672D01*
X119434361Y-81860930D01*
X119540835Y-81651963D01*
X119613311Y-81428906D01*
X119613311Y-81428905D01*
X119628977Y-81330000D01*
X117780825Y-81330000D01*
X117804636Y-81272515D01*
X117830000Y-81145004D01*
X117830000Y-81014996D01*
X117804636Y-80887485D01*
X117780825Y-80830000D01*
X119628977Y-80830000D01*
X119613311Y-80731094D01*
X119613311Y-80731093D01*
X119540835Y-80508036D01*
X119434361Y-80299069D01*
X119296505Y-80109327D01*
X119130672Y-79943494D01*
X118940930Y-79805638D01*
X118731965Y-79699164D01*
X118508909Y-79626689D01*
X118277265Y-79590000D01*
X117420000Y-79590000D01*
X117420000Y-80469175D01*
X117362515Y-80445364D01*
X117235004Y-80420000D01*
X117104996Y-80420000D01*
X116977485Y-80445364D01*
X116920000Y-80469175D01*
X116920000Y-79590000D01*
X116062735Y-79590000D01*
X115831090Y-79626689D01*
X115608034Y-79699164D01*
X115399069Y-79805638D01*
X115209327Y-79943494D01*
X115043494Y-80109327D01*
X114905638Y-80299069D01*
X114799164Y-80508036D01*
X114726688Y-80731093D01*
X114726688Y-80731094D01*
X114711023Y-80830000D01*
X116559175Y-80830000D01*
X116535364Y-80887485D01*
X116510000Y-81014996D01*
X116510000Y-81145004D01*
X116535364Y-81272515D01*
X116559175Y-81330000D01*
X114711023Y-81330000D01*
X84280500Y-81330000D01*
X84280500Y-75559678D01*
X114879500Y-75559678D01*
X114894032Y-75632735D01*
X114894033Y-75632739D01*
X114894034Y-75632740D01*
X114949399Y-75715601D01*
X115032260Y-75770966D01*
X115032264Y-75770967D01*
X115105321Y-75785499D01*
X115105324Y-75785500D01*
X115105326Y-75785500D01*
X119114676Y-75785500D01*
X119114677Y-75785499D01*
X119187740Y-75770966D01*
X119270601Y-75715601D01*
X119325966Y-75632740D01*
X119340500Y-75559674D01*
X119340500Y-73530326D01*
X119340500Y-73530323D01*
X119340499Y-73530321D01*
X119325967Y-73457264D01*
X119325966Y-73457260D01*
X119270601Y-73374399D01*
X119187740Y-73319034D01*
X119187739Y-73319033D01*
X119187735Y-73319032D01*
X119114677Y-73304500D01*
X119114674Y-73304500D01*
X115105326Y-73304500D01*
X115105323Y-73304500D01*
X115032264Y-73319032D01*
X115032260Y-73319033D01*
X114949399Y-73374399D01*
X114894033Y-73457260D01*
X114894032Y-73457264D01*
X114879500Y-73530321D01*
X114879500Y-75559678D01*
X84280500Y-75559678D01*
X84280500Y-73117265D01*
X90650000Y-73117265D01*
X90686689Y-73348909D01*
X90759164Y-73571965D01*
X90865638Y-73780930D01*
X91003494Y-73970672D01*
X91169327Y-74136505D01*
X91359069Y-74274361D01*
X91568036Y-74380835D01*
X91791089Y-74453310D01*
X91890000Y-74468976D01*
X91890000Y-72620824D01*
X91947485Y-72644636D01*
X92074996Y-72670000D01*
X92205004Y-72670000D01*
X92332515Y-72644636D01*
X92390000Y-72620824D01*
X92390000Y-74468975D01*
X92488909Y-74453310D01*
X92488912Y-74453310D01*
X92711963Y-74380835D01*
X92920930Y-74274361D01*
X93110672Y-74136505D01*
X93276505Y-73970672D01*
X93414361Y-73780930D01*
X93520835Y-73571965D01*
X93593310Y-73348909D01*
X93630000Y-73117265D01*
X93630000Y-73097634D01*
X95899500Y-73097634D01*
X95930045Y-73290485D01*
X95990381Y-73476184D01*
X95990382Y-73476187D01*
X96079031Y-73650167D01*
X96193793Y-73808125D01*
X96193797Y-73808130D01*
X96331869Y-73946202D01*
X96331874Y-73946206D01*
X96426113Y-74014674D01*
X96489836Y-74060971D01*
X96603565Y-74118919D01*
X96663812Y-74149617D01*
X96663815Y-74149618D01*
X96756664Y-74179786D01*
X96849516Y-74209955D01*
X96938835Y-74224101D01*
X97042366Y-74240500D01*
X97042371Y-74240500D01*
X97237634Y-74240500D01*
X97331125Y-74225691D01*
X97430484Y-74209955D01*
X97616187Y-74149617D01*
X97790164Y-74060971D01*
X97948132Y-73946201D01*
X98086201Y-73808132D01*
X98200971Y-73650164D01*
X98289617Y-73476187D01*
X98349955Y-73290484D01*
X98365691Y-73191125D01*
X98380500Y-73097634D01*
X100899500Y-73097634D01*
X100930045Y-73290485D01*
X100990381Y-73476184D01*
X100990382Y-73476187D01*
X101079031Y-73650167D01*
X101193793Y-73808125D01*
X101193797Y-73808130D01*
X101331869Y-73946202D01*
X101331874Y-73946206D01*
X101426113Y-74014674D01*
X101489836Y-74060971D01*
X101603565Y-74118919D01*
X101663812Y-74149617D01*
X101663815Y-74149618D01*
X101756664Y-74179786D01*
X101849516Y-74209955D01*
X101938835Y-74224101D01*
X102042366Y-74240500D01*
X102042371Y-74240500D01*
X102237634Y-74240500D01*
X102331125Y-74225691D01*
X102430484Y-74209955D01*
X102616187Y-74149617D01*
X102790164Y-74060971D01*
X102853881Y-74014678D01*
X105899500Y-74014678D01*
X105914032Y-74087735D01*
X105914033Y-74087739D01*
X105914034Y-74087740D01*
X105969399Y-74170601D01*
X106052260Y-74225966D01*
X106052264Y-74225967D01*
X106125321Y-74240499D01*
X106125324Y-74240500D01*
X106125326Y-74240500D01*
X108154676Y-74240500D01*
X108154677Y-74240499D01*
X108227740Y-74225966D01*
X108310601Y-74170601D01*
X108365966Y-74087740D01*
X108380500Y-74014674D01*
X108380500Y-70005326D01*
X108380500Y-70005323D01*
X108380499Y-70005321D01*
X108365967Y-69932264D01*
X108365966Y-69932260D01*
X108333382Y-69883494D01*
X108310601Y-69849399D01*
X108229186Y-69795000D01*
X114651023Y-69795000D01*
X114666688Y-69893905D01*
X114666688Y-69893906D01*
X114739164Y-70116963D01*
X114845638Y-70325930D01*
X114983494Y-70515672D01*
X115149327Y-70681505D01*
X115339069Y-70819361D01*
X115548034Y-70925835D01*
X115771090Y-70998310D01*
X116002735Y-71035000D01*
X116860000Y-71035000D01*
X116860000Y-70155824D01*
X116917485Y-70179636D01*
X117044996Y-70205000D01*
X117175004Y-70205000D01*
X117302515Y-70179636D01*
X117360000Y-70155824D01*
X117360000Y-71035000D01*
X118217265Y-71035000D01*
X118448909Y-70998310D01*
X118671965Y-70925835D01*
X118880930Y-70819361D01*
X119070672Y-70681505D01*
X119236505Y-70515672D01*
X119374361Y-70325930D01*
X119480835Y-70116963D01*
X119553311Y-69893906D01*
X119553311Y-69893905D01*
X119568977Y-69795000D01*
X117720825Y-69795000D01*
X117744636Y-69737515D01*
X117770000Y-69610004D01*
X117770000Y-69479996D01*
X117744636Y-69352485D01*
X117720825Y-69295000D01*
X119568977Y-69295000D01*
X119553311Y-69196094D01*
X119553311Y-69196093D01*
X119480835Y-68973036D01*
X119374361Y-68764069D01*
X119236505Y-68574327D01*
X119070672Y-68408494D01*
X118880930Y-68270638D01*
X118671965Y-68164164D01*
X118448909Y-68091689D01*
X118217265Y-68055000D01*
X117360000Y-68055000D01*
X117360000Y-68934175D01*
X117302515Y-68910364D01*
X117175004Y-68885000D01*
X117044996Y-68885000D01*
X116917485Y-68910364D01*
X116860000Y-68934175D01*
X116860000Y-68055000D01*
X116002735Y-68055000D01*
X115771090Y-68091689D01*
X115548034Y-68164164D01*
X115339069Y-68270638D01*
X115149327Y-68408494D01*
X114983494Y-68574327D01*
X114845638Y-68764069D01*
X114739164Y-68973036D01*
X114666688Y-69196093D01*
X114666688Y-69196094D01*
X114651023Y-69295000D01*
X116499175Y-69295000D01*
X116475364Y-69352485D01*
X116450000Y-69479996D01*
X116450000Y-69610004D01*
X116475364Y-69737515D01*
X116499175Y-69795000D01*
X114651023Y-69795000D01*
X108229186Y-69795000D01*
X108227740Y-69794034D01*
X108227739Y-69794033D01*
X108227735Y-69794032D01*
X108154677Y-69779500D01*
X108154674Y-69779500D01*
X106125326Y-69779500D01*
X106125323Y-69779500D01*
X106052264Y-69794032D01*
X106052260Y-69794033D01*
X105969399Y-69849399D01*
X105914033Y-69932260D01*
X105914032Y-69932264D01*
X105899500Y-70005321D01*
X105899500Y-74014678D01*
X102853881Y-74014678D01*
X102948132Y-73946201D01*
X103086201Y-73808132D01*
X103200971Y-73650164D01*
X103289617Y-73476187D01*
X103349955Y-73290484D01*
X103365691Y-73191125D01*
X103380500Y-73097634D01*
X103380500Y-70922365D01*
X103362730Y-70810174D01*
X103349955Y-70729516D01*
X103289617Y-70543813D01*
X103289617Y-70543812D01*
X103240815Y-70448034D01*
X103200971Y-70369836D01*
X103105964Y-70239069D01*
X103086206Y-70211874D01*
X103086202Y-70211869D01*
X102948130Y-70073797D01*
X102948125Y-70073793D01*
X102790167Y-69959031D01*
X102790166Y-69959030D01*
X102790164Y-69959029D01*
X102734426Y-69930629D01*
X102616187Y-69870382D01*
X102616184Y-69870381D01*
X102430485Y-69810045D01*
X102237634Y-69779500D01*
X102237629Y-69779500D01*
X102042371Y-69779500D01*
X102042366Y-69779500D01*
X101849514Y-69810045D01*
X101663815Y-69870381D01*
X101663812Y-69870382D01*
X101489832Y-69959031D01*
X101331874Y-70073793D01*
X101331869Y-70073797D01*
X101193797Y-70211869D01*
X101193793Y-70211874D01*
X101079031Y-70369832D01*
X100990382Y-70543812D01*
X100990381Y-70543815D01*
X100930045Y-70729514D01*
X100899500Y-70922365D01*
X100899500Y-73097634D01*
X98380500Y-73097634D01*
X98380500Y-70922365D01*
X98362730Y-70810174D01*
X98349955Y-70729516D01*
X98289617Y-70543813D01*
X98289617Y-70543812D01*
X98240815Y-70448034D01*
X98200971Y-70369836D01*
X98105964Y-70239069D01*
X98086206Y-70211874D01*
X98086202Y-70211869D01*
X97948130Y-70073797D01*
X97948125Y-70073793D01*
X97790167Y-69959031D01*
X97790166Y-69959030D01*
X97790164Y-69959029D01*
X97734426Y-69930629D01*
X97616187Y-69870382D01*
X97616184Y-69870381D01*
X97430485Y-69810045D01*
X97237634Y-69779500D01*
X97237629Y-69779500D01*
X97042371Y-69779500D01*
X97042366Y-69779500D01*
X96849514Y-69810045D01*
X96663815Y-69870381D01*
X96663812Y-69870382D01*
X96489832Y-69959031D01*
X96331874Y-70073793D01*
X96331869Y-70073797D01*
X96193797Y-70211869D01*
X96193793Y-70211874D01*
X96079031Y-70369832D01*
X95990382Y-70543812D01*
X95990381Y-70543815D01*
X95930045Y-70729514D01*
X95899500Y-70922365D01*
X95899500Y-73097634D01*
X93630000Y-73097634D01*
X93630000Y-72260000D01*
X92750825Y-72260000D01*
X92774636Y-72202515D01*
X92800000Y-72075004D01*
X92800000Y-71944996D01*
X92774636Y-71817485D01*
X92750825Y-71760000D01*
X93630000Y-71760000D01*
X93630000Y-70902734D01*
X93593310Y-70671090D01*
X93520835Y-70448034D01*
X93414361Y-70239069D01*
X93276505Y-70049327D01*
X93110672Y-69883494D01*
X92920930Y-69745638D01*
X92711963Y-69639164D01*
X92488905Y-69566688D01*
X92390000Y-69551022D01*
X92390000Y-71399175D01*
X92332515Y-71375364D01*
X92205004Y-71350000D01*
X92074996Y-71350000D01*
X91947485Y-71375364D01*
X91890000Y-71399175D01*
X91890000Y-69551022D01*
X91791094Y-69566688D01*
X91791093Y-69566688D01*
X91568036Y-69639164D01*
X91359069Y-69745638D01*
X91169327Y-69883494D01*
X91003494Y-70049327D01*
X90865638Y-70239069D01*
X90759164Y-70448034D01*
X90686689Y-70671090D01*
X90650000Y-70902734D01*
X90650000Y-71760000D01*
X91529175Y-71760000D01*
X91505364Y-71817485D01*
X91480000Y-71944996D01*
X91480000Y-72075004D01*
X91505364Y-72202515D01*
X91529175Y-72260000D01*
X90650000Y-72260000D01*
X90650000Y-73117265D01*
X84280500Y-73117265D01*
X84280500Y-65594500D01*
X84300185Y-65527461D01*
X84352989Y-65481706D01*
X84404500Y-65470500D01*
X128375500Y-65470500D01*
X128442539Y-65490185D01*
G37*
%TD.AperFunction*%
%TD*%
M02*
