%TF.GenerationSoftware,KiCad,Pcbnew,8.0.1*%
%TF.CreationDate,2024-05-06T17:41:32-07:00*%
%TF.ProjectId,knockControlBoard,6b6e6f63-6b43-46f6-9e74-726f6c426f61,rev?*%
%TF.SameCoordinates,Original*%
%TF.FileFunction,Soldermask,Top*%
%TF.FilePolarity,Negative*%
%FSLAX46Y46*%
G04 Gerber Fmt 4.6, Leading zero omitted, Abs format (unit mm)*
G04 Created by KiCad (PCBNEW 8.0.1) date 2024-05-06 17:41:32*
%MOMM*%
%LPD*%
G01*
G04 APERTURE LIST*
G04 Aperture macros list*
%AMRoundRect*
0 Rectangle with rounded corners*
0 $1 Rounding radius*
0 $2 $3 $4 $5 $6 $7 $8 $9 X,Y pos of 4 corners*
0 Add a 4 corners polygon primitive as box body*
4,1,4,$2,$3,$4,$5,$6,$7,$8,$9,$2,$3,0*
0 Add four circle primitives for the rounded corners*
1,1,$1+$1,$2,$3*
1,1,$1+$1,$4,$5*
1,1,$1+$1,$6,$7*
1,1,$1+$1,$8,$9*
0 Add four rect primitives between the rounded corners*
20,1,$1+$1,$2,$3,$4,$5,0*
20,1,$1+$1,$4,$5,$6,$7,0*
20,1,$1+$1,$6,$7,$8,$9,0*
20,1,$1+$1,$8,$9,$2,$3,0*%
G04 Aperture macros list end*
%ADD10RoundRect,0.250000X-0.475000X0.337500X-0.475000X-0.337500X0.475000X-0.337500X0.475000X0.337500X0*%
%ADD11R,1.980000X3.960000*%
%ADD12O,1.980000X3.960000*%
%ADD13C,1.397000*%
%ADD14R,1.700000X1.700000*%
%ADD15O,1.700000X1.700000*%
%ADD16R,3.960000X1.980000*%
%ADD17O,3.960000X1.980000*%
%ADD18R,1.800000X1.800000*%
%ADD19C,1.800000*%
%ADD20RoundRect,0.162500X0.617500X0.162500X-0.617500X0.162500X-0.617500X-0.162500X0.617500X-0.162500X0*%
%ADD21RoundRect,0.100000X0.100000X-0.650000X0.100000X0.650000X-0.100000X0.650000X-0.100000X-0.650000X0*%
%ADD22R,1.450000X0.450000*%
%ADD23RoundRect,0.100000X0.650000X0.100000X-0.650000X0.100000X-0.650000X-0.100000X0.650000X-0.100000X0*%
%ADD24C,4.000000*%
%ADD25RoundRect,0.200000X0.275000X-0.200000X0.275000X0.200000X-0.275000X0.200000X-0.275000X-0.200000X0*%
%ADD26RoundRect,0.237500X-0.237500X0.250000X-0.237500X-0.250000X0.237500X-0.250000X0.237500X0.250000X0*%
%ADD27RoundRect,0.237500X-0.250000X-0.237500X0.250000X-0.237500X0.250000X0.237500X-0.250000X0.237500X0*%
%ADD28RoundRect,0.237500X0.237500X-0.250000X0.237500X0.250000X-0.237500X0.250000X-0.237500X-0.250000X0*%
%ADD29RoundRect,0.062500X-0.062500X0.117500X-0.062500X-0.117500X0.062500X-0.117500X0.062500X0.117500X0*%
%ADD30RoundRect,0.250000X-0.650000X1.000000X-0.650000X-1.000000X0.650000X-1.000000X0.650000X1.000000X0*%
%ADD31R,1.600000X1.600000*%
%ADD32C,1.600000*%
G04 APERTURE END LIST*
D10*
%TO.C,C4*%
X111300000Y-94847500D03*
X111300000Y-92772500D03*
%TD*%
%TO.C,C1*%
X100570000Y-98632500D03*
X100570000Y-100707500D03*
%TD*%
D11*
%TO.C,J7*%
X107140000Y-72010000D03*
D12*
X102140000Y-72010000D03*
X97140000Y-72010000D03*
X92140000Y-72010000D03*
%TD*%
D13*
%TO.C,SW2*%
X87850000Y-92480000D03*
X87850000Y-84860000D03*
X92930000Y-92480000D03*
X92930000Y-84860000D03*
%TD*%
%TO.C,SW1*%
X95590000Y-113960000D03*
X87970000Y-113960000D03*
X95590000Y-108880000D03*
X87970000Y-108880000D03*
%TD*%
D14*
%TO.C,RV2*%
X121380000Y-112685000D03*
D15*
X121380000Y-110145000D03*
X121380000Y-107605000D03*
%TD*%
D14*
%TO.C,RV1*%
X121480000Y-102270000D03*
D15*
X121480000Y-99730000D03*
X121480000Y-97190000D03*
%TD*%
D16*
%TO.C,J5*%
X117110000Y-74545000D03*
D17*
X117110000Y-69545000D03*
%TD*%
D16*
%TO.C,J4*%
X117170000Y-86080000D03*
D17*
X117170000Y-81080000D03*
%TD*%
D16*
%TO.C,J1*%
X92740000Y-98190000D03*
D17*
X92740000Y-103190000D03*
%TD*%
D18*
%TO.C,D3*%
X108070000Y-113697621D03*
D19*
X108070000Y-111157621D03*
%TD*%
D20*
%TO.C,U7*%
X116370000Y-93510000D03*
X116370000Y-92560000D03*
X116370000Y-91610000D03*
X113670000Y-91610000D03*
X113670000Y-93510000D03*
%TD*%
D21*
%TO.C,U6*%
X110187500Y-106117621D03*
X110837500Y-106117621D03*
X111487500Y-106117621D03*
X111487500Y-103457621D03*
X110187500Y-103457621D03*
%TD*%
D20*
%TO.C,U4*%
X116267500Y-97950000D03*
X116267500Y-97000000D03*
X116267500Y-96050000D03*
X113567500Y-96050000D03*
X113567500Y-97950000D03*
%TD*%
D22*
%TO.C,U3*%
X111010000Y-98297500D03*
X111010000Y-98947500D03*
X111010000Y-99597500D03*
X111010000Y-100247500D03*
X106610000Y-100247500D03*
X106610000Y-99597500D03*
X106610000Y-98947500D03*
X106610000Y-98297500D03*
%TD*%
D20*
%TO.C,U2*%
X109150000Y-94890000D03*
X109150000Y-93940000D03*
X109150000Y-92990000D03*
X106450000Y-92990000D03*
X106450000Y-93940000D03*
X106450000Y-94890000D03*
%TD*%
D23*
%TO.C,U1*%
X116117500Y-105127621D03*
X116117500Y-104477621D03*
X116117500Y-103827621D03*
X113457500Y-103827621D03*
X113457500Y-105127621D03*
%TD*%
D24*
%TO.C,TP4*%
X103100000Y-104610000D03*
%TD*%
%TO.C,TP3*%
X105380000Y-89530000D03*
%TD*%
%TO.C,TP2*%
X122160000Y-92240000D03*
%TD*%
%TO.C,TP1*%
X102460000Y-111060000D03*
%TD*%
D25*
%TO.C,R11*%
X107975000Y-109127621D03*
X107975000Y-107477621D03*
%TD*%
D26*
%TO.C,R10*%
X113770000Y-99697500D03*
X113770000Y-101522500D03*
%TD*%
D27*
%TO.C,R3*%
X107775000Y-96667500D03*
X109600000Y-96667500D03*
%TD*%
D28*
%TO.C,R2*%
X100710000Y-96880000D03*
X100710000Y-95055000D03*
%TD*%
D29*
%TO.C,D2*%
X116027500Y-107397621D03*
X116027500Y-106557621D03*
%TD*%
D30*
%TO.C,D1*%
X103450000Y-99520000D03*
X103450000Y-95520000D03*
%TD*%
D31*
%TO.C,C10*%
X114270000Y-110287621D03*
D32*
X114270000Y-112787621D03*
%TD*%
M02*
