%TF.GenerationSoftware,KiCad,Pcbnew,8.0.1*%
%TF.CreationDate,2024-06-10T18:05:53-07:00*%
%TF.ProjectId,knockControlBoard,6b6e6f63-6b43-46f6-9e74-726f6c426f61,rev?*%
%TF.SameCoordinates,Original*%
%TF.FileFunction,Copper,L2,Bot*%
%TF.FilePolarity,Positive*%
%FSLAX46Y46*%
G04 Gerber Fmt 4.6, Leading zero omitted, Abs format (unit mm)*
G04 Created by KiCad (PCBNEW 8.0.1) date 2024-06-10 18:05:53*
%MOMM*%
%LPD*%
G01*
G04 APERTURE LIST*
G04 Aperture macros list*
%AMRoundRect*
0 Rectangle with rounded corners*
0 $1 Rounding radius*
0 $2 $3 $4 $5 $6 $7 $8 $9 X,Y pos of 4 corners*
0 Add a 4 corners polygon primitive as box body*
4,1,4,$2,$3,$4,$5,$6,$7,$8,$9,$2,$3,0*
0 Add four circle primitives for the rounded corners*
1,1,$1+$1,$2,$3*
1,1,$1+$1,$4,$5*
1,1,$1+$1,$6,$7*
1,1,$1+$1,$8,$9*
0 Add four rect primitives between the rounded corners*
20,1,$1+$1,$2,$3,$4,$5,0*
20,1,$1+$1,$4,$5,$6,$7,0*
20,1,$1+$1,$6,$7,$8,$9,0*
20,1,$1+$1,$8,$9,$2,$3,0*%
G04 Aperture macros list end*
%TA.AperFunction,ComponentPad*%
%ADD10C,2.000000*%
%TD*%
%TA.AperFunction,ComponentPad*%
%ADD11R,1.600000X1.600000*%
%TD*%
%TA.AperFunction,ComponentPad*%
%ADD12O,1.600000X1.600000*%
%TD*%
%TA.AperFunction,SMDPad,CuDef*%
%ADD13RoundRect,0.237500X-0.237500X0.250000X-0.237500X-0.250000X0.237500X-0.250000X0.237500X0.250000X0*%
%TD*%
%TA.AperFunction,SMDPad,CuDef*%
%ADD14RoundRect,0.150000X-0.587500X-0.150000X0.587500X-0.150000X0.587500X0.150000X-0.587500X0.150000X0*%
%TD*%
%TA.AperFunction,SMDPad,CuDef*%
%ADD15RoundRect,0.150000X0.150000X-0.587500X0.150000X0.587500X-0.150000X0.587500X-0.150000X-0.587500X0*%
%TD*%
%TA.AperFunction,ComponentPad*%
%ADD16O,1.700000X1.700000*%
%TD*%
%TA.AperFunction,ComponentPad*%
%ADD17R,1.700000X1.700000*%
%TD*%
%TA.AperFunction,SMDPad,CuDef*%
%ADD18RoundRect,0.237500X-0.250000X-0.237500X0.250000X-0.237500X0.250000X0.237500X-0.250000X0.237500X0*%
%TD*%
%TA.AperFunction,SMDPad,CuDef*%
%ADD19RoundRect,0.100000X-0.650000X-0.100000X0.650000X-0.100000X0.650000X0.100000X-0.650000X0.100000X0*%
%TD*%
%TA.AperFunction,SMDPad,CuDef*%
%ADD20RoundRect,0.250000X-0.337500X-0.475000X0.337500X-0.475000X0.337500X0.475000X-0.337500X0.475000X0*%
%TD*%
%TA.AperFunction,ComponentPad*%
%ADD21C,1.397000*%
%TD*%
%TA.AperFunction,SMDPad,CuDef*%
%ADD22RoundRect,0.250000X0.337500X0.475000X-0.337500X0.475000X-0.337500X-0.475000X0.337500X-0.475000X0*%
%TD*%
%TA.AperFunction,ComponentPad*%
%ADD23C,1.800000*%
%TD*%
%TA.AperFunction,ComponentPad*%
%ADD24R,1.800000X1.800000*%
%TD*%
%TA.AperFunction,SMDPad,CuDef*%
%ADD25RoundRect,0.250000X0.475000X-0.337500X0.475000X0.337500X-0.475000X0.337500X-0.475000X-0.337500X0*%
%TD*%
%TA.AperFunction,SMDPad,CuDef*%
%ADD26RoundRect,0.250000X-0.475000X0.337500X-0.475000X-0.337500X0.475000X-0.337500X0.475000X0.337500X0*%
%TD*%
%TA.AperFunction,SMDPad,CuDef*%
%ADD27RoundRect,0.237500X0.250000X0.237500X-0.250000X0.237500X-0.250000X-0.237500X0.250000X-0.237500X0*%
%TD*%
%TA.AperFunction,ViaPad*%
%ADD28C,0.600000*%
%TD*%
%TA.AperFunction,Conductor*%
%ADD29C,0.250000*%
%TD*%
%TA.AperFunction,Conductor*%
%ADD30C,0.500000*%
%TD*%
%TA.AperFunction,Conductor*%
%ADD31C,0.750000*%
%TD*%
%TA.AperFunction,Conductor*%
%ADD32C,1.000000*%
%TD*%
G04 APERTURE END LIST*
D10*
%TO.P,TP3,1,1*%
%TO.N,retard duration*%
X-14430000Y-21830000D03*
%TD*%
D11*
%TO.P,D4,1,K*%
%TO.N,Net-(D4-K)*%
X345686Y-13820000D03*
D12*
%TO.P,D4,2,A*%
%TO.N,Net-(D4-A)*%
X2885686Y-13820000D03*
%TD*%
D10*
%TO.P,TP2,1,1*%
%TO.N,retard_trig_lvl*%
X-14550000Y-16800000D03*
%TD*%
%TO.P,TP1,1,1*%
%TO.N,GND*%
X-13810000Y-80000D03*
%TD*%
D13*
%TO.P,R10,2*%
%TO.N,+5V*%
X13740000Y-20095000D03*
%TO.P,R10,1*%
%TO.N,retarder_trig*%
X13740000Y-18270000D03*
%TD*%
D14*
%TO.P,Q4,3,D*%
%TO.N,retarder_trig*%
X11777500Y-19100000D03*
%TO.P,Q4,2,S*%
%TO.N,GND*%
X9902500Y-18150000D03*
%TO.P,Q4,1,G*%
%TO.N,Net-(Q4-G)*%
X9902500Y-20050000D03*
%TD*%
D15*
%TO.P,Q3,3,D*%
%TO.N,Net-(Q3-D)*%
X10920000Y-14185000D03*
%TO.P,Q3,2,S*%
%TO.N,GND*%
X9970000Y-16060000D03*
%TO.P,Q3,1,G*%
%TO.N,retarder_trig*%
X11870000Y-16060000D03*
%TD*%
D16*
%TO.P,J4,6,Pin_6*%
%TO.N,retard_trig_lvl*%
X12700000Y-25000000D03*
%TO.P,J4,5,Pin_5*%
%TO.N,retard duration*%
X10160000Y-25000000D03*
%TO.P,J4,4,Pin_4*%
%TO.N,retarder_in*%
X7620000Y-25000000D03*
%TO.P,J4,3,Pin_3*%
%TO.N,log_sync*%
X5080000Y-25000000D03*
%TO.P,J4,2,Pin_2*%
%TO.N,+5V*%
X2540000Y-25000000D03*
D17*
%TO.P,J4,1,Pin_1*%
%TO.N,GND*%
X0Y-25000000D03*
%TD*%
%TO.P,J2,1,Pin_1*%
%TO.N,GND*%
X0Y0D03*
D16*
%TO.P,J2,2,Pin_2*%
%TO.N,+5V*%
X2540000Y0D03*
%TO.P,J2,3,Pin_3*%
%TO.N,log_sync*%
X5080000Y0D03*
%TO.P,J2,4,Pin_4*%
%TO.N,retarder_trig*%
X7620000Y0D03*
%TO.P,J2,5,Pin_5*%
%TO.N,retard duration*%
X10160000Y0D03*
%TO.P,J2,6,Pin_6*%
%TO.N,retard_trig_lvl*%
X12700000Y0D03*
%TD*%
D13*
%TO.P,R7,2*%
%TO.N,Net-(Q4-G)*%
X8090000Y-20432500D03*
%TO.P,R7,1*%
%TO.N,GND*%
X8090000Y-18607500D03*
%TD*%
D17*
%TO.P,J7,1,Pin_1*%
%TO.N,log_out*%
X-14250000Y-5370000D03*
D16*
%TO.P,J7,2,Pin_2*%
%TO.N,retarder_out*%
X-14250000Y-7910000D03*
%TO.P,J7,3,Pin_3*%
%TO.N,log_sync*%
X-14250000Y-10450000D03*
%TO.P,J7,4,Pin_4*%
%TO.N,GND*%
X-14250000Y-12990000D03*
%TD*%
%TO.P,J5,2,Pin_2*%
%TO.N,GND*%
X-6155000Y180000D03*
D17*
%TO.P,J5,1,Pin_1*%
%TO.N,+5V*%
X-8695000Y180000D03*
%TD*%
D16*
%TO.P,J1,2,Pin_2*%
%TO.N,Net-(J1-Pin_2)*%
X-9050000Y-8540000D03*
D17*
%TO.P,J1,1,Pin_1*%
%TO.N,GND*%
X-9050000Y-6000000D03*
%TD*%
D13*
%TO.P,R5,2*%
%TO.N,GND*%
X-870000Y-20105000D03*
%TO.P,R5,1*%
%TO.N,Net-(U1-IN+)*%
X-870000Y-18280000D03*
%TD*%
D18*
%TO.P,R2,2*%
%TO.N,GND*%
X-2207500Y-11530000D03*
%TO.P,R2,1*%
%TO.N,Net-(R2-Pad1)*%
X-4032500Y-11530000D03*
%TD*%
D17*
%TO.P,RV2,1,1*%
%TO.N,+5V*%
X-9385000Y-23850000D03*
D16*
%TO.P,RV2,2,2*%
%TO.N,retard duration*%
X-6845000Y-23850000D03*
%TO.P,RV2,3,3*%
%TO.N,GND*%
X-4305000Y-23850000D03*
%TD*%
D19*
%TO.P,U1,5,VDD*%
%TO.N,+5V*%
X5890000Y-19300000D03*
%TO.P,U1,4,IN-*%
%TO.N,retard_trig_lvl*%
X5890000Y-18000000D03*
%TO.P,U1,3,IN+*%
%TO.N,Net-(U1-IN+)*%
X3230000Y-18000000D03*
%TO.P,U1,2,VSS*%
%TO.N,GND*%
X3230000Y-18650000D03*
%TO.P,U1,1,OUT*%
%TO.N,Net-(Q4-G)*%
X3230000Y-19300000D03*
%TD*%
D20*
%TO.P,C1,2*%
%TO.N,Net-(U1-IN+)*%
X1137500Y-16400000D03*
%TO.P,C1,1*%
%TO.N,Net-(C1-Pad1)*%
X-937500Y-16400000D03*
%TD*%
D17*
%TO.P,RV3,1,1*%
%TO.N,unconnected-(RV3-Pad1)*%
X-9350000Y-14000000D03*
D16*
%TO.P,RV3,2,2*%
%TO.N,Net-(C1-Pad1)*%
X-6810000Y-14000000D03*
%TO.P,RV3,3,3*%
%TO.N,Net-(R2-Pad1)*%
X-4270000Y-14000000D03*
%TD*%
D21*
%TO.P,SW1,2,2*%
%TO.N,Net-(C1-Pad1)*%
X2340000Y-9220000D03*
X-5280000Y-9220000D03*
%TO.P,SW1,1,1*%
%TO.N,+5V*%
X2340000Y-4140000D03*
X-5280000Y-4140000D03*
%TD*%
D22*
%TO.P,C4,2*%
%TO.N,Net-(D4-K)*%
X4792500Y-12440000D03*
%TO.P,C4,1*%
%TO.N,GND*%
X6867500Y-12440000D03*
%TD*%
D18*
%TO.P,R1,2*%
%TO.N,Net-(C1-Pad1)*%
X-6587500Y-11410000D03*
%TO.P,R1,1*%
%TO.N,Net-(J1-Pin_2)*%
X-8412500Y-11410000D03*
%TD*%
D19*
%TO.P,U6,5,VDD*%
%TO.N,+5V*%
X13030000Y-12252500D03*
%TO.P,U6,4,IN-*%
%TO.N,retard duration*%
X13030000Y-10952500D03*
%TO.P,U6,3,IN+*%
%TO.N,Net-(U4-D)*%
X10370000Y-10952500D03*
%TO.P,U6,2,VSS*%
%TO.N,GND*%
X10370000Y-11602500D03*
%TO.P,U6,1,OUT*%
%TO.N,retarder_out*%
X10370000Y-12252500D03*
%TD*%
D23*
%TO.P,D3,2,A*%
%TO.N,Net-(D3-A)*%
X12970000Y-5580000D03*
D24*
%TO.P,D3,1,K*%
%TO.N,Net-(D3-K)*%
X10430000Y-5580000D03*
%TD*%
D16*
%TO.P,RV1,3,3*%
%TO.N,GND*%
X-4175000Y-18880000D03*
%TO.P,RV1,2,2*%
%TO.N,retard_trig_lvl*%
X-6715000Y-18880000D03*
D17*
%TO.P,RV1,1,1*%
%TO.N,+5V*%
X-9255000Y-18880000D03*
%TD*%
D15*
%TO.P,Q1,3,D*%
%TO.N,Net-(D3-K)*%
X7430000Y-5122500D03*
%TO.P,Q1,2,S*%
%TO.N,GND*%
X6480000Y-6997500D03*
%TO.P,Q1,1,G*%
%TO.N,retarder_out*%
X8380000Y-6997500D03*
%TD*%
D25*
%TO.P,C11,2*%
%TO.N,+5V*%
X13920000Y-14222500D03*
%TO.P,C11,1*%
%TO.N,GND*%
X13920000Y-16297500D03*
%TD*%
D22*
%TO.P,C9,2*%
%TO.N,GND*%
X-11220000Y-2830000D03*
%TO.P,C9,1*%
%TO.N,+5V*%
X-9145000Y-2830000D03*
%TD*%
D26*
%TO.P,C3,2*%
%TO.N,+5V*%
X4390000Y-7830000D03*
%TO.P,C3,1*%
%TO.N,GND*%
X4390000Y-5755000D03*
%TD*%
D20*
%TO.P,C5,2*%
%TO.N,+5V*%
X3157500Y-21900000D03*
%TO.P,C5,1*%
%TO.N,GND*%
X1082500Y-21900000D03*
%TD*%
D27*
%TO.P,R11,2*%
%TO.N,+5V*%
X10925000Y-3520000D03*
%TO.P,R11,1*%
%TO.N,Net-(D3-A)*%
X12750000Y-3520000D03*
%TD*%
D22*
%TO.P,C7,2*%
%TO.N,+5V*%
X6700000Y-22250000D03*
%TO.P,C7,1*%
%TO.N,GND*%
X8775000Y-22250000D03*
%TD*%
D28*
%TO.N,GND*%
X11080000Y-17400000D03*
X11130000Y-18090000D03*
%TO.N,retarder_trig*%
X14820000Y-12650000D03*
%TO.N,GND*%
X12740000Y-17330000D03*
X14190000Y-16590000D03*
X11720000Y-11910000D03*
X6240000Y-16650000D03*
X9080000Y-14890000D03*
X9160000Y-16830000D03*
X6080000Y-15610000D03*
X9260000Y-21780000D03*
X9540000Y-7500000D03*
X12110000Y-7630000D03*
X13520000Y-7650000D03*
X10410000Y-9910000D03*
X9790000Y-9910000D03*
X4060000Y-15430000D03*
X4070000Y-16760000D03*
X1690000Y-15130000D03*
X2330000Y-16720000D03*
X6000000Y-7200000D03*
X3650000Y-4700000D03*
%TO.N,+5V*%
X9910000Y-21060000D03*
%TO.N,Net-(D4-K)*%
X5990000Y-10010000D03*
%TO.N,+5V*%
X7270000Y-21182500D03*
X2640000Y-20940000D03*
X7520000Y-17220000D03*
X13090000Y-13700000D03*
X4260000Y-9060000D03*
%TO.N,retarder_out*%
X-9230000Y-10520000D03*
X-4610017Y-10627366D03*
%TO.N,log_out*%
X-830000Y-11840000D03*
X3000000Y-12390000D03*
%TO.N,retarder_trig*%
X11620000Y-15790000D03*
%TO.N,Net-(Q3-D)*%
X10045000Y-14100000D03*
%TO.N,retarder_in*%
X10667500Y-21810000D03*
%TO.N,Net-(U4-D)*%
X9170000Y-11090000D03*
%TO.N,Net-(D4-K)*%
X3360000Y-11600000D03*
%TO.N,retard_trig_lvl*%
X5009412Y-20415000D03*
%TO.N,Net-(U1-IN+)*%
X1210000Y-17150000D03*
%TD*%
D29*
%TO.N,retarder_trig*%
X15120000Y-12950000D02*
X14820000Y-12650000D01*
X15120000Y-14720000D02*
X15120000Y-12950000D01*
X14580000Y-15260000D02*
X15120000Y-14720000D01*
%TO.N,retard duration*%
X15695000Y-11715000D02*
X15320000Y-12090000D01*
X15695000Y-4015000D02*
X15695000Y-11715000D01*
X11280000Y-2280000D02*
X13960000Y-2280000D01*
X13960000Y-2280000D02*
X15695000Y-4015000D01*
X10160000Y-1160000D02*
X11280000Y-2280000D01*
X10160000Y0D02*
X10160000Y-1160000D01*
X15570000Y-12340000D02*
X15320000Y-12090000D01*
X15570000Y-20740000D02*
X15570000Y-12340000D01*
X14160000Y-22150000D02*
X15570000Y-20740000D01*
X11700000Y-22150000D02*
X14160000Y-22150000D01*
X10160000Y-23690000D02*
X11700000Y-22150000D01*
X10160000Y-25000000D02*
X10160000Y-23690000D01*
%TO.N,retarder_trig*%
X12670000Y-15260000D02*
X14580000Y-15260000D01*
X11870000Y-16060000D02*
X12670000Y-15260000D01*
D30*
%TO.N,retarder_in*%
X10667500Y-21810000D02*
X10667500Y-22166878D01*
X10667500Y-22166878D02*
X7834378Y-25000000D01*
X7834378Y-25000000D02*
X7620000Y-25000000D01*
D31*
%TO.N,+5V*%
X2610000Y-24930000D02*
X2540000Y-25000000D01*
X2610000Y-23430000D02*
X2610000Y-24930000D01*
X-9255000Y-21025000D02*
X-9255000Y-18880000D01*
X-8920000Y-21360000D02*
X-9255000Y-21025000D01*
X-8920000Y-21380000D02*
X-8920000Y-21360000D01*
X-4759745Y-21380000D02*
X-8920000Y-21380000D01*
X-2709745Y-23430000D02*
X-4759745Y-21380000D01*
X3157500Y-23430000D02*
X-2709745Y-23430000D01*
X-9385000Y-21845000D02*
X-9385000Y-23850000D01*
X-8920000Y-21380000D02*
X-9385000Y-21845000D01*
X3157500Y-21900000D02*
X3157500Y-23430000D01*
D30*
%TO.N,log_sync*%
X3770000Y-26310000D02*
X5080000Y-25000000D01*
X-10310000Y-26310000D02*
X3770000Y-26310000D01*
X-12350000Y-24270000D02*
X-10310000Y-26310000D01*
X-12350000Y-11750000D02*
X-12350000Y-24270000D01*
X-14250000Y-10450000D02*
X-13650000Y-10450000D01*
X-13650000Y-10450000D02*
X-12350000Y-11750000D01*
%TO.N,+5V*%
X12775000Y-21060000D02*
X9910000Y-21060000D01*
X13740000Y-20095000D02*
X12775000Y-21060000D01*
%TO.N,Net-(D4-K)*%
X5990000Y-11242500D02*
X4792500Y-12440000D01*
X5990000Y-10010000D02*
X5990000Y-11242500D01*
%TO.N,retarder_out*%
X4118226Y-10368500D02*
X-4351151Y-10368500D01*
X-4351151Y-10368500D02*
X-4610017Y-10627366D01*
X5085000Y-9401726D02*
X4118226Y-10368500D01*
X5085000Y-9205000D02*
X5085000Y-9401726D01*
X7192500Y-8185000D02*
X6105000Y-8185000D01*
X6105000Y-8185000D02*
X5085000Y-9205000D01*
X8380000Y-6997500D02*
X7192500Y-8185000D01*
%TO.N,+5V*%
X12387500Y-12997500D02*
X13090000Y-13700000D01*
X8882500Y-12997500D02*
X12387500Y-12997500D01*
X7520000Y-14360000D02*
X8882500Y-12997500D01*
X7520000Y-17220000D02*
X7520000Y-14360000D01*
%TO.N,Net-(Q3-D)*%
X10835000Y-14100000D02*
X10920000Y-14185000D01*
X10045000Y-14100000D02*
X10835000Y-14100000D01*
%TO.N,+5V*%
X7270000Y-21182500D02*
X7270000Y-21680000D01*
X7270000Y-21680000D02*
X6700000Y-22250000D01*
D31*
X3157500Y-21457500D02*
X2640000Y-20940000D01*
X3157500Y-21900000D02*
X3157500Y-21457500D01*
X3507500Y-22250000D02*
X3157500Y-21900000D01*
X6700000Y-22250000D02*
X3507500Y-22250000D01*
D30*
X7150000Y-17590000D02*
X7520000Y-17220000D01*
X7150000Y-18789999D02*
X7150000Y-17590000D01*
X6639999Y-19300000D02*
X7150000Y-18789999D01*
X5890000Y-19300000D02*
X6639999Y-19300000D01*
%TO.N,Net-(Q4-G)*%
X4600000Y-21300000D02*
X3230000Y-19930000D01*
X3230000Y-19930000D02*
X3230000Y-19300000D01*
X6397500Y-20432500D02*
X5530000Y-21300000D01*
X8090000Y-20432500D02*
X6397500Y-20432500D01*
X5530000Y-21300000D02*
X4600000Y-21300000D01*
X8472500Y-20050000D02*
X8090000Y-20432500D01*
X9902500Y-20050000D02*
X8472500Y-20050000D01*
D31*
%TO.N,+5V*%
X13612500Y-14222500D02*
X13090000Y-13700000D01*
X13920000Y-14222500D02*
X13612500Y-14222500D01*
X13920000Y-13142500D02*
X13030000Y-12252500D01*
X13920000Y-14222500D02*
X13920000Y-13142500D01*
X4260000Y-7960000D02*
X4390000Y-7830000D01*
X4260000Y-9060000D02*
X4260000Y-7960000D01*
D32*
X4302070Y-7830000D02*
X4390000Y-7830000D01*
X2340000Y-5867930D02*
X4302070Y-7830000D01*
X2340000Y-4140000D02*
X2340000Y-5867930D01*
X2960000Y-3520000D02*
X2340000Y-4140000D01*
X10925000Y-3520000D02*
X2960000Y-3520000D01*
X2340000Y-200000D02*
X2540000Y0D01*
X2340000Y-4140000D02*
X2340000Y-200000D01*
X-5280000Y-4140000D02*
X2340000Y-4140000D01*
X-6590000Y-2830000D02*
X-5280000Y-4140000D01*
X-9145000Y-2830000D02*
X-6590000Y-2830000D01*
X-8695000Y-2380000D02*
X-9145000Y-2830000D01*
X-8695000Y180000D02*
X-8695000Y-2380000D01*
D30*
%TO.N,Net-(C1-Pad1)*%
X-5150000Y-15660000D02*
X-6810000Y-14000000D01*
X-1677500Y-15660000D02*
X-5150000Y-15660000D01*
X-937500Y-16400000D02*
X-1677500Y-15660000D01*
%TO.N,retarder_out*%
X-11640000Y-10520000D02*
X-14250000Y-7910000D01*
X-9230000Y-10520000D02*
X-11640000Y-10520000D01*
X8380000Y-10940000D02*
X8380000Y-11750000D01*
X8380000Y-6997500D02*
X8380000Y-10940000D01*
%TO.N,Net-(D4-K)*%
X3360000Y-11600000D02*
X3952500Y-11600000D01*
X3952500Y-11600000D02*
X4792500Y-12440000D01*
%TO.N,retarder_out*%
X8882500Y-12252500D02*
X10370000Y-12252500D01*
%TO.N,Net-(D3-K)*%
X7887500Y-5580000D02*
X10430000Y-5580000D01*
X7430000Y-5122500D02*
X7887500Y-5580000D01*
%TO.N,retarder_out*%
X8380000Y-11750000D02*
X8882500Y-12252500D01*
%TO.N,Net-(C1-Pad1)*%
X-5280000Y-9220000D02*
X2340000Y-9220000D01*
%TO.N,log_out*%
X2450000Y-11840000D02*
X-830000Y-11840000D01*
X3000000Y-12390000D02*
X2450000Y-11840000D01*
%TO.N,retard_trig_lvl*%
X5200000Y-18000000D02*
X5890000Y-18000000D01*
X4640000Y-18560000D02*
X5200000Y-18000000D01*
X5009412Y-20415000D02*
X4640000Y-20045588D01*
X4640000Y-20045588D02*
X4640000Y-18560000D01*
%TO.N,Net-(D3-A)*%
X12750000Y-5360000D02*
X12970000Y-5580000D01*
X12750000Y-3520000D02*
X12750000Y-5360000D01*
D29*
%TO.N,retard duration*%
X14182500Y-10952500D02*
X13030000Y-10952500D01*
X15320000Y-12090000D02*
X14182500Y-10952500D01*
D30*
%TO.N,retarder_trig*%
X11870000Y-16040000D02*
X11620000Y-15790000D01*
X11870000Y-16060000D02*
X11870000Y-16040000D01*
%TO.N,Net-(J1-Pin_2)*%
X-8412500Y-9177500D02*
X-9050000Y-8540000D01*
X-8412500Y-11410000D02*
X-8412500Y-9177500D01*
%TO.N,Net-(U4-D)*%
X9307500Y-10952500D02*
X9170000Y-11090000D01*
X10370000Y-10952500D02*
X9307500Y-10952500D01*
%TO.N,Net-(U1-IN+)*%
X2060000Y-18000000D02*
X1210000Y-17150000D01*
X3230000Y-18000000D02*
X2060000Y-18000000D01*
D29*
%TO.N,retarder_trig*%
X13740000Y-18270000D02*
X12127500Y-18270000D01*
X11777500Y-17920000D02*
X11777500Y-16152500D01*
X12127500Y-18270000D02*
X11777500Y-17920000D01*
X11777500Y-19100000D02*
X11777500Y-17920000D01*
X11777500Y-16152500D02*
X11870000Y-16060000D01*
D30*
%TO.N,Net-(R2-Pad1)*%
X-4032500Y-13762500D02*
X-4270000Y-14000000D01*
X-4032500Y-11530000D02*
X-4032500Y-13762500D01*
%TO.N,Net-(U1-IN+)*%
X-870000Y-18280000D02*
X80000Y-18280000D01*
X80000Y-18280000D02*
X1210000Y-17150000D01*
X1210000Y-16472500D02*
X1137500Y-16400000D01*
X1210000Y-17150000D02*
X1210000Y-16472500D01*
%TO.N,Net-(C1-Pad1)*%
X-5280000Y-9220000D02*
X-6587500Y-10527500D01*
X-6587500Y-10527500D02*
X-6587500Y-11410000D01*
X-6810000Y-14000000D02*
X-6810000Y-11632500D01*
X-6810000Y-11632500D02*
X-6587500Y-11410000D01*
%TD*%
%TA.AperFunction,Conductor*%
%TO.N,GND*%
G36*
X-6625973Y1659815D02*
G01*
X-6580218Y1607011D01*
X-6570274Y1537853D01*
X-6599299Y1474297D01*
X-6640607Y1443118D01*
X-6832577Y1353600D01*
X-6832579Y1353599D01*
X-7026073Y1218113D01*
X-7026079Y1218108D01*
X-7193108Y1051079D01*
X-7193113Y1051073D01*
X-7328599Y857579D01*
X-7328602Y857573D01*
X-7358118Y794277D01*
X-7404290Y741837D01*
X-7471483Y722685D01*
X-7538364Y742900D01*
X-7583699Y796065D01*
X-7594500Y846681D01*
X-7594500Y1054678D01*
X-7609032Y1127735D01*
X-7609033Y1127739D01*
X-7627405Y1155235D01*
X-7664399Y1210601D01*
X-7747260Y1265966D01*
X-7747264Y1265967D01*
X-7820323Y1280500D01*
X-7820326Y1280500D01*
X-9569674Y1280500D01*
X-9569677Y1280500D01*
X-9642735Y1265967D01*
X-9642740Y1265966D01*
X-9725601Y1210601D01*
X-9780966Y1127740D01*
X-9795500Y1054674D01*
X-9795500Y-694674D01*
X-9780966Y-767740D01*
X-9725601Y-850601D01*
X-9642740Y-905966D01*
X-9569677Y-920499D01*
X-9569676Y-920500D01*
X-9569674Y-920500D01*
X-9569500Y-920500D01*
X-9569410Y-920526D01*
X-9563614Y-921097D01*
X-9563722Y-922196D01*
X-9502461Y-940185D01*
X-9456706Y-992989D01*
X-9445500Y-1044500D01*
X-9445500Y-1733992D01*
X-9465185Y-1801031D01*
X-9517989Y-1846786D01*
X-9556246Y-1857282D01*
X-9589983Y-1860908D01*
X-9724828Y-1911202D01*
X-9724835Y-1911206D01*
X-9840044Y-1997452D01*
X-9840047Y-1997455D01*
X-9926293Y-2112664D01*
X-9926298Y-2112673D01*
X-9933681Y-2132468D01*
X-9975551Y-2188402D01*
X-10041015Y-2212820D01*
X-10109288Y-2197969D01*
X-10158694Y-2148565D01*
X-10167569Y-2128141D01*
X-10198142Y-2035878D01*
X-10198143Y-2035875D01*
X-10290184Y-1886654D01*
X-10414154Y-1762684D01*
X-10563375Y-1670643D01*
X-10563380Y-1670641D01*
X-10729802Y-1615494D01*
X-10729809Y-1615493D01*
X-10832513Y-1605000D01*
X-10845000Y-1605000D01*
X-10845000Y-4054999D01*
X-10832528Y-4054999D01*
X-10832513Y-4054998D01*
X-10729802Y-4044505D01*
X-10563380Y-3989358D01*
X-10563375Y-3989356D01*
X-10414154Y-3897315D01*
X-10290184Y-3773345D01*
X-10198143Y-3624124D01*
X-10198141Y-3624119D01*
X-10167569Y-3531859D01*
X-10127796Y-3474414D01*
X-10063280Y-3447591D01*
X-9994504Y-3459906D01*
X-9943304Y-3507449D01*
X-9933680Y-3527531D01*
X-9926296Y-3547331D01*
X-9840046Y-3662546D01*
X-9724831Y-3748796D01*
X-9589983Y-3799091D01*
X-9530373Y-3805500D01*
X-8759628Y-3805499D01*
X-8711257Y-3800299D01*
X-8700016Y-3799091D01*
X-8565171Y-3748797D01*
X-8565164Y-3748793D01*
X-8478595Y-3683987D01*
X-8449954Y-3662546D01*
X-8449952Y-3662544D01*
X-8449949Y-3662541D01*
X-8425732Y-3630190D01*
X-8369799Y-3588318D01*
X-8326465Y-3580500D01*
X-6952230Y-3580500D01*
X-6885191Y-3600185D01*
X-6864548Y-3616819D01*
X-6253188Y-4228178D01*
X-6219705Y-4289499D01*
X-6217468Y-4303701D01*
X-6215269Y-4326037D01*
X-6161004Y-4504924D01*
X-6072883Y-4669787D01*
X-5954291Y-4814291D01*
X-5809787Y-4932883D01*
X-5749354Y-4965185D01*
X-5662913Y-5011389D01*
X-5644924Y-5021004D01*
X-5466037Y-5075269D01*
X-5280000Y-5093592D01*
X-5093963Y-5075269D01*
X-4915076Y-5021004D01*
X-4915072Y-5021001D01*
X-4915069Y-5021001D01*
X-4750218Y-4932886D01*
X-4750211Y-4932882D01*
X-4732866Y-4918647D01*
X-4668556Y-4891334D01*
X-4654201Y-4890500D01*
X1465500Y-4890500D01*
X1532539Y-4910185D01*
X1578294Y-4962989D01*
X1589500Y-5014500D01*
X1589500Y-5941848D01*
X1589500Y-5941850D01*
X1589499Y-5941850D01*
X1618340Y-6086837D01*
X1618343Y-6086847D01*
X1674914Y-6223423D01*
X1674915Y-6223424D01*
X1689113Y-6244674D01*
X1757046Y-6346344D01*
X1757052Y-6346351D01*
X3378181Y-7967479D01*
X3411666Y-8028802D01*
X3414500Y-8055159D01*
X3414500Y-8215369D01*
X3414501Y-8215376D01*
X3420908Y-8274983D01*
X3471202Y-8409828D01*
X3471203Y-8409829D01*
X3471204Y-8409831D01*
X3557452Y-8525043D01*
X3557451Y-8525043D01*
X3557452Y-8525044D01*
X3557454Y-8525046D01*
X3584812Y-8545526D01*
X3626681Y-8601456D01*
X3634500Y-8644791D01*
X3634500Y-9121610D01*
X3658535Y-9242444D01*
X3658538Y-9242454D01*
X3705687Y-9356283D01*
X3705692Y-9356292D01*
X3774141Y-9458732D01*
X3774144Y-9458736D01*
X3861263Y-9545855D01*
X3861267Y-9545858D01*
X3958506Y-9610832D01*
X4003311Y-9664445D01*
X4012018Y-9733770D01*
X3981863Y-9796797D01*
X3977304Y-9801607D01*
X3947230Y-9831681D01*
X3885910Y-9865166D01*
X3859550Y-9868000D01*
X3276579Y-9868000D01*
X3209540Y-9848315D01*
X3163785Y-9795511D01*
X3153841Y-9726353D01*
X3167221Y-9685547D01*
X3221001Y-9584930D01*
X3221001Y-9584929D01*
X3221004Y-9584924D01*
X3275269Y-9406037D01*
X3293592Y-9220000D01*
X3275269Y-9033963D01*
X3221004Y-8855076D01*
X3221001Y-8855072D01*
X3221001Y-8855069D01*
X3132886Y-8690218D01*
X3132882Y-8690211D01*
X3014291Y-8545708D01*
X2869788Y-8427117D01*
X2869781Y-8427113D01*
X2704930Y-8338998D01*
X2704924Y-8338996D01*
X2526037Y-8284731D01*
X2526035Y-8284730D01*
X2526033Y-8284730D01*
X2340000Y-8266408D01*
X2153966Y-8284730D01*
X1975069Y-8338998D01*
X1810218Y-8427113D01*
X1810211Y-8427117D01*
X1665708Y-8545708D01*
X1560287Y-8674165D01*
X1502541Y-8713499D01*
X1464434Y-8719500D01*
X-4404434Y-8719500D01*
X-4471473Y-8699815D01*
X-4500287Y-8674165D01*
X-4605708Y-8545708D01*
X-4750211Y-8427117D01*
X-4750218Y-8427113D01*
X-4915069Y-8338998D01*
X-5093966Y-8284730D01*
X-5280000Y-8266408D01*
X-5466033Y-8284730D01*
X-5466035Y-8284730D01*
X-5466037Y-8284731D01*
X-5644924Y-8338996D01*
X-5644930Y-8338998D01*
X-5809781Y-8427113D01*
X-5809788Y-8427117D01*
X-5954291Y-8545708D01*
X-6072882Y-8690211D01*
X-6072886Y-8690218D01*
X-6161001Y-8855069D01*
X-6161001Y-8855072D01*
X-6161004Y-8855076D01*
X-6215269Y-9033963D01*
X-6233592Y-9220000D01*
X-6217303Y-9385378D01*
X-6230322Y-9454021D01*
X-6253025Y-9485211D01*
X-6894813Y-10126999D01*
X-6894814Y-10127000D01*
X-6988000Y-10220186D01*
X-7053892Y-10334314D01*
X-7088000Y-10461608D01*
X-7088000Y-10461610D01*
X-7088000Y-10688364D01*
X-7107685Y-10755403D01*
X-7137688Y-10787630D01*
X-7186107Y-10823877D01*
X-7186116Y-10823884D01*
X-7270212Y-10936222D01*
X-7301454Y-11019986D01*
X-7319251Y-11067700D01*
X-7325499Y-11125809D01*
X-7325500Y-11125826D01*
X-7325500Y-11694173D01*
X-7325499Y-11694190D01*
X-7323093Y-11716564D01*
X-7319251Y-11752299D01*
X-7318319Y-11754797D01*
X-7310500Y-11798132D01*
X-7310500Y-12946452D01*
X-7330185Y-13013491D01*
X-7369222Y-13051879D01*
X-7401765Y-13072029D01*
X-7476041Y-13118019D01*
X-7476042Y-13118020D01*
X-7626762Y-13255418D01*
X-7626764Y-13255421D01*
X-7749673Y-13418179D01*
X-7768468Y-13455925D01*
X-7822118Y-13563670D01*
X-7840582Y-13600750D01*
X-7879488Y-13737488D01*
X-7896397Y-13796917D01*
X-7911164Y-13956287D01*
X-7915215Y-14000000D01*
X-7896397Y-14203083D01*
X-7840582Y-14399250D01*
X-7749673Y-14581821D01*
X-7626764Y-14744579D01*
X-7476041Y-14881981D01*
X-7302637Y-14989348D01*
X-7112456Y-15063024D01*
X-6911976Y-15100500D01*
X-6911974Y-15100500D01*
X-6708026Y-15100500D01*
X-6708024Y-15100500D01*
X-6527343Y-15066725D01*
X-6457831Y-15073756D01*
X-6416880Y-15100932D01*
X-5550500Y-15967314D01*
X-5457314Y-16060500D01*
X-5343186Y-16126392D01*
X-5215892Y-16160500D01*
X-1936177Y-16160500D01*
X-1869138Y-16180185D01*
X-1848497Y-16196818D01*
X-1811819Y-16233495D01*
X-1778333Y-16294817D01*
X-1775499Y-16321177D01*
X-1775499Y-16922872D01*
X-1769091Y-16982483D01*
X-1718796Y-17117331D01*
X-1632546Y-17232546D01*
X-1517331Y-17318796D01*
X-1382483Y-17369091D01*
X-1382474Y-17369091D01*
X-1378732Y-17369976D01*
X-1376112Y-17371467D01*
X-1375215Y-17371802D01*
X-1375269Y-17371947D01*
X-1318012Y-17404544D01*
X-1285620Y-17466451D01*
X-1291840Y-17536044D01*
X-1334697Y-17591226D01*
X-1340910Y-17595141D01*
X-1343778Y-17597288D01*
X-1456116Y-17681384D01*
X-1508155Y-17750899D01*
X-1529565Y-17779500D01*
X-1540212Y-17793722D01*
X-1568873Y-17870565D01*
X-1589251Y-17925200D01*
X-1595499Y-17983309D01*
X-1595500Y-17983326D01*
X-1595500Y-18576673D01*
X-1595499Y-18576690D01*
X-1590386Y-18624239D01*
X-1589251Y-18634799D01*
X-1540212Y-18766278D01*
X-1456116Y-18878616D01*
X-1354542Y-18954653D01*
X-1312673Y-19010586D01*
X-1307689Y-19080278D01*
X-1341174Y-19141601D01*
X-1389850Y-19171625D01*
X-1421302Y-19182047D01*
X-1421311Y-19182051D01*
X-1568034Y-19272552D01*
X-1568038Y-19272555D01*
X-1689944Y-19394461D01*
X-1689947Y-19394465D01*
X-1780448Y-19541188D01*
X-1780454Y-19541201D01*
X-1834681Y-19704849D01*
X-1837250Y-19729999D01*
X-1837251Y-19730000D01*
X97249Y-19730000D01*
X97250Y-19729999D01*
X94681Y-19704849D01*
X94680Y-19704846D01*
X40453Y-19541199D01*
X40448Y-19541188D01*
X-50052Y-19394465D01*
X-50055Y-19394461D01*
X-171961Y-19272555D01*
X-171965Y-19272552D01*
X-318688Y-19182051D01*
X-318703Y-19182045D01*
X-350150Y-19171624D01*
X-407594Y-19131851D01*
X-434416Y-19067335D01*
X-422100Y-18998559D01*
X-385455Y-18954653D01*
X-283885Y-18878617D01*
X-283882Y-18878614D01*
X-247631Y-18830189D01*
X-191698Y-18788318D01*
X-148365Y-18780500D01*
X145890Y-18780500D01*
X145892Y-18780500D01*
X273186Y-18746392D01*
X387314Y-18680500D01*
X1122318Y-17945493D01*
X1183641Y-17912009D01*
X1253332Y-17916993D01*
X1297680Y-17945494D01*
X1659500Y-18307314D01*
X1752686Y-18400500D01*
X1851521Y-18457563D01*
X1861425Y-18463281D01*
X1866814Y-18466392D01*
X1994108Y-18500500D01*
X1994110Y-18500500D01*
X3304019Y-18500500D01*
X3304019Y-18503516D01*
X3358839Y-18512060D01*
X3411099Y-18558435D01*
X3430000Y-18624239D01*
X3430000Y-18675760D01*
X3410315Y-18742799D01*
X3357511Y-18788554D01*
X3304019Y-18796581D01*
X3304019Y-18799500D01*
X3164108Y-18799500D01*
X3036814Y-18833608D01*
X3029304Y-18836719D01*
X3028750Y-18835381D01*
X2976063Y-18849500D01*
X2546739Y-18849500D01*
X2544326Y-18849675D01*
X2535358Y-18850000D01*
X1987990Y-18850000D01*
X1987988Y-18850001D01*
X1995442Y-18906627D01*
X1995444Y-18906633D01*
X2055899Y-19052585D01*
X2152076Y-19177925D01*
X2180985Y-19200107D01*
X2222189Y-19256534D01*
X2229500Y-19298484D01*
X2229500Y-19433260D01*
X2239426Y-19501391D01*
X2290803Y-19606485D01*
X2373514Y-19689196D01*
X2373515Y-19689196D01*
X2373517Y-19689198D01*
X2478607Y-19740573D01*
X2512673Y-19745536D01*
X2546739Y-19750500D01*
X2546740Y-19750500D01*
X2605500Y-19750500D01*
X2672539Y-19770185D01*
X2718294Y-19822989D01*
X2729500Y-19874500D01*
X2729500Y-19995892D01*
X2732129Y-20005703D01*
X2763608Y-20123187D01*
X2766674Y-20128496D01*
X2783149Y-20196396D01*
X2760299Y-20262424D01*
X2705379Y-20305616D01*
X2659289Y-20314500D01*
X2578388Y-20314500D01*
X2457555Y-20338535D01*
X2457538Y-20338540D01*
X2343718Y-20385685D01*
X2343709Y-20385690D01*
X2241272Y-20454139D01*
X2241264Y-20454145D01*
X2154145Y-20541264D01*
X2154139Y-20541272D01*
X2085690Y-20643709D01*
X2085685Y-20643718D01*
X2038908Y-20756651D01*
X1995067Y-20811055D01*
X1928773Y-20833120D01*
X1861074Y-20815841D01*
X1859250Y-20814738D01*
X1739124Y-20740643D01*
X1739119Y-20740641D01*
X1572697Y-20685494D01*
X1572690Y-20685493D01*
X1469986Y-20675000D01*
X1457500Y-20675000D01*
X1457500Y-22151000D01*
X1437815Y-22218039D01*
X1385011Y-22263794D01*
X1333500Y-22275000D01*
X-4999Y-22275000D01*
X-4999Y-22424971D01*
X-4998Y-22424986D01*
X5493Y-22527695D01*
X43204Y-22641495D01*
X45606Y-22711324D01*
X9875Y-22771366D01*
X-52646Y-22802559D01*
X-74502Y-22804500D01*
X-2399293Y-22804500D01*
X-2466332Y-22784815D01*
X-2486974Y-22768181D01*
X-3730154Y-21525000D01*
X-5000Y-21525000D01*
X707500Y-21525000D01*
X707500Y-20675000D01*
X707498Y-20674999D01*
X695020Y-20675000D01*
X592302Y-20685494D01*
X425880Y-20740641D01*
X425875Y-20740643D01*
X276654Y-20832684D01*
X151686Y-20957652D01*
X149952Y-20961084D01*
X60643Y-21105875D01*
X60641Y-21105880D01*
X5494Y-21272302D01*
X5493Y-21272309D01*
X-4999Y-21375013D01*
X-5000Y-21375026D01*
X-5000Y-21525000D01*
X-3730154Y-21525000D01*
X-4273884Y-20981270D01*
X-4273887Y-20981267D01*
X-4338867Y-20916287D01*
X-4361013Y-20894140D01*
X-4438224Y-20842550D01*
X-4438226Y-20842549D01*
X-4463460Y-20825687D01*
X-4463463Y-20825685D01*
X-4556139Y-20787299D01*
X-4556140Y-20787299D01*
X-4577291Y-20778537D01*
X-4598413Y-20774336D01*
X-4637716Y-20766518D01*
X-4698134Y-20754500D01*
X-4698138Y-20754500D01*
X-4698139Y-20754500D01*
X-8505500Y-20754500D01*
X-8572539Y-20734815D01*
X-8618294Y-20682011D01*
X-8629500Y-20630500D01*
X-8629500Y-20480000D01*
X-1837250Y-20480000D01*
X-1834681Y-20505150D01*
X-1834680Y-20505153D01*
X-1780453Y-20668800D01*
X-1780448Y-20668811D01*
X-1689947Y-20815534D01*
X-1689944Y-20815538D01*
X-1568038Y-20937444D01*
X-1568034Y-20937447D01*
X-1421311Y-21027948D01*
X-1421300Y-21027953D01*
X-1257651Y-21082180D01*
X-1245000Y-21083472D01*
X-1245000Y-20480000D01*
X-495000Y-20480000D01*
X-495000Y-21083472D01*
X-494999Y-21083472D01*
X-482348Y-21082180D01*
X-318699Y-21027953D01*
X-318688Y-21027948D01*
X-171965Y-20937447D01*
X-171961Y-20937444D01*
X-49059Y-20814542D01*
X-47323Y-20811108D01*
X40450Y-20668807D01*
X40454Y-20668798D01*
X94681Y-20505150D01*
X97251Y-20480000D01*
X-495000Y-20480000D01*
X-1245000Y-20480000D01*
X-1837250Y-20480000D01*
X-8629500Y-20480000D01*
X-8629500Y-20104500D01*
X-8609815Y-20037461D01*
X-8557011Y-19991706D01*
X-8505500Y-19980500D01*
X-8380324Y-19980500D01*
X-8380321Y-19980499D01*
X-8307264Y-19965967D01*
X-8307260Y-19965966D01*
X-8224399Y-19910601D01*
X-8169034Y-19827740D01*
X-8169033Y-19827739D01*
X-8169032Y-19827735D01*
X-8154500Y-19754678D01*
X-8154500Y-18880000D01*
X-7820215Y-18880000D01*
X-7801397Y-19083083D01*
X-7745582Y-19279250D01*
X-7654673Y-19461821D01*
X-7531764Y-19624579D01*
X-7531762Y-19624581D01*
X-7527431Y-19628529D01*
X-7381041Y-19761981D01*
X-7207637Y-19869348D01*
X-7017456Y-19943024D01*
X-6816976Y-19980500D01*
X-6816974Y-19980500D01*
X-6613026Y-19980500D01*
X-6613024Y-19980500D01*
X-6412544Y-19943024D01*
X-6222363Y-19869348D01*
X-6069494Y-19774696D01*
X-6048960Y-19761982D01*
X-6048958Y-19761980D01*
X-5898237Y-19624581D01*
X-5775327Y-19461821D01*
X-5688182Y-19286811D01*
X-5640679Y-19235574D01*
X-5573016Y-19218153D01*
X-5506676Y-19240079D01*
X-5462721Y-19294390D01*
X-5457406Y-19309992D01*
X-5448431Y-19343489D01*
X-5448429Y-19343492D01*
X-5348600Y-19557578D01*
X-5213105Y-19751082D01*
X-5046082Y-19918105D01*
X-4852578Y-20053600D01*
X-4638492Y-20153429D01*
X-4638483Y-20153433D01*
X-4550000Y-20177142D01*
X-4550000Y-19212106D01*
X-4482007Y-19280099D01*
X-4367993Y-19345925D01*
X-4240826Y-19380000D01*
X-4109174Y-19380000D01*
X-3982007Y-19345925D01*
X-3867993Y-19280099D01*
X-3842894Y-19255000D01*
X-3800000Y-19255000D01*
X-3800000Y-20177141D01*
X-3799999Y-20177142D01*
X-3711516Y-20153433D01*
X-3711507Y-20153429D01*
X-3497421Y-20053600D01*
X-3303917Y-19918105D01*
X-3136894Y-19751082D01*
X-3001399Y-19557578D01*
X-2901570Y-19343492D01*
X-2901566Y-19343483D01*
X-2877858Y-19255000D01*
X-3800000Y-19255000D01*
X-3842894Y-19255000D01*
X-3774901Y-19187007D01*
X-3709075Y-19072993D01*
X-3675000Y-18945826D01*
X-3675000Y-18814174D01*
X-3709075Y-18687007D01*
X-3774901Y-18572993D01*
X-3842894Y-18505000D01*
X-3800000Y-18505000D01*
X-2877858Y-18505000D01*
X-2877857Y-18504999D01*
X-2901566Y-18416516D01*
X-2901570Y-18416507D01*
X-3001399Y-18202422D01*
X-3001400Y-18202420D01*
X-3136886Y-18008926D01*
X-3136891Y-18008920D01*
X-3303917Y-17841894D01*
X-3497421Y-17706399D01*
X-3711509Y-17606568D01*
X-3711512Y-17606567D01*
X-3799999Y-17582856D01*
X-3800000Y-17582857D01*
X-3800000Y-18505000D01*
X-3842894Y-18505000D01*
X-3867993Y-18479901D01*
X-3982007Y-18414075D01*
X-4109174Y-18380000D01*
X-4240826Y-18380000D01*
X-4367993Y-18414075D01*
X-4482007Y-18479901D01*
X-4550000Y-18547894D01*
X-4550000Y-17582856D01*
X-4638487Y-17606567D01*
X-4638490Y-17606568D01*
X-4852577Y-17706399D01*
X-4852579Y-17706400D01*
X-5046073Y-17841886D01*
X-5046079Y-17841891D01*
X-5213108Y-18008920D01*
X-5213113Y-18008926D01*
X-5348599Y-18202420D01*
X-5348600Y-18202422D01*
X-5448429Y-18416507D01*
X-5448434Y-18416518D01*
X-5457407Y-18450008D01*
X-5493771Y-18509669D01*
X-5556617Y-18540199D01*
X-5625993Y-18531905D01*
X-5679871Y-18487421D01*
X-5688182Y-18473188D01*
X-5775327Y-18298178D01*
X-5898237Y-18135418D01*
X-6048958Y-17998019D01*
X-6048960Y-17998017D01*
X-6222357Y-17890655D01*
X-6222364Y-17890651D01*
X-6412541Y-17816977D01*
X-6412541Y-17816976D01*
X-6412544Y-17816976D01*
X-6613024Y-17779500D01*
X-6816976Y-17779500D01*
X-7017456Y-17816976D01*
X-7081769Y-17841891D01*
X-7207635Y-17890651D01*
X-7207642Y-17890655D01*
X-7381039Y-17998017D01*
X-7381041Y-17998019D01*
X-7531762Y-18135418D01*
X-7531764Y-18135421D01*
X-7654673Y-18298179D01*
X-7688849Y-18366814D01*
X-7745159Y-18479901D01*
X-7745582Y-18480750D01*
X-7792116Y-18644297D01*
X-7801397Y-18676917D01*
X-7815599Y-18830189D01*
X-7820215Y-18880000D01*
X-8154500Y-18880000D01*
X-8154500Y-18005321D01*
X-8169032Y-17932264D01*
X-8169033Y-17932260D01*
X-8224399Y-17849399D01*
X-8307260Y-17794033D01*
X-8307264Y-17794032D01*
X-8380323Y-17779500D01*
X-8380326Y-17779500D01*
X-10129674Y-17779500D01*
X-10129677Y-17779500D01*
X-10202735Y-17794032D01*
X-10202739Y-17794033D01*
X-10202740Y-17794034D01*
X-10285601Y-17849399D01*
X-10315736Y-17894500D01*
X-10340966Y-17932260D01*
X-10340967Y-17932264D01*
X-10355499Y-18005321D01*
X-10355500Y-18005323D01*
X-10355500Y-18005326D01*
X-10355500Y-19754674D01*
X-10340966Y-19827740D01*
X-10285601Y-19910601D01*
X-10202740Y-19965966D01*
X-10129677Y-19980499D01*
X-10129676Y-19980500D01*
X-10129674Y-19980500D01*
X-10004500Y-19980500D01*
X-9937461Y-20000185D01*
X-9891706Y-20052989D01*
X-9880500Y-20104500D01*
X-9880500Y-20963393D01*
X-9880500Y-21086607D01*
X-9873370Y-21122451D01*
X-9856463Y-21207452D01*
X-9845422Y-21234108D01*
X-9822438Y-21289594D01*
X-9814970Y-21359063D01*
X-9846245Y-21421542D01*
X-9849319Y-21424727D01*
X-9870856Y-21446264D01*
X-9880367Y-21460499D01*
X-9902208Y-21493186D01*
X-9927825Y-21531523D01*
X-9939310Y-21548711D01*
X-9939313Y-21548716D01*
X-9967519Y-21616812D01*
X-9970703Y-21624500D01*
X-9986463Y-21662548D01*
X-9986464Y-21662554D01*
X-9990868Y-21684695D01*
X-9990868Y-21684696D01*
X-10007114Y-21766375D01*
X-10007115Y-21766380D01*
X-10010500Y-21783394D01*
X-10010500Y-22625500D01*
X-10030185Y-22692539D01*
X-10082989Y-22738294D01*
X-10134500Y-22749500D01*
X-10259677Y-22749500D01*
X-10332735Y-22764032D01*
X-10332739Y-22764033D01*
X-10345969Y-22772873D01*
X-10415601Y-22819399D01*
X-10447526Y-22867179D01*
X-10470966Y-22902260D01*
X-10470967Y-22902264D01*
X-10485499Y-22975321D01*
X-10485500Y-22975323D01*
X-10485500Y-22975326D01*
X-10485500Y-24724674D01*
X-10470966Y-24797740D01*
X-10415601Y-24880601D01*
X-10332740Y-24935966D01*
X-10259677Y-24950499D01*
X-10259676Y-24950500D01*
X-10259674Y-24950500D01*
X-8510324Y-24950500D01*
X-8510321Y-24950499D01*
X-8437264Y-24935967D01*
X-8437260Y-24935966D01*
X-8434578Y-24934174D01*
X-8354399Y-24880601D01*
X-8299034Y-24797740D01*
X-8299033Y-24797739D01*
X-8299032Y-24797735D01*
X-8284500Y-24724678D01*
X-8284500Y-22975321D01*
X-8299032Y-22902264D01*
X-8299033Y-22902260D01*
X-8354399Y-22819399D01*
X-8437260Y-22764033D01*
X-8437264Y-22764032D01*
X-8510323Y-22749500D01*
X-8510326Y-22749500D01*
X-8635500Y-22749500D01*
X-8702539Y-22729815D01*
X-8748294Y-22677011D01*
X-8759500Y-22625500D01*
X-8759500Y-22155452D01*
X-8739815Y-22088413D01*
X-8723181Y-22067771D01*
X-8697229Y-22041819D01*
X-8635906Y-22008334D01*
X-8609548Y-22005500D01*
X-5070197Y-22005500D01*
X-5003158Y-22025185D01*
X-4982515Y-22041819D01*
X-4667410Y-22356924D01*
X-4633926Y-22418246D01*
X-4638910Y-22487937D01*
X-4680781Y-22543871D01*
X-4722998Y-22564379D01*
X-4768485Y-22576567D01*
X-4768492Y-22576570D01*
X-4982577Y-22676399D01*
X-4982579Y-22676400D01*
X-5176073Y-22811886D01*
X-5176079Y-22811891D01*
X-5343108Y-22978920D01*
X-5343113Y-22978926D01*
X-5478599Y-23172420D01*
X-5478600Y-23172422D01*
X-5578429Y-23386507D01*
X-5578434Y-23386518D01*
X-5587407Y-23420008D01*
X-5623771Y-23479669D01*
X-5686617Y-23510199D01*
X-5755993Y-23501905D01*
X-5809871Y-23457421D01*
X-5818182Y-23443188D01*
X-5905327Y-23268178D01*
X-6028237Y-23105418D01*
X-6178958Y-22968019D01*
X-6178960Y-22968017D01*
X-6352357Y-22860655D01*
X-6352364Y-22860651D01*
X-6542541Y-22786977D01*
X-6542541Y-22786976D01*
X-6542544Y-22786976D01*
X-6743024Y-22749500D01*
X-6946976Y-22749500D01*
X-7147456Y-22786976D01*
X-7211769Y-22811891D01*
X-7337635Y-22860651D01*
X-7337642Y-22860655D01*
X-7511039Y-22968017D01*
X-7511041Y-22968019D01*
X-7661762Y-23105418D01*
X-7661764Y-23105421D01*
X-7784673Y-23268179D01*
X-7825415Y-23350000D01*
X-7875159Y-23449901D01*
X-7875582Y-23450750D01*
X-7903107Y-23547489D01*
X-7931397Y-23646917D01*
X-7949801Y-23845537D01*
X-7950215Y-23850000D01*
X-7931397Y-24053083D01*
X-7875582Y-24249250D01*
X-7784673Y-24431821D01*
X-7661764Y-24594579D01*
X-7511041Y-24731981D01*
X-7337637Y-24839348D01*
X-7147456Y-24913024D01*
X-6946976Y-24950500D01*
X-6946974Y-24950500D01*
X-6743026Y-24950500D01*
X-6743024Y-24950500D01*
X-6542544Y-24913024D01*
X-6352363Y-24839348D01*
X-6274580Y-24791187D01*
X-6178960Y-24731982D01*
X-6178958Y-24731980D01*
X-6028237Y-24594581D01*
X-5905327Y-24431821D01*
X-5818182Y-24256811D01*
X-5770679Y-24205574D01*
X-5703016Y-24188153D01*
X-5636676Y-24210079D01*
X-5592721Y-24264390D01*
X-5587406Y-24279992D01*
X-5578431Y-24313489D01*
X-5578429Y-24313492D01*
X-5478600Y-24527578D01*
X-5343105Y-24721082D01*
X-5176082Y-24888105D01*
X-4982578Y-25023600D01*
X-4768492Y-25123429D01*
X-4768483Y-25123433D01*
X-4680000Y-25147142D01*
X-4680000Y-24182106D01*
X-4612007Y-24250099D01*
X-4497993Y-24315925D01*
X-4370826Y-24350000D01*
X-4239174Y-24350000D01*
X-4112007Y-24315925D01*
X-3997993Y-24250099D01*
X-3930000Y-24182106D01*
X-3930000Y-25147141D01*
X-3929999Y-25147142D01*
X-3841516Y-25123433D01*
X-3841507Y-25123429D01*
X-3627421Y-25023600D01*
X-3433917Y-24888105D01*
X-3266894Y-24721082D01*
X-3131399Y-24527578D01*
X-3031570Y-24313492D01*
X-3031566Y-24313483D01*
X-2982830Y-24131595D01*
X-2946465Y-24071934D01*
X-2883618Y-24041405D01*
X-2838859Y-24042072D01*
X-2831776Y-24043481D01*
X-2831774Y-24043481D01*
X-2771352Y-24055500D01*
X-2771351Y-24055500D01*
X-1474000Y-24055500D01*
X-1406961Y-24075185D01*
X-1361206Y-24127989D01*
X-1350000Y-24179500D01*
X-1350000Y-24625000D01*
X-332106Y-24625000D01*
X-400099Y-24692993D01*
X-465925Y-24807007D01*
X-500000Y-24934174D01*
X-500000Y-25065826D01*
X-465925Y-25192993D01*
X-400099Y-25307007D01*
X-332106Y-25375000D01*
X-1350000Y-25375000D01*
X-1350000Y-25685500D01*
X-1369685Y-25752539D01*
X-1422489Y-25798294D01*
X-1474000Y-25809500D01*
X-10051324Y-25809500D01*
X-10118363Y-25789815D01*
X-10139005Y-25773181D01*
X-11813181Y-24099005D01*
X-11846666Y-24037682D01*
X-11849500Y-24011324D01*
X-11849500Y-14874674D01*
X-10450500Y-14874674D01*
X-10435966Y-14947740D01*
X-10380601Y-15030601D01*
X-10297740Y-15085966D01*
X-10224677Y-15100499D01*
X-10224676Y-15100500D01*
X-10224674Y-15100500D01*
X-8475324Y-15100500D01*
X-8475321Y-15100499D01*
X-8402264Y-15085967D01*
X-8402260Y-15085966D01*
X-8319399Y-15030601D01*
X-8268765Y-14954821D01*
X-8264033Y-14947739D01*
X-8264032Y-14947735D01*
X-8249500Y-14874678D01*
X-8249500Y-13125321D01*
X-8264032Y-13052264D01*
X-8264033Y-13052260D01*
X-8319399Y-12969399D01*
X-8402260Y-12914033D01*
X-8402264Y-12914032D01*
X-8475323Y-12899500D01*
X-8475326Y-12899500D01*
X-10224674Y-12899500D01*
X-10224677Y-12899500D01*
X-10297735Y-12914032D01*
X-10297739Y-12914033D01*
X-10312916Y-12924174D01*
X-10380601Y-12969399D01*
X-10427099Y-13038989D01*
X-10435966Y-13052260D01*
X-10435967Y-13052264D01*
X-10450499Y-13125321D01*
X-10450500Y-13125323D01*
X-10450500Y-13125326D01*
X-10450500Y-14874674D01*
X-11849500Y-14874674D01*
X-11849500Y-11684108D01*
X-11883608Y-11556812D01*
X-11949500Y-11442686D01*
X-11949502Y-11442683D01*
X-12042686Y-11349500D01*
X-13148122Y-10244062D01*
X-13179707Y-10190316D01*
X-13219419Y-10050745D01*
X-13219419Y-10050743D01*
X-13279639Y-9929807D01*
X-13291900Y-9861022D01*
X-13265027Y-9796527D01*
X-13207551Y-9756800D01*
X-13137720Y-9754453D01*
X-13080959Y-9786854D01*
X-12040500Y-10827314D01*
X-11947314Y-10920500D01*
X-11886838Y-10955416D01*
X-11833186Y-10986392D01*
X-11705893Y-11020500D01*
X-11705892Y-11020500D01*
X-9484876Y-11020500D01*
X-9437427Y-11029937D01*
X-9373709Y-11056330D01*
X-9258314Y-11071522D01*
X-9194418Y-11099789D01*
X-9155947Y-11158113D01*
X-9150500Y-11194461D01*
X-9150500Y-11694173D01*
X-9150499Y-11694190D01*
X-9144283Y-11752000D01*
X-9144251Y-11752299D01*
X-9095212Y-11883778D01*
X-9011116Y-11996116D01*
X-8898778Y-12080212D01*
X-8771168Y-12127808D01*
X-8767299Y-12129251D01*
X-8709190Y-12135499D01*
X-8709174Y-12135500D01*
X-8115826Y-12135500D01*
X-8115809Y-12135499D01*
X-8057700Y-12129251D01*
X-8015927Y-12113670D01*
X-7926222Y-12080212D01*
X-7917290Y-12073526D01*
X-7885668Y-12049853D01*
X-7813884Y-11996116D01*
X-7729788Y-11883778D01*
X-7703827Y-11814174D01*
X-7680748Y-11752299D01*
X-7674500Y-11694190D01*
X-7674500Y-11125809D01*
X-7680748Y-11067700D01*
X-7729789Y-10936219D01*
X-7799764Y-10842745D01*
X-7813884Y-10823884D01*
X-7813885Y-10823883D01*
X-7813887Y-10823881D01*
X-7862312Y-10787630D01*
X-7904182Y-10731696D01*
X-7912000Y-10688364D01*
X-7912000Y-9111608D01*
X-7916608Y-9094413D01*
X-7916609Y-9094408D01*
X-7946106Y-8984316D01*
X-7946108Y-8984313D01*
X-7977563Y-8929829D01*
X-7994034Y-8861928D01*
X-7989442Y-8833898D01*
X-7963602Y-8743080D01*
X-7944785Y-8540000D01*
X-7944785Y-8539999D01*
X-7963602Y-8336917D01*
X-8019417Y-8140752D01*
X-8019422Y-8140739D01*
X-8110327Y-7958178D01*
X-8233237Y-7795418D01*
X-8383958Y-7658019D01*
X-8383960Y-7658017D01*
X-8510889Y-7579427D01*
X-8557525Y-7527399D01*
X-8568629Y-7458417D01*
X-8540676Y-7394383D01*
X-8482541Y-7355627D01*
X-8445612Y-7350000D01*
X-8152172Y-7350000D01*
X-8152155Y-7349999D01*
X-8092627Y-7343598D01*
X-8092620Y-7343596D01*
X-7957913Y-7293354D01*
X-7957906Y-7293350D01*
X-7842812Y-7207190D01*
X-7842809Y-7207187D01*
X-7756649Y-7092093D01*
X-7756645Y-7092086D01*
X-7706403Y-6957379D01*
X-7706401Y-6957372D01*
X-7700000Y-6897844D01*
X-7700000Y-6375000D01*
X-8717894Y-6375000D01*
X-8649901Y-6307007D01*
X-8584075Y-6192993D01*
X-8550000Y-6065826D01*
X-8550000Y-5934174D01*
X-8584075Y-5807007D01*
X-8649901Y-5692993D01*
X-8742993Y-5599901D01*
X-8857007Y-5534075D01*
X-8984174Y-5500000D01*
X-9115826Y-5500000D01*
X-9242993Y-5534075D01*
X-9357007Y-5599901D01*
X-9450099Y-5692993D01*
X-9515925Y-5807007D01*
X-9550000Y-5934174D01*
X-9550000Y-6065826D01*
X-9515925Y-6192993D01*
X-9450099Y-6307007D01*
X-9382106Y-6375000D01*
X-10400000Y-6375000D01*
X-10400000Y-6897827D01*
X-10399999Y-6897844D01*
X-10393598Y-6957372D01*
X-10393596Y-6957379D01*
X-10343354Y-7092086D01*
X-10343350Y-7092093D01*
X-10257190Y-7207187D01*
X-10257187Y-7207190D01*
X-10142093Y-7293350D01*
X-10142086Y-7293354D01*
X-10007379Y-7343596D01*
X-10007372Y-7343598D01*
X-9947844Y-7349999D01*
X-9947828Y-7350000D01*
X-9654388Y-7350000D01*
X-9587349Y-7369685D01*
X-9541594Y-7422489D01*
X-9531650Y-7491647D01*
X-9560675Y-7555203D01*
X-9589111Y-7579427D01*
X-9716039Y-7658017D01*
X-9716041Y-7658019D01*
X-9866762Y-7795418D01*
X-9866764Y-7795421D01*
X-9989673Y-7958179D01*
X-10080582Y-8140750D01*
X-10126244Y-8301235D01*
X-10136397Y-8336917D01*
X-10151168Y-8496330D01*
X-10155215Y-8540000D01*
X-10136397Y-8743083D01*
X-10080582Y-8939250D01*
X-9989673Y-9121821D01*
X-9866764Y-9284579D01*
X-9716041Y-9421981D01*
X-9542637Y-9529348D01*
X-9352456Y-9603024D01*
X-9151976Y-9640500D01*
X-9151974Y-9640500D01*
X-9037000Y-9640500D01*
X-8969961Y-9660185D01*
X-8924206Y-9712989D01*
X-8913000Y-9764500D01*
X-8913000Y-9869870D01*
X-8932685Y-9936909D01*
X-8985489Y-9982664D01*
X-9054647Y-9992608D01*
X-9084446Y-9984434D01*
X-9086287Y-9983671D01*
X-9086291Y-9983670D01*
X-9229999Y-9964750D01*
X-9230001Y-9964750D01*
X-9373706Y-9983669D01*
X-9373708Y-9983669D01*
X-9373709Y-9983670D01*
X-9437427Y-10010062D01*
X-9484876Y-10019500D01*
X-11381324Y-10019500D01*
X-11448363Y-9999815D01*
X-11469005Y-9983181D01*
X-13150949Y-8301235D01*
X-13184434Y-8239912D01*
X-13182535Y-8179623D01*
X-13163603Y-8113083D01*
X-13163602Y-8113082D01*
X-13163602Y-8113079D01*
X-13144785Y-7910000D01*
X-13144785Y-7909999D01*
X-13163602Y-7706917D01*
X-13219417Y-7510752D01*
X-13219422Y-7510739D01*
X-13310327Y-7328178D01*
X-13433237Y-7165418D01*
X-13583958Y-7028019D01*
X-13583960Y-7028017D01*
X-13757357Y-6920655D01*
X-13757364Y-6920651D01*
X-13947541Y-6846977D01*
X-13947541Y-6846976D01*
X-13947544Y-6846976D01*
X-14148024Y-6809500D01*
X-14351976Y-6809500D01*
X-14552456Y-6846976D01*
X-14628677Y-6876504D01*
X-14742635Y-6920651D01*
X-14742642Y-6920655D01*
X-14916039Y-7028017D01*
X-14916041Y-7028019D01*
X-15066762Y-7165418D01*
X-15130704Y-7250091D01*
X-15189673Y-7328179D01*
X-15203340Y-7355627D01*
X-15254523Y-7458417D01*
X-15280582Y-7510750D01*
X-15336397Y-7706917D01*
X-15355215Y-7910000D01*
X-15336397Y-8113083D01*
X-15280582Y-8309250D01*
X-15189673Y-8491821D01*
X-15066764Y-8654579D01*
X-14916041Y-8791981D01*
X-14742637Y-8899348D01*
X-14552456Y-8973024D01*
X-14351976Y-9010500D01*
X-14351974Y-9010500D01*
X-14148026Y-9010500D01*
X-14148024Y-9010500D01*
X-13967343Y-8976725D01*
X-13897831Y-8983756D01*
X-13856880Y-9010932D01*
X-13593543Y-9274269D01*
X-13560060Y-9335590D01*
X-13565044Y-9405281D01*
X-13606915Y-9461215D01*
X-13672380Y-9485632D01*
X-13740653Y-9470780D01*
X-13746498Y-9467378D01*
X-13757354Y-9460656D01*
X-13757364Y-9460651D01*
X-13947541Y-9386977D01*
X-13947541Y-9386976D01*
X-13947544Y-9386976D01*
X-14148024Y-9349500D01*
X-14351976Y-9349500D01*
X-14552456Y-9386976D01*
X-14599707Y-9405281D01*
X-14742635Y-9460651D01*
X-14742642Y-9460655D01*
X-14916039Y-9568017D01*
X-14916041Y-9568019D01*
X-15066762Y-9705418D01*
X-15066764Y-9705421D01*
X-15189673Y-9868179D01*
X-15236272Y-9961764D01*
X-15274800Y-10039139D01*
X-15280582Y-10050750D01*
X-15336397Y-10246917D01*
X-15355215Y-10450000D01*
X-15336397Y-10653083D01*
X-15280582Y-10849250D01*
X-15189673Y-11031821D01*
X-15066764Y-11194579D01*
X-14916041Y-11331981D01*
X-14742637Y-11439348D01*
X-14661714Y-11470697D01*
X-14606314Y-11513268D01*
X-14582723Y-11579035D01*
X-14598434Y-11647115D01*
X-14648457Y-11695895D01*
X-14674414Y-11706097D01*
X-14713477Y-11716564D01*
X-14713492Y-11716570D01*
X-14927577Y-11816399D01*
X-14927579Y-11816400D01*
X-15121073Y-11951886D01*
X-15121079Y-11951891D01*
X-15288108Y-12118920D01*
X-15288113Y-12118926D01*
X-15423599Y-12312420D01*
X-15423600Y-12312422D01*
X-15523429Y-12526507D01*
X-15523433Y-12526516D01*
X-15547142Y-12614999D01*
X-15547142Y-12615000D01*
X-14582106Y-12615000D01*
X-14650099Y-12682993D01*
X-14715925Y-12797007D01*
X-14750000Y-12924174D01*
X-14750000Y-13055826D01*
X-14715925Y-13182993D01*
X-14650099Y-13297007D01*
X-14557007Y-13390099D01*
X-14442993Y-13455925D01*
X-14315826Y-13490000D01*
X-14184174Y-13490000D01*
X-14057007Y-13455925D01*
X-13942993Y-13390099D01*
X-13875000Y-13322106D01*
X-13875000Y-14287141D01*
X-13874999Y-14287142D01*
X-13786516Y-14263433D01*
X-13786507Y-14263429D01*
X-13572421Y-14163600D01*
X-13378917Y-14028105D01*
X-13211894Y-13861082D01*
X-13076075Y-13667114D01*
X-13021497Y-13623489D01*
X-12951999Y-13616297D01*
X-12889644Y-13647819D01*
X-12854231Y-13708049D01*
X-12850500Y-13738238D01*
X-12850500Y-24204108D01*
X-12850500Y-24335892D01*
X-12816392Y-24463186D01*
X-12750500Y-24577314D01*
X-11827814Y-25500000D01*
X-10949995Y-26377819D01*
X-10916510Y-26439142D01*
X-10921494Y-26508834D01*
X-10963366Y-26564767D01*
X-11028830Y-26589184D01*
X-11037676Y-26589500D01*
X-18705500Y-26589500D01*
X-18772539Y-26569815D01*
X-18818294Y-26517011D01*
X-18829500Y-26465500D01*
X-18829500Y-21830000D01*
X-15685277Y-21830000D01*
X-15666207Y-22047977D01*
X-15609575Y-22259330D01*
X-15517102Y-22457639D01*
X-15391598Y-22636877D01*
X-15236877Y-22791598D01*
X-15057639Y-22917102D01*
X-14859330Y-23009575D01*
X-14647977Y-23066207D01*
X-14462462Y-23082437D01*
X-14430002Y-23085277D01*
X-14430000Y-23085277D01*
X-14429998Y-23085277D01*
X-14398761Y-23082544D01*
X-14212023Y-23066207D01*
X-14000670Y-23009575D01*
X-13802361Y-22917102D01*
X-13623123Y-22791598D01*
X-13468402Y-22636877D01*
X-13342898Y-22457639D01*
X-13342897Y-22457638D01*
X-13252507Y-22263794D01*
X-13250425Y-22259330D01*
X-13250424Y-22259326D01*
X-13250422Y-22259322D01*
X-13193793Y-22047979D01*
X-13193793Y-22047975D01*
X-13174723Y-21830002D01*
X-13174723Y-21829997D01*
X-13191971Y-21632853D01*
X-13193793Y-21612023D01*
X-13193793Y-21612020D01*
X-13250422Y-21400677D01*
X-13250426Y-21400668D01*
X-13342898Y-21202361D01*
X-13342900Y-21202357D01*
X-13468400Y-21023124D01*
X-13623122Y-20868403D01*
X-13802361Y-20742897D01*
X-14000668Y-20650426D01*
X-14000677Y-20650422D01*
X-14212022Y-20593793D01*
X-14429998Y-20574723D01*
X-14430002Y-20574723D01*
X-14538988Y-20584258D01*
X-14647977Y-20593793D01*
X-14647979Y-20593793D01*
X-14859322Y-20650422D01*
X-14859326Y-20650424D01*
X-14859330Y-20650425D01*
X-15028205Y-20729173D01*
X-15057638Y-20742898D01*
X-15057642Y-20742900D01*
X-15236878Y-20868402D01*
X-15391597Y-21023121D01*
X-15517099Y-21202357D01*
X-15517100Y-21202359D01*
X-15517102Y-21202362D01*
X-15609575Y-21400670D01*
X-15666207Y-21612023D01*
X-15685277Y-21830000D01*
X-18829500Y-21830000D01*
X-18829500Y-16800000D01*
X-15805277Y-16800000D01*
X-15786207Y-17017977D01*
X-15729575Y-17229330D01*
X-15637102Y-17427639D01*
X-15511598Y-17606877D01*
X-15356877Y-17761598D01*
X-15177639Y-17887102D01*
X-14979330Y-17979575D01*
X-14767977Y-18036207D01*
X-14582462Y-18052437D01*
X-14550002Y-18055277D01*
X-14550000Y-18055277D01*
X-14549998Y-18055277D01*
X-14519787Y-18052633D01*
X-14332023Y-18036207D01*
X-14120670Y-17979575D01*
X-13922361Y-17887102D01*
X-13743123Y-17761598D01*
X-13588402Y-17606877D01*
X-13462898Y-17427639D01*
X-13462897Y-17427638D01*
X-13401269Y-17295475D01*
X-13370425Y-17229330D01*
X-13370424Y-17229326D01*
X-13370422Y-17229322D01*
X-13313793Y-17017979D01*
X-13313793Y-17017975D01*
X-13313320Y-17012575D01*
X-13294723Y-16800000D01*
X-13297103Y-16772801D01*
X-13313793Y-16582024D01*
X-13313793Y-16582020D01*
X-13370422Y-16370677D01*
X-13370426Y-16370668D01*
X-13462898Y-16172361D01*
X-13462900Y-16172357D01*
X-13588400Y-15993124D01*
X-13743122Y-15838403D01*
X-13922361Y-15712897D01*
X-14120668Y-15620426D01*
X-14120677Y-15620422D01*
X-14332022Y-15563793D01*
X-14549998Y-15544723D01*
X-14550002Y-15544723D01*
X-14658988Y-15554258D01*
X-14767977Y-15563793D01*
X-14767979Y-15563793D01*
X-14979322Y-15620422D01*
X-14979326Y-15620424D01*
X-14979330Y-15620425D01*
X-15112801Y-15682664D01*
X-15177638Y-15712898D01*
X-15177642Y-15712900D01*
X-15356878Y-15838402D01*
X-15511597Y-15993121D01*
X-15637099Y-16172357D01*
X-15637100Y-16172359D01*
X-15637102Y-16172362D01*
X-15729575Y-16370670D01*
X-15786207Y-16582023D01*
X-15800902Y-16749989D01*
X-15802897Y-16772801D01*
X-15805277Y-16800000D01*
X-18829500Y-16800000D01*
X-18829500Y-13365000D01*
X-15547142Y-13365000D01*
X-15523433Y-13453483D01*
X-15523429Y-13453492D01*
X-15423600Y-13667578D01*
X-15288105Y-13861082D01*
X-15121082Y-14028105D01*
X-14927578Y-14163600D01*
X-14713492Y-14263429D01*
X-14713483Y-14263433D01*
X-14625000Y-14287142D01*
X-14625000Y-13365000D01*
X-15547142Y-13365000D01*
X-18829500Y-13365000D01*
X-18829500Y-6244675D01*
X-15350500Y-6244675D01*
X-15345318Y-6270726D01*
X-15335966Y-6317740D01*
X-15280601Y-6400601D01*
X-15197740Y-6455966D01*
X-15124677Y-6470499D01*
X-15124676Y-6470500D01*
X-15124674Y-6470500D01*
X-13375324Y-6470500D01*
X-13375321Y-6470499D01*
X-13302264Y-6455967D01*
X-13302260Y-6455966D01*
X-13219399Y-6400601D01*
X-13164034Y-6317740D01*
X-13164033Y-6317739D01*
X-13164032Y-6317735D01*
X-13149500Y-6244675D01*
X-13149500Y-5625000D01*
X-10400000Y-5625000D01*
X-9425000Y-5625000D01*
X-9425000Y-4650000D01*
X-8675000Y-4650000D01*
X-8675000Y-5625000D01*
X-7700000Y-5625000D01*
X-7700000Y-5102155D01*
X-7706401Y-5042627D01*
X-7706403Y-5042620D01*
X-7756645Y-4907913D01*
X-7756649Y-4907906D01*
X-7842809Y-4792812D01*
X-7842812Y-4792809D01*
X-7957906Y-4706649D01*
X-7957913Y-4706645D01*
X-8092620Y-4656403D01*
X-8092627Y-4656401D01*
X-8152155Y-4650000D01*
X-8675000Y-4650000D01*
X-9425000Y-4650000D01*
X-9947844Y-4650000D01*
X-10007372Y-4656401D01*
X-10007379Y-4656403D01*
X-10142086Y-4706645D01*
X-10142093Y-4706649D01*
X-10257187Y-4792809D01*
X-10257190Y-4792812D01*
X-10343350Y-4907906D01*
X-10343354Y-4907913D01*
X-10393596Y-5042620D01*
X-10393598Y-5042627D01*
X-10399999Y-5102155D01*
X-10400000Y-5102172D01*
X-10400000Y-5625000D01*
X-13149500Y-5625000D01*
X-13149500Y-4495321D01*
X-13164032Y-4422264D01*
X-13164033Y-4422260D01*
X-13219399Y-4339399D01*
X-13302260Y-4284033D01*
X-13302264Y-4284032D01*
X-13375323Y-4269500D01*
X-13375326Y-4269500D01*
X-15124674Y-4269500D01*
X-15124677Y-4269500D01*
X-15197735Y-4284032D01*
X-15197739Y-4284033D01*
X-15221734Y-4300066D01*
X-15280601Y-4339399D01*
X-15293366Y-4358504D01*
X-15335966Y-4422260D01*
X-15335967Y-4422264D01*
X-15350499Y-4495321D01*
X-15350500Y-4495323D01*
X-15350500Y-6244675D01*
X-18829500Y-6244675D01*
X-18829500Y-3205000D01*
X-12307499Y-3205000D01*
X-12307499Y-3354971D01*
X-12307498Y-3354986D01*
X-12297005Y-3457697D01*
X-12241858Y-3624119D01*
X-12241856Y-3624124D01*
X-12149815Y-3773345D01*
X-12025845Y-3897315D01*
X-11876624Y-3989356D01*
X-11876619Y-3989358D01*
X-11710197Y-4044505D01*
X-11710190Y-4044506D01*
X-11607480Y-4054999D01*
X-11595000Y-4054998D01*
X-11595000Y-3205000D01*
X-12307499Y-3205000D01*
X-18829500Y-3205000D01*
X-18829500Y-2455000D01*
X-12307500Y-2455000D01*
X-11595000Y-2455000D01*
X-11595000Y-1605000D01*
X-11595001Y-1604999D01*
X-11607479Y-1605000D01*
X-11710197Y-1615494D01*
X-11876619Y-1670641D01*
X-11876624Y-1670643D01*
X-12025845Y-1762684D01*
X-12149815Y-1886654D01*
X-12241856Y-2035875D01*
X-12241858Y-2035880D01*
X-12297005Y-2202302D01*
X-12297006Y-2202309D01*
X-12307499Y-2305013D01*
X-12307500Y-2305026D01*
X-12307500Y-2455000D01*
X-18829500Y-2455000D01*
X-18829500Y-1372888D01*
X-14572558Y-1372888D01*
X-14414608Y-1458367D01*
X-14414600Y-1458370D01*
X-14179493Y-1539083D01*
X-13934293Y-1580000D01*
X-13685707Y-1580000D01*
X-13440506Y-1539083D01*
X-13205396Y-1458369D01*
X-13205390Y-1458367D01*
X-13047440Y-1372888D01*
X-13810000Y-610330D01*
X-14572558Y-1372888D01*
X-18829500Y-1372888D01*
X-18829500Y-80005D01*
X-15315141Y-80005D01*
X-15294614Y-327729D01*
X-15294612Y-327738D01*
X-15233587Y-568717D01*
X-15133731Y-796369D01*
X-15103290Y-842961D01*
X-14406156Y-145826D01*
X-14310000Y-145826D01*
X-14275925Y-272993D01*
X-14210099Y-387007D01*
X-14117007Y-480099D01*
X-14002993Y-545925D01*
X-13875826Y-580000D01*
X-13744174Y-580000D01*
X-13617007Y-545925D01*
X-13502993Y-480099D01*
X-13409901Y-387007D01*
X-13344075Y-272993D01*
X-13310000Y-145826D01*
X-13310000Y-80000D01*
X-13279670Y-80000D01*
X-12516708Y-842960D01*
X-12486267Y-796365D01*
X-12386411Y-568717D01*
X-12325387Y-327738D01*
X-12325385Y-327729D01*
X-12304859Y-80005D01*
X-12304859Y-79994D01*
X-12325385Y167729D01*
X-12325387Y167738D01*
X-12386411Y408717D01*
X-12486267Y636365D01*
X-12516708Y682960D01*
X-13279670Y-79999D01*
X-13279670Y-80000D01*
X-13310000Y-80000D01*
X-13310000Y-14174D01*
X-13344075Y112993D01*
X-13409901Y227007D01*
X-13502993Y320099D01*
X-13617007Y385925D01*
X-13744174Y420000D01*
X-13875826Y420000D01*
X-14002993Y385925D01*
X-14117007Y320099D01*
X-14210099Y227007D01*
X-14275925Y112993D01*
X-14310000Y-14174D01*
X-14310000Y-145826D01*
X-14406156Y-145826D01*
X-14340330Y-80000D01*
X-14340330Y-79999D01*
X-15103290Y682961D01*
X-15133731Y636369D01*
X-15233587Y408717D01*
X-15294612Y167738D01*
X-15294614Y167729D01*
X-15315141Y-79994D01*
X-15315141Y-80005D01*
X-18829500Y-80005D01*
X-18829500Y1212888D01*
X-14572558Y1212888D01*
X-13810000Y450330D01*
X-13047440Y1212888D01*
X-13205390Y1298367D01*
X-13205396Y1298369D01*
X-13440506Y1379083D01*
X-13685707Y1420000D01*
X-13934293Y1420000D01*
X-14179493Y1379083D01*
X-14414600Y1298370D01*
X-14414608Y1298367D01*
X-14572558Y1212888D01*
X-18829500Y1212888D01*
X-18829500Y1555500D01*
X-18809815Y1622539D01*
X-18757011Y1668294D01*
X-18705500Y1679500D01*
X-6693012Y1679500D01*
X-6625973Y1659815D01*
G37*
%TD.AperFunction*%
%TA.AperFunction,Conductor*%
G36*
X9629435Y-13517685D02*
G01*
X9675190Y-13570489D01*
X9685134Y-13639647D01*
X9657193Y-13700829D01*
X9657327Y-13700932D01*
X9656880Y-13701514D01*
X9656109Y-13703203D01*
X9653127Y-13706405D01*
X9652380Y-13707377D01*
X9652379Y-13707379D01*
X9628700Y-13738238D01*
X9564137Y-13822377D01*
X9508671Y-13956287D01*
X9508670Y-13956291D01*
X9495980Y-14052683D01*
X9489750Y-14100000D01*
X9506069Y-14223956D01*
X9508670Y-14243708D01*
X9508671Y-14243712D01*
X9564137Y-14377622D01*
X9564138Y-14377624D01*
X9564139Y-14377625D01*
X9652379Y-14492621D01*
X9767375Y-14580861D01*
X9778338Y-14585402D01*
X9832741Y-14629241D01*
X9854807Y-14695535D01*
X9837529Y-14763235D01*
X9786392Y-14810846D01*
X9740617Y-14823581D01*
X9717509Y-14825399D01*
X9717504Y-14825400D01*
X9559806Y-14871216D01*
X9559803Y-14871217D01*
X9418447Y-14954814D01*
X9418438Y-14954821D01*
X9302321Y-15070938D01*
X9302314Y-15070947D01*
X9218717Y-15212303D01*
X9218716Y-15212306D01*
X9172900Y-15370004D01*
X9172899Y-15370010D01*
X9170000Y-15406850D01*
X9170000Y-15760000D01*
X10770000Y-15760000D01*
X10770000Y-15406865D01*
X10769999Y-15406850D01*
X10767100Y-15370012D01*
X10755939Y-15331594D01*
X10756139Y-15261724D01*
X10794082Y-15203054D01*
X10857720Y-15174211D01*
X10875007Y-15172999D01*
X11101518Y-15172999D01*
X11101521Y-15172999D01*
X11126481Y-15169045D01*
X11146348Y-15165899D01*
X11215641Y-15174853D01*
X11269093Y-15219849D01*
X11289733Y-15286601D01*
X11271009Y-15353914D01*
X11241237Y-15386744D01*
X11227382Y-15397376D01*
X11227380Y-15397377D01*
X11227379Y-15397379D01*
X11201650Y-15430910D01*
X11139137Y-15512377D01*
X11083671Y-15646287D01*
X11083670Y-15646291D01*
X11064750Y-15790000D01*
X11071122Y-15838403D01*
X11083670Y-15933708D01*
X11083671Y-15933712D01*
X11139137Y-16067622D01*
X11139138Y-16067624D01*
X11139139Y-16067625D01*
X11227379Y-16182621D01*
X11270987Y-16216082D01*
X11312189Y-16272508D01*
X11319500Y-16314457D01*
X11319500Y-16679017D01*
X11324904Y-16713134D01*
X11334354Y-16772804D01*
X11388485Y-16879042D01*
X11402000Y-16935335D01*
X11402000Y-18425500D01*
X11382315Y-18492539D01*
X11329511Y-18538294D01*
X11278000Y-18549500D01*
X11259542Y-18549500D01*
X11192503Y-18529815D01*
X11163999Y-18496920D01*
X11160499Y-18499549D01*
X11123296Y-18450000D01*
X10202500Y-18450000D01*
X10202500Y-18950000D01*
X10555634Y-18950000D01*
X10555649Y-18949999D01*
X10592489Y-18947100D01*
X10592495Y-18947099D01*
X10630905Y-18935940D01*
X10700774Y-18936139D01*
X10759444Y-18974081D01*
X10788288Y-19037719D01*
X10789500Y-19055015D01*
X10789500Y-19281517D01*
X10805881Y-19384943D01*
X10803857Y-19385263D01*
X10805490Y-19442516D01*
X10769407Y-19502347D01*
X10706704Y-19533171D01*
X10637290Y-19525203D01*
X10629280Y-19521475D01*
X10615304Y-19514354D01*
X10615303Y-19514353D01*
X10615300Y-19514352D01*
X10615301Y-19514352D01*
X10521524Y-19499500D01*
X9283482Y-19499500D01*
X9189694Y-19514354D01*
X9147243Y-19535985D01*
X9090948Y-19549500D01*
X8977845Y-19549500D01*
X8910806Y-19529815D01*
X8865051Y-19477011D01*
X8855107Y-19407853D01*
X8884132Y-19344297D01*
X8890164Y-19337819D01*
X8909944Y-19318038D01*
X8909947Y-19318034D01*
X9000448Y-19171311D01*
X9000454Y-19171298D01*
X9049265Y-19023994D01*
X9089037Y-18966549D01*
X9153552Y-18939725D01*
X9201567Y-18943921D01*
X9212507Y-18947099D01*
X9212510Y-18947100D01*
X9249350Y-18949999D01*
X9249366Y-18950000D01*
X9602500Y-18950000D01*
X9602500Y-17850000D01*
X10202500Y-17850000D01*
X11123296Y-17850000D01*
X11091281Y-17739801D01*
X11007685Y-17598447D01*
X11007678Y-17598438D01*
X10891561Y-17482321D01*
X10891552Y-17482314D01*
X10750196Y-17398717D01*
X10750193Y-17398715D01*
X10593415Y-17353167D01*
X10534529Y-17315561D01*
X10505323Y-17252088D01*
X10515069Y-17182901D01*
X10540329Y-17146409D01*
X10637681Y-17049057D01*
X10637685Y-17049052D01*
X10721282Y-16907696D01*
X10721283Y-16907693D01*
X10767099Y-16749995D01*
X10767100Y-16749989D01*
X10769999Y-16713149D01*
X10770000Y-16713134D01*
X10770000Y-16360000D01*
X10270000Y-16360000D01*
X10270000Y-17231138D01*
X10250315Y-17298177D01*
X10233681Y-17318819D01*
X10202500Y-17350000D01*
X10202500Y-17850000D01*
X9602500Y-17850000D01*
X9602500Y-17393436D01*
X9622185Y-17326397D01*
X9652048Y-17294275D01*
X9670000Y-17280796D01*
X9670000Y-16360000D01*
X9170000Y-16360000D01*
X9170000Y-16713149D01*
X9172899Y-16749989D01*
X9172900Y-16749995D01*
X9218716Y-16907693D01*
X9218717Y-16907696D01*
X9302314Y-17049052D01*
X9302321Y-17049061D01*
X9391579Y-17138319D01*
X9425064Y-17199642D01*
X9420080Y-17269334D01*
X9378208Y-17325267D01*
X9312744Y-17349684D01*
X9303898Y-17350000D01*
X9249350Y-17350000D01*
X9212510Y-17352899D01*
X9212504Y-17352900D01*
X9054806Y-17398716D01*
X9054803Y-17398717D01*
X8913447Y-17482314D01*
X8913438Y-17482321D01*
X8797321Y-17598438D01*
X8797312Y-17598449D01*
X8780044Y-17627648D01*
X8728974Y-17675330D01*
X8660232Y-17687832D01*
X8634311Y-17682230D01*
X8477651Y-17630319D01*
X8477648Y-17630318D01*
X8465000Y-17629025D01*
X8465000Y-18858500D01*
X8445315Y-18925539D01*
X8392511Y-18971294D01*
X8341000Y-18982500D01*
X7839000Y-18982500D01*
X7771961Y-18962815D01*
X7726206Y-18910011D01*
X7715000Y-18858500D01*
X7715000Y-17817938D01*
X7734685Y-17750899D01*
X7787489Y-17705144D01*
X7791498Y-17703398D01*
X7797625Y-17700861D01*
X7912621Y-17612621D01*
X8000861Y-17497625D01*
X8056330Y-17363709D01*
X8075250Y-17220000D01*
X8072378Y-17198189D01*
X8062244Y-17121213D01*
X8056330Y-17076291D01*
X8029937Y-17012572D01*
X8020500Y-16965124D01*
X8020500Y-14618676D01*
X8040185Y-14551637D01*
X8056819Y-14530995D01*
X9053495Y-13534319D01*
X9114818Y-13500834D01*
X9141176Y-13498000D01*
X9562396Y-13498000D01*
X9629435Y-13517685D01*
G37*
%TD.AperFunction*%
%TA.AperFunction,Conductor*%
G36*
X7798834Y-8388994D02*
G01*
X7854767Y-8430866D01*
X7879184Y-8496330D01*
X7879500Y-8505176D01*
X7879500Y-11279564D01*
X7859815Y-11346603D01*
X7807011Y-11392358D01*
X7737853Y-11402302D01*
X7678591Y-11376832D01*
X7673345Y-11372684D01*
X7524124Y-11280643D01*
X7524119Y-11280641D01*
X7357697Y-11225494D01*
X7357690Y-11225493D01*
X7254986Y-11215000D01*
X7242500Y-11215000D01*
X7242500Y-12065000D01*
X7935824Y-12065000D01*
X8002863Y-12084685D01*
X8023505Y-12101319D01*
X8459504Y-12537318D01*
X8492989Y-12598641D01*
X8488005Y-12668333D01*
X8459504Y-12712680D01*
X8166681Y-13005504D01*
X8105358Y-13038989D01*
X8035667Y-13034005D01*
X7979733Y-12992134D01*
X7955316Y-12926669D01*
X7955000Y-12917823D01*
X7955000Y-12815000D01*
X7242500Y-12815000D01*
X7242500Y-13664999D01*
X7256914Y-13679413D01*
X7274864Y-13684684D01*
X7320619Y-13737488D01*
X7330563Y-13806646D01*
X7301538Y-13870202D01*
X7295506Y-13876680D01*
X7119502Y-14052683D01*
X7119500Y-14052686D01*
X7053608Y-14166812D01*
X7019500Y-14294108D01*
X7019500Y-16961322D01*
X6999815Y-17028361D01*
X6983182Y-17049003D01*
X6842686Y-17189500D01*
X6749500Y-17282686D01*
X6683608Y-17396812D01*
X6675413Y-17427398D01*
X6667322Y-17457594D01*
X6630958Y-17517254D01*
X6568112Y-17547783D01*
X6547548Y-17549500D01*
X6143937Y-17549500D01*
X6091249Y-17535381D01*
X6090696Y-17536719D01*
X6083188Y-17533609D01*
X6083186Y-17533608D01*
X5955892Y-17499500D01*
X5265893Y-17499500D01*
X5134108Y-17499500D01*
X5006812Y-17533608D01*
X4892686Y-17599500D01*
X4892683Y-17599502D01*
X4442181Y-18050004D01*
X4380858Y-18083489D01*
X4311166Y-18078505D01*
X4255233Y-18036633D01*
X4230816Y-17971169D01*
X4230500Y-17962323D01*
X4230500Y-17866739D01*
X4225536Y-17832673D01*
X4220573Y-17798607D01*
X4169198Y-17693517D01*
X4169196Y-17693515D01*
X4169196Y-17693514D01*
X4086485Y-17610803D01*
X4058841Y-17597289D01*
X3981393Y-17559427D01*
X3981391Y-17559426D01*
X3913261Y-17549500D01*
X3913260Y-17549500D01*
X3483937Y-17549500D01*
X3431249Y-17535381D01*
X3430696Y-17536719D01*
X3423188Y-17533609D01*
X3423186Y-17533608D01*
X3295892Y-17499500D01*
X3295891Y-17499500D01*
X2318676Y-17499500D01*
X2251637Y-17479815D01*
X2230995Y-17463181D01*
X1966003Y-17198189D01*
X1932518Y-17136866D01*
X1937501Y-17067178D01*
X1969091Y-16982483D01*
X1975500Y-16922873D01*
X1975499Y-15877128D01*
X1969091Y-15817517D01*
X1958827Y-15789999D01*
X1918797Y-15682671D01*
X1918793Y-15682664D01*
X1832547Y-15567455D01*
X1832544Y-15567452D01*
X1717335Y-15481206D01*
X1717328Y-15481202D01*
X1582486Y-15430910D01*
X1582485Y-15430909D01*
X1582483Y-15430909D01*
X1522873Y-15424500D01*
X1522863Y-15424500D01*
X752129Y-15424500D01*
X752123Y-15424501D01*
X692516Y-15430908D01*
X557671Y-15481202D01*
X557664Y-15481206D01*
X442455Y-15567452D01*
X442452Y-15567455D01*
X356206Y-15682664D01*
X356202Y-15682671D01*
X305908Y-15817517D01*
X303663Y-15838403D01*
X299501Y-15877123D01*
X299500Y-15877135D01*
X299500Y-16922870D01*
X299501Y-16922876D01*
X305908Y-16982483D01*
X356202Y-17117327D01*
X356203Y-17117328D01*
X356204Y-17117331D01*
X368296Y-17133483D01*
X392713Y-17198945D01*
X377862Y-17267219D01*
X356710Y-17295475D01*
X-73660Y-17725846D01*
X-134983Y-17759331D01*
X-204674Y-17754347D01*
X-260606Y-17712478D01*
X-283882Y-17681385D01*
X-396220Y-17597289D01*
X-396221Y-17597288D01*
X-396222Y-17597288D01*
X-423033Y-17587288D01*
X-438786Y-17581412D01*
X-494718Y-17539539D01*
X-519133Y-17474074D01*
X-504280Y-17405801D01*
X-454873Y-17356397D01*
X-438781Y-17349049D01*
X-357673Y-17318798D01*
X-357664Y-17318793D01*
X-242455Y-17232547D01*
X-242452Y-17232544D01*
X-156206Y-17117335D01*
X-156202Y-17117328D01*
X-105908Y-16982482D01*
X-99501Y-16922883D01*
X-99500Y-16922881D01*
X-99500Y-16922873D01*
X-99500Y-16548500D01*
X-99500Y-15877129D01*
X-99501Y-15877123D01*
X-105908Y-15817516D01*
X-156202Y-15682671D01*
X-156206Y-15682664D01*
X-242452Y-15567455D01*
X-242455Y-15567452D01*
X-357664Y-15481206D01*
X-357671Y-15481202D01*
X-492517Y-15430908D01*
X-492516Y-15430908D01*
X-552116Y-15424501D01*
X-552119Y-15424500D01*
X-552127Y-15424500D01*
X-552135Y-15424500D01*
X-1153822Y-15424500D01*
X-1220861Y-15404815D01*
X-1241503Y-15388182D01*
X-1370186Y-15259500D01*
X-1484312Y-15193608D01*
X-1611608Y-15159500D01*
X-3616353Y-15159500D01*
X-3683392Y-15139815D01*
X-3729147Y-15087011D01*
X-3739091Y-15017853D01*
X-3710066Y-14954297D01*
X-3681630Y-14930073D01*
X-3603960Y-14881982D01*
X-3603958Y-14881980D01*
X-3603613Y-14881666D01*
X-3566882Y-14848181D01*
X-3453237Y-14744581D01*
X-3377791Y-14644674D01*
X-704814Y-14644674D01*
X-690280Y-14717740D01*
X-634915Y-14800601D01*
X-552054Y-14855966D01*
X-478991Y-14870499D01*
X-478990Y-14870500D01*
X-478988Y-14870500D01*
X1170362Y-14870500D01*
X1170363Y-14870499D01*
X1243426Y-14855966D01*
X1326287Y-14800601D01*
X1381652Y-14717740D01*
X1396186Y-14644674D01*
X1396186Y-12995326D01*
X1396186Y-12995323D01*
X1396185Y-12995321D01*
X1381653Y-12922264D01*
X1381652Y-12922260D01*
X1376154Y-12914032D01*
X1326287Y-12839399D01*
X1243426Y-12784034D01*
X1243425Y-12784033D01*
X1243421Y-12784032D01*
X1170363Y-12769500D01*
X1170360Y-12769500D01*
X-478988Y-12769500D01*
X-478991Y-12769500D01*
X-552049Y-12784032D01*
X-552053Y-12784033D01*
X-552054Y-12784034D01*
X-634915Y-12839399D01*
X-684782Y-12914032D01*
X-690280Y-12922260D01*
X-690281Y-12922264D01*
X-704813Y-12995321D01*
X-704814Y-12995323D01*
X-704814Y-12995326D01*
X-704814Y-14644674D01*
X-3377791Y-14644674D01*
X-3330327Y-14581821D01*
X-3239422Y-14399260D01*
X-3239417Y-14399247D01*
X-3183602Y-14203082D01*
X-3164785Y-14000000D01*
X-3164785Y-13999999D01*
X-3183602Y-13796917D01*
X-3239417Y-13600752D01*
X-3239422Y-13600739D01*
X-3330327Y-13418178D01*
X-3453238Y-13255418D01*
X-3491539Y-13220502D01*
X-3527820Y-13160791D01*
X-3532000Y-13128866D01*
X-3532000Y-12251634D01*
X-3512315Y-12184595D01*
X-3482311Y-12152368D01*
X-3433884Y-12116116D01*
X-3402001Y-12073526D01*
X-3357846Y-12014543D01*
X-3301912Y-11972673D01*
X-3232221Y-11967689D01*
X-3170898Y-12001175D01*
X-3140873Y-12049853D01*
X-3130451Y-12081303D01*
X-3130448Y-12081311D01*
X-3039947Y-12228034D01*
X-3039944Y-12228038D01*
X-2918038Y-12349944D01*
X-2918034Y-12349947D01*
X-2771311Y-12440448D01*
X-2771300Y-12440453D01*
X-2607653Y-12494680D01*
X-2607650Y-12494681D01*
X-2582500Y-12497250D01*
X-2582500Y-11279000D01*
X-2562815Y-11211961D01*
X-2510011Y-11166206D01*
X-2458500Y-11155000D01*
X-1956500Y-11155000D01*
X-1889461Y-11174685D01*
X-1843706Y-11227489D01*
X-1832500Y-11279000D01*
X-1832500Y-12497249D01*
X-1832499Y-12497250D01*
X-1807349Y-12494681D01*
X-1807346Y-12494680D01*
X-1643699Y-12440453D01*
X-1643688Y-12440448D01*
X-1496965Y-12349947D01*
X-1496961Y-12349944D01*
X-1388359Y-12241342D01*
X-1327036Y-12207857D01*
X-1257344Y-12212841D01*
X-1225191Y-12230648D01*
X-1222622Y-12232618D01*
X-1222621Y-12232621D01*
X-1107625Y-12320861D01*
X-973709Y-12376330D01*
X-844977Y-12393278D01*
X-830001Y-12395250D01*
X-830000Y-12395250D01*
X-829999Y-12395250D01*
X-757918Y-12385760D01*
X-686291Y-12376330D01*
X-622572Y-12349937D01*
X-575124Y-12340500D01*
X2191324Y-12340500D01*
X2258363Y-12360185D01*
X2279005Y-12376819D01*
X2465867Y-12563681D01*
X2492747Y-12603909D01*
X2519139Y-12667625D01*
X2523203Y-12674664D01*
X2520706Y-12676105D01*
X2540876Y-12728320D01*
X2526819Y-12796761D01*
X2477991Y-12846737D01*
X2475757Y-12847961D01*
X2371314Y-12903788D01*
X2299236Y-12942315D01*
X2299234Y-12942316D01*
X2299233Y-12942317D01*
X2139275Y-13073589D01*
X2018709Y-13220502D01*
X2008001Y-13233550D01*
X1974082Y-13297007D01*
X1910455Y-13416043D01*
X1850385Y-13614067D01*
X1830103Y-13820000D01*
X1850385Y-14025932D01*
X1872853Y-14099999D01*
X1910454Y-14223954D01*
X2008001Y-14406450D01*
X2008003Y-14406452D01*
X2139275Y-14566410D01*
X2215836Y-14629241D01*
X2299236Y-14697685D01*
X2481732Y-14795232D01*
X2679752Y-14855300D01*
X2679751Y-14855300D01*
X2698215Y-14857118D01*
X2885686Y-14875583D01*
X3091620Y-14855300D01*
X3289640Y-14795232D01*
X3472136Y-14697685D01*
X3632096Y-14566410D01*
X3763371Y-14406450D01*
X3860918Y-14223954D01*
X3920986Y-14025934D01*
X3941269Y-13820000D01*
X3920986Y-13614066D01*
X3860918Y-13416046D01*
X3763371Y-13233550D01*
X3688123Y-13141859D01*
X3632096Y-13073589D01*
X3472136Y-12942315D01*
X3457741Y-12934620D01*
X3407898Y-12885656D01*
X3392440Y-12817518D01*
X3416274Y-12751839D01*
X3417823Y-12749777D01*
X3465619Y-12687489D01*
X3480861Y-12667625D01*
X3536330Y-12533709D01*
X3555250Y-12390000D01*
X3549976Y-12349944D01*
X3535592Y-12240686D01*
X3546357Y-12171650D01*
X3592737Y-12119394D01*
X3658531Y-12100500D01*
X3693824Y-12100500D01*
X3760863Y-12120185D01*
X3781505Y-12136819D01*
X3918181Y-12273495D01*
X3951666Y-12334818D01*
X3954500Y-12361176D01*
X3954500Y-12962870D01*
X3954501Y-12962876D01*
X3960908Y-13022483D01*
X4011202Y-13157328D01*
X4011206Y-13157335D01*
X4097452Y-13272544D01*
X4097455Y-13272547D01*
X4212664Y-13358793D01*
X4212671Y-13358797D01*
X4257618Y-13375561D01*
X4347517Y-13409091D01*
X4407127Y-13415500D01*
X5177872Y-13415499D01*
X5237483Y-13409091D01*
X5372331Y-13358796D01*
X5487546Y-13272546D01*
X5573796Y-13157331D01*
X5581180Y-13137532D01*
X5623050Y-13081598D01*
X5688514Y-13057179D01*
X5756787Y-13072029D01*
X5806194Y-13121433D01*
X5815069Y-13141859D01*
X5845641Y-13234119D01*
X5845643Y-13234124D01*
X5937684Y-13383345D01*
X6061654Y-13507315D01*
X6210875Y-13599356D01*
X6210880Y-13599358D01*
X6377302Y-13654505D01*
X6377309Y-13654506D01*
X6480019Y-13664999D01*
X6492500Y-13664998D01*
X6492500Y-11180239D01*
X6490500Y-11161638D01*
X6490500Y-10264875D01*
X6499939Y-10217422D01*
X6526330Y-10153709D01*
X6545250Y-10010000D01*
X6526330Y-9866291D01*
X6470861Y-9732375D01*
X6382621Y-9617379D01*
X6267625Y-9529139D01*
X6267624Y-9529138D01*
X6267622Y-9529137D01*
X6133712Y-9473671D01*
X6133710Y-9473670D01*
X6133709Y-9473670D01*
X6034852Y-9460655D01*
X5990001Y-9454750D01*
X5989999Y-9454750D01*
X5945178Y-9460651D01*
X5846291Y-9473670D01*
X5846290Y-9473670D01*
X5838234Y-9474731D01*
X5837801Y-9471448D01*
X5783348Y-9470136D01*
X5725497Y-9430955D01*
X5698012Y-9366718D01*
X5709620Y-9297820D01*
X5733456Y-9264357D01*
X6275995Y-8721819D01*
X6337318Y-8688334D01*
X6363676Y-8685500D01*
X7258390Y-8685500D01*
X7258392Y-8685500D01*
X7385686Y-8651392D01*
X7499814Y-8585500D01*
X7667819Y-8417495D01*
X7729142Y-8384010D01*
X7798834Y-8388994D01*
G37*
%TD.AperFunction*%
%TA.AperFunction,Conductor*%
G36*
X12660102Y-15903449D02*
G01*
X12689746Y-15922500D01*
X14171000Y-15922500D01*
X14238039Y-15942185D01*
X14283794Y-15994989D01*
X14295000Y-16046500D01*
X14295000Y-16548500D01*
X14275315Y-16615539D01*
X14222511Y-16661294D01*
X14171000Y-16672500D01*
X12695001Y-16672500D01*
X12695001Y-16684986D01*
X12705494Y-16787697D01*
X12760641Y-16954119D01*
X12760643Y-16954124D01*
X12852684Y-17103345D01*
X12976654Y-17227315D01*
X13125875Y-17319356D01*
X13125880Y-17319358D01*
X13247684Y-17359720D01*
X13305129Y-17399493D01*
X13331952Y-17464008D01*
X13319637Y-17532784D01*
X13272094Y-17583984D01*
X13268110Y-17586257D01*
X13266222Y-17587287D01*
X13153884Y-17671384D01*
X13069788Y-17783721D01*
X13058556Y-17813835D01*
X13016684Y-17869768D01*
X12951219Y-17894184D01*
X12942375Y-17894500D01*
X12334400Y-17894500D01*
X12267361Y-17874815D01*
X12246719Y-17858181D01*
X12189319Y-17800781D01*
X12155834Y-17739458D01*
X12153000Y-17713100D01*
X12153000Y-17105211D01*
X12172685Y-17038172D01*
X12220705Y-16994726D01*
X12258342Y-16975550D01*
X12348050Y-16885842D01*
X12405646Y-16772804D01*
X12405646Y-16772802D01*
X12405647Y-16772801D01*
X12420499Y-16679024D01*
X12420500Y-16679019D01*
X12420499Y-16091897D01*
X12440183Y-16024859D01*
X12456808Y-16004227D01*
X12529090Y-15931946D01*
X12590411Y-15898464D01*
X12660102Y-15903449D01*
G37*
%TD.AperFunction*%
%TA.AperFunction,Conductor*%
G36*
X13820140Y-2675185D02*
G01*
X13840782Y-2691819D01*
X15283181Y-4134218D01*
X15316666Y-4195541D01*
X15319500Y-4221899D01*
X15319500Y-11259101D01*
X15299815Y-11326140D01*
X15247011Y-11371895D01*
X15177853Y-11381839D01*
X15114297Y-11352814D01*
X15107819Y-11346782D01*
X14413063Y-10652026D01*
X14413062Y-10652025D01*
X14327438Y-10602590D01*
X14279686Y-10589795D01*
X14279684Y-10589794D01*
X14279682Y-10589793D01*
X14231936Y-10577000D01*
X14231935Y-10577000D01*
X13943191Y-10577000D01*
X13888731Y-10564401D01*
X13781391Y-10511926D01*
X13713261Y-10502000D01*
X13713260Y-10502000D01*
X12346740Y-10502000D01*
X12346739Y-10502000D01*
X12278608Y-10511926D01*
X12173514Y-10563303D01*
X12090803Y-10646014D01*
X12039426Y-10751108D01*
X12029500Y-10819239D01*
X12029500Y-11085760D01*
X12039426Y-11153891D01*
X12090803Y-11258985D01*
X12173514Y-11341696D01*
X12173515Y-11341696D01*
X12173517Y-11341698D01*
X12278607Y-11393073D01*
X12308504Y-11397429D01*
X12346739Y-11403000D01*
X12835523Y-11403000D01*
X12902562Y-11422685D01*
X12948317Y-11475489D01*
X12958261Y-11544647D01*
X12929236Y-11608203D01*
X12870458Y-11645977D01*
X12859714Y-11648617D01*
X12847554Y-11651035D01*
X12847538Y-11651040D01*
X12733718Y-11698185D01*
X12733709Y-11698190D01*
X12631272Y-11766639D01*
X12626562Y-11770505D01*
X12625581Y-11769310D01*
X12570906Y-11799166D01*
X12544548Y-11802000D01*
X12346739Y-11802000D01*
X12278608Y-11811926D01*
X12173514Y-11863303D01*
X12090803Y-11946014D01*
X12039426Y-12051108D01*
X12029500Y-12119239D01*
X12029500Y-12373000D01*
X12009815Y-12440039D01*
X11957011Y-12485794D01*
X11905500Y-12497000D01*
X11494500Y-12497000D01*
X11427461Y-12477315D01*
X11381706Y-12424511D01*
X11370500Y-12373000D01*
X11370500Y-12250984D01*
X11390185Y-12183945D01*
X11419015Y-12152607D01*
X11447923Y-12130425D01*
X11544100Y-12005086D01*
X11604555Y-11859131D01*
X11612012Y-11802500D01*
X11064642Y-11802500D01*
X11055674Y-11802175D01*
X11053261Y-11802000D01*
X11053260Y-11802000D01*
X10623937Y-11802000D01*
X10571249Y-11787881D01*
X10570696Y-11789219D01*
X10563188Y-11786109D01*
X10563186Y-11786108D01*
X10435892Y-11752000D01*
X10435891Y-11752000D01*
X10294000Y-11752000D01*
X10226961Y-11732315D01*
X10181206Y-11679511D01*
X10170000Y-11628000D01*
X10170000Y-11577000D01*
X10189685Y-11509961D01*
X10242489Y-11464206D01*
X10294000Y-11453000D01*
X10435890Y-11453000D01*
X10435892Y-11453000D01*
X10563186Y-11418892D01*
X10563194Y-11418887D01*
X10570696Y-11415781D01*
X10571249Y-11417118D01*
X10623937Y-11403000D01*
X11053261Y-11403000D01*
X11055674Y-11402825D01*
X11064642Y-11402500D01*
X11612010Y-11402500D01*
X11612011Y-11402498D01*
X11604557Y-11345872D01*
X11604555Y-11345866D01*
X11544100Y-11199914D01*
X11447921Y-11074571D01*
X11419013Y-11052389D01*
X11377811Y-10995961D01*
X11370500Y-10954014D01*
X11370500Y-10819239D01*
X11360573Y-10751108D01*
X11352607Y-10734813D01*
X11309198Y-10646017D01*
X11309196Y-10646015D01*
X11309196Y-10646014D01*
X11226485Y-10563303D01*
X11121391Y-10511926D01*
X11053261Y-10502000D01*
X11053260Y-10502000D01*
X10623937Y-10502000D01*
X10571249Y-10487881D01*
X10570696Y-10489219D01*
X10563188Y-10486109D01*
X10563186Y-10486108D01*
X10435892Y-10452000D01*
X9373392Y-10452000D01*
X9241607Y-10452000D01*
X9160965Y-10473607D01*
X9160965Y-10473608D01*
X9140393Y-10479120D01*
X9114309Y-10486109D01*
X9066500Y-10513713D01*
X8998600Y-10530186D01*
X8932573Y-10507334D01*
X8889382Y-10452412D01*
X8880500Y-10406326D01*
X8880500Y-7809051D01*
X8894015Y-7752756D01*
X8915646Y-7710304D01*
X8915646Y-7710302D01*
X8915647Y-7710301D01*
X8930499Y-7616524D01*
X8930500Y-7616519D01*
X8930499Y-6378482D01*
X8915646Y-6284696D01*
X8903466Y-6260792D01*
X8890571Y-6192126D01*
X8916847Y-6127385D01*
X8973954Y-6087128D01*
X9013952Y-6080500D01*
X9155500Y-6080500D01*
X9222539Y-6100185D01*
X9268294Y-6152989D01*
X9279500Y-6204500D01*
X9279500Y-6504678D01*
X9294032Y-6577735D01*
X9294033Y-6577739D01*
X9294034Y-6577740D01*
X9349399Y-6660601D01*
X9432260Y-6715966D01*
X9432264Y-6715967D01*
X9505321Y-6730499D01*
X9505324Y-6730500D01*
X9505326Y-6730500D01*
X11354676Y-6730500D01*
X11354677Y-6730499D01*
X11427740Y-6715966D01*
X11510601Y-6660601D01*
X11565966Y-6577740D01*
X11580500Y-6504674D01*
X11580500Y-5736053D01*
X11600185Y-5669014D01*
X11652989Y-5623259D01*
X11722147Y-5613315D01*
X11785703Y-5642340D01*
X11823477Y-5701118D01*
X11827970Y-5724611D01*
X11834244Y-5792310D01*
X11874608Y-5934174D01*
X11892596Y-5997392D01*
X11892596Y-5997394D01*
X11987632Y-6188253D01*
X12116127Y-6358406D01*
X12116128Y-6358407D01*
X12273698Y-6502052D01*
X12454981Y-6614298D01*
X12653802Y-6691321D01*
X12863390Y-6730500D01*
X12863392Y-6730500D01*
X13076608Y-6730500D01*
X13076610Y-6730500D01*
X13286198Y-6691321D01*
X13485019Y-6614298D01*
X13666302Y-6502052D01*
X13823872Y-6358407D01*
X13952366Y-6188255D01*
X13980674Y-6131405D01*
X14047403Y-5997394D01*
X14047403Y-5997393D01*
X14047405Y-5997389D01*
X14105756Y-5792310D01*
X14125429Y-5580000D01*
X14105756Y-5367690D01*
X14047405Y-5162611D01*
X14047403Y-5162606D01*
X14047403Y-5162605D01*
X13952367Y-4971746D01*
X13823872Y-4801593D01*
X13748784Y-4733141D01*
X13666302Y-4657948D01*
X13485019Y-4545702D01*
X13485017Y-4545701D01*
X13354975Y-4495323D01*
X13329705Y-4485533D01*
X13274305Y-4442961D01*
X13250714Y-4377194D01*
X13250500Y-4369907D01*
X13250500Y-4241634D01*
X13270185Y-4174595D01*
X13300188Y-4142368D01*
X13348616Y-4106116D01*
X13432712Y-3993778D01*
X13481751Y-3862299D01*
X13487999Y-3804190D01*
X13488000Y-3804173D01*
X13488000Y-3235826D01*
X13487999Y-3235809D01*
X13481751Y-3177700D01*
X13467165Y-3138594D01*
X13432712Y-3046222D01*
X13348616Y-2933884D01*
X13333807Y-2922798D01*
X13274989Y-2878766D01*
X13233118Y-2822832D01*
X13228134Y-2753141D01*
X13261620Y-2691818D01*
X13322943Y-2658334D01*
X13349300Y-2655500D01*
X13753101Y-2655500D01*
X13820140Y-2675185D01*
G37*
%TD.AperFunction*%
%TA.AperFunction,Conductor*%
G36*
X6838254Y-4290185D02*
G01*
X6884009Y-4342989D01*
X6893953Y-4412147D01*
X6893688Y-4413898D01*
X6879500Y-4503475D01*
X6879500Y-5640456D01*
X6859815Y-5707495D01*
X6826920Y-5735998D01*
X6829549Y-5739500D01*
X6780000Y-5776702D01*
X6780000Y-6697500D01*
X7280000Y-6697500D01*
X7280000Y-6344365D01*
X7279999Y-6344350D01*
X7277100Y-6307512D01*
X7265939Y-6269094D01*
X7266139Y-6199224D01*
X7304082Y-6140554D01*
X7367720Y-6111711D01*
X7385007Y-6110499D01*
X7611518Y-6110499D01*
X7705304Y-6095646D01*
X7705305Y-6095645D01*
X7714943Y-6094119D01*
X7715263Y-6096143D01*
X7772500Y-6094504D01*
X7832335Y-6130580D01*
X7863168Y-6193279D01*
X7855209Y-6262693D01*
X7851472Y-6270726D01*
X7844353Y-6284697D01*
X7844352Y-6284698D01*
X7829500Y-6378475D01*
X7829500Y-6788823D01*
X7809815Y-6855862D01*
X7793181Y-6876504D01*
X7408504Y-7261181D01*
X7347181Y-7294666D01*
X7320823Y-7297500D01*
X5680000Y-7297500D01*
X5680000Y-7650649D01*
X5682899Y-7687489D01*
X5710120Y-7781185D01*
X5709920Y-7851054D01*
X5678724Y-7903460D01*
X5577180Y-8005004D01*
X5515857Y-8038489D01*
X5446165Y-8033505D01*
X5390232Y-7991633D01*
X5365815Y-7926169D01*
X5365499Y-7917340D01*
X5365499Y-7444628D01*
X5359091Y-7385017D01*
X5348129Y-7355627D01*
X5308797Y-7250171D01*
X5308793Y-7250164D01*
X5222547Y-7134955D01*
X5222544Y-7134952D01*
X5107335Y-7048706D01*
X5107329Y-7048703D01*
X5087529Y-7041318D01*
X5031596Y-6999446D01*
X5007179Y-6933982D01*
X5022031Y-6865709D01*
X5071437Y-6816304D01*
X5091860Y-6807430D01*
X5184117Y-6776859D01*
X5184124Y-6776856D01*
X5333345Y-6684815D01*
X5457313Y-6560847D01*
X5458730Y-6559056D01*
X5460014Y-6558146D01*
X5462424Y-6555737D01*
X5462835Y-6556148D01*
X5515749Y-6518677D01*
X5585548Y-6515534D01*
X5645966Y-6550627D01*
X5677820Y-6612812D01*
X5680000Y-6635962D01*
X5680000Y-6697500D01*
X6180000Y-6697500D01*
X6180000Y-5776702D01*
X6179998Y-5776701D01*
X6069806Y-5808715D01*
X6069803Y-5808717D01*
X5928447Y-5892314D01*
X5928438Y-5892321D01*
X5812321Y-6008438D01*
X5812315Y-6008446D01*
X5775190Y-6071220D01*
X5724120Y-6118902D01*
X5666362Y-6129407D01*
X5666362Y-6130000D01*
X5663103Y-6130000D01*
X5655378Y-6131405D01*
X5651972Y-6130000D01*
X4139000Y-6130000D01*
X4071961Y-6110315D01*
X4026206Y-6057511D01*
X4015000Y-6006000D01*
X4015000Y-4667500D01*
X4765000Y-4667500D01*
X4765000Y-5380000D01*
X5614999Y-5380000D01*
X5614999Y-5367528D01*
X5614998Y-5367513D01*
X5604505Y-5264802D01*
X5549358Y-5098380D01*
X5549356Y-5098375D01*
X5457315Y-4949154D01*
X5333345Y-4825184D01*
X5184124Y-4733143D01*
X5184119Y-4733141D01*
X5017697Y-4677994D01*
X5017690Y-4677993D01*
X4914986Y-4667500D01*
X4765000Y-4667500D01*
X4015000Y-4667500D01*
X3865027Y-4667500D01*
X3865012Y-4667501D01*
X3762302Y-4677994D01*
X3595880Y-4733141D01*
X3595875Y-4733143D01*
X3446654Y-4825184D01*
X3322684Y-4949154D01*
X3320038Y-4953445D01*
X3268089Y-5000168D01*
X3199126Y-5011389D01*
X3135044Y-4983545D01*
X3096189Y-4925475D01*
X3090500Y-4888346D01*
X3090500Y-4765798D01*
X3110185Y-4698759D01*
X3118647Y-4687133D01*
X3132883Y-4669787D01*
X3134106Y-4667500D01*
X3179667Y-4582260D01*
X3221004Y-4504924D01*
X3259751Y-4377194D01*
X3265421Y-4358504D01*
X3303718Y-4300066D01*
X3367531Y-4271609D01*
X3384081Y-4270500D01*
X6771215Y-4270500D01*
X6838254Y-4290185D01*
G37*
%TD.AperFunction*%
%TA.AperFunction,Conductor*%
G36*
X15762539Y1659815D02*
G01*
X15808294Y1607011D01*
X15819500Y1555500D01*
X15819500Y-3309101D01*
X15799815Y-3376140D01*
X15747011Y-3421895D01*
X15677853Y-3431839D01*
X15614297Y-3402814D01*
X15607819Y-3396782D01*
X14190563Y-1979526D01*
X14190562Y-1979525D01*
X14104938Y-1930090D01*
X14034455Y-1911204D01*
X14034454Y-1911203D01*
X14009436Y-1904500D01*
X14009435Y-1904500D01*
X11486899Y-1904500D01*
X11419860Y-1884815D01*
X11399218Y-1868181D01*
X10681654Y-1150617D01*
X10648169Y-1089294D01*
X10653153Y-1019602D01*
X10695025Y-963669D01*
X10704049Y-957514D01*
X10826041Y-881981D01*
X10976764Y-744579D01*
X11099673Y-581821D01*
X11190582Y-399250D01*
X11246397Y-203083D01*
X11265215Y0D01*
X11594784Y0D01*
X11613602Y-203082D01*
X11669417Y-399247D01*
X11669422Y-399260D01*
X11760327Y-581821D01*
X11883237Y-744581D01*
X12033958Y-881980D01*
X12033960Y-881982D01*
X12114268Y-931706D01*
X12207363Y-989348D01*
X12397544Y-1063024D01*
X12598024Y-1100500D01*
X12598026Y-1100500D01*
X12801974Y-1100500D01*
X12801976Y-1100500D01*
X13002456Y-1063024D01*
X13192637Y-989348D01*
X13366041Y-881981D01*
X13516764Y-744579D01*
X13639673Y-581821D01*
X13730582Y-399250D01*
X13786397Y-203083D01*
X13805215Y0D01*
X13786397Y203083D01*
X13730582Y399250D01*
X13639673Y581821D01*
X13516764Y744579D01*
X13366041Y881981D01*
X13192637Y989348D01*
X13002456Y1063024D01*
X12801976Y1100500D01*
X12598024Y1100500D01*
X12397544Y1063024D01*
X12207363Y989348D01*
X12207357Y989344D01*
X12033960Y881982D01*
X12033958Y881980D01*
X11883237Y744581D01*
X11760327Y581821D01*
X11669422Y399260D01*
X11669417Y399247D01*
X11613602Y203082D01*
X11594784Y0D01*
X11265215Y0D01*
X11246397Y203083D01*
X11190582Y399250D01*
X11099673Y581821D01*
X10976764Y744579D01*
X10826041Y881981D01*
X10652637Y989348D01*
X10462456Y1063024D01*
X10261976Y1100500D01*
X10058024Y1100500D01*
X9857544Y1063024D01*
X9667363Y989348D01*
X9667357Y989344D01*
X9493960Y881982D01*
X9493958Y881980D01*
X9343237Y744581D01*
X9220327Y581821D01*
X9129422Y399260D01*
X9129417Y399247D01*
X9073602Y203082D01*
X9054784Y0D01*
X9073602Y-203082D01*
X9129417Y-399247D01*
X9129422Y-399260D01*
X9220327Y-581821D01*
X9343237Y-744581D01*
X9493958Y-881980D01*
X9493960Y-881982D01*
X9574268Y-931706D01*
X9667363Y-989348D01*
X9705293Y-1004042D01*
X9760694Y-1046612D01*
X9784286Y-1112378D01*
X9784500Y-1119668D01*
X9784500Y-1209435D01*
X9810090Y-1304938D01*
X9810091Y-1304939D01*
X9810091Y-1304940D01*
X9859526Y-1390563D01*
X11026782Y-2557819D01*
X11060267Y-2619142D01*
X11055283Y-2688834D01*
X11013411Y-2744767D01*
X10947947Y-2769184D01*
X10939101Y-2769500D01*
X3214500Y-2769500D01*
X3147461Y-2749815D01*
X3101706Y-2697011D01*
X3090500Y-2645500D01*
X3090500Y-1022587D01*
X3110185Y-955548D01*
X3149220Y-917162D01*
X3206041Y-881981D01*
X3356764Y-744579D01*
X3479673Y-581821D01*
X3570582Y-399250D01*
X3626397Y-203083D01*
X3645215Y0D01*
X3974785Y0D01*
X3993602Y-203082D01*
X4049417Y-399247D01*
X4049422Y-399260D01*
X4140327Y-581821D01*
X4263237Y-744581D01*
X4413958Y-881980D01*
X4413960Y-881982D01*
X4494268Y-931706D01*
X4587363Y-989348D01*
X4777544Y-1063024D01*
X4978024Y-1100500D01*
X4978026Y-1100500D01*
X5181974Y-1100500D01*
X5181976Y-1100500D01*
X5382456Y-1063024D01*
X5572637Y-989348D01*
X5746041Y-881981D01*
X5896764Y-744579D01*
X6019673Y-581821D01*
X6110582Y-399250D01*
X6166397Y-203083D01*
X6185215Y0D01*
X6514785Y0D01*
X6533602Y-203082D01*
X6589417Y-399247D01*
X6589422Y-399260D01*
X6680327Y-581821D01*
X6803237Y-744581D01*
X6953958Y-881980D01*
X6953960Y-881982D01*
X7034268Y-931706D01*
X7127363Y-989348D01*
X7317544Y-1063024D01*
X7518024Y-1100500D01*
X7518026Y-1100500D01*
X7721974Y-1100500D01*
X7721976Y-1100500D01*
X7922456Y-1063024D01*
X8112637Y-989348D01*
X8286041Y-881981D01*
X8436764Y-744579D01*
X8559673Y-581821D01*
X8650582Y-399250D01*
X8706397Y-203083D01*
X8725215Y0D01*
X8706397Y203083D01*
X8650582Y399250D01*
X8559673Y581821D01*
X8436764Y744579D01*
X8286041Y881981D01*
X8112637Y989348D01*
X7922456Y1063024D01*
X7721976Y1100500D01*
X7518024Y1100500D01*
X7317544Y1063024D01*
X7127363Y989348D01*
X7127357Y989344D01*
X6953960Y881982D01*
X6953958Y881980D01*
X6803237Y744581D01*
X6680327Y581821D01*
X6589422Y399260D01*
X6589417Y399247D01*
X6533602Y203082D01*
X6514785Y0D01*
X6185215Y0D01*
X6166397Y203083D01*
X6110582Y399250D01*
X6019673Y581821D01*
X5896764Y744579D01*
X5746041Y881981D01*
X5572637Y989348D01*
X5382456Y1063024D01*
X5181976Y1100500D01*
X4978024Y1100500D01*
X4777544Y1063024D01*
X4587363Y989348D01*
X4587357Y989344D01*
X4413960Y881982D01*
X4413958Y881980D01*
X4263237Y744581D01*
X4140327Y581821D01*
X4049422Y399260D01*
X4049417Y399247D01*
X3993602Y203082D01*
X3974785Y0D01*
X3645215Y0D01*
X3626397Y203083D01*
X3570582Y399250D01*
X3479673Y581821D01*
X3356764Y744579D01*
X3206041Y881981D01*
X3032637Y989348D01*
X2842456Y1063024D01*
X2641976Y1100500D01*
X2438024Y1100500D01*
X2237544Y1063024D01*
X2047363Y989348D01*
X2047357Y989344D01*
X1873960Y881982D01*
X1873958Y881980D01*
X1723237Y744581D01*
X1600325Y581819D01*
X1585000Y551041D01*
X1537497Y499803D01*
X1469835Y482382D01*
X1403494Y504307D01*
X1359539Y558619D01*
X1350000Y606312D01*
X1350000Y897827D01*
X1349999Y897844D01*
X1343598Y957372D01*
X1343596Y957379D01*
X1293354Y1092086D01*
X1293350Y1092093D01*
X1207190Y1207187D01*
X1207187Y1207190D01*
X1092093Y1293350D01*
X1092086Y1293354D01*
X957379Y1343596D01*
X957372Y1343598D01*
X897844Y1349999D01*
X897828Y1350000D01*
X375000Y1350000D01*
X375000Y332106D01*
X307007Y400099D01*
X192993Y465925D01*
X65826Y500000D01*
X-65826Y500000D01*
X-192993Y465925D01*
X-307007Y400099D01*
X-400099Y307007D01*
X-465925Y192993D01*
X-500000Y65826D01*
X-500000Y-65826D01*
X-465925Y-192993D01*
X-400099Y-307007D01*
X-307007Y-400099D01*
X-192993Y-465925D01*
X-65826Y-500000D01*
X65826Y-500000D01*
X192993Y-465925D01*
X307007Y-400099D01*
X375000Y-332106D01*
X375000Y-1350000D01*
X897828Y-1350000D01*
X897844Y-1349999D01*
X957372Y-1343598D01*
X957379Y-1343596D01*
X1092086Y-1293354D01*
X1092093Y-1293350D01*
X1207187Y-1207190D01*
X1207190Y-1207187D01*
X1293350Y-1092093D01*
X1293354Y-1092086D01*
X1343597Y-957377D01*
X1344822Y-952195D01*
X1379392Y-891477D01*
X1441301Y-859088D01*
X1510893Y-865311D01*
X1566073Y-908171D01*
X1589322Y-974059D01*
X1589500Y-980704D01*
X1589500Y-3265500D01*
X1569815Y-3332539D01*
X1517011Y-3378294D01*
X1465500Y-3389500D01*
X-4654201Y-3389500D01*
X-4721240Y-3369815D01*
X-4732866Y-3361353D01*
X-4750211Y-3347117D01*
X-4750218Y-3347113D01*
X-4915069Y-3258998D01*
X-4991513Y-3235809D01*
X-5093963Y-3204731D01*
X-5093964Y-3204730D01*
X-5093965Y-3204730D01*
X-5116296Y-3202531D01*
X-5181082Y-3176369D01*
X-5191821Y-3166809D01*
X-6111581Y-2247049D01*
X-6185271Y-2197812D01*
X-6185270Y-2197811D01*
X-6234496Y-2164921D01*
X-6234508Y-2164914D01*
X-6371086Y-2108342D01*
X-6371092Y-2108340D01*
X-6516080Y-2079500D01*
X-6516082Y-2079500D01*
X-7820500Y-2079500D01*
X-7887539Y-2059815D01*
X-7933294Y-2007011D01*
X-7944500Y-1955500D01*
X-7944500Y-1044500D01*
X-7924815Y-977461D01*
X-7872011Y-931706D01*
X-7826320Y-921766D01*
X-7826386Y-921097D01*
X-7820645Y-920531D01*
X-7820500Y-920500D01*
X-7820324Y-920500D01*
X-7820321Y-920499D01*
X-7747264Y-905967D01*
X-7747260Y-905966D01*
X-7664399Y-850601D01*
X-7609034Y-767740D01*
X-7609033Y-767739D01*
X-7609032Y-767735D01*
X-7594500Y-694678D01*
X-7594500Y-486681D01*
X-7574815Y-419642D01*
X-7522011Y-373887D01*
X-7452853Y-363943D01*
X-7389297Y-392968D01*
X-7358118Y-434277D01*
X-7328601Y-497575D01*
X-7328600Y-497577D01*
X-7193105Y-691082D01*
X-7026082Y-858105D01*
X-6832578Y-993600D01*
X-6618492Y-1093429D01*
X-6618483Y-1093433D01*
X-6530000Y-1117142D01*
X-6530000Y-152106D01*
X-6462007Y-220099D01*
X-6347993Y-285925D01*
X-6220826Y-320000D01*
X-6089174Y-320000D01*
X-5962007Y-285925D01*
X-5847993Y-220099D01*
X-5822894Y-195000D01*
X-5780000Y-195000D01*
X-5780000Y-1117141D01*
X-5779999Y-1117142D01*
X-5691516Y-1093433D01*
X-5691507Y-1093429D01*
X-5477421Y-993600D01*
X-5283917Y-858105D01*
X-5116894Y-691082D01*
X-4981399Y-497578D01*
X-4924240Y-375000D01*
X-1350000Y-375000D01*
X-1350000Y-897827D01*
X-1349999Y-897844D01*
X-1343598Y-957372D01*
X-1343596Y-957379D01*
X-1293354Y-1092086D01*
X-1293350Y-1092093D01*
X-1207190Y-1207187D01*
X-1207187Y-1207190D01*
X-1092093Y-1293350D01*
X-1092086Y-1293354D01*
X-957379Y-1343596D01*
X-957372Y-1343598D01*
X-897844Y-1349999D01*
X-897828Y-1350000D01*
X-375000Y-1350000D01*
X-375000Y-375000D01*
X-1350000Y-375000D01*
X-4924240Y-375000D01*
X-4881570Y-283492D01*
X-4881566Y-283483D01*
X-4857858Y-195000D01*
X-5780000Y-195000D01*
X-5822894Y-195000D01*
X-5754901Y-127007D01*
X-5689075Y-12993D01*
X-5655000Y114174D01*
X-5655000Y245826D01*
X-5689075Y372993D01*
X-5690234Y375000D01*
X-1350000Y375000D01*
X-375000Y375000D01*
X-375000Y1350000D01*
X-897828Y1350000D01*
X-897844Y1349999D01*
X-957372Y1343598D01*
X-957379Y1343596D01*
X-1092086Y1293354D01*
X-1092093Y1293350D01*
X-1207187Y1207190D01*
X-1207190Y1207187D01*
X-1293350Y1092093D01*
X-1293354Y1092086D01*
X-1343596Y957379D01*
X-1343598Y957372D01*
X-1349999Y897844D01*
X-1350000Y897827D01*
X-1350000Y375000D01*
X-5690234Y375000D01*
X-5754901Y487007D01*
X-5822894Y555000D01*
X-4857857Y555000D01*
X-4881566Y643483D01*
X-4881570Y643492D01*
X-4981399Y857577D01*
X-4981400Y857579D01*
X-5116886Y1051073D01*
X-5116891Y1051079D01*
X-5283917Y1218105D01*
X-5477421Y1353600D01*
X-5669393Y1443118D01*
X-5721832Y1489290D01*
X-5740984Y1556484D01*
X-5720768Y1623365D01*
X-5667603Y1668700D01*
X-5616988Y1679500D01*
X15695500Y1679500D01*
X15762539Y1659815D01*
G37*
%TD.AperFunction*%
%TD*%
M02*
