%TF.GenerationSoftware,KiCad,Pcbnew,8.0.1*%
%TF.CreationDate,2024-05-25T07:42:12-07:00*%
%TF.ProjectId,knockControlBoard,6b6e6f63-6b43-46f6-9e74-726f6c426f61,rev?*%
%TF.SameCoordinates,Original*%
%TF.FileFunction,Soldermask,Top*%
%TF.FilePolarity,Negative*%
%FSLAX46Y46*%
G04 Gerber Fmt 4.6, Leading zero omitted, Abs format (unit mm)*
G04 Created by KiCad (PCBNEW 8.0.1) date 2024-05-25 07:42:12*
%MOMM*%
%LPD*%
G01*
G04 APERTURE LIST*
G04 Aperture macros list*
%AMRoundRect*
0 Rectangle with rounded corners*
0 $1 Rounding radius*
0 $2 $3 $4 $5 $6 $7 $8 $9 X,Y pos of 4 corners*
0 Add a 4 corners polygon primitive as box body*
4,1,4,$2,$3,$4,$5,$6,$7,$8,$9,$2,$3,0*
0 Add four circle primitives for the rounded corners*
1,1,$1+$1,$2,$3*
1,1,$1+$1,$4,$5*
1,1,$1+$1,$6,$7*
1,1,$1+$1,$8,$9*
0 Add four rect primitives between the rounded corners*
20,1,$1+$1,$2,$3,$4,$5,0*
20,1,$1+$1,$4,$5,$6,$7,0*
20,1,$1+$1,$6,$7,$8,$9,0*
20,1,$1+$1,$8,$9,$2,$3,0*%
G04 Aperture macros list end*
%ADD10RoundRect,0.162500X0.162500X-0.617500X0.162500X0.617500X-0.162500X0.617500X-0.162500X-0.617500X0*%
%ADD11RoundRect,0.237500X-0.237500X0.250000X-0.237500X-0.250000X0.237500X-0.250000X0.237500X0.250000X0*%
%ADD12RoundRect,0.250000X0.337500X0.475000X-0.337500X0.475000X-0.337500X-0.475000X0.337500X-0.475000X0*%
%ADD13C,4.000000*%
%ADD14RoundRect,0.162500X-0.617500X-0.162500X0.617500X-0.162500X0.617500X0.162500X-0.617500X0.162500X0*%
%ADD15R,1.700000X1.700000*%
%ADD16O,1.700000X1.700000*%
%ADD17R,1.600000X1.600000*%
%ADD18O,1.600000X1.600000*%
%ADD19R,3.960000X1.980000*%
%ADD20O,3.960000X1.980000*%
%ADD21C,1.397000*%
%ADD22RoundRect,0.237500X0.237500X-0.250000X0.237500X0.250000X-0.237500X0.250000X-0.237500X-0.250000X0*%
%ADD23R,1.980000X3.960000*%
%ADD24O,1.980000X3.960000*%
%ADD25RoundRect,0.100000X-0.650000X-0.100000X0.650000X-0.100000X0.650000X0.100000X-0.650000X0.100000X0*%
%ADD26RoundRect,0.250000X-0.337500X-0.475000X0.337500X-0.475000X0.337500X0.475000X-0.337500X0.475000X0*%
%ADD27RoundRect,0.100000X-0.100000X0.650000X-0.100000X-0.650000X0.100000X-0.650000X0.100000X0.650000X0*%
%ADD28R,1.800000X1.800000*%
%ADD29C,1.800000*%
%ADD30RoundRect,0.237500X0.250000X0.237500X-0.250000X0.237500X-0.250000X-0.237500X0.250000X-0.237500X0*%
%ADD31RoundRect,0.250000X-1.000000X-0.650000X1.000000X-0.650000X1.000000X0.650000X-1.000000X0.650000X0*%
%ADD32RoundRect,0.237500X-0.250000X-0.237500X0.250000X-0.237500X0.250000X0.237500X-0.250000X0.237500X0*%
G04 APERTURE END LIST*
D10*
%TO.C,U4*%
X112520000Y-104160000D03*
X113470000Y-104160000D03*
X114420000Y-104160000D03*
X114420000Y-101460000D03*
X113470000Y-101460000D03*
X112520000Y-101460000D03*
%TD*%
D11*
%TO.C,R6*%
X108870000Y-103915000D03*
X108870000Y-105740000D03*
%TD*%
D12*
%TO.C,C8*%
X117667500Y-95650000D03*
X115592500Y-95650000D03*
%TD*%
D13*
%TO.C,TP8*%
X112070000Y-111120000D03*
%TD*%
D10*
%TO.C,U5*%
X103690000Y-97060000D03*
X104640000Y-97060000D03*
X105590000Y-97060000D03*
X105590000Y-94360000D03*
X103690000Y-94360000D03*
%TD*%
D14*
%TO.C,U3*%
X109740000Y-89410000D03*
X109740000Y-90360000D03*
X109740000Y-91310000D03*
X112440000Y-91310000D03*
X112440000Y-89410000D03*
%TD*%
D13*
%TO.C,TP7*%
X106920000Y-111170000D03*
%TD*%
D15*
%TO.C,RV3*%
X102340000Y-109670000D03*
D16*
X102340000Y-107130000D03*
X102340000Y-104590000D03*
%TD*%
D13*
%TO.C,TP6*%
X115390000Y-85130000D03*
%TD*%
%TO.C,TP5*%
X118230000Y-89730000D03*
%TD*%
D17*
%TO.C,D4*%
X100890000Y-89510000D03*
D18*
X100890000Y-97130000D03*
%TD*%
D19*
%TO.C,J1*%
X92740000Y-98190000D03*
D20*
X92740000Y-103190000D03*
%TD*%
D21*
%TO.C,SW2*%
X87850000Y-92480000D03*
X87850000Y-84860000D03*
X92930000Y-92480000D03*
X92930000Y-84860000D03*
%TD*%
D22*
%TO.C,R2*%
X105420000Y-105670000D03*
X105420000Y-103845000D03*
%TD*%
D15*
%TO.C,RV2*%
X124220000Y-97190000D03*
D16*
X124220000Y-94650000D03*
X124220000Y-92110000D03*
%TD*%
D23*
%TO.C,J7*%
X107140000Y-72010000D03*
D24*
X102140000Y-72010000D03*
X97140000Y-72010000D03*
X92140000Y-72010000D03*
%TD*%
D25*
%TO.C,U1*%
X110770000Y-106230000D03*
X110770000Y-106880000D03*
X110770000Y-107530000D03*
X113430000Y-107530000D03*
X113430000Y-106230000D03*
%TD*%
D23*
%TO.C,J5*%
X113560000Y-72000000D03*
D24*
X118560000Y-72000000D03*
%TD*%
D13*
%TO.C,TP3*%
X110890000Y-81340000D03*
%TD*%
D26*
%TO.C,C1*%
X105260000Y-107540000D03*
X107335000Y-107540000D03*
%TD*%
D21*
%TO.C,SW1*%
X95590000Y-113960000D03*
X87970000Y-113960000D03*
X95590000Y-108880000D03*
X87970000Y-108880000D03*
%TD*%
D12*
%TO.C,C4*%
X110920000Y-93960000D03*
X108845000Y-93960000D03*
%TD*%
D13*
%TO.C,TP1*%
X86640000Y-80070000D03*
%TD*%
%TO.C,TP4*%
X110630000Y-97900000D03*
%TD*%
D27*
%TO.C,U6*%
X124940000Y-86012500D03*
X124290000Y-86012500D03*
X123640000Y-86012500D03*
X123640000Y-88672500D03*
X124940000Y-88672500D03*
%TD*%
D28*
%TO.C,D3*%
X122450000Y-82090000D03*
D29*
X119910000Y-82090000D03*
%TD*%
D15*
%TO.C,RV1*%
X124010000Y-112645000D03*
D16*
X124010000Y-110105000D03*
X124010000Y-107565000D03*
%TD*%
D10*
%TO.C,U2*%
X104320000Y-91440000D03*
X105270000Y-91440000D03*
X106220000Y-91440000D03*
X106220000Y-88740000D03*
X105270000Y-88740000D03*
X104320000Y-88740000D03*
%TD*%
D30*
%TO.C,R3*%
X117452500Y-93280000D03*
X115627500Y-93280000D03*
%TD*%
D13*
%TO.C,TP2*%
X118340000Y-108310000D03*
%TD*%
D31*
%TO.C,D1*%
X102430000Y-100640000D03*
X106430000Y-100640000D03*
%TD*%
D11*
%TO.C,R4*%
X104900000Y-81167500D03*
X104900000Y-82992500D03*
%TD*%
D32*
%TO.C,R1*%
X97635000Y-107640000D03*
X99460000Y-107640000D03*
%TD*%
D11*
%TO.C,R15*%
X99630000Y-80805000D03*
X99630000Y-82630000D03*
%TD*%
M02*
