%TF.GenerationSoftware,KiCad,Pcbnew,8.0.1*%
%TF.CreationDate,2024-05-06T17:41:32-07:00*%
%TF.ProjectId,knockControlBoard,6b6e6f63-6b43-46f6-9e74-726f6c426f61,rev?*%
%TF.SameCoordinates,Original*%
%TF.FileFunction,Legend,Top*%
%TF.FilePolarity,Positive*%
%FSLAX46Y46*%
G04 Gerber Fmt 4.6, Leading zero omitted, Abs format (unit mm)*
G04 Created by KiCad (PCBNEW 8.0.1) date 2024-05-06 17:41:32*
%MOMM*%
%LPD*%
G01*
G04 APERTURE LIST*
%ADD10C,0.300000*%
%ADD11C,0.150000*%
%ADD12C,0.120000*%
G04 APERTURE END LIST*
D10*
X91447761Y-81968797D02*
X93876332Y-81968797D01*
X93876332Y-81968797D02*
X94162046Y-82040225D01*
X94162046Y-82040225D02*
X94304904Y-82111654D01*
X94304904Y-82111654D02*
X94447761Y-82254511D01*
X94447761Y-82254511D02*
X94447761Y-82468797D01*
X94447761Y-82468797D02*
X94304904Y-82611654D01*
X93304904Y-81968797D02*
X93447761Y-82111654D01*
X93447761Y-82111654D02*
X93447761Y-82397368D01*
X93447761Y-82397368D02*
X93304904Y-82540225D01*
X93304904Y-82540225D02*
X93162046Y-82611654D01*
X93162046Y-82611654D02*
X92876332Y-82683082D01*
X92876332Y-82683082D02*
X92019189Y-82683082D01*
X92019189Y-82683082D02*
X91733475Y-82611654D01*
X91733475Y-82611654D02*
X91590618Y-82540225D01*
X91590618Y-82540225D02*
X91447761Y-82397368D01*
X91447761Y-82397368D02*
X91447761Y-82111654D01*
X91447761Y-82111654D02*
X91590618Y-81968797D01*
X91447761Y-81254511D02*
X93447761Y-81254511D01*
X91733475Y-81254511D02*
X91590618Y-81183082D01*
X91590618Y-81183082D02*
X91447761Y-81040225D01*
X91447761Y-81040225D02*
X91447761Y-80825939D01*
X91447761Y-80825939D02*
X91590618Y-80683082D01*
X91590618Y-80683082D02*
X91876332Y-80611654D01*
X91876332Y-80611654D02*
X93447761Y-80611654D01*
X93447761Y-79254511D02*
X90447761Y-79254511D01*
X93304904Y-79254511D02*
X93447761Y-79397368D01*
X93447761Y-79397368D02*
X93447761Y-79683082D01*
X93447761Y-79683082D02*
X93304904Y-79825939D01*
X93304904Y-79825939D02*
X93162046Y-79897368D01*
X93162046Y-79897368D02*
X92876332Y-79968796D01*
X92876332Y-79968796D02*
X92019189Y-79968796D01*
X92019189Y-79968796D02*
X91733475Y-79897368D01*
X91733475Y-79897368D02*
X91590618Y-79825939D01*
X91590618Y-79825939D02*
X91447761Y-79683082D01*
X91447761Y-79683082D02*
X91447761Y-79397368D01*
X91447761Y-79397368D02*
X91590618Y-79254511D01*
X98277593Y-92183081D02*
X96277593Y-92183081D01*
X96849021Y-92183081D02*
X96563307Y-92111652D01*
X96563307Y-92111652D02*
X96420450Y-92040224D01*
X96420450Y-92040224D02*
X96277593Y-91897366D01*
X96277593Y-91897366D02*
X96277593Y-91754509D01*
X98134736Y-90683081D02*
X98277593Y-90825938D01*
X98277593Y-90825938D02*
X98277593Y-91111653D01*
X98277593Y-91111653D02*
X98134736Y-91254510D01*
X98134736Y-91254510D02*
X97849021Y-91325938D01*
X97849021Y-91325938D02*
X96706164Y-91325938D01*
X96706164Y-91325938D02*
X96420450Y-91254510D01*
X96420450Y-91254510D02*
X96277593Y-91111653D01*
X96277593Y-91111653D02*
X96277593Y-90825938D01*
X96277593Y-90825938D02*
X96420450Y-90683081D01*
X96420450Y-90683081D02*
X96706164Y-90611653D01*
X96706164Y-90611653D02*
X96991878Y-90611653D01*
X96991878Y-90611653D02*
X97277593Y-91325938D01*
X96277593Y-90183081D02*
X96277593Y-89611653D01*
X95277593Y-89968796D02*
X97849021Y-89968796D01*
X97849021Y-89968796D02*
X98134736Y-89897367D01*
X98134736Y-89897367D02*
X98277593Y-89754510D01*
X98277593Y-89754510D02*
X98277593Y-89611653D01*
X98277593Y-88468796D02*
X96706164Y-88468796D01*
X96706164Y-88468796D02*
X96420450Y-88540224D01*
X96420450Y-88540224D02*
X96277593Y-88683081D01*
X96277593Y-88683081D02*
X96277593Y-88968796D01*
X96277593Y-88968796D02*
X96420450Y-89111653D01*
X98134736Y-88468796D02*
X98277593Y-88611653D01*
X98277593Y-88611653D02*
X98277593Y-88968796D01*
X98277593Y-88968796D02*
X98134736Y-89111653D01*
X98134736Y-89111653D02*
X97849021Y-89183081D01*
X97849021Y-89183081D02*
X97563307Y-89183081D01*
X97563307Y-89183081D02*
X97277593Y-89111653D01*
X97277593Y-89111653D02*
X97134736Y-88968796D01*
X97134736Y-88968796D02*
X97134736Y-88611653D01*
X97134736Y-88611653D02*
X96991878Y-88468796D01*
X98277593Y-87754510D02*
X96277593Y-87754510D01*
X96849021Y-87754510D02*
X96563307Y-87683081D01*
X96563307Y-87683081D02*
X96420450Y-87611653D01*
X96420450Y-87611653D02*
X96277593Y-87468795D01*
X96277593Y-87468795D02*
X96277593Y-87325938D01*
X98277593Y-86183082D02*
X95277593Y-86183082D01*
X98134736Y-86183082D02*
X98277593Y-86325939D01*
X98277593Y-86325939D02*
X98277593Y-86611653D01*
X98277593Y-86611653D02*
X98134736Y-86754510D01*
X98134736Y-86754510D02*
X97991878Y-86825939D01*
X97991878Y-86825939D02*
X97706164Y-86897367D01*
X97706164Y-86897367D02*
X96849021Y-86897367D01*
X96849021Y-86897367D02*
X96563307Y-86825939D01*
X96563307Y-86825939D02*
X96420450Y-86754510D01*
X96420450Y-86754510D02*
X96277593Y-86611653D01*
X96277593Y-86611653D02*
X96277593Y-86325939D01*
X96277593Y-86325939D02*
X96420450Y-86183082D01*
X98134736Y-84897367D02*
X98277593Y-85040224D01*
X98277593Y-85040224D02*
X98277593Y-85325939D01*
X98277593Y-85325939D02*
X98134736Y-85468796D01*
X98134736Y-85468796D02*
X97849021Y-85540224D01*
X97849021Y-85540224D02*
X96706164Y-85540224D01*
X96706164Y-85540224D02*
X96420450Y-85468796D01*
X96420450Y-85468796D02*
X96277593Y-85325939D01*
X96277593Y-85325939D02*
X96277593Y-85040224D01*
X96277593Y-85040224D02*
X96420450Y-84897367D01*
X96420450Y-84897367D02*
X96706164Y-84825939D01*
X96706164Y-84825939D02*
X96991878Y-84825939D01*
X96991878Y-84825939D02*
X97277593Y-85540224D01*
X98277593Y-84183082D02*
X96277593Y-84183082D01*
X96849021Y-84183082D02*
X96563307Y-84111653D01*
X96563307Y-84111653D02*
X96420450Y-84040225D01*
X96420450Y-84040225D02*
X96277593Y-83897367D01*
X96277593Y-83897367D02*
X96277593Y-83754510D01*
X98277593Y-81897368D02*
X98134736Y-82040225D01*
X98134736Y-82040225D02*
X97991878Y-82111654D01*
X97991878Y-82111654D02*
X97706164Y-82183082D01*
X97706164Y-82183082D02*
X96849021Y-82183082D01*
X96849021Y-82183082D02*
X96563307Y-82111654D01*
X96563307Y-82111654D02*
X96420450Y-82040225D01*
X96420450Y-82040225D02*
X96277593Y-81897368D01*
X96277593Y-81897368D02*
X96277593Y-81683082D01*
X96277593Y-81683082D02*
X96420450Y-81540225D01*
X96420450Y-81540225D02*
X96563307Y-81468797D01*
X96563307Y-81468797D02*
X96849021Y-81397368D01*
X96849021Y-81397368D02*
X97706164Y-81397368D01*
X97706164Y-81397368D02*
X97991878Y-81468797D01*
X97991878Y-81468797D02*
X98134736Y-81540225D01*
X98134736Y-81540225D02*
X98277593Y-81683082D01*
X98277593Y-81683082D02*
X98277593Y-81897368D01*
X96277593Y-80111654D02*
X98277593Y-80111654D01*
X96277593Y-80754511D02*
X97849021Y-80754511D01*
X97849021Y-80754511D02*
X98134736Y-80683082D01*
X98134736Y-80683082D02*
X98277593Y-80540225D01*
X98277593Y-80540225D02*
X98277593Y-80325939D01*
X98277593Y-80325939D02*
X98134736Y-80183082D01*
X98134736Y-80183082D02*
X97991878Y-80111654D01*
X96277593Y-79611653D02*
X96277593Y-79040225D01*
X95277593Y-79397368D02*
X97849021Y-79397368D01*
X97849021Y-79397368D02*
X98134736Y-79325939D01*
X98134736Y-79325939D02*
X98277593Y-79183082D01*
X98277593Y-79183082D02*
X98277593Y-79040225D01*
X103107425Y-87968796D02*
X102964568Y-88111653D01*
X102964568Y-88111653D02*
X102678853Y-88183082D01*
X102678853Y-88183082D02*
X100107425Y-88183082D01*
X103107425Y-87183082D02*
X102964568Y-87325939D01*
X102964568Y-87325939D02*
X102821710Y-87397368D01*
X102821710Y-87397368D02*
X102535996Y-87468796D01*
X102535996Y-87468796D02*
X101678853Y-87468796D01*
X101678853Y-87468796D02*
X101393139Y-87397368D01*
X101393139Y-87397368D02*
X101250282Y-87325939D01*
X101250282Y-87325939D02*
X101107425Y-87183082D01*
X101107425Y-87183082D02*
X101107425Y-86968796D01*
X101107425Y-86968796D02*
X101250282Y-86825939D01*
X101250282Y-86825939D02*
X101393139Y-86754511D01*
X101393139Y-86754511D02*
X101678853Y-86683082D01*
X101678853Y-86683082D02*
X102535996Y-86683082D01*
X102535996Y-86683082D02*
X102821710Y-86754511D01*
X102821710Y-86754511D02*
X102964568Y-86825939D01*
X102964568Y-86825939D02*
X103107425Y-86968796D01*
X103107425Y-86968796D02*
X103107425Y-87183082D01*
X101107425Y-85397368D02*
X103535996Y-85397368D01*
X103535996Y-85397368D02*
X103821710Y-85468796D01*
X103821710Y-85468796D02*
X103964568Y-85540225D01*
X103964568Y-85540225D02*
X104107425Y-85683082D01*
X104107425Y-85683082D02*
X104107425Y-85897368D01*
X104107425Y-85897368D02*
X103964568Y-86040225D01*
X102964568Y-85397368D02*
X103107425Y-85540225D01*
X103107425Y-85540225D02*
X103107425Y-85825939D01*
X103107425Y-85825939D02*
X102964568Y-85968796D01*
X102964568Y-85968796D02*
X102821710Y-86040225D01*
X102821710Y-86040225D02*
X102535996Y-86111653D01*
X102535996Y-86111653D02*
X101678853Y-86111653D01*
X101678853Y-86111653D02*
X101393139Y-86040225D01*
X101393139Y-86040225D02*
X101250282Y-85968796D01*
X101250282Y-85968796D02*
X101107425Y-85825939D01*
X101107425Y-85825939D02*
X101107425Y-85540225D01*
X101107425Y-85540225D02*
X101250282Y-85397368D01*
X102964568Y-83611653D02*
X103107425Y-83468796D01*
X103107425Y-83468796D02*
X103107425Y-83183082D01*
X103107425Y-83183082D02*
X102964568Y-83040225D01*
X102964568Y-83040225D02*
X102678853Y-82968796D01*
X102678853Y-82968796D02*
X102535996Y-82968796D01*
X102535996Y-82968796D02*
X102250282Y-83040225D01*
X102250282Y-83040225D02*
X102107425Y-83183082D01*
X102107425Y-83183082D02*
X102107425Y-83397368D01*
X102107425Y-83397368D02*
X101964568Y-83540225D01*
X101964568Y-83540225D02*
X101678853Y-83611653D01*
X101678853Y-83611653D02*
X101535996Y-83611653D01*
X101535996Y-83611653D02*
X101250282Y-83540225D01*
X101250282Y-83540225D02*
X101107425Y-83397368D01*
X101107425Y-83397368D02*
X101107425Y-83183082D01*
X101107425Y-83183082D02*
X101250282Y-83040225D01*
X101107425Y-82468796D02*
X103107425Y-82111653D01*
X101107425Y-81754510D02*
X103107425Y-82111653D01*
X103107425Y-82111653D02*
X103821710Y-82254510D01*
X103821710Y-82254510D02*
X103964568Y-82325939D01*
X103964568Y-82325939D02*
X104107425Y-82468796D01*
X101107425Y-81183082D02*
X103107425Y-81183082D01*
X101393139Y-81183082D02*
X101250282Y-81111653D01*
X101250282Y-81111653D02*
X101107425Y-80968796D01*
X101107425Y-80968796D02*
X101107425Y-80754510D01*
X101107425Y-80754510D02*
X101250282Y-80611653D01*
X101250282Y-80611653D02*
X101535996Y-80540225D01*
X101535996Y-80540225D02*
X103107425Y-80540225D01*
X102964568Y-79183082D02*
X103107425Y-79325939D01*
X103107425Y-79325939D02*
X103107425Y-79611653D01*
X103107425Y-79611653D02*
X102964568Y-79754510D01*
X102964568Y-79754510D02*
X102821710Y-79825939D01*
X102821710Y-79825939D02*
X102535996Y-79897367D01*
X102535996Y-79897367D02*
X101678853Y-79897367D01*
X101678853Y-79897367D02*
X101393139Y-79825939D01*
X101393139Y-79825939D02*
X101250282Y-79754510D01*
X101250282Y-79754510D02*
X101107425Y-79611653D01*
X101107425Y-79611653D02*
X101107425Y-79325939D01*
X101107425Y-79325939D02*
X101250282Y-79183082D01*
X107937257Y-86540225D02*
X107794400Y-86683082D01*
X107794400Y-86683082D02*
X107508685Y-86754511D01*
X107508685Y-86754511D02*
X104937257Y-86754511D01*
X107937257Y-85754511D02*
X107794400Y-85897368D01*
X107794400Y-85897368D02*
X107651542Y-85968797D01*
X107651542Y-85968797D02*
X107365828Y-86040225D01*
X107365828Y-86040225D02*
X106508685Y-86040225D01*
X106508685Y-86040225D02*
X106222971Y-85968797D01*
X106222971Y-85968797D02*
X106080114Y-85897368D01*
X106080114Y-85897368D02*
X105937257Y-85754511D01*
X105937257Y-85754511D02*
X105937257Y-85540225D01*
X105937257Y-85540225D02*
X106080114Y-85397368D01*
X106080114Y-85397368D02*
X106222971Y-85325940D01*
X106222971Y-85325940D02*
X106508685Y-85254511D01*
X106508685Y-85254511D02*
X107365828Y-85254511D01*
X107365828Y-85254511D02*
X107651542Y-85325940D01*
X107651542Y-85325940D02*
X107794400Y-85397368D01*
X107794400Y-85397368D02*
X107937257Y-85540225D01*
X107937257Y-85540225D02*
X107937257Y-85754511D01*
X105937257Y-83968797D02*
X108365828Y-83968797D01*
X108365828Y-83968797D02*
X108651542Y-84040225D01*
X108651542Y-84040225D02*
X108794400Y-84111654D01*
X108794400Y-84111654D02*
X108937257Y-84254511D01*
X108937257Y-84254511D02*
X108937257Y-84468797D01*
X108937257Y-84468797D02*
X108794400Y-84611654D01*
X107794400Y-83968797D02*
X107937257Y-84111654D01*
X107937257Y-84111654D02*
X107937257Y-84397368D01*
X107937257Y-84397368D02*
X107794400Y-84540225D01*
X107794400Y-84540225D02*
X107651542Y-84611654D01*
X107651542Y-84611654D02*
X107365828Y-84683082D01*
X107365828Y-84683082D02*
X106508685Y-84683082D01*
X106508685Y-84683082D02*
X106222971Y-84611654D01*
X106222971Y-84611654D02*
X106080114Y-84540225D01*
X106080114Y-84540225D02*
X105937257Y-84397368D01*
X105937257Y-84397368D02*
X105937257Y-84111654D01*
X105937257Y-84111654D02*
X106080114Y-83968797D01*
X107937257Y-81897368D02*
X107794400Y-82040225D01*
X107794400Y-82040225D02*
X107651542Y-82111654D01*
X107651542Y-82111654D02*
X107365828Y-82183082D01*
X107365828Y-82183082D02*
X106508685Y-82183082D01*
X106508685Y-82183082D02*
X106222971Y-82111654D01*
X106222971Y-82111654D02*
X106080114Y-82040225D01*
X106080114Y-82040225D02*
X105937257Y-81897368D01*
X105937257Y-81897368D02*
X105937257Y-81683082D01*
X105937257Y-81683082D02*
X106080114Y-81540225D01*
X106080114Y-81540225D02*
X106222971Y-81468797D01*
X106222971Y-81468797D02*
X106508685Y-81397368D01*
X106508685Y-81397368D02*
X107365828Y-81397368D01*
X107365828Y-81397368D02*
X107651542Y-81468797D01*
X107651542Y-81468797D02*
X107794400Y-81540225D01*
X107794400Y-81540225D02*
X107937257Y-81683082D01*
X107937257Y-81683082D02*
X107937257Y-81897368D01*
X105937257Y-80111654D02*
X107937257Y-80111654D01*
X105937257Y-80754511D02*
X107508685Y-80754511D01*
X107508685Y-80754511D02*
X107794400Y-80683082D01*
X107794400Y-80683082D02*
X107937257Y-80540225D01*
X107937257Y-80540225D02*
X107937257Y-80325939D01*
X107937257Y-80325939D02*
X107794400Y-80183082D01*
X107794400Y-80183082D02*
X107651542Y-80111654D01*
X105937257Y-79611653D02*
X105937257Y-79040225D01*
X104937257Y-79397368D02*
X107508685Y-79397368D01*
X107508685Y-79397368D02*
X107794400Y-79325939D01*
X107794400Y-79325939D02*
X107937257Y-79183082D01*
X107937257Y-79183082D02*
X107937257Y-79040225D01*
X127960828Y-111875489D02*
X126460828Y-111875489D01*
X127960828Y-111018346D02*
X127103685Y-111661203D01*
X126460828Y-111018346D02*
X127317971Y-111875489D01*
X126960828Y-110375489D02*
X127960828Y-110375489D01*
X127103685Y-110375489D02*
X127032257Y-110304060D01*
X127032257Y-110304060D02*
X126960828Y-110161203D01*
X126960828Y-110161203D02*
X126960828Y-109946917D01*
X126960828Y-109946917D02*
X127032257Y-109804060D01*
X127032257Y-109804060D02*
X127175114Y-109732632D01*
X127175114Y-109732632D02*
X127960828Y-109732632D01*
X127960828Y-108804060D02*
X127889400Y-108946917D01*
X127889400Y-108946917D02*
X127817971Y-109018346D01*
X127817971Y-109018346D02*
X127675114Y-109089774D01*
X127675114Y-109089774D02*
X127246542Y-109089774D01*
X127246542Y-109089774D02*
X127103685Y-109018346D01*
X127103685Y-109018346D02*
X127032257Y-108946917D01*
X127032257Y-108946917D02*
X126960828Y-108804060D01*
X126960828Y-108804060D02*
X126960828Y-108589774D01*
X126960828Y-108589774D02*
X127032257Y-108446917D01*
X127032257Y-108446917D02*
X127103685Y-108375489D01*
X127103685Y-108375489D02*
X127246542Y-108304060D01*
X127246542Y-108304060D02*
X127675114Y-108304060D01*
X127675114Y-108304060D02*
X127817971Y-108375489D01*
X127817971Y-108375489D02*
X127889400Y-108446917D01*
X127889400Y-108446917D02*
X127960828Y-108589774D01*
X127960828Y-108589774D02*
X127960828Y-108804060D01*
X127889400Y-107018346D02*
X127960828Y-107161203D01*
X127960828Y-107161203D02*
X127960828Y-107446917D01*
X127960828Y-107446917D02*
X127889400Y-107589774D01*
X127889400Y-107589774D02*
X127817971Y-107661203D01*
X127817971Y-107661203D02*
X127675114Y-107732631D01*
X127675114Y-107732631D02*
X127246542Y-107732631D01*
X127246542Y-107732631D02*
X127103685Y-107661203D01*
X127103685Y-107661203D02*
X127032257Y-107589774D01*
X127032257Y-107589774D02*
X126960828Y-107446917D01*
X126960828Y-107446917D02*
X126960828Y-107161203D01*
X126960828Y-107161203D02*
X127032257Y-107018346D01*
X127960828Y-106375489D02*
X126460828Y-106375489D01*
X127389400Y-106232632D02*
X127960828Y-105804060D01*
X126960828Y-105804060D02*
X127532257Y-106375489D01*
X127960828Y-104018346D02*
X126460828Y-104018346D01*
X126460828Y-104018346D02*
X127532257Y-103518346D01*
X127532257Y-103518346D02*
X126460828Y-103018346D01*
X126460828Y-103018346D02*
X127960828Y-103018346D01*
X127960828Y-102089774D02*
X127889400Y-102232631D01*
X127889400Y-102232631D02*
X127817971Y-102304060D01*
X127817971Y-102304060D02*
X127675114Y-102375488D01*
X127675114Y-102375488D02*
X127246542Y-102375488D01*
X127246542Y-102375488D02*
X127103685Y-102304060D01*
X127103685Y-102304060D02*
X127032257Y-102232631D01*
X127032257Y-102232631D02*
X126960828Y-102089774D01*
X126960828Y-102089774D02*
X126960828Y-101875488D01*
X126960828Y-101875488D02*
X127032257Y-101732631D01*
X127032257Y-101732631D02*
X127103685Y-101661203D01*
X127103685Y-101661203D02*
X127246542Y-101589774D01*
X127246542Y-101589774D02*
X127675114Y-101589774D01*
X127675114Y-101589774D02*
X127817971Y-101661203D01*
X127817971Y-101661203D02*
X127889400Y-101732631D01*
X127889400Y-101732631D02*
X127960828Y-101875488D01*
X127960828Y-101875488D02*
X127960828Y-102089774D01*
X126960828Y-100946917D02*
X127960828Y-100946917D01*
X127103685Y-100946917D02*
X127032257Y-100875488D01*
X127032257Y-100875488D02*
X126960828Y-100732631D01*
X126960828Y-100732631D02*
X126960828Y-100518345D01*
X126960828Y-100518345D02*
X127032257Y-100375488D01*
X127032257Y-100375488D02*
X127175114Y-100304060D01*
X127175114Y-100304060D02*
X127960828Y-100304060D01*
X127960828Y-99589774D02*
X126960828Y-99589774D01*
X126460828Y-99589774D02*
X126532257Y-99661202D01*
X126532257Y-99661202D02*
X126603685Y-99589774D01*
X126603685Y-99589774D02*
X126532257Y-99518345D01*
X126532257Y-99518345D02*
X126460828Y-99589774D01*
X126460828Y-99589774D02*
X126603685Y-99589774D01*
X126960828Y-99089773D02*
X126960828Y-98518345D01*
X126460828Y-98875488D02*
X127746542Y-98875488D01*
X127746542Y-98875488D02*
X127889400Y-98804059D01*
X127889400Y-98804059D02*
X127960828Y-98661202D01*
X127960828Y-98661202D02*
X127960828Y-98518345D01*
X127960828Y-97804059D02*
X127889400Y-97946916D01*
X127889400Y-97946916D02*
X127817971Y-98018345D01*
X127817971Y-98018345D02*
X127675114Y-98089773D01*
X127675114Y-98089773D02*
X127246542Y-98089773D01*
X127246542Y-98089773D02*
X127103685Y-98018345D01*
X127103685Y-98018345D02*
X127032257Y-97946916D01*
X127032257Y-97946916D02*
X126960828Y-97804059D01*
X126960828Y-97804059D02*
X126960828Y-97589773D01*
X126960828Y-97589773D02*
X127032257Y-97446916D01*
X127032257Y-97446916D02*
X127103685Y-97375488D01*
X127103685Y-97375488D02*
X127246542Y-97304059D01*
X127246542Y-97304059D02*
X127675114Y-97304059D01*
X127675114Y-97304059D02*
X127817971Y-97375488D01*
X127817971Y-97375488D02*
X127889400Y-97446916D01*
X127889400Y-97446916D02*
X127960828Y-97589773D01*
X127960828Y-97589773D02*
X127960828Y-97804059D01*
X127960828Y-96661202D02*
X126960828Y-96661202D01*
X127246542Y-96661202D02*
X127103685Y-96589773D01*
X127103685Y-96589773D02*
X127032257Y-96518345D01*
X127032257Y-96518345D02*
X126960828Y-96375487D01*
X126960828Y-96375487D02*
X126960828Y-96232630D01*
X127960828Y-93946917D02*
X127175114Y-93946917D01*
X127175114Y-93946917D02*
X127032257Y-94018345D01*
X127032257Y-94018345D02*
X126960828Y-94161202D01*
X126960828Y-94161202D02*
X126960828Y-94446917D01*
X126960828Y-94446917D02*
X127032257Y-94589774D01*
X127889400Y-93946917D02*
X127960828Y-94089774D01*
X127960828Y-94089774D02*
X127960828Y-94446917D01*
X127960828Y-94446917D02*
X127889400Y-94589774D01*
X127889400Y-94589774D02*
X127746542Y-94661202D01*
X127746542Y-94661202D02*
X127603685Y-94661202D01*
X127603685Y-94661202D02*
X127460828Y-94589774D01*
X127460828Y-94589774D02*
X127389400Y-94446917D01*
X127389400Y-94446917D02*
X127389400Y-94089774D01*
X127389400Y-94089774D02*
X127317971Y-93946917D01*
X126960828Y-93232631D02*
X127960828Y-93232631D01*
X127103685Y-93232631D02*
X127032257Y-93161202D01*
X127032257Y-93161202D02*
X126960828Y-93018345D01*
X126960828Y-93018345D02*
X126960828Y-92804059D01*
X126960828Y-92804059D02*
X127032257Y-92661202D01*
X127032257Y-92661202D02*
X127175114Y-92589774D01*
X127175114Y-92589774D02*
X127960828Y-92589774D01*
X127960828Y-91232631D02*
X126460828Y-91232631D01*
X127889400Y-91232631D02*
X127960828Y-91375488D01*
X127960828Y-91375488D02*
X127960828Y-91661202D01*
X127960828Y-91661202D02*
X127889400Y-91804059D01*
X127889400Y-91804059D02*
X127817971Y-91875488D01*
X127817971Y-91875488D02*
X127675114Y-91946916D01*
X127675114Y-91946916D02*
X127246542Y-91946916D01*
X127246542Y-91946916D02*
X127103685Y-91875488D01*
X127103685Y-91875488D02*
X127032257Y-91804059D01*
X127032257Y-91804059D02*
X126960828Y-91661202D01*
X126960828Y-91661202D02*
X126960828Y-91375488D01*
X126960828Y-91375488D02*
X127032257Y-91232631D01*
X127960828Y-88518345D02*
X127246542Y-89018345D01*
X127960828Y-89375488D02*
X126460828Y-89375488D01*
X126460828Y-89375488D02*
X126460828Y-88804059D01*
X126460828Y-88804059D02*
X126532257Y-88661202D01*
X126532257Y-88661202D02*
X126603685Y-88589773D01*
X126603685Y-88589773D02*
X126746542Y-88518345D01*
X126746542Y-88518345D02*
X126960828Y-88518345D01*
X126960828Y-88518345D02*
X127103685Y-88589773D01*
X127103685Y-88589773D02*
X127175114Y-88661202D01*
X127175114Y-88661202D02*
X127246542Y-88804059D01*
X127246542Y-88804059D02*
X127246542Y-89375488D01*
X127889400Y-87304059D02*
X127960828Y-87446916D01*
X127960828Y-87446916D02*
X127960828Y-87732631D01*
X127960828Y-87732631D02*
X127889400Y-87875488D01*
X127889400Y-87875488D02*
X127746542Y-87946916D01*
X127746542Y-87946916D02*
X127175114Y-87946916D01*
X127175114Y-87946916D02*
X127032257Y-87875488D01*
X127032257Y-87875488D02*
X126960828Y-87732631D01*
X126960828Y-87732631D02*
X126960828Y-87446916D01*
X126960828Y-87446916D02*
X127032257Y-87304059D01*
X127032257Y-87304059D02*
X127175114Y-87232631D01*
X127175114Y-87232631D02*
X127317971Y-87232631D01*
X127317971Y-87232631D02*
X127460828Y-87946916D01*
X126960828Y-86804059D02*
X126960828Y-86232631D01*
X126460828Y-86589774D02*
X127746542Y-86589774D01*
X127746542Y-86589774D02*
X127889400Y-86518345D01*
X127889400Y-86518345D02*
X127960828Y-86375488D01*
X127960828Y-86375488D02*
X127960828Y-86232631D01*
X127960828Y-85089774D02*
X127175114Y-85089774D01*
X127175114Y-85089774D02*
X127032257Y-85161202D01*
X127032257Y-85161202D02*
X126960828Y-85304059D01*
X126960828Y-85304059D02*
X126960828Y-85589774D01*
X126960828Y-85589774D02*
X127032257Y-85732631D01*
X127889400Y-85089774D02*
X127960828Y-85232631D01*
X127960828Y-85232631D02*
X127960828Y-85589774D01*
X127960828Y-85589774D02*
X127889400Y-85732631D01*
X127889400Y-85732631D02*
X127746542Y-85804059D01*
X127746542Y-85804059D02*
X127603685Y-85804059D01*
X127603685Y-85804059D02*
X127460828Y-85732631D01*
X127460828Y-85732631D02*
X127389400Y-85589774D01*
X127389400Y-85589774D02*
X127389400Y-85232631D01*
X127389400Y-85232631D02*
X127317971Y-85089774D01*
X127960828Y-84375488D02*
X126960828Y-84375488D01*
X127246542Y-84375488D02*
X127103685Y-84304059D01*
X127103685Y-84304059D02*
X127032257Y-84232631D01*
X127032257Y-84232631D02*
X126960828Y-84089773D01*
X126960828Y-84089773D02*
X126960828Y-83946916D01*
X127960828Y-82804060D02*
X126460828Y-82804060D01*
X127889400Y-82804060D02*
X127960828Y-82946917D01*
X127960828Y-82946917D02*
X127960828Y-83232631D01*
X127960828Y-83232631D02*
X127889400Y-83375488D01*
X127889400Y-83375488D02*
X127817971Y-83446917D01*
X127817971Y-83446917D02*
X127675114Y-83518345D01*
X127675114Y-83518345D02*
X127246542Y-83518345D01*
X127246542Y-83518345D02*
X127103685Y-83446917D01*
X127103685Y-83446917D02*
X127032257Y-83375488D01*
X127032257Y-83375488D02*
X126960828Y-83232631D01*
X126960828Y-83232631D02*
X126960828Y-82946917D01*
X126960828Y-82946917D02*
X127032257Y-82804060D01*
X127889400Y-81518345D02*
X127960828Y-81661202D01*
X127960828Y-81661202D02*
X127960828Y-81946917D01*
X127960828Y-81946917D02*
X127889400Y-82089774D01*
X127889400Y-82089774D02*
X127746542Y-82161202D01*
X127746542Y-82161202D02*
X127175114Y-82161202D01*
X127175114Y-82161202D02*
X127032257Y-82089774D01*
X127032257Y-82089774D02*
X126960828Y-81946917D01*
X126960828Y-81946917D02*
X126960828Y-81661202D01*
X126960828Y-81661202D02*
X127032257Y-81518345D01*
X127032257Y-81518345D02*
X127175114Y-81446917D01*
X127175114Y-81446917D02*
X127317971Y-81446917D01*
X127317971Y-81446917D02*
X127460828Y-82161202D01*
X127960828Y-80804060D02*
X126960828Y-80804060D01*
X127246542Y-80804060D02*
X127103685Y-80732631D01*
X127103685Y-80732631D02*
X127032257Y-80661203D01*
X127032257Y-80661203D02*
X126960828Y-80518345D01*
X126960828Y-80518345D02*
X126960828Y-80375488D01*
X127817971Y-77875489D02*
X127889400Y-77946917D01*
X127889400Y-77946917D02*
X127960828Y-78161203D01*
X127960828Y-78161203D02*
X127960828Y-78304060D01*
X127960828Y-78304060D02*
X127889400Y-78518346D01*
X127889400Y-78518346D02*
X127746542Y-78661203D01*
X127746542Y-78661203D02*
X127603685Y-78732632D01*
X127603685Y-78732632D02*
X127317971Y-78804060D01*
X127317971Y-78804060D02*
X127103685Y-78804060D01*
X127103685Y-78804060D02*
X126817971Y-78732632D01*
X126817971Y-78732632D02*
X126675114Y-78661203D01*
X126675114Y-78661203D02*
X126532257Y-78518346D01*
X126532257Y-78518346D02*
X126460828Y-78304060D01*
X126460828Y-78304060D02*
X126460828Y-78161203D01*
X126460828Y-78161203D02*
X126532257Y-77946917D01*
X126532257Y-77946917D02*
X126603685Y-77875489D01*
X127960828Y-77018346D02*
X127889400Y-77161203D01*
X127889400Y-77161203D02*
X127817971Y-77232632D01*
X127817971Y-77232632D02*
X127675114Y-77304060D01*
X127675114Y-77304060D02*
X127246542Y-77304060D01*
X127246542Y-77304060D02*
X127103685Y-77232632D01*
X127103685Y-77232632D02*
X127032257Y-77161203D01*
X127032257Y-77161203D02*
X126960828Y-77018346D01*
X126960828Y-77018346D02*
X126960828Y-76804060D01*
X126960828Y-76804060D02*
X127032257Y-76661203D01*
X127032257Y-76661203D02*
X127103685Y-76589775D01*
X127103685Y-76589775D02*
X127246542Y-76518346D01*
X127246542Y-76518346D02*
X127675114Y-76518346D01*
X127675114Y-76518346D02*
X127817971Y-76589775D01*
X127817971Y-76589775D02*
X127889400Y-76661203D01*
X127889400Y-76661203D02*
X127960828Y-76804060D01*
X127960828Y-76804060D02*
X127960828Y-77018346D01*
X126960828Y-75875489D02*
X127960828Y-75875489D01*
X127103685Y-75875489D02*
X127032257Y-75804060D01*
X127032257Y-75804060D02*
X126960828Y-75661203D01*
X126960828Y-75661203D02*
X126960828Y-75446917D01*
X126960828Y-75446917D02*
X127032257Y-75304060D01*
X127032257Y-75304060D02*
X127175114Y-75232632D01*
X127175114Y-75232632D02*
X127960828Y-75232632D01*
X126960828Y-74732631D02*
X126960828Y-74161203D01*
X126460828Y-74518346D02*
X127746542Y-74518346D01*
X127746542Y-74518346D02*
X127889400Y-74446917D01*
X127889400Y-74446917D02*
X127960828Y-74304060D01*
X127960828Y-74304060D02*
X127960828Y-74161203D01*
X127960828Y-73661203D02*
X126960828Y-73661203D01*
X127246542Y-73661203D02*
X127103685Y-73589774D01*
X127103685Y-73589774D02*
X127032257Y-73518346D01*
X127032257Y-73518346D02*
X126960828Y-73375488D01*
X126960828Y-73375488D02*
X126960828Y-73232631D01*
X127960828Y-72518346D02*
X127889400Y-72661203D01*
X127889400Y-72661203D02*
X127817971Y-72732632D01*
X127817971Y-72732632D02*
X127675114Y-72804060D01*
X127675114Y-72804060D02*
X127246542Y-72804060D01*
X127246542Y-72804060D02*
X127103685Y-72732632D01*
X127103685Y-72732632D02*
X127032257Y-72661203D01*
X127032257Y-72661203D02*
X126960828Y-72518346D01*
X126960828Y-72518346D02*
X126960828Y-72304060D01*
X126960828Y-72304060D02*
X127032257Y-72161203D01*
X127032257Y-72161203D02*
X127103685Y-72089775D01*
X127103685Y-72089775D02*
X127246542Y-72018346D01*
X127246542Y-72018346D02*
X127675114Y-72018346D01*
X127675114Y-72018346D02*
X127817971Y-72089775D01*
X127817971Y-72089775D02*
X127889400Y-72161203D01*
X127889400Y-72161203D02*
X127960828Y-72304060D01*
X127960828Y-72304060D02*
X127960828Y-72518346D01*
X127960828Y-71161203D02*
X127889400Y-71304060D01*
X127889400Y-71304060D02*
X127746542Y-71375489D01*
X127746542Y-71375489D02*
X126460828Y-71375489D01*
X127960828Y-70375489D02*
X127889400Y-70518346D01*
X127889400Y-70518346D02*
X127746542Y-70589775D01*
X127746542Y-70589775D02*
X126460828Y-70589775D01*
X127889400Y-69232632D02*
X127960828Y-69375489D01*
X127960828Y-69375489D02*
X127960828Y-69661204D01*
X127960828Y-69661204D02*
X127889400Y-69804061D01*
X127889400Y-69804061D02*
X127746542Y-69875489D01*
X127746542Y-69875489D02*
X127175114Y-69875489D01*
X127175114Y-69875489D02*
X127032257Y-69804061D01*
X127032257Y-69804061D02*
X126960828Y-69661204D01*
X126960828Y-69661204D02*
X126960828Y-69375489D01*
X126960828Y-69375489D02*
X127032257Y-69232632D01*
X127032257Y-69232632D02*
X127175114Y-69161204D01*
X127175114Y-69161204D02*
X127317971Y-69161204D01*
X127317971Y-69161204D02*
X127460828Y-69875489D01*
X127960828Y-68518347D02*
X126960828Y-68518347D01*
X127246542Y-68518347D02*
X127103685Y-68446918D01*
X127103685Y-68446918D02*
X127032257Y-68375490D01*
X127032257Y-68375490D02*
X126960828Y-68232632D01*
X126960828Y-68232632D02*
X126960828Y-68089775D01*
D11*
X111749580Y-91026666D02*
X111797200Y-91074285D01*
X111797200Y-91074285D02*
X111844819Y-91217142D01*
X111844819Y-91217142D02*
X111844819Y-91312380D01*
X111844819Y-91312380D02*
X111797200Y-91455237D01*
X111797200Y-91455237D02*
X111701961Y-91550475D01*
X111701961Y-91550475D02*
X111606723Y-91598094D01*
X111606723Y-91598094D02*
X111416247Y-91645713D01*
X111416247Y-91645713D02*
X111273390Y-91645713D01*
X111273390Y-91645713D02*
X111082914Y-91598094D01*
X111082914Y-91598094D02*
X110987676Y-91550475D01*
X110987676Y-91550475D02*
X110892438Y-91455237D01*
X110892438Y-91455237D02*
X110844819Y-91312380D01*
X110844819Y-91312380D02*
X110844819Y-91217142D01*
X110844819Y-91217142D02*
X110892438Y-91074285D01*
X110892438Y-91074285D02*
X110940057Y-91026666D01*
X111178152Y-90169523D02*
X111844819Y-90169523D01*
X110797200Y-90407618D02*
X111511485Y-90645713D01*
X111511485Y-90645713D02*
X111511485Y-90026666D01*
X100263333Y-102639580D02*
X100215714Y-102687200D01*
X100215714Y-102687200D02*
X100072857Y-102734819D01*
X100072857Y-102734819D02*
X99977619Y-102734819D01*
X99977619Y-102734819D02*
X99834762Y-102687200D01*
X99834762Y-102687200D02*
X99739524Y-102591961D01*
X99739524Y-102591961D02*
X99691905Y-102496723D01*
X99691905Y-102496723D02*
X99644286Y-102306247D01*
X99644286Y-102306247D02*
X99644286Y-102163390D01*
X99644286Y-102163390D02*
X99691905Y-101972914D01*
X99691905Y-101972914D02*
X99739524Y-101877676D01*
X99739524Y-101877676D02*
X99834762Y-101782438D01*
X99834762Y-101782438D02*
X99977619Y-101734819D01*
X99977619Y-101734819D02*
X100072857Y-101734819D01*
X100072857Y-101734819D02*
X100215714Y-101782438D01*
X100215714Y-101782438D02*
X100263333Y-101830057D01*
X101215714Y-102734819D02*
X100644286Y-102734819D01*
X100930000Y-102734819D02*
X100930000Y-101734819D01*
X100930000Y-101734819D02*
X100834762Y-101877676D01*
X100834762Y-101877676D02*
X100739524Y-101972914D01*
X100739524Y-101972914D02*
X100644286Y-102020533D01*
X87208094Y-94897200D02*
X87303332Y-94944819D01*
X87303332Y-94944819D02*
X87493808Y-94944819D01*
X87493808Y-94944819D02*
X87589046Y-94897200D01*
X87589046Y-94897200D02*
X87636665Y-94801961D01*
X87636665Y-94801961D02*
X87636665Y-94754342D01*
X87636665Y-94754342D02*
X87589046Y-94659104D01*
X87589046Y-94659104D02*
X87493808Y-94611485D01*
X87493808Y-94611485D02*
X87350951Y-94611485D01*
X87350951Y-94611485D02*
X87255713Y-94563866D01*
X87255713Y-94563866D02*
X87208094Y-94468628D01*
X87208094Y-94468628D02*
X87208094Y-94421009D01*
X87208094Y-94421009D02*
X87255713Y-94325771D01*
X87255713Y-94325771D02*
X87350951Y-94278152D01*
X87350951Y-94278152D02*
X87493808Y-94278152D01*
X87493808Y-94278152D02*
X87589046Y-94325771D01*
X87969999Y-94278152D02*
X88208094Y-94944819D01*
X88446189Y-94278152D02*
X88208094Y-94944819D01*
X88208094Y-94944819D02*
X88112856Y-95182914D01*
X88112856Y-95182914D02*
X88065237Y-95230533D01*
X88065237Y-95230533D02*
X87969999Y-95278152D01*
X88827142Y-94278152D02*
X88827142Y-94944819D01*
X88827142Y-94373390D02*
X88874761Y-94325771D01*
X88874761Y-94325771D02*
X88969999Y-94278152D01*
X88969999Y-94278152D02*
X89112856Y-94278152D01*
X89112856Y-94278152D02*
X89208094Y-94325771D01*
X89208094Y-94325771D02*
X89255713Y-94421009D01*
X89255713Y-94421009D02*
X89255713Y-94944819D01*
X90160475Y-94897200D02*
X90065237Y-94944819D01*
X90065237Y-94944819D02*
X89874761Y-94944819D01*
X89874761Y-94944819D02*
X89779523Y-94897200D01*
X89779523Y-94897200D02*
X89731904Y-94849580D01*
X89731904Y-94849580D02*
X89684285Y-94754342D01*
X89684285Y-94754342D02*
X89684285Y-94468628D01*
X89684285Y-94468628D02*
X89731904Y-94373390D01*
X89731904Y-94373390D02*
X89779523Y-94325771D01*
X89779523Y-94325771D02*
X89874761Y-94278152D01*
X89874761Y-94278152D02*
X90065237Y-94278152D01*
X90065237Y-94278152D02*
X90160475Y-94325771D01*
X91208095Y-94278152D02*
X91589047Y-94278152D01*
X91350952Y-93944819D02*
X91350952Y-94801961D01*
X91350952Y-94801961D02*
X91398571Y-94897200D01*
X91398571Y-94897200D02*
X91493809Y-94944819D01*
X91493809Y-94944819D02*
X91589047Y-94944819D01*
X92303333Y-94897200D02*
X92208095Y-94944819D01*
X92208095Y-94944819D02*
X92017619Y-94944819D01*
X92017619Y-94944819D02*
X91922381Y-94897200D01*
X91922381Y-94897200D02*
X91874762Y-94801961D01*
X91874762Y-94801961D02*
X91874762Y-94421009D01*
X91874762Y-94421009D02*
X91922381Y-94325771D01*
X91922381Y-94325771D02*
X92017619Y-94278152D01*
X92017619Y-94278152D02*
X92208095Y-94278152D01*
X92208095Y-94278152D02*
X92303333Y-94325771D01*
X92303333Y-94325771D02*
X92350952Y-94421009D01*
X92350952Y-94421009D02*
X92350952Y-94516247D01*
X92350952Y-94516247D02*
X91874762Y-94611485D01*
X92731905Y-94897200D02*
X92827143Y-94944819D01*
X92827143Y-94944819D02*
X93017619Y-94944819D01*
X93017619Y-94944819D02*
X93112857Y-94897200D01*
X93112857Y-94897200D02*
X93160476Y-94801961D01*
X93160476Y-94801961D02*
X93160476Y-94754342D01*
X93160476Y-94754342D02*
X93112857Y-94659104D01*
X93112857Y-94659104D02*
X93017619Y-94611485D01*
X93017619Y-94611485D02*
X92874762Y-94611485D01*
X92874762Y-94611485D02*
X92779524Y-94563866D01*
X92779524Y-94563866D02*
X92731905Y-94468628D01*
X92731905Y-94468628D02*
X92731905Y-94421009D01*
X92731905Y-94421009D02*
X92779524Y-94325771D01*
X92779524Y-94325771D02*
X92874762Y-94278152D01*
X92874762Y-94278152D02*
X93017619Y-94278152D01*
X93017619Y-94278152D02*
X93112857Y-94325771D01*
X93446191Y-94278152D02*
X93827143Y-94278152D01*
X93589048Y-93944819D02*
X93589048Y-94801961D01*
X93589048Y-94801961D02*
X93636667Y-94897200D01*
X93636667Y-94897200D02*
X93731905Y-94944819D01*
X93731905Y-94944819D02*
X93827143Y-94944819D01*
X86074819Y-115140476D02*
X85074819Y-115140476D01*
X85693866Y-115045238D02*
X86074819Y-114759524D01*
X85408152Y-114759524D02*
X85789104Y-115140476D01*
X85408152Y-114330952D02*
X86074819Y-114330952D01*
X85503390Y-114330952D02*
X85455771Y-114283333D01*
X85455771Y-114283333D02*
X85408152Y-114188095D01*
X85408152Y-114188095D02*
X85408152Y-114045238D01*
X85408152Y-114045238D02*
X85455771Y-113950000D01*
X85455771Y-113950000D02*
X85551009Y-113902381D01*
X85551009Y-113902381D02*
X86074819Y-113902381D01*
X86074819Y-113283333D02*
X86027200Y-113378571D01*
X86027200Y-113378571D02*
X85979580Y-113426190D01*
X85979580Y-113426190D02*
X85884342Y-113473809D01*
X85884342Y-113473809D02*
X85598628Y-113473809D01*
X85598628Y-113473809D02*
X85503390Y-113426190D01*
X85503390Y-113426190D02*
X85455771Y-113378571D01*
X85455771Y-113378571D02*
X85408152Y-113283333D01*
X85408152Y-113283333D02*
X85408152Y-113140476D01*
X85408152Y-113140476D02*
X85455771Y-113045238D01*
X85455771Y-113045238D02*
X85503390Y-112997619D01*
X85503390Y-112997619D02*
X85598628Y-112950000D01*
X85598628Y-112950000D02*
X85884342Y-112950000D01*
X85884342Y-112950000D02*
X85979580Y-112997619D01*
X85979580Y-112997619D02*
X86027200Y-113045238D01*
X86027200Y-113045238D02*
X86074819Y-113140476D01*
X86074819Y-113140476D02*
X86074819Y-113283333D01*
X86027200Y-112092857D02*
X86074819Y-112188095D01*
X86074819Y-112188095D02*
X86074819Y-112378571D01*
X86074819Y-112378571D02*
X86027200Y-112473809D01*
X86027200Y-112473809D02*
X85979580Y-112521428D01*
X85979580Y-112521428D02*
X85884342Y-112569047D01*
X85884342Y-112569047D02*
X85598628Y-112569047D01*
X85598628Y-112569047D02*
X85503390Y-112521428D01*
X85503390Y-112521428D02*
X85455771Y-112473809D01*
X85455771Y-112473809D02*
X85408152Y-112378571D01*
X85408152Y-112378571D02*
X85408152Y-112188095D01*
X85408152Y-112188095D02*
X85455771Y-112092857D01*
X86074819Y-111664285D02*
X85074819Y-111664285D01*
X85693866Y-111569047D02*
X86074819Y-111283333D01*
X85408152Y-111283333D02*
X85789104Y-111664285D01*
X85408152Y-110235713D02*
X85408152Y-109854761D01*
X85074819Y-110092856D02*
X85931961Y-110092856D01*
X85931961Y-110092856D02*
X86027200Y-110045237D01*
X86027200Y-110045237D02*
X86074819Y-109949999D01*
X86074819Y-109949999D02*
X86074819Y-109854761D01*
X86027200Y-109140475D02*
X86074819Y-109235713D01*
X86074819Y-109235713D02*
X86074819Y-109426189D01*
X86074819Y-109426189D02*
X86027200Y-109521427D01*
X86027200Y-109521427D02*
X85931961Y-109569046D01*
X85931961Y-109569046D02*
X85551009Y-109569046D01*
X85551009Y-109569046D02*
X85455771Y-109521427D01*
X85455771Y-109521427D02*
X85408152Y-109426189D01*
X85408152Y-109426189D02*
X85408152Y-109235713D01*
X85408152Y-109235713D02*
X85455771Y-109140475D01*
X85455771Y-109140475D02*
X85551009Y-109092856D01*
X85551009Y-109092856D02*
X85646247Y-109092856D01*
X85646247Y-109092856D02*
X85741485Y-109569046D01*
X86027200Y-108711903D02*
X86074819Y-108616665D01*
X86074819Y-108616665D02*
X86074819Y-108426189D01*
X86074819Y-108426189D02*
X86027200Y-108330951D01*
X86027200Y-108330951D02*
X85931961Y-108283332D01*
X85931961Y-108283332D02*
X85884342Y-108283332D01*
X85884342Y-108283332D02*
X85789104Y-108330951D01*
X85789104Y-108330951D02*
X85741485Y-108426189D01*
X85741485Y-108426189D02*
X85741485Y-108569046D01*
X85741485Y-108569046D02*
X85693866Y-108664284D01*
X85693866Y-108664284D02*
X85598628Y-108711903D01*
X85598628Y-108711903D02*
X85551009Y-108711903D01*
X85551009Y-108711903D02*
X85455771Y-108664284D01*
X85455771Y-108664284D02*
X85408152Y-108569046D01*
X85408152Y-108569046D02*
X85408152Y-108426189D01*
X85408152Y-108426189D02*
X85455771Y-108330951D01*
X85408152Y-107997617D02*
X85408152Y-107616665D01*
X85074819Y-107854760D02*
X85931961Y-107854760D01*
X85931961Y-107854760D02*
X86027200Y-107807141D01*
X86027200Y-107807141D02*
X86074819Y-107711903D01*
X86074819Y-107711903D02*
X86074819Y-107616665D01*
X120784761Y-115469819D02*
X120451428Y-114993628D01*
X120213333Y-115469819D02*
X120213333Y-114469819D01*
X120213333Y-114469819D02*
X120594285Y-114469819D01*
X120594285Y-114469819D02*
X120689523Y-114517438D01*
X120689523Y-114517438D02*
X120737142Y-114565057D01*
X120737142Y-114565057D02*
X120784761Y-114660295D01*
X120784761Y-114660295D02*
X120784761Y-114803152D01*
X120784761Y-114803152D02*
X120737142Y-114898390D01*
X120737142Y-114898390D02*
X120689523Y-114946009D01*
X120689523Y-114946009D02*
X120594285Y-114993628D01*
X120594285Y-114993628D02*
X120213333Y-114993628D01*
X121070476Y-114469819D02*
X121403809Y-115469819D01*
X121403809Y-115469819D02*
X121737142Y-114469819D01*
X122022857Y-114565057D02*
X122070476Y-114517438D01*
X122070476Y-114517438D02*
X122165714Y-114469819D01*
X122165714Y-114469819D02*
X122403809Y-114469819D01*
X122403809Y-114469819D02*
X122499047Y-114517438D01*
X122499047Y-114517438D02*
X122546666Y-114565057D01*
X122546666Y-114565057D02*
X122594285Y-114660295D01*
X122594285Y-114660295D02*
X122594285Y-114755533D01*
X122594285Y-114755533D02*
X122546666Y-114898390D01*
X122546666Y-114898390D02*
X121975238Y-115469819D01*
X121975238Y-115469819D02*
X122594285Y-115469819D01*
X118934819Y-115581191D02*
X118268152Y-115581191D01*
X118458628Y-115581191D02*
X118363390Y-115533572D01*
X118363390Y-115533572D02*
X118315771Y-115485953D01*
X118315771Y-115485953D02*
X118268152Y-115390715D01*
X118268152Y-115390715D02*
X118268152Y-115295477D01*
X118887200Y-114581191D02*
X118934819Y-114676429D01*
X118934819Y-114676429D02*
X118934819Y-114866905D01*
X118934819Y-114866905D02*
X118887200Y-114962143D01*
X118887200Y-114962143D02*
X118791961Y-115009762D01*
X118791961Y-115009762D02*
X118411009Y-115009762D01*
X118411009Y-115009762D02*
X118315771Y-114962143D01*
X118315771Y-114962143D02*
X118268152Y-114866905D01*
X118268152Y-114866905D02*
X118268152Y-114676429D01*
X118268152Y-114676429D02*
X118315771Y-114581191D01*
X118315771Y-114581191D02*
X118411009Y-114533572D01*
X118411009Y-114533572D02*
X118506247Y-114533572D01*
X118506247Y-114533572D02*
X118601485Y-115009762D01*
X118268152Y-114247857D02*
X118268152Y-113866905D01*
X117934819Y-114105000D02*
X118791961Y-114105000D01*
X118791961Y-114105000D02*
X118887200Y-114057381D01*
X118887200Y-114057381D02*
X118934819Y-113962143D01*
X118934819Y-113962143D02*
X118934819Y-113866905D01*
X118934819Y-113105000D02*
X118411009Y-113105000D01*
X118411009Y-113105000D02*
X118315771Y-113152619D01*
X118315771Y-113152619D02*
X118268152Y-113247857D01*
X118268152Y-113247857D02*
X118268152Y-113438333D01*
X118268152Y-113438333D02*
X118315771Y-113533571D01*
X118887200Y-113105000D02*
X118934819Y-113200238D01*
X118934819Y-113200238D02*
X118934819Y-113438333D01*
X118934819Y-113438333D02*
X118887200Y-113533571D01*
X118887200Y-113533571D02*
X118791961Y-113581190D01*
X118791961Y-113581190D02*
X118696723Y-113581190D01*
X118696723Y-113581190D02*
X118601485Y-113533571D01*
X118601485Y-113533571D02*
X118553866Y-113438333D01*
X118553866Y-113438333D02*
X118553866Y-113200238D01*
X118553866Y-113200238D02*
X118506247Y-113105000D01*
X118934819Y-112628809D02*
X118268152Y-112628809D01*
X118458628Y-112628809D02*
X118363390Y-112581190D01*
X118363390Y-112581190D02*
X118315771Y-112533571D01*
X118315771Y-112533571D02*
X118268152Y-112438333D01*
X118268152Y-112438333D02*
X118268152Y-112343095D01*
X118934819Y-111581190D02*
X117934819Y-111581190D01*
X118887200Y-111581190D02*
X118934819Y-111676428D01*
X118934819Y-111676428D02*
X118934819Y-111866904D01*
X118934819Y-111866904D02*
X118887200Y-111962142D01*
X118887200Y-111962142D02*
X118839580Y-112009761D01*
X118839580Y-112009761D02*
X118744342Y-112057380D01*
X118744342Y-112057380D02*
X118458628Y-112057380D01*
X118458628Y-112057380D02*
X118363390Y-112009761D01*
X118363390Y-112009761D02*
X118315771Y-111962142D01*
X118315771Y-111962142D02*
X118268152Y-111866904D01*
X118268152Y-111866904D02*
X118268152Y-111676428D01*
X118268152Y-111676428D02*
X118315771Y-111581190D01*
X118934819Y-109914523D02*
X117934819Y-109914523D01*
X118887200Y-109914523D02*
X118934819Y-110009761D01*
X118934819Y-110009761D02*
X118934819Y-110200237D01*
X118934819Y-110200237D02*
X118887200Y-110295475D01*
X118887200Y-110295475D02*
X118839580Y-110343094D01*
X118839580Y-110343094D02*
X118744342Y-110390713D01*
X118744342Y-110390713D02*
X118458628Y-110390713D01*
X118458628Y-110390713D02*
X118363390Y-110343094D01*
X118363390Y-110343094D02*
X118315771Y-110295475D01*
X118315771Y-110295475D02*
X118268152Y-110200237D01*
X118268152Y-110200237D02*
X118268152Y-110009761D01*
X118268152Y-110009761D02*
X118315771Y-109914523D01*
X118268152Y-109009761D02*
X118934819Y-109009761D01*
X118268152Y-109438332D02*
X118791961Y-109438332D01*
X118791961Y-109438332D02*
X118887200Y-109390713D01*
X118887200Y-109390713D02*
X118934819Y-109295475D01*
X118934819Y-109295475D02*
X118934819Y-109152618D01*
X118934819Y-109152618D02*
X118887200Y-109057380D01*
X118887200Y-109057380D02*
X118839580Y-109009761D01*
X118934819Y-108533570D02*
X118268152Y-108533570D01*
X118458628Y-108533570D02*
X118363390Y-108485951D01*
X118363390Y-108485951D02*
X118315771Y-108438332D01*
X118315771Y-108438332D02*
X118268152Y-108343094D01*
X118268152Y-108343094D02*
X118268152Y-108247856D01*
X118934819Y-107485951D02*
X118411009Y-107485951D01*
X118411009Y-107485951D02*
X118315771Y-107533570D01*
X118315771Y-107533570D02*
X118268152Y-107628808D01*
X118268152Y-107628808D02*
X118268152Y-107819284D01*
X118268152Y-107819284D02*
X118315771Y-107914522D01*
X118887200Y-107485951D02*
X118934819Y-107581189D01*
X118934819Y-107581189D02*
X118934819Y-107819284D01*
X118934819Y-107819284D02*
X118887200Y-107914522D01*
X118887200Y-107914522D02*
X118791961Y-107962141D01*
X118791961Y-107962141D02*
X118696723Y-107962141D01*
X118696723Y-107962141D02*
X118601485Y-107914522D01*
X118601485Y-107914522D02*
X118553866Y-107819284D01*
X118553866Y-107819284D02*
X118553866Y-107581189D01*
X118553866Y-107581189D02*
X118506247Y-107485951D01*
X118268152Y-107152617D02*
X118268152Y-106771665D01*
X117934819Y-107009760D02*
X118791961Y-107009760D01*
X118791961Y-107009760D02*
X118887200Y-106962141D01*
X118887200Y-106962141D02*
X118934819Y-106866903D01*
X118934819Y-106866903D02*
X118934819Y-106771665D01*
X118934819Y-106438331D02*
X118268152Y-106438331D01*
X117934819Y-106438331D02*
X117982438Y-106485950D01*
X117982438Y-106485950D02*
X118030057Y-106438331D01*
X118030057Y-106438331D02*
X117982438Y-106390712D01*
X117982438Y-106390712D02*
X117934819Y-106438331D01*
X117934819Y-106438331D02*
X118030057Y-106438331D01*
X118934819Y-105819284D02*
X118887200Y-105914522D01*
X118887200Y-105914522D02*
X118839580Y-105962141D01*
X118839580Y-105962141D02*
X118744342Y-106009760D01*
X118744342Y-106009760D02*
X118458628Y-106009760D01*
X118458628Y-106009760D02*
X118363390Y-105962141D01*
X118363390Y-105962141D02*
X118315771Y-105914522D01*
X118315771Y-105914522D02*
X118268152Y-105819284D01*
X118268152Y-105819284D02*
X118268152Y-105676427D01*
X118268152Y-105676427D02*
X118315771Y-105581189D01*
X118315771Y-105581189D02*
X118363390Y-105533570D01*
X118363390Y-105533570D02*
X118458628Y-105485951D01*
X118458628Y-105485951D02*
X118744342Y-105485951D01*
X118744342Y-105485951D02*
X118839580Y-105533570D01*
X118839580Y-105533570D02*
X118887200Y-105581189D01*
X118887200Y-105581189D02*
X118934819Y-105676427D01*
X118934819Y-105676427D02*
X118934819Y-105819284D01*
X118268152Y-105057379D02*
X118934819Y-105057379D01*
X118363390Y-105057379D02*
X118315771Y-105009760D01*
X118315771Y-105009760D02*
X118268152Y-104914522D01*
X118268152Y-104914522D02*
X118268152Y-104771665D01*
X118268152Y-104771665D02*
X118315771Y-104676427D01*
X118315771Y-104676427D02*
X118411009Y-104628808D01*
X118411009Y-104628808D02*
X118934819Y-104628808D01*
X120884761Y-105054819D02*
X120551428Y-104578628D01*
X120313333Y-105054819D02*
X120313333Y-104054819D01*
X120313333Y-104054819D02*
X120694285Y-104054819D01*
X120694285Y-104054819D02*
X120789523Y-104102438D01*
X120789523Y-104102438D02*
X120837142Y-104150057D01*
X120837142Y-104150057D02*
X120884761Y-104245295D01*
X120884761Y-104245295D02*
X120884761Y-104388152D01*
X120884761Y-104388152D02*
X120837142Y-104483390D01*
X120837142Y-104483390D02*
X120789523Y-104531009D01*
X120789523Y-104531009D02*
X120694285Y-104578628D01*
X120694285Y-104578628D02*
X120313333Y-104578628D01*
X121170476Y-104054819D02*
X121503809Y-105054819D01*
X121503809Y-105054819D02*
X121837142Y-104054819D01*
X122694285Y-105054819D02*
X122122857Y-105054819D01*
X122408571Y-105054819D02*
X122408571Y-104054819D01*
X122408571Y-104054819D02*
X122313333Y-104197676D01*
X122313333Y-104197676D02*
X122218095Y-104292914D01*
X122218095Y-104292914D02*
X122122857Y-104340533D01*
X119094819Y-103795001D02*
X118428152Y-103795001D01*
X118618628Y-103795001D02*
X118523390Y-103747382D01*
X118523390Y-103747382D02*
X118475771Y-103699763D01*
X118475771Y-103699763D02*
X118428152Y-103604525D01*
X118428152Y-103604525D02*
X118428152Y-103509287D01*
X119047200Y-102795001D02*
X119094819Y-102890239D01*
X119094819Y-102890239D02*
X119094819Y-103080715D01*
X119094819Y-103080715D02*
X119047200Y-103175953D01*
X119047200Y-103175953D02*
X118951961Y-103223572D01*
X118951961Y-103223572D02*
X118571009Y-103223572D01*
X118571009Y-103223572D02*
X118475771Y-103175953D01*
X118475771Y-103175953D02*
X118428152Y-103080715D01*
X118428152Y-103080715D02*
X118428152Y-102890239D01*
X118428152Y-102890239D02*
X118475771Y-102795001D01*
X118475771Y-102795001D02*
X118571009Y-102747382D01*
X118571009Y-102747382D02*
X118666247Y-102747382D01*
X118666247Y-102747382D02*
X118761485Y-103223572D01*
X118428152Y-102461667D02*
X118428152Y-102080715D01*
X118094819Y-102318810D02*
X118951961Y-102318810D01*
X118951961Y-102318810D02*
X119047200Y-102271191D01*
X119047200Y-102271191D02*
X119094819Y-102175953D01*
X119094819Y-102175953D02*
X119094819Y-102080715D01*
X119094819Y-101318810D02*
X118571009Y-101318810D01*
X118571009Y-101318810D02*
X118475771Y-101366429D01*
X118475771Y-101366429D02*
X118428152Y-101461667D01*
X118428152Y-101461667D02*
X118428152Y-101652143D01*
X118428152Y-101652143D02*
X118475771Y-101747381D01*
X119047200Y-101318810D02*
X119094819Y-101414048D01*
X119094819Y-101414048D02*
X119094819Y-101652143D01*
X119094819Y-101652143D02*
X119047200Y-101747381D01*
X119047200Y-101747381D02*
X118951961Y-101795000D01*
X118951961Y-101795000D02*
X118856723Y-101795000D01*
X118856723Y-101795000D02*
X118761485Y-101747381D01*
X118761485Y-101747381D02*
X118713866Y-101652143D01*
X118713866Y-101652143D02*
X118713866Y-101414048D01*
X118713866Y-101414048D02*
X118666247Y-101318810D01*
X119094819Y-100842619D02*
X118428152Y-100842619D01*
X118618628Y-100842619D02*
X118523390Y-100795000D01*
X118523390Y-100795000D02*
X118475771Y-100747381D01*
X118475771Y-100747381D02*
X118428152Y-100652143D01*
X118428152Y-100652143D02*
X118428152Y-100556905D01*
X119094819Y-99795000D02*
X118094819Y-99795000D01*
X119047200Y-99795000D02*
X119094819Y-99890238D01*
X119094819Y-99890238D02*
X119094819Y-100080714D01*
X119094819Y-100080714D02*
X119047200Y-100175952D01*
X119047200Y-100175952D02*
X118999580Y-100223571D01*
X118999580Y-100223571D02*
X118904342Y-100271190D01*
X118904342Y-100271190D02*
X118618628Y-100271190D01*
X118618628Y-100271190D02*
X118523390Y-100223571D01*
X118523390Y-100223571D02*
X118475771Y-100175952D01*
X118475771Y-100175952D02*
X118428152Y-100080714D01*
X118428152Y-100080714D02*
X118428152Y-99890238D01*
X118428152Y-99890238D02*
X118475771Y-99795000D01*
X118428152Y-98699761D02*
X118428152Y-98318809D01*
X118094819Y-98556904D02*
X118951961Y-98556904D01*
X118951961Y-98556904D02*
X119047200Y-98509285D01*
X119047200Y-98509285D02*
X119094819Y-98414047D01*
X119094819Y-98414047D02*
X119094819Y-98318809D01*
X119094819Y-97985475D02*
X118428152Y-97985475D01*
X118618628Y-97985475D02*
X118523390Y-97937856D01*
X118523390Y-97937856D02*
X118475771Y-97890237D01*
X118475771Y-97890237D02*
X118428152Y-97794999D01*
X118428152Y-97794999D02*
X118428152Y-97699761D01*
X119094819Y-97366427D02*
X118428152Y-97366427D01*
X118094819Y-97366427D02*
X118142438Y-97414046D01*
X118142438Y-97414046D02*
X118190057Y-97366427D01*
X118190057Y-97366427D02*
X118142438Y-97318808D01*
X118142438Y-97318808D02*
X118094819Y-97366427D01*
X118094819Y-97366427D02*
X118190057Y-97366427D01*
X118428152Y-96461666D02*
X119237676Y-96461666D01*
X119237676Y-96461666D02*
X119332914Y-96509285D01*
X119332914Y-96509285D02*
X119380533Y-96556904D01*
X119380533Y-96556904D02*
X119428152Y-96652142D01*
X119428152Y-96652142D02*
X119428152Y-96794999D01*
X119428152Y-96794999D02*
X119380533Y-96890237D01*
X119047200Y-96461666D02*
X119094819Y-96556904D01*
X119094819Y-96556904D02*
X119094819Y-96747380D01*
X119094819Y-96747380D02*
X119047200Y-96842618D01*
X119047200Y-96842618D02*
X118999580Y-96890237D01*
X118999580Y-96890237D02*
X118904342Y-96937856D01*
X118904342Y-96937856D02*
X118618628Y-96937856D01*
X118618628Y-96937856D02*
X118523390Y-96890237D01*
X118523390Y-96890237D02*
X118475771Y-96842618D01*
X118475771Y-96842618D02*
X118428152Y-96747380D01*
X118428152Y-96747380D02*
X118428152Y-96556904D01*
X118428152Y-96556904D02*
X118475771Y-96461666D01*
X118428152Y-95556904D02*
X119237676Y-95556904D01*
X119237676Y-95556904D02*
X119332914Y-95604523D01*
X119332914Y-95604523D02*
X119380533Y-95652142D01*
X119380533Y-95652142D02*
X119428152Y-95747380D01*
X119428152Y-95747380D02*
X119428152Y-95890237D01*
X119428152Y-95890237D02*
X119380533Y-95985475D01*
X119047200Y-95556904D02*
X119094819Y-95652142D01*
X119094819Y-95652142D02*
X119094819Y-95842618D01*
X119094819Y-95842618D02*
X119047200Y-95937856D01*
X119047200Y-95937856D02*
X118999580Y-95985475D01*
X118999580Y-95985475D02*
X118904342Y-96033094D01*
X118904342Y-96033094D02*
X118618628Y-96033094D01*
X118618628Y-96033094D02*
X118523390Y-95985475D01*
X118523390Y-95985475D02*
X118475771Y-95937856D01*
X118475771Y-95937856D02*
X118428152Y-95842618D01*
X118428152Y-95842618D02*
X118428152Y-95652142D01*
X118428152Y-95652142D02*
X118475771Y-95556904D01*
X119047200Y-94699761D02*
X119094819Y-94794999D01*
X119094819Y-94794999D02*
X119094819Y-94985475D01*
X119094819Y-94985475D02*
X119047200Y-95080713D01*
X119047200Y-95080713D02*
X118951961Y-95128332D01*
X118951961Y-95128332D02*
X118571009Y-95128332D01*
X118571009Y-95128332D02*
X118475771Y-95080713D01*
X118475771Y-95080713D02*
X118428152Y-94985475D01*
X118428152Y-94985475D02*
X118428152Y-94794999D01*
X118428152Y-94794999D02*
X118475771Y-94699761D01*
X118475771Y-94699761D02*
X118571009Y-94652142D01*
X118571009Y-94652142D02*
X118666247Y-94652142D01*
X118666247Y-94652142D02*
X118761485Y-95128332D01*
X119094819Y-94223570D02*
X118428152Y-94223570D01*
X118618628Y-94223570D02*
X118523390Y-94175951D01*
X118523390Y-94175951D02*
X118475771Y-94128332D01*
X118475771Y-94128332D02*
X118428152Y-94033094D01*
X118428152Y-94033094D02*
X118428152Y-93937856D01*
X119094819Y-92699760D02*
X119047200Y-92794998D01*
X119047200Y-92794998D02*
X118951961Y-92842617D01*
X118951961Y-92842617D02*
X118094819Y-92842617D01*
X119047200Y-91937855D02*
X119094819Y-92033093D01*
X119094819Y-92033093D02*
X119094819Y-92223569D01*
X119094819Y-92223569D02*
X119047200Y-92318807D01*
X119047200Y-92318807D02*
X118951961Y-92366426D01*
X118951961Y-92366426D02*
X118571009Y-92366426D01*
X118571009Y-92366426D02*
X118475771Y-92318807D01*
X118475771Y-92318807D02*
X118428152Y-92223569D01*
X118428152Y-92223569D02*
X118428152Y-92033093D01*
X118428152Y-92033093D02*
X118475771Y-91937855D01*
X118475771Y-91937855D02*
X118571009Y-91890236D01*
X118571009Y-91890236D02*
X118666247Y-91890236D01*
X118666247Y-91890236D02*
X118761485Y-92366426D01*
X118428152Y-91556902D02*
X119094819Y-91318807D01*
X119094819Y-91318807D02*
X118428152Y-91080712D01*
X119047200Y-90318807D02*
X119094819Y-90414045D01*
X119094819Y-90414045D02*
X119094819Y-90604521D01*
X119094819Y-90604521D02*
X119047200Y-90699759D01*
X119047200Y-90699759D02*
X118951961Y-90747378D01*
X118951961Y-90747378D02*
X118571009Y-90747378D01*
X118571009Y-90747378D02*
X118475771Y-90699759D01*
X118475771Y-90699759D02*
X118428152Y-90604521D01*
X118428152Y-90604521D02*
X118428152Y-90414045D01*
X118428152Y-90414045D02*
X118475771Y-90318807D01*
X118475771Y-90318807D02*
X118571009Y-90271188D01*
X118571009Y-90271188D02*
X118666247Y-90271188D01*
X118666247Y-90271188D02*
X118761485Y-90747378D01*
X119094819Y-89699759D02*
X119047200Y-89794997D01*
X119047200Y-89794997D02*
X118951961Y-89842616D01*
X118951961Y-89842616D02*
X118094819Y-89842616D01*
X124933866Y-74693570D02*
X124933866Y-73931666D01*
X125314819Y-74312618D02*
X124552914Y-74312618D01*
X124314819Y-72979285D02*
X124314819Y-73455475D01*
X124314819Y-73455475D02*
X124791009Y-73503094D01*
X124791009Y-73503094D02*
X124743390Y-73455475D01*
X124743390Y-73455475D02*
X124695771Y-73360237D01*
X124695771Y-73360237D02*
X124695771Y-73122142D01*
X124695771Y-73122142D02*
X124743390Y-73026904D01*
X124743390Y-73026904D02*
X124791009Y-72979285D01*
X124791009Y-72979285D02*
X124886247Y-72931666D01*
X124886247Y-72931666D02*
X125124342Y-72931666D01*
X125124342Y-72931666D02*
X125219580Y-72979285D01*
X125219580Y-72979285D02*
X125267200Y-73026904D01*
X125267200Y-73026904D02*
X125314819Y-73122142D01*
X125314819Y-73122142D02*
X125314819Y-73360237D01*
X125314819Y-73360237D02*
X125267200Y-73455475D01*
X125267200Y-73455475D02*
X125219580Y-73503094D01*
X124648152Y-72598332D02*
X125314819Y-72360237D01*
X125314819Y-72360237D02*
X124648152Y-72122142D01*
X125314819Y-70979284D02*
X124648152Y-70979284D01*
X124314819Y-70979284D02*
X124362438Y-71026903D01*
X124362438Y-71026903D02*
X124410057Y-70979284D01*
X124410057Y-70979284D02*
X124362438Y-70931665D01*
X124362438Y-70931665D02*
X124314819Y-70979284D01*
X124314819Y-70979284D02*
X124410057Y-70979284D01*
X124648152Y-70503094D02*
X125314819Y-70503094D01*
X124743390Y-70503094D02*
X124695771Y-70455475D01*
X124695771Y-70455475D02*
X124648152Y-70360237D01*
X124648152Y-70360237D02*
X124648152Y-70217380D01*
X124648152Y-70217380D02*
X124695771Y-70122142D01*
X124695771Y-70122142D02*
X124791009Y-70074523D01*
X124791009Y-70074523D02*
X125314819Y-70074523D01*
X124933866Y-69598332D02*
X124933866Y-68836428D01*
X124993866Y-86704761D02*
X124993866Y-85942857D01*
X125374819Y-86323809D02*
X124612914Y-86323809D01*
X125374819Y-84942857D02*
X125374819Y-85514285D01*
X125374819Y-85228571D02*
X124374819Y-85228571D01*
X124374819Y-85228571D02*
X124517676Y-85323809D01*
X124517676Y-85323809D02*
X124612914Y-85419047D01*
X124612914Y-85419047D02*
X124660533Y-85514285D01*
X124470057Y-84561904D02*
X124422438Y-84514285D01*
X124422438Y-84514285D02*
X124374819Y-84419047D01*
X124374819Y-84419047D02*
X124374819Y-84180952D01*
X124374819Y-84180952D02*
X124422438Y-84085714D01*
X124422438Y-84085714D02*
X124470057Y-84038095D01*
X124470057Y-84038095D02*
X124565295Y-83990476D01*
X124565295Y-83990476D02*
X124660533Y-83990476D01*
X124660533Y-83990476D02*
X124803390Y-84038095D01*
X124803390Y-84038095D02*
X125374819Y-84609523D01*
X125374819Y-84609523D02*
X125374819Y-83990476D01*
X124708152Y-83657142D02*
X125374819Y-83419047D01*
X125374819Y-83419047D02*
X124708152Y-83180952D01*
X125374819Y-82038094D02*
X124708152Y-82038094D01*
X124374819Y-82038094D02*
X124422438Y-82085713D01*
X124422438Y-82085713D02*
X124470057Y-82038094D01*
X124470057Y-82038094D02*
X124422438Y-81990475D01*
X124422438Y-81990475D02*
X124374819Y-82038094D01*
X124374819Y-82038094D02*
X124470057Y-82038094D01*
X124708152Y-81561904D02*
X125374819Y-81561904D01*
X124803390Y-81561904D02*
X124755771Y-81514285D01*
X124755771Y-81514285D02*
X124708152Y-81419047D01*
X124708152Y-81419047D02*
X124708152Y-81276190D01*
X124708152Y-81276190D02*
X124755771Y-81180952D01*
X124755771Y-81180952D02*
X124851009Y-81133333D01*
X124851009Y-81133333D02*
X125374819Y-81133333D01*
X124993866Y-80657142D02*
X124993866Y-79895238D01*
X85063866Y-106374761D02*
X85063866Y-105612857D01*
X85444819Y-105993809D02*
X84682914Y-105993809D01*
X85444819Y-105136666D02*
X84444819Y-105136666D01*
X85063866Y-105041428D02*
X85444819Y-104755714D01*
X84778152Y-104755714D02*
X85159104Y-105136666D01*
X84778152Y-104327142D02*
X85444819Y-104327142D01*
X84873390Y-104327142D02*
X84825771Y-104279523D01*
X84825771Y-104279523D02*
X84778152Y-104184285D01*
X84778152Y-104184285D02*
X84778152Y-104041428D01*
X84778152Y-104041428D02*
X84825771Y-103946190D01*
X84825771Y-103946190D02*
X84921009Y-103898571D01*
X84921009Y-103898571D02*
X85444819Y-103898571D01*
X85444819Y-103279523D02*
X85397200Y-103374761D01*
X85397200Y-103374761D02*
X85349580Y-103422380D01*
X85349580Y-103422380D02*
X85254342Y-103469999D01*
X85254342Y-103469999D02*
X84968628Y-103469999D01*
X84968628Y-103469999D02*
X84873390Y-103422380D01*
X84873390Y-103422380D02*
X84825771Y-103374761D01*
X84825771Y-103374761D02*
X84778152Y-103279523D01*
X84778152Y-103279523D02*
X84778152Y-103136666D01*
X84778152Y-103136666D02*
X84825771Y-103041428D01*
X84825771Y-103041428D02*
X84873390Y-102993809D01*
X84873390Y-102993809D02*
X84968628Y-102946190D01*
X84968628Y-102946190D02*
X85254342Y-102946190D01*
X85254342Y-102946190D02*
X85349580Y-102993809D01*
X85349580Y-102993809D02*
X85397200Y-103041428D01*
X85397200Y-103041428D02*
X85444819Y-103136666D01*
X85444819Y-103136666D02*
X85444819Y-103279523D01*
X85397200Y-102089047D02*
X85444819Y-102184285D01*
X85444819Y-102184285D02*
X85444819Y-102374761D01*
X85444819Y-102374761D02*
X85397200Y-102469999D01*
X85397200Y-102469999D02*
X85349580Y-102517618D01*
X85349580Y-102517618D02*
X85254342Y-102565237D01*
X85254342Y-102565237D02*
X84968628Y-102565237D01*
X84968628Y-102565237D02*
X84873390Y-102517618D01*
X84873390Y-102517618D02*
X84825771Y-102469999D01*
X84825771Y-102469999D02*
X84778152Y-102374761D01*
X84778152Y-102374761D02*
X84778152Y-102184285D01*
X84778152Y-102184285D02*
X84825771Y-102089047D01*
X85444819Y-101660475D02*
X84444819Y-101660475D01*
X85063866Y-101565237D02*
X85444819Y-101279523D01*
X84778152Y-101279523D02*
X85159104Y-101660475D01*
X85444819Y-100089046D02*
X84778152Y-100089046D01*
X84444819Y-100089046D02*
X84492438Y-100136665D01*
X84492438Y-100136665D02*
X84540057Y-100089046D01*
X84540057Y-100089046D02*
X84492438Y-100041427D01*
X84492438Y-100041427D02*
X84444819Y-100089046D01*
X84444819Y-100089046D02*
X84540057Y-100089046D01*
X84778152Y-99612856D02*
X85444819Y-99612856D01*
X84873390Y-99612856D02*
X84825771Y-99565237D01*
X84825771Y-99565237D02*
X84778152Y-99469999D01*
X84778152Y-99469999D02*
X84778152Y-99327142D01*
X84778152Y-99327142D02*
X84825771Y-99231904D01*
X84825771Y-99231904D02*
X84921009Y-99184285D01*
X84921009Y-99184285D02*
X85444819Y-99184285D01*
X84778152Y-98708094D02*
X85778152Y-98708094D01*
X84825771Y-98708094D02*
X84778152Y-98612856D01*
X84778152Y-98612856D02*
X84778152Y-98422380D01*
X84778152Y-98422380D02*
X84825771Y-98327142D01*
X84825771Y-98327142D02*
X84873390Y-98279523D01*
X84873390Y-98279523D02*
X84968628Y-98231904D01*
X84968628Y-98231904D02*
X85254342Y-98231904D01*
X85254342Y-98231904D02*
X85349580Y-98279523D01*
X85349580Y-98279523D02*
X85397200Y-98327142D01*
X85397200Y-98327142D02*
X85444819Y-98422380D01*
X85444819Y-98422380D02*
X85444819Y-98612856D01*
X85444819Y-98612856D02*
X85397200Y-98708094D01*
X84778152Y-97374761D02*
X85444819Y-97374761D01*
X84778152Y-97803332D02*
X85301961Y-97803332D01*
X85301961Y-97803332D02*
X85397200Y-97755713D01*
X85397200Y-97755713D02*
X85444819Y-97660475D01*
X85444819Y-97660475D02*
X85444819Y-97517618D01*
X85444819Y-97517618D02*
X85397200Y-97422380D01*
X85397200Y-97422380D02*
X85349580Y-97374761D01*
X84778152Y-97041427D02*
X84778152Y-96660475D01*
X84444819Y-96898570D02*
X85301961Y-96898570D01*
X85301961Y-96898570D02*
X85397200Y-96850951D01*
X85397200Y-96850951D02*
X85444819Y-96755713D01*
X85444819Y-96755713D02*
X85444819Y-96660475D01*
X85063866Y-96327141D02*
X85063866Y-95565237D01*
X105514819Y-114848094D02*
X104514819Y-114848094D01*
X104514819Y-114848094D02*
X104514819Y-114609999D01*
X104514819Y-114609999D02*
X104562438Y-114467142D01*
X104562438Y-114467142D02*
X104657676Y-114371904D01*
X104657676Y-114371904D02*
X104752914Y-114324285D01*
X104752914Y-114324285D02*
X104943390Y-114276666D01*
X104943390Y-114276666D02*
X105086247Y-114276666D01*
X105086247Y-114276666D02*
X105276723Y-114324285D01*
X105276723Y-114324285D02*
X105371961Y-114371904D01*
X105371961Y-114371904D02*
X105467200Y-114467142D01*
X105467200Y-114467142D02*
X105514819Y-114609999D01*
X105514819Y-114609999D02*
X105514819Y-114848094D01*
X104514819Y-113943332D02*
X104514819Y-113324285D01*
X104514819Y-113324285D02*
X104895771Y-113657618D01*
X104895771Y-113657618D02*
X104895771Y-113514761D01*
X104895771Y-113514761D02*
X104943390Y-113419523D01*
X104943390Y-113419523D02*
X104991009Y-113371904D01*
X104991009Y-113371904D02*
X105086247Y-113324285D01*
X105086247Y-113324285D02*
X105324342Y-113324285D01*
X105324342Y-113324285D02*
X105419580Y-113371904D01*
X105419580Y-113371904D02*
X105467200Y-113419523D01*
X105467200Y-113419523D02*
X105514819Y-113514761D01*
X105514819Y-113514761D02*
X105514819Y-113800475D01*
X105514819Y-113800475D02*
X105467200Y-113895713D01*
X105467200Y-113895713D02*
X105419580Y-113943332D01*
X102756665Y-115942440D02*
X102756665Y-115275773D01*
X102756665Y-115466249D02*
X102804284Y-115371011D01*
X102804284Y-115371011D02*
X102851903Y-115323392D01*
X102851903Y-115323392D02*
X102947141Y-115275773D01*
X102947141Y-115275773D02*
X103042379Y-115275773D01*
X103756665Y-115894821D02*
X103661427Y-115942440D01*
X103661427Y-115942440D02*
X103470951Y-115942440D01*
X103470951Y-115942440D02*
X103375713Y-115894821D01*
X103375713Y-115894821D02*
X103328094Y-115799582D01*
X103328094Y-115799582D02*
X103328094Y-115418630D01*
X103328094Y-115418630D02*
X103375713Y-115323392D01*
X103375713Y-115323392D02*
X103470951Y-115275773D01*
X103470951Y-115275773D02*
X103661427Y-115275773D01*
X103661427Y-115275773D02*
X103756665Y-115323392D01*
X103756665Y-115323392D02*
X103804284Y-115418630D01*
X103804284Y-115418630D02*
X103804284Y-115513868D01*
X103804284Y-115513868D02*
X103328094Y-115609106D01*
X104089999Y-115275773D02*
X104470951Y-115275773D01*
X104232856Y-114942440D02*
X104232856Y-115799582D01*
X104232856Y-115799582D02*
X104280475Y-115894821D01*
X104280475Y-115894821D02*
X104375713Y-115942440D01*
X104375713Y-115942440D02*
X104470951Y-115942440D01*
X105232856Y-115942440D02*
X105232856Y-115418630D01*
X105232856Y-115418630D02*
X105185237Y-115323392D01*
X105185237Y-115323392D02*
X105089999Y-115275773D01*
X105089999Y-115275773D02*
X104899523Y-115275773D01*
X104899523Y-115275773D02*
X104804285Y-115323392D01*
X105232856Y-115894821D02*
X105137618Y-115942440D01*
X105137618Y-115942440D02*
X104899523Y-115942440D01*
X104899523Y-115942440D02*
X104804285Y-115894821D01*
X104804285Y-115894821D02*
X104756666Y-115799582D01*
X104756666Y-115799582D02*
X104756666Y-115704344D01*
X104756666Y-115704344D02*
X104804285Y-115609106D01*
X104804285Y-115609106D02*
X104899523Y-115561487D01*
X104899523Y-115561487D02*
X105137618Y-115561487D01*
X105137618Y-115561487D02*
X105232856Y-115513868D01*
X105709047Y-115942440D02*
X105709047Y-115275773D01*
X105709047Y-115466249D02*
X105756666Y-115371011D01*
X105756666Y-115371011D02*
X105804285Y-115323392D01*
X105804285Y-115323392D02*
X105899523Y-115275773D01*
X105899523Y-115275773D02*
X105994761Y-115275773D01*
X106756666Y-115942440D02*
X106756666Y-114942440D01*
X106756666Y-115894821D02*
X106661428Y-115942440D01*
X106661428Y-115942440D02*
X106470952Y-115942440D01*
X106470952Y-115942440D02*
X106375714Y-115894821D01*
X106375714Y-115894821D02*
X106328095Y-115847201D01*
X106328095Y-115847201D02*
X106280476Y-115751963D01*
X106280476Y-115751963D02*
X106280476Y-115466249D01*
X106280476Y-115466249D02*
X106328095Y-115371011D01*
X106328095Y-115371011D02*
X106375714Y-115323392D01*
X106375714Y-115323392D02*
X106470952Y-115275773D01*
X106470952Y-115275773D02*
X106661428Y-115275773D01*
X106661428Y-115275773D02*
X106756666Y-115323392D01*
X107613809Y-115894821D02*
X107518571Y-115942440D01*
X107518571Y-115942440D02*
X107328095Y-115942440D01*
X107328095Y-115942440D02*
X107232857Y-115894821D01*
X107232857Y-115894821D02*
X107185238Y-115799582D01*
X107185238Y-115799582D02*
X107185238Y-115418630D01*
X107185238Y-115418630D02*
X107232857Y-115323392D01*
X107232857Y-115323392D02*
X107328095Y-115275773D01*
X107328095Y-115275773D02*
X107518571Y-115275773D01*
X107518571Y-115275773D02*
X107613809Y-115323392D01*
X107613809Y-115323392D02*
X107661428Y-115418630D01*
X107661428Y-115418630D02*
X107661428Y-115513868D01*
X107661428Y-115513868D02*
X107185238Y-115609106D01*
X108090000Y-115942440D02*
X108090000Y-115275773D01*
X108090000Y-115466249D02*
X108137619Y-115371011D01*
X108137619Y-115371011D02*
X108185238Y-115323392D01*
X108185238Y-115323392D02*
X108280476Y-115275773D01*
X108280476Y-115275773D02*
X108375714Y-115275773D01*
X109899524Y-115942440D02*
X109899524Y-115418630D01*
X109899524Y-115418630D02*
X109851905Y-115323392D01*
X109851905Y-115323392D02*
X109756667Y-115275773D01*
X109756667Y-115275773D02*
X109566191Y-115275773D01*
X109566191Y-115275773D02*
X109470953Y-115323392D01*
X109899524Y-115894821D02*
X109804286Y-115942440D01*
X109804286Y-115942440D02*
X109566191Y-115942440D01*
X109566191Y-115942440D02*
X109470953Y-115894821D01*
X109470953Y-115894821D02*
X109423334Y-115799582D01*
X109423334Y-115799582D02*
X109423334Y-115704344D01*
X109423334Y-115704344D02*
X109470953Y-115609106D01*
X109470953Y-115609106D02*
X109566191Y-115561487D01*
X109566191Y-115561487D02*
X109804286Y-115561487D01*
X109804286Y-115561487D02*
X109899524Y-115513868D01*
X110804286Y-115894821D02*
X110709048Y-115942440D01*
X110709048Y-115942440D02*
X110518572Y-115942440D01*
X110518572Y-115942440D02*
X110423334Y-115894821D01*
X110423334Y-115894821D02*
X110375715Y-115847201D01*
X110375715Y-115847201D02*
X110328096Y-115751963D01*
X110328096Y-115751963D02*
X110328096Y-115466249D01*
X110328096Y-115466249D02*
X110375715Y-115371011D01*
X110375715Y-115371011D02*
X110423334Y-115323392D01*
X110423334Y-115323392D02*
X110518572Y-115275773D01*
X110518572Y-115275773D02*
X110709048Y-115275773D01*
X110709048Y-115275773D02*
X110804286Y-115323392D01*
X111090001Y-115275773D02*
X111470953Y-115275773D01*
X111232858Y-114942440D02*
X111232858Y-115799582D01*
X111232858Y-115799582D02*
X111280477Y-115894821D01*
X111280477Y-115894821D02*
X111375715Y-115942440D01*
X111375715Y-115942440D02*
X111470953Y-115942440D01*
X111804287Y-115942440D02*
X111804287Y-115275773D01*
X111804287Y-114942440D02*
X111756668Y-114990059D01*
X111756668Y-114990059D02*
X111804287Y-115037678D01*
X111804287Y-115037678D02*
X111851906Y-114990059D01*
X111851906Y-114990059D02*
X111804287Y-114942440D01*
X111804287Y-114942440D02*
X111804287Y-115037678D01*
X112185239Y-115275773D02*
X112423334Y-115942440D01*
X112423334Y-115942440D02*
X112661429Y-115275773D01*
X113423334Y-115894821D02*
X113328096Y-115942440D01*
X113328096Y-115942440D02*
X113137620Y-115942440D01*
X113137620Y-115942440D02*
X113042382Y-115894821D01*
X113042382Y-115894821D02*
X112994763Y-115799582D01*
X112994763Y-115799582D02*
X112994763Y-115418630D01*
X112994763Y-115418630D02*
X113042382Y-115323392D01*
X113042382Y-115323392D02*
X113137620Y-115275773D01*
X113137620Y-115275773D02*
X113328096Y-115275773D01*
X113328096Y-115275773D02*
X113423334Y-115323392D01*
X113423334Y-115323392D02*
X113470953Y-115418630D01*
X113470953Y-115418630D02*
X113470953Y-115513868D01*
X113470953Y-115513868D02*
X112994763Y-115609106D01*
X113058095Y-89544819D02*
X113058095Y-90354342D01*
X113058095Y-90354342D02*
X113105714Y-90449580D01*
X113105714Y-90449580D02*
X113153333Y-90497200D01*
X113153333Y-90497200D02*
X113248571Y-90544819D01*
X113248571Y-90544819D02*
X113439047Y-90544819D01*
X113439047Y-90544819D02*
X113534285Y-90497200D01*
X113534285Y-90497200D02*
X113581904Y-90449580D01*
X113581904Y-90449580D02*
X113629523Y-90354342D01*
X113629523Y-90354342D02*
X113629523Y-89544819D01*
X114010476Y-89544819D02*
X114677142Y-89544819D01*
X114677142Y-89544819D02*
X114248571Y-90544819D01*
X108042319Y-105549525D02*
X108851842Y-105549525D01*
X108851842Y-105549525D02*
X108947080Y-105501906D01*
X108947080Y-105501906D02*
X108994700Y-105454287D01*
X108994700Y-105454287D02*
X109042319Y-105359049D01*
X109042319Y-105359049D02*
X109042319Y-105168573D01*
X109042319Y-105168573D02*
X108994700Y-105073335D01*
X108994700Y-105073335D02*
X108947080Y-105025716D01*
X108947080Y-105025716D02*
X108851842Y-104978097D01*
X108851842Y-104978097D02*
X108042319Y-104978097D01*
X108042319Y-104073335D02*
X108042319Y-104263811D01*
X108042319Y-104263811D02*
X108089938Y-104359049D01*
X108089938Y-104359049D02*
X108137557Y-104406668D01*
X108137557Y-104406668D02*
X108280414Y-104501906D01*
X108280414Y-104501906D02*
X108470890Y-104549525D01*
X108470890Y-104549525D02*
X108851842Y-104549525D01*
X108851842Y-104549525D02*
X108947080Y-104501906D01*
X108947080Y-104501906D02*
X108994700Y-104454287D01*
X108994700Y-104454287D02*
X109042319Y-104359049D01*
X109042319Y-104359049D02*
X109042319Y-104168573D01*
X109042319Y-104168573D02*
X108994700Y-104073335D01*
X108994700Y-104073335D02*
X108947080Y-104025716D01*
X108947080Y-104025716D02*
X108851842Y-103978097D01*
X108851842Y-103978097D02*
X108613747Y-103978097D01*
X108613747Y-103978097D02*
X108518509Y-104025716D01*
X108518509Y-104025716D02*
X108470890Y-104073335D01*
X108470890Y-104073335D02*
X108423271Y-104168573D01*
X108423271Y-104168573D02*
X108423271Y-104359049D01*
X108423271Y-104359049D02*
X108470890Y-104454287D01*
X108470890Y-104454287D02*
X108518509Y-104501906D01*
X108518509Y-104501906D02*
X108613747Y-104549525D01*
X116228095Y-99154819D02*
X116228095Y-99964342D01*
X116228095Y-99964342D02*
X116275714Y-100059580D01*
X116275714Y-100059580D02*
X116323333Y-100107200D01*
X116323333Y-100107200D02*
X116418571Y-100154819D01*
X116418571Y-100154819D02*
X116609047Y-100154819D01*
X116609047Y-100154819D02*
X116704285Y-100107200D01*
X116704285Y-100107200D02*
X116751904Y-100059580D01*
X116751904Y-100059580D02*
X116799523Y-99964342D01*
X116799523Y-99964342D02*
X116799523Y-99154819D01*
X117704285Y-99488152D02*
X117704285Y-100154819D01*
X117466190Y-99107200D02*
X117228095Y-99821485D01*
X117228095Y-99821485D02*
X117847142Y-99821485D01*
X110708095Y-96274819D02*
X110708095Y-97084342D01*
X110708095Y-97084342D02*
X110755714Y-97179580D01*
X110755714Y-97179580D02*
X110803333Y-97227200D01*
X110803333Y-97227200D02*
X110898571Y-97274819D01*
X110898571Y-97274819D02*
X111089047Y-97274819D01*
X111089047Y-97274819D02*
X111184285Y-97227200D01*
X111184285Y-97227200D02*
X111231904Y-97179580D01*
X111231904Y-97179580D02*
X111279523Y-97084342D01*
X111279523Y-97084342D02*
X111279523Y-96274819D01*
X111660476Y-96274819D02*
X112279523Y-96274819D01*
X112279523Y-96274819D02*
X111946190Y-96655771D01*
X111946190Y-96655771D02*
X112089047Y-96655771D01*
X112089047Y-96655771D02*
X112184285Y-96703390D01*
X112184285Y-96703390D02*
X112231904Y-96751009D01*
X112231904Y-96751009D02*
X112279523Y-96846247D01*
X112279523Y-96846247D02*
X112279523Y-97084342D01*
X112279523Y-97084342D02*
X112231904Y-97179580D01*
X112231904Y-97179580D02*
X112184285Y-97227200D01*
X112184285Y-97227200D02*
X112089047Y-97274819D01*
X112089047Y-97274819D02*
X111803333Y-97274819D01*
X111803333Y-97274819D02*
X111708095Y-97227200D01*
X111708095Y-97227200D02*
X111660476Y-97179580D01*
X108228095Y-90864819D02*
X108228095Y-91674342D01*
X108228095Y-91674342D02*
X108275714Y-91769580D01*
X108275714Y-91769580D02*
X108323333Y-91817200D01*
X108323333Y-91817200D02*
X108418571Y-91864819D01*
X108418571Y-91864819D02*
X108609047Y-91864819D01*
X108609047Y-91864819D02*
X108704285Y-91817200D01*
X108704285Y-91817200D02*
X108751904Y-91769580D01*
X108751904Y-91769580D02*
X108799523Y-91674342D01*
X108799523Y-91674342D02*
X108799523Y-90864819D01*
X109228095Y-90960057D02*
X109275714Y-90912438D01*
X109275714Y-90912438D02*
X109370952Y-90864819D01*
X109370952Y-90864819D02*
X109609047Y-90864819D01*
X109609047Y-90864819D02*
X109704285Y-90912438D01*
X109704285Y-90912438D02*
X109751904Y-90960057D01*
X109751904Y-90960057D02*
X109799523Y-91055295D01*
X109799523Y-91055295D02*
X109799523Y-91150533D01*
X109799523Y-91150533D02*
X109751904Y-91293390D01*
X109751904Y-91293390D02*
X109180476Y-91864819D01*
X109180476Y-91864819D02*
X109799523Y-91864819D01*
X112565595Y-106152440D02*
X112565595Y-106961963D01*
X112565595Y-106961963D02*
X112613214Y-107057201D01*
X112613214Y-107057201D02*
X112660833Y-107104821D01*
X112660833Y-107104821D02*
X112756071Y-107152440D01*
X112756071Y-107152440D02*
X112946547Y-107152440D01*
X112946547Y-107152440D02*
X113041785Y-107104821D01*
X113041785Y-107104821D02*
X113089404Y-107057201D01*
X113089404Y-107057201D02*
X113137023Y-106961963D01*
X113137023Y-106961963D02*
X113137023Y-106152440D01*
X114137023Y-107152440D02*
X113565595Y-107152440D01*
X113851309Y-107152440D02*
X113851309Y-106152440D01*
X113851309Y-106152440D02*
X113756071Y-106295297D01*
X113756071Y-106295297D02*
X113660833Y-106390535D01*
X113660833Y-106390535D02*
X113565595Y-106438154D01*
X99951904Y-108194819D02*
X99951904Y-107528152D01*
X99951904Y-107718628D02*
X99999523Y-107623390D01*
X99999523Y-107623390D02*
X100047142Y-107575771D01*
X100047142Y-107575771D02*
X100142380Y-107528152D01*
X100142380Y-107528152D02*
X100237618Y-107528152D01*
X100951904Y-108147200D02*
X100856666Y-108194819D01*
X100856666Y-108194819D02*
X100666190Y-108194819D01*
X100666190Y-108194819D02*
X100570952Y-108147200D01*
X100570952Y-108147200D02*
X100523333Y-108051961D01*
X100523333Y-108051961D02*
X100523333Y-107671009D01*
X100523333Y-107671009D02*
X100570952Y-107575771D01*
X100570952Y-107575771D02*
X100666190Y-107528152D01*
X100666190Y-107528152D02*
X100856666Y-107528152D01*
X100856666Y-107528152D02*
X100951904Y-107575771D01*
X100951904Y-107575771D02*
X100999523Y-107671009D01*
X100999523Y-107671009D02*
X100999523Y-107766247D01*
X100999523Y-107766247D02*
X100523333Y-107861485D01*
X101285238Y-107528152D02*
X101666190Y-107528152D01*
X101428095Y-107194819D02*
X101428095Y-108051961D01*
X101428095Y-108051961D02*
X101475714Y-108147200D01*
X101475714Y-108147200D02*
X101570952Y-108194819D01*
X101570952Y-108194819D02*
X101666190Y-108194819D01*
X102428095Y-108194819D02*
X102428095Y-107671009D01*
X102428095Y-107671009D02*
X102380476Y-107575771D01*
X102380476Y-107575771D02*
X102285238Y-107528152D01*
X102285238Y-107528152D02*
X102094762Y-107528152D01*
X102094762Y-107528152D02*
X101999524Y-107575771D01*
X102428095Y-108147200D02*
X102332857Y-108194819D01*
X102332857Y-108194819D02*
X102094762Y-108194819D01*
X102094762Y-108194819D02*
X101999524Y-108147200D01*
X101999524Y-108147200D02*
X101951905Y-108051961D01*
X101951905Y-108051961D02*
X101951905Y-107956723D01*
X101951905Y-107956723D02*
X101999524Y-107861485D01*
X101999524Y-107861485D02*
X102094762Y-107813866D01*
X102094762Y-107813866D02*
X102332857Y-107813866D01*
X102332857Y-107813866D02*
X102428095Y-107766247D01*
X102904286Y-108194819D02*
X102904286Y-107528152D01*
X102904286Y-107718628D02*
X102951905Y-107623390D01*
X102951905Y-107623390D02*
X102999524Y-107575771D01*
X102999524Y-107575771D02*
X103094762Y-107528152D01*
X103094762Y-107528152D02*
X103190000Y-107528152D01*
X103951905Y-108194819D02*
X103951905Y-107194819D01*
X103951905Y-108147200D02*
X103856667Y-108194819D01*
X103856667Y-108194819D02*
X103666191Y-108194819D01*
X103666191Y-108194819D02*
X103570953Y-108147200D01*
X103570953Y-108147200D02*
X103523334Y-108099580D01*
X103523334Y-108099580D02*
X103475715Y-108004342D01*
X103475715Y-108004342D02*
X103475715Y-107718628D01*
X103475715Y-107718628D02*
X103523334Y-107623390D01*
X103523334Y-107623390D02*
X103570953Y-107575771D01*
X103570953Y-107575771D02*
X103666191Y-107528152D01*
X103666191Y-107528152D02*
X103856667Y-107528152D01*
X103856667Y-107528152D02*
X103951905Y-107575771D01*
X104809048Y-108147200D02*
X104713810Y-108194819D01*
X104713810Y-108194819D02*
X104523334Y-108194819D01*
X104523334Y-108194819D02*
X104428096Y-108147200D01*
X104428096Y-108147200D02*
X104380477Y-108051961D01*
X104380477Y-108051961D02*
X104380477Y-107671009D01*
X104380477Y-107671009D02*
X104428096Y-107575771D01*
X104428096Y-107575771D02*
X104523334Y-107528152D01*
X104523334Y-107528152D02*
X104713810Y-107528152D01*
X104713810Y-107528152D02*
X104809048Y-107575771D01*
X104809048Y-107575771D02*
X104856667Y-107671009D01*
X104856667Y-107671009D02*
X104856667Y-107766247D01*
X104856667Y-107766247D02*
X104380477Y-107861485D01*
X105285239Y-108194819D02*
X105285239Y-107528152D01*
X105285239Y-107718628D02*
X105332858Y-107623390D01*
X105332858Y-107623390D02*
X105380477Y-107575771D01*
X105380477Y-107575771D02*
X105475715Y-107528152D01*
X105475715Y-107528152D02*
X105570953Y-107528152D01*
X100478095Y-113842438D02*
X100382857Y-113794819D01*
X100382857Y-113794819D02*
X100240000Y-113794819D01*
X100240000Y-113794819D02*
X100097143Y-113842438D01*
X100097143Y-113842438D02*
X100001905Y-113937676D01*
X100001905Y-113937676D02*
X99954286Y-114032914D01*
X99954286Y-114032914D02*
X99906667Y-114223390D01*
X99906667Y-114223390D02*
X99906667Y-114366247D01*
X99906667Y-114366247D02*
X99954286Y-114556723D01*
X99954286Y-114556723D02*
X100001905Y-114651961D01*
X100001905Y-114651961D02*
X100097143Y-114747200D01*
X100097143Y-114747200D02*
X100240000Y-114794819D01*
X100240000Y-114794819D02*
X100335238Y-114794819D01*
X100335238Y-114794819D02*
X100478095Y-114747200D01*
X100478095Y-114747200D02*
X100525714Y-114699580D01*
X100525714Y-114699580D02*
X100525714Y-114366247D01*
X100525714Y-114366247D02*
X100335238Y-114366247D01*
X100954286Y-114794819D02*
X100954286Y-113794819D01*
X100954286Y-113794819D02*
X101525714Y-114794819D01*
X101525714Y-114794819D02*
X101525714Y-113794819D01*
X102001905Y-114794819D02*
X102001905Y-113794819D01*
X102001905Y-113794819D02*
X102240000Y-113794819D01*
X102240000Y-113794819D02*
X102382857Y-113842438D01*
X102382857Y-113842438D02*
X102478095Y-113937676D01*
X102478095Y-113937676D02*
X102525714Y-114032914D01*
X102525714Y-114032914D02*
X102573333Y-114223390D01*
X102573333Y-114223390D02*
X102573333Y-114366247D01*
X102573333Y-114366247D02*
X102525714Y-114556723D01*
X102525714Y-114556723D02*
X102478095Y-114651961D01*
X102478095Y-114651961D02*
X102382857Y-114747200D01*
X102382857Y-114747200D02*
X102240000Y-114794819D01*
X102240000Y-114794819D02*
X102001905Y-114794819D01*
X106999819Y-108945478D02*
X106523628Y-109278811D01*
X106999819Y-109516906D02*
X105999819Y-109516906D01*
X105999819Y-109516906D02*
X105999819Y-109135954D01*
X105999819Y-109135954D02*
X106047438Y-109040716D01*
X106047438Y-109040716D02*
X106095057Y-108993097D01*
X106095057Y-108993097D02*
X106190295Y-108945478D01*
X106190295Y-108945478D02*
X106333152Y-108945478D01*
X106333152Y-108945478D02*
X106428390Y-108993097D01*
X106428390Y-108993097D02*
X106476009Y-109040716D01*
X106476009Y-109040716D02*
X106523628Y-109135954D01*
X106523628Y-109135954D02*
X106523628Y-109516906D01*
X106999819Y-107993097D02*
X106999819Y-108564525D01*
X106999819Y-108278811D02*
X105999819Y-108278811D01*
X105999819Y-108278811D02*
X106142676Y-108374049D01*
X106142676Y-108374049D02*
X106237914Y-108469287D01*
X106237914Y-108469287D02*
X106285533Y-108564525D01*
X106999819Y-107040716D02*
X106999819Y-107612144D01*
X106999819Y-107326430D02*
X105999819Y-107326430D01*
X105999819Y-107326430D02*
X106142676Y-107421668D01*
X106142676Y-107421668D02*
X106237914Y-107516906D01*
X106237914Y-107516906D02*
X106285533Y-107612144D01*
X115654819Y-101252857D02*
X115178628Y-101586190D01*
X115654819Y-101824285D02*
X114654819Y-101824285D01*
X114654819Y-101824285D02*
X114654819Y-101443333D01*
X114654819Y-101443333D02*
X114702438Y-101348095D01*
X114702438Y-101348095D02*
X114750057Y-101300476D01*
X114750057Y-101300476D02*
X114845295Y-101252857D01*
X114845295Y-101252857D02*
X114988152Y-101252857D01*
X114988152Y-101252857D02*
X115083390Y-101300476D01*
X115083390Y-101300476D02*
X115131009Y-101348095D01*
X115131009Y-101348095D02*
X115178628Y-101443333D01*
X115178628Y-101443333D02*
X115178628Y-101824285D01*
X115654819Y-100300476D02*
X115654819Y-100871904D01*
X115654819Y-100586190D02*
X114654819Y-100586190D01*
X114654819Y-100586190D02*
X114797676Y-100681428D01*
X114797676Y-100681428D02*
X114892914Y-100776666D01*
X114892914Y-100776666D02*
X114940533Y-100871904D01*
X114654819Y-99681428D02*
X114654819Y-99586190D01*
X114654819Y-99586190D02*
X114702438Y-99490952D01*
X114702438Y-99490952D02*
X114750057Y-99443333D01*
X114750057Y-99443333D02*
X114845295Y-99395714D01*
X114845295Y-99395714D02*
X115035771Y-99348095D01*
X115035771Y-99348095D02*
X115273866Y-99348095D01*
X115273866Y-99348095D02*
X115464342Y-99395714D01*
X115464342Y-99395714D02*
X115559580Y-99443333D01*
X115559580Y-99443333D02*
X115607200Y-99490952D01*
X115607200Y-99490952D02*
X115654819Y-99586190D01*
X115654819Y-99586190D02*
X115654819Y-99681428D01*
X115654819Y-99681428D02*
X115607200Y-99776666D01*
X115607200Y-99776666D02*
X115559580Y-99824285D01*
X115559580Y-99824285D02*
X115464342Y-99871904D01*
X115464342Y-99871904D02*
X115273866Y-99919523D01*
X115273866Y-99919523D02*
X115035771Y-99919523D01*
X115035771Y-99919523D02*
X114845295Y-99871904D01*
X114845295Y-99871904D02*
X114750057Y-99824285D01*
X114750057Y-99824285D02*
X114702438Y-99776666D01*
X114702438Y-99776666D02*
X114654819Y-99681428D01*
X105933333Y-97054819D02*
X105600000Y-96578628D01*
X105361905Y-97054819D02*
X105361905Y-96054819D01*
X105361905Y-96054819D02*
X105742857Y-96054819D01*
X105742857Y-96054819D02*
X105838095Y-96102438D01*
X105838095Y-96102438D02*
X105885714Y-96150057D01*
X105885714Y-96150057D02*
X105933333Y-96245295D01*
X105933333Y-96245295D02*
X105933333Y-96388152D01*
X105933333Y-96388152D02*
X105885714Y-96483390D01*
X105885714Y-96483390D02*
X105838095Y-96531009D01*
X105838095Y-96531009D02*
X105742857Y-96578628D01*
X105742857Y-96578628D02*
X105361905Y-96578628D01*
X106266667Y-96054819D02*
X106885714Y-96054819D01*
X106885714Y-96054819D02*
X106552381Y-96435771D01*
X106552381Y-96435771D02*
X106695238Y-96435771D01*
X106695238Y-96435771D02*
X106790476Y-96483390D01*
X106790476Y-96483390D02*
X106838095Y-96531009D01*
X106838095Y-96531009D02*
X106885714Y-96626247D01*
X106885714Y-96626247D02*
X106885714Y-96864342D01*
X106885714Y-96864342D02*
X106838095Y-96959580D01*
X106838095Y-96959580D02*
X106790476Y-97007200D01*
X106790476Y-97007200D02*
X106695238Y-97054819D01*
X106695238Y-97054819D02*
X106409524Y-97054819D01*
X106409524Y-97054819D02*
X106314286Y-97007200D01*
X106314286Y-97007200D02*
X106266667Y-96959580D01*
X101414819Y-93286666D02*
X100938628Y-93619999D01*
X101414819Y-93858094D02*
X100414819Y-93858094D01*
X100414819Y-93858094D02*
X100414819Y-93477142D01*
X100414819Y-93477142D02*
X100462438Y-93381904D01*
X100462438Y-93381904D02*
X100510057Y-93334285D01*
X100510057Y-93334285D02*
X100605295Y-93286666D01*
X100605295Y-93286666D02*
X100748152Y-93286666D01*
X100748152Y-93286666D02*
X100843390Y-93334285D01*
X100843390Y-93334285D02*
X100891009Y-93381904D01*
X100891009Y-93381904D02*
X100938628Y-93477142D01*
X100938628Y-93477142D02*
X100938628Y-93858094D01*
X100510057Y-92905713D02*
X100462438Y-92858094D01*
X100462438Y-92858094D02*
X100414819Y-92762856D01*
X100414819Y-92762856D02*
X100414819Y-92524761D01*
X100414819Y-92524761D02*
X100462438Y-92429523D01*
X100462438Y-92429523D02*
X100510057Y-92381904D01*
X100510057Y-92381904D02*
X100605295Y-92334285D01*
X100605295Y-92334285D02*
X100700533Y-92334285D01*
X100700533Y-92334285D02*
X100843390Y-92381904D01*
X100843390Y-92381904D02*
X101414819Y-92953332D01*
X101414819Y-92953332D02*
X101414819Y-92334285D01*
X115282319Y-107715715D02*
X114282319Y-107715715D01*
X114282319Y-107715715D02*
X114282319Y-107477620D01*
X114282319Y-107477620D02*
X114329938Y-107334763D01*
X114329938Y-107334763D02*
X114425176Y-107239525D01*
X114425176Y-107239525D02*
X114520414Y-107191906D01*
X114520414Y-107191906D02*
X114710890Y-107144287D01*
X114710890Y-107144287D02*
X114853747Y-107144287D01*
X114853747Y-107144287D02*
X115044223Y-107191906D01*
X115044223Y-107191906D02*
X115139461Y-107239525D01*
X115139461Y-107239525D02*
X115234700Y-107334763D01*
X115234700Y-107334763D02*
X115282319Y-107477620D01*
X115282319Y-107477620D02*
X115282319Y-107715715D01*
X114377557Y-106763334D02*
X114329938Y-106715715D01*
X114329938Y-106715715D02*
X114282319Y-106620477D01*
X114282319Y-106620477D02*
X114282319Y-106382382D01*
X114282319Y-106382382D02*
X114329938Y-106287144D01*
X114329938Y-106287144D02*
X114377557Y-106239525D01*
X114377557Y-106239525D02*
X114472795Y-106191906D01*
X114472795Y-106191906D02*
X114568033Y-106191906D01*
X114568033Y-106191906D02*
X114710890Y-106239525D01*
X114710890Y-106239525D02*
X115282319Y-106810953D01*
X115282319Y-106810953D02*
X115282319Y-106191906D01*
X102601905Y-93644819D02*
X102601905Y-92644819D01*
X102601905Y-92644819D02*
X102840000Y-92644819D01*
X102840000Y-92644819D02*
X102982857Y-92692438D01*
X102982857Y-92692438D02*
X103078095Y-92787676D01*
X103078095Y-92787676D02*
X103125714Y-92882914D01*
X103125714Y-92882914D02*
X103173333Y-93073390D01*
X103173333Y-93073390D02*
X103173333Y-93216247D01*
X103173333Y-93216247D02*
X103125714Y-93406723D01*
X103125714Y-93406723D02*
X103078095Y-93501961D01*
X103078095Y-93501961D02*
X102982857Y-93597200D01*
X102982857Y-93597200D02*
X102840000Y-93644819D01*
X102840000Y-93644819D02*
X102601905Y-93644819D01*
X104125714Y-93644819D02*
X103554286Y-93644819D01*
X103840000Y-93644819D02*
X103840000Y-92644819D01*
X103840000Y-92644819D02*
X103744762Y-92787676D01*
X103744762Y-92787676D02*
X103649524Y-92882914D01*
X103649524Y-92882914D02*
X103554286Y-92930533D01*
X115717142Y-115919580D02*
X115669523Y-115967200D01*
X115669523Y-115967200D02*
X115526666Y-116014819D01*
X115526666Y-116014819D02*
X115431428Y-116014819D01*
X115431428Y-116014819D02*
X115288571Y-115967200D01*
X115288571Y-115967200D02*
X115193333Y-115871961D01*
X115193333Y-115871961D02*
X115145714Y-115776723D01*
X115145714Y-115776723D02*
X115098095Y-115586247D01*
X115098095Y-115586247D02*
X115098095Y-115443390D01*
X115098095Y-115443390D02*
X115145714Y-115252914D01*
X115145714Y-115252914D02*
X115193333Y-115157676D01*
X115193333Y-115157676D02*
X115288571Y-115062438D01*
X115288571Y-115062438D02*
X115431428Y-115014819D01*
X115431428Y-115014819D02*
X115526666Y-115014819D01*
X115526666Y-115014819D02*
X115669523Y-115062438D01*
X115669523Y-115062438D02*
X115717142Y-115110057D01*
X116669523Y-116014819D02*
X116098095Y-116014819D01*
X116383809Y-116014819D02*
X116383809Y-115014819D01*
X116383809Y-115014819D02*
X116288571Y-115157676D01*
X116288571Y-115157676D02*
X116193333Y-115252914D01*
X116193333Y-115252914D02*
X116098095Y-115300533D01*
X117288571Y-115014819D02*
X117383809Y-115014819D01*
X117383809Y-115014819D02*
X117479047Y-115062438D01*
X117479047Y-115062438D02*
X117526666Y-115110057D01*
X117526666Y-115110057D02*
X117574285Y-115205295D01*
X117574285Y-115205295D02*
X117621904Y-115395771D01*
X117621904Y-115395771D02*
X117621904Y-115633866D01*
X117621904Y-115633866D02*
X117574285Y-115824342D01*
X117574285Y-115824342D02*
X117526666Y-115919580D01*
X117526666Y-115919580D02*
X117479047Y-115967200D01*
X117479047Y-115967200D02*
X117383809Y-116014819D01*
X117383809Y-116014819D02*
X117288571Y-116014819D01*
X117288571Y-116014819D02*
X117193333Y-115967200D01*
X117193333Y-115967200D02*
X117145714Y-115919580D01*
X117145714Y-115919580D02*
X117098095Y-115824342D01*
X117098095Y-115824342D02*
X117050476Y-115633866D01*
X117050476Y-115633866D02*
X117050476Y-115395771D01*
X117050476Y-115395771D02*
X117098095Y-115205295D01*
X117098095Y-115205295D02*
X117145714Y-115110057D01*
X117145714Y-115110057D02*
X117193333Y-115062438D01*
X117193333Y-115062438D02*
X117288571Y-115014819D01*
D12*
%TO.C,C4*%
X110565000Y-93548748D02*
X110565000Y-94071252D01*
X112035000Y-93548748D02*
X112035000Y-94071252D01*
%TO.C,C1*%
X101305000Y-99408748D02*
X101305000Y-99931252D01*
X99835000Y-99408748D02*
X99835000Y-99931252D01*
%TO.C,J7*%
X109790000Y-78310000D02*
X88990000Y-78310000D01*
X109790000Y-65710000D02*
X109790000Y-78310000D01*
X89490000Y-73510000D02*
X89490000Y-68110000D01*
X89490000Y-68110000D02*
X88940000Y-68410000D01*
X89490000Y-66660000D02*
X89490000Y-65710000D01*
X89490000Y-65710000D02*
X109790000Y-65710000D01*
X88990000Y-78310000D02*
X88990000Y-73260000D01*
X88990000Y-73260000D02*
X89490000Y-73510000D01*
X88940000Y-68410000D02*
X88940000Y-66360000D01*
X88940000Y-66360000D02*
X89490000Y-66660000D01*
%TO.C,SW2*%
X86580000Y-92480000D02*
X86880000Y-92480000D01*
X86580000Y-92480000D02*
X86580000Y-84860000D01*
X88820000Y-92480000D02*
X91960000Y-92480000D01*
X93900000Y-92480000D02*
X94200000Y-92480000D01*
X86580000Y-84860000D02*
X86880000Y-84860000D01*
X88820000Y-84860000D02*
X91960000Y-84860000D01*
X93900000Y-84860000D02*
X94200000Y-84860000D01*
X94200000Y-84860000D02*
X94200000Y-92480000D01*
X92930000Y-88670000D02*
G75*
G02*
X87850000Y-88670000I-2540000J0D01*
G01*
X87850000Y-88670000D02*
G75*
G02*
X92930000Y-88670000I2540000J0D01*
G01*
%TO.C,SW1*%
X95590000Y-115230000D02*
X95590000Y-114930000D01*
X95590000Y-115230000D02*
X87970000Y-115230000D01*
X95590000Y-112990000D02*
X95590000Y-109850000D01*
X95590000Y-107910000D02*
X95590000Y-107610000D01*
X87970000Y-115230000D02*
X87970000Y-114930000D01*
X87970000Y-112990000D02*
X87970000Y-109850000D01*
X87970000Y-107910000D02*
X87970000Y-107610000D01*
X87970000Y-107610000D02*
X95590000Y-107610000D01*
X94320000Y-111420000D02*
G75*
G02*
X89240000Y-111420000I-2540000J0D01*
G01*
X89240000Y-111420000D02*
G75*
G02*
X94320000Y-111420000I2540000J0D01*
G01*
%TO.C,RV2*%
X122710000Y-114015000D02*
X121380000Y-114015000D01*
X122710000Y-112685000D02*
X122710000Y-114015000D01*
X122710000Y-111415000D02*
X122710000Y-106275000D01*
X122710000Y-111415000D02*
X120050000Y-111415000D01*
X122710000Y-106275000D02*
X120050000Y-106275000D01*
X120050000Y-111415000D02*
X120050000Y-106275000D01*
%TO.C,RV1*%
X122810000Y-103600000D02*
X121480000Y-103600000D01*
X122810000Y-102270000D02*
X122810000Y-103600000D01*
X122810000Y-101000000D02*
X122810000Y-95860000D01*
X122810000Y-101000000D02*
X120150000Y-101000000D01*
X122810000Y-95860000D02*
X120150000Y-95860000D01*
X120150000Y-101000000D02*
X120150000Y-95860000D01*
%TO.C,J5*%
X110810000Y-77195000D02*
X123410000Y-77195000D01*
X123410000Y-77195000D02*
X123410000Y-66845000D01*
X115610000Y-66845000D02*
X115910000Y-66345000D01*
X121010000Y-66845000D02*
X115610000Y-66845000D01*
X122460000Y-66845000D02*
X122710000Y-66345000D01*
X123410000Y-66845000D02*
X122460000Y-66845000D01*
X110810000Y-66345000D02*
X110810000Y-77195000D01*
X115910000Y-66345000D02*
X110810000Y-66345000D01*
X120760000Y-66345000D02*
X121010000Y-66845000D01*
X120810000Y-66345000D02*
X120760000Y-66345000D01*
X122710000Y-66345000D02*
X120810000Y-66345000D01*
%TO.C,J4*%
X110870000Y-88730000D02*
X123470000Y-88730000D01*
X123470000Y-88730000D02*
X123470000Y-78380000D01*
X115670000Y-78380000D02*
X115970000Y-77880000D01*
X121070000Y-78380000D02*
X115670000Y-78380000D01*
X122520000Y-78380000D02*
X122770000Y-77880000D01*
X123470000Y-78380000D02*
X122520000Y-78380000D01*
X110870000Y-77880000D02*
X110870000Y-88730000D01*
X115970000Y-77880000D02*
X110870000Y-77880000D01*
X120820000Y-77880000D02*
X121070000Y-78380000D01*
X120870000Y-77880000D02*
X120820000Y-77880000D01*
X122770000Y-77880000D02*
X120870000Y-77880000D01*
%TO.C,J1*%
X99040000Y-95540000D02*
X86440000Y-95540000D01*
X86440000Y-95540000D02*
X86440000Y-105890000D01*
X94240000Y-105890000D02*
X93940000Y-106390000D01*
X88840000Y-105890000D02*
X94240000Y-105890000D01*
X87390000Y-105890000D02*
X87140000Y-106390000D01*
X86440000Y-105890000D02*
X87390000Y-105890000D01*
X99040000Y-106390000D02*
X99040000Y-95540000D01*
X93940000Y-106390000D02*
X99040000Y-106390000D01*
X89090000Y-106390000D02*
X88840000Y-105890000D01*
X89040000Y-106390000D02*
X89090000Y-106390000D01*
X87140000Y-106390000D02*
X89040000Y-106390000D01*
%TO.C,D3*%
X106834000Y-113987621D02*
X106990000Y-113987621D01*
X109150000Y-113987621D02*
X109306000Y-113987621D01*
X106834485Y-113987620D02*
G75*
G02*
X106991392Y-110755287I1235515J1559999D01*
G01*
X106990001Y-113468581D02*
G75*
G02*
X106990164Y-111386492I1079999J1040960D01*
G01*
X109149836Y-111386492D02*
G75*
G02*
X109149999Y-113468581I-1079836J-1041129D01*
G01*
X109148608Y-110755287D02*
G75*
G02*
X109305515Y-113987620I-1078608J-1672334D01*
G01*
%TO.C,U7*%
X115920000Y-90950000D02*
X114120000Y-90950000D01*
X114920000Y-94170000D02*
X115720000Y-94170000D01*
X114920000Y-94170000D02*
X114120000Y-94170000D01*
X116460000Y-94450000D02*
X115980000Y-94450000D01*
X116220000Y-94120000D01*
X116460000Y-94450000D01*
G36*
X116460000Y-94450000D02*
G01*
X115980000Y-94450000D01*
X116220000Y-94120000D01*
X116460000Y-94450000D01*
G37*
%TO.C,U6*%
X109677500Y-105497621D02*
X109677500Y-104087621D01*
X111997500Y-105487621D02*
X111997500Y-104087621D01*
X109727500Y-105867621D02*
X109397500Y-106107621D01*
X109397500Y-105627621D01*
X109727500Y-105867621D01*
G36*
X109727500Y-105867621D02*
G01*
X109397500Y-106107621D01*
X109397500Y-105627621D01*
X109727500Y-105867621D01*
G37*
%TO.C,U4*%
X115817500Y-95390000D02*
X114017500Y-95390000D01*
X114817500Y-98610000D02*
X115617500Y-98610000D01*
X114817500Y-98610000D02*
X114017500Y-98610000D01*
X116357500Y-98890000D02*
X115877500Y-98890000D01*
X116117500Y-98560000D01*
X116357500Y-98890000D01*
G36*
X116357500Y-98890000D02*
G01*
X115877500Y-98890000D01*
X116117500Y-98560000D01*
X116357500Y-98890000D01*
G37*
%TO.C,U3*%
X106810000Y-97822500D02*
X106570000Y-97492500D01*
X107050000Y-97492500D01*
X106810000Y-97822500D01*
G36*
X106810000Y-97822500D02*
G01*
X106570000Y-97492500D01*
X107050000Y-97492500D01*
X106810000Y-97822500D01*
G37*
X110310000Y-100892500D02*
X107310000Y-100892500D01*
X110310000Y-97652500D02*
X107310000Y-97652500D01*
%TO.C,U2*%
X108700000Y-92330000D02*
X106900000Y-92330000D01*
X107700000Y-95550000D02*
X108500000Y-95550000D01*
X107700000Y-95550000D02*
X106900000Y-95550000D01*
X109240000Y-95830000D02*
X108760000Y-95830000D01*
X109000000Y-95500000D01*
X109240000Y-95830000D01*
G36*
X109240000Y-95830000D02*
G01*
X108760000Y-95830000D01*
X109000000Y-95500000D01*
X109240000Y-95830000D01*
G37*
%TO.C,U1*%
X115497500Y-105637621D02*
X114087500Y-105637621D01*
X115487500Y-103317621D02*
X114087500Y-103317621D01*
X116107500Y-105917621D02*
X115627500Y-105917621D01*
X115867500Y-105587621D01*
X116107500Y-105917621D01*
G36*
X116107500Y-105917621D02*
G01*
X115627500Y-105917621D01*
X115867500Y-105587621D01*
X116107500Y-105917621D01*
G37*
%TO.C,TP4*%
X105400000Y-104610000D02*
G75*
G02*
X100800000Y-104610000I-2300000J0D01*
G01*
X100800000Y-104610000D02*
G75*
G02*
X105400000Y-104610000I2300000J0D01*
G01*
%TO.C,TP3*%
X107680000Y-89530000D02*
G75*
G02*
X103080000Y-89530000I-2300000J0D01*
G01*
X103080000Y-89530000D02*
G75*
G02*
X107680000Y-89530000I2300000J0D01*
G01*
%TO.C,TP2*%
X124460000Y-92240000D02*
G75*
G02*
X119860000Y-92240000I-2300000J0D01*
G01*
X119860000Y-92240000D02*
G75*
G02*
X124460000Y-92240000I2300000J0D01*
G01*
%TO.C,TP1*%
X104760000Y-111060000D02*
G75*
G02*
X100160000Y-111060000I-2300000J0D01*
G01*
X100160000Y-111060000D02*
G75*
G02*
X104760000Y-111060000I2300000J0D01*
G01*
%TO.C,R11*%
X107452500Y-108539879D02*
X107452500Y-108065363D01*
X108497500Y-108539879D02*
X108497500Y-108065363D01*
%TO.C,R10*%
X114292500Y-100355276D02*
X114292500Y-100864724D01*
X113247500Y-100355276D02*
X113247500Y-100864724D01*
%TO.C,R3*%
X108432776Y-96145000D02*
X108942224Y-96145000D01*
X108432776Y-97190000D02*
X108942224Y-97190000D01*
%TO.C,R2*%
X100187500Y-96222224D02*
X100187500Y-95712776D01*
X101232500Y-96222224D02*
X101232500Y-95712776D01*
%TO.C,D2*%
X115627500Y-107837621D02*
X116427500Y-107837621D01*
X115627500Y-106477621D02*
X115627500Y-107837621D01*
X116427500Y-106477621D02*
X116427500Y-107837621D01*
%TO.C,D1*%
X101800000Y-94010000D02*
X101800000Y-99520000D01*
X105100000Y-94010000D02*
X105100000Y-99520000D01*
X105100000Y-94010000D02*
X101800000Y-94010000D01*
%TO.C,C10*%
X116109000Y-108037380D02*
X116109000Y-108667380D01*
X116424000Y-108352380D02*
X115794000Y-108352380D01*
X117500000Y-111537621D02*
X111040000Y-111537621D01*
X117500000Y-111577621D02*
X111040000Y-111577621D01*
X117500000Y-111617621D02*
X111040000Y-111617621D01*
X117498000Y-111657621D02*
X111042000Y-111657621D01*
X117497000Y-111697621D02*
X111043000Y-111697621D01*
X117494000Y-111737621D02*
X111046000Y-111737621D01*
X117492000Y-111777621D02*
X115310000Y-111777621D01*
X113230000Y-111777621D02*
X111048000Y-111777621D01*
X117488000Y-111817621D02*
X115310000Y-111817621D01*
X113230000Y-111817621D02*
X111052000Y-111817621D01*
X117485000Y-111857621D02*
X115310000Y-111857621D01*
X113230000Y-111857621D02*
X111055000Y-111857621D01*
X117481000Y-111897621D02*
X115310000Y-111897621D01*
X113230000Y-111897621D02*
X111059000Y-111897621D01*
X117476000Y-111937621D02*
X115310000Y-111937621D01*
X113230000Y-111937621D02*
X111064000Y-111937621D01*
X117471000Y-111977621D02*
X115310000Y-111977621D01*
X113230000Y-111977621D02*
X111069000Y-111977621D01*
X117465000Y-112017621D02*
X115310000Y-112017621D01*
X113230000Y-112017621D02*
X111075000Y-112017621D01*
X117459000Y-112057621D02*
X115310000Y-112057621D01*
X113230000Y-112057621D02*
X111081000Y-112057621D01*
X117452000Y-112097621D02*
X115310000Y-112097621D01*
X113230000Y-112097621D02*
X111088000Y-112097621D01*
X117445000Y-112137621D02*
X115310000Y-112137621D01*
X113230000Y-112137621D02*
X111095000Y-112137621D01*
X117437000Y-112177621D02*
X115310000Y-112177621D01*
X113230000Y-112177621D02*
X111103000Y-112177621D01*
X117429000Y-112217621D02*
X115310000Y-112217621D01*
X113230000Y-112217621D02*
X111111000Y-112217621D01*
X117420000Y-112258621D02*
X115310000Y-112258621D01*
X113230000Y-112258621D02*
X111120000Y-112258621D01*
X117411000Y-112298621D02*
X115310000Y-112298621D01*
X113230000Y-112298621D02*
X111129000Y-112298621D01*
X117401000Y-112338621D02*
X115310000Y-112338621D01*
X113230000Y-112338621D02*
X111139000Y-112338621D01*
X117391000Y-112378621D02*
X115310000Y-112378621D01*
X113230000Y-112378621D02*
X111149000Y-112378621D01*
X117380000Y-112418621D02*
X115310000Y-112418621D01*
X113230000Y-112418621D02*
X111160000Y-112418621D01*
X117368000Y-112458621D02*
X115310000Y-112458621D01*
X113230000Y-112458621D02*
X111172000Y-112458621D01*
X117356000Y-112498621D02*
X115310000Y-112498621D01*
X113230000Y-112498621D02*
X111184000Y-112498621D01*
X117344000Y-112538621D02*
X115310000Y-112538621D01*
X113230000Y-112538621D02*
X111196000Y-112538621D01*
X117331000Y-112578621D02*
X115310000Y-112578621D01*
X113230000Y-112578621D02*
X111209000Y-112578621D01*
X117317000Y-112618621D02*
X115310000Y-112618621D01*
X113230000Y-112618621D02*
X111223000Y-112618621D01*
X117303000Y-112658621D02*
X115310000Y-112658621D01*
X113230000Y-112658621D02*
X111237000Y-112658621D01*
X117288000Y-112698621D02*
X115310000Y-112698621D01*
X113230000Y-112698621D02*
X111252000Y-112698621D01*
X117272000Y-112738621D02*
X115310000Y-112738621D01*
X113230000Y-112738621D02*
X111268000Y-112738621D01*
X117256000Y-112778621D02*
X115310000Y-112778621D01*
X113230000Y-112778621D02*
X111284000Y-112778621D01*
X117240000Y-112818621D02*
X115310000Y-112818621D01*
X113230000Y-112818621D02*
X111300000Y-112818621D01*
X117222000Y-112858621D02*
X115310000Y-112858621D01*
X113230000Y-112858621D02*
X111318000Y-112858621D01*
X117204000Y-112898621D02*
X115310000Y-112898621D01*
X113230000Y-112898621D02*
X111336000Y-112898621D01*
X117186000Y-112938621D02*
X115310000Y-112938621D01*
X113230000Y-112938621D02*
X111354000Y-112938621D01*
X117166000Y-112978621D02*
X115310000Y-112978621D01*
X113230000Y-112978621D02*
X111374000Y-112978621D01*
X117146000Y-113018621D02*
X115310000Y-113018621D01*
X113230000Y-113018621D02*
X111394000Y-113018621D01*
X117126000Y-113058621D02*
X115310000Y-113058621D01*
X113230000Y-113058621D02*
X111414000Y-113058621D01*
X117104000Y-113098621D02*
X115310000Y-113098621D01*
X113230000Y-113098621D02*
X111436000Y-113098621D01*
X117082000Y-113138621D02*
X115310000Y-113138621D01*
X113230000Y-113138621D02*
X111458000Y-113138621D01*
X117060000Y-113178621D02*
X115310000Y-113178621D01*
X113230000Y-113178621D02*
X111480000Y-113178621D01*
X117036000Y-113218621D02*
X115310000Y-113218621D01*
X113230000Y-113218621D02*
X111504000Y-113218621D01*
X117012000Y-113258621D02*
X115310000Y-113258621D01*
X113230000Y-113258621D02*
X111528000Y-113258621D01*
X116986000Y-113298621D02*
X115310000Y-113298621D01*
X113230000Y-113298621D02*
X111554000Y-113298621D01*
X116960000Y-113338621D02*
X115310000Y-113338621D01*
X113230000Y-113338621D02*
X111580000Y-113338621D01*
X116934000Y-113378621D02*
X115310000Y-113378621D01*
X113230000Y-113378621D02*
X111606000Y-113378621D01*
X116906000Y-113418621D02*
X115310000Y-113418621D01*
X113230000Y-113418621D02*
X111634000Y-113418621D01*
X116877000Y-113458621D02*
X115310000Y-113458621D01*
X113230000Y-113458621D02*
X111663000Y-113458621D01*
X116848000Y-113498621D02*
X115310000Y-113498621D01*
X113230000Y-113498621D02*
X111692000Y-113498621D01*
X116818000Y-113538621D02*
X115310000Y-113538621D01*
X113230000Y-113538621D02*
X111722000Y-113538621D01*
X116786000Y-113578621D02*
X115310000Y-113578621D01*
X113230000Y-113578621D02*
X111754000Y-113578621D01*
X116754000Y-113618621D02*
X115310000Y-113618621D01*
X113230000Y-113618621D02*
X111786000Y-113618621D01*
X116720000Y-113658621D02*
X115310000Y-113658621D01*
X113230000Y-113658621D02*
X111820000Y-113658621D01*
X116686000Y-113698621D02*
X115310000Y-113698621D01*
X113230000Y-113698621D02*
X111854000Y-113698621D01*
X116650000Y-113738621D02*
X115310000Y-113738621D01*
X113230000Y-113738621D02*
X111890000Y-113738621D01*
X116613000Y-113778621D02*
X115310000Y-113778621D01*
X113230000Y-113778621D02*
X111927000Y-113778621D01*
X116575000Y-113818621D02*
X115310000Y-113818621D01*
X113230000Y-113818621D02*
X111965000Y-113818621D01*
X116535000Y-113858621D02*
X112005000Y-113858621D01*
X116494000Y-113898621D02*
X112046000Y-113898621D01*
X116452000Y-113938621D02*
X112088000Y-113938621D01*
X116407000Y-113978621D02*
X112133000Y-113978621D01*
X116362000Y-114018621D02*
X112178000Y-114018621D01*
X116314000Y-114058621D02*
X112226000Y-114058621D01*
X116265000Y-114098621D02*
X112275000Y-114098621D01*
X116214000Y-114138621D02*
X112326000Y-114138621D01*
X116160000Y-114178621D02*
X112380000Y-114178621D01*
X116104000Y-114218621D02*
X112436000Y-114218621D01*
X116046000Y-114258621D02*
X112494000Y-114258621D01*
X115984000Y-114298621D02*
X112556000Y-114298621D01*
X115920000Y-114338621D02*
X112620000Y-114338621D01*
X115851000Y-114378621D02*
X112689000Y-114378621D01*
X115779000Y-114418621D02*
X112761000Y-114418621D01*
X115702000Y-114458621D02*
X112838000Y-114458621D01*
X115620000Y-114498621D02*
X112920000Y-114498621D01*
X115532000Y-114538621D02*
X113008000Y-114538621D01*
X115435000Y-114578621D02*
X113105000Y-114578621D01*
X115329000Y-114618621D02*
X113211000Y-114618621D01*
X115210000Y-114658621D02*
X113330000Y-114658621D01*
X115072000Y-114698621D02*
X113468000Y-114698621D01*
X114903000Y-114738621D02*
X113637000Y-114738621D01*
X114672000Y-114778621D02*
X113868000Y-114778621D01*
X117540000Y-111537621D02*
G75*
G02*
X111000000Y-111537621I-3270000J0D01*
G01*
X111000000Y-111537621D02*
G75*
G02*
X117540000Y-111537621I3270000J0D01*
G01*
%TD*%
M02*
