%TF.GenerationSoftware,KiCad,Pcbnew,8.0.1*%
%TF.CreationDate,2024-05-06T17:41:32-07:00*%
%TF.ProjectId,knockControlBoard,6b6e6f63-6b43-46f6-9e74-726f6c426f61,rev?*%
%TF.SameCoordinates,Original*%
%TF.FileFunction,Copper,L2,Bot*%
%TF.FilePolarity,Positive*%
%FSLAX46Y46*%
G04 Gerber Fmt 4.6, Leading zero omitted, Abs format (unit mm)*
G04 Created by KiCad (PCBNEW 8.0.1) date 2024-05-06 17:41:32*
%MOMM*%
%LPD*%
G01*
G04 APERTURE LIST*
G04 Aperture macros list*
%AMRoundRect*
0 Rectangle with rounded corners*
0 $1 Rounding radius*
0 $2 $3 $4 $5 $6 $7 $8 $9 X,Y pos of 4 corners*
0 Add a 4 corners polygon primitive as box body*
4,1,4,$2,$3,$4,$5,$6,$7,$8,$9,$2,$3,0*
0 Add four circle primitives for the rounded corners*
1,1,$1+$1,$2,$3*
1,1,$1+$1,$4,$5*
1,1,$1+$1,$6,$7*
1,1,$1+$1,$8,$9*
0 Add four rect primitives between the rounded corners*
20,1,$1+$1,$2,$3,$4,$5,0*
20,1,$1+$1,$4,$5,$6,$7,0*
20,1,$1+$1,$6,$7,$8,$9,0*
20,1,$1+$1,$8,$9,$2,$3,0*%
G04 Aperture macros list end*
%TA.AperFunction,SMDPad,CuDef*%
%ADD10RoundRect,0.250000X-0.475000X0.337500X-0.475000X-0.337500X0.475000X-0.337500X0.475000X0.337500X0*%
%TD*%
%TA.AperFunction,SMDPad,CuDef*%
%ADD11RoundRect,0.250000X0.475000X-0.337500X0.475000X0.337500X-0.475000X0.337500X-0.475000X-0.337500X0*%
%TD*%
%TA.AperFunction,SMDPad,CuDef*%
%ADD12RoundRect,0.250000X0.337500X0.475000X-0.337500X0.475000X-0.337500X-0.475000X0.337500X-0.475000X0*%
%TD*%
%TA.AperFunction,SMDPad,CuDef*%
%ADD13RoundRect,0.250000X-0.337500X-0.475000X0.337500X-0.475000X0.337500X0.475000X-0.337500X0.475000X0*%
%TD*%
%TA.AperFunction,ComponentPad*%
%ADD14R,1.980000X3.960000*%
%TD*%
%TA.AperFunction,ComponentPad*%
%ADD15O,1.980000X3.960000*%
%TD*%
%TA.AperFunction,ComponentPad*%
%ADD16C,1.397000*%
%TD*%
%TA.AperFunction,ComponentPad*%
%ADD17R,1.700000X1.700000*%
%TD*%
%TA.AperFunction,ComponentPad*%
%ADD18O,1.700000X1.700000*%
%TD*%
%TA.AperFunction,ComponentPad*%
%ADD19R,3.960000X1.980000*%
%TD*%
%TA.AperFunction,ComponentPad*%
%ADD20O,3.960000X1.980000*%
%TD*%
%TA.AperFunction,ComponentPad*%
%ADD21R,1.800000X1.800000*%
%TD*%
%TA.AperFunction,ComponentPad*%
%ADD22C,1.800000*%
%TD*%
%TA.AperFunction,ComponentPad*%
%ADD23C,4.000000*%
%TD*%
%TA.AperFunction,SMDPad,CuDef*%
%ADD24RoundRect,0.237500X-0.237500X0.250000X-0.237500X-0.250000X0.237500X-0.250000X0.237500X0.250000X0*%
%TD*%
%TA.AperFunction,SMDPad,CuDef*%
%ADD25RoundRect,0.200000X-0.275000X0.200000X-0.275000X-0.200000X0.275000X-0.200000X0.275000X0.200000X0*%
%TD*%
%TA.AperFunction,SMDPad,CuDef*%
%ADD26RoundRect,0.200000X0.200000X0.275000X-0.200000X0.275000X-0.200000X-0.275000X0.200000X-0.275000X0*%
%TD*%
%TA.AperFunction,SMDPad,CuDef*%
%ADD27RoundRect,0.237500X0.237500X-0.250000X0.237500X0.250000X-0.237500X0.250000X-0.237500X-0.250000X0*%
%TD*%
%TA.AperFunction,SMDPad,CuDef*%
%ADD28RoundRect,0.250000X0.650000X-1.000000X0.650000X1.000000X-0.650000X1.000000X-0.650000X-1.000000X0*%
%TD*%
%TA.AperFunction,SMDPad,CuDef*%
%ADD29RoundRect,0.062500X-0.117500X-0.062500X0.117500X-0.062500X0.117500X0.062500X-0.117500X0.062500X0*%
%TD*%
%TA.AperFunction,ComponentPad*%
%ADD30R,1.600000X1.600000*%
%TD*%
%TA.AperFunction,ComponentPad*%
%ADD31C,1.600000*%
%TD*%
%TA.AperFunction,ViaPad*%
%ADD32C,0.600000*%
%TD*%
%TA.AperFunction,Conductor*%
%ADD33C,0.500000*%
%TD*%
%TA.AperFunction,Conductor*%
%ADD34C,0.750000*%
%TD*%
%TA.AperFunction,Conductor*%
%ADD35C,1.000000*%
%TD*%
%TA.AperFunction,Conductor*%
%ADD36C,0.250000*%
%TD*%
G04 APERTURE END LIST*
D10*
%TO.P,C12,1*%
%TO.N,GND*%
X112910000Y-91510000D03*
%TO.P,C12,2*%
%TO.N,+12V*%
X112910000Y-93585000D03*
%TD*%
D11*
%TO.P,C11,1*%
%TO.N,GND*%
X109920000Y-106545000D03*
%TO.P,C11,2*%
%TO.N,+5V*%
X109920000Y-104470000D03*
%TD*%
D12*
%TO.P,C5,1*%
%TO.N,GND*%
X115515000Y-105770000D03*
%TO.P,C5,2*%
%TO.N,+5V*%
X113440000Y-105770000D03*
%TD*%
%TO.P,C3,1*%
%TO.N,GND*%
X115715000Y-99280000D03*
%TO.P,C3,2*%
%TO.N,+12V*%
X113640000Y-99280000D03*
%TD*%
D13*
%TO.P,C2,1*%
%TO.N,GND*%
X108395000Y-98100000D03*
%TO.P,C2,2*%
%TO.N,+5V*%
X110470000Y-98100000D03*
%TD*%
D11*
%TO.P,C9,1*%
%TO.N,+5V*%
X113190000Y-73250000D03*
%TO.P,C9,2*%
%TO.N,GND*%
X113190000Y-71175000D03*
%TD*%
%TO.P,C6,1*%
%TO.N,+12V*%
X113230000Y-84640000D03*
%TO.P,C6,2*%
%TO.N,GND*%
X113230000Y-82565000D03*
%TD*%
D14*
%TO.P,J7,1,Pin_1*%
%TO.N,log_out*%
X107140000Y-72010000D03*
D15*
%TO.P,J7,2,Pin_2*%
%TO.N,log_sync*%
X102140000Y-72010000D03*
%TO.P,J7,3,Pin_3*%
%TO.N,retarder_out*%
X97140000Y-72010000D03*
%TO.P,J7,4,Pin_4*%
%TO.N,GND*%
X92140000Y-72010000D03*
%TD*%
D16*
%TO.P,SW2,1,1*%
%TO.N,+5V*%
X87850000Y-92480000D03*
X87850000Y-84860000D03*
%TO.P,SW2,2,2*%
%TO.N,Net-(U2-IN)*%
X92930000Y-92480000D03*
X92930000Y-84860000D03*
%TD*%
%TO.P,SW1,1,1*%
%TO.N,+5V*%
X95590000Y-113960000D03*
X87970000Y-113960000D03*
%TO.P,SW1,2,2*%
%TO.N,Net-(C1-Pad1)*%
X95590000Y-108880000D03*
X87970000Y-108880000D03*
%TD*%
D17*
%TO.P,RV2,1,1*%
%TO.N,unconnected-(RV2-Pad1)*%
X121380000Y-112685000D03*
D18*
%TO.P,RV2,2,2*%
%TO.N,Net-(D2-K)*%
X121380000Y-110145000D03*
%TO.P,RV2,3,3*%
%TO.N,GND*%
X121380000Y-107605000D03*
%TD*%
D17*
%TO.P,RV1,1,1*%
%TO.N,+5V*%
X121480000Y-102270000D03*
D18*
%TO.P,RV1,2,2*%
%TO.N,Net-(U1-IN-)*%
X121480000Y-99730000D03*
%TO.P,RV1,3,3*%
%TO.N,GND*%
X121480000Y-97190000D03*
%TD*%
D19*
%TO.P,J5,1,Pin_1*%
%TO.N,+5V*%
X117110000Y-74545000D03*
D20*
%TO.P,J5,2,Pin_2*%
%TO.N,GND*%
X117110000Y-69545000D03*
%TD*%
D19*
%TO.P,J4,1,Pin_1*%
%TO.N,+12V*%
X117170000Y-86080000D03*
D20*
%TO.P,J4,2,Pin_2*%
%TO.N,GND*%
X117170000Y-81080000D03*
%TD*%
D19*
%TO.P,J1,1,Pin_1*%
%TO.N,Net-(D1-A1)*%
X92740000Y-98190000D03*
D20*
%TO.P,J1,2,Pin_2*%
%TO.N,Net-(J1-Pin_2)*%
X92740000Y-103190000D03*
%TD*%
D21*
%TO.P,D3,1,K*%
%TO.N,GND*%
X108070000Y-113697621D03*
D22*
%TO.P,D3,2,A*%
%TO.N,Net-(D3-A)*%
X108070000Y-111157621D03*
%TD*%
D23*
%TO.P,TP4,1,1*%
%TO.N,retarder_out*%
X103100000Y-104610000D03*
%TD*%
%TO.P,TP3,1,1*%
%TO.N,log_out*%
X105380000Y-89530000D03*
%TD*%
%TO.P,TP2,1,1*%
%TO.N,Net-(U1-IN-)*%
X122160000Y-92240000D03*
%TD*%
%TO.P,TP1,1,1*%
%TO.N,GND*%
X102460000Y-111060000D03*
%TD*%
D24*
%TO.P,R15,1*%
%TO.N,log_sync*%
X101900000Y-90257500D03*
%TO.P,R15,2*%
%TO.N,Net-(U2-IN)*%
X101900000Y-92082500D03*
%TD*%
D25*
%TO.P,R14,1*%
%TO.N,log_out*%
X114370000Y-88350000D03*
%TO.P,R14,2*%
%TO.N,Net-(U7-IN-)*%
X114370000Y-90000000D03*
%TD*%
D26*
%TO.P,R12,1*%
%TO.N,GND*%
X113710000Y-102627621D03*
%TO.P,R12,2*%
%TO.N,Net-(U6-IN-)*%
X112060000Y-102627621D03*
%TD*%
%TO.P,R5,1*%
%TO.N,Net-(U6-IN-)*%
X110660000Y-102617621D03*
%TO.P,R5,2*%
%TO.N,+5V*%
X109010000Y-102617621D03*
%TD*%
D27*
%TO.P,R4,1*%
%TO.N,Net-(R1-Pad2)*%
X99750000Y-99220000D03*
%TO.P,R4,2*%
%TO.N,Net-(C1-Pad1)*%
X99750000Y-97395000D03*
%TD*%
%TO.P,R1,1*%
%TO.N,Net-(J1-Pin_2)*%
X98190000Y-103202500D03*
%TO.P,R1,2*%
%TO.N,Net-(R1-Pad2)*%
X98190000Y-101377500D03*
%TD*%
D28*
%TO.P,D7,1,A1*%
%TO.N,GND*%
X108200000Y-80150000D03*
%TO.P,D7,2,A2*%
%TO.N,log_out*%
X108200000Y-76150000D03*
%TD*%
D29*
%TO.P,D6,1,K*%
%TO.N,Net-(D6-K)*%
X115467500Y-96380000D03*
%TO.P,D6,2,A*%
%TO.N,Net-(D6-A)*%
X114627500Y-96380000D03*
%TD*%
D30*
%TO.P,C10,1*%
%TO.N,Net-(D2-K)*%
X114270000Y-110287621D03*
D31*
%TO.P,C10,2*%
%TO.N,GND*%
X114270000Y-112787621D03*
%TD*%
D32*
%TO.N,+12V*%
X112910000Y-93585000D03*
X112540000Y-98620000D03*
%TO.N,+5V*%
X108030000Y-95520000D03*
X109235000Y-99335000D03*
X113980000Y-106910000D03*
X108900000Y-103710000D03*
%TO.N,Net-(U1-IN-)*%
X115090000Y-102620000D03*
%TO.N,Net-(U6-IN-)*%
X111390000Y-102000000D03*
%TO.N,Net-(U7-IN-)*%
X114700000Y-90950000D03*
%TO.N,Net-(D6-K)*%
X117350000Y-96820000D03*
%TO.N,Net-(D6-A)*%
X114250000Y-95460000D03*
%TO.N,Net-(C1-Pad1)*%
X99150000Y-97370000D03*
%TO.N,Net-(U2-IN)*%
X101900000Y-92082500D03*
%TD*%
D33*
%TO.N,+12V*%
X112840000Y-98620000D02*
X112910000Y-98550000D01*
X112540000Y-98620000D02*
X112840000Y-98620000D01*
X112910000Y-98550000D02*
X112910000Y-93585000D01*
X113640000Y-99280000D02*
X112910000Y-98550000D01*
D34*
X117170000Y-91040000D02*
X114625000Y-93585000D01*
X114625000Y-93585000D02*
X112910000Y-93585000D01*
X117170000Y-86080000D02*
X117170000Y-91040000D01*
D33*
%TO.N,+5V*%
X87850000Y-92480000D02*
X87850000Y-84860000D01*
X85920000Y-94410000D02*
X87850000Y-92480000D01*
X85920000Y-111910000D02*
X85920000Y-94410000D01*
X87970000Y-113960000D02*
X85920000Y-111910000D01*
X100580000Y-107640000D02*
X107470000Y-107640000D01*
X95590000Y-112630000D02*
X100580000Y-107640000D01*
X95590000Y-113960000D02*
X95590000Y-112630000D01*
D35*
X107470000Y-107640000D02*
X107020000Y-107190000D01*
X108270000Y-108440000D02*
X107470000Y-107640000D01*
D33*
X87970000Y-113960000D02*
X95590000Y-113960000D01*
X110470000Y-97960000D02*
X108030000Y-95520000D01*
X110470000Y-98100000D02*
X110470000Y-97960000D01*
X109235000Y-99335000D02*
X109700000Y-98870000D01*
X109700000Y-98870000D02*
X107520000Y-101050000D01*
X110470000Y-98100000D02*
X109700000Y-98870000D01*
X113800000Y-106730000D02*
X113980000Y-106910000D01*
X113440000Y-106730000D02*
X113440000Y-108250000D01*
X113440000Y-106730000D02*
X113800000Y-106730000D01*
X113440000Y-105770000D02*
X113440000Y-106730000D01*
X108790000Y-104470000D02*
X108790000Y-103820000D01*
X108790000Y-104470000D02*
X107590000Y-104470000D01*
X108790000Y-103820000D02*
X108900000Y-103710000D01*
X109920000Y-104470000D02*
X108790000Y-104470000D01*
D35*
X113630000Y-108440000D02*
X108270000Y-108440000D01*
X116060000Y-108440000D02*
X113630000Y-108440000D01*
D33*
X113440000Y-108250000D02*
X113630000Y-108440000D01*
X107590000Y-104470000D02*
X107020000Y-103900000D01*
D35*
X107020000Y-103900000D02*
X107020000Y-102380000D01*
X107020000Y-107190000D02*
X107020000Y-103900000D01*
D33*
X107257621Y-102617621D02*
X107020000Y-102380000D01*
X109010000Y-102617621D02*
X107257621Y-102617621D01*
D35*
X107020000Y-102380000D02*
X107020000Y-101050000D01*
D33*
X107520000Y-101050000D02*
X107020000Y-101050000D01*
D35*
X121480000Y-103020000D02*
X116060000Y-108440000D01*
X121480000Y-102270000D02*
X121480000Y-103020000D01*
X123980000Y-102270000D02*
X121480000Y-102270000D01*
X125410000Y-100840000D02*
X123980000Y-102270000D01*
X124315000Y-74545000D02*
X125410000Y-75640000D01*
X117110000Y-74545000D02*
X124315000Y-74545000D01*
X125410000Y-75640000D02*
X125410000Y-100840000D01*
D34*
%TO.N,+12V*%
X114670000Y-86080000D02*
X113230000Y-84640000D01*
X117170000Y-86080000D02*
X114670000Y-86080000D01*
%TO.N,+5V*%
X114485000Y-74545000D02*
X113190000Y-73250000D01*
X117110000Y-74545000D02*
X114485000Y-74545000D01*
D33*
%TO.N,retarder_out*%
X97140000Y-91460000D02*
X97140000Y-72010000D01*
X103100000Y-104610000D02*
X103100000Y-97420000D01*
X103100000Y-97420000D02*
X97140000Y-91460000D01*
%TO.N,Net-(U1-IN-)*%
X115090000Y-102620000D02*
X117980000Y-99730000D01*
X117980000Y-99730000D02*
X121480000Y-99730000D01*
D36*
%TO.N,Net-(U6-IN-)*%
X112017621Y-102627621D02*
X111390000Y-102000000D01*
X112060000Y-102627621D02*
X112017621Y-102627621D01*
X111277621Y-102000000D02*
X110660000Y-102617621D01*
X111390000Y-102000000D02*
X111277621Y-102000000D01*
D33*
%TO.N,log_out*%
X108630000Y-86370000D02*
X105820000Y-83560000D01*
X110610000Y-88350000D02*
X108630000Y-86370000D01*
X108630000Y-86370000D02*
X108540000Y-86370000D01*
X108540000Y-86370000D02*
X105380000Y-89530000D01*
X105820000Y-83560000D02*
X105820000Y-78530000D01*
X105820000Y-78530000D02*
X108200000Y-76150000D01*
X114370000Y-88350000D02*
X110610000Y-88350000D01*
D36*
%TO.N,Net-(U7-IN-)*%
X114700000Y-90330000D02*
X114370000Y-90000000D01*
X114700000Y-90950000D02*
X114700000Y-90330000D01*
%TO.N,Net-(D6-K)*%
X116910000Y-96380000D02*
X117350000Y-96820000D01*
X115467500Y-96380000D02*
X116910000Y-96380000D01*
%TO.N,Net-(D6-A)*%
X114250000Y-96002500D02*
X114627500Y-96380000D01*
X114250000Y-95460000D02*
X114250000Y-96002500D01*
D33*
%TO.N,Net-(C1-Pad1)*%
X99725000Y-97370000D02*
X99750000Y-97395000D01*
X99150000Y-97370000D02*
X99725000Y-97370000D01*
%TO.N,Net-(R1-Pad2)*%
X98190000Y-100780000D02*
X99750000Y-99220000D01*
X98190000Y-101377500D02*
X98190000Y-100780000D01*
%TO.N,Net-(J1-Pin_2)*%
X92752500Y-103202500D02*
X92740000Y-103190000D01*
X98190000Y-103202500D02*
X92752500Y-103202500D01*
D34*
%TO.N,log_sync*%
X101900000Y-72250000D02*
X102140000Y-72010000D01*
X101900000Y-90257500D02*
X101900000Y-72250000D01*
D35*
%TO.N,log_out*%
X108200000Y-73070000D02*
X107140000Y-72010000D01*
X108200000Y-76150000D02*
X108200000Y-73070000D01*
%TD*%
%TA.AperFunction,Conductor*%
%TO.N,GND*%
G36*
X128442539Y-65490185D02*
G01*
X128488294Y-65542989D01*
X128499500Y-65594500D01*
X128499500Y-115765500D01*
X128479815Y-115832539D01*
X128427011Y-115878294D01*
X128375500Y-115889500D01*
X84404500Y-115889500D01*
X84337461Y-115869815D01*
X84291706Y-115817011D01*
X84280500Y-115765500D01*
X84280500Y-111975892D01*
X85419500Y-111975892D01*
X85436554Y-112039539D01*
X85453608Y-112103187D01*
X85472053Y-112135134D01*
X85519500Y-112217314D01*
X85519502Y-112217316D01*
X86996974Y-113694788D01*
X87030459Y-113756111D01*
X87032696Y-113794623D01*
X87016408Y-113959999D01*
X87034730Y-114146033D01*
X87088998Y-114324930D01*
X87177113Y-114489781D01*
X87177117Y-114489788D01*
X87295708Y-114634291D01*
X87440211Y-114752882D01*
X87440218Y-114752886D01*
X87605069Y-114841001D01*
X87605072Y-114841001D01*
X87605076Y-114841004D01*
X87783963Y-114895269D01*
X87970000Y-114913592D01*
X88156037Y-114895269D01*
X88334924Y-114841004D01*
X88337338Y-114839714D01*
X88499781Y-114752886D01*
X88499787Y-114752883D01*
X88644291Y-114634291D01*
X88749713Y-114505835D01*
X88807459Y-114466501D01*
X88845566Y-114460500D01*
X94714434Y-114460500D01*
X94781473Y-114480185D01*
X94810287Y-114505835D01*
X94915708Y-114634291D01*
X95060211Y-114752882D01*
X95060218Y-114752886D01*
X95225069Y-114841001D01*
X95225072Y-114841001D01*
X95225076Y-114841004D01*
X95403963Y-114895269D01*
X95590000Y-114913592D01*
X95776037Y-114895269D01*
X95954924Y-114841004D01*
X95957338Y-114839714D01*
X96119781Y-114752886D01*
X96119787Y-114752883D01*
X96250676Y-114645465D01*
X106670000Y-114645465D01*
X106676401Y-114704993D01*
X106676403Y-114705000D01*
X106726645Y-114839707D01*
X106726649Y-114839714D01*
X106812809Y-114954808D01*
X106812812Y-114954811D01*
X106927906Y-115040971D01*
X106927913Y-115040975D01*
X107062620Y-115091217D01*
X107062627Y-115091219D01*
X107122155Y-115097620D01*
X107122172Y-115097621D01*
X107820000Y-115097621D01*
X107820000Y-114072898D01*
X107896306Y-114116954D01*
X108010756Y-114147621D01*
X108129244Y-114147621D01*
X108243694Y-114116954D01*
X108320000Y-114072898D01*
X108320000Y-115097621D01*
X109017828Y-115097621D01*
X109017844Y-115097620D01*
X109077372Y-115091219D01*
X109077379Y-115091217D01*
X109212086Y-115040975D01*
X109212093Y-115040971D01*
X109327187Y-114954811D01*
X109327190Y-114954808D01*
X109413350Y-114839714D01*
X109413354Y-114839707D01*
X109463596Y-114705000D01*
X109463598Y-114704993D01*
X109469999Y-114645465D01*
X109470000Y-114645448D01*
X109470000Y-113947621D01*
X108445278Y-113947621D01*
X108489333Y-113871315D01*
X108520000Y-113756865D01*
X108520000Y-113638377D01*
X108489333Y-113523927D01*
X108445278Y-113447621D01*
X109470000Y-113447621D01*
X109470000Y-112749793D01*
X109469999Y-112749776D01*
X109463598Y-112690248D01*
X109463596Y-112690241D01*
X109413354Y-112555534D01*
X109413350Y-112555527D01*
X109327190Y-112440433D01*
X109327187Y-112440430D01*
X109212093Y-112354270D01*
X109212086Y-112354266D01*
X109077379Y-112304024D01*
X109077372Y-112304022D01*
X109017844Y-112297621D01*
X108847305Y-112297621D01*
X108780266Y-112277936D01*
X108734511Y-112225132D01*
X108724567Y-112155974D01*
X108753592Y-112092418D01*
X108763767Y-112081984D01*
X108923870Y-111936030D01*
X108993287Y-111844108D01*
X109052366Y-111765876D01*
X109106338Y-111657485D01*
X109147403Y-111575015D01*
X109147403Y-111575014D01*
X109147405Y-111575010D01*
X109205756Y-111369931D01*
X109225429Y-111157621D01*
X109205756Y-110945311D01*
X109147405Y-110740232D01*
X109147403Y-110740227D01*
X109147403Y-110740226D01*
X109052367Y-110549367D01*
X108923872Y-110379214D01*
X108889722Y-110348082D01*
X108766302Y-110235569D01*
X108585019Y-110123323D01*
X108585017Y-110123322D01*
X108485608Y-110084811D01*
X108386198Y-110046300D01*
X108176610Y-110007121D01*
X107963390Y-110007121D01*
X107753802Y-110046300D01*
X107753799Y-110046300D01*
X107753799Y-110046301D01*
X107554982Y-110123322D01*
X107554980Y-110123323D01*
X107373699Y-110235568D01*
X107216127Y-110379214D01*
X107087632Y-110549367D01*
X106992596Y-110740226D01*
X106992596Y-110740228D01*
X106934244Y-110945310D01*
X106916728Y-111134348D01*
X106914571Y-111157621D01*
X106934244Y-111369931D01*
X106983579Y-111543324D01*
X106992596Y-111575013D01*
X106992596Y-111575015D01*
X107087632Y-111765874D01*
X107216129Y-111936030D01*
X107376233Y-112081984D01*
X107412515Y-112141695D01*
X107410754Y-112211543D01*
X107371510Y-112269350D01*
X107307244Y-112296765D01*
X107292695Y-112297621D01*
X107122155Y-112297621D01*
X107062627Y-112304022D01*
X107062620Y-112304024D01*
X106927913Y-112354266D01*
X106927906Y-112354270D01*
X106812812Y-112440430D01*
X106812809Y-112440433D01*
X106726649Y-112555527D01*
X106726645Y-112555534D01*
X106676403Y-112690241D01*
X106676401Y-112690248D01*
X106670000Y-112749776D01*
X106670000Y-113447621D01*
X107694722Y-113447621D01*
X107650667Y-113523927D01*
X107620000Y-113638377D01*
X107620000Y-113756865D01*
X107650667Y-113871315D01*
X107694722Y-113947621D01*
X106670000Y-113947621D01*
X106670000Y-114645465D01*
X96250676Y-114645465D01*
X96264291Y-114634291D01*
X96382883Y-114489787D01*
X96471004Y-114324924D01*
X96525269Y-114146037D01*
X96543592Y-113960000D01*
X96525269Y-113773963D01*
X96471004Y-113595076D01*
X96471001Y-113595072D01*
X96471001Y-113595069D01*
X96382886Y-113430218D01*
X96382882Y-113430211D01*
X96264291Y-113285708D01*
X96135835Y-113180287D01*
X96096501Y-113122541D01*
X96090500Y-113084434D01*
X96090500Y-112888676D01*
X96110185Y-112821637D01*
X96126819Y-112800995D01*
X97867809Y-111060005D01*
X99955057Y-111060005D01*
X99974807Y-111373942D01*
X99974808Y-111373949D01*
X100033755Y-111682958D01*
X100130963Y-111982132D01*
X100130965Y-111982137D01*
X100264900Y-112266761D01*
X100264903Y-112266767D01*
X100433457Y-112532367D01*
X100433460Y-112532371D01*
X100524286Y-112642160D01*
X101416320Y-111750125D01*
X101506554Y-111874320D01*
X101645680Y-112013446D01*
X101769873Y-112103678D01*
X100874971Y-112998579D01*
X100874972Y-112998581D01*
X101117772Y-113174985D01*
X101117790Y-113174996D01*
X101393447Y-113326540D01*
X101393455Y-113326544D01*
X101685926Y-113442340D01*
X101990620Y-113520573D01*
X101990629Y-113520575D01*
X102302701Y-113559999D01*
X102302715Y-113560000D01*
X102617285Y-113560000D01*
X102617298Y-113559999D01*
X102929370Y-113520575D01*
X102929379Y-113520573D01*
X103234073Y-113442340D01*
X103526544Y-113326544D01*
X103526552Y-113326540D01*
X103802209Y-113174996D01*
X103802219Y-113174990D01*
X104045026Y-112998579D01*
X104045027Y-112998579D01*
X103150126Y-112103678D01*
X103274320Y-112013446D01*
X103413446Y-111874320D01*
X103503678Y-111750126D01*
X104395712Y-112642160D01*
X104486544Y-112532364D01*
X104655096Y-112266767D01*
X104655099Y-112266761D01*
X104789034Y-111982137D01*
X104789036Y-111982132D01*
X104886244Y-111682958D01*
X104945191Y-111373949D01*
X104945192Y-111373942D01*
X104964943Y-111060005D01*
X104964943Y-111059994D01*
X104945192Y-110746057D01*
X104945191Y-110746050D01*
X104886244Y-110437041D01*
X104789036Y-110137867D01*
X104789034Y-110137862D01*
X104655099Y-109853238D01*
X104655096Y-109853232D01*
X104486542Y-109587632D01*
X104486539Y-109587628D01*
X104395712Y-109477838D01*
X103503678Y-110369872D01*
X103413446Y-110245680D01*
X103274320Y-110106554D01*
X103150126Y-110016320D01*
X104045027Y-109121419D01*
X104045026Y-109121417D01*
X103802227Y-108945014D01*
X103802209Y-108945003D01*
X103526552Y-108793459D01*
X103526544Y-108793455D01*
X103234073Y-108677659D01*
X102929379Y-108599426D01*
X102929370Y-108599424D01*
X102617298Y-108560000D01*
X102302701Y-108560000D01*
X101990629Y-108599424D01*
X101990620Y-108599426D01*
X101685926Y-108677659D01*
X101393455Y-108793455D01*
X101393447Y-108793459D01*
X101117787Y-108945004D01*
X101117782Y-108945007D01*
X100874972Y-109121418D01*
X100874971Y-109121419D01*
X101769873Y-110016321D01*
X101645680Y-110106554D01*
X101506554Y-110245680D01*
X101416321Y-110369873D01*
X100524286Y-109477838D01*
X100524285Y-109477838D01*
X100433459Y-109587629D01*
X100433457Y-109587632D01*
X100264903Y-109853232D01*
X100264900Y-109853238D01*
X100130965Y-110137862D01*
X100130963Y-110137867D01*
X100033755Y-110437041D01*
X99974808Y-110746050D01*
X99974807Y-110746057D01*
X99955057Y-111059994D01*
X99955057Y-111060005D01*
X97867809Y-111060005D01*
X100750995Y-108176819D01*
X100812318Y-108143334D01*
X100838676Y-108140500D01*
X106857770Y-108140500D01*
X106924809Y-108160185D01*
X106945451Y-108176819D01*
X107791584Y-109022952D01*
X107791590Y-109022957D01*
X107823832Y-109044499D01*
X107823834Y-109044500D01*
X107914505Y-109105084D01*
X108051087Y-109161658D01*
X108051091Y-109161658D01*
X108051092Y-109161659D01*
X108196079Y-109190500D01*
X113135268Y-109190500D01*
X113202307Y-109210185D01*
X113248062Y-109262989D01*
X113258006Y-109332147D01*
X113238372Y-109383389D01*
X113234033Y-109389882D01*
X113234032Y-109389885D01*
X113219500Y-109462942D01*
X113219500Y-111112299D01*
X113234032Y-111185356D01*
X113234033Y-111185360D01*
X113234034Y-111185361D01*
X113289399Y-111268222D01*
X113372260Y-111323587D01*
X113372264Y-111323588D01*
X113445321Y-111338120D01*
X113445324Y-111338121D01*
X113743072Y-111338121D01*
X113810111Y-111357806D01*
X113855866Y-111410610D01*
X113865810Y-111479768D01*
X113836785Y-111543324D01*
X113795477Y-111574503D01*
X113617516Y-111657487D01*
X113617512Y-111657489D01*
X113544526Y-111708594D01*
X113544526Y-111708595D01*
X114223553Y-112387621D01*
X114217339Y-112387621D01*
X114115606Y-112414880D01*
X114024394Y-112467541D01*
X113949920Y-112542015D01*
X113897259Y-112633227D01*
X113870000Y-112734960D01*
X113870000Y-112741173D01*
X113190974Y-112062147D01*
X113190973Y-112062147D01*
X113139868Y-112135133D01*
X113139866Y-112135137D01*
X113043734Y-112341294D01*
X113043730Y-112341303D01*
X112984860Y-112561010D01*
X112984858Y-112561021D01*
X112965034Y-112787618D01*
X112965034Y-112787623D01*
X112984858Y-113014220D01*
X112984860Y-113014231D01*
X113043730Y-113233938D01*
X113043735Y-113233952D01*
X113139863Y-113440099D01*
X113190974Y-113513093D01*
X113870000Y-112834067D01*
X113870000Y-112840282D01*
X113897259Y-112942015D01*
X113949920Y-113033227D01*
X114024394Y-113107701D01*
X114115606Y-113160362D01*
X114217339Y-113187621D01*
X114223553Y-113187621D01*
X113544526Y-113866646D01*
X113617513Y-113917753D01*
X113617521Y-113917757D01*
X113823668Y-114013885D01*
X113823682Y-114013890D01*
X114043389Y-114072760D01*
X114043400Y-114072762D01*
X114269998Y-114092587D01*
X114270002Y-114092587D01*
X114496599Y-114072762D01*
X114496610Y-114072760D01*
X114716317Y-114013890D01*
X114716331Y-114013885D01*
X114922478Y-113917757D01*
X114995471Y-113866645D01*
X114688504Y-113559678D01*
X120279500Y-113559678D01*
X120294032Y-113632735D01*
X120294033Y-113632739D01*
X120294034Y-113632740D01*
X120349399Y-113715601D01*
X120410028Y-113756111D01*
X120432260Y-113770966D01*
X120432264Y-113770967D01*
X120505321Y-113785499D01*
X120505324Y-113785500D01*
X120505326Y-113785500D01*
X122254676Y-113785500D01*
X122254677Y-113785499D01*
X122327740Y-113770966D01*
X122410601Y-113715601D01*
X122465966Y-113632740D01*
X122480500Y-113559674D01*
X122480500Y-111810326D01*
X122480500Y-111810323D01*
X122480499Y-111810321D01*
X122465967Y-111737264D01*
X122465966Y-111737260D01*
X122446812Y-111708594D01*
X122410601Y-111654399D01*
X122327740Y-111599034D01*
X122327739Y-111599033D01*
X122327735Y-111599032D01*
X122254677Y-111584500D01*
X122254674Y-111584500D01*
X120505326Y-111584500D01*
X120505323Y-111584500D01*
X120432264Y-111599032D01*
X120432260Y-111599033D01*
X120349399Y-111654399D01*
X120294033Y-111737260D01*
X120294032Y-111737264D01*
X120279500Y-111810321D01*
X120279500Y-113559678D01*
X114688504Y-113559678D01*
X114316447Y-113187621D01*
X114322661Y-113187621D01*
X114424394Y-113160362D01*
X114515606Y-113107701D01*
X114590080Y-113033227D01*
X114642741Y-112942015D01*
X114670000Y-112840282D01*
X114670000Y-112834068D01*
X115349024Y-113513092D01*
X115400136Y-113440099D01*
X115496264Y-113233952D01*
X115496269Y-113233938D01*
X115555139Y-113014231D01*
X115555141Y-113014220D01*
X115574966Y-112787623D01*
X115574966Y-112787618D01*
X115555141Y-112561021D01*
X115555139Y-112561010D01*
X115496269Y-112341303D01*
X115496264Y-112341289D01*
X115400136Y-112135142D01*
X115400132Y-112135134D01*
X115349025Y-112062147D01*
X114670000Y-112741172D01*
X114670000Y-112734960D01*
X114642741Y-112633227D01*
X114590080Y-112542015D01*
X114515606Y-112467541D01*
X114424394Y-112414880D01*
X114322661Y-112387621D01*
X114316448Y-112387621D01*
X114995472Y-111708595D01*
X114922480Y-111657485D01*
X114744523Y-111574503D01*
X114692084Y-111528331D01*
X114672932Y-111461137D01*
X114693148Y-111394256D01*
X114746313Y-111348922D01*
X114796928Y-111338121D01*
X115094676Y-111338121D01*
X115094677Y-111338120D01*
X115167740Y-111323587D01*
X115250601Y-111268222D01*
X115305966Y-111185361D01*
X115320500Y-111112295D01*
X115320500Y-109462947D01*
X115320500Y-109462944D01*
X115320499Y-109462942D01*
X115305967Y-109389885D01*
X115305966Y-109389882D01*
X115305966Y-109389881D01*
X115301627Y-109383388D01*
X115280752Y-109316711D01*
X115299238Y-109249331D01*
X115351218Y-109202642D01*
X115404732Y-109190500D01*
X116133920Y-109190500D01*
X116231462Y-109171096D01*
X116278913Y-109161658D01*
X116415495Y-109105084D01*
X116506166Y-109044500D01*
X116506168Y-109044499D01*
X116538409Y-109022957D01*
X116538410Y-109022955D01*
X116538416Y-109022952D01*
X117706368Y-107855000D01*
X120049364Y-107855000D01*
X120106567Y-108068486D01*
X120106570Y-108068492D01*
X120206399Y-108282578D01*
X120341894Y-108476082D01*
X120508917Y-108643105D01*
X120702421Y-108778600D01*
X120916507Y-108878429D01*
X120916516Y-108878433D01*
X120955583Y-108888901D01*
X121015244Y-108925266D01*
X121045773Y-108988113D01*
X121037479Y-109057488D01*
X120992993Y-109111366D01*
X120968284Y-109124302D01*
X120887373Y-109155647D01*
X120887357Y-109155655D01*
X120713960Y-109263017D01*
X120713958Y-109263019D01*
X120563237Y-109400418D01*
X120440327Y-109563178D01*
X120349422Y-109745739D01*
X120349417Y-109745752D01*
X120293602Y-109941917D01*
X120274785Y-110144999D01*
X120274785Y-110145000D01*
X120293602Y-110348082D01*
X120349417Y-110544247D01*
X120349422Y-110544260D01*
X120440327Y-110726821D01*
X120563237Y-110889581D01*
X120713958Y-111026980D01*
X120713960Y-111026982D01*
X120813141Y-111088392D01*
X120887363Y-111134348D01*
X121077544Y-111208024D01*
X121278024Y-111245500D01*
X121278026Y-111245500D01*
X121481974Y-111245500D01*
X121481976Y-111245500D01*
X121682456Y-111208024D01*
X121872637Y-111134348D01*
X122046041Y-111026981D01*
X122196764Y-110889579D01*
X122319673Y-110726821D01*
X122410582Y-110544250D01*
X122466397Y-110348083D01*
X122485215Y-110145000D01*
X122466397Y-109941917D01*
X122410582Y-109745750D01*
X122319673Y-109563179D01*
X122203837Y-109409787D01*
X122196762Y-109400418D01*
X122046041Y-109263019D01*
X122046039Y-109263017D01*
X121872642Y-109155655D01*
X121872635Y-109155651D01*
X121791715Y-109124303D01*
X121736313Y-109081730D01*
X121712723Y-109015963D01*
X121728434Y-108947883D01*
X121778458Y-108899104D01*
X121804417Y-108888901D01*
X121843481Y-108878434D01*
X121843492Y-108878429D01*
X122057578Y-108778600D01*
X122251082Y-108643105D01*
X122418105Y-108476082D01*
X122553600Y-108282578D01*
X122653429Y-108068492D01*
X122653432Y-108068486D01*
X122710636Y-107855000D01*
X121813012Y-107855000D01*
X121845925Y-107797993D01*
X121880000Y-107670826D01*
X121880000Y-107539174D01*
X121845925Y-107412007D01*
X121813012Y-107355000D01*
X122710636Y-107355000D01*
X122710635Y-107354999D01*
X122653432Y-107141513D01*
X122653429Y-107141507D01*
X122553600Y-106927422D01*
X122553599Y-106927420D01*
X122418113Y-106733926D01*
X122418108Y-106733920D01*
X122251082Y-106566894D01*
X122057578Y-106431399D01*
X121843492Y-106331570D01*
X121843486Y-106331567D01*
X121630000Y-106274364D01*
X121630000Y-107171988D01*
X121572993Y-107139075D01*
X121445826Y-107105000D01*
X121314174Y-107105000D01*
X121187007Y-107139075D01*
X121130000Y-107171988D01*
X121130000Y-106274364D01*
X121129999Y-106274364D01*
X120916513Y-106331567D01*
X120916507Y-106331570D01*
X120702422Y-106431399D01*
X120702420Y-106431400D01*
X120508926Y-106566886D01*
X120508920Y-106566891D01*
X120341891Y-106733920D01*
X120341886Y-106733926D01*
X120206400Y-106927420D01*
X120206399Y-106927422D01*
X120106570Y-107141507D01*
X120106567Y-107141513D01*
X120049364Y-107354999D01*
X120049364Y-107355000D01*
X120946988Y-107355000D01*
X120914075Y-107412007D01*
X120880000Y-107539174D01*
X120880000Y-107670826D01*
X120914075Y-107797993D01*
X120946988Y-107855000D01*
X120049364Y-107855000D01*
X117706368Y-107855000D01*
X122062952Y-103498415D01*
X122111599Y-103425609D01*
X122165210Y-103380804D01*
X122214701Y-103370500D01*
X122354676Y-103370500D01*
X122354677Y-103370499D01*
X122427740Y-103355966D01*
X122510601Y-103300601D01*
X122565966Y-103217740D01*
X122580500Y-103144674D01*
X122580500Y-103144500D01*
X122580526Y-103144410D01*
X122581097Y-103138614D01*
X122582196Y-103138722D01*
X122600185Y-103077461D01*
X122652989Y-103031706D01*
X122704500Y-103020500D01*
X124053920Y-103020500D01*
X124151462Y-103001096D01*
X124198913Y-102991658D01*
X124335495Y-102935084D01*
X124388726Y-102899516D01*
X124458416Y-102852952D01*
X125992951Y-101318416D01*
X126075084Y-101195495D01*
X126131658Y-101058913D01*
X126160500Y-100913918D01*
X126160500Y-100766083D01*
X126160500Y-75566082D01*
X126160500Y-75566079D01*
X126131659Y-75421092D01*
X126131658Y-75421091D01*
X126131658Y-75421087D01*
X126075084Y-75284505D01*
X126025358Y-75210084D01*
X126025358Y-75210083D01*
X125992950Y-75161581D01*
X124793421Y-73962052D01*
X124793414Y-73962046D01*
X124719729Y-73912812D01*
X124719729Y-73912813D01*
X124670491Y-73879913D01*
X124533917Y-73823343D01*
X124533907Y-73823340D01*
X124388920Y-73794500D01*
X124388918Y-73794500D01*
X119464500Y-73794500D01*
X119397461Y-73774815D01*
X119351706Y-73722011D01*
X119340500Y-73670500D01*
X119340500Y-73530323D01*
X119340499Y-73530321D01*
X119325967Y-73457264D01*
X119325966Y-73457260D01*
X119270601Y-73374399D01*
X119187740Y-73319034D01*
X119187739Y-73319033D01*
X119187735Y-73319032D01*
X119114677Y-73304500D01*
X119114674Y-73304500D01*
X115105326Y-73304500D01*
X115105323Y-73304500D01*
X115032264Y-73319032D01*
X115032260Y-73319033D01*
X114949399Y-73374399D01*
X114894033Y-73457260D01*
X114894032Y-73457264D01*
X114879500Y-73530321D01*
X114879500Y-73755547D01*
X114859815Y-73822586D01*
X114807011Y-73868341D01*
X114737853Y-73878285D01*
X114674297Y-73849260D01*
X114667819Y-73843228D01*
X114201818Y-73377227D01*
X114168333Y-73315904D01*
X114165499Y-73289546D01*
X114165499Y-72864629D01*
X114165498Y-72864623D01*
X114159091Y-72805016D01*
X114108797Y-72670171D01*
X114108793Y-72670164D01*
X114022547Y-72554955D01*
X114022544Y-72554952D01*
X113907335Y-72468706D01*
X113907329Y-72468703D01*
X113887529Y-72461318D01*
X113831596Y-72419446D01*
X113807179Y-72353982D01*
X113822031Y-72285709D01*
X113871437Y-72236304D01*
X113891860Y-72227430D01*
X113984117Y-72196859D01*
X113984124Y-72196856D01*
X114133345Y-72104815D01*
X114257315Y-71980845D01*
X114349356Y-71831624D01*
X114349358Y-71831619D01*
X114404505Y-71665197D01*
X114404506Y-71665190D01*
X114414999Y-71562486D01*
X114415000Y-71562473D01*
X114415000Y-71425000D01*
X111965001Y-71425000D01*
X111965001Y-71562486D01*
X111975494Y-71665197D01*
X112030641Y-71831619D01*
X112030643Y-71831624D01*
X112122684Y-71980845D01*
X112246654Y-72104815D01*
X112395875Y-72196856D01*
X112395880Y-72196858D01*
X112488140Y-72227430D01*
X112545585Y-72267202D01*
X112572408Y-72331718D01*
X112560093Y-72400494D01*
X112512550Y-72451694D01*
X112492471Y-72461317D01*
X112472674Y-72468701D01*
X112472664Y-72468706D01*
X112357455Y-72554952D01*
X112357452Y-72554955D01*
X112271206Y-72670164D01*
X112271202Y-72670171D01*
X112220910Y-72805013D01*
X112220909Y-72805017D01*
X112214500Y-72864627D01*
X112214500Y-72864634D01*
X112214500Y-72864635D01*
X112214500Y-73635370D01*
X112214501Y-73635376D01*
X112220908Y-73694983D01*
X112271202Y-73829828D01*
X112271206Y-73829835D01*
X112357452Y-73945044D01*
X112357455Y-73945047D01*
X112472664Y-74031293D01*
X112472671Y-74031297D01*
X112517618Y-74048061D01*
X112607517Y-74081591D01*
X112667127Y-74088000D01*
X113092047Y-74087999D01*
X113159086Y-74107683D01*
X113179728Y-74124318D01*
X114086263Y-75030855D01*
X114086267Y-75030858D01*
X114188710Y-75099309D01*
X114188711Y-75099309D01*
X114188715Y-75099312D01*
X114251722Y-75125410D01*
X114302548Y-75146463D01*
X114322597Y-75150451D01*
X114356196Y-75157134D01*
X114423392Y-75170501D01*
X114423394Y-75170501D01*
X114552721Y-75170501D01*
X114552741Y-75170500D01*
X114755500Y-75170500D01*
X114822539Y-75190185D01*
X114868294Y-75242989D01*
X114879500Y-75294500D01*
X114879500Y-75559678D01*
X114894032Y-75632735D01*
X114894033Y-75632739D01*
X114894034Y-75632740D01*
X114949399Y-75715601D01*
X115032260Y-75770966D01*
X115032264Y-75770967D01*
X115105321Y-75785499D01*
X115105324Y-75785500D01*
X115105326Y-75785500D01*
X119114676Y-75785500D01*
X119114677Y-75785499D01*
X119187740Y-75770966D01*
X119270601Y-75715601D01*
X119325966Y-75632740D01*
X119340500Y-75559674D01*
X119340500Y-75419500D01*
X119360185Y-75352461D01*
X119412989Y-75306706D01*
X119464500Y-75295500D01*
X123952770Y-75295500D01*
X124019809Y-75315185D01*
X124040451Y-75331819D01*
X124623181Y-75914549D01*
X124656666Y-75975872D01*
X124659500Y-76002230D01*
X124659500Y-92177522D01*
X124639815Y-92244561D01*
X124639554Y-92244786D01*
X124656507Y-92275399D01*
X124659500Y-92302477D01*
X124659500Y-100477770D01*
X124639815Y-100544809D01*
X124623181Y-100565451D01*
X123705451Y-101483181D01*
X123644128Y-101516666D01*
X123617770Y-101519500D01*
X122704500Y-101519500D01*
X122637461Y-101499815D01*
X122591706Y-101447011D01*
X122581766Y-101401320D01*
X122581097Y-101401386D01*
X122580531Y-101395645D01*
X122580500Y-101395500D01*
X122580500Y-101395323D01*
X122580499Y-101395321D01*
X122565967Y-101322264D01*
X122565966Y-101322260D01*
X122563397Y-101318415D01*
X122510601Y-101239399D01*
X122444893Y-101195495D01*
X122427739Y-101184033D01*
X122427735Y-101184032D01*
X122354677Y-101169500D01*
X122354674Y-101169500D01*
X120605326Y-101169500D01*
X120605323Y-101169500D01*
X120532264Y-101184032D01*
X120532260Y-101184033D01*
X120449399Y-101239399D01*
X120394033Y-101322260D01*
X120394032Y-101322264D01*
X120379500Y-101395321D01*
X120379500Y-103007770D01*
X120359815Y-103074809D01*
X120343181Y-103095451D01*
X116739101Y-106699530D01*
X116677778Y-106733015D01*
X116608086Y-106728031D01*
X116552153Y-106686159D01*
X116527736Y-106620695D01*
X116536785Y-106571705D01*
X116534586Y-106570977D01*
X116592005Y-106397697D01*
X116592006Y-106397690D01*
X116602499Y-106294986D01*
X116602500Y-106294973D01*
X116602500Y-106020000D01*
X115765000Y-106020000D01*
X115765000Y-106994999D01*
X115902472Y-106994999D01*
X115902486Y-106994998D01*
X116005197Y-106984505D01*
X116178477Y-106927086D01*
X116179331Y-106929665D01*
X116235971Y-106921039D01*
X116299767Y-106949533D01*
X116338030Y-107007993D01*
X116338614Y-107077861D01*
X116307030Y-107131601D01*
X115785451Y-107653181D01*
X115724128Y-107686666D01*
X115697770Y-107689500D01*
X114158059Y-107689500D01*
X114091020Y-107669815D01*
X114045265Y-107617011D01*
X114035321Y-107547853D01*
X114064346Y-107484297D01*
X114116702Y-107450650D01*
X114116201Y-107449440D01*
X114122907Y-107446662D01*
X114123124Y-107446523D01*
X114123494Y-107446419D01*
X114206573Y-107412007D01*
X114257625Y-107390861D01*
X114372621Y-107302621D01*
X114460861Y-107187625D01*
X114516330Y-107053709D01*
X114532159Y-106933476D01*
X114560424Y-106869582D01*
X114618748Y-106831111D01*
X114688613Y-106830279D01*
X114720194Y-106844125D01*
X114858375Y-106929356D01*
X114858380Y-106929358D01*
X115024802Y-106984505D01*
X115024809Y-106984506D01*
X115127519Y-106994999D01*
X115264999Y-106994999D01*
X115265000Y-106994998D01*
X115265000Y-104545000D01*
X115765000Y-104545000D01*
X115765000Y-105520000D01*
X116602499Y-105520000D01*
X116602499Y-105245028D01*
X116602498Y-105245013D01*
X116592005Y-105142302D01*
X116536858Y-104975880D01*
X116536856Y-104975875D01*
X116444815Y-104826654D01*
X116320845Y-104702684D01*
X116171624Y-104610643D01*
X116171619Y-104610641D01*
X116005197Y-104555494D01*
X116005190Y-104555493D01*
X115902486Y-104545000D01*
X115765000Y-104545000D01*
X115265000Y-104545000D01*
X115127527Y-104545000D01*
X115127512Y-104545001D01*
X115024802Y-104555494D01*
X114858380Y-104610641D01*
X114858375Y-104610643D01*
X114709154Y-104702684D01*
X114585184Y-104826654D01*
X114493143Y-104975875D01*
X114493142Y-104975878D01*
X114462569Y-105068141D01*
X114422796Y-105125585D01*
X114358280Y-105152408D01*
X114289504Y-105140093D01*
X114238304Y-105092549D01*
X114228681Y-105072468D01*
X114221298Y-105052673D01*
X114221293Y-105052664D01*
X114135047Y-104937455D01*
X114135044Y-104937452D01*
X114019835Y-104851206D01*
X114019828Y-104851202D01*
X113884986Y-104800910D01*
X113884985Y-104800909D01*
X113884983Y-104800909D01*
X113825373Y-104794500D01*
X113825363Y-104794500D01*
X113054629Y-104794500D01*
X113054623Y-104794501D01*
X112995016Y-104800908D01*
X112860171Y-104851202D01*
X112860164Y-104851206D01*
X112744955Y-104937452D01*
X112744952Y-104937455D01*
X112658706Y-105052664D01*
X112658702Y-105052671D01*
X112608408Y-105187517D01*
X112602001Y-105247116D01*
X112602000Y-105247135D01*
X112602000Y-106292870D01*
X112602001Y-106292876D01*
X112608408Y-106352483D01*
X112658702Y-106487328D01*
X112658706Y-106487335D01*
X112744952Y-106602544D01*
X112744954Y-106602546D01*
X112860169Y-106688796D01*
X112860171Y-106688796D01*
X112867952Y-106693046D01*
X112867145Y-106694522D01*
X112914760Y-106730159D01*
X112939183Y-106795621D01*
X112939500Y-106804479D01*
X112939500Y-107565500D01*
X112919815Y-107632539D01*
X112867011Y-107678294D01*
X112815500Y-107689500D01*
X110948023Y-107689500D01*
X110880984Y-107669815D01*
X110835229Y-107617011D01*
X110825285Y-107547853D01*
X110854310Y-107484297D01*
X110860342Y-107477819D01*
X110987315Y-107350845D01*
X111079356Y-107201624D01*
X111079358Y-107201619D01*
X111134505Y-107035197D01*
X111134506Y-107035190D01*
X111144999Y-106932486D01*
X111145000Y-106932473D01*
X111145000Y-106795000D01*
X108695001Y-106795000D01*
X108695001Y-106932486D01*
X108705494Y-107035197D01*
X108760641Y-107201619D01*
X108760643Y-107201624D01*
X108852684Y-107350845D01*
X108979658Y-107477819D01*
X109013143Y-107539142D01*
X109008159Y-107608834D01*
X108966287Y-107664767D01*
X108900823Y-107689184D01*
X108891977Y-107689500D01*
X108632230Y-107689500D01*
X108565191Y-107669815D01*
X108544549Y-107653181D01*
X107944105Y-107052736D01*
X107944084Y-107052717D01*
X107806817Y-106915449D01*
X107773334Y-106854128D01*
X107770500Y-106827770D01*
X107770500Y-105094500D01*
X107790185Y-105027461D01*
X107842989Y-104981706D01*
X107894500Y-104970500D01*
X108724108Y-104970500D01*
X108885521Y-104970500D01*
X108952560Y-104990185D01*
X108998315Y-105042989D01*
X109000979Y-105049419D01*
X109001205Y-105049834D01*
X109087452Y-105165044D01*
X109087455Y-105165047D01*
X109202664Y-105251293D01*
X109202673Y-105251298D01*
X109222468Y-105258681D01*
X109278402Y-105300551D01*
X109302820Y-105366015D01*
X109287969Y-105434288D01*
X109238565Y-105483694D01*
X109218141Y-105492569D01*
X109125878Y-105523142D01*
X109125875Y-105523143D01*
X108976654Y-105615184D01*
X108852684Y-105739154D01*
X108760643Y-105888375D01*
X108760641Y-105888380D01*
X108705494Y-106054802D01*
X108705493Y-106054809D01*
X108695000Y-106157513D01*
X108695000Y-106295000D01*
X111144999Y-106295000D01*
X111144999Y-106157528D01*
X111144998Y-106157513D01*
X111134505Y-106054802D01*
X111079358Y-105888380D01*
X111079356Y-105888375D01*
X110987315Y-105739154D01*
X110863345Y-105615184D01*
X110714124Y-105523143D01*
X110714119Y-105523141D01*
X110621859Y-105492569D01*
X110564414Y-105452796D01*
X110537591Y-105388280D01*
X110549906Y-105319504D01*
X110597449Y-105268304D01*
X110617533Y-105258680D01*
X110637326Y-105251298D01*
X110637331Y-105251296D01*
X110752546Y-105165046D01*
X110838796Y-105049831D01*
X110889091Y-104914983D01*
X110895500Y-104855373D01*
X110895499Y-104084628D01*
X110889091Y-104025017D01*
X110861042Y-103949815D01*
X110838797Y-103890171D01*
X110838793Y-103890164D01*
X110752547Y-103774955D01*
X110752544Y-103774952D01*
X110637335Y-103688706D01*
X110637328Y-103688702D01*
X110502482Y-103638408D01*
X110502483Y-103638408D01*
X110442883Y-103632001D01*
X110442881Y-103632000D01*
X110442873Y-103632000D01*
X110442865Y-103632000D01*
X109546402Y-103632000D01*
X109479363Y-103612315D01*
X109433608Y-103559511D01*
X109431841Y-103555452D01*
X109384372Y-103440851D01*
X109376903Y-103371382D01*
X109408178Y-103308903D01*
X109425290Y-103293636D01*
X109532150Y-103214771D01*
X109612793Y-103105503D01*
X109654147Y-102987320D01*
X109657646Y-102977322D01*
X109657646Y-102977320D01*
X109660500Y-102946890D01*
X110009500Y-102946890D01*
X110012353Y-102977320D01*
X110012353Y-102977322D01*
X110055583Y-103100862D01*
X110057207Y-103105503D01*
X110137850Y-103214771D01*
X110247118Y-103295414D01*
X110289845Y-103310365D01*
X110375299Y-103340267D01*
X110405730Y-103343121D01*
X110405734Y-103343121D01*
X110914270Y-103343121D01*
X110944699Y-103340267D01*
X110944701Y-103340267D01*
X111010109Y-103317379D01*
X111072882Y-103295414D01*
X111182150Y-103214771D01*
X111256541Y-103113973D01*
X111312185Y-103071725D01*
X111381842Y-103066266D01*
X111443391Y-103099333D01*
X111456079Y-103113975D01*
X111473667Y-103137806D01*
X111537850Y-103224771D01*
X111647118Y-103305414D01*
X111681312Y-103317379D01*
X111775299Y-103350267D01*
X111805730Y-103353121D01*
X111805734Y-103353121D01*
X112314270Y-103353121D01*
X112344699Y-103350267D01*
X112344701Y-103350267D01*
X112408790Y-103327840D01*
X112472882Y-103305414D01*
X112582150Y-103224771D01*
X112644259Y-103140615D01*
X112699905Y-103098366D01*
X112769561Y-103092907D01*
X112831111Y-103125974D01*
X112862413Y-103177358D01*
X112866981Y-103192018D01*
X112954927Y-103337498D01*
X113075122Y-103457693D01*
X113220604Y-103545640D01*
X113220603Y-103545640D01*
X113382894Y-103596211D01*
X113382893Y-103596211D01*
X113453408Y-103602619D01*
X113453426Y-103602620D01*
X113960000Y-103602620D01*
X113966581Y-103602620D01*
X114037102Y-103596212D01*
X114037107Y-103596211D01*
X114199396Y-103545639D01*
X114344877Y-103457693D01*
X114465072Y-103337498D01*
X114553017Y-103192020D01*
X114573116Y-103127520D01*
X114611854Y-103069372D01*
X114675879Y-103041398D01*
X114744864Y-103052479D01*
X114766989Y-103066035D01*
X114812373Y-103100860D01*
X114812374Y-103100860D01*
X114812375Y-103100861D01*
X114946291Y-103156330D01*
X115073280Y-103173048D01*
X115089999Y-103175250D01*
X115090000Y-103175250D01*
X115090001Y-103175250D01*
X115104977Y-103173278D01*
X115233709Y-103156330D01*
X115367625Y-103100861D01*
X115482621Y-103012621D01*
X115570861Y-102897625D01*
X115597252Y-102833907D01*
X115624129Y-102793683D01*
X118150994Y-100266819D01*
X118212317Y-100233334D01*
X118238675Y-100230500D01*
X120423056Y-100230500D01*
X120490095Y-100250185D01*
X120534055Y-100299226D01*
X120540326Y-100311821D01*
X120663237Y-100474581D01*
X120813958Y-100611980D01*
X120813960Y-100611982D01*
X120913141Y-100673392D01*
X120987363Y-100719348D01*
X121177544Y-100793024D01*
X121378024Y-100830500D01*
X121378026Y-100830500D01*
X121581974Y-100830500D01*
X121581976Y-100830500D01*
X121782456Y-100793024D01*
X121972637Y-100719348D01*
X122146041Y-100611981D01*
X122296764Y-100474579D01*
X122419673Y-100311821D01*
X122510582Y-100129250D01*
X122566397Y-99933083D01*
X122585215Y-99730000D01*
X122584994Y-99727620D01*
X122566397Y-99526917D01*
X122549248Y-99466646D01*
X122510582Y-99330750D01*
X122507718Y-99324999D01*
X122434180Y-99177313D01*
X122419673Y-99148179D01*
X122340506Y-99043345D01*
X122296762Y-98985418D01*
X122146041Y-98848019D01*
X122146039Y-98848017D01*
X121972642Y-98740655D01*
X121972635Y-98740651D01*
X121891715Y-98709303D01*
X121836313Y-98666730D01*
X121812723Y-98600963D01*
X121828434Y-98532883D01*
X121878458Y-98484104D01*
X121904417Y-98473901D01*
X121943481Y-98463434D01*
X121943492Y-98463429D01*
X122157578Y-98363600D01*
X122351082Y-98228105D01*
X122518105Y-98061082D01*
X122653600Y-97867578D01*
X122753429Y-97653492D01*
X122753432Y-97653486D01*
X122810636Y-97440000D01*
X121913012Y-97440000D01*
X121945925Y-97382993D01*
X121980000Y-97255826D01*
X121980000Y-97124174D01*
X121945925Y-96997007D01*
X121913012Y-96940000D01*
X122810636Y-96940000D01*
X122810635Y-96939999D01*
X122753432Y-96726513D01*
X122753429Y-96726507D01*
X122653600Y-96512422D01*
X122653599Y-96512420D01*
X122518113Y-96318926D01*
X122518108Y-96318920D01*
X122351082Y-96151894D01*
X122157578Y-96016399D01*
X121943492Y-95916570D01*
X121943486Y-95916567D01*
X121730000Y-95859364D01*
X121730000Y-96756988D01*
X121672993Y-96724075D01*
X121545826Y-96690000D01*
X121414174Y-96690000D01*
X121287007Y-96724075D01*
X121230000Y-96756988D01*
X121230000Y-95859364D01*
X121229999Y-95859364D01*
X121016513Y-95916567D01*
X121016507Y-95916570D01*
X120802422Y-96016399D01*
X120802420Y-96016400D01*
X120608926Y-96151886D01*
X120608920Y-96151891D01*
X120441891Y-96318920D01*
X120441886Y-96318926D01*
X120306400Y-96512420D01*
X120306399Y-96512422D01*
X120206570Y-96726507D01*
X120206567Y-96726513D01*
X120149364Y-96939999D01*
X120149364Y-96940000D01*
X121046988Y-96940000D01*
X121014075Y-96997007D01*
X120980000Y-97124174D01*
X120980000Y-97255826D01*
X121014075Y-97382993D01*
X121046988Y-97440000D01*
X120149364Y-97440000D01*
X120206567Y-97653486D01*
X120206570Y-97653492D01*
X120306399Y-97867578D01*
X120441894Y-98061082D01*
X120608917Y-98228105D01*
X120802421Y-98363600D01*
X121016507Y-98463429D01*
X121016516Y-98463433D01*
X121055583Y-98473901D01*
X121115244Y-98510266D01*
X121145773Y-98573113D01*
X121137479Y-98642488D01*
X121092993Y-98696366D01*
X121068284Y-98709302D01*
X120987373Y-98740647D01*
X120987357Y-98740655D01*
X120813960Y-98848017D01*
X120813958Y-98848019D01*
X120663237Y-98985418D01*
X120540326Y-99148178D01*
X120534055Y-99160774D01*
X120486551Y-99212010D01*
X120423056Y-99229500D01*
X117914107Y-99229500D01*
X117786812Y-99263608D01*
X117672686Y-99329500D01*
X117672683Y-99329502D01*
X117579498Y-99422688D01*
X117004050Y-99998134D01*
X116942727Y-100031619D01*
X116873035Y-100026635D01*
X116817102Y-99984763D01*
X116792685Y-99919299D01*
X116793011Y-99897849D01*
X116802499Y-99804983D01*
X116802500Y-99804973D01*
X116802500Y-99530000D01*
X115965000Y-99530000D01*
X115965000Y-100504999D01*
X116102472Y-100504999D01*
X116102484Y-100504998D01*
X116195350Y-100495511D01*
X116264043Y-100508280D01*
X116314928Y-100556161D01*
X116331849Y-100623950D01*
X116309434Y-100690127D01*
X116295634Y-100706550D01*
X114916317Y-102085867D01*
X114876089Y-102112747D01*
X114812377Y-102139137D01*
X114812374Y-102139139D01*
X114763155Y-102176906D01*
X114697985Y-102202100D01*
X114629540Y-102188061D01*
X114579551Y-102139247D01*
X114569284Y-102115420D01*
X114553019Y-102063225D01*
X114465072Y-101917743D01*
X114344877Y-101797548D01*
X114199395Y-101709601D01*
X114199396Y-101709601D01*
X114037105Y-101659030D01*
X114037106Y-101659030D01*
X113966572Y-101652621D01*
X113960000Y-101652621D01*
X113960000Y-103602620D01*
X113453426Y-103602620D01*
X113459999Y-103602619D01*
X113460000Y-103602619D01*
X113460000Y-101652621D01*
X113459999Y-101652620D01*
X113453436Y-101652621D01*
X113453417Y-101652622D01*
X113382897Y-101659029D01*
X113382892Y-101659030D01*
X113220603Y-101709602D01*
X113075122Y-101797548D01*
X112954927Y-101917743D01*
X112866980Y-102063225D01*
X112866979Y-102063226D01*
X112862412Y-102077884D01*
X112823673Y-102136031D01*
X112759647Y-102164003D01*
X112690662Y-102152920D01*
X112644258Y-102114625D01*
X112640110Y-102109005D01*
X112582150Y-102030471D01*
X112472882Y-101949828D01*
X112472880Y-101949827D01*
X112344700Y-101904974D01*
X112314270Y-101902121D01*
X112314266Y-101902121D01*
X112028168Y-101902121D01*
X111961129Y-101882436D01*
X111915374Y-101829632D01*
X111913607Y-101825573D01*
X111882838Y-101751291D01*
X111870861Y-101722375D01*
X111782621Y-101607379D01*
X111667625Y-101519139D01*
X111667624Y-101519138D01*
X111667622Y-101519137D01*
X111533712Y-101463671D01*
X111533710Y-101463670D01*
X111533709Y-101463670D01*
X111407174Y-101447011D01*
X111390001Y-101444750D01*
X111389999Y-101444750D01*
X111246291Y-101463670D01*
X111246287Y-101463671D01*
X111112377Y-101519137D01*
X110997379Y-101607379D01*
X110909139Y-101722375D01*
X110870534Y-101815576D01*
X110826696Y-101869976D01*
X110760402Y-101892042D01*
X110755975Y-101892121D01*
X110405730Y-101892121D01*
X110375300Y-101894974D01*
X110375298Y-101894974D01*
X110247119Y-101939827D01*
X110247117Y-101939828D01*
X110137850Y-102020471D01*
X110057207Y-102129738D01*
X110057206Y-102129740D01*
X110012353Y-102257919D01*
X110012353Y-102257921D01*
X110009500Y-102288351D01*
X110009500Y-102946890D01*
X109660500Y-102946890D01*
X109660500Y-102288351D01*
X109657646Y-102257921D01*
X109657646Y-102257919D01*
X109616081Y-102139137D01*
X109612793Y-102129739D01*
X109532150Y-102020471D01*
X109422882Y-101939828D01*
X109422880Y-101939827D01*
X109294700Y-101894974D01*
X109264270Y-101892121D01*
X109264266Y-101892121D01*
X108755734Y-101892121D01*
X108755730Y-101892121D01*
X108725300Y-101894974D01*
X108725298Y-101894974D01*
X108597119Y-101939827D01*
X108597117Y-101939828D01*
X108487850Y-102020471D01*
X108487848Y-102020472D01*
X108473154Y-102040383D01*
X108456296Y-102063226D01*
X108453692Y-102066754D01*
X108398044Y-102109005D01*
X108353921Y-102117121D01*
X107894500Y-102117121D01*
X107827461Y-102097436D01*
X107781706Y-102044632D01*
X107770500Y-101993121D01*
X107770500Y-101554893D01*
X107790185Y-101487854D01*
X107822261Y-101457272D01*
X107820863Y-101455450D01*
X107827307Y-101450503D01*
X107827314Y-101450500D01*
X109408683Y-99869129D01*
X109448907Y-99842252D01*
X109512625Y-99815861D01*
X109627621Y-99727621D01*
X109715861Y-99612625D01*
X109742252Y-99548907D01*
X109769127Y-99508685D01*
X110100500Y-99177314D01*
X110140356Y-99137456D01*
X110165996Y-99111818D01*
X110227319Y-99078333D01*
X110253677Y-99075499D01*
X110855371Y-99075499D01*
X110855372Y-99075499D01*
X110914983Y-99069091D01*
X111049831Y-99018796D01*
X111165046Y-98932546D01*
X111251296Y-98817331D01*
X111301591Y-98682483D01*
X111308000Y-98622873D01*
X111307999Y-97577128D01*
X111301591Y-97517517D01*
X111300170Y-97513708D01*
X111251297Y-97382671D01*
X111251293Y-97382664D01*
X111165047Y-97267455D01*
X111165044Y-97267452D01*
X111049835Y-97181206D01*
X111049828Y-97181202D01*
X110914982Y-97130908D01*
X110914983Y-97130908D01*
X110855383Y-97124501D01*
X110855381Y-97124500D01*
X110855373Y-97124500D01*
X110855365Y-97124500D01*
X110393676Y-97124500D01*
X110326637Y-97104815D01*
X110305995Y-97088181D01*
X108564131Y-95346317D01*
X108537251Y-95306089D01*
X108510861Y-95242375D01*
X108422621Y-95127379D01*
X108307625Y-95039139D01*
X108307624Y-95039138D01*
X108307622Y-95039137D01*
X108173712Y-94983671D01*
X108173710Y-94983670D01*
X108173709Y-94983670D01*
X108101854Y-94974210D01*
X108030001Y-94964750D01*
X108029999Y-94964750D01*
X107886291Y-94983670D01*
X107886287Y-94983671D01*
X107752377Y-95039137D01*
X107637379Y-95127379D01*
X107549137Y-95242377D01*
X107493671Y-95376287D01*
X107493670Y-95376291D01*
X107474750Y-95519999D01*
X107474750Y-95520000D01*
X107493670Y-95663708D01*
X107493671Y-95663712D01*
X107549137Y-95797622D01*
X107549138Y-95797624D01*
X107549139Y-95797625D01*
X107637379Y-95912621D01*
X107752375Y-96000861D01*
X107816089Y-96027251D01*
X107856317Y-96054131D01*
X108608681Y-96806495D01*
X108642166Y-96867818D01*
X108645000Y-96894176D01*
X108645000Y-98226000D01*
X108625315Y-98293039D01*
X108572511Y-98338794D01*
X108521000Y-98350000D01*
X107307501Y-98350000D01*
X107307501Y-98624986D01*
X107317994Y-98727697D01*
X107373141Y-98894119D01*
X107373143Y-98894124D01*
X107465184Y-99043345D01*
X107589154Y-99167315D01*
X107738375Y-99259356D01*
X107738380Y-99259358D01*
X107904802Y-99314505D01*
X107904809Y-99314506D01*
X108007519Y-99324999D01*
X108237821Y-99324999D01*
X108304861Y-99344683D01*
X108350616Y-99397487D01*
X108360560Y-99466646D01*
X108331535Y-99530201D01*
X108325503Y-99536680D01*
X107506047Y-100356137D01*
X107444724Y-100389622D01*
X107375033Y-100384638D01*
X107370914Y-100383017D01*
X107238917Y-100328343D01*
X107238907Y-100328340D01*
X107093920Y-100299500D01*
X107093918Y-100299500D01*
X106946082Y-100299500D01*
X106946080Y-100299500D01*
X106801092Y-100328340D01*
X106801082Y-100328343D01*
X106664511Y-100384912D01*
X106664498Y-100384919D01*
X106541584Y-100467048D01*
X106541580Y-100467051D01*
X106437051Y-100571580D01*
X106437048Y-100571584D01*
X106354919Y-100694498D01*
X106354912Y-100694511D01*
X106298343Y-100831082D01*
X106298340Y-100831092D01*
X106269500Y-100976079D01*
X106269500Y-107015500D01*
X106249815Y-107082539D01*
X106197011Y-107128294D01*
X106145500Y-107139500D01*
X100514108Y-107139500D01*
X100386812Y-107173608D01*
X100272686Y-107239500D01*
X100272683Y-107239502D01*
X95189502Y-112322683D01*
X95189500Y-112322686D01*
X95123608Y-112436812D01*
X95089500Y-112564108D01*
X95089500Y-113084434D01*
X95069815Y-113151473D01*
X95044165Y-113180287D01*
X94915708Y-113285708D01*
X94810287Y-113414165D01*
X94752541Y-113453499D01*
X94714434Y-113459500D01*
X88845566Y-113459500D01*
X88778527Y-113439815D01*
X88749713Y-113414165D01*
X88644291Y-113285708D01*
X88499788Y-113167117D01*
X88499781Y-113167113D01*
X88334930Y-113078998D01*
X88334924Y-113078996D01*
X88156037Y-113024731D01*
X88156035Y-113024730D01*
X88156033Y-113024730D01*
X87970000Y-113006408D01*
X87804623Y-113022696D01*
X87735977Y-113009677D01*
X87704788Y-112986974D01*
X86456819Y-111739005D01*
X86423334Y-111677682D01*
X86420500Y-111651324D01*
X86420500Y-108880000D01*
X87016408Y-108880000D01*
X87034730Y-109066033D01*
X87034730Y-109066035D01*
X87034731Y-109066037D01*
X87063738Y-109161659D01*
X87088998Y-109244930D01*
X87177113Y-109409781D01*
X87177117Y-109409788D01*
X87295708Y-109554291D01*
X87440211Y-109672882D01*
X87440218Y-109672886D01*
X87605069Y-109761001D01*
X87605072Y-109761001D01*
X87605076Y-109761004D01*
X87783963Y-109815269D01*
X87970000Y-109833592D01*
X88156037Y-109815269D01*
X88334924Y-109761004D01*
X88363463Y-109745750D01*
X88499781Y-109672886D01*
X88499787Y-109672883D01*
X88644291Y-109554291D01*
X88762883Y-109409787D01*
X88847406Y-109251655D01*
X88851001Y-109244930D01*
X88851001Y-109244929D01*
X88851004Y-109244924D01*
X88905269Y-109066037D01*
X88923592Y-108880000D01*
X94636408Y-108880000D01*
X94654730Y-109066033D01*
X94654730Y-109066035D01*
X94654731Y-109066037D01*
X94683738Y-109161659D01*
X94708998Y-109244930D01*
X94797113Y-109409781D01*
X94797117Y-109409788D01*
X94915708Y-109554291D01*
X95060211Y-109672882D01*
X95060218Y-109672886D01*
X95225069Y-109761001D01*
X95225072Y-109761001D01*
X95225076Y-109761004D01*
X95403963Y-109815269D01*
X95590000Y-109833592D01*
X95776037Y-109815269D01*
X95954924Y-109761004D01*
X95983463Y-109745750D01*
X96119781Y-109672886D01*
X96119787Y-109672883D01*
X96264291Y-109554291D01*
X96382883Y-109409787D01*
X96467406Y-109251655D01*
X96471001Y-109244930D01*
X96471001Y-109244929D01*
X96471004Y-109244924D01*
X96525269Y-109066037D01*
X96543592Y-108880000D01*
X96525269Y-108693963D01*
X96471004Y-108515076D01*
X96471001Y-108515072D01*
X96471001Y-108515069D01*
X96382886Y-108350218D01*
X96382882Y-108350211D01*
X96264291Y-108205708D01*
X96119788Y-108087117D01*
X96119781Y-108087113D01*
X95954930Y-107998998D01*
X95954924Y-107998996D01*
X95776037Y-107944731D01*
X95776035Y-107944730D01*
X95776033Y-107944730D01*
X95590000Y-107926408D01*
X95403966Y-107944730D01*
X95225069Y-107998998D01*
X95060218Y-108087113D01*
X95060211Y-108087117D01*
X94915708Y-108205708D01*
X94797117Y-108350211D01*
X94797113Y-108350218D01*
X94708998Y-108515069D01*
X94654730Y-108693966D01*
X94636408Y-108880000D01*
X88923592Y-108880000D01*
X88905269Y-108693963D01*
X88851004Y-108515076D01*
X88851001Y-108515072D01*
X88851001Y-108515069D01*
X88762886Y-108350218D01*
X88762882Y-108350211D01*
X88644291Y-108205708D01*
X88499788Y-108087117D01*
X88499781Y-108087113D01*
X88334930Y-107998998D01*
X88334924Y-107998996D01*
X88156037Y-107944731D01*
X88156035Y-107944730D01*
X88156033Y-107944730D01*
X87970000Y-107926408D01*
X87783966Y-107944730D01*
X87605069Y-107998998D01*
X87440218Y-108087113D01*
X87440211Y-108087117D01*
X87295708Y-108205708D01*
X87177117Y-108350211D01*
X87177113Y-108350218D01*
X87088998Y-108515069D01*
X87034730Y-108693966D01*
X87016408Y-108880000D01*
X86420500Y-108880000D01*
X86420500Y-103287634D01*
X90509500Y-103287634D01*
X90540045Y-103480485D01*
X90600381Y-103666184D01*
X90600382Y-103666187D01*
X90629170Y-103722685D01*
X90669132Y-103801115D01*
X90689031Y-103840167D01*
X90803793Y-103998125D01*
X90803797Y-103998130D01*
X90941869Y-104136202D01*
X90941874Y-104136206D01*
X91079653Y-104236307D01*
X91099836Y-104250971D01*
X91213565Y-104308919D01*
X91273812Y-104339617D01*
X91273815Y-104339618D01*
X91366664Y-104369786D01*
X91459516Y-104399955D01*
X91548835Y-104414101D01*
X91652366Y-104430500D01*
X91652371Y-104430500D01*
X93827634Y-104430500D01*
X93921125Y-104415691D01*
X94020484Y-104399955D01*
X94206187Y-104339617D01*
X94380164Y-104250971D01*
X94538132Y-104136201D01*
X94676201Y-103998132D01*
X94790971Y-103840164D01*
X94826362Y-103770704D01*
X94874337Y-103719909D01*
X94936847Y-103703000D01*
X97468365Y-103703000D01*
X97535404Y-103722685D01*
X97567631Y-103752689D01*
X97584299Y-103774954D01*
X97603884Y-103801116D01*
X97716222Y-103885212D01*
X97789489Y-103912539D01*
X97847700Y-103934251D01*
X97905809Y-103940499D01*
X97905826Y-103940500D01*
X98474174Y-103940500D01*
X98474190Y-103940499D01*
X98532299Y-103934251D01*
X98663778Y-103885212D01*
X98776116Y-103801116D01*
X98860212Y-103688778D01*
X98909251Y-103557299D01*
X98909450Y-103555452D01*
X98915499Y-103499190D01*
X98915500Y-103499173D01*
X98915500Y-102905826D01*
X98915499Y-102905809D01*
X98909251Y-102847700D01*
X98889102Y-102793680D01*
X98860212Y-102716222D01*
X98849565Y-102702000D01*
X98834829Y-102682315D01*
X98776116Y-102603884D01*
X98690559Y-102539836D01*
X98663780Y-102519789D01*
X98663778Y-102519788D01*
X98637144Y-102509854D01*
X98532299Y-102470748D01*
X98474190Y-102464500D01*
X98474174Y-102464500D01*
X97905826Y-102464500D01*
X97905809Y-102464500D01*
X97847700Y-102470748D01*
X97716219Y-102519789D01*
X97636184Y-102579704D01*
X97603884Y-102603884D01*
X97603883Y-102603885D01*
X97603882Y-102603886D01*
X97567631Y-102652311D01*
X97511698Y-102694182D01*
X97468365Y-102702000D01*
X94949585Y-102702000D01*
X94882546Y-102682315D01*
X94839100Y-102634295D01*
X94790971Y-102539836D01*
X94790969Y-102539833D01*
X94790968Y-102539831D01*
X94676206Y-102381874D01*
X94676202Y-102381869D01*
X94538130Y-102243797D01*
X94538125Y-102243793D01*
X94380167Y-102129031D01*
X94380166Y-102129030D01*
X94380164Y-102129029D01*
X94324426Y-102100629D01*
X94206187Y-102040382D01*
X94206184Y-102040381D01*
X94020485Y-101980045D01*
X93827634Y-101949500D01*
X93827629Y-101949500D01*
X91652371Y-101949500D01*
X91652366Y-101949500D01*
X91459514Y-101980045D01*
X91273815Y-102040381D01*
X91273812Y-102040382D01*
X91099832Y-102129031D01*
X90941874Y-102243793D01*
X90941869Y-102243797D01*
X90803797Y-102381869D01*
X90803793Y-102381874D01*
X90689031Y-102539832D01*
X90600382Y-102713812D01*
X90600381Y-102713815D01*
X90540046Y-102899512D01*
X90540045Y-102899512D01*
X90509500Y-103092365D01*
X90509500Y-103287634D01*
X86420500Y-103287634D01*
X86420500Y-101674190D01*
X97464500Y-101674190D01*
X97470748Y-101732299D01*
X97519789Y-101863780D01*
X97543141Y-101894974D01*
X97603884Y-101976116D01*
X97716222Y-102060212D01*
X97808594Y-102094665D01*
X97847700Y-102109251D01*
X97905809Y-102115499D01*
X97905826Y-102115500D01*
X98474174Y-102115500D01*
X98474190Y-102115499D01*
X98532299Y-102109251D01*
X98563976Y-102097436D01*
X98663778Y-102060212D01*
X98776116Y-101976116D01*
X98860212Y-101863778D01*
X98909251Y-101732299D01*
X98911691Y-101709602D01*
X98915499Y-101674190D01*
X98915500Y-101674173D01*
X98915500Y-101080826D01*
X98915499Y-101080809D01*
X98912291Y-101050984D01*
X98909251Y-101022701D01*
X98891862Y-100976079D01*
X98868061Y-100912264D01*
X98863077Y-100842573D01*
X98896560Y-100781252D01*
X99683495Y-99994319D01*
X99744818Y-99960834D01*
X99771176Y-99958000D01*
X100034174Y-99958000D01*
X100034190Y-99957999D01*
X100092299Y-99951751D01*
X100223778Y-99902712D01*
X100336116Y-99818616D01*
X100420212Y-99706278D01*
X100469251Y-99574799D01*
X100475499Y-99516690D01*
X100475500Y-99516673D01*
X100475500Y-98923326D01*
X100475499Y-98923309D01*
X100469251Y-98865200D01*
X100451395Y-98817328D01*
X100420212Y-98733722D01*
X100336116Y-98621384D01*
X100257676Y-98562664D01*
X100223780Y-98537289D01*
X100223778Y-98537288D01*
X100197144Y-98527354D01*
X100092299Y-98488248D01*
X100034190Y-98482000D01*
X100034174Y-98482000D01*
X99465826Y-98482000D01*
X99465809Y-98482000D01*
X99407700Y-98488248D01*
X99276219Y-98537289D01*
X99163884Y-98621384D01*
X99079789Y-98733719D01*
X99030748Y-98865200D01*
X99024500Y-98923309D01*
X99024500Y-99186324D01*
X99004815Y-99253363D01*
X98988181Y-99274005D01*
X97789502Y-100472683D01*
X97789500Y-100472686D01*
X97723608Y-100586812D01*
X97700378Y-100673509D01*
X97664012Y-100733170D01*
X97654916Y-100740680D01*
X97603885Y-100778882D01*
X97519789Y-100891219D01*
X97470748Y-101022700D01*
X97464500Y-101080809D01*
X97464500Y-101674190D01*
X86420500Y-101674190D01*
X86420500Y-99204678D01*
X90509500Y-99204678D01*
X90524032Y-99277735D01*
X90524033Y-99277739D01*
X90524034Y-99277740D01*
X90579399Y-99360601D01*
X90634604Y-99397487D01*
X90662260Y-99415966D01*
X90662264Y-99415967D01*
X90735321Y-99430499D01*
X90735324Y-99430500D01*
X90735326Y-99430500D01*
X94744676Y-99430500D01*
X94744677Y-99430499D01*
X94817740Y-99415966D01*
X94900601Y-99360601D01*
X94955966Y-99277740D01*
X94970500Y-99204674D01*
X94970500Y-97370000D01*
X98594750Y-97370000D01*
X98608219Y-97472309D01*
X98613670Y-97513708D01*
X98613671Y-97513712D01*
X98669137Y-97647622D01*
X98669138Y-97647624D01*
X98669139Y-97647625D01*
X98757379Y-97762621D01*
X98872375Y-97850861D01*
X99006291Y-97906330D01*
X99056845Y-97912985D01*
X99120740Y-97941251D01*
X99139925Y-97961612D01*
X99163880Y-97993612D01*
X99163882Y-97993613D01*
X99163884Y-97993616D01*
X99276222Y-98077712D01*
X99357795Y-98108137D01*
X99407700Y-98126751D01*
X99465809Y-98132999D01*
X99465826Y-98133000D01*
X100034174Y-98133000D01*
X100034190Y-98132999D01*
X100092299Y-98126751D01*
X100108675Y-98120643D01*
X100223778Y-98077712D01*
X100336116Y-97993616D01*
X100420212Y-97881278D01*
X100469251Y-97749799D01*
X100475499Y-97691690D01*
X100475500Y-97691673D01*
X100475500Y-97098326D01*
X100475499Y-97098309D01*
X100469251Y-97040200D01*
X100454665Y-97001094D01*
X100420212Y-96908722D01*
X100336116Y-96796384D01*
X100268612Y-96745851D01*
X100223780Y-96712289D01*
X100223778Y-96712288D01*
X100197144Y-96702354D01*
X100092299Y-96663248D01*
X100034190Y-96657000D01*
X100034174Y-96657000D01*
X99465826Y-96657000D01*
X99465809Y-96657000D01*
X99407700Y-96663248D01*
X99276217Y-96712290D01*
X99163043Y-96797012D01*
X99104920Y-96820684D01*
X99006291Y-96833670D01*
X99006287Y-96833671D01*
X98872377Y-96889137D01*
X98757379Y-96977379D01*
X98669137Y-97092377D01*
X98613671Y-97226287D01*
X98613670Y-97226291D01*
X98594750Y-97370000D01*
X94970500Y-97370000D01*
X94970500Y-97175326D01*
X94970500Y-97175323D01*
X94970499Y-97175321D01*
X94955967Y-97102264D01*
X94955966Y-97102260D01*
X94952867Y-97097622D01*
X94900601Y-97019399D01*
X94817740Y-96964034D01*
X94817739Y-96964033D01*
X94817735Y-96964032D01*
X94744677Y-96949500D01*
X94744674Y-96949500D01*
X90735326Y-96949500D01*
X90735323Y-96949500D01*
X90662264Y-96964032D01*
X90662260Y-96964033D01*
X90579399Y-97019399D01*
X90524033Y-97102260D01*
X90524032Y-97102264D01*
X90509500Y-97175321D01*
X90509500Y-99204678D01*
X86420500Y-99204678D01*
X86420500Y-94668674D01*
X86440185Y-94601635D01*
X86456814Y-94580997D01*
X87584788Y-93453023D01*
X87646109Y-93419540D01*
X87684617Y-93417303D01*
X87850000Y-93433592D01*
X88036037Y-93415269D01*
X88214924Y-93361004D01*
X88379787Y-93272883D01*
X88524291Y-93154291D01*
X88642883Y-93009787D01*
X88696322Y-92909810D01*
X88731001Y-92844930D01*
X88731001Y-92844929D01*
X88731004Y-92844924D01*
X88785269Y-92666037D01*
X88803592Y-92480000D01*
X91976408Y-92480000D01*
X91994730Y-92666033D01*
X91994730Y-92666035D01*
X91994731Y-92666037D01*
X92042567Y-92823730D01*
X92048998Y-92844930D01*
X92137113Y-93009781D01*
X92137117Y-93009788D01*
X92255708Y-93154291D01*
X92400211Y-93272882D01*
X92400218Y-93272886D01*
X92565069Y-93361001D01*
X92565072Y-93361001D01*
X92565076Y-93361004D01*
X92743963Y-93415269D01*
X92930000Y-93433592D01*
X93116037Y-93415269D01*
X93294924Y-93361004D01*
X93459787Y-93272883D01*
X93604291Y-93154291D01*
X93722883Y-93009787D01*
X93776322Y-92909810D01*
X93811001Y-92844930D01*
X93811001Y-92844929D01*
X93811004Y-92844924D01*
X93865269Y-92666037D01*
X93883592Y-92480000D01*
X93865269Y-92293963D01*
X93811004Y-92115076D01*
X93811001Y-92115072D01*
X93811001Y-92115069D01*
X93722886Y-91950218D01*
X93722882Y-91950211D01*
X93604291Y-91805708D01*
X93459788Y-91687117D01*
X93459781Y-91687113D01*
X93294930Y-91598998D01*
X93294924Y-91598996D01*
X93116037Y-91544731D01*
X93116035Y-91544730D01*
X93116033Y-91544730D01*
X92930000Y-91526408D01*
X92743966Y-91544730D01*
X92565069Y-91598998D01*
X92400218Y-91687113D01*
X92400211Y-91687117D01*
X92255708Y-91805708D01*
X92137117Y-91950211D01*
X92137113Y-91950218D01*
X92048998Y-92115069D01*
X91994730Y-92293966D01*
X91976408Y-92480000D01*
X88803592Y-92480000D01*
X88785269Y-92293963D01*
X88731004Y-92115076D01*
X88731001Y-92115072D01*
X88731001Y-92115069D01*
X88642886Y-91950218D01*
X88642882Y-91950211D01*
X88524291Y-91805708D01*
X88395835Y-91700287D01*
X88356501Y-91642541D01*
X88350500Y-91604434D01*
X88350500Y-85735566D01*
X88370185Y-85668527D01*
X88395835Y-85639713D01*
X88524291Y-85534291D01*
X88642883Y-85389787D01*
X88731004Y-85224924D01*
X88785269Y-85046037D01*
X88803592Y-84860000D01*
X91976408Y-84860000D01*
X91994730Y-85046033D01*
X91994730Y-85046035D01*
X91994731Y-85046037D01*
X92000582Y-85065326D01*
X92048998Y-85224930D01*
X92137113Y-85389781D01*
X92137117Y-85389788D01*
X92255708Y-85534291D01*
X92400211Y-85652882D01*
X92400218Y-85652886D01*
X92565069Y-85741001D01*
X92565072Y-85741001D01*
X92565076Y-85741004D01*
X92743963Y-85795269D01*
X92930000Y-85813592D01*
X93116037Y-85795269D01*
X93294924Y-85741004D01*
X93459787Y-85652883D01*
X93604291Y-85534291D01*
X93722883Y-85389787D01*
X93811004Y-85224924D01*
X93865269Y-85046037D01*
X93883592Y-84860000D01*
X93865269Y-84673963D01*
X93811004Y-84495076D01*
X93811001Y-84495072D01*
X93811001Y-84495069D01*
X93722886Y-84330218D01*
X93722882Y-84330211D01*
X93604291Y-84185708D01*
X93459788Y-84067117D01*
X93459781Y-84067113D01*
X93294930Y-83978998D01*
X93294924Y-83978996D01*
X93116037Y-83924731D01*
X93116035Y-83924730D01*
X93116033Y-83924730D01*
X92930000Y-83906408D01*
X92743966Y-83924730D01*
X92565069Y-83978998D01*
X92400218Y-84067113D01*
X92400211Y-84067117D01*
X92255708Y-84185708D01*
X92137117Y-84330211D01*
X92137113Y-84330218D01*
X92048998Y-84495069D01*
X91994730Y-84673966D01*
X91976408Y-84860000D01*
X88803592Y-84860000D01*
X88785269Y-84673963D01*
X88731004Y-84495076D01*
X88731001Y-84495072D01*
X88731001Y-84495069D01*
X88642886Y-84330218D01*
X88642882Y-84330211D01*
X88524291Y-84185708D01*
X88379788Y-84067117D01*
X88379781Y-84067113D01*
X88214930Y-83978998D01*
X88214924Y-83978996D01*
X88036037Y-83924731D01*
X88036035Y-83924730D01*
X88036033Y-83924730D01*
X87850000Y-83906408D01*
X87663966Y-83924730D01*
X87485069Y-83978998D01*
X87320218Y-84067113D01*
X87320211Y-84067117D01*
X87175708Y-84185708D01*
X87057117Y-84330211D01*
X87057113Y-84330218D01*
X86968998Y-84495069D01*
X86914730Y-84673966D01*
X86896408Y-84860000D01*
X86914730Y-85046033D01*
X86914730Y-85046035D01*
X86914731Y-85046037D01*
X86920582Y-85065326D01*
X86968998Y-85224930D01*
X87057113Y-85389781D01*
X87057117Y-85389788D01*
X87175708Y-85534291D01*
X87304165Y-85639713D01*
X87343499Y-85697459D01*
X87349500Y-85735566D01*
X87349500Y-91604434D01*
X87329815Y-91671473D01*
X87304165Y-91700287D01*
X87175708Y-91805708D01*
X87057117Y-91950211D01*
X87057113Y-91950218D01*
X86968998Y-92115069D01*
X86914730Y-92293966D01*
X86896408Y-92479999D01*
X86912696Y-92645376D01*
X86899677Y-92714022D01*
X86876974Y-92745211D01*
X85595244Y-94026940D01*
X85595245Y-94026941D01*
X85519500Y-94102686D01*
X85453608Y-94216812D01*
X85436665Y-94280046D01*
X85419500Y-94344108D01*
X85419500Y-111844108D01*
X85419500Y-111975892D01*
X84280500Y-111975892D01*
X84280500Y-73117265D01*
X90650000Y-73117265D01*
X90686689Y-73348909D01*
X90759164Y-73571965D01*
X90865638Y-73780930D01*
X91003494Y-73970672D01*
X91169327Y-74136505D01*
X91359069Y-74274361D01*
X91568036Y-74380835D01*
X91791089Y-74453310D01*
X91890000Y-74468976D01*
X91890000Y-72620824D01*
X91947485Y-72644636D01*
X92074996Y-72670000D01*
X92205004Y-72670000D01*
X92332515Y-72644636D01*
X92390000Y-72620824D01*
X92390000Y-74468975D01*
X92488909Y-74453310D01*
X92488912Y-74453310D01*
X92711963Y-74380835D01*
X92920930Y-74274361D01*
X93110672Y-74136505D01*
X93276505Y-73970672D01*
X93414361Y-73780930D01*
X93520835Y-73571965D01*
X93593310Y-73348909D01*
X93630000Y-73117265D01*
X93630000Y-73097634D01*
X95899500Y-73097634D01*
X95930045Y-73290485D01*
X95990381Y-73476184D01*
X95990382Y-73476187D01*
X96079031Y-73650167D01*
X96193793Y-73808125D01*
X96193797Y-73808130D01*
X96331869Y-73946202D01*
X96331874Y-73946206D01*
X96448993Y-74031297D01*
X96489836Y-74060971D01*
X96571794Y-74102730D01*
X96622591Y-74150704D01*
X96639500Y-74213215D01*
X96639500Y-91394108D01*
X96639500Y-91525892D01*
X96644548Y-91544730D01*
X96673608Y-91653187D01*
X96684166Y-91671473D01*
X96739500Y-91767314D01*
X96739502Y-91767316D01*
X102563181Y-97590995D01*
X102596666Y-97652318D01*
X102599500Y-97678676D01*
X102599500Y-102314411D01*
X102579815Y-102381450D01*
X102527011Y-102427205D01*
X102515359Y-102431830D01*
X102236919Y-102526349D01*
X101972334Y-102656828D01*
X101727041Y-102820728D01*
X101505241Y-103015241D01*
X101310728Y-103237041D01*
X101146828Y-103482334D01*
X101016349Y-103746919D01*
X100921521Y-104026269D01*
X100921518Y-104026283D01*
X100863968Y-104315609D01*
X100863964Y-104315636D01*
X100844671Y-104609992D01*
X100844671Y-104610007D01*
X100863964Y-104904363D01*
X100863965Y-104904373D01*
X100863966Y-104904380D01*
X100892898Y-105049835D01*
X100921518Y-105193716D01*
X100921521Y-105193730D01*
X101016349Y-105473080D01*
X101146825Y-105737660D01*
X101146829Y-105737667D01*
X101310725Y-105982955D01*
X101505241Y-106204758D01*
X101727044Y-106399274D01*
X101858831Y-106487331D01*
X101972335Y-106563172D01*
X102236923Y-106693652D01*
X102516278Y-106788481D01*
X102805620Y-106846034D01*
X102833888Y-106847886D01*
X103099993Y-106865329D01*
X103100000Y-106865329D01*
X103100007Y-106865329D01*
X103335675Y-106849881D01*
X103394380Y-106846034D01*
X103683722Y-106788481D01*
X103963077Y-106693652D01*
X104227665Y-106563172D01*
X104472957Y-106399273D01*
X104694758Y-106204758D01*
X104889273Y-105982957D01*
X105053172Y-105737665D01*
X105183652Y-105473077D01*
X105278481Y-105193722D01*
X105336034Y-104904380D01*
X105355329Y-104610000D01*
X105355329Y-104609992D01*
X105336035Y-104315636D01*
X105336034Y-104315620D01*
X105278481Y-104026278D01*
X105183652Y-103746923D01*
X105053172Y-103482336D01*
X105051935Y-103480485D01*
X104968735Y-103355967D01*
X104889273Y-103237043D01*
X104846655Y-103188447D01*
X104694758Y-103015241D01*
X104472955Y-102820725D01*
X104227667Y-102656829D01*
X104227660Y-102656825D01*
X103963080Y-102526349D01*
X103684641Y-102431830D01*
X103627487Y-102391641D01*
X103601134Y-102326931D01*
X103600500Y-102314411D01*
X103600500Y-97850000D01*
X107307500Y-97850000D01*
X108145000Y-97850000D01*
X108145000Y-96875000D01*
X108007527Y-96875000D01*
X108007512Y-96875001D01*
X107904802Y-96885494D01*
X107738380Y-96940641D01*
X107738375Y-96940643D01*
X107589154Y-97032684D01*
X107465184Y-97156654D01*
X107373143Y-97305875D01*
X107373141Y-97305880D01*
X107317994Y-97472302D01*
X107317993Y-97472309D01*
X107307500Y-97575013D01*
X107307500Y-97850000D01*
X103600500Y-97850000D01*
X103600500Y-97354110D01*
X103600500Y-97354108D01*
X103566392Y-97226814D01*
X103500500Y-97112686D01*
X103407314Y-97019500D01*
X98767004Y-92379190D01*
X101174500Y-92379190D01*
X101180748Y-92437299D01*
X101216018Y-92531859D01*
X101227420Y-92562430D01*
X101229789Y-92568780D01*
X101254809Y-92602202D01*
X101313884Y-92681116D01*
X101426222Y-92765212D01*
X101509618Y-92796317D01*
X101557700Y-92814251D01*
X101615809Y-92820499D01*
X101615826Y-92820500D01*
X102184174Y-92820500D01*
X102184190Y-92820499D01*
X102242299Y-92814251D01*
X102270571Y-92803706D01*
X102373778Y-92765212D01*
X102486116Y-92681116D01*
X102570212Y-92568778D01*
X102619251Y-92437299D01*
X102625499Y-92379190D01*
X102625500Y-92379173D01*
X102625500Y-91897486D01*
X111685001Y-91897486D01*
X111695494Y-92000197D01*
X111750641Y-92166619D01*
X111750643Y-92166624D01*
X111842684Y-92315845D01*
X111966654Y-92439815D01*
X112115875Y-92531856D01*
X112115880Y-92531858D01*
X112208140Y-92562430D01*
X112265585Y-92602202D01*
X112292408Y-92666718D01*
X112280093Y-92735494D01*
X112232550Y-92786694D01*
X112212471Y-92796317D01*
X112192674Y-92803701D01*
X112192664Y-92803706D01*
X112077455Y-92889952D01*
X112077452Y-92889955D01*
X111991206Y-93005164D01*
X111991202Y-93005171D01*
X111940910Y-93140013D01*
X111940909Y-93140017D01*
X111934500Y-93199627D01*
X111934500Y-93199634D01*
X111934500Y-93199635D01*
X111934500Y-93970370D01*
X111934501Y-93970376D01*
X111940908Y-94029983D01*
X111991202Y-94164828D01*
X111991206Y-94164835D01*
X112077452Y-94280044D01*
X112077455Y-94280047D01*
X112192664Y-94366293D01*
X112192671Y-94366297D01*
X112328833Y-94417082D01*
X112384767Y-94458953D01*
X112409184Y-94524417D01*
X112409500Y-94533264D01*
X112409500Y-97995343D01*
X112389815Y-98062382D01*
X112337011Y-98108137D01*
X112332954Y-98109904D01*
X112262375Y-98139139D01*
X112147379Y-98227379D01*
X112059137Y-98342377D01*
X112003671Y-98476287D01*
X112003670Y-98476291D01*
X111987048Y-98602549D01*
X111984750Y-98620000D01*
X112000634Y-98740652D01*
X112003670Y-98763708D01*
X112003671Y-98763712D01*
X112059137Y-98897622D01*
X112059138Y-98897624D01*
X112059139Y-98897625D01*
X112147379Y-99012621D01*
X112262375Y-99100861D01*
X112396291Y-99156330D01*
X112523280Y-99173048D01*
X112539999Y-99175250D01*
X112540000Y-99175250D01*
X112540001Y-99175250D01*
X112562380Y-99172303D01*
X112661816Y-99159212D01*
X112730849Y-99169977D01*
X112783105Y-99216357D01*
X112802000Y-99282151D01*
X112802000Y-99802870D01*
X112802001Y-99802876D01*
X112808408Y-99862483D01*
X112858702Y-99997328D01*
X112858706Y-99997335D01*
X112944952Y-100112544D01*
X112944955Y-100112547D01*
X113060164Y-100198793D01*
X113060171Y-100198797D01*
X113105118Y-100215561D01*
X113195017Y-100249091D01*
X113254627Y-100255500D01*
X114025372Y-100255499D01*
X114084983Y-100249091D01*
X114219831Y-100198796D01*
X114335046Y-100112546D01*
X114421296Y-99997331D01*
X114428680Y-99977532D01*
X114470550Y-99921598D01*
X114536014Y-99897179D01*
X114604287Y-99912029D01*
X114653694Y-99961433D01*
X114662569Y-99981859D01*
X114693141Y-100074119D01*
X114693143Y-100074124D01*
X114785184Y-100223345D01*
X114909154Y-100347315D01*
X115058375Y-100439356D01*
X115058380Y-100439358D01*
X115224802Y-100494505D01*
X115224809Y-100494506D01*
X115327519Y-100504999D01*
X115464999Y-100504999D01*
X115465000Y-100504998D01*
X115465000Y-98055000D01*
X115965000Y-98055000D01*
X115965000Y-99030000D01*
X116802499Y-99030000D01*
X116802499Y-98755028D01*
X116802498Y-98755013D01*
X116792005Y-98652302D01*
X116736858Y-98485880D01*
X116736856Y-98485875D01*
X116644815Y-98336654D01*
X116520845Y-98212684D01*
X116371624Y-98120643D01*
X116371619Y-98120641D01*
X116205197Y-98065494D01*
X116205190Y-98065493D01*
X116102486Y-98055000D01*
X115965000Y-98055000D01*
X115465000Y-98055000D01*
X115327527Y-98055000D01*
X115327512Y-98055001D01*
X115224802Y-98065494D01*
X115058380Y-98120641D01*
X115058375Y-98120643D01*
X114909154Y-98212684D01*
X114785184Y-98336654D01*
X114693143Y-98485875D01*
X114693142Y-98485878D01*
X114662569Y-98578141D01*
X114622796Y-98635585D01*
X114558280Y-98662408D01*
X114489504Y-98650093D01*
X114438304Y-98602549D01*
X114428681Y-98582468D01*
X114421298Y-98562673D01*
X114421293Y-98562664D01*
X114335047Y-98447455D01*
X114335044Y-98447452D01*
X114219835Y-98361206D01*
X114219828Y-98361202D01*
X114084982Y-98310908D01*
X114084983Y-98310908D01*
X114025383Y-98304501D01*
X114025381Y-98304500D01*
X114025373Y-98304500D01*
X114025365Y-98304500D01*
X113534500Y-98304500D01*
X113467461Y-98284815D01*
X113421706Y-98232011D01*
X113410500Y-98180500D01*
X113410500Y-95460000D01*
X113694750Y-95460000D01*
X113713670Y-95603708D01*
X113713671Y-95603712D01*
X113769137Y-95737622D01*
X113769138Y-95737624D01*
X113769139Y-95737625D01*
X113848876Y-95841540D01*
X113874070Y-95906709D01*
X113874500Y-95917026D01*
X113874500Y-96051939D01*
X113875088Y-96054131D01*
X113875897Y-96057150D01*
X113900090Y-96147438D01*
X113900090Y-96147439D01*
X113900091Y-96147440D01*
X113901236Y-96149422D01*
X113901240Y-96149440D01*
X113901245Y-96149438D01*
X113949526Y-96233063D01*
X113949528Y-96233065D01*
X114167442Y-96450979D01*
X114200927Y-96512302D01*
X114202700Y-96522474D01*
X114203001Y-96524760D01*
X114249650Y-96624799D01*
X114327701Y-96702850D01*
X114427740Y-96749499D01*
X114473321Y-96755500D01*
X114563622Y-96755499D01*
X114563629Y-96755500D01*
X114578064Y-96755500D01*
X114691370Y-96755500D01*
X114691378Y-96755499D01*
X114781680Y-96755499D01*
X114796872Y-96753499D01*
X114827260Y-96749499D01*
X114927299Y-96702850D01*
X114959819Y-96670330D01*
X115021142Y-96636845D01*
X115090834Y-96641829D01*
X115135181Y-96670330D01*
X115167701Y-96702850D01*
X115267740Y-96749499D01*
X115313321Y-96755500D01*
X115403623Y-96755499D01*
X115403630Y-96755500D01*
X115418065Y-96755500D01*
X116677513Y-96755500D01*
X116744552Y-96775185D01*
X116790307Y-96827989D01*
X116800452Y-96863314D01*
X116806430Y-96908719D01*
X116810548Y-96939999D01*
X116813670Y-96963707D01*
X116813671Y-96963712D01*
X116869137Y-97097622D01*
X116869138Y-97097624D01*
X116869139Y-97097625D01*
X116957379Y-97212621D01*
X117072375Y-97300861D01*
X117206291Y-97356330D01*
X117333280Y-97373048D01*
X117349999Y-97375250D01*
X117350000Y-97375250D01*
X117350001Y-97375250D01*
X117364977Y-97373278D01*
X117493709Y-97356330D01*
X117627625Y-97300861D01*
X117742621Y-97212621D01*
X117830861Y-97097625D01*
X117886330Y-96963709D01*
X117905250Y-96820000D01*
X117886330Y-96676291D01*
X117830861Y-96542375D01*
X117742621Y-96427379D01*
X117627625Y-96339139D01*
X117627624Y-96339138D01*
X117627622Y-96339137D01*
X117493712Y-96283671D01*
X117493710Y-96283670D01*
X117493709Y-96283670D01*
X117474590Y-96281152D01*
X117363845Y-96266572D01*
X117299949Y-96238305D01*
X117292351Y-96231314D01*
X117140563Y-96079526D01*
X117140562Y-96079525D01*
X117054938Y-96030090D01*
X117007186Y-96017295D01*
X117007184Y-96017294D01*
X117007182Y-96017293D01*
X116959436Y-96004500D01*
X116959435Y-96004500D01*
X115418065Y-96004500D01*
X115418062Y-96004500D01*
X115313319Y-96004500D01*
X115267743Y-96010500D01*
X115267736Y-96010502D01*
X115167700Y-96057150D01*
X115135181Y-96089670D01*
X115073858Y-96123155D01*
X115004166Y-96118171D01*
X114959819Y-96089670D01*
X114927299Y-96057150D01*
X114916124Y-96051939D01*
X114827260Y-96010501D01*
X114827258Y-96010500D01*
X114827257Y-96010500D01*
X114824968Y-96010199D01*
X114822544Y-96009126D01*
X114818154Y-96007847D01*
X114818325Y-96007259D01*
X114761073Y-95981929D01*
X114753480Y-95974942D01*
X114714539Y-95936001D01*
X114681054Y-95874678D01*
X114686038Y-95804986D01*
X114703841Y-95772836D01*
X114730861Y-95737625D01*
X114786330Y-95603709D01*
X114805250Y-95460000D01*
X114786330Y-95316291D01*
X114730861Y-95182375D01*
X114642621Y-95067379D01*
X114527625Y-94979139D01*
X114527624Y-94979138D01*
X114527622Y-94979137D01*
X114393712Y-94923671D01*
X114393710Y-94923670D01*
X114393709Y-94923670D01*
X114321854Y-94914210D01*
X114250001Y-94904750D01*
X114249999Y-94904750D01*
X114106291Y-94923670D01*
X114106287Y-94923671D01*
X113972377Y-94979137D01*
X113857379Y-95067379D01*
X113769137Y-95182377D01*
X113713671Y-95316287D01*
X113713670Y-95316291D01*
X113694750Y-95459999D01*
X113694750Y-95460000D01*
X113410500Y-95460000D01*
X113410500Y-94533264D01*
X113430185Y-94466225D01*
X113482989Y-94420470D01*
X113491167Y-94417082D01*
X113627328Y-94366297D01*
X113627327Y-94366297D01*
X113627331Y-94366296D01*
X113742546Y-94280046D01*
X113757410Y-94260189D01*
X113813343Y-94218318D01*
X113856677Y-94210500D01*
X114686607Y-94210500D01*
X114747029Y-94198481D01*
X114807452Y-94186463D01*
X114859676Y-94164831D01*
X114921286Y-94139312D01*
X114921289Y-94139309D01*
X114921291Y-94139309D01*
X114976098Y-94102687D01*
X114976100Y-94102685D01*
X115023733Y-94070858D01*
X115110858Y-93983733D01*
X115110858Y-93983731D01*
X115121066Y-93973524D01*
X115121067Y-93973521D01*
X116854583Y-92240007D01*
X119904671Y-92240007D01*
X119923964Y-92534363D01*
X119923965Y-92534373D01*
X119923966Y-92534380D01*
X119969880Y-92765210D01*
X119981518Y-92823716D01*
X119981521Y-92823730D01*
X120076349Y-93103080D01*
X120206825Y-93367660D01*
X120206829Y-93367667D01*
X120370725Y-93612955D01*
X120565241Y-93834758D01*
X120787044Y-94029274D01*
X120951723Y-94139309D01*
X121032335Y-94193172D01*
X121296923Y-94323652D01*
X121576278Y-94418481D01*
X121865620Y-94476034D01*
X121893888Y-94477886D01*
X122159993Y-94495329D01*
X122160000Y-94495329D01*
X122160007Y-94495329D01*
X122395675Y-94479881D01*
X122454380Y-94476034D01*
X122743722Y-94418481D01*
X123023077Y-94323652D01*
X123287665Y-94193172D01*
X123532957Y-94029273D01*
X123754758Y-93834758D01*
X123949273Y-93612957D01*
X124113172Y-93367665D01*
X124243652Y-93103077D01*
X124338481Y-92823722D01*
X124396034Y-92534380D01*
X124411766Y-92294367D01*
X124432600Y-92237474D01*
X124416523Y-92212457D01*
X124411766Y-92185632D01*
X124396035Y-91945636D01*
X124396034Y-91945620D01*
X124338481Y-91656278D01*
X124243652Y-91376923D01*
X124113172Y-91112336D01*
X124106002Y-91101606D01*
X124035104Y-90995499D01*
X123949273Y-90867043D01*
X123806423Y-90704154D01*
X123754758Y-90645241D01*
X123532955Y-90450725D01*
X123287667Y-90286829D01*
X123287660Y-90286825D01*
X123023080Y-90156349D01*
X122743730Y-90061521D01*
X122743724Y-90061519D01*
X122743722Y-90061519D01*
X122454380Y-90003966D01*
X122454373Y-90003965D01*
X122454363Y-90003964D01*
X122160007Y-89984671D01*
X122159993Y-89984671D01*
X121865636Y-90003964D01*
X121865624Y-90003965D01*
X121865620Y-90003966D01*
X121865612Y-90003967D01*
X121865609Y-90003968D01*
X121576283Y-90061518D01*
X121576269Y-90061521D01*
X121296919Y-90156349D01*
X121032334Y-90286828D01*
X120787041Y-90450728D01*
X120565241Y-90645241D01*
X120370728Y-90867041D01*
X120206828Y-91112334D01*
X120076349Y-91376919D01*
X119981521Y-91656269D01*
X119981518Y-91656283D01*
X119923968Y-91945609D01*
X119923964Y-91945636D01*
X119904671Y-92239992D01*
X119904671Y-92240007D01*
X116854583Y-92240007D01*
X117655858Y-91438733D01*
X117724312Y-91336285D01*
X117771463Y-91222451D01*
X117790896Y-91124758D01*
X117795501Y-91101608D01*
X117795501Y-90973283D01*
X117795500Y-90973257D01*
X117795500Y-87444500D01*
X117815185Y-87377461D01*
X117867989Y-87331706D01*
X117919500Y-87320500D01*
X119174676Y-87320500D01*
X119174677Y-87320499D01*
X119247740Y-87305966D01*
X119330601Y-87250601D01*
X119385966Y-87167740D01*
X119400500Y-87094674D01*
X119400500Y-85065326D01*
X119400500Y-85065323D01*
X119400499Y-85065321D01*
X119385967Y-84992264D01*
X119385966Y-84992260D01*
X119330601Y-84909399D01*
X119247740Y-84854034D01*
X119247739Y-84854033D01*
X119247735Y-84854032D01*
X119174677Y-84839500D01*
X119174674Y-84839500D01*
X115165326Y-84839500D01*
X115165323Y-84839500D01*
X115092264Y-84854032D01*
X115092260Y-84854033D01*
X115009399Y-84909399D01*
X114954033Y-84992260D01*
X114954032Y-84992264D01*
X114939500Y-85065321D01*
X114939500Y-85165547D01*
X114919815Y-85232586D01*
X114867011Y-85278341D01*
X114797853Y-85288285D01*
X114734297Y-85259260D01*
X114727819Y-85253228D01*
X114241818Y-84767227D01*
X114208333Y-84705904D01*
X114205499Y-84679546D01*
X114205499Y-84254629D01*
X114205498Y-84254623D01*
X114199091Y-84195016D01*
X114148797Y-84060171D01*
X114148793Y-84060164D01*
X114062547Y-83944955D01*
X114062544Y-83944952D01*
X113947335Y-83858706D01*
X113947329Y-83858703D01*
X113927529Y-83851318D01*
X113871596Y-83809446D01*
X113847179Y-83743982D01*
X113862031Y-83675709D01*
X113911437Y-83626304D01*
X113931860Y-83617430D01*
X114024117Y-83586859D01*
X114024124Y-83586856D01*
X114173345Y-83494815D01*
X114297315Y-83370845D01*
X114389356Y-83221624D01*
X114389358Y-83221619D01*
X114444505Y-83055197D01*
X114444506Y-83055190D01*
X114454999Y-82952486D01*
X114455000Y-82952473D01*
X114455000Y-82815000D01*
X112005001Y-82815000D01*
X112005001Y-82952486D01*
X112015494Y-83055197D01*
X112070641Y-83221619D01*
X112070643Y-83221624D01*
X112162684Y-83370845D01*
X112286654Y-83494815D01*
X112435875Y-83586856D01*
X112435880Y-83586858D01*
X112528140Y-83617430D01*
X112585585Y-83657202D01*
X112612408Y-83721718D01*
X112600093Y-83790494D01*
X112552550Y-83841694D01*
X112532471Y-83851317D01*
X112512674Y-83858701D01*
X112512664Y-83858706D01*
X112397455Y-83944952D01*
X112397452Y-83944955D01*
X112311206Y-84060164D01*
X112311202Y-84060171D01*
X112260910Y-84195013D01*
X112260909Y-84195017D01*
X112254500Y-84254627D01*
X112254500Y-84254634D01*
X112254500Y-84254635D01*
X112254500Y-85025370D01*
X112254501Y-85025376D01*
X112260908Y-85084983D01*
X112311202Y-85219828D01*
X112311206Y-85219835D01*
X112397452Y-85335044D01*
X112397455Y-85335047D01*
X112512664Y-85421293D01*
X112512671Y-85421297D01*
X112557618Y-85438061D01*
X112647517Y-85471591D01*
X112707127Y-85478000D01*
X113132047Y-85477999D01*
X113199086Y-85497683D01*
X113219728Y-85514318D01*
X114271263Y-86565855D01*
X114271267Y-86565858D01*
X114373710Y-86634309D01*
X114373711Y-86634309D01*
X114373715Y-86634312D01*
X114436722Y-86660410D01*
X114487548Y-86681463D01*
X114507597Y-86685451D01*
X114541196Y-86692134D01*
X114608392Y-86705501D01*
X114608394Y-86705501D01*
X114737721Y-86705501D01*
X114737741Y-86705500D01*
X114815500Y-86705500D01*
X114882539Y-86725185D01*
X114928294Y-86777989D01*
X114939500Y-86829500D01*
X114939500Y-87094678D01*
X114954032Y-87167735D01*
X114954033Y-87167739D01*
X114954034Y-87167740D01*
X115009399Y-87250601D01*
X115092260Y-87305966D01*
X115092264Y-87305967D01*
X115165321Y-87320499D01*
X115165324Y-87320500D01*
X115165326Y-87320500D01*
X116420500Y-87320500D01*
X116487539Y-87340185D01*
X116533294Y-87392989D01*
X116544500Y-87444500D01*
X116544500Y-90729547D01*
X116524815Y-90796586D01*
X116508181Y-90817228D01*
X114402229Y-92923181D01*
X114340906Y-92956666D01*
X114314548Y-92959500D01*
X113856677Y-92959500D01*
X113789638Y-92939815D01*
X113757410Y-92909810D01*
X113742546Y-92889954D01*
X113742545Y-92889953D01*
X113742544Y-92889952D01*
X113627335Y-92803706D01*
X113627329Y-92803703D01*
X113607529Y-92796318D01*
X113551596Y-92754446D01*
X113527179Y-92688982D01*
X113542031Y-92620709D01*
X113591437Y-92571304D01*
X113611860Y-92562430D01*
X113704117Y-92531859D01*
X113704124Y-92531856D01*
X113853345Y-92439815D01*
X113977315Y-92315845D01*
X114069356Y-92166624D01*
X114069358Y-92166619D01*
X114124505Y-92000197D01*
X114124506Y-92000190D01*
X114134999Y-91897486D01*
X114135000Y-91897473D01*
X114135000Y-91760000D01*
X111685001Y-91760000D01*
X111685001Y-91897486D01*
X102625500Y-91897486D01*
X102625500Y-91785826D01*
X102625499Y-91785809D01*
X102619251Y-91727700D01*
X102598275Y-91671462D01*
X102570212Y-91596222D01*
X102486116Y-91483884D01*
X102415286Y-91430861D01*
X102373780Y-91399789D01*
X102373778Y-91399788D01*
X102347144Y-91389854D01*
X102242299Y-91350748D01*
X102184190Y-91344500D01*
X102184174Y-91344500D01*
X101615826Y-91344500D01*
X101615809Y-91344500D01*
X101557700Y-91350748D01*
X101426219Y-91399789D01*
X101313884Y-91483884D01*
X101229789Y-91596219D01*
X101180748Y-91727700D01*
X101174500Y-91785809D01*
X101174500Y-92379190D01*
X98767004Y-92379190D01*
X97676819Y-91289005D01*
X97643334Y-91227682D01*
X97640500Y-91201324D01*
X97640500Y-74213215D01*
X97660185Y-74146176D01*
X97708205Y-74102730D01*
X97790164Y-74060971D01*
X97948132Y-73946201D01*
X98086201Y-73808132D01*
X98200971Y-73650164D01*
X98289617Y-73476187D01*
X98349955Y-73290484D01*
X98365691Y-73191125D01*
X98380500Y-73097634D01*
X100899500Y-73097634D01*
X100930045Y-73290485D01*
X100990381Y-73476184D01*
X100990382Y-73476187D01*
X101079031Y-73650167D01*
X101193793Y-73808125D01*
X101193797Y-73808130D01*
X101238181Y-73852514D01*
X101271666Y-73913837D01*
X101274500Y-73940195D01*
X101274500Y-89670222D01*
X101254815Y-89737261D01*
X101249767Y-89744532D01*
X101229790Y-89771217D01*
X101229787Y-89771222D01*
X101180748Y-89902700D01*
X101174500Y-89960809D01*
X101174500Y-90554190D01*
X101180748Y-90612299D01*
X101215009Y-90704154D01*
X101229788Y-90743778D01*
X101313884Y-90856116D01*
X101426222Y-90940212D01*
X101514819Y-90973257D01*
X101557700Y-90989251D01*
X101615809Y-90995499D01*
X101615826Y-90995500D01*
X102184174Y-90995500D01*
X102184190Y-90995499D01*
X102242299Y-90989251D01*
X102373778Y-90940212D01*
X102486116Y-90856116D01*
X102570212Y-90743778D01*
X102619251Y-90612299D01*
X102622704Y-90580184D01*
X102625499Y-90554190D01*
X102625500Y-90554173D01*
X102625500Y-89960826D01*
X102625499Y-89960809D01*
X102619251Y-89902700D01*
X102570212Y-89771222D01*
X102570209Y-89771217D01*
X102550233Y-89744532D01*
X102525816Y-89679068D01*
X102525500Y-89670222D01*
X102525500Y-89530007D01*
X103124671Y-89530007D01*
X103143964Y-89824363D01*
X103143965Y-89824373D01*
X103143966Y-89824380D01*
X103179687Y-90003966D01*
X103201518Y-90113716D01*
X103201521Y-90113730D01*
X103296349Y-90393080D01*
X103426825Y-90657660D01*
X103426829Y-90657667D01*
X103590725Y-90902955D01*
X103785241Y-91124758D01*
X104007044Y-91319274D01*
X104185826Y-91438732D01*
X104252335Y-91483172D01*
X104516923Y-91613652D01*
X104796278Y-91708481D01*
X105085620Y-91766034D01*
X105105149Y-91767314D01*
X105379993Y-91785329D01*
X105380000Y-91785329D01*
X105380007Y-91785329D01*
X105615675Y-91769881D01*
X105674380Y-91766034D01*
X105963722Y-91708481D01*
X106243077Y-91613652D01*
X106507665Y-91483172D01*
X106752957Y-91319273D01*
X106820545Y-91260000D01*
X111685000Y-91260000D01*
X112660000Y-91260000D01*
X113160000Y-91260000D01*
X114182832Y-91260000D01*
X114249871Y-91279685D01*
X114281208Y-91308514D01*
X114302518Y-91336287D01*
X114307379Y-91342621D01*
X114422375Y-91430861D01*
X114422376Y-91430861D01*
X114422377Y-91430862D01*
X114441380Y-91438733D01*
X114556291Y-91486330D01*
X114683280Y-91503048D01*
X114699999Y-91505250D01*
X114700000Y-91505250D01*
X114700001Y-91505250D01*
X114714977Y-91503278D01*
X114843709Y-91486330D01*
X114977625Y-91430861D01*
X115092621Y-91342621D01*
X115180861Y-91227625D01*
X115236330Y-91093709D01*
X115255250Y-90950000D01*
X115236330Y-90806291D01*
X115180861Y-90672375D01*
X115101123Y-90568459D01*
X115075930Y-90503291D01*
X115075500Y-90492974D01*
X115075500Y-90354766D01*
X115082459Y-90313811D01*
X115092646Y-90284699D01*
X115095500Y-90254266D01*
X115095500Y-89745734D01*
X115095387Y-89744532D01*
X115092646Y-89715300D01*
X115092646Y-89715298D01*
X115047793Y-89587119D01*
X115047792Y-89587117D01*
X115005632Y-89529992D01*
X114967150Y-89477850D01*
X114857882Y-89397207D01*
X114857880Y-89397206D01*
X114729700Y-89352353D01*
X114699270Y-89349500D01*
X114699266Y-89349500D01*
X114040734Y-89349500D01*
X114040730Y-89349500D01*
X114010300Y-89352353D01*
X114010298Y-89352353D01*
X113882119Y-89397206D01*
X113882117Y-89397207D01*
X113772850Y-89477850D01*
X113692207Y-89587117D01*
X113692206Y-89587119D01*
X113647353Y-89715298D01*
X113647353Y-89715300D01*
X113644500Y-89745730D01*
X113644500Y-90254269D01*
X113648058Y-90292212D01*
X113645631Y-90292439D01*
X113641531Y-90350335D01*
X113599699Y-90406298D01*
X113534252Y-90430761D01*
X113512718Y-90430441D01*
X113434990Y-90422500D01*
X113160000Y-90422500D01*
X113160000Y-91260000D01*
X112660000Y-91260000D01*
X112660000Y-90422500D01*
X112385029Y-90422500D01*
X112385012Y-90422501D01*
X112282302Y-90432994D01*
X112115880Y-90488141D01*
X112115875Y-90488143D01*
X111966654Y-90580184D01*
X111842684Y-90704154D01*
X111750643Y-90853375D01*
X111750641Y-90853380D01*
X111695494Y-91019802D01*
X111695493Y-91019809D01*
X111685000Y-91122513D01*
X111685000Y-91260000D01*
X106820545Y-91260000D01*
X106974758Y-91124758D01*
X107169273Y-90902957D01*
X107333172Y-90657665D01*
X107463652Y-90393077D01*
X107558481Y-90113722D01*
X107616034Y-89824380D01*
X107623433Y-89711494D01*
X107635329Y-89530007D01*
X107635329Y-89529992D01*
X107616035Y-89235636D01*
X107616034Y-89235620D01*
X107558481Y-88946278D01*
X107463652Y-88666923D01*
X107447761Y-88634699D01*
X107333601Y-88403205D01*
X107321605Y-88334373D01*
X107348726Y-88269982D01*
X107357122Y-88260690D01*
X108497322Y-87120491D01*
X108558641Y-87087009D01*
X108628333Y-87091993D01*
X108672680Y-87120494D01*
X110209500Y-88657314D01*
X110302686Y-88750500D01*
X110416814Y-88816392D01*
X110544108Y-88850500D01*
X113702712Y-88850500D01*
X113769751Y-88870185D01*
X113776345Y-88874730D01*
X113882113Y-88952790D01*
X113882115Y-88952791D01*
X113882118Y-88952793D01*
X113924845Y-88967744D01*
X114010299Y-88997646D01*
X114040730Y-89000500D01*
X114040734Y-89000500D01*
X114699270Y-89000500D01*
X114729699Y-88997646D01*
X114729701Y-88997646D01*
X114793790Y-88975219D01*
X114857882Y-88952793D01*
X114967150Y-88872150D01*
X115047793Y-88762882D01*
X115070219Y-88698790D01*
X115092646Y-88634701D01*
X115092646Y-88634699D01*
X115095500Y-88604269D01*
X115095500Y-88095730D01*
X115092646Y-88065300D01*
X115092646Y-88065298D01*
X115047793Y-87937119D01*
X115047792Y-87937117D01*
X115046408Y-87935242D01*
X114967150Y-87827850D01*
X114857882Y-87747207D01*
X114857880Y-87747206D01*
X114729700Y-87702353D01*
X114699270Y-87699500D01*
X114699266Y-87699500D01*
X114040734Y-87699500D01*
X114040730Y-87699500D01*
X114010300Y-87702353D01*
X114010298Y-87702353D01*
X113882119Y-87747206D01*
X113882113Y-87747209D01*
X113776345Y-87825270D01*
X113710716Y-87849241D01*
X113702712Y-87849500D01*
X110868676Y-87849500D01*
X110801637Y-87829815D01*
X110780995Y-87813181D01*
X106356819Y-83389005D01*
X106323334Y-83327682D01*
X106320500Y-83301324D01*
X106320500Y-82315000D01*
X112005000Y-82315000D01*
X112980000Y-82315000D01*
X112980000Y-81477500D01*
X113480000Y-81477500D01*
X113480000Y-82315000D01*
X114454999Y-82315000D01*
X114454999Y-82177528D01*
X114454998Y-82177513D01*
X114444505Y-82074802D01*
X114389358Y-81908380D01*
X114389356Y-81908375D01*
X114297315Y-81759154D01*
X114173345Y-81635184D01*
X114024124Y-81543143D01*
X114024119Y-81543141D01*
X113857697Y-81487994D01*
X113857690Y-81487993D01*
X113754986Y-81477500D01*
X113480000Y-81477500D01*
X112980000Y-81477500D01*
X112705029Y-81477500D01*
X112705012Y-81477501D01*
X112602302Y-81487994D01*
X112435880Y-81543141D01*
X112435875Y-81543143D01*
X112286654Y-81635184D01*
X112162684Y-81759154D01*
X112070643Y-81908375D01*
X112070641Y-81908380D01*
X112015494Y-82074802D01*
X112015493Y-82074809D01*
X112005000Y-82177513D01*
X112005000Y-82315000D01*
X106320500Y-82315000D01*
X106320500Y-80400000D01*
X106800001Y-80400000D01*
X106800001Y-81199986D01*
X106810494Y-81302697D01*
X106865641Y-81469119D01*
X106865643Y-81469124D01*
X106957684Y-81618345D01*
X107081654Y-81742315D01*
X107230875Y-81834356D01*
X107230880Y-81834358D01*
X107397302Y-81889505D01*
X107397309Y-81889506D01*
X107500019Y-81899999D01*
X107949999Y-81899999D01*
X107950000Y-81899998D01*
X107950000Y-80400000D01*
X108450000Y-80400000D01*
X108450000Y-81899999D01*
X108899972Y-81899999D01*
X108899986Y-81899998D01*
X109002697Y-81889505D01*
X109169119Y-81834358D01*
X109169124Y-81834356D01*
X109318345Y-81742315D01*
X109442315Y-81618345D01*
X109534356Y-81469124D01*
X109534358Y-81469119D01*
X109580458Y-81330000D01*
X114711023Y-81330000D01*
X114726688Y-81428905D01*
X114726688Y-81428906D01*
X114799164Y-81651963D01*
X114905638Y-81860930D01*
X115043494Y-82050672D01*
X115209327Y-82216505D01*
X115399069Y-82354361D01*
X115608034Y-82460835D01*
X115831090Y-82533310D01*
X116062735Y-82570000D01*
X116920000Y-82570000D01*
X116920000Y-81690824D01*
X116977485Y-81714636D01*
X117104996Y-81740000D01*
X117235004Y-81740000D01*
X117362515Y-81714636D01*
X117420000Y-81690824D01*
X117420000Y-82570000D01*
X118277265Y-82570000D01*
X118508909Y-82533310D01*
X118731965Y-82460835D01*
X118940930Y-82354361D01*
X119130672Y-82216505D01*
X119296505Y-82050672D01*
X119434361Y-81860930D01*
X119540835Y-81651963D01*
X119613311Y-81428906D01*
X119613311Y-81428905D01*
X119628977Y-81330000D01*
X117780825Y-81330000D01*
X117804636Y-81272515D01*
X117830000Y-81145004D01*
X117830000Y-81014996D01*
X117804636Y-80887485D01*
X117780825Y-80830000D01*
X119628977Y-80830000D01*
X119613311Y-80731094D01*
X119613311Y-80731093D01*
X119540835Y-80508036D01*
X119434361Y-80299069D01*
X119296505Y-80109327D01*
X119130672Y-79943494D01*
X118940930Y-79805638D01*
X118731965Y-79699164D01*
X118508909Y-79626689D01*
X118277265Y-79590000D01*
X117420000Y-79590000D01*
X117420000Y-80469175D01*
X117362515Y-80445364D01*
X117235004Y-80420000D01*
X117104996Y-80420000D01*
X116977485Y-80445364D01*
X116920000Y-80469175D01*
X116920000Y-79590000D01*
X116062735Y-79590000D01*
X115831090Y-79626689D01*
X115608034Y-79699164D01*
X115399069Y-79805638D01*
X115209327Y-79943494D01*
X115043494Y-80109327D01*
X114905638Y-80299069D01*
X114799164Y-80508036D01*
X114726688Y-80731093D01*
X114726688Y-80731094D01*
X114711023Y-80830000D01*
X116559175Y-80830000D01*
X116535364Y-80887485D01*
X116510000Y-81014996D01*
X116510000Y-81145004D01*
X116535364Y-81272515D01*
X116559175Y-81330000D01*
X114711023Y-81330000D01*
X109580458Y-81330000D01*
X109589505Y-81302697D01*
X109589506Y-81302690D01*
X109599999Y-81199986D01*
X109600000Y-81199973D01*
X109600000Y-80400000D01*
X108450000Y-80400000D01*
X107950000Y-80400000D01*
X106800001Y-80400000D01*
X106320500Y-80400000D01*
X106320500Y-79900000D01*
X106800000Y-79900000D01*
X107950000Y-79900000D01*
X107950000Y-78400000D01*
X108450000Y-78400000D01*
X108450000Y-79900000D01*
X109599999Y-79900000D01*
X109599999Y-79100028D01*
X109599998Y-79100013D01*
X109589505Y-78997302D01*
X109534358Y-78830880D01*
X109534356Y-78830875D01*
X109442315Y-78681654D01*
X109318345Y-78557684D01*
X109169124Y-78465643D01*
X109169119Y-78465641D01*
X109002697Y-78410494D01*
X109002690Y-78410493D01*
X108899986Y-78400000D01*
X108450000Y-78400000D01*
X107950000Y-78400000D01*
X107500028Y-78400000D01*
X107500012Y-78400001D01*
X107397302Y-78410494D01*
X107230880Y-78465641D01*
X107230875Y-78465643D01*
X107081654Y-78557684D01*
X106957684Y-78681654D01*
X106865643Y-78830875D01*
X106865641Y-78830880D01*
X106810494Y-78997302D01*
X106810493Y-78997309D01*
X106800000Y-79100013D01*
X106800000Y-79900000D01*
X106320500Y-79900000D01*
X106320500Y-78788674D01*
X106340185Y-78721635D01*
X106356814Y-78700997D01*
X107374568Y-77683243D01*
X107435889Y-77649760D01*
X107475500Y-77647637D01*
X107502127Y-77650500D01*
X108897872Y-77650499D01*
X108957483Y-77644091D01*
X109092331Y-77593796D01*
X109207546Y-77507546D01*
X109293796Y-77392331D01*
X109344091Y-77257483D01*
X109350500Y-77197873D01*
X109350499Y-75102128D01*
X109344091Y-75042517D01*
X109339742Y-75030858D01*
X109293797Y-74907671D01*
X109293793Y-74907664D01*
X109207547Y-74792455D01*
X109207544Y-74792452D01*
X109092335Y-74706206D01*
X109092328Y-74706202D01*
X109031167Y-74683391D01*
X108975233Y-74641520D01*
X108950816Y-74576056D01*
X108950500Y-74567209D01*
X108950500Y-72996079D01*
X108921659Y-72851092D01*
X108921658Y-72851091D01*
X108921658Y-72851087D01*
X108902574Y-72805013D01*
X108865087Y-72714511D01*
X108865080Y-72714498D01*
X108782952Y-72591585D01*
X108746319Y-72554952D01*
X108678416Y-72487049D01*
X108591861Y-72400494D01*
X108416819Y-72225451D01*
X108383334Y-72164128D01*
X108380500Y-72137770D01*
X108380500Y-70925000D01*
X111965000Y-70925000D01*
X112940000Y-70925000D01*
X112940000Y-70087500D01*
X113440000Y-70087500D01*
X113440000Y-70925000D01*
X114414999Y-70925000D01*
X114414999Y-70787528D01*
X114414998Y-70787513D01*
X114404505Y-70684802D01*
X114349358Y-70518380D01*
X114349356Y-70518375D01*
X114257315Y-70369154D01*
X114133345Y-70245184D01*
X113984124Y-70153143D01*
X113984119Y-70153141D01*
X113817697Y-70097994D01*
X113817690Y-70097993D01*
X113714986Y-70087500D01*
X113440000Y-70087500D01*
X112940000Y-70087500D01*
X112665029Y-70087500D01*
X112665012Y-70087501D01*
X112562302Y-70097994D01*
X112395880Y-70153141D01*
X112395875Y-70153143D01*
X112246654Y-70245184D01*
X112122684Y-70369154D01*
X112030643Y-70518375D01*
X112030641Y-70518380D01*
X111975494Y-70684802D01*
X111975493Y-70684809D01*
X111965000Y-70787513D01*
X111965000Y-70925000D01*
X108380500Y-70925000D01*
X108380500Y-70005323D01*
X108380499Y-70005321D01*
X108365967Y-69932264D01*
X108365966Y-69932260D01*
X108333382Y-69883494D01*
X108310601Y-69849399D01*
X108229186Y-69795000D01*
X114651023Y-69795000D01*
X114666688Y-69893905D01*
X114666688Y-69893906D01*
X114739164Y-70116963D01*
X114845638Y-70325930D01*
X114983494Y-70515672D01*
X115149327Y-70681505D01*
X115339069Y-70819361D01*
X115548034Y-70925835D01*
X115771090Y-70998310D01*
X116002735Y-71035000D01*
X116860000Y-71035000D01*
X116860000Y-70155824D01*
X116917485Y-70179636D01*
X117044996Y-70205000D01*
X117175004Y-70205000D01*
X117302515Y-70179636D01*
X117360000Y-70155824D01*
X117360000Y-71035000D01*
X118217265Y-71035000D01*
X118448909Y-70998310D01*
X118671965Y-70925835D01*
X118880930Y-70819361D01*
X119070672Y-70681505D01*
X119236505Y-70515672D01*
X119374361Y-70325930D01*
X119480835Y-70116963D01*
X119553311Y-69893906D01*
X119553311Y-69893905D01*
X119568977Y-69795000D01*
X117720825Y-69795000D01*
X117744636Y-69737515D01*
X117770000Y-69610004D01*
X117770000Y-69479996D01*
X117744636Y-69352485D01*
X117720825Y-69295000D01*
X119568977Y-69295000D01*
X119553311Y-69196094D01*
X119553311Y-69196093D01*
X119480835Y-68973036D01*
X119374361Y-68764069D01*
X119236505Y-68574327D01*
X119070672Y-68408494D01*
X118880930Y-68270638D01*
X118671965Y-68164164D01*
X118448909Y-68091689D01*
X118217265Y-68055000D01*
X117360000Y-68055000D01*
X117360000Y-68934175D01*
X117302515Y-68910364D01*
X117175004Y-68885000D01*
X117044996Y-68885000D01*
X116917485Y-68910364D01*
X116860000Y-68934175D01*
X116860000Y-68055000D01*
X116002735Y-68055000D01*
X115771090Y-68091689D01*
X115548034Y-68164164D01*
X115339069Y-68270638D01*
X115149327Y-68408494D01*
X114983494Y-68574327D01*
X114845638Y-68764069D01*
X114739164Y-68973036D01*
X114666688Y-69196093D01*
X114666688Y-69196094D01*
X114651023Y-69295000D01*
X116499175Y-69295000D01*
X116475364Y-69352485D01*
X116450000Y-69479996D01*
X116450000Y-69610004D01*
X116475364Y-69737515D01*
X116499175Y-69795000D01*
X114651023Y-69795000D01*
X108229186Y-69795000D01*
X108227740Y-69794034D01*
X108227739Y-69794033D01*
X108227735Y-69794032D01*
X108154677Y-69779500D01*
X108154674Y-69779500D01*
X106125326Y-69779500D01*
X106125323Y-69779500D01*
X106052264Y-69794032D01*
X106052260Y-69794033D01*
X105969399Y-69849399D01*
X105914033Y-69932260D01*
X105914032Y-69932264D01*
X105899500Y-70005321D01*
X105899500Y-74014678D01*
X105914032Y-74087735D01*
X105914033Y-74087739D01*
X105924050Y-74102730D01*
X105969399Y-74170601D01*
X106052260Y-74225966D01*
X106052264Y-74225967D01*
X106125321Y-74240499D01*
X106125324Y-74240500D01*
X106125326Y-74240500D01*
X107325500Y-74240500D01*
X107392539Y-74260185D01*
X107438294Y-74312989D01*
X107449500Y-74364500D01*
X107449500Y-74567209D01*
X107429815Y-74634248D01*
X107377011Y-74680003D01*
X107368833Y-74683391D01*
X107307671Y-74706202D01*
X107307664Y-74706206D01*
X107192455Y-74792452D01*
X107192452Y-74792455D01*
X107106206Y-74907664D01*
X107106202Y-74907671D01*
X107055908Y-75042517D01*
X107049501Y-75102116D01*
X107049501Y-75102123D01*
X107049500Y-75102135D01*
X107049500Y-76541323D01*
X107029815Y-76608362D01*
X107013181Y-76629004D01*
X105495244Y-78146940D01*
X105495245Y-78146941D01*
X105419500Y-78222686D01*
X105353608Y-78336812D01*
X105319500Y-78464108D01*
X105319500Y-83494108D01*
X105319500Y-83625892D01*
X105332848Y-83675709D01*
X105353608Y-83753187D01*
X105375148Y-83790494D01*
X105419500Y-83867314D01*
X105419502Y-83867316D01*
X107789504Y-86237318D01*
X107822989Y-86298641D01*
X107818005Y-86368333D01*
X107789504Y-86412680D01*
X106649318Y-87552866D01*
X106587995Y-87586351D01*
X106518303Y-87581367D01*
X106506793Y-87576397D01*
X106243080Y-87446349D01*
X105963730Y-87351521D01*
X105963724Y-87351519D01*
X105963722Y-87351519D01*
X105674380Y-87293966D01*
X105674373Y-87293965D01*
X105674363Y-87293964D01*
X105380007Y-87274671D01*
X105379993Y-87274671D01*
X105085636Y-87293964D01*
X105085624Y-87293965D01*
X105085620Y-87293966D01*
X105085612Y-87293967D01*
X105085609Y-87293968D01*
X104796283Y-87351518D01*
X104796269Y-87351521D01*
X104516919Y-87446349D01*
X104252334Y-87576828D01*
X104007041Y-87740728D01*
X103785241Y-87935241D01*
X103590728Y-88157041D01*
X103426828Y-88402334D01*
X103296349Y-88666919D01*
X103201521Y-88946269D01*
X103201518Y-88946283D01*
X103143968Y-89235609D01*
X103143964Y-89235636D01*
X103124671Y-89529992D01*
X103124671Y-89530007D01*
X102525500Y-89530007D01*
X102525500Y-74269174D01*
X102545185Y-74202135D01*
X102597989Y-74156380D01*
X102611184Y-74151242D01*
X102616187Y-74149617D01*
X102790164Y-74060971D01*
X102948132Y-73946201D01*
X103086201Y-73808132D01*
X103200971Y-73650164D01*
X103289617Y-73476187D01*
X103349955Y-73290484D01*
X103365691Y-73191125D01*
X103380500Y-73097634D01*
X103380500Y-70922365D01*
X103359141Y-70787513D01*
X103349955Y-70729516D01*
X103289617Y-70543813D01*
X103289617Y-70543812D01*
X103240815Y-70448034D01*
X103200971Y-70369836D01*
X103169072Y-70325930D01*
X103086206Y-70211874D01*
X103086202Y-70211869D01*
X102948130Y-70073797D01*
X102948125Y-70073793D01*
X102790167Y-69959031D01*
X102790166Y-69959030D01*
X102790164Y-69959029D01*
X102734426Y-69930629D01*
X102616187Y-69870382D01*
X102616184Y-69870381D01*
X102430485Y-69810045D01*
X102237634Y-69779500D01*
X102237629Y-69779500D01*
X102042371Y-69779500D01*
X102042366Y-69779500D01*
X101849514Y-69810045D01*
X101663815Y-69870381D01*
X101663812Y-69870382D01*
X101489832Y-69959031D01*
X101331874Y-70073793D01*
X101331869Y-70073797D01*
X101193797Y-70211869D01*
X101193793Y-70211874D01*
X101079031Y-70369832D01*
X100990382Y-70543812D01*
X100990381Y-70543815D01*
X100930045Y-70729514D01*
X100899500Y-70922365D01*
X100899500Y-73097634D01*
X98380500Y-73097634D01*
X98380500Y-70922365D01*
X98359141Y-70787513D01*
X98349955Y-70729516D01*
X98289617Y-70543813D01*
X98289617Y-70543812D01*
X98240815Y-70448034D01*
X98200971Y-70369836D01*
X98169072Y-70325930D01*
X98086206Y-70211874D01*
X98086202Y-70211869D01*
X97948130Y-70073797D01*
X97948125Y-70073793D01*
X97790167Y-69959031D01*
X97790166Y-69959030D01*
X97790164Y-69959029D01*
X97734426Y-69930629D01*
X97616187Y-69870382D01*
X97616184Y-69870381D01*
X97430485Y-69810045D01*
X97237634Y-69779500D01*
X97237629Y-69779500D01*
X97042371Y-69779500D01*
X97042366Y-69779500D01*
X96849514Y-69810045D01*
X96663815Y-69870381D01*
X96663812Y-69870382D01*
X96489832Y-69959031D01*
X96331874Y-70073793D01*
X96331869Y-70073797D01*
X96193797Y-70211869D01*
X96193793Y-70211874D01*
X96079031Y-70369832D01*
X95990382Y-70543812D01*
X95990381Y-70543815D01*
X95930045Y-70729514D01*
X95899500Y-70922365D01*
X95899500Y-73097634D01*
X93630000Y-73097634D01*
X93630000Y-72260000D01*
X92750825Y-72260000D01*
X92774636Y-72202515D01*
X92800000Y-72075004D01*
X92800000Y-71944996D01*
X92774636Y-71817485D01*
X92750825Y-71760000D01*
X93630000Y-71760000D01*
X93630000Y-70902734D01*
X93593310Y-70671090D01*
X93520835Y-70448034D01*
X93414361Y-70239069D01*
X93276505Y-70049327D01*
X93110672Y-69883494D01*
X92920930Y-69745638D01*
X92711963Y-69639164D01*
X92488905Y-69566688D01*
X92390000Y-69551022D01*
X92390000Y-71399175D01*
X92332515Y-71375364D01*
X92205004Y-71350000D01*
X92074996Y-71350000D01*
X91947485Y-71375364D01*
X91890000Y-71399175D01*
X91890000Y-69551022D01*
X91791094Y-69566688D01*
X91791093Y-69566688D01*
X91568036Y-69639164D01*
X91359069Y-69745638D01*
X91169327Y-69883494D01*
X91003494Y-70049327D01*
X90865638Y-70239069D01*
X90759164Y-70448034D01*
X90686689Y-70671090D01*
X90650000Y-70902734D01*
X90650000Y-71760000D01*
X91529175Y-71760000D01*
X91505364Y-71817485D01*
X91480000Y-71944996D01*
X91480000Y-72075004D01*
X91505364Y-72202515D01*
X91529175Y-72260000D01*
X90650000Y-72260000D01*
X90650000Y-73117265D01*
X84280500Y-73117265D01*
X84280500Y-65594500D01*
X84300185Y-65527461D01*
X84352989Y-65481706D01*
X84404500Y-65470500D01*
X128375500Y-65470500D01*
X128442539Y-65490185D01*
G37*
%TD.AperFunction*%
%TD*%
M02*
