M48
; DRILL file {KiCad 8.0.1} date 2024-06-10T18:05:55-0700
; FORMAT={-:-/ absolute / inch / decimal}
; #@! TF.CreationDate,2024-06-10T18:05:55-07:00
; #@! TF.GenerationSoftware,Kicad,Pcbnew,8.0.1
; #@! TF.FileFunction,Plated,1,2,PTH
FMAT,2
INCH
; #@! TA.AperFunction,Plated,PTH,ViaDrill
T1C0.0118
; #@! TA.AperFunction,Plated,PTH,ComponentDrill
T2C0.0315
; #@! TA.AperFunction,Plated,PTH,ComponentDrill
T3C0.0320
; #@! TA.AperFunction,Plated,PTH,ComponentDrill
T4C0.0354
; #@! TA.AperFunction,Plated,PTH,ComponentDrill
T5C0.0394
%
G90
G05
T1
X-0.3634Y-0.4142
X-0.1815Y-0.4184
X-0.0327Y-0.4661
X0.0476Y-0.6752
X0.0665Y-0.5957
X0.0917Y-0.6583
X0.1039Y-0.8244
X0.1181Y-0.4878
X0.1323Y-0.4567
X0.1437Y-0.185
X0.1598Y-0.6075
X0.1602Y-0.6598
X0.1677Y-0.3567
X0.1972Y-0.8037
X0.2358Y-0.3941
X0.2362Y-0.2835
X0.2394Y-0.6146
X0.2457Y-0.6555
X0.2862Y-0.834
X0.2961Y-0.678
X0.3575Y-0.5862
X0.3606Y-0.6626
X0.361Y-0.4366
X0.3646Y-0.8575
X0.3756Y-0.2953
X0.3854Y-0.3902
X0.3902Y-0.8291
X0.3955Y-0.5551
X0.4098Y-0.3902
X0.42Y-0.8587
X0.4362Y-0.685
X0.4382Y-0.7122
X0.4575Y-0.6217
X0.4614Y-0.4689
X0.4768Y-0.3004
X0.5016Y-0.6823
X0.5154Y-0.5394
X0.5323Y-0.3012
X0.5587Y-0.6531
X0.5835Y-0.498
T2
X0.0136Y-0.5441
X0.1136Y-0.5441
T3
X-0.2079Y-0.163
X-0.2079Y-0.363
X0.0921Y-0.163
X0.0921Y-0.363
T4
X0.4106Y-0.2197
X0.5106Y-0.2197
T5
X-0.5728Y-0.6614
X-0.5681Y-0.8594
X-0.561Y-0.2114
X-0.561Y-0.3114
X-0.561Y-0.4114
X-0.561Y-0.5114
X-0.5437Y-0.0031
X-0.3695Y-0.939
X-0.3681Y-0.5512
X-0.3644Y-0.7433
X-0.3563Y-0.2362
X-0.3563Y-0.3362
X-0.3423Y0.0071
X-0.2695Y-0.939
X-0.2681Y-0.5512
X-0.2644Y-0.7433
X-0.2423Y0.0071
X-0.1695Y-0.939
X-0.1681Y-0.5512
X-0.1644Y-0.7433
X0.0Y0.0
X0.0Y-0.9843
X0.1Y0.0
X0.1Y-0.9843
X0.2Y0.0
X0.2Y-0.9843
X0.3Y0.0
X0.3Y-0.9843
X0.4Y0.0
X0.4Y-0.9843
X0.5Y0.0
X0.5Y-0.9843
M30
