%TF.GenerationSoftware,KiCad,Pcbnew,8.0.1*%
%TF.CreationDate,2024-05-25T07:42:12-07:00*%
%TF.ProjectId,knockControlBoard,6b6e6f63-6b43-46f6-9e74-726f6c426f61,rev?*%
%TF.SameCoordinates,Original*%
%TF.FileFunction,Legend,Top*%
%TF.FilePolarity,Positive*%
%FSLAX46Y46*%
G04 Gerber Fmt 4.6, Leading zero omitted, Abs format (unit mm)*
G04 Created by KiCad (PCBNEW 8.0.1) date 2024-05-25 07:42:12*
%MOMM*%
%LPD*%
G01*
G04 APERTURE LIST*
%ADD10C,0.300000*%
%ADD11C,0.150000*%
%ADD12C,0.120000*%
G04 APERTURE END LIST*
D10*
X127960828Y-111875489D02*
X126460828Y-111875489D01*
X127960828Y-111018346D02*
X127103685Y-111661203D01*
X126460828Y-111018346D02*
X127317971Y-111875489D01*
X126960828Y-110375489D02*
X127960828Y-110375489D01*
X127103685Y-110375489D02*
X127032257Y-110304060D01*
X127032257Y-110304060D02*
X126960828Y-110161203D01*
X126960828Y-110161203D02*
X126960828Y-109946917D01*
X126960828Y-109946917D02*
X127032257Y-109804060D01*
X127032257Y-109804060D02*
X127175114Y-109732632D01*
X127175114Y-109732632D02*
X127960828Y-109732632D01*
X127960828Y-108804060D02*
X127889400Y-108946917D01*
X127889400Y-108946917D02*
X127817971Y-109018346D01*
X127817971Y-109018346D02*
X127675114Y-109089774D01*
X127675114Y-109089774D02*
X127246542Y-109089774D01*
X127246542Y-109089774D02*
X127103685Y-109018346D01*
X127103685Y-109018346D02*
X127032257Y-108946917D01*
X127032257Y-108946917D02*
X126960828Y-108804060D01*
X126960828Y-108804060D02*
X126960828Y-108589774D01*
X126960828Y-108589774D02*
X127032257Y-108446917D01*
X127032257Y-108446917D02*
X127103685Y-108375489D01*
X127103685Y-108375489D02*
X127246542Y-108304060D01*
X127246542Y-108304060D02*
X127675114Y-108304060D01*
X127675114Y-108304060D02*
X127817971Y-108375489D01*
X127817971Y-108375489D02*
X127889400Y-108446917D01*
X127889400Y-108446917D02*
X127960828Y-108589774D01*
X127960828Y-108589774D02*
X127960828Y-108804060D01*
X127889400Y-107018346D02*
X127960828Y-107161203D01*
X127960828Y-107161203D02*
X127960828Y-107446917D01*
X127960828Y-107446917D02*
X127889400Y-107589774D01*
X127889400Y-107589774D02*
X127817971Y-107661203D01*
X127817971Y-107661203D02*
X127675114Y-107732631D01*
X127675114Y-107732631D02*
X127246542Y-107732631D01*
X127246542Y-107732631D02*
X127103685Y-107661203D01*
X127103685Y-107661203D02*
X127032257Y-107589774D01*
X127032257Y-107589774D02*
X126960828Y-107446917D01*
X126960828Y-107446917D02*
X126960828Y-107161203D01*
X126960828Y-107161203D02*
X127032257Y-107018346D01*
X127960828Y-106375489D02*
X126460828Y-106375489D01*
X127389400Y-106232632D02*
X127960828Y-105804060D01*
X126960828Y-105804060D02*
X127532257Y-106375489D01*
X127960828Y-104018346D02*
X126460828Y-104018346D01*
X126460828Y-104018346D02*
X127532257Y-103518346D01*
X127532257Y-103518346D02*
X126460828Y-103018346D01*
X126460828Y-103018346D02*
X127960828Y-103018346D01*
X127960828Y-102089774D02*
X127889400Y-102232631D01*
X127889400Y-102232631D02*
X127817971Y-102304060D01*
X127817971Y-102304060D02*
X127675114Y-102375488D01*
X127675114Y-102375488D02*
X127246542Y-102375488D01*
X127246542Y-102375488D02*
X127103685Y-102304060D01*
X127103685Y-102304060D02*
X127032257Y-102232631D01*
X127032257Y-102232631D02*
X126960828Y-102089774D01*
X126960828Y-102089774D02*
X126960828Y-101875488D01*
X126960828Y-101875488D02*
X127032257Y-101732631D01*
X127032257Y-101732631D02*
X127103685Y-101661203D01*
X127103685Y-101661203D02*
X127246542Y-101589774D01*
X127246542Y-101589774D02*
X127675114Y-101589774D01*
X127675114Y-101589774D02*
X127817971Y-101661203D01*
X127817971Y-101661203D02*
X127889400Y-101732631D01*
X127889400Y-101732631D02*
X127960828Y-101875488D01*
X127960828Y-101875488D02*
X127960828Y-102089774D01*
X126960828Y-100946917D02*
X127960828Y-100946917D01*
X127103685Y-100946917D02*
X127032257Y-100875488D01*
X127032257Y-100875488D02*
X126960828Y-100732631D01*
X126960828Y-100732631D02*
X126960828Y-100518345D01*
X126960828Y-100518345D02*
X127032257Y-100375488D01*
X127032257Y-100375488D02*
X127175114Y-100304060D01*
X127175114Y-100304060D02*
X127960828Y-100304060D01*
X127960828Y-99589774D02*
X126960828Y-99589774D01*
X126460828Y-99589774D02*
X126532257Y-99661202D01*
X126532257Y-99661202D02*
X126603685Y-99589774D01*
X126603685Y-99589774D02*
X126532257Y-99518345D01*
X126532257Y-99518345D02*
X126460828Y-99589774D01*
X126460828Y-99589774D02*
X126603685Y-99589774D01*
X126960828Y-99089773D02*
X126960828Y-98518345D01*
X126460828Y-98875488D02*
X127746542Y-98875488D01*
X127746542Y-98875488D02*
X127889400Y-98804059D01*
X127889400Y-98804059D02*
X127960828Y-98661202D01*
X127960828Y-98661202D02*
X127960828Y-98518345D01*
X127960828Y-97804059D02*
X127889400Y-97946916D01*
X127889400Y-97946916D02*
X127817971Y-98018345D01*
X127817971Y-98018345D02*
X127675114Y-98089773D01*
X127675114Y-98089773D02*
X127246542Y-98089773D01*
X127246542Y-98089773D02*
X127103685Y-98018345D01*
X127103685Y-98018345D02*
X127032257Y-97946916D01*
X127032257Y-97946916D02*
X126960828Y-97804059D01*
X126960828Y-97804059D02*
X126960828Y-97589773D01*
X126960828Y-97589773D02*
X127032257Y-97446916D01*
X127032257Y-97446916D02*
X127103685Y-97375488D01*
X127103685Y-97375488D02*
X127246542Y-97304059D01*
X127246542Y-97304059D02*
X127675114Y-97304059D01*
X127675114Y-97304059D02*
X127817971Y-97375488D01*
X127817971Y-97375488D02*
X127889400Y-97446916D01*
X127889400Y-97446916D02*
X127960828Y-97589773D01*
X127960828Y-97589773D02*
X127960828Y-97804059D01*
X127960828Y-96661202D02*
X126960828Y-96661202D01*
X127246542Y-96661202D02*
X127103685Y-96589773D01*
X127103685Y-96589773D02*
X127032257Y-96518345D01*
X127032257Y-96518345D02*
X126960828Y-96375487D01*
X126960828Y-96375487D02*
X126960828Y-96232630D01*
X127960828Y-93946917D02*
X127175114Y-93946917D01*
X127175114Y-93946917D02*
X127032257Y-94018345D01*
X127032257Y-94018345D02*
X126960828Y-94161202D01*
X126960828Y-94161202D02*
X126960828Y-94446917D01*
X126960828Y-94446917D02*
X127032257Y-94589774D01*
X127889400Y-93946917D02*
X127960828Y-94089774D01*
X127960828Y-94089774D02*
X127960828Y-94446917D01*
X127960828Y-94446917D02*
X127889400Y-94589774D01*
X127889400Y-94589774D02*
X127746542Y-94661202D01*
X127746542Y-94661202D02*
X127603685Y-94661202D01*
X127603685Y-94661202D02*
X127460828Y-94589774D01*
X127460828Y-94589774D02*
X127389400Y-94446917D01*
X127389400Y-94446917D02*
X127389400Y-94089774D01*
X127389400Y-94089774D02*
X127317971Y-93946917D01*
X126960828Y-93232631D02*
X127960828Y-93232631D01*
X127103685Y-93232631D02*
X127032257Y-93161202D01*
X127032257Y-93161202D02*
X126960828Y-93018345D01*
X126960828Y-93018345D02*
X126960828Y-92804059D01*
X126960828Y-92804059D02*
X127032257Y-92661202D01*
X127032257Y-92661202D02*
X127175114Y-92589774D01*
X127175114Y-92589774D02*
X127960828Y-92589774D01*
X127960828Y-91232631D02*
X126460828Y-91232631D01*
X127889400Y-91232631D02*
X127960828Y-91375488D01*
X127960828Y-91375488D02*
X127960828Y-91661202D01*
X127960828Y-91661202D02*
X127889400Y-91804059D01*
X127889400Y-91804059D02*
X127817971Y-91875488D01*
X127817971Y-91875488D02*
X127675114Y-91946916D01*
X127675114Y-91946916D02*
X127246542Y-91946916D01*
X127246542Y-91946916D02*
X127103685Y-91875488D01*
X127103685Y-91875488D02*
X127032257Y-91804059D01*
X127032257Y-91804059D02*
X126960828Y-91661202D01*
X126960828Y-91661202D02*
X126960828Y-91375488D01*
X126960828Y-91375488D02*
X127032257Y-91232631D01*
X127960828Y-88518345D02*
X127246542Y-89018345D01*
X127960828Y-89375488D02*
X126460828Y-89375488D01*
X126460828Y-89375488D02*
X126460828Y-88804059D01*
X126460828Y-88804059D02*
X126532257Y-88661202D01*
X126532257Y-88661202D02*
X126603685Y-88589773D01*
X126603685Y-88589773D02*
X126746542Y-88518345D01*
X126746542Y-88518345D02*
X126960828Y-88518345D01*
X126960828Y-88518345D02*
X127103685Y-88589773D01*
X127103685Y-88589773D02*
X127175114Y-88661202D01*
X127175114Y-88661202D02*
X127246542Y-88804059D01*
X127246542Y-88804059D02*
X127246542Y-89375488D01*
X127889400Y-87304059D02*
X127960828Y-87446916D01*
X127960828Y-87446916D02*
X127960828Y-87732631D01*
X127960828Y-87732631D02*
X127889400Y-87875488D01*
X127889400Y-87875488D02*
X127746542Y-87946916D01*
X127746542Y-87946916D02*
X127175114Y-87946916D01*
X127175114Y-87946916D02*
X127032257Y-87875488D01*
X127032257Y-87875488D02*
X126960828Y-87732631D01*
X126960828Y-87732631D02*
X126960828Y-87446916D01*
X126960828Y-87446916D02*
X127032257Y-87304059D01*
X127032257Y-87304059D02*
X127175114Y-87232631D01*
X127175114Y-87232631D02*
X127317971Y-87232631D01*
X127317971Y-87232631D02*
X127460828Y-87946916D01*
X126960828Y-86804059D02*
X126960828Y-86232631D01*
X126460828Y-86589774D02*
X127746542Y-86589774D01*
X127746542Y-86589774D02*
X127889400Y-86518345D01*
X127889400Y-86518345D02*
X127960828Y-86375488D01*
X127960828Y-86375488D02*
X127960828Y-86232631D01*
X127960828Y-85089774D02*
X127175114Y-85089774D01*
X127175114Y-85089774D02*
X127032257Y-85161202D01*
X127032257Y-85161202D02*
X126960828Y-85304059D01*
X126960828Y-85304059D02*
X126960828Y-85589774D01*
X126960828Y-85589774D02*
X127032257Y-85732631D01*
X127889400Y-85089774D02*
X127960828Y-85232631D01*
X127960828Y-85232631D02*
X127960828Y-85589774D01*
X127960828Y-85589774D02*
X127889400Y-85732631D01*
X127889400Y-85732631D02*
X127746542Y-85804059D01*
X127746542Y-85804059D02*
X127603685Y-85804059D01*
X127603685Y-85804059D02*
X127460828Y-85732631D01*
X127460828Y-85732631D02*
X127389400Y-85589774D01*
X127389400Y-85589774D02*
X127389400Y-85232631D01*
X127389400Y-85232631D02*
X127317971Y-85089774D01*
X127960828Y-84375488D02*
X126960828Y-84375488D01*
X127246542Y-84375488D02*
X127103685Y-84304059D01*
X127103685Y-84304059D02*
X127032257Y-84232631D01*
X127032257Y-84232631D02*
X126960828Y-84089773D01*
X126960828Y-84089773D02*
X126960828Y-83946916D01*
X127960828Y-82804060D02*
X126460828Y-82804060D01*
X127889400Y-82804060D02*
X127960828Y-82946917D01*
X127960828Y-82946917D02*
X127960828Y-83232631D01*
X127960828Y-83232631D02*
X127889400Y-83375488D01*
X127889400Y-83375488D02*
X127817971Y-83446917D01*
X127817971Y-83446917D02*
X127675114Y-83518345D01*
X127675114Y-83518345D02*
X127246542Y-83518345D01*
X127246542Y-83518345D02*
X127103685Y-83446917D01*
X127103685Y-83446917D02*
X127032257Y-83375488D01*
X127032257Y-83375488D02*
X126960828Y-83232631D01*
X126960828Y-83232631D02*
X126960828Y-82946917D01*
X126960828Y-82946917D02*
X127032257Y-82804060D01*
X127889400Y-81518345D02*
X127960828Y-81661202D01*
X127960828Y-81661202D02*
X127960828Y-81946917D01*
X127960828Y-81946917D02*
X127889400Y-82089774D01*
X127889400Y-82089774D02*
X127746542Y-82161202D01*
X127746542Y-82161202D02*
X127175114Y-82161202D01*
X127175114Y-82161202D02*
X127032257Y-82089774D01*
X127032257Y-82089774D02*
X126960828Y-81946917D01*
X126960828Y-81946917D02*
X126960828Y-81661202D01*
X126960828Y-81661202D02*
X127032257Y-81518345D01*
X127032257Y-81518345D02*
X127175114Y-81446917D01*
X127175114Y-81446917D02*
X127317971Y-81446917D01*
X127317971Y-81446917D02*
X127460828Y-82161202D01*
X127960828Y-80804060D02*
X126960828Y-80804060D01*
X127246542Y-80804060D02*
X127103685Y-80732631D01*
X127103685Y-80732631D02*
X127032257Y-80661203D01*
X127032257Y-80661203D02*
X126960828Y-80518345D01*
X126960828Y-80518345D02*
X126960828Y-80375488D01*
X127817971Y-77875489D02*
X127889400Y-77946917D01*
X127889400Y-77946917D02*
X127960828Y-78161203D01*
X127960828Y-78161203D02*
X127960828Y-78304060D01*
X127960828Y-78304060D02*
X127889400Y-78518346D01*
X127889400Y-78518346D02*
X127746542Y-78661203D01*
X127746542Y-78661203D02*
X127603685Y-78732632D01*
X127603685Y-78732632D02*
X127317971Y-78804060D01*
X127317971Y-78804060D02*
X127103685Y-78804060D01*
X127103685Y-78804060D02*
X126817971Y-78732632D01*
X126817971Y-78732632D02*
X126675114Y-78661203D01*
X126675114Y-78661203D02*
X126532257Y-78518346D01*
X126532257Y-78518346D02*
X126460828Y-78304060D01*
X126460828Y-78304060D02*
X126460828Y-78161203D01*
X126460828Y-78161203D02*
X126532257Y-77946917D01*
X126532257Y-77946917D02*
X126603685Y-77875489D01*
X127960828Y-77018346D02*
X127889400Y-77161203D01*
X127889400Y-77161203D02*
X127817971Y-77232632D01*
X127817971Y-77232632D02*
X127675114Y-77304060D01*
X127675114Y-77304060D02*
X127246542Y-77304060D01*
X127246542Y-77304060D02*
X127103685Y-77232632D01*
X127103685Y-77232632D02*
X127032257Y-77161203D01*
X127032257Y-77161203D02*
X126960828Y-77018346D01*
X126960828Y-77018346D02*
X126960828Y-76804060D01*
X126960828Y-76804060D02*
X127032257Y-76661203D01*
X127032257Y-76661203D02*
X127103685Y-76589775D01*
X127103685Y-76589775D02*
X127246542Y-76518346D01*
X127246542Y-76518346D02*
X127675114Y-76518346D01*
X127675114Y-76518346D02*
X127817971Y-76589775D01*
X127817971Y-76589775D02*
X127889400Y-76661203D01*
X127889400Y-76661203D02*
X127960828Y-76804060D01*
X127960828Y-76804060D02*
X127960828Y-77018346D01*
X126960828Y-75875489D02*
X127960828Y-75875489D01*
X127103685Y-75875489D02*
X127032257Y-75804060D01*
X127032257Y-75804060D02*
X126960828Y-75661203D01*
X126960828Y-75661203D02*
X126960828Y-75446917D01*
X126960828Y-75446917D02*
X127032257Y-75304060D01*
X127032257Y-75304060D02*
X127175114Y-75232632D01*
X127175114Y-75232632D02*
X127960828Y-75232632D01*
X126960828Y-74732631D02*
X126960828Y-74161203D01*
X126460828Y-74518346D02*
X127746542Y-74518346D01*
X127746542Y-74518346D02*
X127889400Y-74446917D01*
X127889400Y-74446917D02*
X127960828Y-74304060D01*
X127960828Y-74304060D02*
X127960828Y-74161203D01*
X127960828Y-73661203D02*
X126960828Y-73661203D01*
X127246542Y-73661203D02*
X127103685Y-73589774D01*
X127103685Y-73589774D02*
X127032257Y-73518346D01*
X127032257Y-73518346D02*
X126960828Y-73375488D01*
X126960828Y-73375488D02*
X126960828Y-73232631D01*
X127960828Y-72518346D02*
X127889400Y-72661203D01*
X127889400Y-72661203D02*
X127817971Y-72732632D01*
X127817971Y-72732632D02*
X127675114Y-72804060D01*
X127675114Y-72804060D02*
X127246542Y-72804060D01*
X127246542Y-72804060D02*
X127103685Y-72732632D01*
X127103685Y-72732632D02*
X127032257Y-72661203D01*
X127032257Y-72661203D02*
X126960828Y-72518346D01*
X126960828Y-72518346D02*
X126960828Y-72304060D01*
X126960828Y-72304060D02*
X127032257Y-72161203D01*
X127032257Y-72161203D02*
X127103685Y-72089775D01*
X127103685Y-72089775D02*
X127246542Y-72018346D01*
X127246542Y-72018346D02*
X127675114Y-72018346D01*
X127675114Y-72018346D02*
X127817971Y-72089775D01*
X127817971Y-72089775D02*
X127889400Y-72161203D01*
X127889400Y-72161203D02*
X127960828Y-72304060D01*
X127960828Y-72304060D02*
X127960828Y-72518346D01*
X127960828Y-71161203D02*
X127889400Y-71304060D01*
X127889400Y-71304060D02*
X127746542Y-71375489D01*
X127746542Y-71375489D02*
X126460828Y-71375489D01*
X127960828Y-70375489D02*
X127889400Y-70518346D01*
X127889400Y-70518346D02*
X127746542Y-70589775D01*
X127746542Y-70589775D02*
X126460828Y-70589775D01*
X127889400Y-69232632D02*
X127960828Y-69375489D01*
X127960828Y-69375489D02*
X127960828Y-69661204D01*
X127960828Y-69661204D02*
X127889400Y-69804061D01*
X127889400Y-69804061D02*
X127746542Y-69875489D01*
X127746542Y-69875489D02*
X127175114Y-69875489D01*
X127175114Y-69875489D02*
X127032257Y-69804061D01*
X127032257Y-69804061D02*
X126960828Y-69661204D01*
X126960828Y-69661204D02*
X126960828Y-69375489D01*
X126960828Y-69375489D02*
X127032257Y-69232632D01*
X127032257Y-69232632D02*
X127175114Y-69161204D01*
X127175114Y-69161204D02*
X127317971Y-69161204D01*
X127317971Y-69161204D02*
X127460828Y-69875489D01*
X127960828Y-68518347D02*
X126960828Y-68518347D01*
X127246542Y-68518347D02*
X127103685Y-68446918D01*
X127103685Y-68446918D02*
X127032257Y-68375490D01*
X127032257Y-68375490D02*
X126960828Y-68232632D01*
X126960828Y-68232632D02*
X126960828Y-68089775D01*
X91447761Y-81968797D02*
X93876332Y-81968797D01*
X93876332Y-81968797D02*
X94162046Y-82040225D01*
X94162046Y-82040225D02*
X94304904Y-82111654D01*
X94304904Y-82111654D02*
X94447761Y-82254511D01*
X94447761Y-82254511D02*
X94447761Y-82468797D01*
X94447761Y-82468797D02*
X94304904Y-82611654D01*
X93304904Y-81968797D02*
X93447761Y-82111654D01*
X93447761Y-82111654D02*
X93447761Y-82397368D01*
X93447761Y-82397368D02*
X93304904Y-82540225D01*
X93304904Y-82540225D02*
X93162046Y-82611654D01*
X93162046Y-82611654D02*
X92876332Y-82683082D01*
X92876332Y-82683082D02*
X92019189Y-82683082D01*
X92019189Y-82683082D02*
X91733475Y-82611654D01*
X91733475Y-82611654D02*
X91590618Y-82540225D01*
X91590618Y-82540225D02*
X91447761Y-82397368D01*
X91447761Y-82397368D02*
X91447761Y-82111654D01*
X91447761Y-82111654D02*
X91590618Y-81968797D01*
X91447761Y-81254511D02*
X93447761Y-81254511D01*
X91733475Y-81254511D02*
X91590618Y-81183082D01*
X91590618Y-81183082D02*
X91447761Y-81040225D01*
X91447761Y-81040225D02*
X91447761Y-80825939D01*
X91447761Y-80825939D02*
X91590618Y-80683082D01*
X91590618Y-80683082D02*
X91876332Y-80611654D01*
X91876332Y-80611654D02*
X93447761Y-80611654D01*
X93447761Y-79254511D02*
X90447761Y-79254511D01*
X93304904Y-79254511D02*
X93447761Y-79397368D01*
X93447761Y-79397368D02*
X93447761Y-79683082D01*
X93447761Y-79683082D02*
X93304904Y-79825939D01*
X93304904Y-79825939D02*
X93162046Y-79897368D01*
X93162046Y-79897368D02*
X92876332Y-79968796D01*
X92876332Y-79968796D02*
X92019189Y-79968796D01*
X92019189Y-79968796D02*
X91733475Y-79897368D01*
X91733475Y-79897368D02*
X91590618Y-79825939D01*
X91590618Y-79825939D02*
X91447761Y-79683082D01*
X91447761Y-79683082D02*
X91447761Y-79397368D01*
X91447761Y-79397368D02*
X91590618Y-79254511D01*
X98277593Y-92183081D02*
X96277593Y-92183081D01*
X96849021Y-92183081D02*
X96563307Y-92111652D01*
X96563307Y-92111652D02*
X96420450Y-92040224D01*
X96420450Y-92040224D02*
X96277593Y-91897366D01*
X96277593Y-91897366D02*
X96277593Y-91754509D01*
X98134736Y-90683081D02*
X98277593Y-90825938D01*
X98277593Y-90825938D02*
X98277593Y-91111653D01*
X98277593Y-91111653D02*
X98134736Y-91254510D01*
X98134736Y-91254510D02*
X97849021Y-91325938D01*
X97849021Y-91325938D02*
X96706164Y-91325938D01*
X96706164Y-91325938D02*
X96420450Y-91254510D01*
X96420450Y-91254510D02*
X96277593Y-91111653D01*
X96277593Y-91111653D02*
X96277593Y-90825938D01*
X96277593Y-90825938D02*
X96420450Y-90683081D01*
X96420450Y-90683081D02*
X96706164Y-90611653D01*
X96706164Y-90611653D02*
X96991878Y-90611653D01*
X96991878Y-90611653D02*
X97277593Y-91325938D01*
X96277593Y-90183081D02*
X96277593Y-89611653D01*
X95277593Y-89968796D02*
X97849021Y-89968796D01*
X97849021Y-89968796D02*
X98134736Y-89897367D01*
X98134736Y-89897367D02*
X98277593Y-89754510D01*
X98277593Y-89754510D02*
X98277593Y-89611653D01*
X98277593Y-88468796D02*
X96706164Y-88468796D01*
X96706164Y-88468796D02*
X96420450Y-88540224D01*
X96420450Y-88540224D02*
X96277593Y-88683081D01*
X96277593Y-88683081D02*
X96277593Y-88968796D01*
X96277593Y-88968796D02*
X96420450Y-89111653D01*
X98134736Y-88468796D02*
X98277593Y-88611653D01*
X98277593Y-88611653D02*
X98277593Y-88968796D01*
X98277593Y-88968796D02*
X98134736Y-89111653D01*
X98134736Y-89111653D02*
X97849021Y-89183081D01*
X97849021Y-89183081D02*
X97563307Y-89183081D01*
X97563307Y-89183081D02*
X97277593Y-89111653D01*
X97277593Y-89111653D02*
X97134736Y-88968796D01*
X97134736Y-88968796D02*
X97134736Y-88611653D01*
X97134736Y-88611653D02*
X96991878Y-88468796D01*
X98277593Y-87754510D02*
X96277593Y-87754510D01*
X96849021Y-87754510D02*
X96563307Y-87683081D01*
X96563307Y-87683081D02*
X96420450Y-87611653D01*
X96420450Y-87611653D02*
X96277593Y-87468795D01*
X96277593Y-87468795D02*
X96277593Y-87325938D01*
X98277593Y-86183082D02*
X95277593Y-86183082D01*
X98134736Y-86183082D02*
X98277593Y-86325939D01*
X98277593Y-86325939D02*
X98277593Y-86611653D01*
X98277593Y-86611653D02*
X98134736Y-86754510D01*
X98134736Y-86754510D02*
X97991878Y-86825939D01*
X97991878Y-86825939D02*
X97706164Y-86897367D01*
X97706164Y-86897367D02*
X96849021Y-86897367D01*
X96849021Y-86897367D02*
X96563307Y-86825939D01*
X96563307Y-86825939D02*
X96420450Y-86754510D01*
X96420450Y-86754510D02*
X96277593Y-86611653D01*
X96277593Y-86611653D02*
X96277593Y-86325939D01*
X96277593Y-86325939D02*
X96420450Y-86183082D01*
X98134736Y-84897367D02*
X98277593Y-85040224D01*
X98277593Y-85040224D02*
X98277593Y-85325939D01*
X98277593Y-85325939D02*
X98134736Y-85468796D01*
X98134736Y-85468796D02*
X97849021Y-85540224D01*
X97849021Y-85540224D02*
X96706164Y-85540224D01*
X96706164Y-85540224D02*
X96420450Y-85468796D01*
X96420450Y-85468796D02*
X96277593Y-85325939D01*
X96277593Y-85325939D02*
X96277593Y-85040224D01*
X96277593Y-85040224D02*
X96420450Y-84897367D01*
X96420450Y-84897367D02*
X96706164Y-84825939D01*
X96706164Y-84825939D02*
X96991878Y-84825939D01*
X96991878Y-84825939D02*
X97277593Y-85540224D01*
X98277593Y-84183082D02*
X96277593Y-84183082D01*
X96849021Y-84183082D02*
X96563307Y-84111653D01*
X96563307Y-84111653D02*
X96420450Y-84040225D01*
X96420450Y-84040225D02*
X96277593Y-83897367D01*
X96277593Y-83897367D02*
X96277593Y-83754510D01*
X98277593Y-81897368D02*
X98134736Y-82040225D01*
X98134736Y-82040225D02*
X97991878Y-82111654D01*
X97991878Y-82111654D02*
X97706164Y-82183082D01*
X97706164Y-82183082D02*
X96849021Y-82183082D01*
X96849021Y-82183082D02*
X96563307Y-82111654D01*
X96563307Y-82111654D02*
X96420450Y-82040225D01*
X96420450Y-82040225D02*
X96277593Y-81897368D01*
X96277593Y-81897368D02*
X96277593Y-81683082D01*
X96277593Y-81683082D02*
X96420450Y-81540225D01*
X96420450Y-81540225D02*
X96563307Y-81468797D01*
X96563307Y-81468797D02*
X96849021Y-81397368D01*
X96849021Y-81397368D02*
X97706164Y-81397368D01*
X97706164Y-81397368D02*
X97991878Y-81468797D01*
X97991878Y-81468797D02*
X98134736Y-81540225D01*
X98134736Y-81540225D02*
X98277593Y-81683082D01*
X98277593Y-81683082D02*
X98277593Y-81897368D01*
X96277593Y-80111654D02*
X98277593Y-80111654D01*
X96277593Y-80754511D02*
X97849021Y-80754511D01*
X97849021Y-80754511D02*
X98134736Y-80683082D01*
X98134736Y-80683082D02*
X98277593Y-80540225D01*
X98277593Y-80540225D02*
X98277593Y-80325939D01*
X98277593Y-80325939D02*
X98134736Y-80183082D01*
X98134736Y-80183082D02*
X97991878Y-80111654D01*
X96277593Y-79611653D02*
X96277593Y-79040225D01*
X95277593Y-79397368D02*
X97849021Y-79397368D01*
X97849021Y-79397368D02*
X98134736Y-79325939D01*
X98134736Y-79325939D02*
X98277593Y-79183082D01*
X98277593Y-79183082D02*
X98277593Y-79040225D01*
X103107425Y-87968796D02*
X102964568Y-88111653D01*
X102964568Y-88111653D02*
X102678853Y-88183082D01*
X102678853Y-88183082D02*
X100107425Y-88183082D01*
X103107425Y-87183082D02*
X102964568Y-87325939D01*
X102964568Y-87325939D02*
X102821710Y-87397368D01*
X102821710Y-87397368D02*
X102535996Y-87468796D01*
X102535996Y-87468796D02*
X101678853Y-87468796D01*
X101678853Y-87468796D02*
X101393139Y-87397368D01*
X101393139Y-87397368D02*
X101250282Y-87325939D01*
X101250282Y-87325939D02*
X101107425Y-87183082D01*
X101107425Y-87183082D02*
X101107425Y-86968796D01*
X101107425Y-86968796D02*
X101250282Y-86825939D01*
X101250282Y-86825939D02*
X101393139Y-86754511D01*
X101393139Y-86754511D02*
X101678853Y-86683082D01*
X101678853Y-86683082D02*
X102535996Y-86683082D01*
X102535996Y-86683082D02*
X102821710Y-86754511D01*
X102821710Y-86754511D02*
X102964568Y-86825939D01*
X102964568Y-86825939D02*
X103107425Y-86968796D01*
X103107425Y-86968796D02*
X103107425Y-87183082D01*
X101107425Y-85397368D02*
X103535996Y-85397368D01*
X103535996Y-85397368D02*
X103821710Y-85468796D01*
X103821710Y-85468796D02*
X103964568Y-85540225D01*
X103964568Y-85540225D02*
X104107425Y-85683082D01*
X104107425Y-85683082D02*
X104107425Y-85897368D01*
X104107425Y-85897368D02*
X103964568Y-86040225D01*
X102964568Y-85397368D02*
X103107425Y-85540225D01*
X103107425Y-85540225D02*
X103107425Y-85825939D01*
X103107425Y-85825939D02*
X102964568Y-85968796D01*
X102964568Y-85968796D02*
X102821710Y-86040225D01*
X102821710Y-86040225D02*
X102535996Y-86111653D01*
X102535996Y-86111653D02*
X101678853Y-86111653D01*
X101678853Y-86111653D02*
X101393139Y-86040225D01*
X101393139Y-86040225D02*
X101250282Y-85968796D01*
X101250282Y-85968796D02*
X101107425Y-85825939D01*
X101107425Y-85825939D02*
X101107425Y-85540225D01*
X101107425Y-85540225D02*
X101250282Y-85397368D01*
X102964568Y-83611653D02*
X103107425Y-83468796D01*
X103107425Y-83468796D02*
X103107425Y-83183082D01*
X103107425Y-83183082D02*
X102964568Y-83040225D01*
X102964568Y-83040225D02*
X102678853Y-82968796D01*
X102678853Y-82968796D02*
X102535996Y-82968796D01*
X102535996Y-82968796D02*
X102250282Y-83040225D01*
X102250282Y-83040225D02*
X102107425Y-83183082D01*
X102107425Y-83183082D02*
X102107425Y-83397368D01*
X102107425Y-83397368D02*
X101964568Y-83540225D01*
X101964568Y-83540225D02*
X101678853Y-83611653D01*
X101678853Y-83611653D02*
X101535996Y-83611653D01*
X101535996Y-83611653D02*
X101250282Y-83540225D01*
X101250282Y-83540225D02*
X101107425Y-83397368D01*
X101107425Y-83397368D02*
X101107425Y-83183082D01*
X101107425Y-83183082D02*
X101250282Y-83040225D01*
X101107425Y-82468796D02*
X103107425Y-82111653D01*
X101107425Y-81754510D02*
X103107425Y-82111653D01*
X103107425Y-82111653D02*
X103821710Y-82254510D01*
X103821710Y-82254510D02*
X103964568Y-82325939D01*
X103964568Y-82325939D02*
X104107425Y-82468796D01*
X101107425Y-81183082D02*
X103107425Y-81183082D01*
X101393139Y-81183082D02*
X101250282Y-81111653D01*
X101250282Y-81111653D02*
X101107425Y-80968796D01*
X101107425Y-80968796D02*
X101107425Y-80754510D01*
X101107425Y-80754510D02*
X101250282Y-80611653D01*
X101250282Y-80611653D02*
X101535996Y-80540225D01*
X101535996Y-80540225D02*
X103107425Y-80540225D01*
X102964568Y-79183082D02*
X103107425Y-79325939D01*
X103107425Y-79325939D02*
X103107425Y-79611653D01*
X103107425Y-79611653D02*
X102964568Y-79754510D01*
X102964568Y-79754510D02*
X102821710Y-79825939D01*
X102821710Y-79825939D02*
X102535996Y-79897367D01*
X102535996Y-79897367D02*
X101678853Y-79897367D01*
X101678853Y-79897367D02*
X101393139Y-79825939D01*
X101393139Y-79825939D02*
X101250282Y-79754510D01*
X101250282Y-79754510D02*
X101107425Y-79611653D01*
X101107425Y-79611653D02*
X101107425Y-79325939D01*
X101107425Y-79325939D02*
X101250282Y-79183082D01*
X107937257Y-86540225D02*
X107794400Y-86683082D01*
X107794400Y-86683082D02*
X107508685Y-86754511D01*
X107508685Y-86754511D02*
X104937257Y-86754511D01*
X107937257Y-85754511D02*
X107794400Y-85897368D01*
X107794400Y-85897368D02*
X107651542Y-85968797D01*
X107651542Y-85968797D02*
X107365828Y-86040225D01*
X107365828Y-86040225D02*
X106508685Y-86040225D01*
X106508685Y-86040225D02*
X106222971Y-85968797D01*
X106222971Y-85968797D02*
X106080114Y-85897368D01*
X106080114Y-85897368D02*
X105937257Y-85754511D01*
X105937257Y-85754511D02*
X105937257Y-85540225D01*
X105937257Y-85540225D02*
X106080114Y-85397368D01*
X106080114Y-85397368D02*
X106222971Y-85325940D01*
X106222971Y-85325940D02*
X106508685Y-85254511D01*
X106508685Y-85254511D02*
X107365828Y-85254511D01*
X107365828Y-85254511D02*
X107651542Y-85325940D01*
X107651542Y-85325940D02*
X107794400Y-85397368D01*
X107794400Y-85397368D02*
X107937257Y-85540225D01*
X107937257Y-85540225D02*
X107937257Y-85754511D01*
X105937257Y-83968797D02*
X108365828Y-83968797D01*
X108365828Y-83968797D02*
X108651542Y-84040225D01*
X108651542Y-84040225D02*
X108794400Y-84111654D01*
X108794400Y-84111654D02*
X108937257Y-84254511D01*
X108937257Y-84254511D02*
X108937257Y-84468797D01*
X108937257Y-84468797D02*
X108794400Y-84611654D01*
X107794400Y-83968797D02*
X107937257Y-84111654D01*
X107937257Y-84111654D02*
X107937257Y-84397368D01*
X107937257Y-84397368D02*
X107794400Y-84540225D01*
X107794400Y-84540225D02*
X107651542Y-84611654D01*
X107651542Y-84611654D02*
X107365828Y-84683082D01*
X107365828Y-84683082D02*
X106508685Y-84683082D01*
X106508685Y-84683082D02*
X106222971Y-84611654D01*
X106222971Y-84611654D02*
X106080114Y-84540225D01*
X106080114Y-84540225D02*
X105937257Y-84397368D01*
X105937257Y-84397368D02*
X105937257Y-84111654D01*
X105937257Y-84111654D02*
X106080114Y-83968797D01*
X107937257Y-81897368D02*
X107794400Y-82040225D01*
X107794400Y-82040225D02*
X107651542Y-82111654D01*
X107651542Y-82111654D02*
X107365828Y-82183082D01*
X107365828Y-82183082D02*
X106508685Y-82183082D01*
X106508685Y-82183082D02*
X106222971Y-82111654D01*
X106222971Y-82111654D02*
X106080114Y-82040225D01*
X106080114Y-82040225D02*
X105937257Y-81897368D01*
X105937257Y-81897368D02*
X105937257Y-81683082D01*
X105937257Y-81683082D02*
X106080114Y-81540225D01*
X106080114Y-81540225D02*
X106222971Y-81468797D01*
X106222971Y-81468797D02*
X106508685Y-81397368D01*
X106508685Y-81397368D02*
X107365828Y-81397368D01*
X107365828Y-81397368D02*
X107651542Y-81468797D01*
X107651542Y-81468797D02*
X107794400Y-81540225D01*
X107794400Y-81540225D02*
X107937257Y-81683082D01*
X107937257Y-81683082D02*
X107937257Y-81897368D01*
X105937257Y-80111654D02*
X107937257Y-80111654D01*
X105937257Y-80754511D02*
X107508685Y-80754511D01*
X107508685Y-80754511D02*
X107794400Y-80683082D01*
X107794400Y-80683082D02*
X107937257Y-80540225D01*
X107937257Y-80540225D02*
X107937257Y-80325939D01*
X107937257Y-80325939D02*
X107794400Y-80183082D01*
X107794400Y-80183082D02*
X107651542Y-80111654D01*
X105937257Y-79611653D02*
X105937257Y-79040225D01*
X104937257Y-79397368D02*
X107508685Y-79397368D01*
X107508685Y-79397368D02*
X107794400Y-79325939D01*
X107794400Y-79325939D02*
X107937257Y-79183082D01*
X107937257Y-79183082D02*
X107937257Y-79040225D01*
D11*
X110534819Y-103441904D02*
X111344342Y-103441904D01*
X111344342Y-103441904D02*
X111439580Y-103394285D01*
X111439580Y-103394285D02*
X111487200Y-103346666D01*
X111487200Y-103346666D02*
X111534819Y-103251428D01*
X111534819Y-103251428D02*
X111534819Y-103060952D01*
X111534819Y-103060952D02*
X111487200Y-102965714D01*
X111487200Y-102965714D02*
X111439580Y-102918095D01*
X111439580Y-102918095D02*
X111344342Y-102870476D01*
X111344342Y-102870476D02*
X110534819Y-102870476D01*
X110868152Y-101965714D02*
X111534819Y-101965714D01*
X110487200Y-102203809D02*
X111201485Y-102441904D01*
X111201485Y-102441904D02*
X111201485Y-101822857D01*
X110804819Y-104696666D02*
X110328628Y-105029999D01*
X110804819Y-105268094D02*
X109804819Y-105268094D01*
X109804819Y-105268094D02*
X109804819Y-104887142D01*
X109804819Y-104887142D02*
X109852438Y-104791904D01*
X109852438Y-104791904D02*
X109900057Y-104744285D01*
X109900057Y-104744285D02*
X109995295Y-104696666D01*
X109995295Y-104696666D02*
X110138152Y-104696666D01*
X110138152Y-104696666D02*
X110233390Y-104744285D01*
X110233390Y-104744285D02*
X110281009Y-104791904D01*
X110281009Y-104791904D02*
X110328628Y-104887142D01*
X110328628Y-104887142D02*
X110328628Y-105268094D01*
X109804819Y-103839523D02*
X109804819Y-104029999D01*
X109804819Y-104029999D02*
X109852438Y-104125237D01*
X109852438Y-104125237D02*
X109900057Y-104172856D01*
X109900057Y-104172856D02*
X110042914Y-104268094D01*
X110042914Y-104268094D02*
X110233390Y-104315713D01*
X110233390Y-104315713D02*
X110614342Y-104315713D01*
X110614342Y-104315713D02*
X110709580Y-104268094D01*
X110709580Y-104268094D02*
X110757200Y-104220475D01*
X110757200Y-104220475D02*
X110804819Y-104125237D01*
X110804819Y-104125237D02*
X110804819Y-103934761D01*
X110804819Y-103934761D02*
X110757200Y-103839523D01*
X110757200Y-103839523D02*
X110709580Y-103791904D01*
X110709580Y-103791904D02*
X110614342Y-103744285D01*
X110614342Y-103744285D02*
X110376247Y-103744285D01*
X110376247Y-103744285D02*
X110281009Y-103791904D01*
X110281009Y-103791904D02*
X110233390Y-103839523D01*
X110233390Y-103839523D02*
X110185771Y-103934761D01*
X110185771Y-103934761D02*
X110185771Y-104125237D01*
X110185771Y-104125237D02*
X110233390Y-104220475D01*
X110233390Y-104220475D02*
X110281009Y-104268094D01*
X110281009Y-104268094D02*
X110376247Y-104315713D01*
X116463333Y-97689580D02*
X116415714Y-97737200D01*
X116415714Y-97737200D02*
X116272857Y-97784819D01*
X116272857Y-97784819D02*
X116177619Y-97784819D01*
X116177619Y-97784819D02*
X116034762Y-97737200D01*
X116034762Y-97737200D02*
X115939524Y-97641961D01*
X115939524Y-97641961D02*
X115891905Y-97546723D01*
X115891905Y-97546723D02*
X115844286Y-97356247D01*
X115844286Y-97356247D02*
X115844286Y-97213390D01*
X115844286Y-97213390D02*
X115891905Y-97022914D01*
X115891905Y-97022914D02*
X115939524Y-96927676D01*
X115939524Y-96927676D02*
X116034762Y-96832438D01*
X116034762Y-96832438D02*
X116177619Y-96784819D01*
X116177619Y-96784819D02*
X116272857Y-96784819D01*
X116272857Y-96784819D02*
X116415714Y-96832438D01*
X116415714Y-96832438D02*
X116463333Y-96880057D01*
X117034762Y-97213390D02*
X116939524Y-97165771D01*
X116939524Y-97165771D02*
X116891905Y-97118152D01*
X116891905Y-97118152D02*
X116844286Y-97022914D01*
X116844286Y-97022914D02*
X116844286Y-96975295D01*
X116844286Y-96975295D02*
X116891905Y-96880057D01*
X116891905Y-96880057D02*
X116939524Y-96832438D01*
X116939524Y-96832438D02*
X117034762Y-96784819D01*
X117034762Y-96784819D02*
X117225238Y-96784819D01*
X117225238Y-96784819D02*
X117320476Y-96832438D01*
X117320476Y-96832438D02*
X117368095Y-96880057D01*
X117368095Y-96880057D02*
X117415714Y-96975295D01*
X117415714Y-96975295D02*
X117415714Y-97022914D01*
X117415714Y-97022914D02*
X117368095Y-97118152D01*
X117368095Y-97118152D02*
X117320476Y-97165771D01*
X117320476Y-97165771D02*
X117225238Y-97213390D01*
X117225238Y-97213390D02*
X117034762Y-97213390D01*
X117034762Y-97213390D02*
X116939524Y-97261009D01*
X116939524Y-97261009D02*
X116891905Y-97308628D01*
X116891905Y-97308628D02*
X116844286Y-97403866D01*
X116844286Y-97403866D02*
X116844286Y-97594342D01*
X116844286Y-97594342D02*
X116891905Y-97689580D01*
X116891905Y-97689580D02*
X116939524Y-97737200D01*
X116939524Y-97737200D02*
X117034762Y-97784819D01*
X117034762Y-97784819D02*
X117225238Y-97784819D01*
X117225238Y-97784819D02*
X117320476Y-97737200D01*
X117320476Y-97737200D02*
X117368095Y-97689580D01*
X117368095Y-97689580D02*
X117415714Y-97594342D01*
X117415714Y-97594342D02*
X117415714Y-97403866D01*
X117415714Y-97403866D02*
X117368095Y-97308628D01*
X117368095Y-97308628D02*
X117320476Y-97261009D01*
X117320476Y-97261009D02*
X117225238Y-97213390D01*
X111308095Y-113774819D02*
X111879523Y-113774819D01*
X111593809Y-114774819D02*
X111593809Y-113774819D01*
X112212857Y-114774819D02*
X112212857Y-113774819D01*
X112212857Y-113774819D02*
X112593809Y-113774819D01*
X112593809Y-113774819D02*
X112689047Y-113822438D01*
X112689047Y-113822438D02*
X112736666Y-113870057D01*
X112736666Y-113870057D02*
X112784285Y-113965295D01*
X112784285Y-113965295D02*
X112784285Y-114108152D01*
X112784285Y-114108152D02*
X112736666Y-114203390D01*
X112736666Y-114203390D02*
X112689047Y-114251009D01*
X112689047Y-114251009D02*
X112593809Y-114298628D01*
X112593809Y-114298628D02*
X112212857Y-114298628D01*
X113355714Y-114203390D02*
X113260476Y-114155771D01*
X113260476Y-114155771D02*
X113212857Y-114108152D01*
X113212857Y-114108152D02*
X113165238Y-114012914D01*
X113165238Y-114012914D02*
X113165238Y-113965295D01*
X113165238Y-113965295D02*
X113212857Y-113870057D01*
X113212857Y-113870057D02*
X113260476Y-113822438D01*
X113260476Y-113822438D02*
X113355714Y-113774819D01*
X113355714Y-113774819D02*
X113546190Y-113774819D01*
X113546190Y-113774819D02*
X113641428Y-113822438D01*
X113641428Y-113822438D02*
X113689047Y-113870057D01*
X113689047Y-113870057D02*
X113736666Y-113965295D01*
X113736666Y-113965295D02*
X113736666Y-114012914D01*
X113736666Y-114012914D02*
X113689047Y-114108152D01*
X113689047Y-114108152D02*
X113641428Y-114155771D01*
X113641428Y-114155771D02*
X113546190Y-114203390D01*
X113546190Y-114203390D02*
X113355714Y-114203390D01*
X113355714Y-114203390D02*
X113260476Y-114251009D01*
X113260476Y-114251009D02*
X113212857Y-114298628D01*
X113212857Y-114298628D02*
X113165238Y-114393866D01*
X113165238Y-114393866D02*
X113165238Y-114584342D01*
X113165238Y-114584342D02*
X113212857Y-114679580D01*
X113212857Y-114679580D02*
X113260476Y-114727200D01*
X113260476Y-114727200D02*
X113355714Y-114774819D01*
X113355714Y-114774819D02*
X113546190Y-114774819D01*
X113546190Y-114774819D02*
X113641428Y-114727200D01*
X113641428Y-114727200D02*
X113689047Y-114679580D01*
X113689047Y-114679580D02*
X113736666Y-114584342D01*
X113736666Y-114584342D02*
X113736666Y-114393866D01*
X113736666Y-114393866D02*
X113689047Y-114298628D01*
X113689047Y-114298628D02*
X113641428Y-114251009D01*
X113641428Y-114251009D02*
X113546190Y-114203390D01*
X106684819Y-96761904D02*
X107494342Y-96761904D01*
X107494342Y-96761904D02*
X107589580Y-96714285D01*
X107589580Y-96714285D02*
X107637200Y-96666666D01*
X107637200Y-96666666D02*
X107684819Y-96571428D01*
X107684819Y-96571428D02*
X107684819Y-96380952D01*
X107684819Y-96380952D02*
X107637200Y-96285714D01*
X107637200Y-96285714D02*
X107589580Y-96238095D01*
X107589580Y-96238095D02*
X107494342Y-96190476D01*
X107494342Y-96190476D02*
X106684819Y-96190476D01*
X106684819Y-95238095D02*
X106684819Y-95714285D01*
X106684819Y-95714285D02*
X107161009Y-95761904D01*
X107161009Y-95761904D02*
X107113390Y-95714285D01*
X107113390Y-95714285D02*
X107065771Y-95619047D01*
X107065771Y-95619047D02*
X107065771Y-95380952D01*
X107065771Y-95380952D02*
X107113390Y-95285714D01*
X107113390Y-95285714D02*
X107161009Y-95238095D01*
X107161009Y-95238095D02*
X107256247Y-95190476D01*
X107256247Y-95190476D02*
X107494342Y-95190476D01*
X107494342Y-95190476D02*
X107589580Y-95238095D01*
X107589580Y-95238095D02*
X107637200Y-95285714D01*
X107637200Y-95285714D02*
X107684819Y-95380952D01*
X107684819Y-95380952D02*
X107684819Y-95619047D01*
X107684819Y-95619047D02*
X107637200Y-95714285D01*
X107637200Y-95714285D02*
X107589580Y-95761904D01*
X110328095Y-86914819D02*
X110328095Y-87724342D01*
X110328095Y-87724342D02*
X110375714Y-87819580D01*
X110375714Y-87819580D02*
X110423333Y-87867200D01*
X110423333Y-87867200D02*
X110518571Y-87914819D01*
X110518571Y-87914819D02*
X110709047Y-87914819D01*
X110709047Y-87914819D02*
X110804285Y-87867200D01*
X110804285Y-87867200D02*
X110851904Y-87819580D01*
X110851904Y-87819580D02*
X110899523Y-87724342D01*
X110899523Y-87724342D02*
X110899523Y-86914819D01*
X111280476Y-86914819D02*
X111899523Y-86914819D01*
X111899523Y-86914819D02*
X111566190Y-87295771D01*
X111566190Y-87295771D02*
X111709047Y-87295771D01*
X111709047Y-87295771D02*
X111804285Y-87343390D01*
X111804285Y-87343390D02*
X111851904Y-87391009D01*
X111851904Y-87391009D02*
X111899523Y-87486247D01*
X111899523Y-87486247D02*
X111899523Y-87724342D01*
X111899523Y-87724342D02*
X111851904Y-87819580D01*
X111851904Y-87819580D02*
X111804285Y-87867200D01*
X111804285Y-87867200D02*
X111709047Y-87914819D01*
X111709047Y-87914819D02*
X111423333Y-87914819D01*
X111423333Y-87914819D02*
X111328095Y-87867200D01*
X111328095Y-87867200D02*
X111280476Y-87819580D01*
X106158095Y-113824819D02*
X106729523Y-113824819D01*
X106443809Y-114824819D02*
X106443809Y-113824819D01*
X107062857Y-114824819D02*
X107062857Y-113824819D01*
X107062857Y-113824819D02*
X107443809Y-113824819D01*
X107443809Y-113824819D02*
X107539047Y-113872438D01*
X107539047Y-113872438D02*
X107586666Y-113920057D01*
X107586666Y-113920057D02*
X107634285Y-114015295D01*
X107634285Y-114015295D02*
X107634285Y-114158152D01*
X107634285Y-114158152D02*
X107586666Y-114253390D01*
X107586666Y-114253390D02*
X107539047Y-114301009D01*
X107539047Y-114301009D02*
X107443809Y-114348628D01*
X107443809Y-114348628D02*
X107062857Y-114348628D01*
X107967619Y-113824819D02*
X108634285Y-113824819D01*
X108634285Y-113824819D02*
X108205714Y-114824819D01*
X101744761Y-112454819D02*
X101411428Y-111978628D01*
X101173333Y-112454819D02*
X101173333Y-111454819D01*
X101173333Y-111454819D02*
X101554285Y-111454819D01*
X101554285Y-111454819D02*
X101649523Y-111502438D01*
X101649523Y-111502438D02*
X101697142Y-111550057D01*
X101697142Y-111550057D02*
X101744761Y-111645295D01*
X101744761Y-111645295D02*
X101744761Y-111788152D01*
X101744761Y-111788152D02*
X101697142Y-111883390D01*
X101697142Y-111883390D02*
X101649523Y-111931009D01*
X101649523Y-111931009D02*
X101554285Y-111978628D01*
X101554285Y-111978628D02*
X101173333Y-111978628D01*
X102030476Y-111454819D02*
X102363809Y-112454819D01*
X102363809Y-112454819D02*
X102697142Y-111454819D01*
X102935238Y-111454819D02*
X103554285Y-111454819D01*
X103554285Y-111454819D02*
X103220952Y-111835771D01*
X103220952Y-111835771D02*
X103363809Y-111835771D01*
X103363809Y-111835771D02*
X103459047Y-111883390D01*
X103459047Y-111883390D02*
X103506666Y-111931009D01*
X103506666Y-111931009D02*
X103554285Y-112026247D01*
X103554285Y-112026247D02*
X103554285Y-112264342D01*
X103554285Y-112264342D02*
X103506666Y-112359580D01*
X103506666Y-112359580D02*
X103459047Y-112407200D01*
X103459047Y-112407200D02*
X103363809Y-112454819D01*
X103363809Y-112454819D02*
X103078095Y-112454819D01*
X103078095Y-112454819D02*
X102982857Y-112407200D01*
X102982857Y-112407200D02*
X102935238Y-112359580D01*
X114108095Y-81264819D02*
X114679523Y-81264819D01*
X114393809Y-82264819D02*
X114393809Y-81264819D01*
X115012857Y-82264819D02*
X115012857Y-81264819D01*
X115012857Y-81264819D02*
X115393809Y-81264819D01*
X115393809Y-81264819D02*
X115489047Y-81312438D01*
X115489047Y-81312438D02*
X115536666Y-81360057D01*
X115536666Y-81360057D02*
X115584285Y-81455295D01*
X115584285Y-81455295D02*
X115584285Y-81598152D01*
X115584285Y-81598152D02*
X115536666Y-81693390D01*
X115536666Y-81693390D02*
X115489047Y-81741009D01*
X115489047Y-81741009D02*
X115393809Y-81788628D01*
X115393809Y-81788628D02*
X115012857Y-81788628D01*
X116441428Y-81264819D02*
X116250952Y-81264819D01*
X116250952Y-81264819D02*
X116155714Y-81312438D01*
X116155714Y-81312438D02*
X116108095Y-81360057D01*
X116108095Y-81360057D02*
X116012857Y-81502914D01*
X116012857Y-81502914D02*
X115965238Y-81693390D01*
X115965238Y-81693390D02*
X115965238Y-82074342D01*
X115965238Y-82074342D02*
X116012857Y-82169580D01*
X116012857Y-82169580D02*
X116060476Y-82217200D01*
X116060476Y-82217200D02*
X116155714Y-82264819D01*
X116155714Y-82264819D02*
X116346190Y-82264819D01*
X116346190Y-82264819D02*
X116441428Y-82217200D01*
X116441428Y-82217200D02*
X116489047Y-82169580D01*
X116489047Y-82169580D02*
X116536666Y-82074342D01*
X116536666Y-82074342D02*
X116536666Y-81836247D01*
X116536666Y-81836247D02*
X116489047Y-81741009D01*
X116489047Y-81741009D02*
X116441428Y-81693390D01*
X116441428Y-81693390D02*
X116346190Y-81645771D01*
X116346190Y-81645771D02*
X116155714Y-81645771D01*
X116155714Y-81645771D02*
X116060476Y-81693390D01*
X116060476Y-81693390D02*
X116012857Y-81741009D01*
X116012857Y-81741009D02*
X115965238Y-81836247D01*
X113538095Y-91174819D02*
X114109523Y-91174819D01*
X113823809Y-92174819D02*
X113823809Y-91174819D01*
X114442857Y-92174819D02*
X114442857Y-91174819D01*
X114442857Y-91174819D02*
X114823809Y-91174819D01*
X114823809Y-91174819D02*
X114919047Y-91222438D01*
X114919047Y-91222438D02*
X114966666Y-91270057D01*
X114966666Y-91270057D02*
X115014285Y-91365295D01*
X115014285Y-91365295D02*
X115014285Y-91508152D01*
X115014285Y-91508152D02*
X114966666Y-91603390D01*
X114966666Y-91603390D02*
X114919047Y-91651009D01*
X114919047Y-91651009D02*
X114823809Y-91698628D01*
X114823809Y-91698628D02*
X114442857Y-91698628D01*
X115919047Y-91174819D02*
X115442857Y-91174819D01*
X115442857Y-91174819D02*
X115395238Y-91651009D01*
X115395238Y-91651009D02*
X115442857Y-91603390D01*
X115442857Y-91603390D02*
X115538095Y-91555771D01*
X115538095Y-91555771D02*
X115776190Y-91555771D01*
X115776190Y-91555771D02*
X115871428Y-91603390D01*
X115871428Y-91603390D02*
X115919047Y-91651009D01*
X115919047Y-91651009D02*
X115966666Y-91746247D01*
X115966666Y-91746247D02*
X115966666Y-91984342D01*
X115966666Y-91984342D02*
X115919047Y-92079580D01*
X115919047Y-92079580D02*
X115871428Y-92127200D01*
X115871428Y-92127200D02*
X115776190Y-92174819D01*
X115776190Y-92174819D02*
X115538095Y-92174819D01*
X115538095Y-92174819D02*
X115442857Y-92127200D01*
X115442857Y-92127200D02*
X115395238Y-92079580D01*
X99164819Y-93858094D02*
X98164819Y-93858094D01*
X98164819Y-93858094D02*
X98164819Y-93619999D01*
X98164819Y-93619999D02*
X98212438Y-93477142D01*
X98212438Y-93477142D02*
X98307676Y-93381904D01*
X98307676Y-93381904D02*
X98402914Y-93334285D01*
X98402914Y-93334285D02*
X98593390Y-93286666D01*
X98593390Y-93286666D02*
X98736247Y-93286666D01*
X98736247Y-93286666D02*
X98926723Y-93334285D01*
X98926723Y-93334285D02*
X99021961Y-93381904D01*
X99021961Y-93381904D02*
X99117200Y-93477142D01*
X99117200Y-93477142D02*
X99164819Y-93619999D01*
X99164819Y-93619999D02*
X99164819Y-93858094D01*
X98498152Y-92429523D02*
X99164819Y-92429523D01*
X98117200Y-92667618D02*
X98831485Y-92905713D01*
X98831485Y-92905713D02*
X98831485Y-92286666D01*
X85063866Y-106374761D02*
X85063866Y-105612857D01*
X85444819Y-105993809D02*
X84682914Y-105993809D01*
X85444819Y-105136666D02*
X84444819Y-105136666D01*
X85063866Y-105041428D02*
X85444819Y-104755714D01*
X84778152Y-104755714D02*
X85159104Y-105136666D01*
X84778152Y-104327142D02*
X85444819Y-104327142D01*
X84873390Y-104327142D02*
X84825771Y-104279523D01*
X84825771Y-104279523D02*
X84778152Y-104184285D01*
X84778152Y-104184285D02*
X84778152Y-104041428D01*
X84778152Y-104041428D02*
X84825771Y-103946190D01*
X84825771Y-103946190D02*
X84921009Y-103898571D01*
X84921009Y-103898571D02*
X85444819Y-103898571D01*
X85444819Y-103279523D02*
X85397200Y-103374761D01*
X85397200Y-103374761D02*
X85349580Y-103422380D01*
X85349580Y-103422380D02*
X85254342Y-103469999D01*
X85254342Y-103469999D02*
X84968628Y-103469999D01*
X84968628Y-103469999D02*
X84873390Y-103422380D01*
X84873390Y-103422380D02*
X84825771Y-103374761D01*
X84825771Y-103374761D02*
X84778152Y-103279523D01*
X84778152Y-103279523D02*
X84778152Y-103136666D01*
X84778152Y-103136666D02*
X84825771Y-103041428D01*
X84825771Y-103041428D02*
X84873390Y-102993809D01*
X84873390Y-102993809D02*
X84968628Y-102946190D01*
X84968628Y-102946190D02*
X85254342Y-102946190D01*
X85254342Y-102946190D02*
X85349580Y-102993809D01*
X85349580Y-102993809D02*
X85397200Y-103041428D01*
X85397200Y-103041428D02*
X85444819Y-103136666D01*
X85444819Y-103136666D02*
X85444819Y-103279523D01*
X85397200Y-102089047D02*
X85444819Y-102184285D01*
X85444819Y-102184285D02*
X85444819Y-102374761D01*
X85444819Y-102374761D02*
X85397200Y-102469999D01*
X85397200Y-102469999D02*
X85349580Y-102517618D01*
X85349580Y-102517618D02*
X85254342Y-102565237D01*
X85254342Y-102565237D02*
X84968628Y-102565237D01*
X84968628Y-102565237D02*
X84873390Y-102517618D01*
X84873390Y-102517618D02*
X84825771Y-102469999D01*
X84825771Y-102469999D02*
X84778152Y-102374761D01*
X84778152Y-102374761D02*
X84778152Y-102184285D01*
X84778152Y-102184285D02*
X84825771Y-102089047D01*
X85444819Y-101660475D02*
X84444819Y-101660475D01*
X85063866Y-101565237D02*
X85444819Y-101279523D01*
X84778152Y-101279523D02*
X85159104Y-101660475D01*
X85444819Y-100089046D02*
X84778152Y-100089046D01*
X84444819Y-100089046D02*
X84492438Y-100136665D01*
X84492438Y-100136665D02*
X84540057Y-100089046D01*
X84540057Y-100089046D02*
X84492438Y-100041427D01*
X84492438Y-100041427D02*
X84444819Y-100089046D01*
X84444819Y-100089046D02*
X84540057Y-100089046D01*
X84778152Y-99612856D02*
X85444819Y-99612856D01*
X84873390Y-99612856D02*
X84825771Y-99565237D01*
X84825771Y-99565237D02*
X84778152Y-99469999D01*
X84778152Y-99469999D02*
X84778152Y-99327142D01*
X84778152Y-99327142D02*
X84825771Y-99231904D01*
X84825771Y-99231904D02*
X84921009Y-99184285D01*
X84921009Y-99184285D02*
X85444819Y-99184285D01*
X84778152Y-98708094D02*
X85778152Y-98708094D01*
X84825771Y-98708094D02*
X84778152Y-98612856D01*
X84778152Y-98612856D02*
X84778152Y-98422380D01*
X84778152Y-98422380D02*
X84825771Y-98327142D01*
X84825771Y-98327142D02*
X84873390Y-98279523D01*
X84873390Y-98279523D02*
X84968628Y-98231904D01*
X84968628Y-98231904D02*
X85254342Y-98231904D01*
X85254342Y-98231904D02*
X85349580Y-98279523D01*
X85349580Y-98279523D02*
X85397200Y-98327142D01*
X85397200Y-98327142D02*
X85444819Y-98422380D01*
X85444819Y-98422380D02*
X85444819Y-98612856D01*
X85444819Y-98612856D02*
X85397200Y-98708094D01*
X84778152Y-97374761D02*
X85444819Y-97374761D01*
X84778152Y-97803332D02*
X85301961Y-97803332D01*
X85301961Y-97803332D02*
X85397200Y-97755713D01*
X85397200Y-97755713D02*
X85444819Y-97660475D01*
X85444819Y-97660475D02*
X85444819Y-97517618D01*
X85444819Y-97517618D02*
X85397200Y-97422380D01*
X85397200Y-97422380D02*
X85349580Y-97374761D01*
X84778152Y-97041427D02*
X84778152Y-96660475D01*
X84444819Y-96898570D02*
X85301961Y-96898570D01*
X85301961Y-96898570D02*
X85397200Y-96850951D01*
X85397200Y-96850951D02*
X85444819Y-96755713D01*
X85444819Y-96755713D02*
X85444819Y-96660475D01*
X85063866Y-96327141D02*
X85063866Y-95565237D01*
X87208094Y-94897200D02*
X87303332Y-94944819D01*
X87303332Y-94944819D02*
X87493808Y-94944819D01*
X87493808Y-94944819D02*
X87589046Y-94897200D01*
X87589046Y-94897200D02*
X87636665Y-94801961D01*
X87636665Y-94801961D02*
X87636665Y-94754342D01*
X87636665Y-94754342D02*
X87589046Y-94659104D01*
X87589046Y-94659104D02*
X87493808Y-94611485D01*
X87493808Y-94611485D02*
X87350951Y-94611485D01*
X87350951Y-94611485D02*
X87255713Y-94563866D01*
X87255713Y-94563866D02*
X87208094Y-94468628D01*
X87208094Y-94468628D02*
X87208094Y-94421009D01*
X87208094Y-94421009D02*
X87255713Y-94325771D01*
X87255713Y-94325771D02*
X87350951Y-94278152D01*
X87350951Y-94278152D02*
X87493808Y-94278152D01*
X87493808Y-94278152D02*
X87589046Y-94325771D01*
X87969999Y-94278152D02*
X88208094Y-94944819D01*
X88446189Y-94278152D02*
X88208094Y-94944819D01*
X88208094Y-94944819D02*
X88112856Y-95182914D01*
X88112856Y-95182914D02*
X88065237Y-95230533D01*
X88065237Y-95230533D02*
X87969999Y-95278152D01*
X88827142Y-94278152D02*
X88827142Y-94944819D01*
X88827142Y-94373390D02*
X88874761Y-94325771D01*
X88874761Y-94325771D02*
X88969999Y-94278152D01*
X88969999Y-94278152D02*
X89112856Y-94278152D01*
X89112856Y-94278152D02*
X89208094Y-94325771D01*
X89208094Y-94325771D02*
X89255713Y-94421009D01*
X89255713Y-94421009D02*
X89255713Y-94944819D01*
X90160475Y-94897200D02*
X90065237Y-94944819D01*
X90065237Y-94944819D02*
X89874761Y-94944819D01*
X89874761Y-94944819D02*
X89779523Y-94897200D01*
X89779523Y-94897200D02*
X89731904Y-94849580D01*
X89731904Y-94849580D02*
X89684285Y-94754342D01*
X89684285Y-94754342D02*
X89684285Y-94468628D01*
X89684285Y-94468628D02*
X89731904Y-94373390D01*
X89731904Y-94373390D02*
X89779523Y-94325771D01*
X89779523Y-94325771D02*
X89874761Y-94278152D01*
X89874761Y-94278152D02*
X90065237Y-94278152D01*
X90065237Y-94278152D02*
X90160475Y-94325771D01*
X91208095Y-94278152D02*
X91589047Y-94278152D01*
X91350952Y-93944819D02*
X91350952Y-94801961D01*
X91350952Y-94801961D02*
X91398571Y-94897200D01*
X91398571Y-94897200D02*
X91493809Y-94944819D01*
X91493809Y-94944819D02*
X91589047Y-94944819D01*
X92303333Y-94897200D02*
X92208095Y-94944819D01*
X92208095Y-94944819D02*
X92017619Y-94944819D01*
X92017619Y-94944819D02*
X91922381Y-94897200D01*
X91922381Y-94897200D02*
X91874762Y-94801961D01*
X91874762Y-94801961D02*
X91874762Y-94421009D01*
X91874762Y-94421009D02*
X91922381Y-94325771D01*
X91922381Y-94325771D02*
X92017619Y-94278152D01*
X92017619Y-94278152D02*
X92208095Y-94278152D01*
X92208095Y-94278152D02*
X92303333Y-94325771D01*
X92303333Y-94325771D02*
X92350952Y-94421009D01*
X92350952Y-94421009D02*
X92350952Y-94516247D01*
X92350952Y-94516247D02*
X91874762Y-94611485D01*
X92731905Y-94897200D02*
X92827143Y-94944819D01*
X92827143Y-94944819D02*
X93017619Y-94944819D01*
X93017619Y-94944819D02*
X93112857Y-94897200D01*
X93112857Y-94897200D02*
X93160476Y-94801961D01*
X93160476Y-94801961D02*
X93160476Y-94754342D01*
X93160476Y-94754342D02*
X93112857Y-94659104D01*
X93112857Y-94659104D02*
X93017619Y-94611485D01*
X93017619Y-94611485D02*
X92874762Y-94611485D01*
X92874762Y-94611485D02*
X92779524Y-94563866D01*
X92779524Y-94563866D02*
X92731905Y-94468628D01*
X92731905Y-94468628D02*
X92731905Y-94421009D01*
X92731905Y-94421009D02*
X92779524Y-94325771D01*
X92779524Y-94325771D02*
X92874762Y-94278152D01*
X92874762Y-94278152D02*
X93017619Y-94278152D01*
X93017619Y-94278152D02*
X93112857Y-94325771D01*
X93446191Y-94278152D02*
X93827143Y-94278152D01*
X93589048Y-93944819D02*
X93589048Y-94801961D01*
X93589048Y-94801961D02*
X93636667Y-94897200D01*
X93636667Y-94897200D02*
X93731905Y-94944819D01*
X93731905Y-94944819D02*
X93827143Y-94944819D01*
X107414819Y-104736666D02*
X106938628Y-105069999D01*
X107414819Y-105308094D02*
X106414819Y-105308094D01*
X106414819Y-105308094D02*
X106414819Y-104927142D01*
X106414819Y-104927142D02*
X106462438Y-104831904D01*
X106462438Y-104831904D02*
X106510057Y-104784285D01*
X106510057Y-104784285D02*
X106605295Y-104736666D01*
X106605295Y-104736666D02*
X106748152Y-104736666D01*
X106748152Y-104736666D02*
X106843390Y-104784285D01*
X106843390Y-104784285D02*
X106891009Y-104831904D01*
X106891009Y-104831904D02*
X106938628Y-104927142D01*
X106938628Y-104927142D02*
X106938628Y-105308094D01*
X106510057Y-104355713D02*
X106462438Y-104308094D01*
X106462438Y-104308094D02*
X106414819Y-104212856D01*
X106414819Y-104212856D02*
X106414819Y-103974761D01*
X106414819Y-103974761D02*
X106462438Y-103879523D01*
X106462438Y-103879523D02*
X106510057Y-103831904D01*
X106510057Y-103831904D02*
X106605295Y-103784285D01*
X106605295Y-103784285D02*
X106700533Y-103784285D01*
X106700533Y-103784285D02*
X106843390Y-103831904D01*
X106843390Y-103831904D02*
X107414819Y-104403332D01*
X107414819Y-104403332D02*
X107414819Y-103784285D01*
X123624761Y-99974819D02*
X123291428Y-99498628D01*
X123053333Y-99974819D02*
X123053333Y-98974819D01*
X123053333Y-98974819D02*
X123434285Y-98974819D01*
X123434285Y-98974819D02*
X123529523Y-99022438D01*
X123529523Y-99022438D02*
X123577142Y-99070057D01*
X123577142Y-99070057D02*
X123624761Y-99165295D01*
X123624761Y-99165295D02*
X123624761Y-99308152D01*
X123624761Y-99308152D02*
X123577142Y-99403390D01*
X123577142Y-99403390D02*
X123529523Y-99451009D01*
X123529523Y-99451009D02*
X123434285Y-99498628D01*
X123434285Y-99498628D02*
X123053333Y-99498628D01*
X123910476Y-98974819D02*
X124243809Y-99974819D01*
X124243809Y-99974819D02*
X124577142Y-98974819D01*
X124862857Y-99070057D02*
X124910476Y-99022438D01*
X124910476Y-99022438D02*
X125005714Y-98974819D01*
X125005714Y-98974819D02*
X125243809Y-98974819D01*
X125243809Y-98974819D02*
X125339047Y-99022438D01*
X125339047Y-99022438D02*
X125386666Y-99070057D01*
X125386666Y-99070057D02*
X125434285Y-99165295D01*
X125434285Y-99165295D02*
X125434285Y-99260533D01*
X125434285Y-99260533D02*
X125386666Y-99403390D01*
X125386666Y-99403390D02*
X124815238Y-99974819D01*
X124815238Y-99974819D02*
X125434285Y-99974819D01*
X121774819Y-100086191D02*
X121108152Y-100086191D01*
X121298628Y-100086191D02*
X121203390Y-100038572D01*
X121203390Y-100038572D02*
X121155771Y-99990953D01*
X121155771Y-99990953D02*
X121108152Y-99895715D01*
X121108152Y-99895715D02*
X121108152Y-99800477D01*
X121727200Y-99086191D02*
X121774819Y-99181429D01*
X121774819Y-99181429D02*
X121774819Y-99371905D01*
X121774819Y-99371905D02*
X121727200Y-99467143D01*
X121727200Y-99467143D02*
X121631961Y-99514762D01*
X121631961Y-99514762D02*
X121251009Y-99514762D01*
X121251009Y-99514762D02*
X121155771Y-99467143D01*
X121155771Y-99467143D02*
X121108152Y-99371905D01*
X121108152Y-99371905D02*
X121108152Y-99181429D01*
X121108152Y-99181429D02*
X121155771Y-99086191D01*
X121155771Y-99086191D02*
X121251009Y-99038572D01*
X121251009Y-99038572D02*
X121346247Y-99038572D01*
X121346247Y-99038572D02*
X121441485Y-99514762D01*
X121108152Y-98752857D02*
X121108152Y-98371905D01*
X120774819Y-98610000D02*
X121631961Y-98610000D01*
X121631961Y-98610000D02*
X121727200Y-98562381D01*
X121727200Y-98562381D02*
X121774819Y-98467143D01*
X121774819Y-98467143D02*
X121774819Y-98371905D01*
X121774819Y-97610000D02*
X121251009Y-97610000D01*
X121251009Y-97610000D02*
X121155771Y-97657619D01*
X121155771Y-97657619D02*
X121108152Y-97752857D01*
X121108152Y-97752857D02*
X121108152Y-97943333D01*
X121108152Y-97943333D02*
X121155771Y-98038571D01*
X121727200Y-97610000D02*
X121774819Y-97705238D01*
X121774819Y-97705238D02*
X121774819Y-97943333D01*
X121774819Y-97943333D02*
X121727200Y-98038571D01*
X121727200Y-98038571D02*
X121631961Y-98086190D01*
X121631961Y-98086190D02*
X121536723Y-98086190D01*
X121536723Y-98086190D02*
X121441485Y-98038571D01*
X121441485Y-98038571D02*
X121393866Y-97943333D01*
X121393866Y-97943333D02*
X121393866Y-97705238D01*
X121393866Y-97705238D02*
X121346247Y-97610000D01*
X121774819Y-97133809D02*
X121108152Y-97133809D01*
X121298628Y-97133809D02*
X121203390Y-97086190D01*
X121203390Y-97086190D02*
X121155771Y-97038571D01*
X121155771Y-97038571D02*
X121108152Y-96943333D01*
X121108152Y-96943333D02*
X121108152Y-96848095D01*
X121774819Y-96086190D02*
X120774819Y-96086190D01*
X121727200Y-96086190D02*
X121774819Y-96181428D01*
X121774819Y-96181428D02*
X121774819Y-96371904D01*
X121774819Y-96371904D02*
X121727200Y-96467142D01*
X121727200Y-96467142D02*
X121679580Y-96514761D01*
X121679580Y-96514761D02*
X121584342Y-96562380D01*
X121584342Y-96562380D02*
X121298628Y-96562380D01*
X121298628Y-96562380D02*
X121203390Y-96514761D01*
X121203390Y-96514761D02*
X121155771Y-96467142D01*
X121155771Y-96467142D02*
X121108152Y-96371904D01*
X121108152Y-96371904D02*
X121108152Y-96181428D01*
X121108152Y-96181428D02*
X121155771Y-96086190D01*
X121774819Y-94419523D02*
X120774819Y-94419523D01*
X121727200Y-94419523D02*
X121774819Y-94514761D01*
X121774819Y-94514761D02*
X121774819Y-94705237D01*
X121774819Y-94705237D02*
X121727200Y-94800475D01*
X121727200Y-94800475D02*
X121679580Y-94848094D01*
X121679580Y-94848094D02*
X121584342Y-94895713D01*
X121584342Y-94895713D02*
X121298628Y-94895713D01*
X121298628Y-94895713D02*
X121203390Y-94848094D01*
X121203390Y-94848094D02*
X121155771Y-94800475D01*
X121155771Y-94800475D02*
X121108152Y-94705237D01*
X121108152Y-94705237D02*
X121108152Y-94514761D01*
X121108152Y-94514761D02*
X121155771Y-94419523D01*
X121108152Y-93514761D02*
X121774819Y-93514761D01*
X121108152Y-93943332D02*
X121631961Y-93943332D01*
X121631961Y-93943332D02*
X121727200Y-93895713D01*
X121727200Y-93895713D02*
X121774819Y-93800475D01*
X121774819Y-93800475D02*
X121774819Y-93657618D01*
X121774819Y-93657618D02*
X121727200Y-93562380D01*
X121727200Y-93562380D02*
X121679580Y-93514761D01*
X121774819Y-93038570D02*
X121108152Y-93038570D01*
X121298628Y-93038570D02*
X121203390Y-92990951D01*
X121203390Y-92990951D02*
X121155771Y-92943332D01*
X121155771Y-92943332D02*
X121108152Y-92848094D01*
X121108152Y-92848094D02*
X121108152Y-92752856D01*
X121774819Y-91990951D02*
X121251009Y-91990951D01*
X121251009Y-91990951D02*
X121155771Y-92038570D01*
X121155771Y-92038570D02*
X121108152Y-92133808D01*
X121108152Y-92133808D02*
X121108152Y-92324284D01*
X121108152Y-92324284D02*
X121155771Y-92419522D01*
X121727200Y-91990951D02*
X121774819Y-92086189D01*
X121774819Y-92086189D02*
X121774819Y-92324284D01*
X121774819Y-92324284D02*
X121727200Y-92419522D01*
X121727200Y-92419522D02*
X121631961Y-92467141D01*
X121631961Y-92467141D02*
X121536723Y-92467141D01*
X121536723Y-92467141D02*
X121441485Y-92419522D01*
X121441485Y-92419522D02*
X121393866Y-92324284D01*
X121393866Y-92324284D02*
X121393866Y-92086189D01*
X121393866Y-92086189D02*
X121346247Y-91990951D01*
X121108152Y-91657617D02*
X121108152Y-91276665D01*
X120774819Y-91514760D02*
X121631961Y-91514760D01*
X121631961Y-91514760D02*
X121727200Y-91467141D01*
X121727200Y-91467141D02*
X121774819Y-91371903D01*
X121774819Y-91371903D02*
X121774819Y-91276665D01*
X121774819Y-90943331D02*
X121108152Y-90943331D01*
X120774819Y-90943331D02*
X120822438Y-90990950D01*
X120822438Y-90990950D02*
X120870057Y-90943331D01*
X120870057Y-90943331D02*
X120822438Y-90895712D01*
X120822438Y-90895712D02*
X120774819Y-90943331D01*
X120774819Y-90943331D02*
X120870057Y-90943331D01*
X121774819Y-90324284D02*
X121727200Y-90419522D01*
X121727200Y-90419522D02*
X121679580Y-90467141D01*
X121679580Y-90467141D02*
X121584342Y-90514760D01*
X121584342Y-90514760D02*
X121298628Y-90514760D01*
X121298628Y-90514760D02*
X121203390Y-90467141D01*
X121203390Y-90467141D02*
X121155771Y-90419522D01*
X121155771Y-90419522D02*
X121108152Y-90324284D01*
X121108152Y-90324284D02*
X121108152Y-90181427D01*
X121108152Y-90181427D02*
X121155771Y-90086189D01*
X121155771Y-90086189D02*
X121203390Y-90038570D01*
X121203390Y-90038570D02*
X121298628Y-89990951D01*
X121298628Y-89990951D02*
X121584342Y-89990951D01*
X121584342Y-89990951D02*
X121679580Y-90038570D01*
X121679580Y-90038570D02*
X121727200Y-90086189D01*
X121727200Y-90086189D02*
X121774819Y-90181427D01*
X121774819Y-90181427D02*
X121774819Y-90324284D01*
X121108152Y-89562379D02*
X121774819Y-89562379D01*
X121203390Y-89562379D02*
X121155771Y-89514760D01*
X121155771Y-89514760D02*
X121108152Y-89419522D01*
X121108152Y-89419522D02*
X121108152Y-89276665D01*
X121108152Y-89276665D02*
X121155771Y-89181427D01*
X121155771Y-89181427D02*
X121251009Y-89133808D01*
X121251009Y-89133808D02*
X121774819Y-89133808D01*
X114718095Y-105514819D02*
X114718095Y-106324342D01*
X114718095Y-106324342D02*
X114765714Y-106419580D01*
X114765714Y-106419580D02*
X114813333Y-106467200D01*
X114813333Y-106467200D02*
X114908571Y-106514819D01*
X114908571Y-106514819D02*
X115099047Y-106514819D01*
X115099047Y-106514819D02*
X115194285Y-106467200D01*
X115194285Y-106467200D02*
X115241904Y-106419580D01*
X115241904Y-106419580D02*
X115289523Y-106324342D01*
X115289523Y-106324342D02*
X115289523Y-105514819D01*
X116289523Y-106514819D02*
X115718095Y-106514819D01*
X116003809Y-106514819D02*
X116003809Y-105514819D01*
X116003809Y-105514819D02*
X115908571Y-105657676D01*
X115908571Y-105657676D02*
X115813333Y-105752914D01*
X115813333Y-105752914D02*
X115718095Y-105800533D01*
X113411429Y-79823866D02*
X114173334Y-79823866D01*
X113792381Y-80204819D02*
X113792381Y-79442914D01*
X115125714Y-79204819D02*
X114649524Y-79204819D01*
X114649524Y-79204819D02*
X114601905Y-79681009D01*
X114601905Y-79681009D02*
X114649524Y-79633390D01*
X114649524Y-79633390D02*
X114744762Y-79585771D01*
X114744762Y-79585771D02*
X114982857Y-79585771D01*
X114982857Y-79585771D02*
X115078095Y-79633390D01*
X115078095Y-79633390D02*
X115125714Y-79681009D01*
X115125714Y-79681009D02*
X115173333Y-79776247D01*
X115173333Y-79776247D02*
X115173333Y-80014342D01*
X115173333Y-80014342D02*
X115125714Y-80109580D01*
X115125714Y-80109580D02*
X115078095Y-80157200D01*
X115078095Y-80157200D02*
X114982857Y-80204819D01*
X114982857Y-80204819D02*
X114744762Y-80204819D01*
X114744762Y-80204819D02*
X114649524Y-80157200D01*
X114649524Y-80157200D02*
X114601905Y-80109580D01*
X115506667Y-79538152D02*
X115744762Y-80204819D01*
X115744762Y-80204819D02*
X115982857Y-79538152D01*
X117125715Y-80204819D02*
X117125715Y-79538152D01*
X117125715Y-79204819D02*
X117078096Y-79252438D01*
X117078096Y-79252438D02*
X117125715Y-79300057D01*
X117125715Y-79300057D02*
X117173334Y-79252438D01*
X117173334Y-79252438D02*
X117125715Y-79204819D01*
X117125715Y-79204819D02*
X117125715Y-79300057D01*
X117601905Y-79538152D02*
X117601905Y-80204819D01*
X117601905Y-79633390D02*
X117649524Y-79585771D01*
X117649524Y-79585771D02*
X117744762Y-79538152D01*
X117744762Y-79538152D02*
X117887619Y-79538152D01*
X117887619Y-79538152D02*
X117982857Y-79585771D01*
X117982857Y-79585771D02*
X118030476Y-79681009D01*
X118030476Y-79681009D02*
X118030476Y-80204819D01*
X118506667Y-79823866D02*
X119268572Y-79823866D01*
X109478095Y-84124819D02*
X110049523Y-84124819D01*
X109763809Y-85124819D02*
X109763809Y-84124819D01*
X110382857Y-85124819D02*
X110382857Y-84124819D01*
X110382857Y-84124819D02*
X110763809Y-84124819D01*
X110763809Y-84124819D02*
X110859047Y-84172438D01*
X110859047Y-84172438D02*
X110906666Y-84220057D01*
X110906666Y-84220057D02*
X110954285Y-84315295D01*
X110954285Y-84315295D02*
X110954285Y-84458152D01*
X110954285Y-84458152D02*
X110906666Y-84553390D01*
X110906666Y-84553390D02*
X110859047Y-84601009D01*
X110859047Y-84601009D02*
X110763809Y-84648628D01*
X110763809Y-84648628D02*
X110382857Y-84648628D01*
X111287619Y-84124819D02*
X111906666Y-84124819D01*
X111906666Y-84124819D02*
X111573333Y-84505771D01*
X111573333Y-84505771D02*
X111716190Y-84505771D01*
X111716190Y-84505771D02*
X111811428Y-84553390D01*
X111811428Y-84553390D02*
X111859047Y-84601009D01*
X111859047Y-84601009D02*
X111906666Y-84696247D01*
X111906666Y-84696247D02*
X111906666Y-84934342D01*
X111906666Y-84934342D02*
X111859047Y-85029580D01*
X111859047Y-85029580D02*
X111811428Y-85077200D01*
X111811428Y-85077200D02*
X111716190Y-85124819D01*
X111716190Y-85124819D02*
X111430476Y-85124819D01*
X111430476Y-85124819D02*
X111335238Y-85077200D01*
X111335238Y-85077200D02*
X111287619Y-85029580D01*
X109267080Y-107846666D02*
X109314700Y-107894285D01*
X109314700Y-107894285D02*
X109362319Y-108037142D01*
X109362319Y-108037142D02*
X109362319Y-108132380D01*
X109362319Y-108132380D02*
X109314700Y-108275237D01*
X109314700Y-108275237D02*
X109219461Y-108370475D01*
X109219461Y-108370475D02*
X109124223Y-108418094D01*
X109124223Y-108418094D02*
X108933747Y-108465713D01*
X108933747Y-108465713D02*
X108790890Y-108465713D01*
X108790890Y-108465713D02*
X108600414Y-108418094D01*
X108600414Y-108418094D02*
X108505176Y-108370475D01*
X108505176Y-108370475D02*
X108409938Y-108275237D01*
X108409938Y-108275237D02*
X108362319Y-108132380D01*
X108362319Y-108132380D02*
X108362319Y-108037142D01*
X108362319Y-108037142D02*
X108409938Y-107894285D01*
X108409938Y-107894285D02*
X108457557Y-107846666D01*
X109362319Y-106894285D02*
X109362319Y-107465713D01*
X109362319Y-107179999D02*
X108362319Y-107179999D01*
X108362319Y-107179999D02*
X108505176Y-107275237D01*
X108505176Y-107275237D02*
X108600414Y-107370475D01*
X108600414Y-107370475D02*
X108648033Y-107465713D01*
X86074819Y-115140476D02*
X85074819Y-115140476D01*
X85693866Y-115045238D02*
X86074819Y-114759524D01*
X85408152Y-114759524D02*
X85789104Y-115140476D01*
X85408152Y-114330952D02*
X86074819Y-114330952D01*
X85503390Y-114330952D02*
X85455771Y-114283333D01*
X85455771Y-114283333D02*
X85408152Y-114188095D01*
X85408152Y-114188095D02*
X85408152Y-114045238D01*
X85408152Y-114045238D02*
X85455771Y-113950000D01*
X85455771Y-113950000D02*
X85551009Y-113902381D01*
X85551009Y-113902381D02*
X86074819Y-113902381D01*
X86074819Y-113283333D02*
X86027200Y-113378571D01*
X86027200Y-113378571D02*
X85979580Y-113426190D01*
X85979580Y-113426190D02*
X85884342Y-113473809D01*
X85884342Y-113473809D02*
X85598628Y-113473809D01*
X85598628Y-113473809D02*
X85503390Y-113426190D01*
X85503390Y-113426190D02*
X85455771Y-113378571D01*
X85455771Y-113378571D02*
X85408152Y-113283333D01*
X85408152Y-113283333D02*
X85408152Y-113140476D01*
X85408152Y-113140476D02*
X85455771Y-113045238D01*
X85455771Y-113045238D02*
X85503390Y-112997619D01*
X85503390Y-112997619D02*
X85598628Y-112950000D01*
X85598628Y-112950000D02*
X85884342Y-112950000D01*
X85884342Y-112950000D02*
X85979580Y-112997619D01*
X85979580Y-112997619D02*
X86027200Y-113045238D01*
X86027200Y-113045238D02*
X86074819Y-113140476D01*
X86074819Y-113140476D02*
X86074819Y-113283333D01*
X86027200Y-112092857D02*
X86074819Y-112188095D01*
X86074819Y-112188095D02*
X86074819Y-112378571D01*
X86074819Y-112378571D02*
X86027200Y-112473809D01*
X86027200Y-112473809D02*
X85979580Y-112521428D01*
X85979580Y-112521428D02*
X85884342Y-112569047D01*
X85884342Y-112569047D02*
X85598628Y-112569047D01*
X85598628Y-112569047D02*
X85503390Y-112521428D01*
X85503390Y-112521428D02*
X85455771Y-112473809D01*
X85455771Y-112473809D02*
X85408152Y-112378571D01*
X85408152Y-112378571D02*
X85408152Y-112188095D01*
X85408152Y-112188095D02*
X85455771Y-112092857D01*
X86074819Y-111664285D02*
X85074819Y-111664285D01*
X85693866Y-111569047D02*
X86074819Y-111283333D01*
X85408152Y-111283333D02*
X85789104Y-111664285D01*
X85408152Y-110235713D02*
X85408152Y-109854761D01*
X85074819Y-110092856D02*
X85931961Y-110092856D01*
X85931961Y-110092856D02*
X86027200Y-110045237D01*
X86027200Y-110045237D02*
X86074819Y-109949999D01*
X86074819Y-109949999D02*
X86074819Y-109854761D01*
X86027200Y-109140475D02*
X86074819Y-109235713D01*
X86074819Y-109235713D02*
X86074819Y-109426189D01*
X86074819Y-109426189D02*
X86027200Y-109521427D01*
X86027200Y-109521427D02*
X85931961Y-109569046D01*
X85931961Y-109569046D02*
X85551009Y-109569046D01*
X85551009Y-109569046D02*
X85455771Y-109521427D01*
X85455771Y-109521427D02*
X85408152Y-109426189D01*
X85408152Y-109426189D02*
X85408152Y-109235713D01*
X85408152Y-109235713D02*
X85455771Y-109140475D01*
X85455771Y-109140475D02*
X85551009Y-109092856D01*
X85551009Y-109092856D02*
X85646247Y-109092856D01*
X85646247Y-109092856D02*
X85741485Y-109569046D01*
X86027200Y-108711903D02*
X86074819Y-108616665D01*
X86074819Y-108616665D02*
X86074819Y-108426189D01*
X86074819Y-108426189D02*
X86027200Y-108330951D01*
X86027200Y-108330951D02*
X85931961Y-108283332D01*
X85931961Y-108283332D02*
X85884342Y-108283332D01*
X85884342Y-108283332D02*
X85789104Y-108330951D01*
X85789104Y-108330951D02*
X85741485Y-108426189D01*
X85741485Y-108426189D02*
X85741485Y-108569046D01*
X85741485Y-108569046D02*
X85693866Y-108664284D01*
X85693866Y-108664284D02*
X85598628Y-108711903D01*
X85598628Y-108711903D02*
X85551009Y-108711903D01*
X85551009Y-108711903D02*
X85455771Y-108664284D01*
X85455771Y-108664284D02*
X85408152Y-108569046D01*
X85408152Y-108569046D02*
X85408152Y-108426189D01*
X85408152Y-108426189D02*
X85455771Y-108330951D01*
X85408152Y-107997617D02*
X85408152Y-107616665D01*
X85074819Y-107854760D02*
X85931961Y-107854760D01*
X85931961Y-107854760D02*
X86027200Y-107807141D01*
X86027200Y-107807141D02*
X86074819Y-107711903D01*
X86074819Y-107711903D02*
X86074819Y-107616665D01*
X112665833Y-94409580D02*
X112618214Y-94457200D01*
X112618214Y-94457200D02*
X112475357Y-94504819D01*
X112475357Y-94504819D02*
X112380119Y-94504819D01*
X112380119Y-94504819D02*
X112237262Y-94457200D01*
X112237262Y-94457200D02*
X112142024Y-94361961D01*
X112142024Y-94361961D02*
X112094405Y-94266723D01*
X112094405Y-94266723D02*
X112046786Y-94076247D01*
X112046786Y-94076247D02*
X112046786Y-93933390D01*
X112046786Y-93933390D02*
X112094405Y-93742914D01*
X112094405Y-93742914D02*
X112142024Y-93647676D01*
X112142024Y-93647676D02*
X112237262Y-93552438D01*
X112237262Y-93552438D02*
X112380119Y-93504819D01*
X112380119Y-93504819D02*
X112475357Y-93504819D01*
X112475357Y-93504819D02*
X112618214Y-93552438D01*
X112618214Y-93552438D02*
X112665833Y-93600057D01*
X113522976Y-93838152D02*
X113522976Y-94504819D01*
X113284881Y-93457200D02*
X113046786Y-94171485D01*
X113046786Y-94171485D02*
X113665833Y-94171485D01*
X88648095Y-82362438D02*
X88552857Y-82314819D01*
X88552857Y-82314819D02*
X88410000Y-82314819D01*
X88410000Y-82314819D02*
X88267143Y-82362438D01*
X88267143Y-82362438D02*
X88171905Y-82457676D01*
X88171905Y-82457676D02*
X88124286Y-82552914D01*
X88124286Y-82552914D02*
X88076667Y-82743390D01*
X88076667Y-82743390D02*
X88076667Y-82886247D01*
X88076667Y-82886247D02*
X88124286Y-83076723D01*
X88124286Y-83076723D02*
X88171905Y-83171961D01*
X88171905Y-83171961D02*
X88267143Y-83267200D01*
X88267143Y-83267200D02*
X88410000Y-83314819D01*
X88410000Y-83314819D02*
X88505238Y-83314819D01*
X88505238Y-83314819D02*
X88648095Y-83267200D01*
X88648095Y-83267200D02*
X88695714Y-83219580D01*
X88695714Y-83219580D02*
X88695714Y-82886247D01*
X88695714Y-82886247D02*
X88505238Y-82886247D01*
X89124286Y-83314819D02*
X89124286Y-82314819D01*
X89124286Y-82314819D02*
X89695714Y-83314819D01*
X89695714Y-83314819D02*
X89695714Y-82314819D01*
X90171905Y-83314819D02*
X90171905Y-82314819D01*
X90171905Y-82314819D02*
X90410000Y-82314819D01*
X90410000Y-82314819D02*
X90552857Y-82362438D01*
X90552857Y-82362438D02*
X90648095Y-82457676D01*
X90648095Y-82457676D02*
X90695714Y-82552914D01*
X90695714Y-82552914D02*
X90743333Y-82743390D01*
X90743333Y-82743390D02*
X90743333Y-82886247D01*
X90743333Y-82886247D02*
X90695714Y-83076723D01*
X90695714Y-83076723D02*
X90648095Y-83171961D01*
X90648095Y-83171961D02*
X90552857Y-83267200D01*
X90552857Y-83267200D02*
X90410000Y-83314819D01*
X90410000Y-83314819D02*
X90171905Y-83314819D01*
X108598095Y-100564819D02*
X109169523Y-100564819D01*
X108883809Y-101564819D02*
X108883809Y-100564819D01*
X109502857Y-101564819D02*
X109502857Y-100564819D01*
X109502857Y-100564819D02*
X109883809Y-100564819D01*
X109883809Y-100564819D02*
X109979047Y-100612438D01*
X109979047Y-100612438D02*
X110026666Y-100660057D01*
X110026666Y-100660057D02*
X110074285Y-100755295D01*
X110074285Y-100755295D02*
X110074285Y-100898152D01*
X110074285Y-100898152D02*
X110026666Y-100993390D01*
X110026666Y-100993390D02*
X109979047Y-101041009D01*
X109979047Y-101041009D02*
X109883809Y-101088628D01*
X109883809Y-101088628D02*
X109502857Y-101088628D01*
X110931428Y-100898152D02*
X110931428Y-101564819D01*
X110693333Y-100517200D02*
X110455238Y-101231485D01*
X110455238Y-101231485D02*
X111074285Y-101231485D01*
X121414819Y-88141904D02*
X122224342Y-88141904D01*
X122224342Y-88141904D02*
X122319580Y-88094285D01*
X122319580Y-88094285D02*
X122367200Y-88046666D01*
X122367200Y-88046666D02*
X122414819Y-87951428D01*
X122414819Y-87951428D02*
X122414819Y-87760952D01*
X122414819Y-87760952D02*
X122367200Y-87665714D01*
X122367200Y-87665714D02*
X122319580Y-87618095D01*
X122319580Y-87618095D02*
X122224342Y-87570476D01*
X122224342Y-87570476D02*
X121414819Y-87570476D01*
X121414819Y-86665714D02*
X121414819Y-86856190D01*
X121414819Y-86856190D02*
X121462438Y-86951428D01*
X121462438Y-86951428D02*
X121510057Y-86999047D01*
X121510057Y-86999047D02*
X121652914Y-87094285D01*
X121652914Y-87094285D02*
X121843390Y-87141904D01*
X121843390Y-87141904D02*
X122224342Y-87141904D01*
X122224342Y-87141904D02*
X122319580Y-87094285D01*
X122319580Y-87094285D02*
X122367200Y-87046666D01*
X122367200Y-87046666D02*
X122414819Y-86951428D01*
X122414819Y-86951428D02*
X122414819Y-86760952D01*
X122414819Y-86760952D02*
X122367200Y-86665714D01*
X122367200Y-86665714D02*
X122319580Y-86618095D01*
X122319580Y-86618095D02*
X122224342Y-86570476D01*
X122224342Y-86570476D02*
X121986247Y-86570476D01*
X121986247Y-86570476D02*
X121891009Y-86618095D01*
X121891009Y-86618095D02*
X121843390Y-86665714D01*
X121843390Y-86665714D02*
X121795771Y-86760952D01*
X121795771Y-86760952D02*
X121795771Y-86951428D01*
X121795771Y-86951428D02*
X121843390Y-87046666D01*
X121843390Y-87046666D02*
X121891009Y-87094285D01*
X121891009Y-87094285D02*
X121986247Y-87141904D01*
X120041905Y-85584819D02*
X120041905Y-84584819D01*
X120041905Y-84584819D02*
X120280000Y-84584819D01*
X120280000Y-84584819D02*
X120422857Y-84632438D01*
X120422857Y-84632438D02*
X120518095Y-84727676D01*
X120518095Y-84727676D02*
X120565714Y-84822914D01*
X120565714Y-84822914D02*
X120613333Y-85013390D01*
X120613333Y-85013390D02*
X120613333Y-85156247D01*
X120613333Y-85156247D02*
X120565714Y-85346723D01*
X120565714Y-85346723D02*
X120518095Y-85441961D01*
X120518095Y-85441961D02*
X120422857Y-85537200D01*
X120422857Y-85537200D02*
X120280000Y-85584819D01*
X120280000Y-85584819D02*
X120041905Y-85584819D01*
X120946667Y-84584819D02*
X121565714Y-84584819D01*
X121565714Y-84584819D02*
X121232381Y-84965771D01*
X121232381Y-84965771D02*
X121375238Y-84965771D01*
X121375238Y-84965771D02*
X121470476Y-85013390D01*
X121470476Y-85013390D02*
X121518095Y-85061009D01*
X121518095Y-85061009D02*
X121565714Y-85156247D01*
X121565714Y-85156247D02*
X121565714Y-85394342D01*
X121565714Y-85394342D02*
X121518095Y-85489580D01*
X121518095Y-85489580D02*
X121470476Y-85537200D01*
X121470476Y-85537200D02*
X121375238Y-85584819D01*
X121375238Y-85584819D02*
X121089524Y-85584819D01*
X121089524Y-85584819D02*
X120994286Y-85537200D01*
X120994286Y-85537200D02*
X120946667Y-85489580D01*
X124914819Y-84293334D02*
X124248152Y-84293334D01*
X124438628Y-84293334D02*
X124343390Y-84245715D01*
X124343390Y-84245715D02*
X124295771Y-84198096D01*
X124295771Y-84198096D02*
X124248152Y-84102858D01*
X124248152Y-84102858D02*
X124248152Y-84007620D01*
X124867200Y-83293334D02*
X124914819Y-83388572D01*
X124914819Y-83388572D02*
X124914819Y-83579048D01*
X124914819Y-83579048D02*
X124867200Y-83674286D01*
X124867200Y-83674286D02*
X124771961Y-83721905D01*
X124771961Y-83721905D02*
X124391009Y-83721905D01*
X124391009Y-83721905D02*
X124295771Y-83674286D01*
X124295771Y-83674286D02*
X124248152Y-83579048D01*
X124248152Y-83579048D02*
X124248152Y-83388572D01*
X124248152Y-83388572D02*
X124295771Y-83293334D01*
X124295771Y-83293334D02*
X124391009Y-83245715D01*
X124391009Y-83245715D02*
X124486247Y-83245715D01*
X124486247Y-83245715D02*
X124581485Y-83721905D01*
X124248152Y-82960000D02*
X124248152Y-82579048D01*
X123914819Y-82817143D02*
X124771961Y-82817143D01*
X124771961Y-82817143D02*
X124867200Y-82769524D01*
X124867200Y-82769524D02*
X124914819Y-82674286D01*
X124914819Y-82674286D02*
X124914819Y-82579048D01*
X124914819Y-81817143D02*
X124391009Y-81817143D01*
X124391009Y-81817143D02*
X124295771Y-81864762D01*
X124295771Y-81864762D02*
X124248152Y-81960000D01*
X124248152Y-81960000D02*
X124248152Y-82150476D01*
X124248152Y-82150476D02*
X124295771Y-82245714D01*
X124867200Y-81817143D02*
X124914819Y-81912381D01*
X124914819Y-81912381D02*
X124914819Y-82150476D01*
X124914819Y-82150476D02*
X124867200Y-82245714D01*
X124867200Y-82245714D02*
X124771961Y-82293333D01*
X124771961Y-82293333D02*
X124676723Y-82293333D01*
X124676723Y-82293333D02*
X124581485Y-82245714D01*
X124581485Y-82245714D02*
X124533866Y-82150476D01*
X124533866Y-82150476D02*
X124533866Y-81912381D01*
X124533866Y-81912381D02*
X124486247Y-81817143D01*
X124914819Y-81340952D02*
X124248152Y-81340952D01*
X124438628Y-81340952D02*
X124343390Y-81293333D01*
X124343390Y-81293333D02*
X124295771Y-81245714D01*
X124295771Y-81245714D02*
X124248152Y-81150476D01*
X124248152Y-81150476D02*
X124248152Y-81055238D01*
X124914819Y-80293333D02*
X123914819Y-80293333D01*
X124867200Y-80293333D02*
X124914819Y-80388571D01*
X124914819Y-80388571D02*
X124914819Y-80579047D01*
X124914819Y-80579047D02*
X124867200Y-80674285D01*
X124867200Y-80674285D02*
X124819580Y-80721904D01*
X124819580Y-80721904D02*
X124724342Y-80769523D01*
X124724342Y-80769523D02*
X124438628Y-80769523D01*
X124438628Y-80769523D02*
X124343390Y-80721904D01*
X124343390Y-80721904D02*
X124295771Y-80674285D01*
X124295771Y-80674285D02*
X124248152Y-80579047D01*
X124248152Y-80579047D02*
X124248152Y-80388571D01*
X124248152Y-80388571D02*
X124295771Y-80293333D01*
X124867200Y-79436190D02*
X124914819Y-79531428D01*
X124914819Y-79531428D02*
X124914819Y-79721904D01*
X124914819Y-79721904D02*
X124867200Y-79817142D01*
X124867200Y-79817142D02*
X124771961Y-79864761D01*
X124771961Y-79864761D02*
X124391009Y-79864761D01*
X124391009Y-79864761D02*
X124295771Y-79817142D01*
X124295771Y-79817142D02*
X124248152Y-79721904D01*
X124248152Y-79721904D02*
X124248152Y-79531428D01*
X124248152Y-79531428D02*
X124295771Y-79436190D01*
X124295771Y-79436190D02*
X124391009Y-79388571D01*
X124391009Y-79388571D02*
X124486247Y-79388571D01*
X124486247Y-79388571D02*
X124581485Y-79864761D01*
X124914819Y-78959999D02*
X124248152Y-78959999D01*
X124438628Y-78959999D02*
X124343390Y-78912380D01*
X124343390Y-78912380D02*
X124295771Y-78864761D01*
X124295771Y-78864761D02*
X124248152Y-78769523D01*
X124248152Y-78769523D02*
X124248152Y-78674285D01*
X124914819Y-77150475D02*
X124391009Y-77150475D01*
X124391009Y-77150475D02*
X124295771Y-77198094D01*
X124295771Y-77198094D02*
X124248152Y-77293332D01*
X124248152Y-77293332D02*
X124248152Y-77483808D01*
X124248152Y-77483808D02*
X124295771Y-77579046D01*
X124867200Y-77150475D02*
X124914819Y-77245713D01*
X124914819Y-77245713D02*
X124914819Y-77483808D01*
X124914819Y-77483808D02*
X124867200Y-77579046D01*
X124867200Y-77579046D02*
X124771961Y-77626665D01*
X124771961Y-77626665D02*
X124676723Y-77626665D01*
X124676723Y-77626665D02*
X124581485Y-77579046D01*
X124581485Y-77579046D02*
X124533866Y-77483808D01*
X124533866Y-77483808D02*
X124533866Y-77245713D01*
X124533866Y-77245713D02*
X124486247Y-77150475D01*
X124867200Y-76245713D02*
X124914819Y-76340951D01*
X124914819Y-76340951D02*
X124914819Y-76531427D01*
X124914819Y-76531427D02*
X124867200Y-76626665D01*
X124867200Y-76626665D02*
X124819580Y-76674284D01*
X124819580Y-76674284D02*
X124724342Y-76721903D01*
X124724342Y-76721903D02*
X124438628Y-76721903D01*
X124438628Y-76721903D02*
X124343390Y-76674284D01*
X124343390Y-76674284D02*
X124295771Y-76626665D01*
X124295771Y-76626665D02*
X124248152Y-76531427D01*
X124248152Y-76531427D02*
X124248152Y-76340951D01*
X124248152Y-76340951D02*
X124295771Y-76245713D01*
X124248152Y-75959998D02*
X124248152Y-75579046D01*
X123914819Y-75817141D02*
X124771961Y-75817141D01*
X124771961Y-75817141D02*
X124867200Y-75769522D01*
X124867200Y-75769522D02*
X124914819Y-75674284D01*
X124914819Y-75674284D02*
X124914819Y-75579046D01*
X124914819Y-75245712D02*
X124248152Y-75245712D01*
X123914819Y-75245712D02*
X123962438Y-75293331D01*
X123962438Y-75293331D02*
X124010057Y-75245712D01*
X124010057Y-75245712D02*
X123962438Y-75198093D01*
X123962438Y-75198093D02*
X123914819Y-75245712D01*
X123914819Y-75245712D02*
X124010057Y-75245712D01*
X124248152Y-74864760D02*
X124914819Y-74626665D01*
X124914819Y-74626665D02*
X124248152Y-74388570D01*
X124867200Y-73626665D02*
X124914819Y-73721903D01*
X124914819Y-73721903D02*
X124914819Y-73912379D01*
X124914819Y-73912379D02*
X124867200Y-74007617D01*
X124867200Y-74007617D02*
X124771961Y-74055236D01*
X124771961Y-74055236D02*
X124391009Y-74055236D01*
X124391009Y-74055236D02*
X124295771Y-74007617D01*
X124295771Y-74007617D02*
X124248152Y-73912379D01*
X124248152Y-73912379D02*
X124248152Y-73721903D01*
X124248152Y-73721903D02*
X124295771Y-73626665D01*
X124295771Y-73626665D02*
X124391009Y-73579046D01*
X124391009Y-73579046D02*
X124486247Y-73579046D01*
X124486247Y-73579046D02*
X124581485Y-74055236D01*
X123414761Y-115429819D02*
X123081428Y-114953628D01*
X122843333Y-115429819D02*
X122843333Y-114429819D01*
X122843333Y-114429819D02*
X123224285Y-114429819D01*
X123224285Y-114429819D02*
X123319523Y-114477438D01*
X123319523Y-114477438D02*
X123367142Y-114525057D01*
X123367142Y-114525057D02*
X123414761Y-114620295D01*
X123414761Y-114620295D02*
X123414761Y-114763152D01*
X123414761Y-114763152D02*
X123367142Y-114858390D01*
X123367142Y-114858390D02*
X123319523Y-114906009D01*
X123319523Y-114906009D02*
X123224285Y-114953628D01*
X123224285Y-114953628D02*
X122843333Y-114953628D01*
X123700476Y-114429819D02*
X124033809Y-115429819D01*
X124033809Y-115429819D02*
X124367142Y-114429819D01*
X125224285Y-115429819D02*
X124652857Y-115429819D01*
X124938571Y-115429819D02*
X124938571Y-114429819D01*
X124938571Y-114429819D02*
X124843333Y-114572676D01*
X124843333Y-114572676D02*
X124748095Y-114667914D01*
X124748095Y-114667914D02*
X124652857Y-114715533D01*
X121734819Y-115550001D02*
X121068152Y-115550001D01*
X121258628Y-115550001D02*
X121163390Y-115502382D01*
X121163390Y-115502382D02*
X121115771Y-115454763D01*
X121115771Y-115454763D02*
X121068152Y-115359525D01*
X121068152Y-115359525D02*
X121068152Y-115264287D01*
X121687200Y-114550001D02*
X121734819Y-114645239D01*
X121734819Y-114645239D02*
X121734819Y-114835715D01*
X121734819Y-114835715D02*
X121687200Y-114930953D01*
X121687200Y-114930953D02*
X121591961Y-114978572D01*
X121591961Y-114978572D02*
X121211009Y-114978572D01*
X121211009Y-114978572D02*
X121115771Y-114930953D01*
X121115771Y-114930953D02*
X121068152Y-114835715D01*
X121068152Y-114835715D02*
X121068152Y-114645239D01*
X121068152Y-114645239D02*
X121115771Y-114550001D01*
X121115771Y-114550001D02*
X121211009Y-114502382D01*
X121211009Y-114502382D02*
X121306247Y-114502382D01*
X121306247Y-114502382D02*
X121401485Y-114978572D01*
X121068152Y-114216667D02*
X121068152Y-113835715D01*
X120734819Y-114073810D02*
X121591961Y-114073810D01*
X121591961Y-114073810D02*
X121687200Y-114026191D01*
X121687200Y-114026191D02*
X121734819Y-113930953D01*
X121734819Y-113930953D02*
X121734819Y-113835715D01*
X121734819Y-113073810D02*
X121211009Y-113073810D01*
X121211009Y-113073810D02*
X121115771Y-113121429D01*
X121115771Y-113121429D02*
X121068152Y-113216667D01*
X121068152Y-113216667D02*
X121068152Y-113407143D01*
X121068152Y-113407143D02*
X121115771Y-113502381D01*
X121687200Y-113073810D02*
X121734819Y-113169048D01*
X121734819Y-113169048D02*
X121734819Y-113407143D01*
X121734819Y-113407143D02*
X121687200Y-113502381D01*
X121687200Y-113502381D02*
X121591961Y-113550000D01*
X121591961Y-113550000D02*
X121496723Y-113550000D01*
X121496723Y-113550000D02*
X121401485Y-113502381D01*
X121401485Y-113502381D02*
X121353866Y-113407143D01*
X121353866Y-113407143D02*
X121353866Y-113169048D01*
X121353866Y-113169048D02*
X121306247Y-113073810D01*
X121734819Y-112597619D02*
X121068152Y-112597619D01*
X121258628Y-112597619D02*
X121163390Y-112550000D01*
X121163390Y-112550000D02*
X121115771Y-112502381D01*
X121115771Y-112502381D02*
X121068152Y-112407143D01*
X121068152Y-112407143D02*
X121068152Y-112311905D01*
X121734819Y-111550000D02*
X120734819Y-111550000D01*
X121687200Y-111550000D02*
X121734819Y-111645238D01*
X121734819Y-111645238D02*
X121734819Y-111835714D01*
X121734819Y-111835714D02*
X121687200Y-111930952D01*
X121687200Y-111930952D02*
X121639580Y-111978571D01*
X121639580Y-111978571D02*
X121544342Y-112026190D01*
X121544342Y-112026190D02*
X121258628Y-112026190D01*
X121258628Y-112026190D02*
X121163390Y-111978571D01*
X121163390Y-111978571D02*
X121115771Y-111930952D01*
X121115771Y-111930952D02*
X121068152Y-111835714D01*
X121068152Y-111835714D02*
X121068152Y-111645238D01*
X121068152Y-111645238D02*
X121115771Y-111550000D01*
X121068152Y-110454761D02*
X121068152Y-110073809D01*
X120734819Y-110311904D02*
X121591961Y-110311904D01*
X121591961Y-110311904D02*
X121687200Y-110264285D01*
X121687200Y-110264285D02*
X121734819Y-110169047D01*
X121734819Y-110169047D02*
X121734819Y-110073809D01*
X121734819Y-109740475D02*
X121068152Y-109740475D01*
X121258628Y-109740475D02*
X121163390Y-109692856D01*
X121163390Y-109692856D02*
X121115771Y-109645237D01*
X121115771Y-109645237D02*
X121068152Y-109549999D01*
X121068152Y-109549999D02*
X121068152Y-109454761D01*
X121734819Y-109121427D02*
X121068152Y-109121427D01*
X120734819Y-109121427D02*
X120782438Y-109169046D01*
X120782438Y-109169046D02*
X120830057Y-109121427D01*
X120830057Y-109121427D02*
X120782438Y-109073808D01*
X120782438Y-109073808D02*
X120734819Y-109121427D01*
X120734819Y-109121427D02*
X120830057Y-109121427D01*
X121068152Y-108216666D02*
X121877676Y-108216666D01*
X121877676Y-108216666D02*
X121972914Y-108264285D01*
X121972914Y-108264285D02*
X122020533Y-108311904D01*
X122020533Y-108311904D02*
X122068152Y-108407142D01*
X122068152Y-108407142D02*
X122068152Y-108549999D01*
X122068152Y-108549999D02*
X122020533Y-108645237D01*
X121687200Y-108216666D02*
X121734819Y-108311904D01*
X121734819Y-108311904D02*
X121734819Y-108502380D01*
X121734819Y-108502380D02*
X121687200Y-108597618D01*
X121687200Y-108597618D02*
X121639580Y-108645237D01*
X121639580Y-108645237D02*
X121544342Y-108692856D01*
X121544342Y-108692856D02*
X121258628Y-108692856D01*
X121258628Y-108692856D02*
X121163390Y-108645237D01*
X121163390Y-108645237D02*
X121115771Y-108597618D01*
X121115771Y-108597618D02*
X121068152Y-108502380D01*
X121068152Y-108502380D02*
X121068152Y-108311904D01*
X121068152Y-108311904D02*
X121115771Y-108216666D01*
X121068152Y-107311904D02*
X121877676Y-107311904D01*
X121877676Y-107311904D02*
X121972914Y-107359523D01*
X121972914Y-107359523D02*
X122020533Y-107407142D01*
X122020533Y-107407142D02*
X122068152Y-107502380D01*
X122068152Y-107502380D02*
X122068152Y-107645237D01*
X122068152Y-107645237D02*
X122020533Y-107740475D01*
X121687200Y-107311904D02*
X121734819Y-107407142D01*
X121734819Y-107407142D02*
X121734819Y-107597618D01*
X121734819Y-107597618D02*
X121687200Y-107692856D01*
X121687200Y-107692856D02*
X121639580Y-107740475D01*
X121639580Y-107740475D02*
X121544342Y-107788094D01*
X121544342Y-107788094D02*
X121258628Y-107788094D01*
X121258628Y-107788094D02*
X121163390Y-107740475D01*
X121163390Y-107740475D02*
X121115771Y-107692856D01*
X121115771Y-107692856D02*
X121068152Y-107597618D01*
X121068152Y-107597618D02*
X121068152Y-107407142D01*
X121068152Y-107407142D02*
X121115771Y-107311904D01*
X121687200Y-106454761D02*
X121734819Y-106549999D01*
X121734819Y-106549999D02*
X121734819Y-106740475D01*
X121734819Y-106740475D02*
X121687200Y-106835713D01*
X121687200Y-106835713D02*
X121591961Y-106883332D01*
X121591961Y-106883332D02*
X121211009Y-106883332D01*
X121211009Y-106883332D02*
X121115771Y-106835713D01*
X121115771Y-106835713D02*
X121068152Y-106740475D01*
X121068152Y-106740475D02*
X121068152Y-106549999D01*
X121068152Y-106549999D02*
X121115771Y-106454761D01*
X121115771Y-106454761D02*
X121211009Y-106407142D01*
X121211009Y-106407142D02*
X121306247Y-106407142D01*
X121306247Y-106407142D02*
X121401485Y-106883332D01*
X121734819Y-105978570D02*
X121068152Y-105978570D01*
X121258628Y-105978570D02*
X121163390Y-105930951D01*
X121163390Y-105930951D02*
X121115771Y-105883332D01*
X121115771Y-105883332D02*
X121068152Y-105788094D01*
X121068152Y-105788094D02*
X121068152Y-105692856D01*
X121734819Y-104454760D02*
X121687200Y-104549998D01*
X121687200Y-104549998D02*
X121591961Y-104597617D01*
X121591961Y-104597617D02*
X120734819Y-104597617D01*
X121687200Y-103692855D02*
X121734819Y-103788093D01*
X121734819Y-103788093D02*
X121734819Y-103978569D01*
X121734819Y-103978569D02*
X121687200Y-104073807D01*
X121687200Y-104073807D02*
X121591961Y-104121426D01*
X121591961Y-104121426D02*
X121211009Y-104121426D01*
X121211009Y-104121426D02*
X121115771Y-104073807D01*
X121115771Y-104073807D02*
X121068152Y-103978569D01*
X121068152Y-103978569D02*
X121068152Y-103788093D01*
X121068152Y-103788093D02*
X121115771Y-103692855D01*
X121115771Y-103692855D02*
X121211009Y-103645236D01*
X121211009Y-103645236D02*
X121306247Y-103645236D01*
X121306247Y-103645236D02*
X121401485Y-104121426D01*
X121068152Y-103311902D02*
X121734819Y-103073807D01*
X121734819Y-103073807D02*
X121068152Y-102835712D01*
X121687200Y-102073807D02*
X121734819Y-102169045D01*
X121734819Y-102169045D02*
X121734819Y-102359521D01*
X121734819Y-102359521D02*
X121687200Y-102454759D01*
X121687200Y-102454759D02*
X121591961Y-102502378D01*
X121591961Y-102502378D02*
X121211009Y-102502378D01*
X121211009Y-102502378D02*
X121115771Y-102454759D01*
X121115771Y-102454759D02*
X121068152Y-102359521D01*
X121068152Y-102359521D02*
X121068152Y-102169045D01*
X121068152Y-102169045D02*
X121115771Y-102073807D01*
X121115771Y-102073807D02*
X121211009Y-102026188D01*
X121211009Y-102026188D02*
X121306247Y-102026188D01*
X121306247Y-102026188D02*
X121401485Y-102502378D01*
X121734819Y-101454759D02*
X121687200Y-101549997D01*
X121687200Y-101549997D02*
X121591961Y-101597616D01*
X121591961Y-101597616D02*
X120734819Y-101597616D01*
X107254819Y-92041904D02*
X108064342Y-92041904D01*
X108064342Y-92041904D02*
X108159580Y-91994285D01*
X108159580Y-91994285D02*
X108207200Y-91946666D01*
X108207200Y-91946666D02*
X108254819Y-91851428D01*
X108254819Y-91851428D02*
X108254819Y-91660952D01*
X108254819Y-91660952D02*
X108207200Y-91565714D01*
X108207200Y-91565714D02*
X108159580Y-91518095D01*
X108159580Y-91518095D02*
X108064342Y-91470476D01*
X108064342Y-91470476D02*
X107254819Y-91470476D01*
X107350057Y-91041904D02*
X107302438Y-90994285D01*
X107302438Y-90994285D02*
X107254819Y-90899047D01*
X107254819Y-90899047D02*
X107254819Y-90660952D01*
X107254819Y-90660952D02*
X107302438Y-90565714D01*
X107302438Y-90565714D02*
X107350057Y-90518095D01*
X107350057Y-90518095D02*
X107445295Y-90470476D01*
X107445295Y-90470476D02*
X107540533Y-90470476D01*
X107540533Y-90470476D02*
X107683390Y-90518095D01*
X107683390Y-90518095D02*
X108254819Y-91089523D01*
X108254819Y-91089523D02*
X108254819Y-90470476D01*
X118960833Y-93802319D02*
X118627500Y-93326128D01*
X118389405Y-93802319D02*
X118389405Y-92802319D01*
X118389405Y-92802319D02*
X118770357Y-92802319D01*
X118770357Y-92802319D02*
X118865595Y-92849938D01*
X118865595Y-92849938D02*
X118913214Y-92897557D01*
X118913214Y-92897557D02*
X118960833Y-92992795D01*
X118960833Y-92992795D02*
X118960833Y-93135652D01*
X118960833Y-93135652D02*
X118913214Y-93230890D01*
X118913214Y-93230890D02*
X118865595Y-93278509D01*
X118865595Y-93278509D02*
X118770357Y-93326128D01*
X118770357Y-93326128D02*
X118389405Y-93326128D01*
X119294167Y-92802319D02*
X119913214Y-92802319D01*
X119913214Y-92802319D02*
X119579881Y-93183271D01*
X119579881Y-93183271D02*
X119722738Y-93183271D01*
X119722738Y-93183271D02*
X119817976Y-93230890D01*
X119817976Y-93230890D02*
X119865595Y-93278509D01*
X119865595Y-93278509D02*
X119913214Y-93373747D01*
X119913214Y-93373747D02*
X119913214Y-93611842D01*
X119913214Y-93611842D02*
X119865595Y-93707080D01*
X119865595Y-93707080D02*
X119817976Y-93754700D01*
X119817976Y-93754700D02*
X119722738Y-93802319D01*
X119722738Y-93802319D02*
X119437024Y-93802319D01*
X119437024Y-93802319D02*
X119341786Y-93754700D01*
X119341786Y-93754700D02*
X119294167Y-93707080D01*
X117578095Y-110964819D02*
X118149523Y-110964819D01*
X117863809Y-111964819D02*
X117863809Y-110964819D01*
X118482857Y-111964819D02*
X118482857Y-110964819D01*
X118482857Y-110964819D02*
X118863809Y-110964819D01*
X118863809Y-110964819D02*
X118959047Y-111012438D01*
X118959047Y-111012438D02*
X119006666Y-111060057D01*
X119006666Y-111060057D02*
X119054285Y-111155295D01*
X119054285Y-111155295D02*
X119054285Y-111298152D01*
X119054285Y-111298152D02*
X119006666Y-111393390D01*
X119006666Y-111393390D02*
X118959047Y-111441009D01*
X118959047Y-111441009D02*
X118863809Y-111488628D01*
X118863809Y-111488628D02*
X118482857Y-111488628D01*
X119435238Y-111060057D02*
X119482857Y-111012438D01*
X119482857Y-111012438D02*
X119578095Y-110964819D01*
X119578095Y-110964819D02*
X119816190Y-110964819D01*
X119816190Y-110964819D02*
X119911428Y-111012438D01*
X119911428Y-111012438D02*
X119959047Y-111060057D01*
X119959047Y-111060057D02*
X120006666Y-111155295D01*
X120006666Y-111155295D02*
X120006666Y-111250533D01*
X120006666Y-111250533D02*
X119959047Y-111393390D01*
X119959047Y-111393390D02*
X119387619Y-111964819D01*
X119387619Y-111964819D02*
X120006666Y-111964819D01*
X100554819Y-101488094D02*
X99554819Y-101488094D01*
X99554819Y-101488094D02*
X99554819Y-101249999D01*
X99554819Y-101249999D02*
X99602438Y-101107142D01*
X99602438Y-101107142D02*
X99697676Y-101011904D01*
X99697676Y-101011904D02*
X99792914Y-100964285D01*
X99792914Y-100964285D02*
X99983390Y-100916666D01*
X99983390Y-100916666D02*
X100126247Y-100916666D01*
X100126247Y-100916666D02*
X100316723Y-100964285D01*
X100316723Y-100964285D02*
X100411961Y-101011904D01*
X100411961Y-101011904D02*
X100507200Y-101107142D01*
X100507200Y-101107142D02*
X100554819Y-101249999D01*
X100554819Y-101249999D02*
X100554819Y-101488094D01*
X100554819Y-99964285D02*
X100554819Y-100535713D01*
X100554819Y-100249999D02*
X99554819Y-100249999D01*
X99554819Y-100249999D02*
X99697676Y-100345237D01*
X99697676Y-100345237D02*
X99792914Y-100440475D01*
X99792914Y-100440475D02*
X99840533Y-100535713D01*
X105424819Y-85026666D02*
X104948628Y-85359999D01*
X105424819Y-85598094D02*
X104424819Y-85598094D01*
X104424819Y-85598094D02*
X104424819Y-85217142D01*
X104424819Y-85217142D02*
X104472438Y-85121904D01*
X104472438Y-85121904D02*
X104520057Y-85074285D01*
X104520057Y-85074285D02*
X104615295Y-85026666D01*
X104615295Y-85026666D02*
X104758152Y-85026666D01*
X104758152Y-85026666D02*
X104853390Y-85074285D01*
X104853390Y-85074285D02*
X104901009Y-85121904D01*
X104901009Y-85121904D02*
X104948628Y-85217142D01*
X104948628Y-85217142D02*
X104948628Y-85598094D01*
X104758152Y-84169523D02*
X105424819Y-84169523D01*
X104377200Y-84407618D02*
X105091485Y-84645713D01*
X105091485Y-84645713D02*
X105091485Y-84026666D01*
X98167381Y-109504819D02*
X97893571Y-109028628D01*
X97595952Y-109504819D02*
X97720952Y-108504819D01*
X97720952Y-108504819D02*
X98101905Y-108504819D01*
X98101905Y-108504819D02*
X98191190Y-108552438D01*
X98191190Y-108552438D02*
X98232857Y-108600057D01*
X98232857Y-108600057D02*
X98268571Y-108695295D01*
X98268571Y-108695295D02*
X98250714Y-108838152D01*
X98250714Y-108838152D02*
X98191190Y-108933390D01*
X98191190Y-108933390D02*
X98137619Y-108981009D01*
X98137619Y-108981009D02*
X98036429Y-109028628D01*
X98036429Y-109028628D02*
X97655476Y-109028628D01*
X99119762Y-109504819D02*
X98548333Y-109504819D01*
X98834048Y-109504819D02*
X98959048Y-108504819D01*
X98959048Y-108504819D02*
X98845952Y-108647676D01*
X98845952Y-108647676D02*
X98738810Y-108742914D01*
X98738810Y-108742914D02*
X98637619Y-108790533D01*
X100254819Y-85602857D02*
X99778628Y-85936190D01*
X100254819Y-86174285D02*
X99254819Y-86174285D01*
X99254819Y-86174285D02*
X99254819Y-85793333D01*
X99254819Y-85793333D02*
X99302438Y-85698095D01*
X99302438Y-85698095D02*
X99350057Y-85650476D01*
X99350057Y-85650476D02*
X99445295Y-85602857D01*
X99445295Y-85602857D02*
X99588152Y-85602857D01*
X99588152Y-85602857D02*
X99683390Y-85650476D01*
X99683390Y-85650476D02*
X99731009Y-85698095D01*
X99731009Y-85698095D02*
X99778628Y-85793333D01*
X99778628Y-85793333D02*
X99778628Y-86174285D01*
X100254819Y-84650476D02*
X100254819Y-85221904D01*
X100254819Y-84936190D02*
X99254819Y-84936190D01*
X99254819Y-84936190D02*
X99397676Y-85031428D01*
X99397676Y-85031428D02*
X99492914Y-85126666D01*
X99492914Y-85126666D02*
X99540533Y-85221904D01*
X99254819Y-83745714D02*
X99254819Y-84221904D01*
X99254819Y-84221904D02*
X99731009Y-84269523D01*
X99731009Y-84269523D02*
X99683390Y-84221904D01*
X99683390Y-84221904D02*
X99635771Y-84126666D01*
X99635771Y-84126666D02*
X99635771Y-83888571D01*
X99635771Y-83888571D02*
X99683390Y-83793333D01*
X99683390Y-83793333D02*
X99731009Y-83745714D01*
X99731009Y-83745714D02*
X99826247Y-83698095D01*
X99826247Y-83698095D02*
X100064342Y-83698095D01*
X100064342Y-83698095D02*
X100159580Y-83745714D01*
X100159580Y-83745714D02*
X100207200Y-83793333D01*
X100207200Y-83793333D02*
X100254819Y-83888571D01*
X100254819Y-83888571D02*
X100254819Y-84126666D01*
X100254819Y-84126666D02*
X100207200Y-84221904D01*
X100207200Y-84221904D02*
X100159580Y-84269523D01*
D12*
%TO.C,U4*%
X115080000Y-103710000D02*
X115080000Y-101910000D01*
X111860000Y-102710000D02*
X111860000Y-103510000D01*
X111860000Y-102710000D02*
X111860000Y-101910000D01*
X111910000Y-104010000D02*
X111580000Y-104250000D01*
X111580000Y-103770000D01*
X111910000Y-104010000D01*
G36*
X111910000Y-104010000D02*
G01*
X111580000Y-104250000D01*
X111580000Y-103770000D01*
X111910000Y-104010000D01*
G37*
%TO.C,R6*%
X109392500Y-104572776D02*
X109392500Y-105082224D01*
X108347500Y-104572776D02*
X108347500Y-105082224D01*
%TO.C,C8*%
X116891252Y-96385000D02*
X116368748Y-96385000D01*
X116891252Y-94915000D02*
X116368748Y-94915000D01*
%TO.C,TP8*%
X114370000Y-111120000D02*
G75*
G02*
X109770000Y-111120000I-2300000J0D01*
G01*
X109770000Y-111120000D02*
G75*
G02*
X114370000Y-111120000I2300000J0D01*
G01*
%TO.C,U5*%
X106250000Y-96610000D02*
X106250000Y-94810000D01*
X103030000Y-95610000D02*
X103030000Y-96410000D01*
X103030000Y-95610000D02*
X103030000Y-94810000D01*
X103080000Y-96910000D02*
X102750000Y-97150000D01*
X102750000Y-96670000D01*
X103080000Y-96910000D01*
G36*
X103080000Y-96910000D02*
G01*
X102750000Y-97150000D01*
X102750000Y-96670000D01*
X103080000Y-96910000D01*
G37*
%TO.C,U3*%
X110190000Y-91970000D02*
X111990000Y-91970000D01*
X111190000Y-88750000D02*
X110390000Y-88750000D01*
X111190000Y-88750000D02*
X111990000Y-88750000D01*
X109890000Y-88800000D02*
X109650000Y-88470000D01*
X110130000Y-88470000D01*
X109890000Y-88800000D01*
G36*
X109890000Y-88800000D02*
G01*
X109650000Y-88470000D01*
X110130000Y-88470000D01*
X109890000Y-88800000D01*
G37*
%TO.C,TP7*%
X109220000Y-111170000D02*
G75*
G02*
X104620000Y-111170000I-2300000J0D01*
G01*
X104620000Y-111170000D02*
G75*
G02*
X109220000Y-111170000I2300000J0D01*
G01*
%TO.C,RV3*%
X103670000Y-111000000D02*
X102340000Y-111000000D01*
X103670000Y-109670000D02*
X103670000Y-111000000D01*
X103670000Y-108400000D02*
X103670000Y-103260000D01*
X103670000Y-108400000D02*
X101010000Y-108400000D01*
X103670000Y-103260000D02*
X101010000Y-103260000D01*
X101010000Y-108400000D02*
X101010000Y-103260000D01*
%TO.C,TP6*%
X117690000Y-85130000D02*
G75*
G02*
X113090000Y-85130000I-2300000J0D01*
G01*
X113090000Y-85130000D02*
G75*
G02*
X117690000Y-85130000I2300000J0D01*
G01*
%TO.C,TP5*%
X120530000Y-89730000D02*
G75*
G02*
X115930000Y-89730000I-2300000J0D01*
G01*
X115930000Y-89730000D02*
G75*
G02*
X120530000Y-89730000I2300000J0D01*
G01*
%TO.C,D4*%
X100890000Y-90550000D02*
X100890000Y-91200000D01*
X102010000Y-91200000D02*
X99770000Y-91200000D01*
X99770000Y-91200000D02*
X99770000Y-95440000D01*
X102010000Y-91800000D02*
X99770000Y-91800000D01*
X102010000Y-91920000D02*
X99770000Y-91920000D01*
X102010000Y-92040000D02*
X99770000Y-92040000D01*
X102010000Y-95440000D02*
X102010000Y-91200000D01*
X99770000Y-95440000D02*
X102010000Y-95440000D01*
X100890000Y-96090000D02*
X100890000Y-95440000D01*
%TO.C,J1*%
X86440000Y-95540000D02*
X86440000Y-105890000D01*
X86440000Y-105890000D02*
X87390000Y-105890000D01*
X87140000Y-106390000D02*
X89040000Y-106390000D01*
X87390000Y-105890000D02*
X87140000Y-106390000D01*
X88840000Y-105890000D02*
X94240000Y-105890000D01*
X89040000Y-106390000D02*
X89090000Y-106390000D01*
X89090000Y-106390000D02*
X88840000Y-105890000D01*
X93940000Y-106390000D02*
X99040000Y-106390000D01*
X94240000Y-105890000D02*
X93940000Y-106390000D01*
X99040000Y-95540000D02*
X86440000Y-95540000D01*
X99040000Y-106390000D02*
X99040000Y-95540000D01*
%TO.C,SW2*%
X86580000Y-84860000D02*
X86880000Y-84860000D01*
X86580000Y-92480000D02*
X86580000Y-84860000D01*
X86580000Y-92480000D02*
X86880000Y-92480000D01*
X88820000Y-84860000D02*
X91960000Y-84860000D01*
X88820000Y-92480000D02*
X91960000Y-92480000D01*
X93900000Y-84860000D02*
X94200000Y-84860000D01*
X93900000Y-92480000D02*
X94200000Y-92480000D01*
X94200000Y-84860000D02*
X94200000Y-92480000D01*
X92930000Y-88670000D02*
G75*
G02*
X87850000Y-88670000I-2540000J0D01*
G01*
X87850000Y-88670000D02*
G75*
G02*
X92930000Y-88670000I2540000J0D01*
G01*
%TO.C,R2*%
X104897500Y-105012224D02*
X104897500Y-104502776D01*
X105942500Y-105012224D02*
X105942500Y-104502776D01*
%TO.C,RV2*%
X122890000Y-95920000D02*
X122890000Y-90780000D01*
X125550000Y-90780000D02*
X122890000Y-90780000D01*
X125550000Y-95920000D02*
X122890000Y-95920000D01*
X125550000Y-95920000D02*
X125550000Y-90780000D01*
X125550000Y-97190000D02*
X125550000Y-98520000D01*
X125550000Y-98520000D02*
X124220000Y-98520000D01*
%TO.C,J7*%
X88940000Y-66360000D02*
X89490000Y-66660000D01*
X88940000Y-68410000D02*
X88940000Y-66360000D01*
X88990000Y-73260000D02*
X89490000Y-73510000D01*
X88990000Y-78310000D02*
X88990000Y-73260000D01*
X89490000Y-65710000D02*
X109790000Y-65710000D01*
X89490000Y-66660000D02*
X89490000Y-65710000D01*
X89490000Y-68110000D02*
X88940000Y-68410000D01*
X89490000Y-73510000D02*
X89490000Y-68110000D01*
X109790000Y-65710000D02*
X109790000Y-78310000D01*
X109790000Y-78310000D02*
X88990000Y-78310000D01*
%TO.C,U1*%
X111400000Y-108040000D02*
X112800000Y-108040000D01*
X111390000Y-105720000D02*
X112800000Y-105720000D01*
X111020000Y-105770000D02*
X110780000Y-105440000D01*
X111260000Y-105440000D01*
X111020000Y-105770000D01*
G36*
X111020000Y-105770000D02*
G01*
X110780000Y-105440000D01*
X111260000Y-105440000D01*
X111020000Y-105770000D01*
G37*
%TO.C,J5*%
X121760000Y-65700000D02*
X110910000Y-65700000D01*
X110910000Y-65700000D02*
X110910000Y-78300000D01*
X121260000Y-70500000D02*
X121760000Y-70800000D01*
X121760000Y-70800000D02*
X121760000Y-65700000D01*
X121760000Y-75650000D02*
X121260000Y-75900000D01*
X121760000Y-75700000D02*
X121760000Y-75650000D01*
X121260000Y-75900000D02*
X121260000Y-70500000D01*
X121260000Y-77350000D02*
X121760000Y-77600000D01*
X121760000Y-77600000D02*
X121760000Y-75700000D01*
X121260000Y-78300000D02*
X121260000Y-77350000D01*
X110910000Y-78300000D02*
X121260000Y-78300000D01*
%TO.C,TP3*%
X113190000Y-81340000D02*
G75*
G02*
X108590000Y-81340000I-2300000J0D01*
G01*
X108590000Y-81340000D02*
G75*
G02*
X113190000Y-81340000I2300000J0D01*
G01*
%TO.C,C1*%
X106036248Y-108275000D02*
X106558752Y-108275000D01*
X106036248Y-106805000D02*
X106558752Y-106805000D01*
%TO.C,SW1*%
X87970000Y-107610000D02*
X95590000Y-107610000D01*
X87970000Y-107910000D02*
X87970000Y-107610000D01*
X87970000Y-112990000D02*
X87970000Y-109850000D01*
X87970000Y-115230000D02*
X87970000Y-114930000D01*
X95590000Y-107910000D02*
X95590000Y-107610000D01*
X95590000Y-112990000D02*
X95590000Y-109850000D01*
X95590000Y-115230000D02*
X87970000Y-115230000D01*
X95590000Y-115230000D02*
X95590000Y-114930000D01*
X94320000Y-111420000D02*
G75*
G02*
X89240000Y-111420000I-2540000J0D01*
G01*
X89240000Y-111420000D02*
G75*
G02*
X94320000Y-111420000I2540000J0D01*
G01*
%TO.C,C4*%
X110143752Y-93225000D02*
X109621248Y-93225000D01*
X110143752Y-94695000D02*
X109621248Y-94695000D01*
%TO.C,TP1*%
X88940000Y-80070000D02*
G75*
G02*
X84340000Y-80070000I-2300000J0D01*
G01*
X84340000Y-80070000D02*
G75*
G02*
X88940000Y-80070000I2300000J0D01*
G01*
%TO.C,TP4*%
X112930000Y-97900000D02*
G75*
G02*
X108330000Y-97900000I-2300000J0D01*
G01*
X108330000Y-97900000D02*
G75*
G02*
X112930000Y-97900000I2300000J0D01*
G01*
%TO.C,U6*%
X125450000Y-86632500D02*
X125450000Y-88042500D01*
X123130000Y-86642500D02*
X123130000Y-88042500D01*
X125730000Y-86502500D02*
X125400000Y-86262500D01*
X125730000Y-86022500D01*
X125730000Y-86502500D01*
G36*
X125730000Y-86502500D02*
G01*
X125400000Y-86262500D01*
X125730000Y-86022500D01*
X125730000Y-86502500D01*
G37*
%TO.C,D3*%
X122740000Y-83326000D02*
X122740000Y-83170000D01*
X122740000Y-81010000D02*
X122740000Y-80854000D01*
X122739999Y-83325515D02*
G75*
G02*
X119507666Y-83168608I-1559999J1235515D01*
G01*
X122220960Y-83169999D02*
G75*
G02*
X120138871Y-83169836I-1040960J1079999D01*
G01*
X119507666Y-81011392D02*
G75*
G02*
X122739999Y-80854485I1672334J-1078608D01*
G01*
X120138871Y-81010164D02*
G75*
G02*
X122220960Y-81010001I1041129J-1079836D01*
G01*
%TO.C,RV1*%
X122680000Y-111375000D02*
X122680000Y-106235000D01*
X125340000Y-106235000D02*
X122680000Y-106235000D01*
X125340000Y-111375000D02*
X122680000Y-111375000D01*
X125340000Y-111375000D02*
X125340000Y-106235000D01*
X125340000Y-112645000D02*
X125340000Y-113975000D01*
X125340000Y-113975000D02*
X124010000Y-113975000D01*
%TO.C,U2*%
X103660000Y-89990000D02*
X103660000Y-89190000D01*
X103660000Y-89990000D02*
X103660000Y-90790000D01*
X106880000Y-90990000D02*
X106880000Y-89190000D01*
X103710000Y-91290000D02*
X103380000Y-91530000D01*
X103380000Y-91050000D01*
X103710000Y-91290000D01*
G36*
X103710000Y-91290000D02*
G01*
X103380000Y-91530000D01*
X103380000Y-91050000D01*
X103710000Y-91290000D01*
G37*
%TO.C,R3*%
X116794724Y-93802500D02*
X116285276Y-93802500D01*
X116794724Y-92757500D02*
X116285276Y-92757500D01*
%TO.C,TP2*%
X120640000Y-108310000D02*
G75*
G02*
X116040000Y-108310000I-2300000J0D01*
G01*
X116040000Y-108310000D02*
G75*
G02*
X120640000Y-108310000I2300000J0D01*
G01*
%TO.C,D1*%
X100920000Y-102290000D02*
X106430000Y-102290000D01*
X100920000Y-98990000D02*
X100920000Y-102290000D01*
X100920000Y-98990000D02*
X106430000Y-98990000D01*
%TO.C,R4*%
X104377500Y-81825276D02*
X104377500Y-82334724D01*
X105422500Y-81825276D02*
X105422500Y-82334724D01*
%TO.C,R1*%
X98292776Y-108162500D02*
X98802224Y-108162500D01*
X98292776Y-107117500D02*
X98802224Y-107117500D01*
%TO.C,R15*%
X100152500Y-81462776D02*
X100152500Y-81972224D01*
X99107500Y-81462776D02*
X99107500Y-81972224D01*
%TD*%
M02*
