M48
; DRILL file {KiCad 8.0.1} date 2024-05-06T17:41:30-0700
; FORMAT={-:-/ absolute / inch / decimal}
; #@! TF.CreationDate,2024-05-06T17:41:30-07:00
; #@! TF.GenerationSoftware,Kicad,Pcbnew,8.0.1
; #@! TF.FileFunction,Plated,1,2,PTH
FMAT,2
INCH
; #@! TA.AperFunction,Plated,PTH,ViaDrill
T1C0.0118
; #@! TA.AperFunction,Plated,PTH,ComponentDrill
T2C0.0315
; #@! TA.AperFunction,Plated,PTH,ComponentDrill
T3C0.0320
; #@! TA.AperFunction,Plated,PTH,ComponentDrill
T4C0.0354
; #@! TA.AperFunction,Plated,PTH,ComponentDrill
T5C0.0394
; #@! TA.AperFunction,Plated,PTH,ComponentDrill
T6C0.0520
; #@! TA.AperFunction,Plated,PTH,ComponentDrill
T7C0.0984
%
G90
G05
T1
X3.9035Y-3.8335
X4.0118Y-3.6253
X4.2531Y-3.7606
X4.2874Y-4.0831
X4.3006Y-3.9108
X4.3854Y-4.0157
X4.4307Y-3.8827
X4.4453Y-3.6844
X4.4874Y-4.2091
X4.498Y-3.7583
X4.5157Y-3.5807
X4.5311Y-4.0402
X4.6201Y-3.8118
T2
X4.4988Y-4.342
X4.4988Y-4.4405
T3
X3.4587Y-3.3409
X3.4587Y-3.6409
X3.4634Y-4.2866
X3.4634Y-4.4866
X3.6587Y-3.3409
X3.6587Y-3.6409
X3.7634Y-4.2866
X3.7634Y-4.4866
T4
X4.2547Y-4.3763
X4.2547Y-4.4763
T5
X4.7787Y-4.2364
X4.7787Y-4.3364
X4.7787Y-4.4364
X4.7827Y-3.8264
X4.7827Y-3.9264
X4.7827Y-4.0264
T6
X3.6276Y-2.835
X3.6512Y-3.8657
X3.6512Y-4.0626
X3.8244Y-2.835
X4.0213Y-2.835
X4.2181Y-2.835
X4.6106Y-2.738
X4.6106Y-2.9348
X4.613Y-3.1921
X4.613Y-3.389
T7
X4.0339Y-4.3724
X4.0591Y-4.1185
X4.1488Y-3.5248
X4.8094Y-3.6315
M30
