%TF.GenerationSoftware,KiCad,Pcbnew,8.0.1*%
%TF.CreationDate,2024-06-10T18:05:53-07:00*%
%TF.ProjectId,knockControlBoard,6b6e6f63-6b43-46f6-9e74-726f6c426f61,rev?*%
%TF.SameCoordinates,Original*%
%TF.FileFunction,Legend,Top*%
%TF.FilePolarity,Positive*%
%FSLAX46Y46*%
G04 Gerber Fmt 4.6, Leading zero omitted, Abs format (unit mm)*
G04 Created by KiCad (PCBNEW 8.0.1) date 2024-06-10 18:05:53*
%MOMM*%
%LPD*%
G01*
G04 APERTURE LIST*
%ADD10C,0.125000*%
%ADD11C,0.150000*%
%ADD12C,0.120000*%
G04 APERTURE END LIST*
D10*
X-18408716Y-26400071D02*
X-18408716Y-25800071D01*
X-18123002Y-26400071D02*
X-18337287Y-26057214D01*
X-18123002Y-25800071D02*
X-18408716Y-26142928D01*
X-17908716Y-26000071D02*
X-17908716Y-26400071D01*
X-17908716Y-26057214D02*
X-17884906Y-26028642D01*
X-17884906Y-26028642D02*
X-17837287Y-26000071D01*
X-17837287Y-26000071D02*
X-17765859Y-26000071D01*
X-17765859Y-26000071D02*
X-17718240Y-26028642D01*
X-17718240Y-26028642D02*
X-17694430Y-26085785D01*
X-17694430Y-26085785D02*
X-17694430Y-26400071D01*
X-17384906Y-26400071D02*
X-17432525Y-26371500D01*
X-17432525Y-26371500D02*
X-17456335Y-26342928D01*
X-17456335Y-26342928D02*
X-17480144Y-26285785D01*
X-17480144Y-26285785D02*
X-17480144Y-26114357D01*
X-17480144Y-26114357D02*
X-17456335Y-26057214D01*
X-17456335Y-26057214D02*
X-17432525Y-26028642D01*
X-17432525Y-26028642D02*
X-17384906Y-26000071D01*
X-17384906Y-26000071D02*
X-17313478Y-26000071D01*
X-17313478Y-26000071D02*
X-17265859Y-26028642D01*
X-17265859Y-26028642D02*
X-17242049Y-26057214D01*
X-17242049Y-26057214D02*
X-17218240Y-26114357D01*
X-17218240Y-26114357D02*
X-17218240Y-26285785D01*
X-17218240Y-26285785D02*
X-17242049Y-26342928D01*
X-17242049Y-26342928D02*
X-17265859Y-26371500D01*
X-17265859Y-26371500D02*
X-17313478Y-26400071D01*
X-17313478Y-26400071D02*
X-17384906Y-26400071D01*
X-16789668Y-26371500D02*
X-16837287Y-26400071D01*
X-16837287Y-26400071D02*
X-16932525Y-26400071D01*
X-16932525Y-26400071D02*
X-16980144Y-26371500D01*
X-16980144Y-26371500D02*
X-17003954Y-26342928D01*
X-17003954Y-26342928D02*
X-17027763Y-26285785D01*
X-17027763Y-26285785D02*
X-17027763Y-26114357D01*
X-17027763Y-26114357D02*
X-17003954Y-26057214D01*
X-17003954Y-26057214D02*
X-16980144Y-26028642D01*
X-16980144Y-26028642D02*
X-16932525Y-26000071D01*
X-16932525Y-26000071D02*
X-16837287Y-26000071D01*
X-16837287Y-26000071D02*
X-16789668Y-26028642D01*
X-16575383Y-26400071D02*
X-16575383Y-25800071D01*
X-16527764Y-26171500D02*
X-16384907Y-26400071D01*
X-16384907Y-26000071D02*
X-16575383Y-26228642D01*
X-15503955Y-26400071D02*
X-15670621Y-26114357D01*
X-15789669Y-26400071D02*
X-15789669Y-25800071D01*
X-15789669Y-25800071D02*
X-15599193Y-25800071D01*
X-15599193Y-25800071D02*
X-15551574Y-25828642D01*
X-15551574Y-25828642D02*
X-15527764Y-25857214D01*
X-15527764Y-25857214D02*
X-15503955Y-25914357D01*
X-15503955Y-25914357D02*
X-15503955Y-26000071D01*
X-15503955Y-26000071D02*
X-15527764Y-26057214D01*
X-15527764Y-26057214D02*
X-15551574Y-26085785D01*
X-15551574Y-26085785D02*
X-15599193Y-26114357D01*
X-15599193Y-26114357D02*
X-15789669Y-26114357D01*
X-15099193Y-26371500D02*
X-15146812Y-26400071D01*
X-15146812Y-26400071D02*
X-15242050Y-26400071D01*
X-15242050Y-26400071D02*
X-15289669Y-26371500D01*
X-15289669Y-26371500D02*
X-15313478Y-26314357D01*
X-15313478Y-26314357D02*
X-15313478Y-26085785D01*
X-15313478Y-26085785D02*
X-15289669Y-26028642D01*
X-15289669Y-26028642D02*
X-15242050Y-26000071D01*
X-15242050Y-26000071D02*
X-15146812Y-26000071D01*
X-15146812Y-26000071D02*
X-15099193Y-26028642D01*
X-15099193Y-26028642D02*
X-15075383Y-26085785D01*
X-15075383Y-26085785D02*
X-15075383Y-26142928D01*
X-15075383Y-26142928D02*
X-15313478Y-26200071D01*
X-14932526Y-26000071D02*
X-14742050Y-26000071D01*
X-14861098Y-25800071D02*
X-14861098Y-26314357D01*
X-14861098Y-26314357D02*
X-14837288Y-26371500D01*
X-14837288Y-26371500D02*
X-14789669Y-26400071D01*
X-14789669Y-26400071D02*
X-14742050Y-26400071D01*
X-14361098Y-26400071D02*
X-14361098Y-26085785D01*
X-14361098Y-26085785D02*
X-14384908Y-26028642D01*
X-14384908Y-26028642D02*
X-14432527Y-26000071D01*
X-14432527Y-26000071D02*
X-14527765Y-26000071D01*
X-14527765Y-26000071D02*
X-14575384Y-26028642D01*
X-14361098Y-26371500D02*
X-14408717Y-26400071D01*
X-14408717Y-26400071D02*
X-14527765Y-26400071D01*
X-14527765Y-26400071D02*
X-14575384Y-26371500D01*
X-14575384Y-26371500D02*
X-14599193Y-26314357D01*
X-14599193Y-26314357D02*
X-14599193Y-26257214D01*
X-14599193Y-26257214D02*
X-14575384Y-26200071D01*
X-14575384Y-26200071D02*
X-14527765Y-26171500D01*
X-14527765Y-26171500D02*
X-14408717Y-26171500D01*
X-14408717Y-26171500D02*
X-14361098Y-26142928D01*
X-14123003Y-26400071D02*
X-14123003Y-26000071D01*
X-14123003Y-26114357D02*
X-14099193Y-26057214D01*
X-14099193Y-26057214D02*
X-14075384Y-26028642D01*
X-14075384Y-26028642D02*
X-14027765Y-26000071D01*
X-14027765Y-26000071D02*
X-13980146Y-26000071D01*
X-13599193Y-26400071D02*
X-13599193Y-25800071D01*
X-13599193Y-26371500D02*
X-13646812Y-26400071D01*
X-13646812Y-26400071D02*
X-13742050Y-26400071D01*
X-13742050Y-26400071D02*
X-13789669Y-26371500D01*
X-13789669Y-26371500D02*
X-13813479Y-26342928D01*
X-13813479Y-26342928D02*
X-13837288Y-26285785D01*
X-13837288Y-26285785D02*
X-13837288Y-26114357D01*
X-13837288Y-26114357D02*
X-13813479Y-26057214D01*
X-13813479Y-26057214D02*
X-13789669Y-26028642D01*
X-13789669Y-26028642D02*
X-13742050Y-26000071D01*
X-13742050Y-26000071D02*
X-13646812Y-26000071D01*
X-13646812Y-26000071D02*
X-13599193Y-26028642D01*
X-12694432Y-26342928D02*
X-12718241Y-26371500D01*
X-12718241Y-26371500D02*
X-12789670Y-26400071D01*
X-12789670Y-26400071D02*
X-12837289Y-26400071D01*
X-12837289Y-26400071D02*
X-12908717Y-26371500D01*
X-12908717Y-26371500D02*
X-12956336Y-26314357D01*
X-12956336Y-26314357D02*
X-12980146Y-26257214D01*
X-12980146Y-26257214D02*
X-13003955Y-26142928D01*
X-13003955Y-26142928D02*
X-13003955Y-26057214D01*
X-13003955Y-26057214D02*
X-12980146Y-25942928D01*
X-12980146Y-25942928D02*
X-12956336Y-25885785D01*
X-12956336Y-25885785D02*
X-12908717Y-25828642D01*
X-12908717Y-25828642D02*
X-12837289Y-25800071D01*
X-12837289Y-25800071D02*
X-12789670Y-25800071D01*
X-12789670Y-25800071D02*
X-12718241Y-25828642D01*
X-12718241Y-25828642D02*
X-12694432Y-25857214D01*
X-12408717Y-26400071D02*
X-12456336Y-26371500D01*
X-12456336Y-26371500D02*
X-12480146Y-26342928D01*
X-12480146Y-26342928D02*
X-12503955Y-26285785D01*
X-12503955Y-26285785D02*
X-12503955Y-26114357D01*
X-12503955Y-26114357D02*
X-12480146Y-26057214D01*
X-12480146Y-26057214D02*
X-12456336Y-26028642D01*
X-12456336Y-26028642D02*
X-12408717Y-26000071D01*
X-12408717Y-26000071D02*
X-12337289Y-26000071D01*
X-12337289Y-26000071D02*
X-12289670Y-26028642D01*
X-12289670Y-26028642D02*
X-12265860Y-26057214D01*
X-12265860Y-26057214D02*
X-12242051Y-26114357D01*
X-12242051Y-26114357D02*
X-12242051Y-26285785D01*
X-12242051Y-26285785D02*
X-12265860Y-26342928D01*
X-12265860Y-26342928D02*
X-12289670Y-26371500D01*
X-12289670Y-26371500D02*
X-12337289Y-26400071D01*
X-12337289Y-26400071D02*
X-12408717Y-26400071D01*
X-12027765Y-26000071D02*
X-12027765Y-26400071D01*
X-12027765Y-26057214D02*
X-12003955Y-26028642D01*
X-12003955Y-26028642D02*
X-11956336Y-26000071D01*
X-11956336Y-26000071D02*
X-11884908Y-26000071D01*
X-11884908Y-26000071D02*
X-11837289Y-26028642D01*
X-11837289Y-26028642D02*
X-11813479Y-26085785D01*
X-11813479Y-26085785D02*
X-11813479Y-26400071D01*
X-11646812Y-26000071D02*
X-11456336Y-26000071D01*
X-11575384Y-25800071D02*
X-11575384Y-26314357D01*
X-11575384Y-26314357D02*
X-11551574Y-26371500D01*
X-11551574Y-26371500D02*
X-11503955Y-26400071D01*
X-11503955Y-26400071D02*
X-11456336Y-26400071D01*
X-11289670Y-26400071D02*
X-11289670Y-26000071D01*
X-11289670Y-26114357D02*
X-11265860Y-26057214D01*
X-11265860Y-26057214D02*
X-11242051Y-26028642D01*
X-11242051Y-26028642D02*
X-11194432Y-26000071D01*
X-11194432Y-26000071D02*
X-11146813Y-26000071D01*
X-10908717Y-26400071D02*
X-10956336Y-26371500D01*
X-10956336Y-26371500D02*
X-10980146Y-26342928D01*
X-10980146Y-26342928D02*
X-11003955Y-26285785D01*
X-11003955Y-26285785D02*
X-11003955Y-26114357D01*
X-11003955Y-26114357D02*
X-10980146Y-26057214D01*
X-10980146Y-26057214D02*
X-10956336Y-26028642D01*
X-10956336Y-26028642D02*
X-10908717Y-26000071D01*
X-10908717Y-26000071D02*
X-10837289Y-26000071D01*
X-10837289Y-26000071D02*
X-10789670Y-26028642D01*
X-10789670Y-26028642D02*
X-10765860Y-26057214D01*
X-10765860Y-26057214D02*
X-10742051Y-26114357D01*
X-10742051Y-26114357D02*
X-10742051Y-26285785D01*
X-10742051Y-26285785D02*
X-10765860Y-26342928D01*
X-10765860Y-26342928D02*
X-10789670Y-26371500D01*
X-10789670Y-26371500D02*
X-10837289Y-26400071D01*
X-10837289Y-26400071D02*
X-10908717Y-26400071D01*
X-10456336Y-26400071D02*
X-10503955Y-26371500D01*
X-10503955Y-26371500D02*
X-10527765Y-26314357D01*
X-10527765Y-26314357D02*
X-10527765Y-25800071D01*
X-10194431Y-26400071D02*
X-10242050Y-26371500D01*
X-10242050Y-26371500D02*
X-10265860Y-26314357D01*
X-10265860Y-26314357D02*
X-10265860Y-25800071D01*
X-9813479Y-26371500D02*
X-9861098Y-26400071D01*
X-9861098Y-26400071D02*
X-9956336Y-26400071D01*
X-9956336Y-26400071D02*
X-10003955Y-26371500D01*
X-10003955Y-26371500D02*
X-10027764Y-26314357D01*
X-10027764Y-26314357D02*
X-10027764Y-26085785D01*
X-10027764Y-26085785D02*
X-10003955Y-26028642D01*
X-10003955Y-26028642D02*
X-9956336Y-26000071D01*
X-9956336Y-26000071D02*
X-9861098Y-26000071D01*
X-9861098Y-26000071D02*
X-9813479Y-26028642D01*
X-9813479Y-26028642D02*
X-9789669Y-26085785D01*
X-9789669Y-26085785D02*
X-9789669Y-26142928D01*
X-9789669Y-26142928D02*
X-10027764Y-26200071D01*
X-9575384Y-26400071D02*
X-9575384Y-26000071D01*
X-9575384Y-26114357D02*
X-9551574Y-26057214D01*
X-9551574Y-26057214D02*
X-9527765Y-26028642D01*
X-9527765Y-26028642D02*
X-9480146Y-26000071D01*
X-9480146Y-26000071D02*
X-9432527Y-26000071D01*
X-8765860Y-26600071D02*
X-8765860Y-25742928D01*
X-7742052Y-26400071D02*
X-7908718Y-26114357D01*
X-8027766Y-26400071D02*
X-8027766Y-25800071D01*
X-8027766Y-25800071D02*
X-7837290Y-25800071D01*
X-7837290Y-25800071D02*
X-7789671Y-25828642D01*
X-7789671Y-25828642D02*
X-7765861Y-25857214D01*
X-7765861Y-25857214D02*
X-7742052Y-25914357D01*
X-7742052Y-25914357D02*
X-7742052Y-26000071D01*
X-7742052Y-26000071D02*
X-7765861Y-26057214D01*
X-7765861Y-26057214D02*
X-7789671Y-26085785D01*
X-7789671Y-26085785D02*
X-7837290Y-26114357D01*
X-7837290Y-26114357D02*
X-8027766Y-26114357D01*
X-7432528Y-25800071D02*
X-7337290Y-25800071D01*
X-7337290Y-25800071D02*
X-7289671Y-25828642D01*
X-7289671Y-25828642D02*
X-7242052Y-25885785D01*
X-7242052Y-25885785D02*
X-7218242Y-26000071D01*
X-7218242Y-26000071D02*
X-7218242Y-26200071D01*
X-7218242Y-26200071D02*
X-7242052Y-26314357D01*
X-7242052Y-26314357D02*
X-7289671Y-26371500D01*
X-7289671Y-26371500D02*
X-7337290Y-26400071D01*
X-7337290Y-26400071D02*
X-7432528Y-26400071D01*
X-7432528Y-26400071D02*
X-7480147Y-26371500D01*
X-7480147Y-26371500D02*
X-7527766Y-26314357D01*
X-7527766Y-26314357D02*
X-7551575Y-26200071D01*
X-7551575Y-26200071D02*
X-7551575Y-26000071D01*
X-7551575Y-26000071D02*
X-7527766Y-25885785D01*
X-7527766Y-25885785D02*
X-7480147Y-25828642D01*
X-7480147Y-25828642D02*
X-7432528Y-25800071D01*
X-6718242Y-26342928D02*
X-6742051Y-26371500D01*
X-6742051Y-26371500D02*
X-6813480Y-26400071D01*
X-6813480Y-26400071D02*
X-6861099Y-26400071D01*
X-6861099Y-26400071D02*
X-6932527Y-26371500D01*
X-6932527Y-26371500D02*
X-6980146Y-26314357D01*
X-6980146Y-26314357D02*
X-7003956Y-26257214D01*
X-7003956Y-26257214D02*
X-7027765Y-26142928D01*
X-7027765Y-26142928D02*
X-7027765Y-26057214D01*
X-7027765Y-26057214D02*
X-7003956Y-25942928D01*
X-7003956Y-25942928D02*
X-6980146Y-25885785D01*
X-6980146Y-25885785D02*
X-6932527Y-25828642D01*
X-6932527Y-25828642D02*
X-6861099Y-25800071D01*
X-6861099Y-25800071D02*
X-6813480Y-25800071D01*
X-6813480Y-25800071D02*
X-6742051Y-25828642D01*
X-6742051Y-25828642D02*
X-6718242Y-25857214D01*
X-6503956Y-26400071D02*
X-6503956Y-25800071D01*
X-6218242Y-26400071D02*
X-6432527Y-26057214D01*
X-6218242Y-25800071D02*
X-6503956Y-26142928D01*
X-6003956Y-26085785D02*
X-5837289Y-26085785D01*
X-5765861Y-26400071D02*
X-6003956Y-26400071D01*
X-6003956Y-26400071D02*
X-6003956Y-25800071D01*
X-6003956Y-25800071D02*
X-5765861Y-25800071D01*
X-5623003Y-25800071D02*
X-5337289Y-25800071D01*
X-5480146Y-26400071D02*
X-5480146Y-25800071D01*
X-5170623Y-26085785D02*
X-5003956Y-26085785D01*
X-4932528Y-26400071D02*
X-5170623Y-26400071D01*
X-5170623Y-26400071D02*
X-5170623Y-25800071D01*
X-5170623Y-25800071D02*
X-4932528Y-25800071D01*
X-4718242Y-26400071D02*
X-4718242Y-25800071D01*
X-4718242Y-25800071D02*
X-4599194Y-25800071D01*
X-4599194Y-25800071D02*
X-4527766Y-25828642D01*
X-4527766Y-25828642D02*
X-4480147Y-25885785D01*
X-4480147Y-25885785D02*
X-4456337Y-25942928D01*
X-4456337Y-25942928D02*
X-4432528Y-26057214D01*
X-4432528Y-26057214D02*
X-4432528Y-26142928D01*
X-4432528Y-26142928D02*
X-4456337Y-26257214D01*
X-4456337Y-26257214D02*
X-4480147Y-26314357D01*
X-4480147Y-26314357D02*
X-4527766Y-26371500D01*
X-4527766Y-26371500D02*
X-4599194Y-26400071D01*
X-4599194Y-26400071D02*
X-4718242Y-26400071D01*
X-4242051Y-26228642D02*
X-4003956Y-26228642D01*
X-4289670Y-26400071D02*
X-4123004Y-25800071D01*
X-4123004Y-25800071D02*
X-3956337Y-26400071D01*
X-3408719Y-26400071D02*
X-3408719Y-25800071D01*
X-3170624Y-26400071D02*
X-3170624Y-25800071D01*
X-3170624Y-25800071D02*
X-2884910Y-26400071D01*
X-2884910Y-26400071D02*
X-2884910Y-25800071D01*
X-2361100Y-26342928D02*
X-2384909Y-26371500D01*
X-2384909Y-26371500D02*
X-2456338Y-26400071D01*
X-2456338Y-26400071D02*
X-2503957Y-26400071D01*
X-2503957Y-26400071D02*
X-2575385Y-26371500D01*
X-2575385Y-26371500D02*
X-2623004Y-26314357D01*
X-2623004Y-26314357D02*
X-2646814Y-26257214D01*
X-2646814Y-26257214D02*
X-2670623Y-26142928D01*
X-2670623Y-26142928D02*
X-2670623Y-26057214D01*
X-2670623Y-26057214D02*
X-2646814Y-25942928D01*
X-2646814Y-25942928D02*
X-2623004Y-25885785D01*
X-2623004Y-25885785D02*
X-2575385Y-25828642D01*
X-2575385Y-25828642D02*
X-2503957Y-25800071D01*
X-2503957Y-25800071D02*
X-2456338Y-25800071D01*
X-2456338Y-25800071D02*
X-2384909Y-25828642D01*
X-2384909Y-25828642D02*
X-2361100Y-25857214D01*
D11*
X-17251541Y-6123880D02*
X-17727731Y-6123880D01*
X-17727731Y-6123880D02*
X-17727731Y-4623880D01*
X-16727731Y-4623880D02*
X-16537255Y-4623880D01*
X-16537255Y-4623880D02*
X-16442017Y-4695309D01*
X-16442017Y-4695309D02*
X-16346779Y-4838166D01*
X-16346779Y-4838166D02*
X-16299160Y-5123880D01*
X-16299160Y-5123880D02*
X-16299160Y-5623880D01*
X-16299160Y-5623880D02*
X-16346779Y-5909594D01*
X-16346779Y-5909594D02*
X-16442017Y-6052452D01*
X-16442017Y-6052452D02*
X-16537255Y-6123880D01*
X-16537255Y-6123880D02*
X-16727731Y-6123880D01*
X-16727731Y-6123880D02*
X-16822969Y-6052452D01*
X-16822969Y-6052452D02*
X-16918207Y-5909594D01*
X-16918207Y-5909594D02*
X-16965826Y-5623880D01*
X-16965826Y-5623880D02*
X-16965826Y-5123880D01*
X-16965826Y-5123880D02*
X-16918207Y-4838166D01*
X-16918207Y-4838166D02*
X-16822969Y-4695309D01*
X-16822969Y-4695309D02*
X-16727731Y-4623880D01*
X-17346779Y-8538796D02*
X-17680112Y-7824510D01*
X-17918207Y-8538796D02*
X-17918207Y-7038796D01*
X-17918207Y-7038796D02*
X-17537255Y-7038796D01*
X-17537255Y-7038796D02*
X-17442017Y-7110225D01*
X-17442017Y-7110225D02*
X-17394398Y-7181653D01*
X-17394398Y-7181653D02*
X-17346779Y-7324510D01*
X-17346779Y-7324510D02*
X-17346779Y-7538796D01*
X-17346779Y-7538796D02*
X-17394398Y-7681653D01*
X-17394398Y-7681653D02*
X-17442017Y-7753082D01*
X-17442017Y-7753082D02*
X-17537255Y-7824510D01*
X-17537255Y-7824510D02*
X-17918207Y-7824510D01*
X-16727731Y-7038796D02*
X-16537255Y-7038796D01*
X-16537255Y-7038796D02*
X-16442017Y-7110225D01*
X-16442017Y-7110225D02*
X-16346779Y-7253082D01*
X-16346779Y-7253082D02*
X-16299160Y-7538796D01*
X-16299160Y-7538796D02*
X-16299160Y-8038796D01*
X-16299160Y-8038796D02*
X-16346779Y-8324510D01*
X-16346779Y-8324510D02*
X-16442017Y-8467368D01*
X-16442017Y-8467368D02*
X-16537255Y-8538796D01*
X-16537255Y-8538796D02*
X-16727731Y-8538796D01*
X-16727731Y-8538796D02*
X-16822969Y-8467368D01*
X-16822969Y-8467368D02*
X-16918207Y-8324510D01*
X-16918207Y-8324510D02*
X-16965826Y-8038796D01*
X-16965826Y-8038796D02*
X-16965826Y-7538796D01*
X-16965826Y-7538796D02*
X-16918207Y-7253082D01*
X-16918207Y-7253082D02*
X-16822969Y-7110225D01*
X-16822969Y-7110225D02*
X-16727731Y-7038796D01*
X-17156303Y-10953712D02*
X-17632493Y-10953712D01*
X-17632493Y-10953712D02*
X-17632493Y-9453712D01*
X-16870588Y-10882284D02*
X-16727731Y-10953712D01*
X-16727731Y-10953712D02*
X-16489636Y-10953712D01*
X-16489636Y-10953712D02*
X-16394398Y-10882284D01*
X-16394398Y-10882284D02*
X-16346779Y-10810855D01*
X-16346779Y-10810855D02*
X-16299160Y-10667998D01*
X-16299160Y-10667998D02*
X-16299160Y-10525141D01*
X-16299160Y-10525141D02*
X-16346779Y-10382284D01*
X-16346779Y-10382284D02*
X-16394398Y-10310855D01*
X-16394398Y-10310855D02*
X-16489636Y-10239426D01*
X-16489636Y-10239426D02*
X-16680112Y-10167998D01*
X-16680112Y-10167998D02*
X-16775350Y-10096569D01*
X-16775350Y-10096569D02*
X-16822969Y-10025141D01*
X-16822969Y-10025141D02*
X-16870588Y-9882284D01*
X-16870588Y-9882284D02*
X-16870588Y-9739426D01*
X-16870588Y-9739426D02*
X-16822969Y-9596569D01*
X-16822969Y-9596569D02*
X-16775350Y-9525141D01*
X-16775350Y-9525141D02*
X-16680112Y-9453712D01*
X-16680112Y-9453712D02*
X-16442017Y-9453712D01*
X-16442017Y-9453712D02*
X-16299160Y-9525141D01*
X-18394398Y-11940057D02*
X-18489636Y-11868628D01*
X-18489636Y-11868628D02*
X-18632493Y-11868628D01*
X-18632493Y-11868628D02*
X-18775350Y-11940057D01*
X-18775350Y-11940057D02*
X-18870588Y-12082914D01*
X-18870588Y-12082914D02*
X-18918207Y-12225771D01*
X-18918207Y-12225771D02*
X-18965826Y-12511485D01*
X-18965826Y-12511485D02*
X-18965826Y-12725771D01*
X-18965826Y-12725771D02*
X-18918207Y-13011485D01*
X-18918207Y-13011485D02*
X-18870588Y-13154342D01*
X-18870588Y-13154342D02*
X-18775350Y-13297200D01*
X-18775350Y-13297200D02*
X-18632493Y-13368628D01*
X-18632493Y-13368628D02*
X-18537255Y-13368628D01*
X-18537255Y-13368628D02*
X-18394398Y-13297200D01*
X-18394398Y-13297200D02*
X-18346779Y-13225771D01*
X-18346779Y-13225771D02*
X-18346779Y-12725771D01*
X-18346779Y-12725771D02*
X-18537255Y-12725771D01*
X-17918207Y-13368628D02*
X-17918207Y-11868628D01*
X-17918207Y-11868628D02*
X-17346779Y-13368628D01*
X-17346779Y-13368628D02*
X-17346779Y-11868628D01*
X-16870588Y-13368628D02*
X-16870588Y-11868628D01*
X-16870588Y-11868628D02*
X-16632493Y-11868628D01*
X-16632493Y-11868628D02*
X-16489636Y-11940057D01*
X-16489636Y-11940057D02*
X-16394398Y-12082914D01*
X-16394398Y-12082914D02*
X-16346779Y-12225771D01*
X-16346779Y-12225771D02*
X-16299160Y-12511485D01*
X-16299160Y-12511485D02*
X-16299160Y-12725771D01*
X-16299160Y-12725771D02*
X-16346779Y-13011485D01*
X-16346779Y-13011485D02*
X-16394398Y-13154342D01*
X-16394398Y-13154342D02*
X-16489636Y-13297200D01*
X-16489636Y-13297200D02*
X-16632493Y-13368628D01*
X-16632493Y-13368628D02*
X-16870588Y-13368628D01*
X-14991904Y-23784819D02*
X-14420476Y-23784819D01*
X-14706190Y-24784819D02*
X-14706190Y-23784819D01*
X-14087142Y-24784819D02*
X-14087142Y-23784819D01*
X-14087142Y-23784819D02*
X-13706190Y-23784819D01*
X-13706190Y-23784819D02*
X-13610952Y-23832438D01*
X-13610952Y-23832438D02*
X-13563333Y-23880057D01*
X-13563333Y-23880057D02*
X-13515714Y-23975295D01*
X-13515714Y-23975295D02*
X-13515714Y-24118152D01*
X-13515714Y-24118152D02*
X-13563333Y-24213390D01*
X-13563333Y-24213390D02*
X-13610952Y-24261009D01*
X-13610952Y-24261009D02*
X-13706190Y-24308628D01*
X-13706190Y-24308628D02*
X-14087142Y-24308628D01*
X-13182380Y-23784819D02*
X-12563333Y-23784819D01*
X-12563333Y-23784819D02*
X-12896666Y-24165771D01*
X-12896666Y-24165771D02*
X-12753809Y-24165771D01*
X-12753809Y-24165771D02*
X-12658571Y-24213390D01*
X-12658571Y-24213390D02*
X-12610952Y-24261009D01*
X-12610952Y-24261009D02*
X-12563333Y-24356247D01*
X-12563333Y-24356247D02*
X-12563333Y-24594342D01*
X-12563333Y-24594342D02*
X-12610952Y-24689580D01*
X-12610952Y-24689580D02*
X-12658571Y-24737200D01*
X-12658571Y-24737200D02*
X-12753809Y-24784819D01*
X-12753809Y-24784819D02*
X-13039523Y-24784819D01*
X-13039523Y-24784819D02*
X-13134761Y-24737200D01*
X-13134761Y-24737200D02*
X-13182380Y-24689580D01*
X5124819Y-15168094D02*
X4124819Y-15168094D01*
X4124819Y-15168094D02*
X4124819Y-14929999D01*
X4124819Y-14929999D02*
X4172438Y-14787142D01*
X4172438Y-14787142D02*
X4267676Y-14691904D01*
X4267676Y-14691904D02*
X4362914Y-14644285D01*
X4362914Y-14644285D02*
X4553390Y-14596666D01*
X4553390Y-14596666D02*
X4696247Y-14596666D01*
X4696247Y-14596666D02*
X4886723Y-14644285D01*
X4886723Y-14644285D02*
X4981961Y-14691904D01*
X4981961Y-14691904D02*
X5077200Y-14787142D01*
X5077200Y-14787142D02*
X5124819Y-14929999D01*
X5124819Y-14929999D02*
X5124819Y-15168094D01*
X4458152Y-13739523D02*
X5124819Y-13739523D01*
X4077200Y-13977618D02*
X4791485Y-14215713D01*
X4791485Y-14215713D02*
X4791485Y-13596666D01*
X4221905Y-13059104D02*
X4698095Y-13059104D01*
X4126667Y-13344819D02*
X4460000Y-12344819D01*
X4460000Y-12344819D02*
X4793333Y-13344819D01*
X-15111904Y-18754819D02*
X-14540476Y-18754819D01*
X-14826190Y-19754819D02*
X-14826190Y-18754819D01*
X-14207142Y-19754819D02*
X-14207142Y-18754819D01*
X-14207142Y-18754819D02*
X-13826190Y-18754819D01*
X-13826190Y-18754819D02*
X-13730952Y-18802438D01*
X-13730952Y-18802438D02*
X-13683333Y-18850057D01*
X-13683333Y-18850057D02*
X-13635714Y-18945295D01*
X-13635714Y-18945295D02*
X-13635714Y-19088152D01*
X-13635714Y-19088152D02*
X-13683333Y-19183390D01*
X-13683333Y-19183390D02*
X-13730952Y-19231009D01*
X-13730952Y-19231009D02*
X-13826190Y-19278628D01*
X-13826190Y-19278628D02*
X-14207142Y-19278628D01*
X-13254761Y-18850057D02*
X-13207142Y-18802438D01*
X-13207142Y-18802438D02*
X-13111904Y-18754819D01*
X-13111904Y-18754819D02*
X-12873809Y-18754819D01*
X-12873809Y-18754819D02*
X-12778571Y-18802438D01*
X-12778571Y-18802438D02*
X-12730952Y-18850057D01*
X-12730952Y-18850057D02*
X-12683333Y-18945295D01*
X-12683333Y-18945295D02*
X-12683333Y-19040533D01*
X-12683333Y-19040533D02*
X-12730952Y-19183390D01*
X-12730952Y-19183390D02*
X-13302380Y-19754819D01*
X-13302380Y-19754819D02*
X-12683333Y-19754819D01*
X-18211904Y975180D02*
X-17640476Y975180D01*
X-17926190Y-24819D02*
X-17926190Y975180D01*
X-17307142Y-24819D02*
X-17307142Y975180D01*
X-17307142Y975180D02*
X-16926190Y975180D01*
X-16926190Y975180D02*
X-16830952Y927561D01*
X-16830952Y927561D02*
X-16783333Y879942D01*
X-16783333Y879942D02*
X-16735714Y784704D01*
X-16735714Y784704D02*
X-16735714Y641847D01*
X-16735714Y641847D02*
X-16783333Y546609D01*
X-16783333Y546609D02*
X-16830952Y498990D01*
X-16830952Y498990D02*
X-16926190Y451371D01*
X-16926190Y451371D02*
X-17307142Y451371D01*
X-15783333Y-24819D02*
X-16354761Y-24819D01*
X-16069047Y-24819D02*
X-16069047Y975180D01*
X-16069047Y975180D02*
X-16164285Y832323D01*
X-16164285Y832323D02*
X-16259523Y737085D01*
X-16259523Y737085D02*
X-16354761Y689466D01*
X-2645180Y-25313333D02*
X-1930895Y-25313333D01*
X-1930895Y-25313333D02*
X-1788038Y-25360952D01*
X-1788038Y-25360952D02*
X-1692800Y-25456190D01*
X-1692800Y-25456190D02*
X-1645180Y-25599047D01*
X-1645180Y-25599047D02*
X-1645180Y-25694285D01*
X-2311847Y-24408571D02*
X-1645180Y-24408571D01*
X-2692800Y-24646666D02*
X-1978514Y-24884761D01*
X-1978514Y-24884761D02*
X-1978514Y-24265714D01*
X-2875180Y-333333D02*
X-2160895Y-333333D01*
X-2160895Y-333333D02*
X-2018038Y-380952D01*
X-2018038Y-380952D02*
X-1922800Y-476190D01*
X-1922800Y-476190D02*
X-1875180Y-619047D01*
X-1875180Y-619047D02*
X-1875180Y-714285D01*
X-2779942Y95238D02*
X-2827561Y142857D01*
X-2827561Y142857D02*
X-2875180Y238095D01*
X-2875180Y238095D02*
X-2875180Y476190D01*
X-2875180Y476190D02*
X-2827561Y571428D01*
X-2827561Y571428D02*
X-2779942Y619047D01*
X-2779942Y619047D02*
X-2684704Y666666D01*
X-2684704Y666666D02*
X-2589466Y666666D01*
X-2589466Y666666D02*
X-2446609Y619047D01*
X-2446609Y619047D02*
X-1875180Y47619D01*
X-1875180Y47619D02*
X-1875180Y666666D01*
X11413333Y-21664819D02*
X11080000Y-21188628D01*
X10841905Y-21664819D02*
X10841905Y-20664819D01*
X10841905Y-20664819D02*
X11222857Y-20664819D01*
X11222857Y-20664819D02*
X11318095Y-20712438D01*
X11318095Y-20712438D02*
X11365714Y-20760057D01*
X11365714Y-20760057D02*
X11413333Y-20855295D01*
X11413333Y-20855295D02*
X11413333Y-20998152D01*
X11413333Y-20998152D02*
X11365714Y-21093390D01*
X11365714Y-21093390D02*
X11318095Y-21141009D01*
X11318095Y-21141009D02*
X11222857Y-21188628D01*
X11222857Y-21188628D02*
X10841905Y-21188628D01*
X11984762Y-21093390D02*
X11889524Y-21045771D01*
X11889524Y-21045771D02*
X11841905Y-20998152D01*
X11841905Y-20998152D02*
X11794286Y-20902914D01*
X11794286Y-20902914D02*
X11794286Y-20855295D01*
X11794286Y-20855295D02*
X11841905Y-20760057D01*
X11841905Y-20760057D02*
X11889524Y-20712438D01*
X11889524Y-20712438D02*
X11984762Y-20664819D01*
X11984762Y-20664819D02*
X12175238Y-20664819D01*
X12175238Y-20664819D02*
X12270476Y-20712438D01*
X12270476Y-20712438D02*
X12318095Y-20760057D01*
X12318095Y-20760057D02*
X12365714Y-20855295D01*
X12365714Y-20855295D02*
X12365714Y-20902914D01*
X12365714Y-20902914D02*
X12318095Y-20998152D01*
X12318095Y-20998152D02*
X12270476Y-21045771D01*
X12270476Y-21045771D02*
X12175238Y-21093390D01*
X12175238Y-21093390D02*
X11984762Y-21093390D01*
X11984762Y-21093390D02*
X11889524Y-21141009D01*
X11889524Y-21141009D02*
X11841905Y-21188628D01*
X11841905Y-21188628D02*
X11794286Y-21283866D01*
X11794286Y-21283866D02*
X11794286Y-21474342D01*
X11794286Y-21474342D02*
X11841905Y-21569580D01*
X11841905Y-21569580D02*
X11889524Y-21617200D01*
X11889524Y-21617200D02*
X11984762Y-21664819D01*
X11984762Y-21664819D02*
X12175238Y-21664819D01*
X12175238Y-21664819D02*
X12270476Y-21617200D01*
X12270476Y-21617200D02*
X12318095Y-21569580D01*
X12318095Y-21569580D02*
X12365714Y-21474342D01*
X12365714Y-21474342D02*
X12365714Y-21283866D01*
X12365714Y-21283866D02*
X12318095Y-21188628D01*
X12318095Y-21188628D02*
X12270476Y-21141009D01*
X12270476Y-21141009D02*
X12175238Y-21093390D01*
X13834761Y-17310057D02*
X13739523Y-17262438D01*
X13739523Y-17262438D02*
X13644285Y-17167200D01*
X13644285Y-17167200D02*
X13501428Y-17024342D01*
X13501428Y-17024342D02*
X13406190Y-16976723D01*
X13406190Y-16976723D02*
X13310952Y-16976723D01*
X13358571Y-17214819D02*
X13263333Y-17167200D01*
X13263333Y-17167200D02*
X13168095Y-17071961D01*
X13168095Y-17071961D02*
X13120476Y-16881485D01*
X13120476Y-16881485D02*
X13120476Y-16548152D01*
X13120476Y-16548152D02*
X13168095Y-16357676D01*
X13168095Y-16357676D02*
X13263333Y-16262438D01*
X13263333Y-16262438D02*
X13358571Y-16214819D01*
X13358571Y-16214819D02*
X13549047Y-16214819D01*
X13549047Y-16214819D02*
X13644285Y-16262438D01*
X13644285Y-16262438D02*
X13739523Y-16357676D01*
X13739523Y-16357676D02*
X13787142Y-16548152D01*
X13787142Y-16548152D02*
X13787142Y-16881485D01*
X13787142Y-16881485D02*
X13739523Y-17071961D01*
X13739523Y-17071961D02*
X13644285Y-17167200D01*
X13644285Y-17167200D02*
X13549047Y-17214819D01*
X13549047Y-17214819D02*
X13358571Y-17214819D01*
X14168095Y-16310057D02*
X14215714Y-16262438D01*
X14215714Y-16262438D02*
X14310952Y-16214819D01*
X14310952Y-16214819D02*
X14549047Y-16214819D01*
X14549047Y-16214819D02*
X14644285Y-16262438D01*
X14644285Y-16262438D02*
X14691904Y-16310057D01*
X14691904Y-16310057D02*
X14739523Y-16405295D01*
X14739523Y-16405295D02*
X14739523Y-16500533D01*
X14739523Y-16500533D02*
X14691904Y-16643390D01*
X14691904Y-16643390D02*
X14120476Y-17214819D01*
X14120476Y-17214819D02*
X14739523Y-17214819D01*
X-14583333Y-2494819D02*
X-14583333Y-3209104D01*
X-14583333Y-3209104D02*
X-14630952Y-3351961D01*
X-14630952Y-3351961D02*
X-14726190Y-3447200D01*
X-14726190Y-3447200D02*
X-14869047Y-3494819D01*
X-14869047Y-3494819D02*
X-14964285Y-3494819D01*
X-14202380Y-2494819D02*
X-13535714Y-2494819D01*
X-13535714Y-2494819D02*
X-13964285Y-3494819D01*
X-11570180Y-153333D02*
X-10855895Y-153333D01*
X-10855895Y-153333D02*
X-10713038Y-200952D01*
X-10713038Y-200952D02*
X-10617800Y-296190D01*
X-10617800Y-296190D02*
X-10570180Y-439047D01*
X-10570180Y-439047D02*
X-10570180Y-534285D01*
X-11570180Y799047D02*
X-11570180Y322857D01*
X-11570180Y322857D02*
X-11093990Y275238D01*
X-11093990Y275238D02*
X-11141609Y322857D01*
X-11141609Y322857D02*
X-11189228Y418095D01*
X-11189228Y418095D02*
X-11189228Y656190D01*
X-11189228Y656190D02*
X-11141609Y751428D01*
X-11141609Y751428D02*
X-11093990Y799047D01*
X-11093990Y799047D02*
X-10998752Y846666D01*
X-10998752Y846666D02*
X-10760657Y846666D01*
X-10760657Y846666D02*
X-10665419Y799047D01*
X-10665419Y799047D02*
X-10617800Y751428D01*
X-10617800Y751428D02*
X-10570180Y656190D01*
X-10570180Y656190D02*
X-10570180Y418095D01*
X-10570180Y418095D02*
X-10617800Y322857D01*
X-10617800Y322857D02*
X-10665419Y275238D01*
X-10508570Y-2023866D02*
X-9746666Y-2023866D01*
X-10127618Y-2404819D02*
X-10127618Y-1642914D01*
X-8794285Y-1404819D02*
X-9270475Y-1404819D01*
X-9270475Y-1404819D02*
X-9318094Y-1881009D01*
X-9318094Y-1881009D02*
X-9270475Y-1833390D01*
X-9270475Y-1833390D02*
X-9175237Y-1785771D01*
X-9175237Y-1785771D02*
X-8937142Y-1785771D01*
X-8937142Y-1785771D02*
X-8841904Y-1833390D01*
X-8841904Y-1833390D02*
X-8794285Y-1881009D01*
X-8794285Y-1881009D02*
X-8746666Y-1976247D01*
X-8746666Y-1976247D02*
X-8746666Y-2214342D01*
X-8746666Y-2214342D02*
X-8794285Y-2309580D01*
X-8794285Y-2309580D02*
X-8841904Y-2357200D01*
X-8841904Y-2357200D02*
X-8937142Y-2404819D01*
X-8937142Y-2404819D02*
X-9175237Y-2404819D01*
X-9175237Y-2404819D02*
X-9270475Y-2357200D01*
X-9270475Y-2357200D02*
X-9318094Y-2309580D01*
X-8413332Y-1738152D02*
X-8175237Y-2404819D01*
X-8175237Y-2404819D02*
X-7937142Y-1738152D01*
X-6794284Y-2404819D02*
X-6794284Y-1738152D01*
X-6794284Y-1404819D02*
X-6841903Y-1452438D01*
X-6841903Y-1452438D02*
X-6794284Y-1500057D01*
X-6794284Y-1500057D02*
X-6746665Y-1452438D01*
X-6746665Y-1452438D02*
X-6794284Y-1404819D01*
X-6794284Y-1404819D02*
X-6794284Y-1500057D01*
X-6318094Y-1738152D02*
X-6318094Y-2404819D01*
X-6318094Y-1833390D02*
X-6270475Y-1785771D01*
X-6270475Y-1785771D02*
X-6175237Y-1738152D01*
X-6175237Y-1738152D02*
X-6032380Y-1738152D01*
X-6032380Y-1738152D02*
X-5937142Y-1785771D01*
X-5937142Y-1785771D02*
X-5889523Y-1881009D01*
X-5889523Y-1881009D02*
X-5889523Y-2404819D01*
X-5413332Y-2023866D02*
X-4651428Y-2023866D01*
X-9383333Y-3124819D02*
X-9383333Y-3839104D01*
X-9383333Y-3839104D02*
X-9430952Y-3981961D01*
X-9430952Y-3981961D02*
X-9526190Y-4077200D01*
X-9526190Y-4077200D02*
X-9669047Y-4124819D01*
X-9669047Y-4124819D02*
X-9764285Y-4124819D01*
X-8383333Y-4124819D02*
X-8954761Y-4124819D01*
X-8669047Y-4124819D02*
X-8669047Y-3124819D01*
X-8669047Y-3124819D02*
X-8764285Y-3267676D01*
X-8764285Y-3267676D02*
X-8859523Y-3362914D01*
X-8859523Y-3362914D02*
X-8954761Y-3410533D01*
X-11626133Y-12479761D02*
X-11626133Y-11717857D01*
X-11245180Y-12098809D02*
X-12007085Y-12098809D01*
X-11245180Y-11241666D02*
X-12245180Y-11241666D01*
X-11626133Y-11146428D02*
X-11245180Y-10860714D01*
X-11911847Y-10860714D02*
X-11530895Y-11241666D01*
X-11911847Y-10432142D02*
X-11245180Y-10432142D01*
X-11816609Y-10432142D02*
X-11864228Y-10384523D01*
X-11864228Y-10384523D02*
X-11911847Y-10289285D01*
X-11911847Y-10289285D02*
X-11911847Y-10146428D01*
X-11911847Y-10146428D02*
X-11864228Y-10051190D01*
X-11864228Y-10051190D02*
X-11768990Y-10003571D01*
X-11768990Y-10003571D02*
X-11245180Y-10003571D01*
X-11245180Y-9384523D02*
X-11292800Y-9479761D01*
X-11292800Y-9479761D02*
X-11340419Y-9527380D01*
X-11340419Y-9527380D02*
X-11435657Y-9574999D01*
X-11435657Y-9574999D02*
X-11721371Y-9574999D01*
X-11721371Y-9574999D02*
X-11816609Y-9527380D01*
X-11816609Y-9527380D02*
X-11864228Y-9479761D01*
X-11864228Y-9479761D02*
X-11911847Y-9384523D01*
X-11911847Y-9384523D02*
X-11911847Y-9241666D01*
X-11911847Y-9241666D02*
X-11864228Y-9146428D01*
X-11864228Y-9146428D02*
X-11816609Y-9098809D01*
X-11816609Y-9098809D02*
X-11721371Y-9051190D01*
X-11721371Y-9051190D02*
X-11435657Y-9051190D01*
X-11435657Y-9051190D02*
X-11340419Y-9098809D01*
X-11340419Y-9098809D02*
X-11292800Y-9146428D01*
X-11292800Y-9146428D02*
X-11245180Y-9241666D01*
X-11245180Y-9241666D02*
X-11245180Y-9384523D01*
X-11292800Y-8194047D02*
X-11245180Y-8289285D01*
X-11245180Y-8289285D02*
X-11245180Y-8479761D01*
X-11245180Y-8479761D02*
X-11292800Y-8574999D01*
X-11292800Y-8574999D02*
X-11340419Y-8622618D01*
X-11340419Y-8622618D02*
X-11435657Y-8670237D01*
X-11435657Y-8670237D02*
X-11721371Y-8670237D01*
X-11721371Y-8670237D02*
X-11816609Y-8622618D01*
X-11816609Y-8622618D02*
X-11864228Y-8574999D01*
X-11864228Y-8574999D02*
X-11911847Y-8479761D01*
X-11911847Y-8479761D02*
X-11911847Y-8289285D01*
X-11911847Y-8289285D02*
X-11864228Y-8194047D01*
X-11245180Y-7765475D02*
X-12245180Y-7765475D01*
X-11626133Y-7670237D02*
X-11245180Y-7384523D01*
X-11911847Y-7384523D02*
X-11530895Y-7765475D01*
X-11245180Y-6194046D02*
X-11911847Y-6194046D01*
X-12245180Y-6194046D02*
X-12197561Y-6241665D01*
X-12197561Y-6241665D02*
X-12149942Y-6194046D01*
X-12149942Y-6194046D02*
X-12197561Y-6146427D01*
X-12197561Y-6146427D02*
X-12245180Y-6194046D01*
X-12245180Y-6194046D02*
X-12149942Y-6194046D01*
X-11911847Y-5717856D02*
X-11245180Y-5717856D01*
X-11816609Y-5717856D02*
X-11864228Y-5670237D01*
X-11864228Y-5670237D02*
X-11911847Y-5574999D01*
X-11911847Y-5574999D02*
X-11911847Y-5432142D01*
X-11911847Y-5432142D02*
X-11864228Y-5336904D01*
X-11864228Y-5336904D02*
X-11768990Y-5289285D01*
X-11768990Y-5289285D02*
X-11245180Y-5289285D01*
X-11911847Y-4813094D02*
X-10911847Y-4813094D01*
X-11864228Y-4813094D02*
X-11911847Y-4717856D01*
X-11911847Y-4717856D02*
X-11911847Y-4527380D01*
X-11911847Y-4527380D02*
X-11864228Y-4432142D01*
X-11864228Y-4432142D02*
X-11816609Y-4384523D01*
X-11816609Y-4384523D02*
X-11721371Y-4336904D01*
X-11721371Y-4336904D02*
X-11435657Y-4336904D01*
X-11435657Y-4336904D02*
X-11340419Y-4384523D01*
X-11340419Y-4384523D02*
X-11292800Y-4432142D01*
X-11292800Y-4432142D02*
X-11245180Y-4527380D01*
X-11245180Y-4527380D02*
X-11245180Y-4717856D01*
X-11245180Y-4717856D02*
X-11292800Y-4813094D01*
X-11911847Y-3479761D02*
X-11245180Y-3479761D01*
X-11911847Y-3908332D02*
X-11388038Y-3908332D01*
X-11388038Y-3908332D02*
X-11292800Y-3860713D01*
X-11292800Y-3860713D02*
X-11245180Y-3765475D01*
X-11245180Y-3765475D02*
X-11245180Y-3622618D01*
X-11245180Y-3622618D02*
X-11292800Y-3527380D01*
X-11292800Y-3527380D02*
X-11340419Y-3479761D01*
X-11911847Y-3146427D02*
X-11911847Y-2765475D01*
X-12245180Y-3003570D02*
X-11388038Y-3003570D01*
X-11388038Y-3003570D02*
X-11292800Y-2955951D01*
X-11292800Y-2955951D02*
X-11245180Y-2860713D01*
X-11245180Y-2860713D02*
X-11245180Y-2765475D01*
X-11626133Y-2432141D02*
X-11626133Y-1670237D01*
X-11260180Y-24445238D02*
X-11736371Y-24778571D01*
X-11260180Y-25016666D02*
X-12260180Y-25016666D01*
X-12260180Y-25016666D02*
X-12260180Y-24635714D01*
X-12260180Y-24635714D02*
X-12212561Y-24540476D01*
X-12212561Y-24540476D02*
X-12164942Y-24492857D01*
X-12164942Y-24492857D02*
X-12069704Y-24445238D01*
X-12069704Y-24445238D02*
X-11926847Y-24445238D01*
X-11926847Y-24445238D02*
X-11831609Y-24492857D01*
X-11831609Y-24492857D02*
X-11783990Y-24540476D01*
X-11783990Y-24540476D02*
X-11736371Y-24635714D01*
X-11736371Y-24635714D02*
X-11736371Y-25016666D01*
X-12260180Y-24159523D02*
X-11260180Y-23826190D01*
X-11260180Y-23826190D02*
X-12260180Y-23492857D01*
X-12164942Y-23207142D02*
X-12212561Y-23159523D01*
X-12212561Y-23159523D02*
X-12260180Y-23064285D01*
X-12260180Y-23064285D02*
X-12260180Y-22826190D01*
X-12260180Y-22826190D02*
X-12212561Y-22730952D01*
X-12212561Y-22730952D02*
X-12164942Y-22683333D01*
X-12164942Y-22683333D02*
X-12069704Y-22635714D01*
X-12069704Y-22635714D02*
X-11974466Y-22635714D01*
X-11974466Y-22635714D02*
X-11831609Y-22683333D01*
X-11831609Y-22683333D02*
X-11260180Y-23254761D01*
X-11260180Y-23254761D02*
X-11260180Y-22635714D01*
X-12281191Y-21824819D02*
X-12281191Y-21158152D01*
X-12281191Y-21348628D02*
X-12233572Y-21253390D01*
X-12233572Y-21253390D02*
X-12185953Y-21205771D01*
X-12185953Y-21205771D02*
X-12090715Y-21158152D01*
X-12090715Y-21158152D02*
X-11995477Y-21158152D01*
X-11281191Y-21777200D02*
X-11376429Y-21824819D01*
X-11376429Y-21824819D02*
X-11566905Y-21824819D01*
X-11566905Y-21824819D02*
X-11662143Y-21777200D01*
X-11662143Y-21777200D02*
X-11709762Y-21681961D01*
X-11709762Y-21681961D02*
X-11709762Y-21301009D01*
X-11709762Y-21301009D02*
X-11662143Y-21205771D01*
X-11662143Y-21205771D02*
X-11566905Y-21158152D01*
X-11566905Y-21158152D02*
X-11376429Y-21158152D01*
X-11376429Y-21158152D02*
X-11281191Y-21205771D01*
X-11281191Y-21205771D02*
X-11233572Y-21301009D01*
X-11233572Y-21301009D02*
X-11233572Y-21396247D01*
X-11233572Y-21396247D02*
X-11709762Y-21491485D01*
X-10947857Y-21158152D02*
X-10566905Y-21158152D01*
X-10805000Y-20824819D02*
X-10805000Y-21681961D01*
X-10805000Y-21681961D02*
X-10757381Y-21777200D01*
X-10757381Y-21777200D02*
X-10662143Y-21824819D01*
X-10662143Y-21824819D02*
X-10566905Y-21824819D01*
X-9805000Y-21824819D02*
X-9805000Y-21301009D01*
X-9805000Y-21301009D02*
X-9852619Y-21205771D01*
X-9852619Y-21205771D02*
X-9947857Y-21158152D01*
X-9947857Y-21158152D02*
X-10138333Y-21158152D01*
X-10138333Y-21158152D02*
X-10233571Y-21205771D01*
X-9805000Y-21777200D02*
X-9900238Y-21824819D01*
X-9900238Y-21824819D02*
X-10138333Y-21824819D01*
X-10138333Y-21824819D02*
X-10233571Y-21777200D01*
X-10233571Y-21777200D02*
X-10281190Y-21681961D01*
X-10281190Y-21681961D02*
X-10281190Y-21586723D01*
X-10281190Y-21586723D02*
X-10233571Y-21491485D01*
X-10233571Y-21491485D02*
X-10138333Y-21443866D01*
X-10138333Y-21443866D02*
X-9900238Y-21443866D01*
X-9900238Y-21443866D02*
X-9805000Y-21396247D01*
X-9328809Y-21824819D02*
X-9328809Y-21158152D01*
X-9328809Y-21348628D02*
X-9281190Y-21253390D01*
X-9281190Y-21253390D02*
X-9233571Y-21205771D01*
X-9233571Y-21205771D02*
X-9138333Y-21158152D01*
X-9138333Y-21158152D02*
X-9043095Y-21158152D01*
X-8281190Y-21824819D02*
X-8281190Y-20824819D01*
X-8281190Y-21777200D02*
X-8376428Y-21824819D01*
X-8376428Y-21824819D02*
X-8566904Y-21824819D01*
X-8566904Y-21824819D02*
X-8662142Y-21777200D01*
X-8662142Y-21777200D02*
X-8709761Y-21729580D01*
X-8709761Y-21729580D02*
X-8757380Y-21634342D01*
X-8757380Y-21634342D02*
X-8757380Y-21348628D01*
X-8757380Y-21348628D02*
X-8709761Y-21253390D01*
X-8709761Y-21253390D02*
X-8662142Y-21205771D01*
X-8662142Y-21205771D02*
X-8566904Y-21158152D01*
X-8566904Y-21158152D02*
X-8376428Y-21158152D01*
X-8376428Y-21158152D02*
X-8281190Y-21205771D01*
X-6614523Y-21824819D02*
X-6614523Y-20824819D01*
X-6614523Y-21777200D02*
X-6709761Y-21824819D01*
X-6709761Y-21824819D02*
X-6900237Y-21824819D01*
X-6900237Y-21824819D02*
X-6995475Y-21777200D01*
X-6995475Y-21777200D02*
X-7043094Y-21729580D01*
X-7043094Y-21729580D02*
X-7090713Y-21634342D01*
X-7090713Y-21634342D02*
X-7090713Y-21348628D01*
X-7090713Y-21348628D02*
X-7043094Y-21253390D01*
X-7043094Y-21253390D02*
X-6995475Y-21205771D01*
X-6995475Y-21205771D02*
X-6900237Y-21158152D01*
X-6900237Y-21158152D02*
X-6709761Y-21158152D01*
X-6709761Y-21158152D02*
X-6614523Y-21205771D01*
X-5709761Y-21158152D02*
X-5709761Y-21824819D01*
X-6138332Y-21158152D02*
X-6138332Y-21681961D01*
X-6138332Y-21681961D02*
X-6090713Y-21777200D01*
X-6090713Y-21777200D02*
X-5995475Y-21824819D01*
X-5995475Y-21824819D02*
X-5852618Y-21824819D01*
X-5852618Y-21824819D02*
X-5757380Y-21777200D01*
X-5757380Y-21777200D02*
X-5709761Y-21729580D01*
X-5233570Y-21824819D02*
X-5233570Y-21158152D01*
X-5233570Y-21348628D02*
X-5185951Y-21253390D01*
X-5185951Y-21253390D02*
X-5138332Y-21205771D01*
X-5138332Y-21205771D02*
X-5043094Y-21158152D01*
X-5043094Y-21158152D02*
X-4947856Y-21158152D01*
X-4185951Y-21824819D02*
X-4185951Y-21301009D01*
X-4185951Y-21301009D02*
X-4233570Y-21205771D01*
X-4233570Y-21205771D02*
X-4328808Y-21158152D01*
X-4328808Y-21158152D02*
X-4519284Y-21158152D01*
X-4519284Y-21158152D02*
X-4614522Y-21205771D01*
X-4185951Y-21777200D02*
X-4281189Y-21824819D01*
X-4281189Y-21824819D02*
X-4519284Y-21824819D01*
X-4519284Y-21824819D02*
X-4614522Y-21777200D01*
X-4614522Y-21777200D02*
X-4662141Y-21681961D01*
X-4662141Y-21681961D02*
X-4662141Y-21586723D01*
X-4662141Y-21586723D02*
X-4614522Y-21491485D01*
X-4614522Y-21491485D02*
X-4519284Y-21443866D01*
X-4519284Y-21443866D02*
X-4281189Y-21443866D01*
X-4281189Y-21443866D02*
X-4185951Y-21396247D01*
X-3852617Y-21158152D02*
X-3471665Y-21158152D01*
X-3709760Y-20824819D02*
X-3709760Y-21681961D01*
X-3709760Y-21681961D02*
X-3662141Y-21777200D01*
X-3662141Y-21777200D02*
X-3566903Y-21824819D01*
X-3566903Y-21824819D02*
X-3471665Y-21824819D01*
X-3138331Y-21824819D02*
X-3138331Y-21158152D01*
X-3138331Y-20824819D02*
X-3185950Y-20872438D01*
X-3185950Y-20872438D02*
X-3138331Y-20920057D01*
X-3138331Y-20920057D02*
X-3090712Y-20872438D01*
X-3090712Y-20872438D02*
X-3138331Y-20824819D01*
X-3138331Y-20824819D02*
X-3138331Y-20920057D01*
X-2519284Y-21824819D02*
X-2614522Y-21777200D01*
X-2614522Y-21777200D02*
X-2662141Y-21729580D01*
X-2662141Y-21729580D02*
X-2709760Y-21634342D01*
X-2709760Y-21634342D02*
X-2709760Y-21348628D01*
X-2709760Y-21348628D02*
X-2662141Y-21253390D01*
X-2662141Y-21253390D02*
X-2614522Y-21205771D01*
X-2614522Y-21205771D02*
X-2519284Y-21158152D01*
X-2519284Y-21158152D02*
X-2376427Y-21158152D01*
X-2376427Y-21158152D02*
X-2281189Y-21205771D01*
X-2281189Y-21205771D02*
X-2233570Y-21253390D01*
X-2233570Y-21253390D02*
X-2185951Y-21348628D01*
X-2185951Y-21348628D02*
X-2185951Y-21634342D01*
X-2185951Y-21634342D02*
X-2233570Y-21729580D01*
X-2233570Y-21729580D02*
X-2281189Y-21777200D01*
X-2281189Y-21777200D02*
X-2376427Y-21824819D01*
X-2376427Y-21824819D02*
X-2519284Y-21824819D01*
X-1757379Y-21158152D02*
X-1757379Y-21824819D01*
X-1757379Y-21253390D02*
X-1709760Y-21205771D01*
X-1709760Y-21205771D02*
X-1614522Y-21158152D01*
X-1614522Y-21158152D02*
X-1471665Y-21158152D01*
X-1471665Y-21158152D02*
X-1376427Y-21205771D01*
X-1376427Y-21205771D02*
X-1328808Y-21301009D01*
X-1328808Y-21301009D02*
X-1328808Y-21824819D01*
X-905180Y-20071904D02*
X-95657Y-20071904D01*
X-95657Y-20071904D02*
X-419Y-20024285D01*
X-419Y-20024285D02*
X47200Y-19976666D01*
X47200Y-19976666D02*
X94819Y-19881428D01*
X94819Y-19881428D02*
X94819Y-19690952D01*
X94819Y-19690952D02*
X47200Y-19595714D01*
X47200Y-19595714D02*
X-419Y-19548095D01*
X-419Y-19548095D02*
X-95657Y-19500476D01*
X-95657Y-19500476D02*
X-905180Y-19500476D01*
X-905180Y-18548095D02*
X-905180Y-19024285D01*
X-905180Y-19024285D02*
X-428990Y-19071904D01*
X-428990Y-19071904D02*
X-476609Y-19024285D01*
X-476609Y-19024285D02*
X-524228Y-18929047D01*
X-524228Y-18929047D02*
X-524228Y-18690952D01*
X-524228Y-18690952D02*
X-476609Y-18595714D01*
X-476609Y-18595714D02*
X-428990Y-18548095D01*
X-428990Y-18548095D02*
X-333752Y-18500476D01*
X-333752Y-18500476D02*
X-95657Y-18500476D01*
X-95657Y-18500476D02*
X-419Y-18548095D01*
X-419Y-18548095D02*
X47200Y-18595714D01*
X47200Y-18595714D02*
X94819Y-18690952D01*
X94819Y-18690952D02*
X94819Y-18929047D01*
X94819Y-18929047D02*
X47200Y-19024285D01*
X47200Y-19024285D02*
X-419Y-19071904D01*
X5998095Y-20654819D02*
X5998095Y-21464342D01*
X5998095Y-21464342D02*
X6045714Y-21559580D01*
X6045714Y-21559580D02*
X6093333Y-21607200D01*
X6093333Y-21607200D02*
X6188571Y-21654819D01*
X6188571Y-21654819D02*
X6379047Y-21654819D01*
X6379047Y-21654819D02*
X6474285Y-21607200D01*
X6474285Y-21607200D02*
X6521904Y-21559580D01*
X6521904Y-21559580D02*
X6569523Y-21464342D01*
X6569523Y-21464342D02*
X6569523Y-20654819D01*
X6950476Y-20654819D02*
X7569523Y-20654819D01*
X7569523Y-20654819D02*
X7236190Y-21035771D01*
X7236190Y-21035771D02*
X7379047Y-21035771D01*
X7379047Y-21035771D02*
X7474285Y-21083390D01*
X7474285Y-21083390D02*
X7521904Y-21131009D01*
X7521904Y-21131009D02*
X7569523Y-21226247D01*
X7569523Y-21226247D02*
X7569523Y-21464342D01*
X7569523Y-21464342D02*
X7521904Y-21559580D01*
X7521904Y-21559580D02*
X7474285Y-21607200D01*
X7474285Y-21607200D02*
X7379047Y-21654819D01*
X7379047Y-21654819D02*
X7093333Y-21654819D01*
X7093333Y-21654819D02*
X6998095Y-21607200D01*
X6998095Y-21607200D02*
X6950476Y-21559580D01*
X13593333Y-14444819D02*
X13260000Y-13968628D01*
X13021905Y-14444819D02*
X13021905Y-13444819D01*
X13021905Y-13444819D02*
X13402857Y-13444819D01*
X13402857Y-13444819D02*
X13498095Y-13492438D01*
X13498095Y-13492438D02*
X13545714Y-13540057D01*
X13545714Y-13540057D02*
X13593333Y-13635295D01*
X13593333Y-13635295D02*
X13593333Y-13778152D01*
X13593333Y-13778152D02*
X13545714Y-13873390D01*
X13545714Y-13873390D02*
X13498095Y-13921009D01*
X13498095Y-13921009D02*
X13402857Y-13968628D01*
X13402857Y-13968628D02*
X13021905Y-13968628D01*
X14450476Y-13444819D02*
X14260000Y-13444819D01*
X14260000Y-13444819D02*
X14164762Y-13492438D01*
X14164762Y-13492438D02*
X14117143Y-13540057D01*
X14117143Y-13540057D02*
X14021905Y-13682914D01*
X14021905Y-13682914D02*
X13974286Y-13873390D01*
X13974286Y-13873390D02*
X13974286Y-14254342D01*
X13974286Y-14254342D02*
X14021905Y-14349580D01*
X14021905Y-14349580D02*
X14069524Y-14397200D01*
X14069524Y-14397200D02*
X14164762Y-14444819D01*
X14164762Y-14444819D02*
X14355238Y-14444819D01*
X14355238Y-14444819D02*
X14450476Y-14397200D01*
X14450476Y-14397200D02*
X14498095Y-14349580D01*
X14498095Y-14349580D02*
X14545714Y-14254342D01*
X14545714Y-14254342D02*
X14545714Y-14016247D01*
X14545714Y-14016247D02*
X14498095Y-13921009D01*
X14498095Y-13921009D02*
X14450476Y-13873390D01*
X14450476Y-13873390D02*
X14355238Y-13825771D01*
X14355238Y-13825771D02*
X14164762Y-13825771D01*
X14164762Y-13825771D02*
X14069524Y-13873390D01*
X14069524Y-13873390D02*
X14021905Y-13921009D01*
X14021905Y-13921009D02*
X13974286Y-14016247D01*
X-11225180Y-14595238D02*
X-11701371Y-14928571D01*
X-11225180Y-15166666D02*
X-12225180Y-15166666D01*
X-12225180Y-15166666D02*
X-12225180Y-14785714D01*
X-12225180Y-14785714D02*
X-12177561Y-14690476D01*
X-12177561Y-14690476D02*
X-12129942Y-14642857D01*
X-12129942Y-14642857D02*
X-12034704Y-14595238D01*
X-12034704Y-14595238D02*
X-11891847Y-14595238D01*
X-11891847Y-14595238D02*
X-11796609Y-14642857D01*
X-11796609Y-14642857D02*
X-11748990Y-14690476D01*
X-11748990Y-14690476D02*
X-11701371Y-14785714D01*
X-11701371Y-14785714D02*
X-11701371Y-15166666D01*
X-12225180Y-14309523D02*
X-11225180Y-13976190D01*
X-11225180Y-13976190D02*
X-12225180Y-13642857D01*
X-12225180Y-13404761D02*
X-12225180Y-12785714D01*
X-12225180Y-12785714D02*
X-11844228Y-13119047D01*
X-11844228Y-13119047D02*
X-11844228Y-12976190D01*
X-11844228Y-12976190D02*
X-11796609Y-12880952D01*
X-11796609Y-12880952D02*
X-11748990Y-12833333D01*
X-11748990Y-12833333D02*
X-11653752Y-12785714D01*
X-11653752Y-12785714D02*
X-11415657Y-12785714D01*
X-11415657Y-12785714D02*
X-11320419Y-12833333D01*
X-11320419Y-12833333D02*
X-11272800Y-12880952D01*
X-11272800Y-12880952D02*
X-11225180Y-12976190D01*
X-11225180Y-12976190D02*
X-11225180Y-13261904D01*
X-11225180Y-13261904D02*
X-11272800Y-13357142D01*
X-11272800Y-13357142D02*
X-11320419Y-13404761D01*
X-9468571Y-11904819D02*
X-9468571Y-11238152D01*
X-9468571Y-10904819D02*
X-9516190Y-10952438D01*
X-9516190Y-10952438D02*
X-9468571Y-11000057D01*
X-9468571Y-11000057D02*
X-9420952Y-10952438D01*
X-9420952Y-10952438D02*
X-9468571Y-10904819D01*
X-9468571Y-10904819D02*
X-9468571Y-11000057D01*
X-8992381Y-11238152D02*
X-8992381Y-11904819D01*
X-8992381Y-11333390D02*
X-8944762Y-11285771D01*
X-8944762Y-11285771D02*
X-8849524Y-11238152D01*
X-8849524Y-11238152D02*
X-8706667Y-11238152D01*
X-8706667Y-11238152D02*
X-8611429Y-11285771D01*
X-8611429Y-11285771D02*
X-8563810Y-11381009D01*
X-8563810Y-11381009D02*
X-8563810Y-11904819D01*
X-8087619Y-11238152D02*
X-8087619Y-12238152D01*
X-8087619Y-11285771D02*
X-7992381Y-11238152D01*
X-7992381Y-11238152D02*
X-7801905Y-11238152D01*
X-7801905Y-11238152D02*
X-7706667Y-11285771D01*
X-7706667Y-11285771D02*
X-7659048Y-11333390D01*
X-7659048Y-11333390D02*
X-7611429Y-11428628D01*
X-7611429Y-11428628D02*
X-7611429Y-11714342D01*
X-7611429Y-11714342D02*
X-7659048Y-11809580D01*
X-7659048Y-11809580D02*
X-7706667Y-11857200D01*
X-7706667Y-11857200D02*
X-7801905Y-11904819D01*
X-7801905Y-11904819D02*
X-7992381Y-11904819D01*
X-7992381Y-11904819D02*
X-8087619Y-11857200D01*
X-6754286Y-11238152D02*
X-6754286Y-11904819D01*
X-7182857Y-11238152D02*
X-7182857Y-11761961D01*
X-7182857Y-11761961D02*
X-7135238Y-11857200D01*
X-7135238Y-11857200D02*
X-7040000Y-11904819D01*
X-7040000Y-11904819D02*
X-6897143Y-11904819D01*
X-6897143Y-11904819D02*
X-6801905Y-11857200D01*
X-6801905Y-11857200D02*
X-6754286Y-11809580D01*
X-6420952Y-11238152D02*
X-6040000Y-11238152D01*
X-6278095Y-10904819D02*
X-6278095Y-11761961D01*
X-6278095Y-11761961D02*
X-6230476Y-11857200D01*
X-6230476Y-11857200D02*
X-6135238Y-11904819D01*
X-6135238Y-11904819D02*
X-6040000Y-11904819D01*
X-4801904Y-11904819D02*
X-4897142Y-11857200D01*
X-4897142Y-11857200D02*
X-4944761Y-11761961D01*
X-4944761Y-11761961D02*
X-4944761Y-10904819D01*
X-4516189Y-11238152D02*
X-4278094Y-11904819D01*
X-4278094Y-11904819D02*
X-4039999Y-11238152D01*
X-3516189Y-11904819D02*
X-3611427Y-11857200D01*
X-3611427Y-11857200D02*
X-3659046Y-11761961D01*
X-3659046Y-11761961D02*
X-3659046Y-10904819D01*
X8874819Y-3964166D02*
X8398628Y-4297499D01*
X8874819Y-4535594D02*
X7874819Y-4535594D01*
X7874819Y-4535594D02*
X7874819Y-4154642D01*
X7874819Y-4154642D02*
X7922438Y-4059404D01*
X7922438Y-4059404D02*
X7970057Y-4011785D01*
X7970057Y-4011785D02*
X8065295Y-3964166D01*
X8065295Y-3964166D02*
X8208152Y-3964166D01*
X8208152Y-3964166D02*
X8303390Y-4011785D01*
X8303390Y-4011785D02*
X8351009Y-4059404D01*
X8351009Y-4059404D02*
X8398628Y-4154642D01*
X8398628Y-4154642D02*
X8398628Y-4535594D01*
X8208152Y-3107023D02*
X8874819Y-3107023D01*
X7827200Y-3345118D02*
X8541485Y-3583213D01*
X8541485Y-3583213D02*
X8541485Y-2964166D01*
X-4000476Y-2524819D02*
X-4000476Y-1524819D01*
X-3905238Y-2143866D02*
X-3619524Y-2524819D01*
X-3619524Y-1858152D02*
X-4000476Y-2239104D01*
X-3190952Y-1858152D02*
X-3190952Y-2524819D01*
X-3190952Y-1953390D02*
X-3143333Y-1905771D01*
X-3143333Y-1905771D02*
X-3048095Y-1858152D01*
X-3048095Y-1858152D02*
X-2905238Y-1858152D01*
X-2905238Y-1858152D02*
X-2810000Y-1905771D01*
X-2810000Y-1905771D02*
X-2762381Y-2001009D01*
X-2762381Y-2001009D02*
X-2762381Y-2524819D01*
X-2143333Y-2524819D02*
X-2238571Y-2477200D01*
X-2238571Y-2477200D02*
X-2286190Y-2429580D01*
X-2286190Y-2429580D02*
X-2333809Y-2334342D01*
X-2333809Y-2334342D02*
X-2333809Y-2048628D01*
X-2333809Y-2048628D02*
X-2286190Y-1953390D01*
X-2286190Y-1953390D02*
X-2238571Y-1905771D01*
X-2238571Y-1905771D02*
X-2143333Y-1858152D01*
X-2143333Y-1858152D02*
X-2000476Y-1858152D01*
X-2000476Y-1858152D02*
X-1905238Y-1905771D01*
X-1905238Y-1905771D02*
X-1857619Y-1953390D01*
X-1857619Y-1953390D02*
X-1810000Y-2048628D01*
X-1810000Y-2048628D02*
X-1810000Y-2334342D01*
X-1810000Y-2334342D02*
X-1857619Y-2429580D01*
X-1857619Y-2429580D02*
X-1905238Y-2477200D01*
X-1905238Y-2477200D02*
X-2000476Y-2524819D01*
X-2000476Y-2524819D02*
X-2143333Y-2524819D01*
X-952857Y-2477200D02*
X-1048095Y-2524819D01*
X-1048095Y-2524819D02*
X-1238571Y-2524819D01*
X-1238571Y-2524819D02*
X-1333809Y-2477200D01*
X-1333809Y-2477200D02*
X-1381428Y-2429580D01*
X-1381428Y-2429580D02*
X-1429047Y-2334342D01*
X-1429047Y-2334342D02*
X-1429047Y-2048628D01*
X-1429047Y-2048628D02*
X-1381428Y-1953390D01*
X-1381428Y-1953390D02*
X-1333809Y-1905771D01*
X-1333809Y-1905771D02*
X-1238571Y-1858152D01*
X-1238571Y-1858152D02*
X-1048095Y-1858152D01*
X-1048095Y-1858152D02*
X-952857Y-1905771D01*
X-524285Y-2524819D02*
X-524285Y-1524819D01*
X-429047Y-2143866D02*
X-143333Y-2524819D01*
X-143333Y-1858152D02*
X-524285Y-2239104D01*
X904286Y-1858152D02*
X1285238Y-1858152D01*
X1047143Y-1524819D02*
X1047143Y-2381961D01*
X1047143Y-2381961D02*
X1094762Y-2477200D01*
X1094762Y-2477200D02*
X1190000Y-2524819D01*
X1190000Y-2524819D02*
X1285238Y-2524819D01*
X1999524Y-2477200D02*
X1904286Y-2524819D01*
X1904286Y-2524819D02*
X1713810Y-2524819D01*
X1713810Y-2524819D02*
X1618572Y-2477200D01*
X1618572Y-2477200D02*
X1570953Y-2381961D01*
X1570953Y-2381961D02*
X1570953Y-2001009D01*
X1570953Y-2001009D02*
X1618572Y-1905771D01*
X1618572Y-1905771D02*
X1713810Y-1858152D01*
X1713810Y-1858152D02*
X1904286Y-1858152D01*
X1904286Y-1858152D02*
X1999524Y-1905771D01*
X1999524Y-1905771D02*
X2047143Y-2001009D01*
X2047143Y-2001009D02*
X2047143Y-2096247D01*
X2047143Y-2096247D02*
X1570953Y-2191485D01*
X2428096Y-2477200D02*
X2523334Y-2524819D01*
X2523334Y-2524819D02*
X2713810Y-2524819D01*
X2713810Y-2524819D02*
X2809048Y-2477200D01*
X2809048Y-2477200D02*
X2856667Y-2381961D01*
X2856667Y-2381961D02*
X2856667Y-2334342D01*
X2856667Y-2334342D02*
X2809048Y-2239104D01*
X2809048Y-2239104D02*
X2713810Y-2191485D01*
X2713810Y-2191485D02*
X2570953Y-2191485D01*
X2570953Y-2191485D02*
X2475715Y-2143866D01*
X2475715Y-2143866D02*
X2428096Y-2048628D01*
X2428096Y-2048628D02*
X2428096Y-2001009D01*
X2428096Y-2001009D02*
X2475715Y-1905771D01*
X2475715Y-1905771D02*
X2570953Y-1858152D01*
X2570953Y-1858152D02*
X2713810Y-1858152D01*
X2713810Y-1858152D02*
X2809048Y-1905771D01*
X3142382Y-1858152D02*
X3523334Y-1858152D01*
X3285239Y-1524819D02*
X3285239Y-2381961D01*
X3285239Y-2381961D02*
X3332858Y-2477200D01*
X3332858Y-2477200D02*
X3428096Y-2524819D01*
X3428096Y-2524819D02*
X3523334Y-2524819D01*
X4434819Y-4792857D02*
X3958628Y-5126190D01*
X4434819Y-5364285D02*
X3434819Y-5364285D01*
X3434819Y-5364285D02*
X3434819Y-4983333D01*
X3434819Y-4983333D02*
X3482438Y-4888095D01*
X3482438Y-4888095D02*
X3530057Y-4840476D01*
X3530057Y-4840476D02*
X3625295Y-4792857D01*
X3625295Y-4792857D02*
X3768152Y-4792857D01*
X3768152Y-4792857D02*
X3863390Y-4840476D01*
X3863390Y-4840476D02*
X3911009Y-4888095D01*
X3911009Y-4888095D02*
X3958628Y-4983333D01*
X3958628Y-4983333D02*
X3958628Y-5364285D01*
X4434819Y-3840476D02*
X4434819Y-4411904D01*
X4434819Y-4126190D02*
X3434819Y-4126190D01*
X3434819Y-4126190D02*
X3577676Y-4221428D01*
X3577676Y-4221428D02*
X3672914Y-4316666D01*
X3672914Y-4316666D02*
X3720533Y-4411904D01*
X3434819Y-2935714D02*
X3434819Y-3411904D01*
X3434819Y-3411904D02*
X3911009Y-3459523D01*
X3911009Y-3459523D02*
X3863390Y-3411904D01*
X3863390Y-3411904D02*
X3815771Y-3316666D01*
X3815771Y-3316666D02*
X3815771Y-3078571D01*
X3815771Y-3078571D02*
X3863390Y-2983333D01*
X3863390Y-2983333D02*
X3911009Y-2935714D01*
X3911009Y-2935714D02*
X4006247Y-2888095D01*
X4006247Y-2888095D02*
X4244342Y-2888095D01*
X4244342Y-2888095D02*
X4339580Y-2935714D01*
X4339580Y-2935714D02*
X4387200Y-2983333D01*
X4387200Y-2983333D02*
X4434819Y-3078571D01*
X4434819Y-3078571D02*
X4434819Y-3316666D01*
X4434819Y-3316666D02*
X4387200Y-3411904D01*
X4387200Y-3411904D02*
X4339580Y-3459523D01*
X12436905Y-3044819D02*
X12436905Y-2044819D01*
X12436905Y-2044819D02*
X12675000Y-2044819D01*
X12675000Y-2044819D02*
X12817857Y-2092438D01*
X12817857Y-2092438D02*
X12913095Y-2187676D01*
X12913095Y-2187676D02*
X12960714Y-2282914D01*
X12960714Y-2282914D02*
X13008333Y-2473390D01*
X13008333Y-2473390D02*
X13008333Y-2616247D01*
X13008333Y-2616247D02*
X12960714Y-2806723D01*
X12960714Y-2806723D02*
X12913095Y-2901961D01*
X12913095Y-2901961D02*
X12817857Y-2997200D01*
X12817857Y-2997200D02*
X12675000Y-3044819D01*
X12675000Y-3044819D02*
X12436905Y-3044819D01*
X13341667Y-2044819D02*
X13960714Y-2044819D01*
X13960714Y-2044819D02*
X13627381Y-2425771D01*
X13627381Y-2425771D02*
X13770238Y-2425771D01*
X13770238Y-2425771D02*
X13865476Y-2473390D01*
X13865476Y-2473390D02*
X13913095Y-2521009D01*
X13913095Y-2521009D02*
X13960714Y-2616247D01*
X13960714Y-2616247D02*
X13960714Y-2854342D01*
X13960714Y-2854342D02*
X13913095Y-2949580D01*
X13913095Y-2949580D02*
X13865476Y-2997200D01*
X13865476Y-2997200D02*
X13770238Y-3044819D01*
X13770238Y-3044819D02*
X13484524Y-3044819D01*
X13484524Y-3044819D02*
X13389286Y-2997200D01*
X13389286Y-2997200D02*
X13341667Y-2949580D01*
X-11130180Y-19475238D02*
X-11606371Y-19808571D01*
X-11130180Y-20046666D02*
X-12130180Y-20046666D01*
X-12130180Y-20046666D02*
X-12130180Y-19665714D01*
X-12130180Y-19665714D02*
X-12082561Y-19570476D01*
X-12082561Y-19570476D02*
X-12034942Y-19522857D01*
X-12034942Y-19522857D02*
X-11939704Y-19475238D01*
X-11939704Y-19475238D02*
X-11796847Y-19475238D01*
X-11796847Y-19475238D02*
X-11701609Y-19522857D01*
X-11701609Y-19522857D02*
X-11653990Y-19570476D01*
X-11653990Y-19570476D02*
X-11606371Y-19665714D01*
X-11606371Y-19665714D02*
X-11606371Y-20046666D01*
X-12130180Y-19189523D02*
X-11130180Y-18856190D01*
X-11130180Y-18856190D02*
X-12130180Y-18522857D01*
X-11130180Y-17665714D02*
X-11130180Y-18237142D01*
X-11130180Y-17951428D02*
X-12130180Y-17951428D01*
X-12130180Y-17951428D02*
X-11987323Y-18046666D01*
X-11987323Y-18046666D02*
X-11892085Y-18141904D01*
X-11892085Y-18141904D02*
X-11844466Y-18237142D01*
X-12730001Y-16784819D02*
X-12730001Y-16118152D01*
X-12730001Y-16308628D02*
X-12682382Y-16213390D01*
X-12682382Y-16213390D02*
X-12634763Y-16165771D01*
X-12634763Y-16165771D02*
X-12539525Y-16118152D01*
X-12539525Y-16118152D02*
X-12444287Y-16118152D01*
X-11730001Y-16737200D02*
X-11825239Y-16784819D01*
X-11825239Y-16784819D02*
X-12015715Y-16784819D01*
X-12015715Y-16784819D02*
X-12110953Y-16737200D01*
X-12110953Y-16737200D02*
X-12158572Y-16641961D01*
X-12158572Y-16641961D02*
X-12158572Y-16261009D01*
X-12158572Y-16261009D02*
X-12110953Y-16165771D01*
X-12110953Y-16165771D02*
X-12015715Y-16118152D01*
X-12015715Y-16118152D02*
X-11825239Y-16118152D01*
X-11825239Y-16118152D02*
X-11730001Y-16165771D01*
X-11730001Y-16165771D02*
X-11682382Y-16261009D01*
X-11682382Y-16261009D02*
X-11682382Y-16356247D01*
X-11682382Y-16356247D02*
X-12158572Y-16451485D01*
X-11396667Y-16118152D02*
X-11015715Y-16118152D01*
X-11253810Y-15784819D02*
X-11253810Y-16641961D01*
X-11253810Y-16641961D02*
X-11206191Y-16737200D01*
X-11206191Y-16737200D02*
X-11110953Y-16784819D01*
X-11110953Y-16784819D02*
X-11015715Y-16784819D01*
X-10253810Y-16784819D02*
X-10253810Y-16261009D01*
X-10253810Y-16261009D02*
X-10301429Y-16165771D01*
X-10301429Y-16165771D02*
X-10396667Y-16118152D01*
X-10396667Y-16118152D02*
X-10587143Y-16118152D01*
X-10587143Y-16118152D02*
X-10682381Y-16165771D01*
X-10253810Y-16737200D02*
X-10349048Y-16784819D01*
X-10349048Y-16784819D02*
X-10587143Y-16784819D01*
X-10587143Y-16784819D02*
X-10682381Y-16737200D01*
X-10682381Y-16737200D02*
X-10730000Y-16641961D01*
X-10730000Y-16641961D02*
X-10730000Y-16546723D01*
X-10730000Y-16546723D02*
X-10682381Y-16451485D01*
X-10682381Y-16451485D02*
X-10587143Y-16403866D01*
X-10587143Y-16403866D02*
X-10349048Y-16403866D01*
X-10349048Y-16403866D02*
X-10253810Y-16356247D01*
X-9777619Y-16784819D02*
X-9777619Y-16118152D01*
X-9777619Y-16308628D02*
X-9730000Y-16213390D01*
X-9730000Y-16213390D02*
X-9682381Y-16165771D01*
X-9682381Y-16165771D02*
X-9587143Y-16118152D01*
X-9587143Y-16118152D02*
X-9491905Y-16118152D01*
X-8730000Y-16784819D02*
X-8730000Y-15784819D01*
X-8730000Y-16737200D02*
X-8825238Y-16784819D01*
X-8825238Y-16784819D02*
X-9015714Y-16784819D01*
X-9015714Y-16784819D02*
X-9110952Y-16737200D01*
X-9110952Y-16737200D02*
X-9158571Y-16689580D01*
X-9158571Y-16689580D02*
X-9206190Y-16594342D01*
X-9206190Y-16594342D02*
X-9206190Y-16308628D01*
X-9206190Y-16308628D02*
X-9158571Y-16213390D01*
X-9158571Y-16213390D02*
X-9110952Y-16165771D01*
X-9110952Y-16165771D02*
X-9015714Y-16118152D01*
X-9015714Y-16118152D02*
X-8825238Y-16118152D01*
X-8825238Y-16118152D02*
X-8730000Y-16165771D01*
X-7634761Y-16118152D02*
X-7253809Y-16118152D01*
X-7491904Y-15784819D02*
X-7491904Y-16641961D01*
X-7491904Y-16641961D02*
X-7444285Y-16737200D01*
X-7444285Y-16737200D02*
X-7349047Y-16784819D01*
X-7349047Y-16784819D02*
X-7253809Y-16784819D01*
X-6920475Y-16784819D02*
X-6920475Y-16118152D01*
X-6920475Y-16308628D02*
X-6872856Y-16213390D01*
X-6872856Y-16213390D02*
X-6825237Y-16165771D01*
X-6825237Y-16165771D02*
X-6729999Y-16118152D01*
X-6729999Y-16118152D02*
X-6634761Y-16118152D01*
X-6301427Y-16784819D02*
X-6301427Y-16118152D01*
X-6301427Y-15784819D02*
X-6349046Y-15832438D01*
X-6349046Y-15832438D02*
X-6301427Y-15880057D01*
X-6301427Y-15880057D02*
X-6253808Y-15832438D01*
X-6253808Y-15832438D02*
X-6301427Y-15784819D01*
X-6301427Y-15784819D02*
X-6301427Y-15880057D01*
X-5396666Y-16118152D02*
X-5396666Y-16927676D01*
X-5396666Y-16927676D02*
X-5444285Y-17022914D01*
X-5444285Y-17022914D02*
X-5491904Y-17070533D01*
X-5491904Y-17070533D02*
X-5587142Y-17118152D01*
X-5587142Y-17118152D02*
X-5729999Y-17118152D01*
X-5729999Y-17118152D02*
X-5825237Y-17070533D01*
X-5396666Y-16737200D02*
X-5491904Y-16784819D01*
X-5491904Y-16784819D02*
X-5682380Y-16784819D01*
X-5682380Y-16784819D02*
X-5777618Y-16737200D01*
X-5777618Y-16737200D02*
X-5825237Y-16689580D01*
X-5825237Y-16689580D02*
X-5872856Y-16594342D01*
X-5872856Y-16594342D02*
X-5872856Y-16308628D01*
X-5872856Y-16308628D02*
X-5825237Y-16213390D01*
X-5825237Y-16213390D02*
X-5777618Y-16165771D01*
X-5777618Y-16165771D02*
X-5682380Y-16118152D01*
X-5682380Y-16118152D02*
X-5491904Y-16118152D01*
X-5491904Y-16118152D02*
X-5396666Y-16165771D01*
X-4491904Y-16118152D02*
X-4491904Y-16927676D01*
X-4491904Y-16927676D02*
X-4539523Y-17022914D01*
X-4539523Y-17022914D02*
X-4587142Y-17070533D01*
X-4587142Y-17070533D02*
X-4682380Y-17118152D01*
X-4682380Y-17118152D02*
X-4825237Y-17118152D01*
X-4825237Y-17118152D02*
X-4920475Y-17070533D01*
X-4491904Y-16737200D02*
X-4587142Y-16784819D01*
X-4587142Y-16784819D02*
X-4777618Y-16784819D01*
X-4777618Y-16784819D02*
X-4872856Y-16737200D01*
X-4872856Y-16737200D02*
X-4920475Y-16689580D01*
X-4920475Y-16689580D02*
X-4968094Y-16594342D01*
X-4968094Y-16594342D02*
X-4968094Y-16308628D01*
X-4968094Y-16308628D02*
X-4920475Y-16213390D01*
X-4920475Y-16213390D02*
X-4872856Y-16165771D01*
X-4872856Y-16165771D02*
X-4777618Y-16118152D01*
X-4777618Y-16118152D02*
X-4587142Y-16118152D01*
X-4587142Y-16118152D02*
X-4491904Y-16165771D01*
X-3634761Y-16737200D02*
X-3729999Y-16784819D01*
X-3729999Y-16784819D02*
X-3920475Y-16784819D01*
X-3920475Y-16784819D02*
X-4015713Y-16737200D01*
X-4015713Y-16737200D02*
X-4063332Y-16641961D01*
X-4063332Y-16641961D02*
X-4063332Y-16261009D01*
X-4063332Y-16261009D02*
X-4015713Y-16165771D01*
X-4015713Y-16165771D02*
X-3920475Y-16118152D01*
X-3920475Y-16118152D02*
X-3729999Y-16118152D01*
X-3729999Y-16118152D02*
X-3634761Y-16165771D01*
X-3634761Y-16165771D02*
X-3587142Y-16261009D01*
X-3587142Y-16261009D02*
X-3587142Y-16356247D01*
X-3587142Y-16356247D02*
X-4063332Y-16451485D01*
X-3158570Y-16784819D02*
X-3158570Y-16118152D01*
X-3158570Y-16308628D02*
X-3110951Y-16213390D01*
X-3110951Y-16213390D02*
X-3063332Y-16165771D01*
X-3063332Y-16165771D02*
X-2968094Y-16118152D01*
X-2968094Y-16118152D02*
X-2872856Y-16118152D01*
X-1634760Y-16784819D02*
X-1729998Y-16737200D01*
X-1729998Y-16737200D02*
X-1777617Y-16641961D01*
X-1777617Y-16641961D02*
X-1777617Y-15784819D01*
X-872855Y-16737200D02*
X-968093Y-16784819D01*
X-968093Y-16784819D02*
X-1158569Y-16784819D01*
X-1158569Y-16784819D02*
X-1253807Y-16737200D01*
X-1253807Y-16737200D02*
X-1301426Y-16641961D01*
X-1301426Y-16641961D02*
X-1301426Y-16261009D01*
X-1301426Y-16261009D02*
X-1253807Y-16165771D01*
X-1253807Y-16165771D02*
X-1158569Y-16118152D01*
X-1158569Y-16118152D02*
X-968093Y-16118152D01*
X-968093Y-16118152D02*
X-872855Y-16165771D01*
X-872855Y-16165771D02*
X-825236Y-16261009D01*
X-825236Y-16261009D02*
X-825236Y-16356247D01*
X-825236Y-16356247D02*
X-1301426Y-16451485D01*
X-491902Y-16118152D02*
X-253807Y-16784819D01*
X-253807Y-16784819D02*
X-15712Y-16118152D01*
X746192Y-16737200D02*
X650954Y-16784819D01*
X650954Y-16784819D02*
X460478Y-16784819D01*
X460478Y-16784819D02*
X365240Y-16737200D01*
X365240Y-16737200D02*
X317621Y-16641961D01*
X317621Y-16641961D02*
X317621Y-16261009D01*
X317621Y-16261009D02*
X365240Y-16165771D01*
X365240Y-16165771D02*
X460478Y-16118152D01*
X460478Y-16118152D02*
X650954Y-16118152D01*
X650954Y-16118152D02*
X746192Y-16165771D01*
X746192Y-16165771D02*
X793811Y-16261009D01*
X793811Y-16261009D02*
X793811Y-16356247D01*
X793811Y-16356247D02*
X317621Y-16451485D01*
X1365240Y-16784819D02*
X1270002Y-16737200D01*
X1270002Y-16737200D02*
X1222383Y-16641961D01*
X1222383Y-16641961D02*
X1222383Y-15784819D01*
X8004819Y-9921904D02*
X8814342Y-9921904D01*
X8814342Y-9921904D02*
X8909580Y-9874285D01*
X8909580Y-9874285D02*
X8957200Y-9826666D01*
X8957200Y-9826666D02*
X9004819Y-9731428D01*
X9004819Y-9731428D02*
X9004819Y-9540952D01*
X9004819Y-9540952D02*
X8957200Y-9445714D01*
X8957200Y-9445714D02*
X8909580Y-9398095D01*
X8909580Y-9398095D02*
X8814342Y-9350476D01*
X8814342Y-9350476D02*
X8004819Y-9350476D01*
X8100057Y-8921904D02*
X8052438Y-8874285D01*
X8052438Y-8874285D02*
X8004819Y-8779047D01*
X8004819Y-8779047D02*
X8004819Y-8540952D01*
X8004819Y-8540952D02*
X8052438Y-8445714D01*
X8052438Y-8445714D02*
X8100057Y-8398095D01*
X8100057Y-8398095D02*
X8195295Y-8350476D01*
X8195295Y-8350476D02*
X8290533Y-8350476D01*
X8290533Y-8350476D02*
X8433390Y-8398095D01*
X8433390Y-8398095D02*
X9004819Y-8969523D01*
X9004819Y-8969523D02*
X9004819Y-8350476D01*
X8103333Y-13104819D02*
X7770000Y-12628628D01*
X7531905Y-13104819D02*
X7531905Y-12104819D01*
X7531905Y-12104819D02*
X7912857Y-12104819D01*
X7912857Y-12104819D02*
X8008095Y-12152438D01*
X8008095Y-12152438D02*
X8055714Y-12200057D01*
X8055714Y-12200057D02*
X8103333Y-12295295D01*
X8103333Y-12295295D02*
X8103333Y-12438152D01*
X8103333Y-12438152D02*
X8055714Y-12533390D01*
X8055714Y-12533390D02*
X8008095Y-12581009D01*
X8008095Y-12581009D02*
X7912857Y-12628628D01*
X7912857Y-12628628D02*
X7531905Y-12628628D01*
X8436667Y-12104819D02*
X9055714Y-12104819D01*
X9055714Y-12104819D02*
X8722381Y-12485771D01*
X8722381Y-12485771D02*
X8865238Y-12485771D01*
X8865238Y-12485771D02*
X8960476Y-12533390D01*
X8960476Y-12533390D02*
X9008095Y-12581009D01*
X9008095Y-12581009D02*
X9055714Y-12676247D01*
X9055714Y-12676247D02*
X9055714Y-12914342D01*
X9055714Y-12914342D02*
X9008095Y-13009580D01*
X9008095Y-13009580D02*
X8960476Y-13057200D01*
X8960476Y-13057200D02*
X8865238Y-13104819D01*
X8865238Y-13104819D02*
X8579524Y-13104819D01*
X8579524Y-13104819D02*
X8484286Y-13057200D01*
X8484286Y-13057200D02*
X8436667Y-13009580D01*
X12168095Y-8354819D02*
X12168095Y-9164342D01*
X12168095Y-9164342D02*
X12215714Y-9259580D01*
X12215714Y-9259580D02*
X12263333Y-9307200D01*
X12263333Y-9307200D02*
X12358571Y-9354819D01*
X12358571Y-9354819D02*
X12549047Y-9354819D01*
X12549047Y-9354819D02*
X12644285Y-9307200D01*
X12644285Y-9307200D02*
X12691904Y-9259580D01*
X12691904Y-9259580D02*
X12739523Y-9164342D01*
X12739523Y-9164342D02*
X12739523Y-8354819D01*
X13644285Y-8688152D02*
X13644285Y-9354819D01*
X13406190Y-8307200D02*
X13168095Y-9021485D01*
X13168095Y-9021485D02*
X13787142Y-9021485D01*
X6093333Y-12639580D02*
X6045714Y-12687200D01*
X6045714Y-12687200D02*
X5902857Y-12734819D01*
X5902857Y-12734819D02*
X5807619Y-12734819D01*
X5807619Y-12734819D02*
X5664762Y-12687200D01*
X5664762Y-12687200D02*
X5569524Y-12591961D01*
X5569524Y-12591961D02*
X5521905Y-12496723D01*
X5521905Y-12496723D02*
X5474286Y-12306247D01*
X5474286Y-12306247D02*
X5474286Y-12163390D01*
X5474286Y-12163390D02*
X5521905Y-11972914D01*
X5521905Y-11972914D02*
X5569524Y-11877676D01*
X5569524Y-11877676D02*
X5664762Y-11782438D01*
X5664762Y-11782438D02*
X5807619Y-11734819D01*
X5807619Y-11734819D02*
X5902857Y-11734819D01*
X5902857Y-11734819D02*
X6045714Y-11782438D01*
X6045714Y-11782438D02*
X6093333Y-11830057D01*
X6664762Y-12163390D02*
X6569524Y-12115771D01*
X6569524Y-12115771D02*
X6521905Y-12068152D01*
X6521905Y-12068152D02*
X6474286Y-11972914D01*
X6474286Y-11972914D02*
X6474286Y-11925295D01*
X6474286Y-11925295D02*
X6521905Y-11830057D01*
X6521905Y-11830057D02*
X6569524Y-11782438D01*
X6569524Y-11782438D02*
X6664762Y-11734819D01*
X6664762Y-11734819D02*
X6855238Y-11734819D01*
X6855238Y-11734819D02*
X6950476Y-11782438D01*
X6950476Y-11782438D02*
X6998095Y-11830057D01*
X6998095Y-11830057D02*
X7045714Y-11925295D01*
X7045714Y-11925295D02*
X7045714Y-11972914D01*
X7045714Y-11972914D02*
X6998095Y-12068152D01*
X6998095Y-12068152D02*
X6950476Y-12115771D01*
X6950476Y-12115771D02*
X6855238Y-12163390D01*
X6855238Y-12163390D02*
X6664762Y-12163390D01*
X6664762Y-12163390D02*
X6569524Y-12211009D01*
X6569524Y-12211009D02*
X6521905Y-12258628D01*
X6521905Y-12258628D02*
X6474286Y-12353866D01*
X6474286Y-12353866D02*
X6474286Y-12544342D01*
X6474286Y-12544342D02*
X6521905Y-12639580D01*
X6521905Y-12639580D02*
X6569524Y-12687200D01*
X6569524Y-12687200D02*
X6664762Y-12734819D01*
X6664762Y-12734819D02*
X6855238Y-12734819D01*
X6855238Y-12734819D02*
X6950476Y-12687200D01*
X6950476Y-12687200D02*
X6998095Y-12639580D01*
X6998095Y-12639580D02*
X7045714Y-12544342D01*
X7045714Y-12544342D02*
X7045714Y-12353866D01*
X7045714Y-12353866D02*
X6998095Y-12258628D01*
X6998095Y-12258628D02*
X6950476Y-12211009D01*
X6950476Y-12211009D02*
X6855238Y-12163390D01*
D12*
%TO.C,TP3*%
X-12930000Y-21830000D02*
G75*
G02*
X-15930000Y-21830000I-1500000J0D01*
G01*
X-15930000Y-21830000D02*
G75*
G02*
X-12930000Y-21830000I1500000J0D01*
G01*
%TO.C,D4*%
X1672057Y-13820000D02*
X1785686Y-13820000D01*
X1672057Y-13820000D02*
G75*
G02*
X-980685Y-13820000I-1326371J0D01*
G01*
X-980685Y-13820000D02*
G75*
G02*
X1672057Y-13820000I1326371J0D01*
G01*
%TO.C,TP2*%
X-13050000Y-16800000D02*
G75*
G02*
X-16050000Y-16800000I-1500000J0D01*
G01*
X-16050000Y-16800000D02*
G75*
G02*
X-13050000Y-16800000I1500000J0D01*
G01*
%TO.C,TP1*%
X-12310000Y-80000D02*
G75*
G02*
X-15310000Y-80000I-1500000J0D01*
G01*
X-15310000Y-80000D02*
G75*
G02*
X-12310000Y-80000I1500000J0D01*
G01*
%TO.C,J4*%
X1270000Y-23670000D02*
X14030000Y-23670000D01*
X14030000Y-26330000D02*
X14030000Y-23670000D01*
X1270000Y-26330000D02*
X1270000Y-23670000D01*
X1270000Y-26330000D02*
X14030000Y-26330000D01*
X0Y-26330000D02*
X-1330000Y-26330000D01*
X-1330000Y-26330000D02*
X-1330000Y-25000000D01*
%TO.C,J2*%
X-1330000Y-1330000D02*
X-1330000Y0D01*
X0Y-1330000D02*
X-1330000Y-1330000D01*
X1270000Y-1330000D02*
X14030000Y-1330000D01*
X1270000Y-1330000D02*
X1270000Y1330000D01*
X14030000Y-1330000D02*
X14030000Y1330000D01*
X1270000Y1330000D02*
X14030000Y1330000D01*
%TO.C,R8*%
X11834724Y-19257500D02*
X11325276Y-19257500D01*
X11834724Y-20302500D02*
X11325276Y-20302500D01*
%TO.C,Q2*%
X9647500Y-18070000D02*
X9317500Y-18310000D01*
X9317500Y-17830000D01*
X9647500Y-18070000D01*
G36*
X9647500Y-18070000D02*
G01*
X9317500Y-18310000D01*
X9317500Y-17830000D01*
X9647500Y-18070000D01*
G37*
X12717500Y-16907500D02*
X12717500Y-16257500D01*
X12717500Y-16907500D02*
X12717500Y-17557500D01*
X9597500Y-16907500D02*
X9597500Y-16257500D01*
X9597500Y-16907500D02*
X9597500Y-17557500D01*
%TO.C,J7*%
X-15580000Y-4040000D02*
X-14250000Y-4040000D01*
X-15580000Y-5370000D02*
X-15580000Y-4040000D01*
X-15580000Y-6640000D02*
X-15580000Y-14320000D01*
X-15580000Y-6640000D02*
X-12920000Y-6640000D01*
X-15580000Y-14320000D02*
X-12920000Y-14320000D01*
X-12920000Y-6640000D02*
X-12920000Y-14320000D01*
%TO.C,J5*%
X-7425000Y1510000D02*
X-4825000Y1510000D01*
X-4825000Y-1150000D02*
X-4825000Y1510000D01*
X-7425000Y-1150000D02*
X-7425000Y1510000D01*
X-7425000Y-1150000D02*
X-4825000Y-1150000D01*
X-8695000Y-1150000D02*
X-10025000Y-1150000D01*
X-10025000Y-1150000D02*
X-10025000Y180000D01*
%TO.C,J1*%
X-7720000Y-7270000D02*
X-7720000Y-9870000D01*
X-10380000Y-9870000D02*
X-7720000Y-9870000D01*
X-10380000Y-7270000D02*
X-7720000Y-7270000D01*
X-10380000Y-7270000D02*
X-10380000Y-9870000D01*
X-10380000Y-6000000D02*
X-10380000Y-4670000D01*
X-10380000Y-4670000D02*
X-9050000Y-4670000D01*
%TO.C,RV2*%
X-8115000Y-22520000D02*
X-2975000Y-22520000D01*
X-2975000Y-25180000D02*
X-2975000Y-22520000D01*
X-8115000Y-25180000D02*
X-8115000Y-22520000D01*
X-8115000Y-25180000D02*
X-2975000Y-25180000D01*
X-9385000Y-25180000D02*
X-10715000Y-25180000D01*
X-10715000Y-25180000D02*
X-10715000Y-23850000D01*
%TO.C,U5*%
X4120000Y-18640000D02*
X3790000Y-18400000D01*
X4120000Y-18160000D01*
X4120000Y-18640000D01*
G36*
X4120000Y-18640000D02*
G01*
X3790000Y-18400000D01*
X4120000Y-18160000D01*
X4120000Y-18640000D01*
G37*
X620000Y-18700000D02*
X620000Y-20500000D01*
X3840000Y-19700000D02*
X3840000Y-18900000D01*
X3840000Y-19700000D02*
X3840000Y-20500000D01*
%TO.C,U3*%
X5470000Y-17080000D02*
X5230000Y-16750000D01*
X5710000Y-16750000D01*
X5470000Y-17080000D01*
G36*
X5470000Y-17080000D02*
G01*
X5230000Y-16750000D01*
X5710000Y-16750000D01*
X5470000Y-17080000D01*
G37*
X6770000Y-17030000D02*
X7570000Y-17030000D01*
X6770000Y-17030000D02*
X5970000Y-17030000D01*
X5770000Y-20250000D02*
X7570000Y-20250000D01*
%TO.C,R6*%
X10702776Y-13577500D02*
X11212224Y-13577500D01*
X10702776Y-14622500D02*
X11212224Y-14622500D01*
%TO.C,RV3*%
X-8080000Y-12670000D02*
X-2940000Y-12670000D01*
X-2940000Y-15330000D02*
X-2940000Y-12670000D01*
X-8080000Y-15330000D02*
X-8080000Y-12670000D01*
X-8080000Y-15330000D02*
X-2940000Y-15330000D01*
X-9350000Y-15330000D02*
X-10680000Y-15330000D01*
X-10680000Y-15330000D02*
X-10680000Y-14000000D01*
%TO.C,R4*%
X7532500Y-3512776D02*
X7532500Y-4022224D01*
X6487500Y-3512776D02*
X6487500Y-4022224D01*
%TO.C,SW1*%
X1070000Y-6680000D02*
G75*
G02*
X-4010000Y-6680000I-2540000J0D01*
G01*
X-4010000Y-6680000D02*
G75*
G02*
X1070000Y-6680000I2540000J0D01*
G01*
X-5280000Y-2870000D02*
X-5280000Y-3170000D01*
X-5280000Y-2870000D02*
X2340000Y-2870000D01*
X-5280000Y-5110000D02*
X-5280000Y-8250000D01*
X-5280000Y-10190000D02*
X-5280000Y-10490000D01*
X2340000Y-2870000D02*
X2340000Y-3170000D01*
X2340000Y-5110000D02*
X2340000Y-8250000D01*
X2340000Y-10190000D02*
X2340000Y-10490000D01*
X2340000Y-10490000D02*
X-5280000Y-10490000D01*
%TO.C,R15*%
X5942500Y-3632776D02*
X5942500Y-4142224D01*
X4897500Y-3632776D02*
X4897500Y-4142224D01*
%TO.C,D3*%
X10140001Y-4344485D02*
G75*
G02*
X13372334Y-4501392I1559999J-1235515D01*
G01*
X10659040Y-4500001D02*
G75*
G02*
X12741129Y-4500164I1040960J-1079999D01*
G01*
X12741129Y-6659836D02*
G75*
G02*
X10659040Y-6659999I-1041129J1079836D01*
G01*
X13372334Y-6658608D02*
G75*
G02*
X10140001Y-6815515I-1672334J1078608D01*
G01*
X10140000Y-4344000D02*
X10140000Y-4500000D01*
X10140000Y-6660000D02*
X10140000Y-6816000D01*
%TO.C,RV1*%
X-10585000Y-20210000D02*
X-10585000Y-18880000D01*
X-9255000Y-20210000D02*
X-10585000Y-20210000D01*
X-7985000Y-20210000D02*
X-2845000Y-20210000D01*
X-7985000Y-20210000D02*
X-7985000Y-17550000D01*
X-2845000Y-20210000D02*
X-2845000Y-17550000D01*
X-7985000Y-17550000D02*
X-2845000Y-17550000D01*
%TO.C,U2*%
X4460000Y-9170000D02*
X4130000Y-9410000D01*
X4130000Y-8930000D01*
X4460000Y-9170000D01*
G36*
X4460000Y-9170000D02*
G01*
X4130000Y-9410000D01*
X4130000Y-8930000D01*
X4460000Y-9170000D01*
G37*
X7630000Y-8870000D02*
X7630000Y-7070000D01*
X4410000Y-7870000D02*
X4410000Y-8670000D01*
X4410000Y-7870000D02*
X4410000Y-7070000D01*
%TO.C,R3*%
X7697500Y-15214724D02*
X7697500Y-14705276D01*
X8742500Y-15214724D02*
X8742500Y-14705276D01*
%TO.C,U4*%
X13130000Y-13240000D02*
X12650000Y-13240000D01*
X12890000Y-12910000D01*
X13130000Y-13240000D01*
G36*
X13130000Y-13240000D02*
G01*
X12650000Y-13240000D01*
X12890000Y-12910000D01*
X13130000Y-13240000D01*
G37*
X12590000Y-9740000D02*
X10790000Y-9740000D01*
X11590000Y-12960000D02*
X12390000Y-12960000D01*
X11590000Y-12960000D02*
X10790000Y-12960000D01*
%TO.C,C8*%
X5645000Y-15061252D02*
X5645000Y-14538748D01*
X7115000Y-15061252D02*
X7115000Y-14538748D01*
%TD*%
M02*
