%TF.GenerationSoftware,KiCad,Pcbnew,8.0.1*%
%TF.CreationDate,2024-06-10T18:05:53-07:00*%
%TF.ProjectId,knockControlBoard,6b6e6f63-6b43-46f6-9e74-726f6c426f61,rev?*%
%TF.SameCoordinates,Original*%
%TF.FileFunction,Legend,Bot*%
%TF.FilePolarity,Positive*%
%FSLAX46Y46*%
G04 Gerber Fmt 4.6, Leading zero omitted, Abs format (unit mm)*
G04 Created by KiCad (PCBNEW 8.0.1) date 2024-06-10 18:05:53*
%MOMM*%
%LPD*%
G01*
G04 APERTURE LIST*
%ADD10C,0.150000*%
%ADD11C,0.120000*%
G04 APERTURE END LIST*
D10*
X15704819Y-18387142D02*
X15228628Y-18053809D01*
X15704819Y-17815714D02*
X14704819Y-17815714D01*
X14704819Y-17815714D02*
X14704819Y-18196666D01*
X14704819Y-18196666D02*
X14752438Y-18291904D01*
X14752438Y-18291904D02*
X14800057Y-18339523D01*
X14800057Y-18339523D02*
X14895295Y-18387142D01*
X14895295Y-18387142D02*
X15038152Y-18387142D01*
X15038152Y-18387142D02*
X15133390Y-18339523D01*
X15133390Y-18339523D02*
X15181009Y-18291904D01*
X15181009Y-18291904D02*
X15228628Y-18196666D01*
X15228628Y-18196666D02*
X15228628Y-17815714D01*
X15704819Y-19339523D02*
X15704819Y-18768095D01*
X15704819Y-19053809D02*
X14704819Y-19053809D01*
X14704819Y-19053809D02*
X14847676Y-18958571D01*
X14847676Y-18958571D02*
X14942914Y-18863333D01*
X14942914Y-18863333D02*
X14990533Y-18768095D01*
X14704819Y-19958571D02*
X14704819Y-20053809D01*
X14704819Y-20053809D02*
X14752438Y-20149047D01*
X14752438Y-20149047D02*
X14800057Y-20196666D01*
X14800057Y-20196666D02*
X14895295Y-20244285D01*
X14895295Y-20244285D02*
X15085771Y-20291904D01*
X15085771Y-20291904D02*
X15323866Y-20291904D01*
X15323866Y-20291904D02*
X15514342Y-20244285D01*
X15514342Y-20244285D02*
X15609580Y-20196666D01*
X15609580Y-20196666D02*
X15657200Y-20149047D01*
X15657200Y-20149047D02*
X15704819Y-20053809D01*
X15704819Y-20053809D02*
X15704819Y-19958571D01*
X15704819Y-19958571D02*
X15657200Y-19863333D01*
X15657200Y-19863333D02*
X15609580Y-19815714D01*
X15609580Y-19815714D02*
X15514342Y-19768095D01*
X15514342Y-19768095D02*
X15323866Y-19720476D01*
X15323866Y-19720476D02*
X15085771Y-19720476D01*
X15085771Y-19720476D02*
X14895295Y-19768095D01*
X14895295Y-19768095D02*
X14800057Y-19815714D01*
X14800057Y-19815714D02*
X14752438Y-19863333D01*
X14752438Y-19863333D02*
X14704819Y-19958571D01*
X12445238Y-22120057D02*
X12540476Y-22072438D01*
X12540476Y-22072438D02*
X12635714Y-21977200D01*
X12635714Y-21977200D02*
X12778571Y-21834342D01*
X12778571Y-21834342D02*
X12873809Y-21786723D01*
X12873809Y-21786723D02*
X12969047Y-21786723D01*
X12921428Y-22024819D02*
X13016666Y-21977200D01*
X13016666Y-21977200D02*
X13111904Y-21881961D01*
X13111904Y-21881961D02*
X13159523Y-21691485D01*
X13159523Y-21691485D02*
X13159523Y-21358152D01*
X13159523Y-21358152D02*
X13111904Y-21167676D01*
X13111904Y-21167676D02*
X13016666Y-21072438D01*
X13016666Y-21072438D02*
X12921428Y-21024819D01*
X12921428Y-21024819D02*
X12730952Y-21024819D01*
X12730952Y-21024819D02*
X12635714Y-21072438D01*
X12635714Y-21072438D02*
X12540476Y-21167676D01*
X12540476Y-21167676D02*
X12492857Y-21358152D01*
X12492857Y-21358152D02*
X12492857Y-21691485D01*
X12492857Y-21691485D02*
X12540476Y-21881961D01*
X12540476Y-21881961D02*
X12635714Y-21977200D01*
X12635714Y-21977200D02*
X12730952Y-22024819D01*
X12730952Y-22024819D02*
X12921428Y-22024819D01*
X11635714Y-21358152D02*
X11635714Y-22024819D01*
X11873809Y-20977200D02*
X12111904Y-21691485D01*
X12111904Y-21691485D02*
X11492857Y-21691485D01*
X9130057Y-13944761D02*
X9082438Y-13849523D01*
X9082438Y-13849523D02*
X8987200Y-13754285D01*
X8987200Y-13754285D02*
X8844342Y-13611428D01*
X8844342Y-13611428D02*
X8796723Y-13516190D01*
X8796723Y-13516190D02*
X8796723Y-13420952D01*
X9034819Y-13468571D02*
X8987200Y-13373333D01*
X8987200Y-13373333D02*
X8891961Y-13278095D01*
X8891961Y-13278095D02*
X8701485Y-13230476D01*
X8701485Y-13230476D02*
X8368152Y-13230476D01*
X8368152Y-13230476D02*
X8177676Y-13278095D01*
X8177676Y-13278095D02*
X8082438Y-13373333D01*
X8082438Y-13373333D02*
X8034819Y-13468571D01*
X8034819Y-13468571D02*
X8034819Y-13659047D01*
X8034819Y-13659047D02*
X8082438Y-13754285D01*
X8082438Y-13754285D02*
X8177676Y-13849523D01*
X8177676Y-13849523D02*
X8368152Y-13897142D01*
X8368152Y-13897142D02*
X8701485Y-13897142D01*
X8701485Y-13897142D02*
X8891961Y-13849523D01*
X8891961Y-13849523D02*
X8987200Y-13754285D01*
X8987200Y-13754285D02*
X9034819Y-13659047D01*
X9034819Y-13659047D02*
X9034819Y-13468571D01*
X8034819Y-14230476D02*
X8034819Y-14849523D01*
X8034819Y-14849523D02*
X8415771Y-14516190D01*
X8415771Y-14516190D02*
X8415771Y-14659047D01*
X8415771Y-14659047D02*
X8463390Y-14754285D01*
X8463390Y-14754285D02*
X8511009Y-14801904D01*
X8511009Y-14801904D02*
X8606247Y-14849523D01*
X8606247Y-14849523D02*
X8844342Y-14849523D01*
X8844342Y-14849523D02*
X8939580Y-14801904D01*
X8939580Y-14801904D02*
X8987200Y-14754285D01*
X8987200Y-14754285D02*
X9034819Y-14659047D01*
X9034819Y-14659047D02*
X9034819Y-14373333D01*
X9034819Y-14373333D02*
X8987200Y-14278095D01*
X8987200Y-14278095D02*
X8939580Y-14230476D01*
X8804819Y-16635833D02*
X8328628Y-16302500D01*
X8804819Y-16064405D02*
X7804819Y-16064405D01*
X7804819Y-16064405D02*
X7804819Y-16445357D01*
X7804819Y-16445357D02*
X7852438Y-16540595D01*
X7852438Y-16540595D02*
X7900057Y-16588214D01*
X7900057Y-16588214D02*
X7995295Y-16635833D01*
X7995295Y-16635833D02*
X8138152Y-16635833D01*
X8138152Y-16635833D02*
X8233390Y-16588214D01*
X8233390Y-16588214D02*
X8281009Y-16540595D01*
X8281009Y-16540595D02*
X8328628Y-16445357D01*
X8328628Y-16445357D02*
X8328628Y-16064405D01*
X7804819Y-16969167D02*
X7804819Y-17635833D01*
X7804819Y-17635833D02*
X8804819Y-17207262D01*
X-543333Y-22287319D02*
X-210000Y-21811128D01*
X28094Y-22287319D02*
X28094Y-21287319D01*
X28094Y-21287319D02*
X-352857Y-21287319D01*
X-352857Y-21287319D02*
X-448095Y-21334938D01*
X-448095Y-21334938D02*
X-495714Y-21382557D01*
X-495714Y-21382557D02*
X-543333Y-21477795D01*
X-543333Y-21477795D02*
X-543333Y-21620652D01*
X-543333Y-21620652D02*
X-495714Y-21715890D01*
X-495714Y-21715890D02*
X-448095Y-21763509D01*
X-448095Y-21763509D02*
X-352857Y-21811128D01*
X-352857Y-21811128D02*
X28094Y-21811128D01*
X-1448095Y-21287319D02*
X-971905Y-21287319D01*
X-971905Y-21287319D02*
X-924286Y-21763509D01*
X-924286Y-21763509D02*
X-971905Y-21715890D01*
X-971905Y-21715890D02*
X-1067143Y-21668271D01*
X-1067143Y-21668271D02*
X-1305238Y-21668271D01*
X-1305238Y-21668271D02*
X-1400476Y-21715890D01*
X-1400476Y-21715890D02*
X-1448095Y-21763509D01*
X-1448095Y-21763509D02*
X-1495714Y-21858747D01*
X-1495714Y-21858747D02*
X-1495714Y-22096842D01*
X-1495714Y-22096842D02*
X-1448095Y-22192080D01*
X-1448095Y-22192080D02*
X-1400476Y-22239700D01*
X-1400476Y-22239700D02*
X-1305238Y-22287319D01*
X-1305238Y-22287319D02*
X-1067143Y-22287319D01*
X-1067143Y-22287319D02*
X-971905Y-22239700D01*
X-971905Y-22239700D02*
X-924286Y-22192080D01*
X-22680Y-11278333D02*
X-498871Y-10945000D01*
X-22680Y-10706905D02*
X-1022680Y-10706905D01*
X-1022680Y-10706905D02*
X-1022680Y-11087857D01*
X-1022680Y-11087857D02*
X-975061Y-11183095D01*
X-975061Y-11183095D02*
X-927442Y-11230714D01*
X-927442Y-11230714D02*
X-832204Y-11278333D01*
X-832204Y-11278333D02*
X-689347Y-11278333D01*
X-689347Y-11278333D02*
X-594109Y-11230714D01*
X-594109Y-11230714D02*
X-546490Y-11183095D01*
X-546490Y-11183095D02*
X-498871Y-11087857D01*
X-498871Y-11087857D02*
X-498871Y-10706905D01*
X-927442Y-11659286D02*
X-975061Y-11706905D01*
X-975061Y-11706905D02*
X-1022680Y-11802143D01*
X-1022680Y-11802143D02*
X-1022680Y-12040238D01*
X-1022680Y-12040238D02*
X-975061Y-12135476D01*
X-975061Y-12135476D02*
X-927442Y-12183095D01*
X-927442Y-12183095D02*
X-832204Y-12230714D01*
X-832204Y-12230714D02*
X-736966Y-12230714D01*
X-736966Y-12230714D02*
X-594109Y-12183095D01*
X-594109Y-12183095D02*
X-22680Y-11611667D01*
X-22680Y-11611667D02*
X-22680Y-12230714D01*
X5421904Y-15992319D02*
X5421904Y-16801842D01*
X5421904Y-16801842D02*
X5374285Y-16897080D01*
X5374285Y-16897080D02*
X5326666Y-16944700D01*
X5326666Y-16944700D02*
X5231428Y-16992319D01*
X5231428Y-16992319D02*
X5040952Y-16992319D01*
X5040952Y-16992319D02*
X4945714Y-16944700D01*
X4945714Y-16944700D02*
X4898095Y-16897080D01*
X4898095Y-16897080D02*
X4850476Y-16801842D01*
X4850476Y-16801842D02*
X4850476Y-15992319D01*
X3850476Y-16992319D02*
X4421904Y-16992319D01*
X4136190Y-16992319D02*
X4136190Y-15992319D01*
X4136190Y-15992319D02*
X4231428Y-16135176D01*
X4231428Y-16135176D02*
X4326666Y-16230414D01*
X4326666Y-16230414D02*
X4421904Y-16278033D01*
X3069580Y-16093333D02*
X3117200Y-16045714D01*
X3117200Y-16045714D02*
X3164819Y-15902857D01*
X3164819Y-15902857D02*
X3164819Y-15807619D01*
X3164819Y-15807619D02*
X3117200Y-15664762D01*
X3117200Y-15664762D02*
X3021961Y-15569524D01*
X3021961Y-15569524D02*
X2926723Y-15521905D01*
X2926723Y-15521905D02*
X2736247Y-15474286D01*
X2736247Y-15474286D02*
X2593390Y-15474286D01*
X2593390Y-15474286D02*
X2402914Y-15521905D01*
X2402914Y-15521905D02*
X2307676Y-15569524D01*
X2307676Y-15569524D02*
X2212438Y-15664762D01*
X2212438Y-15664762D02*
X2164819Y-15807619D01*
X2164819Y-15807619D02*
X2164819Y-15902857D01*
X2164819Y-15902857D02*
X2212438Y-16045714D01*
X2212438Y-16045714D02*
X2260057Y-16093333D01*
X3164819Y-17045714D02*
X3164819Y-16474286D01*
X3164819Y-16760000D02*
X2164819Y-16760000D01*
X2164819Y-16760000D02*
X2307676Y-16664762D01*
X2307676Y-16664762D02*
X2402914Y-16569524D01*
X2402914Y-16569524D02*
X2450533Y-16474286D01*
X7256666Y-11289580D02*
X7304285Y-11337200D01*
X7304285Y-11337200D02*
X7447142Y-11384819D01*
X7447142Y-11384819D02*
X7542380Y-11384819D01*
X7542380Y-11384819D02*
X7685237Y-11337200D01*
X7685237Y-11337200D02*
X7780475Y-11241961D01*
X7780475Y-11241961D02*
X7828094Y-11146723D01*
X7828094Y-11146723D02*
X7875713Y-10956247D01*
X7875713Y-10956247D02*
X7875713Y-10813390D01*
X7875713Y-10813390D02*
X7828094Y-10622914D01*
X7828094Y-10622914D02*
X7780475Y-10527676D01*
X7780475Y-10527676D02*
X7685237Y-10432438D01*
X7685237Y-10432438D02*
X7542380Y-10384819D01*
X7542380Y-10384819D02*
X7447142Y-10384819D01*
X7447142Y-10384819D02*
X7304285Y-10432438D01*
X7304285Y-10432438D02*
X7256666Y-10480057D01*
X6399523Y-10718152D02*
X6399523Y-11384819D01*
X6637618Y-10337200D02*
X6875713Y-11051485D01*
X6875713Y-11051485D02*
X6256666Y-11051485D01*
X-7540833Y-10454819D02*
X-7207500Y-9978628D01*
X-6969405Y-10454819D02*
X-6969405Y-9454819D01*
X-6969405Y-9454819D02*
X-7350357Y-9454819D01*
X-7350357Y-9454819D02*
X-7445595Y-9502438D01*
X-7445595Y-9502438D02*
X-7493214Y-9550057D01*
X-7493214Y-9550057D02*
X-7540833Y-9645295D01*
X-7540833Y-9645295D02*
X-7540833Y-9788152D01*
X-7540833Y-9788152D02*
X-7493214Y-9883390D01*
X-7493214Y-9883390D02*
X-7445595Y-9931009D01*
X-7445595Y-9931009D02*
X-7350357Y-9978628D01*
X-7350357Y-9978628D02*
X-6969405Y-9978628D01*
X-8493214Y-10454819D02*
X-7921786Y-10454819D01*
X-8207500Y-10454819D02*
X-8207500Y-9454819D01*
X-8207500Y-9454819D02*
X-8112262Y-9597676D01*
X-8112262Y-9597676D02*
X-8017024Y-9692914D01*
X-8017024Y-9692914D02*
X-7921786Y-9740533D01*
X12499404Y-8727319D02*
X12499404Y-9536842D01*
X12499404Y-9536842D02*
X12451785Y-9632080D01*
X12451785Y-9632080D02*
X12404166Y-9679700D01*
X12404166Y-9679700D02*
X12308928Y-9727319D01*
X12308928Y-9727319D02*
X12118452Y-9727319D01*
X12118452Y-9727319D02*
X12023214Y-9679700D01*
X12023214Y-9679700D02*
X11975595Y-9632080D01*
X11975595Y-9632080D02*
X11927976Y-9536842D01*
X11927976Y-9536842D02*
X11927976Y-8727319D01*
X11023214Y-8727319D02*
X11213690Y-8727319D01*
X11213690Y-8727319D02*
X11308928Y-8774938D01*
X11308928Y-8774938D02*
X11356547Y-8822557D01*
X11356547Y-8822557D02*
X11451785Y-8965414D01*
X11451785Y-8965414D02*
X11499404Y-9155890D01*
X11499404Y-9155890D02*
X11499404Y-9536842D01*
X11499404Y-9536842D02*
X11451785Y-9632080D01*
X11451785Y-9632080D02*
X11404166Y-9679700D01*
X11404166Y-9679700D02*
X11308928Y-9727319D01*
X11308928Y-9727319D02*
X11118452Y-9727319D01*
X11118452Y-9727319D02*
X11023214Y-9679700D01*
X11023214Y-9679700D02*
X10975595Y-9632080D01*
X10975595Y-9632080D02*
X10927976Y-9536842D01*
X10927976Y-9536842D02*
X10927976Y-9298747D01*
X10927976Y-9298747D02*
X10975595Y-9203509D01*
X10975595Y-9203509D02*
X11023214Y-9155890D01*
X11023214Y-9155890D02*
X11118452Y-9108271D01*
X11118452Y-9108271D02*
X11308928Y-9108271D01*
X11308928Y-9108271D02*
X11404166Y-9155890D01*
X11404166Y-9155890D02*
X11451785Y-9203509D01*
X11451785Y-9203509D02*
X11499404Y-9298747D01*
X6685238Y-9330057D02*
X6780476Y-9282438D01*
X6780476Y-9282438D02*
X6875714Y-9187200D01*
X6875714Y-9187200D02*
X7018571Y-9044342D01*
X7018571Y-9044342D02*
X7113809Y-8996723D01*
X7113809Y-8996723D02*
X7209047Y-8996723D01*
X7161428Y-9234819D02*
X7256666Y-9187200D01*
X7256666Y-9187200D02*
X7351904Y-9091961D01*
X7351904Y-9091961D02*
X7399523Y-8901485D01*
X7399523Y-8901485D02*
X7399523Y-8568152D01*
X7399523Y-8568152D02*
X7351904Y-8377676D01*
X7351904Y-8377676D02*
X7256666Y-8282438D01*
X7256666Y-8282438D02*
X7161428Y-8234819D01*
X7161428Y-8234819D02*
X6970952Y-8234819D01*
X6970952Y-8234819D02*
X6875714Y-8282438D01*
X6875714Y-8282438D02*
X6780476Y-8377676D01*
X6780476Y-8377676D02*
X6732857Y-8568152D01*
X6732857Y-8568152D02*
X6732857Y-8901485D01*
X6732857Y-8901485D02*
X6780476Y-9091961D01*
X6780476Y-9091961D02*
X6875714Y-9187200D01*
X6875714Y-9187200D02*
X6970952Y-9234819D01*
X6970952Y-9234819D02*
X7161428Y-9234819D01*
X5780476Y-9234819D02*
X6351904Y-9234819D01*
X6066190Y-9234819D02*
X6066190Y-8234819D01*
X6066190Y-8234819D02*
X6161428Y-8377676D01*
X6161428Y-8377676D02*
X6256666Y-8472914D01*
X6256666Y-8472914D02*
X6351904Y-8520533D01*
X15889580Y-14547142D02*
X15937200Y-14499523D01*
X15937200Y-14499523D02*
X15984819Y-14356666D01*
X15984819Y-14356666D02*
X15984819Y-14261428D01*
X15984819Y-14261428D02*
X15937200Y-14118571D01*
X15937200Y-14118571D02*
X15841961Y-14023333D01*
X15841961Y-14023333D02*
X15746723Y-13975714D01*
X15746723Y-13975714D02*
X15556247Y-13928095D01*
X15556247Y-13928095D02*
X15413390Y-13928095D01*
X15413390Y-13928095D02*
X15222914Y-13975714D01*
X15222914Y-13975714D02*
X15127676Y-14023333D01*
X15127676Y-14023333D02*
X15032438Y-14118571D01*
X15032438Y-14118571D02*
X14984819Y-14261428D01*
X14984819Y-14261428D02*
X14984819Y-14356666D01*
X14984819Y-14356666D02*
X15032438Y-14499523D01*
X15032438Y-14499523D02*
X15080057Y-14547142D01*
X15984819Y-15499523D02*
X15984819Y-14928095D01*
X15984819Y-15213809D02*
X14984819Y-15213809D01*
X14984819Y-15213809D02*
X15127676Y-15118571D01*
X15127676Y-15118571D02*
X15222914Y-15023333D01*
X15222914Y-15023333D02*
X15270533Y-14928095D01*
X15984819Y-16451904D02*
X15984819Y-15880476D01*
X15984819Y-16166190D02*
X14984819Y-16166190D01*
X14984819Y-16166190D02*
X15127676Y-16070952D01*
X15127676Y-16070952D02*
X15222914Y-15975714D01*
X15222914Y-15975714D02*
X15270533Y-15880476D01*
X-13085833Y-2839580D02*
X-13038214Y-2887200D01*
X-13038214Y-2887200D02*
X-12895357Y-2934819D01*
X-12895357Y-2934819D02*
X-12800119Y-2934819D01*
X-12800119Y-2934819D02*
X-12657262Y-2887200D01*
X-12657262Y-2887200D02*
X-12562024Y-2791961D01*
X-12562024Y-2791961D02*
X-12514405Y-2696723D01*
X-12514405Y-2696723D02*
X-12466786Y-2506247D01*
X-12466786Y-2506247D02*
X-12466786Y-2363390D01*
X-12466786Y-2363390D02*
X-12514405Y-2172914D01*
X-12514405Y-2172914D02*
X-12562024Y-2077676D01*
X-12562024Y-2077676D02*
X-12657262Y-1982438D01*
X-12657262Y-1982438D02*
X-12800119Y-1934819D01*
X-12800119Y-1934819D02*
X-12895357Y-1934819D01*
X-12895357Y-1934819D02*
X-13038214Y-1982438D01*
X-13038214Y-1982438D02*
X-13085833Y-2030057D01*
X-13562024Y-2934819D02*
X-13752500Y-2934819D01*
X-13752500Y-2934819D02*
X-13847738Y-2887200D01*
X-13847738Y-2887200D02*
X-13895357Y-2839580D01*
X-13895357Y-2839580D02*
X-13990595Y-2696723D01*
X-13990595Y-2696723D02*
X-14038214Y-2506247D01*
X-14038214Y-2506247D02*
X-14038214Y-2125295D01*
X-14038214Y-2125295D02*
X-13990595Y-2030057D01*
X-13990595Y-2030057D02*
X-13942976Y-1982438D01*
X-13942976Y-1982438D02*
X-13847738Y-1934819D01*
X-13847738Y-1934819D02*
X-13657262Y-1934819D01*
X-13657262Y-1934819D02*
X-13562024Y-1982438D01*
X-13562024Y-1982438D02*
X-13514405Y-2030057D01*
X-13514405Y-2030057D02*
X-13466786Y-2125295D01*
X-13466786Y-2125295D02*
X-13466786Y-2363390D01*
X-13466786Y-2363390D02*
X-13514405Y-2458628D01*
X-13514405Y-2458628D02*
X-13562024Y-2506247D01*
X-13562024Y-2506247D02*
X-13657262Y-2553866D01*
X-13657262Y-2553866D02*
X-13847738Y-2553866D01*
X-13847738Y-2553866D02*
X-13942976Y-2506247D01*
X-13942976Y-2506247D02*
X-13990595Y-2458628D01*
X-13990595Y-2458628D02*
X-14038214Y-2363390D01*
X4636666Y-9769580D02*
X4684285Y-9817200D01*
X4684285Y-9817200D02*
X4827142Y-9864819D01*
X4827142Y-9864819D02*
X4922380Y-9864819D01*
X4922380Y-9864819D02*
X5065237Y-9817200D01*
X5065237Y-9817200D02*
X5160475Y-9721961D01*
X5160475Y-9721961D02*
X5208094Y-9626723D01*
X5208094Y-9626723D02*
X5255713Y-9436247D01*
X5255713Y-9436247D02*
X5255713Y-9293390D01*
X5255713Y-9293390D02*
X5208094Y-9102914D01*
X5208094Y-9102914D02*
X5160475Y-9007676D01*
X5160475Y-9007676D02*
X5065237Y-8912438D01*
X5065237Y-8912438D02*
X4922380Y-8864819D01*
X4922380Y-8864819D02*
X4827142Y-8864819D01*
X4827142Y-8864819D02*
X4684285Y-8912438D01*
X4684285Y-8912438D02*
X4636666Y-8960057D01*
X4303332Y-8864819D02*
X3684285Y-8864819D01*
X3684285Y-8864819D02*
X4017618Y-9245771D01*
X4017618Y-9245771D02*
X3874761Y-9245771D01*
X3874761Y-9245771D02*
X3779523Y-9293390D01*
X3779523Y-9293390D02*
X3731904Y-9341009D01*
X3731904Y-9341009D02*
X3684285Y-9436247D01*
X3684285Y-9436247D02*
X3684285Y-9674342D01*
X3684285Y-9674342D02*
X3731904Y-9769580D01*
X3731904Y-9769580D02*
X3779523Y-9817200D01*
X3779523Y-9817200D02*
X3874761Y-9864819D01*
X3874761Y-9864819D02*
X4160475Y-9864819D01*
X4160475Y-9864819D02*
X4255713Y-9817200D01*
X4255713Y-9817200D02*
X4303332Y-9769580D01*
X5104166Y-22289580D02*
X5151785Y-22337200D01*
X5151785Y-22337200D02*
X5294642Y-22384819D01*
X5294642Y-22384819D02*
X5389880Y-22384819D01*
X5389880Y-22384819D02*
X5532737Y-22337200D01*
X5532737Y-22337200D02*
X5627975Y-22241961D01*
X5627975Y-22241961D02*
X5675594Y-22146723D01*
X5675594Y-22146723D02*
X5723213Y-21956247D01*
X5723213Y-21956247D02*
X5723213Y-21813390D01*
X5723213Y-21813390D02*
X5675594Y-21622914D01*
X5675594Y-21622914D02*
X5627975Y-21527676D01*
X5627975Y-21527676D02*
X5532737Y-21432438D01*
X5532737Y-21432438D02*
X5389880Y-21384819D01*
X5389880Y-21384819D02*
X5294642Y-21384819D01*
X5294642Y-21384819D02*
X5151785Y-21432438D01*
X5151785Y-21432438D02*
X5104166Y-21480057D01*
X4199404Y-21384819D02*
X4675594Y-21384819D01*
X4675594Y-21384819D02*
X4723213Y-21861009D01*
X4723213Y-21861009D02*
X4675594Y-21813390D01*
X4675594Y-21813390D02*
X4580356Y-21765771D01*
X4580356Y-21765771D02*
X4342261Y-21765771D01*
X4342261Y-21765771D02*
X4247023Y-21813390D01*
X4247023Y-21813390D02*
X4199404Y-21861009D01*
X4199404Y-21861009D02*
X4151785Y-21956247D01*
X4151785Y-21956247D02*
X4151785Y-22194342D01*
X4151785Y-22194342D02*
X4199404Y-22289580D01*
X4199404Y-22289580D02*
X4247023Y-22337200D01*
X4247023Y-22337200D02*
X4342261Y-22384819D01*
X4342261Y-22384819D02*
X4580356Y-22384819D01*
X4580356Y-22384819D02*
X4675594Y-22337200D01*
X4675594Y-22337200D02*
X4723213Y-22289580D01*
X9382857Y-3864819D02*
X9716190Y-3388628D01*
X9954285Y-3864819D02*
X9954285Y-2864819D01*
X9954285Y-2864819D02*
X9573333Y-2864819D01*
X9573333Y-2864819D02*
X9478095Y-2912438D01*
X9478095Y-2912438D02*
X9430476Y-2960057D01*
X9430476Y-2960057D02*
X9382857Y-3055295D01*
X9382857Y-3055295D02*
X9382857Y-3198152D01*
X9382857Y-3198152D02*
X9430476Y-3293390D01*
X9430476Y-3293390D02*
X9478095Y-3341009D01*
X9478095Y-3341009D02*
X9573333Y-3388628D01*
X9573333Y-3388628D02*
X9954285Y-3388628D01*
X8430476Y-3864819D02*
X9001904Y-3864819D01*
X8716190Y-3864819D02*
X8716190Y-2864819D01*
X8716190Y-2864819D02*
X8811428Y-3007676D01*
X8811428Y-3007676D02*
X8906666Y-3102914D01*
X8906666Y-3102914D02*
X9001904Y-3150533D01*
X7478095Y-3864819D02*
X8049523Y-3864819D01*
X7763809Y-3864819D02*
X7763809Y-2864819D01*
X7763809Y-2864819D02*
X7859047Y-3007676D01*
X7859047Y-3007676D02*
X7954285Y-3102914D01*
X7954285Y-3102914D02*
X8049523Y-3150533D01*
X10716666Y-22869580D02*
X10764285Y-22917200D01*
X10764285Y-22917200D02*
X10907142Y-22964819D01*
X10907142Y-22964819D02*
X11002380Y-22964819D01*
X11002380Y-22964819D02*
X11145237Y-22917200D01*
X11145237Y-22917200D02*
X11240475Y-22821961D01*
X11240475Y-22821961D02*
X11288094Y-22726723D01*
X11288094Y-22726723D02*
X11335713Y-22536247D01*
X11335713Y-22536247D02*
X11335713Y-22393390D01*
X11335713Y-22393390D02*
X11288094Y-22202914D01*
X11288094Y-22202914D02*
X11240475Y-22107676D01*
X11240475Y-22107676D02*
X11145237Y-22012438D01*
X11145237Y-22012438D02*
X11002380Y-21964819D01*
X11002380Y-21964819D02*
X10907142Y-21964819D01*
X10907142Y-21964819D02*
X10764285Y-22012438D01*
X10764285Y-22012438D02*
X10716666Y-22060057D01*
X10383332Y-21964819D02*
X9716666Y-21964819D01*
X9716666Y-21964819D02*
X10145237Y-22964819D01*
D11*
%TO.C,R10*%
X14262500Y-19437224D02*
X14262500Y-18927776D01*
X13217500Y-19437224D02*
X13217500Y-18927776D01*
%TO.C,Q4*%
X9917500Y-20940000D02*
X9437500Y-20940000D01*
X9677500Y-20610000D01*
X9917500Y-20940000D01*
G36*
X9917500Y-20940000D02*
G01*
X9437500Y-20940000D01*
X9677500Y-20610000D01*
X9917500Y-20940000D01*
G37*
X11490000Y-17540000D02*
X10840000Y-17540000D01*
X10190000Y-17540000D02*
X10840000Y-17540000D01*
X11490000Y-20660000D02*
X10840000Y-20660000D01*
X10190000Y-20660000D02*
X10840000Y-20660000D01*
%TO.C,Q3*%
X12760000Y-16525000D02*
X12430000Y-16285000D01*
X12760000Y-16045000D01*
X12760000Y-16525000D01*
G36*
X12760000Y-16525000D02*
G01*
X12430000Y-16285000D01*
X12760000Y-16045000D01*
X12760000Y-16525000D01*
G37*
X9360000Y-14472500D02*
X9360000Y-15122500D01*
X9360000Y-15772500D02*
X9360000Y-15122500D01*
X12480000Y-14472500D02*
X12480000Y-15122500D01*
X12480000Y-15772500D02*
X12480000Y-15122500D01*
%TO.C,R7*%
X8612500Y-19774724D02*
X8612500Y-19265276D01*
X7567500Y-19774724D02*
X7567500Y-19265276D01*
%TO.C,R5*%
X-347500Y-19447224D02*
X-347500Y-18937776D01*
X-1392500Y-19447224D02*
X-1392500Y-18937776D01*
%TO.C,R2*%
X-2865276Y-11007500D02*
X-3374724Y-11007500D01*
X-2865276Y-12052500D02*
X-3374724Y-12052500D01*
%TO.C,U1*%
X3720000Y-20090000D02*
X3240000Y-20090000D01*
X3480000Y-19760000D01*
X3720000Y-20090000D01*
G36*
X3720000Y-20090000D02*
G01*
X3240000Y-20090000D01*
X3480000Y-19760000D01*
X3720000Y-20090000D01*
G37*
X5260000Y-17490000D02*
X3860000Y-17490000D01*
X5260000Y-19810000D02*
X3850000Y-19810000D01*
%TO.C,C1*%
X361252Y-15665000D02*
X-161252Y-15665000D01*
X361252Y-17135000D02*
X-161252Y-17135000D01*
%TO.C,C4*%
X5568748Y-11705000D02*
X6091252Y-11705000D01*
X5568748Y-13175000D02*
X6091252Y-13175000D01*
%TO.C,R1*%
X-7245276Y-10887500D02*
X-7754724Y-10887500D01*
X-7245276Y-11932500D02*
X-7754724Y-11932500D01*
%TO.C,U6*%
X10860000Y-13042500D02*
X10380000Y-13042500D01*
X10620000Y-12712500D01*
X10860000Y-13042500D01*
G36*
X10860000Y-13042500D02*
G01*
X10380000Y-13042500D01*
X10620000Y-12712500D01*
X10860000Y-13042500D01*
G37*
X12400000Y-12762500D02*
X10990000Y-12762500D01*
X12400000Y-10442500D02*
X11000000Y-10442500D01*
%TO.C,Q1*%
X9270000Y-7462500D02*
X8940000Y-7222500D01*
X9270000Y-6982500D01*
X9270000Y-7462500D01*
G36*
X9270000Y-7462500D02*
G01*
X8940000Y-7222500D01*
X9270000Y-6982500D01*
X9270000Y-7462500D01*
G37*
X8990000Y-6710000D02*
X8990000Y-6060000D01*
X8990000Y-5410000D02*
X8990000Y-6060000D01*
X5870000Y-6710000D02*
X5870000Y-6060000D01*
X5870000Y-5410000D02*
X5870000Y-6060000D01*
%TO.C,C11*%
X13185000Y-14998748D02*
X13185000Y-15521252D01*
X14655000Y-14998748D02*
X14655000Y-15521252D01*
%TO.C,C9*%
X-10443752Y-2095000D02*
X-9921248Y-2095000D01*
X-10443752Y-3565000D02*
X-9921248Y-3565000D01*
%TO.C,C3*%
X5125000Y-7053752D02*
X5125000Y-6531248D01*
X3655000Y-7053752D02*
X3655000Y-6531248D01*
%TO.C,C5*%
X2381252Y-22635000D02*
X1858748Y-22635000D01*
X2381252Y-21165000D02*
X1858748Y-21165000D01*
%TO.C,R11*%
X11582776Y-4042500D02*
X12092224Y-4042500D01*
X11582776Y-2997500D02*
X12092224Y-2997500D01*
%TO.C,C7*%
X7476248Y-21515000D02*
X7998752Y-21515000D01*
X7476248Y-22985000D02*
X7998752Y-22985000D01*
%TD*%
M02*
