%TF.GenerationSoftware,KiCad,Pcbnew,8.0.1*%
%TF.CreationDate,2024-05-25T07:42:12-07:00*%
%TF.ProjectId,knockControlBoard,6b6e6f63-6b43-46f6-9e74-726f6c426f61,rev?*%
%TF.SameCoordinates,Original*%
%TF.FileFunction,Soldermask,Bot*%
%TF.FilePolarity,Negative*%
%FSLAX46Y46*%
G04 Gerber Fmt 4.6, Leading zero omitted, Abs format (unit mm)*
G04 Created by KiCad (PCBNEW 8.0.1) date 2024-05-25 07:42:12*
%MOMM*%
%LPD*%
G01*
G04 APERTURE LIST*
G04 Aperture macros list*
%AMRoundRect*
0 Rectangle with rounded corners*
0 $1 Rounding radius*
0 $2 $3 $4 $5 $6 $7 $8 $9 X,Y pos of 4 corners*
0 Add a 4 corners polygon primitive as box body*
4,1,4,$2,$3,$4,$5,$6,$7,$8,$9,$2,$3,0*
0 Add four circle primitives for the rounded corners*
1,1,$1+$1,$2,$3*
1,1,$1+$1,$4,$5*
1,1,$1+$1,$6,$7*
1,1,$1+$1,$8,$9*
0 Add four rect primitives between the rounded corners*
20,1,$1+$1,$2,$3,$4,$5,0*
20,1,$1+$1,$4,$5,$6,$7,0*
20,1,$1+$1,$6,$7,$8,$9,0*
20,1,$1+$1,$8,$9,$2,$3,0*%
G04 Aperture macros list end*
%ADD10RoundRect,0.250000X-0.475000X0.337500X-0.475000X-0.337500X0.475000X-0.337500X0.475000X0.337500X0*%
%ADD11RoundRect,0.250000X0.337500X0.475000X-0.337500X0.475000X-0.337500X-0.475000X0.337500X-0.475000X0*%
%ADD12C,4.000000*%
%ADD13R,1.700000X1.700000*%
%ADD14O,1.700000X1.700000*%
%ADD15RoundRect,0.150000X0.150000X-0.587500X0.150000X0.587500X-0.150000X0.587500X-0.150000X-0.587500X0*%
%ADD16RoundRect,0.237500X0.250000X0.237500X-0.250000X0.237500X-0.250000X-0.237500X0.250000X-0.237500X0*%
%ADD17R,1.600000X1.600000*%
%ADD18O,1.600000X1.600000*%
%ADD19RoundRect,0.250000X-0.337500X-0.475000X0.337500X-0.475000X0.337500X0.475000X-0.337500X0.475000X0*%
%ADD20R,3.960000X1.980000*%
%ADD21O,3.960000X1.980000*%
%ADD22C,1.397000*%
%ADD23R,1.980000X3.960000*%
%ADD24O,1.980000X3.960000*%
%ADD25R,1.800000X1.800000*%
%ADD26C,1.800000*%
%ADD27RoundRect,0.250000X0.475000X-0.337500X0.475000X0.337500X-0.475000X0.337500X-0.475000X-0.337500X0*%
G04 APERTURE END LIST*
D10*
%TO.C,C6*%
X113740000Y-102032500D03*
X113740000Y-104107500D03*
%TD*%
D11*
%TO.C,C3*%
X106307500Y-90090000D03*
X104232500Y-90090000D03*
%TD*%
D12*
%TO.C,TP8*%
X112070000Y-111120000D03*
%TD*%
%TO.C,TP7*%
X106920000Y-111170000D03*
%TD*%
D13*
%TO.C,RV3*%
X102340000Y-109670000D03*
D14*
X102340000Y-107130000D03*
X102340000Y-104590000D03*
%TD*%
D15*
%TO.C,Q1*%
X126440000Y-83235000D03*
X124540000Y-83235000D03*
X125490000Y-81360000D03*
%TD*%
D12*
%TO.C,TP6*%
X115390000Y-85130000D03*
%TD*%
%TO.C,TP5*%
X118230000Y-89730000D03*
%TD*%
D16*
%TO.C,R11*%
X116630000Y-78580000D03*
X114805000Y-78580000D03*
%TD*%
D17*
%TO.C,D4*%
X100890000Y-89510000D03*
D18*
X100890000Y-97130000D03*
%TD*%
D19*
%TO.C,C7*%
X109812500Y-90230000D03*
X111887500Y-90230000D03*
%TD*%
D20*
%TO.C,J1*%
X92740000Y-98190000D03*
D21*
X92740000Y-103190000D03*
%TD*%
D22*
%TO.C,SW2*%
X87850000Y-92480000D03*
X87850000Y-84860000D03*
X92930000Y-92480000D03*
X92930000Y-84860000D03*
%TD*%
D13*
%TO.C,RV2*%
X124220000Y-97190000D03*
D14*
X124220000Y-94650000D03*
X124220000Y-92110000D03*
%TD*%
D23*
%TO.C,J7*%
X107140000Y-72010000D03*
D24*
X102140000Y-72010000D03*
X97140000Y-72010000D03*
X92140000Y-72010000D03*
%TD*%
D23*
%TO.C,J5*%
X113560000Y-72000000D03*
D24*
X118560000Y-72000000D03*
%TD*%
D12*
%TO.C,TP3*%
X110890000Y-81340000D03*
%TD*%
D22*
%TO.C,SW1*%
X95590000Y-113960000D03*
X87970000Y-113960000D03*
X95590000Y-108880000D03*
X87970000Y-108880000D03*
%TD*%
D12*
%TO.C,TP1*%
X86640000Y-80070000D03*
%TD*%
%TO.C,TP4*%
X110630000Y-97900000D03*
%TD*%
D25*
%TO.C,D3*%
X122450000Y-82090000D03*
D26*
X119910000Y-82090000D03*
%TD*%
D13*
%TO.C,RV1*%
X124010000Y-112645000D03*
D14*
X124010000Y-110105000D03*
X124010000Y-107565000D03*
%TD*%
D12*
%TO.C,TP2*%
X118340000Y-108310000D03*
%TD*%
D10*
%TO.C,C11*%
X124530000Y-86462500D03*
X124530000Y-88537500D03*
%TD*%
D27*
%TO.C,C2*%
X103630000Y-95987500D03*
X103630000Y-93912500D03*
%TD*%
D19*
%TO.C,C9*%
X114802500Y-76190000D03*
X116877500Y-76190000D03*
%TD*%
%TO.C,C5*%
X111115000Y-106510000D03*
X113190000Y-106510000D03*
%TD*%
M02*
