%TF.GenerationSoftware,KiCad,Pcbnew,8.0.1*%
%TF.CreationDate,2024-05-25T07:42:12-07:00*%
%TF.ProjectId,knockControlBoard,6b6e6f63-6b43-46f6-9e74-726f6c426f61,rev?*%
%TF.SameCoordinates,Original*%
%TF.FileFunction,Paste,Top*%
%TF.FilePolarity,Positive*%
%FSLAX46Y46*%
G04 Gerber Fmt 4.6, Leading zero omitted, Abs format (unit mm)*
G04 Created by KiCad (PCBNEW 8.0.1) date 2024-05-25 07:42:12*
%MOMM*%
%LPD*%
G01*
G04 APERTURE LIST*
G04 Aperture macros list*
%AMRoundRect*
0 Rectangle with rounded corners*
0 $1 Rounding radius*
0 $2 $3 $4 $5 $6 $7 $8 $9 X,Y pos of 4 corners*
0 Add a 4 corners polygon primitive as box body*
4,1,4,$2,$3,$4,$5,$6,$7,$8,$9,$2,$3,0*
0 Add four circle primitives for the rounded corners*
1,1,$1+$1,$2,$3*
1,1,$1+$1,$4,$5*
1,1,$1+$1,$6,$7*
1,1,$1+$1,$8,$9*
0 Add four rect primitives between the rounded corners*
20,1,$1+$1,$2,$3,$4,$5,0*
20,1,$1+$1,$4,$5,$6,$7,0*
20,1,$1+$1,$6,$7,$8,$9,0*
20,1,$1+$1,$8,$9,$2,$3,0*%
G04 Aperture macros list end*
%ADD10RoundRect,0.162500X0.162500X-0.617500X0.162500X0.617500X-0.162500X0.617500X-0.162500X-0.617500X0*%
%ADD11RoundRect,0.237500X-0.237500X0.250000X-0.237500X-0.250000X0.237500X-0.250000X0.237500X0.250000X0*%
%ADD12RoundRect,0.250000X0.337500X0.475000X-0.337500X0.475000X-0.337500X-0.475000X0.337500X-0.475000X0*%
%ADD13RoundRect,0.162500X-0.617500X-0.162500X0.617500X-0.162500X0.617500X0.162500X-0.617500X0.162500X0*%
%ADD14RoundRect,0.237500X0.237500X-0.250000X0.237500X0.250000X-0.237500X0.250000X-0.237500X-0.250000X0*%
%ADD15RoundRect,0.100000X-0.650000X-0.100000X0.650000X-0.100000X0.650000X0.100000X-0.650000X0.100000X0*%
%ADD16RoundRect,0.250000X-0.337500X-0.475000X0.337500X-0.475000X0.337500X0.475000X-0.337500X0.475000X0*%
%ADD17RoundRect,0.100000X-0.100000X0.650000X-0.100000X-0.650000X0.100000X-0.650000X0.100000X0.650000X0*%
%ADD18RoundRect,0.237500X0.250000X0.237500X-0.250000X0.237500X-0.250000X-0.237500X0.250000X-0.237500X0*%
%ADD19RoundRect,0.250000X-1.000000X-0.650000X1.000000X-0.650000X1.000000X0.650000X-1.000000X0.650000X0*%
%ADD20RoundRect,0.237500X-0.250000X-0.237500X0.250000X-0.237500X0.250000X0.237500X-0.250000X0.237500X0*%
G04 APERTURE END LIST*
D10*
%TO.C,U4*%
X112520000Y-104160000D03*
X113470000Y-104160000D03*
X114420000Y-104160000D03*
X114420000Y-101460000D03*
X113470000Y-101460000D03*
X112520000Y-101460000D03*
%TD*%
D11*
%TO.C,R6*%
X108870000Y-103915000D03*
X108870000Y-105740000D03*
%TD*%
D12*
%TO.C,C8*%
X117667500Y-95650000D03*
X115592500Y-95650000D03*
%TD*%
D10*
%TO.C,U5*%
X103690000Y-97060000D03*
X104640000Y-97060000D03*
X105590000Y-97060000D03*
X105590000Y-94360000D03*
X103690000Y-94360000D03*
%TD*%
D13*
%TO.C,U3*%
X109740000Y-89410000D03*
X109740000Y-90360000D03*
X109740000Y-91310000D03*
X112440000Y-91310000D03*
X112440000Y-89410000D03*
%TD*%
D14*
%TO.C,R2*%
X105420000Y-105670000D03*
X105420000Y-103845000D03*
%TD*%
D15*
%TO.C,U1*%
X110770000Y-106230000D03*
X110770000Y-106880000D03*
X110770000Y-107530000D03*
X113430000Y-107530000D03*
X113430000Y-106230000D03*
%TD*%
D16*
%TO.C,C1*%
X105260000Y-107540000D03*
X107335000Y-107540000D03*
%TD*%
D12*
%TO.C,C4*%
X110920000Y-93960000D03*
X108845000Y-93960000D03*
%TD*%
D17*
%TO.C,U6*%
X124940000Y-86012500D03*
X124290000Y-86012500D03*
X123640000Y-86012500D03*
X123640000Y-88672500D03*
X124940000Y-88672500D03*
%TD*%
D10*
%TO.C,U2*%
X104320000Y-91440000D03*
X105270000Y-91440000D03*
X106220000Y-91440000D03*
X106220000Y-88740000D03*
X105270000Y-88740000D03*
X104320000Y-88740000D03*
%TD*%
D18*
%TO.C,R3*%
X117452500Y-93280000D03*
X115627500Y-93280000D03*
%TD*%
D19*
%TO.C,D1*%
X102430000Y-100640000D03*
X106430000Y-100640000D03*
%TD*%
D11*
%TO.C,R4*%
X104900000Y-81167500D03*
X104900000Y-82992500D03*
%TD*%
D20*
%TO.C,R1*%
X97635000Y-107640000D03*
X99460000Y-107640000D03*
%TD*%
D11*
%TO.C,R15*%
X99630000Y-80805000D03*
X99630000Y-82630000D03*
%TD*%
M02*
